<svg width="71" height="71" viewBox="0 0 71 71" fill="none" xmlns="http://www.w3.org/2000/svg">
<g filter="url(#filter0_d_2016_350)">
<circle cx="35.0424" cy="35.0424" r="20.0424" fill="black"/>
<circle cx="35.0424" cy="35.0424" r="19.5424" stroke="black"/>
</g>
<path d="M42.8947 31.7896C42.8577 30.9505 42.722 30.3737 42.5276 29.8739C42.3271 29.3433 42.0186 28.8683 41.6145 28.4734C41.2196 28.0724 40.7415 27.7608 40.2171 27.5634C39.7144 27.3691 39.1405 27.2333 38.3015 27.1964C37.4562 27.1562 37.1878 27.147 35.0439 27.147C32.9 27.147 32.6316 27.1562 31.7895 27.1932C30.9504 27.2303 30.3736 27.3661 29.8739 27.5603C29.3432 27.7608 28.8682 28.0693 28.4733 28.4734C28.0723 28.8683 27.7608 29.3464 27.5633 29.8708C27.369 30.3737 27.2333 30.9474 27.1963 31.7864C27.1561 32.6318 27.1469 32.9001 27.1469 35.044C27.1469 37.188 27.1561 37.4563 27.1931 38.2985C27.2301 39.1375 27.3659 39.7143 27.5603 40.2142C27.7608 40.7447 28.0723 41.2197 28.4733 41.6146C28.8682 42.0156 29.3463 42.3273 29.8707 42.5246C30.3736 42.719 30.9473 42.8547 31.7865 42.8917C32.6285 42.9288 32.897 42.9379 35.0409 42.9379C37.1848 42.9379 37.4532 42.9288 38.2954 42.8917C39.1344 42.8547 39.7112 42.719 40.2109 42.5246C40.7358 42.3217 41.2124 42.0114 41.6103 41.6135C42.0082 41.2156 42.3186 40.739 42.5215 40.2142C42.7157 39.7113 42.8516 39.1375 42.8885 38.2985C42.9256 37.4563 42.9348 37.188 42.9348 35.044C42.9348 32.9001 42.9317 32.6317 42.8947 31.7896ZM41.4727 38.2368C41.4387 39.008 41.3092 39.4244 41.2012 39.7021C40.9358 40.39 40.3899 40.936 39.7019 41.2013C39.4243 41.3093 39.0049 41.4388 38.2367 41.4727C37.4038 41.5098 37.154 41.5189 35.047 41.5189C32.9401 41.5189 32.6872 41.5098 31.8573 41.4727C31.0861 41.4388 30.6696 41.3093 30.392 41.2013C30.0497 41.0748 29.7381 40.8743 29.4851 40.6121C29.2229 40.356 29.0224 40.0475 28.8959 39.7052C28.7879 39.4276 28.6584 39.008 28.6246 38.2399C28.5874 37.407 28.5783 37.1571 28.5783 35.0502C28.5783 32.9432 28.5874 32.6903 28.6246 31.8606C28.6584 31.0894 28.7879 30.6729 28.8959 30.3953C29.0224 30.0528 29.2229 29.7413 29.4883 29.4883C29.7442 29.2261 30.0527 29.0255 30.3952 28.8992C30.6728 28.7912 31.0924 28.6616 31.8604 28.6277C32.6933 28.5907 32.9433 28.5814 35.05 28.5814C37.1601 28.5814 37.4099 28.5907 38.2398 28.6277C39.011 28.6617 39.4274 28.7912 39.7051 28.8991C40.0474 29.0255 40.359 29.2261 40.6119 29.4883C40.8741 29.7443 41.0747 30.0528 41.2012 30.3953C41.3092 30.6729 41.4387 31.0924 41.4727 31.8606C41.5097 32.6934 41.5189 32.9432 41.5189 35.0502C41.5189 37.1571 41.5097 37.4039 41.4727 38.2368Z" fill="#5A40FF"/>
<path d="M35.0439 30.9873C32.8044 30.9873 30.9874 32.8041 30.9874 35.0438C30.9874 37.2834 32.8044 39.1002 35.0439 39.1002C37.2835 39.1002 39.1004 37.2834 39.1004 35.0438C39.1004 32.8041 37.2835 30.9873 35.0439 30.9873ZM35.0439 37.6751C33.591 37.6751 32.4125 36.4968 32.4125 35.0438C32.4125 33.5908 33.591 32.4124 35.0439 32.4124C36.4969 32.4124 37.6752 33.5908 37.6752 35.0438C37.6752 36.4968 36.4969 37.6751 35.0439 37.6751ZM40.2079 30.8269C40.2079 31.3498 39.7839 31.7739 39.2608 31.7739C38.7378 31.7739 38.3138 31.3498 38.3138 30.8269C38.3138 30.3038 38.7378 29.8799 39.2608 29.8799C39.7838 29.8799 40.2079 30.3038 40.2079 30.8269Z" fill="#5A40FF"/>
<defs>
<filter id="filter0_d_2016_350" x="0" y="0" width="70.0847" height="70.085" filterUnits="userSpaceOnUse" color-interpolation-filters="sRGB">
<feFlood flood-opacity="0" result="BackgroundImageFix"/>
<feColorMatrix in="SourceAlpha" type="matrix" values="0 0 0 0 0 0 0 0 0 0 0 0 0 0 0 0 0 0 127 0" result="hardAlpha"/>
<feOffset/>
<feGaussianBlur stdDeviation="7.5"/>
<feComposite in2="hardAlpha" operator="out"/>
<feColorMatrix type="matrix" values="0 0 0 0 0 0 0 0 0 0 0 0 0 0 0 0 0 0 0.15 0"/>
<feBlend mode="normal" in2="BackgroundImageFix" result="effect1_dropShadow_2016_350"/>
<feBlend mode="normal" in="SourceGraphic" in2="effect1_dropShadow_2016_350" result="shape"/>
</filter>
</defs>
</svg>
