<svg width="71" height="71" viewBox="0 0 71 71" fill="none" xmlns="http://www.w3.org/2000/svg">
<g filter="url(#filter0_d_2016_361)">
<circle cx="35.0424" cy="35.0424" r="20.0424" fill="black"/>
<circle cx="35.0424" cy="35.0424" r="19.5424" stroke="black"/>
</g>
<path d="M42.2676 42.2678V36.7298C42.2676 34.008 41.6817 31.9289 38.5063 31.9289C36.9754 31.9289 35.9547 32.7606 35.5389 33.5544H35.5011V32.1746H32.4958V42.2678H35.6334V37.259C35.6334 35.9359 35.8791 34.6696 37.5046 34.6696C39.1112 34.6696 39.1301 36.1627 39.1301 37.3346V42.2489H42.2676V42.2678ZM27.3926 32.1746H30.5301V42.2678H27.3926V32.1746ZM28.9613 27.147C27.9596 27.147 27.1469 27.9597 27.1469 28.9615C27.1469 29.9632 27.9596 30.7949 28.9613 30.7949C29.9631 30.7949 30.7758 29.9632 30.7758 28.9615C30.7758 27.9597 29.9631 27.147 28.9613 27.147Z" fill="#5A40FF"/>
<defs>
<filter id="filter0_d_2016_361" x="0" y="0" width="70.0847" height="70.085" filterUnits="userSpaceOnUse" color-interpolation-filters="sRGB">
<feFlood flood-opacity="0" result="BackgroundImageFix"/>
<feColorMatrix in="SourceAlpha" type="matrix" values="0 0 0 0 0 0 0 0 0 0 0 0 0 0 0 0 0 0 127 0" result="hardAlpha"/>
<feOffset/>
<feGaussianBlur stdDeviation="7.5"/>
<feComposite in2="hardAlpha" operator="out"/>
<feColorMatrix type="matrix" values="0 0 0 0 0 0 0 0 0 0 0 0 0 0 0 0 0 0 0.15 0"/>
<feBlend mode="normal" in2="BackgroundImageFix" result="effect1_dropShadow_2016_361"/>
<feBlend mode="normal" in="SourceGraphic" in2="effect1_dropShadow_2016_361" result="shape"/>
</filter>
</defs>
</svg>
