<svg width="71" height="71" viewBox="0 0 71 71" fill="none" xmlns="http://www.w3.org/2000/svg">
<g filter="url(#filter0_d_2016_358)">
<circle cx="35.0424" cy="35.0424" r="20.0424" fill="black"/>
<circle cx="35.0424" cy="35.0424" r="19.5424" stroke="black"/>
</g>
<path d="M44.5426 28.937C43.8505 29.2406 43.1131 29.4418 42.3442 29.5395C43.1352 29.0673 43.7388 28.3252 44.0227 27.4308C43.2852 27.8704 42.471 28.181 41.6033 28.3543C40.9031 27.6087 39.9051 27.147 38.8164 27.147C36.7042 27.147 35.0037 28.8614 35.0037 30.9632C35.0037 31.2656 35.0293 31.5564 35.0921 31.8333C31.9202 31.6786 29.1136 30.1583 27.2281 27.8425C26.8989 28.4136 26.7059 29.0673 26.7059 29.771C26.7059 31.0923 27.3863 32.2636 28.4006 32.9417C27.7876 32.9301 27.1862 32.7521 26.6768 32.4718V32.5137C26.6768 34.3677 27.9993 35.9077 29.7335 36.2625C29.4229 36.3474 29.0845 36.3881 28.7332 36.3881C28.4889 36.3881 28.2424 36.3741 28.0109 36.323C28.5052 37.8339 29.908 38.9447 31.5759 38.9807C30.2779 39.9962 28.6297 40.608 26.8454 40.608C26.5326 40.608 26.2325 40.594 25.9324 40.5556C27.6224 41.6455 29.6253 42.2678 31.7853 42.2678C38.806 42.2678 42.6443 36.4521 42.6443 31.411C42.6443 31.2424 42.6385 31.0795 42.6304 30.9179C43.3876 30.3805 44.0238 29.7094 44.5426 28.937Z" fill="#5A40FF"/>
<defs>
<filter id="filter0_d_2016_358" x="0" y="0" width="70.0847" height="70.085" filterUnits="userSpaceOnUse" color-interpolation-filters="sRGB">
<feFlood flood-opacity="0" result="BackgroundImageFix"/>
<feColorMatrix in="SourceAlpha" type="matrix" values="0 0 0 0 0 0 0 0 0 0 0 0 0 0 0 0 0 0 127 0" result="hardAlpha"/>
<feOffset/>
<feGaussianBlur stdDeviation="7.5"/>
<feComposite in2="hardAlpha" operator="out"/>
<feColorMatrix type="matrix" values="0 0 0 0 0 0 0 0 0 0 0 0 0 0 0 0 0 0 0.15 0"/>
<feBlend mode="normal" in2="BackgroundImageFix" result="effect1_dropShadow_2016_358"/>
<feBlend mode="normal" in="SourceGraphic" in2="effect1_dropShadow_2016_358" result="shape"/>
</filter>
</defs>
</svg>
