<svg width="32" height="32" viewBox="0 0 32 32" fill="none" xmlns="http://www.w3.org/2000/svg">
<path d="M21.4091 31.0818L17.2 20.2545L17.8181 19.9727C19.683 19.1177 20.7006 17.0795 20.2633 15.0753C19.826 13.0712 18.0514 11.6423 16.0001 11.6423C13.9485 11.6423 12.1742 13.0712 11.7369 15.0753C11.2993 17.0795 12.3169 19.1178 14.1818 19.9727L14.8 20.2545L10.5908 31.0818L9.90903 30.8C3.90372 28.341 -0.0143469 22.4893 3.94842e-05 15.9998C3.94842e-05 7.18172 7.18176 0 16.0001 0C24.8182 0 31.9999 7.18172 31.9999 15.9998C32.0143 22.4893 28.0965 28.341 22.0909 30.8L21.4091 31.0818ZM19.0364 20.9635L22.2182 29.1544C27.3121 26.7578 30.5587 21.6296 30.5455 15.9998C30.5455 7.98176 24.0181 1.45445 16.0001 1.45445C7.9818 1.45445 1.45449 7.98176 1.45449 15.9998C1.44147 21.6296 4.68781 26.7578 9.782 29.1544L12.9636 20.9635C10.7408 19.6035 9.6933 16.9314 10.3996 14.4234C11.1062 11.915 13.3943 10.1823 16.0001 10.1823C18.6059 10.1823 20.894 11.915 21.6003 14.4234C22.3067 16.9314 21.2592 19.6035 19.0363 20.9635H19.0364Z" fill="#5A40FF"/>
</svg>
