<svg width="32" height="32" viewBox="0 0 32 32" fill="none" xmlns="http://www.w3.org/2000/svg">
<g clip-path="url(#clip0_2020_331)">
<path d="M31.6969 30.2591L23.435 22.1292C25.5985 19.7786 26.9278 16.6699 26.9278 13.2491C26.9268 5.93135 20.8994 0 13.4636 0C6.02789 0 0.000488281 5.93135 0.000488281 13.2491C0.000488281 20.5668 6.02789 26.4982 13.4636 26.4982C16.6764 26.4982 19.6231 25.3869 21.9376 23.5395L30.2316 31.7014C30.6357 32.0995 31.2918 32.0995 31.6959 31.7014C31.792 31.6075 31.8684 31.4954 31.9206 31.3716C31.9728 31.2478 31.9998 31.1148 31.9998 30.9804C31.9999 30.8461 31.9732 30.713 31.9211 30.5892C31.8691 30.4653 31.7929 30.3531 31.6969 30.2591ZM13.4636 24.4597C7.17219 24.4597 2.07198 19.4406 2.07198 13.2491C2.07198 7.05761 7.17219 2.03845 13.4636 2.03845C19.7551 2.03845 24.8553 7.05761 24.8553 13.2491C24.8553 19.4406 19.7551 24.4597 13.4636 24.4597Z" fill="#5A40FF"/>
</g>
<defs>
<clipPath id="clip0_2020_331">
<rect width="32" height="32" fill="white"/>
</clipPath>
</defs>
</svg>
