<svg width="32" height="32" viewBox="0 0 32 32" fill="none" xmlns="http://www.w3.org/2000/svg">
<g clip-path="url(#clip0_2020_332)">
<path d="M23.4263 3.6709C23.7844 3.69834 24.1296 3.82263 24.4243 4.03125L24.7847 4.29297C28.4566 7.05245 30.6353 11.3956 30.6353 16C30.6353 23.1587 25.3966 29.2883 18.3774 30.4395V31.2861C18.3774 31.5291 18.3115 31.7609 18.1665 31.9414C18.0063 32.1408 17.772 32.2499 17.5161 32.25C17.3294 32.25 17.1473 32.1929 16.9771 32.0947L12.3813 29.4414C12.0761 29.2652 11.8628 28.9768 11.8628 28.6328C11.8629 28.289 12.0763 28.0013 12.3813 27.8252L16.9771 25.1719C17.1475 25.0735 17.3295 25.0166 17.5161 25.0166C17.7688 25.0167 17.9915 25.1213 18.147 25.3027C18.3001 25.4815 18.3774 25.7215 18.3774 25.9805V26.3604C23.1945 25.2629 26.6313 20.999 26.6313 16C26.6313 12.5475 24.9442 9.29629 22.1177 7.30371C21.7357 7.03447 21.465 6.64808 21.3423 6.20312L21.2983 6.00879C21.2072 5.48236 21.3275 4.95032 21.6353 4.51367L21.7847 4.32617C21.945 4.14871 22.1366 4.00128 22.3501 3.89062C22.6349 3.74304 22.9512 3.66518 23.272 3.66504L23.4263 3.6709ZM23.272 4.66504C23.1113 4.66512 22.9527 4.70443 22.8101 4.77832C22.6675 4.85225 22.5444 4.95964 22.4517 5.09082C22.2976 5.30972 22.2382 5.57412 22.2837 5.83789C22.3294 6.10205 22.4748 6.33191 22.6938 6.48633C25.7856 8.66603 27.6313 12.2224 27.6313 16C27.6313 18.7586 26.6441 21.4347 24.8521 23.5361C23.1914 25.4836 20.9372 26.8316 18.4595 27.3682L17.9614 27.4648C17.8897 27.477 17.8158 27.4732 17.7456 27.4541C17.6757 27.435 17.6106 27.4012 17.5552 27.3545C17.4996 27.3076 17.455 27.2486 17.4243 27.1826C17.3937 27.1168 17.3775 27.0452 17.3774 26.9727V26.0938L12.981 28.6328L17.3774 31.1709V30.0098C17.3775 29.8887 17.4217 29.7718 17.5015 29.6807C17.5812 29.5897 17.6911 29.5307 17.811 29.5146C24.551 28.6163 29.6353 22.8057 29.6353 16C29.6353 11.5722 27.4718 7.40325 23.8481 4.84863C23.6778 4.72853 23.4788 4.66504 23.272 4.66504ZM14.4839 -0.25C14.6705 -0.25 14.8525 -0.193108 15.0229 -0.0947266L19.6187 2.55859C19.9236 2.73466 20.137 3.02252 20.1372 3.36621C20.1372 3.71017 19.9237 3.99849 19.6187 4.1748L15.0229 6.82812C14.8525 6.92651 14.6705 6.9834 14.4839 6.9834C14.2312 6.98337 14.0085 6.87872 13.853 6.69727C13.6999 6.51857 13.6226 6.27853 13.6226 6.01953V5.63867C8.80543 6.73603 5.36865 11.0008 5.36865 16C5.36865 19.4523 7.05591 22.7036 9.88232 24.6963C10.3189 25.004 10.6106 25.4648 10.7017 25.9912C10.7928 26.5177 10.6736 27.0497 10.3657 27.4863C10.1807 27.7484 9.93478 27.9617 9.6499 28.1094C9.36499 28.257 9.04892 28.3349 8.72803 28.335C8.36672 28.3353 8.01307 28.2371 7.70459 28.0527L7.57568 27.9688C3.68657 25.227 1.36475 20.7529 1.36475 16C1.36475 8.84124 6.60338 2.71063 13.6226 1.55957V0.713867C13.6226 0.454848 13.6999 0.214841 13.853 0.0361328C14.0085 -0.14532 14.2312 -0.24997 14.4839 -0.25ZM14.6226 1.99023L14.6147 2.08008C14.5986 2.16828 14.5583 2.25104 14.4985 2.31934C14.4188 2.41034 14.3089 2.46928 14.189 2.48535C7.44896 3.38371 2.36475 9.19433 2.36475 16C2.36475 20.4278 4.52817 24.5967 8.15186 27.1514H8.15283C8.32097 27.2705 8.52198 27.3351 8.72803 27.335C8.88874 27.3349 9.04724 27.2956 9.18994 27.2217C9.33248 27.1478 9.45568 27.0413 9.54834 26.9102C9.70281 26.6911 9.7619 26.4262 9.71631 26.1621C9.67062 25.898 9.52523 25.6681 9.30615 25.5137C6.21437 23.3339 4.36865 19.7776 4.36865 16C4.36865 13.2413 5.35599 10.5644 7.14795 8.46289C8.91918 6.38599 11.366 4.99099 14.0386 4.53516L14.147 4.52832C14.1831 4.5301 14.2193 4.53632 14.2544 4.5459C14.3243 4.56505 14.3894 4.59878 14.4448 4.64551C14.5004 4.69241 14.545 4.75145 14.5757 4.81738C14.6063 4.8832 14.6225 4.95477 14.6226 5.02734V5.90527L19.0181 3.36719L14.6226 0.828125V1.99023Z" fill="#5A40FF" stroke="#5A40FF" stroke-width="0.5"/>
<path d="M23.146 12.0596L23.145 12.0488C23.1411 12.0209 23.1333 11.9932 23.1235 11.9668C23.1055 11.9173 23.0782 11.8718 23.0425 11.833H23.0435C23.028 11.816 23.0109 11.8002 22.9927 11.7861L22.9917 11.7852L22.9829 11.7793L22.979 11.7764C22.9698 11.7698 22.9604 11.7636 22.9507 11.7578L22.9487 11.7568L16.1997 7.86035C16.1391 7.82546 16.0704 7.8067 16.0005 7.80664C15.9304 7.80664 15.861 7.82532 15.8003 7.86035L9.05127 11.7568C9.0365 11.7654 9.02428 11.7751 9.01709 11.7803L9.01514 11.7812H9.01416M23.146 12.0596C23.1461 12.0606 23.1459 12.0617 23.146 12.0625M23.146 12.0596C23.1461 12.0606 23.1459 12.0617 23.146 12.0625M23.146 12.0596L23.147 12.0674V12.0684C23.1469 12.0674 23.1462 12.0652 23.146 12.0625M23.146 12.0625C23.1469 12.071 23.1489 12.0864 23.1489 12.1035V19.8965C23.1489 19.9666 23.1303 20.0359 23.0952 20.0967C23.0601 20.1574 23.0094 20.2081 22.9487 20.2432L16.1997 24.1377L16.2007 24.1387C16.185 24.1478 16.1698 24.155 16.1626 24.1582L16.1616 24.1572C16.1594 24.1583 16.1571 24.1607 16.1538 24.1621C16.1308 24.1717 16.1083 24.1781 16.0884 24.1826L16.0874 24.1816C16.0802 24.1833 16.0736 24.1852 16.0718 24.1855C16.0517 24.1892 16.0271 24.1924 16.0005 24.1924C15.9734 24.1924 15.9485 24.189 15.9292 24.1855H15.9282L15.9116 24.1826C15.8917 24.1781 15.8692 24.1717 15.8462 24.1621L15.8325 24.1553C15.824 24.1514 15.8125 24.1457 15.8003 24.1387L9.05127 20.2422C8.9277 20.1707 8.85119 20.0391 8.85107 19.8965V12.1016L8.85303 12.0684C8.85304 12.0681 8.85416 12.0609 8.85498 12.0537V12.0508C8.85891 12.0222 8.86548 11.9939 8.87549 11.9668C8.88211 11.9486 8.8915 11.9263 8.90479 11.9033L8.90576 11.9023C8.91787 11.8819 8.93227 11.8627 8.94775 11.8447H8.94678C8.94883 11.8423 8.95333 11.8366 8.9585 11.8311H8.95947C8.97433 11.815 8.99002 11.7996 9.00732 11.7861H9.0083C9.01055 11.7844 9.01236 11.7825 9.01416 11.7812M9.01416 11.7812C9.01545 11.7803 9.0171 11.7799 9.01807 11.7793C9.01991 11.7781 9.02133 11.7768 9.02197 11.7764H9.021C9.01989 11.7771 9.01676 11.7793 9.01416 11.7812ZM9.65186 19.665L15.6001 23.0996V16.2305L13.9224 15.2617V16.6055C13.9224 16.6757 13.9038 16.7448 13.8687 16.8057C13.8335 16.8664 13.783 16.9171 13.7222 16.9521C13.6615 16.9871 13.5929 17.0058 13.5229 17.0059C13.488 17.0059 13.453 17.0011 13.4194 16.9922L13.3228 16.9521L11.6626 15.9932C11.5388 15.9218 11.4625 15.7902 11.4624 15.6475V13.8408L9.65186 12.7959V19.665ZM16.3999 16.2305V23.0996L22.3491 19.665V12.7949L16.3999 16.2305ZM12.2622 13.8408V15.416L13.1226 15.9131V14.5693C13.1226 14.5621 13.1231 14.5559 13.1235 14.5518C13.1239 14.5479 13.1244 14.5447 13.1245 14.5439C13.1248 14.5395 13.1251 14.5347 13.1255 14.5303C13.1266 14.5193 13.1277 14.5092 13.1284 14.5049C13.1298 14.4961 13.1313 14.4872 13.1333 14.4785L13.1343 14.4766C13.1362 14.4688 13.1386 14.4603 13.1411 14.4521C13.1439 14.4433 13.1465 14.4347 13.1479 14.4307C13.1499 14.4252 13.1543 14.4139 13.1597 14.4023L13.1606 14.4014C13.1628 14.3968 13.1651 14.3922 13.1675 14.3877C13.168 14.3866 13.1679 14.3851 13.1685 14.3838C13.1704 14.3795 13.1741 14.3739 13.1782 14.3672L13.186 14.3545L13.1978 14.3369C13.2053 14.3263 13.2133 14.3169 13.2153 14.3145L13.2163 14.3135C13.2185 14.3108 13.2246 14.3037 13.231 14.2969L13.2319 14.2959C13.2371 14.2904 13.2421 14.2845 13.2476 14.2793L13.2495 14.2783C13.2577 14.2707 13.2661 14.264 13.27 14.2607V14.2598C13.2719 14.2582 13.2808 14.2514 13.2896 14.2451L13.2905 14.2441C13.294 14.2417 13.2977 14.2396 13.3013 14.2373L13.3081 14.2324C13.3116 14.2299 13.3165 14.2262 13.3228 14.2227L19.4712 10.6729L18.6108 10.1758L12.2622 13.8408ZM14.3218 14.5693L15.9995 15.5371L21.9487 12.1025L20.271 11.1348L14.3218 14.5693ZM10.0513 12.1035L11.8618 13.1484L17.8101 9.71387L15.9995 8.66895L10.0513 12.1035Z" fill="#5A40FF" stroke="#5A40FF" stroke-width="0.3"/>
</g>
<defs>
<clipPath id="clip0_2020_332">
<rect width="32" height="32" fill="white"/>
</clipPath>
</defs>
</svg>
