<svg width="32" height="32" viewBox="0 0 32 32" fill="none" xmlns="http://www.w3.org/2000/svg">
<g clip-path="url(#clip0_2004_711)">
<path d="M28.6255 0H7.93328C6.13739 0 4.67628 1.44738 4.67628 3.22066L4.54303 21.4413H0.50481C0.218623 21.4413 0 21.6943 0 21.9805V24.4881C0 26.8355 1.87854 28.7553 4.14575 28.8606V28.8907H21.5709V28.8568C21.7004 28.8621 21.7788 28.8907 21.8679 28.8907H21.8803C24.2983 28.8765 26.2475 26.9056 26.2348 24.4876V8.55061H31.4952C31.7814 8.55061 32 8.2915 32 8.00557V3.40463C32.0032 1.53457 30.4954 0.0134089 28.6255 0ZM4.37247 27.8543H4.36891C2.52554 27.8543 1.03644 26.3307 1.03644 24.4876V22.4777H17.4899V24.479C17.4879 25.0565 17.6 25.6288 17.8197 26.1629C18.0394 26.697 18.3625 27.1824 18.7703 27.5913C18.8578 27.6794 18.9494 27.7247 19.043 27.8543H4.37247ZM25.1984 24.4871C25.1984 26.3307 23.7237 27.8543 21.8796 27.8543H21.869C20.0157 27.8408 18.522 26.3325 18.5263 24.4792V21.9805C18.527 21.8409 18.4733 21.7065 18.3766 21.6058C18.2798 21.5051 18.1476 21.4461 18.0081 21.4413H5.57947L5.71271 3.22416C5.71278 2.01898 6.70873 1.03644 7.93328 1.03644H26.179C25.5883 1.68421 25.1984 2.50377 25.1984 3.41849V24.4871ZM30.9636 3.41377V7.51417H26.2348V3.41752C26.2348 2.12042 27.3137 1.03644 28.6103 1.03644H28.6248C29.9246 1.04939 30.9697 2.1098 30.9636 3.40988V3.41377Z" fill="#2A3FCC"/>
<path d="M12.1688 12.7555L14.8407 14.5823C14.9259 14.641 15.0269 14.6724 15.1303 14.6724C15.2337 14.6724 15.3347 14.641 15.4199 14.5823L18.0836 12.7561C19.009 12.1247 19.6924 10.8048 19.6924 9.68568V5.98994C19.6951 5.89418 19.6705 5.79963 19.6216 5.71726C19.5727 5.63489 19.5014 5.56808 19.4161 5.52458L15.3481 3.52361C15.2777 3.48865 15.2002 3.47046 15.1216 3.47046C15.043 3.47046 14.9655 3.48865 14.8951 3.52361L10.8346 5.51901C10.7493 5.5625 10.6781 5.62931 10.6293 5.71168C10.5805 5.79405 10.556 5.88859 10.5588 5.98431V9.68568C10.5588 10.8049 11.2438 12.1247 12.1688 12.7555ZM11.5952 6.30768L15.1256 4.56581L18.656 6.3124V9.68562C18.656 10.4663 18.1444 11.4592 17.4989 11.8992L15.1196 13.5265L12.7496 11.8996C12.1041 11.4591 11.5952 10.4664 11.5952 9.68575V6.30768Z" fill="#2A3FCC"/>
<path d="M14.2489 10.4681C14.2967 10.5169 14.3538 10.5558 14.4168 10.5825C14.4797 10.6091 14.5474 10.6231 14.6158 10.6234H14.617C14.6852 10.6232 14.7526 10.6095 14.8155 10.5832C14.8784 10.5569 14.9354 10.5185 14.9834 10.4701L17.0449 8.40784C17.0931 8.35971 17.1313 8.30257 17.1574 8.23967C17.1835 8.17677 17.1969 8.10935 17.1969 8.04125C17.197 7.97316 17.1836 7.90572 17.1575 7.84281C17.1315 7.77989 17.0933 7.72272 17.0452 7.67456C16.843 7.4718 16.5145 7.47181 16.3121 7.6743L14.6188 9.36732L13.9419 8.68392C13.8939 8.63554 13.837 8.59708 13.7742 8.57073C13.7114 8.54438 13.644 8.53067 13.5759 8.53036C13.5078 8.53005 13.4403 8.54316 13.3773 8.56894C13.3143 8.59473 13.257 8.63267 13.2086 8.68061C13.111 8.77745 13.0558 8.90908 13.0552 9.04658C13.0546 9.18409 13.1086 9.31621 13.2054 9.41389L14.2489 10.4681ZM21.5707 16.0647H9.13345C8.99601 16.0647 8.8642 16.1193 8.76702 16.2165C8.66983 16.3137 8.61523 16.4455 8.61523 16.5829C8.61523 16.7204 8.66983 16.8522 8.76702 16.9494C8.8642 17.0466 8.99601 17.1011 9.13345 17.1011H21.5707C21.7081 17.1011 21.84 17.0466 21.9371 16.9494C22.0343 16.8522 22.0889 16.7204 22.0889 16.5829C22.0889 16.4455 22.0343 16.3137 21.9371 16.2165C21.84 16.1193 21.7081 16.0647 21.5707 16.0647ZM21.5707 18.4615H9.13345C8.99601 18.4615 8.8642 18.5161 8.76702 18.6133C8.66983 18.7104 8.61523 18.8423 8.61523 18.9797C8.61523 19.1171 8.66983 19.2489 8.76702 19.3461C8.8642 19.4433 8.99601 19.4979 9.13345 19.4979H21.5707C21.7081 19.4979 21.84 19.4433 21.9371 19.3461C22.0343 19.2489 22.0889 19.1171 22.0889 18.9797C22.0889 18.8423 22.0343 18.7104 21.9371 18.6133C21.84 18.5161 21.7081 18.4615 21.5707 18.4615Z" fill="#2A3FCC"/>
</g>
<defs>
<clipPath id="clip0_2004_711">
<rect width="32" height="32" fill="white"/>
</clipPath>
</defs>
</svg>
