<svg width="32" height="32" viewBox="0 0 32 32" fill="none" xmlns="http://www.w3.org/2000/svg">
<path fill-rule="evenodd" clip-rule="evenodd" d="M28.72 2.18945H3.28C1.98812 2.18945 0.9375 3.24008 0.9375 4.53195V21.8882C0.9375 23.1801 1.98812 24.2307 3.28 24.2307H12.8544L12.3813 27.472H10.2944C9.64938 27.472 9.125 27.9963 9.125 28.6413C9.125 29.2863 9.64938 29.8107 10.2944 29.8107H21.7062C22.3512 29.8107 22.8756 29.2863 22.8756 28.6413C22.8756 27.9963 22.3512 27.472 21.7062 27.472H19.6069L19.1338 24.2307H28.72C30.0119 24.2307 31.0625 23.1801 31.0625 21.8882V4.53195C31.0625 3.24008 30.0119 2.18945 28.72 2.18945ZM3.28 2.93945H28.72C29.5981 2.93945 30.3125 3.65383 30.3125 4.53195V19.9813H1.6875V4.53195C1.6875 3.65383 2.40187 2.93945 3.28 2.93945ZM22.1256 28.6413C22.1256 28.8726 21.9375 29.0607 21.7062 29.0607H10.2944C10.0631 29.0607 9.875 28.8726 9.875 28.6413C9.875 28.4101 10.0631 28.222 10.2944 28.222H21.7062C21.9369 28.222 22.1256 28.4101 22.1256 28.6413ZM18.8487 27.472H13.1388L13.6119 24.2307H18.375L18.8487 27.472ZM28.72 23.4807H3.28C2.40187 23.4807 1.6875 22.7663 1.6875 21.8882V20.732H30.3125V21.8882C30.3125 22.7663 29.5981 23.4807 28.72 23.4807ZM24.8531 21.8382C24.8856 21.917 24.9037 22.0013 24.9037 22.0888C24.9037 22.1763 24.8856 22.2613 24.8531 22.3395C24.8231 22.4126 24.78 22.4788 24.7275 22.5357C24.7225 22.542 24.7169 22.5482 24.7106 22.5545C24.6512 22.6138 24.5781 22.6626 24.4963 22.697C24.4175 22.7295 24.3331 22.7476 24.2456 22.7476C24.1581 22.7476 24.0731 22.7295 23.995 22.697C23.9144 22.6638 23.8419 22.6151 23.7819 22.5551L23.7806 22.5538C23.7206 22.4932 23.6719 22.4207 23.6381 22.3401C23.6056 22.2613 23.5875 22.177 23.5875 22.0895C23.5875 22.002 23.6056 21.917 23.6381 21.8388C23.6712 21.7582 23.72 21.6857 23.78 21.6257L23.7812 21.6245C23.8419 21.5645 23.9144 21.5157 23.995 21.482C24.0738 21.4495 24.1581 21.4313 24.2456 21.4313C24.3331 21.4313 24.4181 21.4495 24.4963 21.482C24.5769 21.5151 24.6494 21.5638 24.7094 21.6238L24.7106 21.6251C24.7712 21.6851 24.82 21.7576 24.8531 21.8382ZM16.5925 16.5907C16.5925 16.7976 16.7606 16.9657 16.9675 16.9657H28.9244C29.1313 16.9657 29.2994 16.7976 29.2994 16.5907C29.2994 16.3838 29.1313 16.2157 28.9244 16.2157H28.3687V9.31883C28.3687 9.11195 28.2006 8.94383 27.9937 8.94383H26.2763C26.0694 8.94383 25.9013 9.11195 25.9013 9.31883V16.2163H25.545V12.1401C25.545 11.9332 25.3769 11.7651 25.17 11.7651H23.4525C23.2456 11.7651 23.0775 11.9332 23.0775 12.1401V16.2163H22.7213V13.2832C22.7213 13.0763 22.5531 12.9082 22.3463 12.9082H20.6287C20.4219 12.9082 20.2537 13.0763 20.2537 13.2832V16.2163H19.8975V14.6682C19.8975 14.4613 19.7294 14.2932 19.5225 14.2932H17.8062C17.5994 14.2932 17.4312 14.4613 17.4312 14.6682V16.2163H16.9675C16.7606 16.2157 16.5925 16.3838 16.5925 16.5907ZM26.6519 9.69383H27.6194V16.2163H26.6519V9.69383ZM23.8281 12.5145H24.7956V16.2157H23.8281V12.5145ZM21.005 13.6576H21.9725V16.2157H21.005V13.6576ZM18.1812 15.0426H19.1488V16.2157H18.1812V15.0426ZM17.24 12.9882C17.2324 12.9395 17.2345 12.8898 17.2462 12.842C17.2578 12.7941 17.2788 12.749 17.3079 12.7093C17.337 12.6695 17.3736 12.6359 17.4157 12.6103C17.4577 12.5847 17.5045 12.5676 17.5531 12.5601L18.5475 12.4051L20.0513 10.5195C20.1121 10.443 20.2005 10.3934 20.2975 10.3813L21.9369 10.1732L23.0569 8.68008C23.1163 8.60133 23.2038 8.54883 23.3013 8.53445L24.6513 8.33195L25.2663 7.36945L24.8638 7.4832C24.6644 7.53945 24.4575 7.42383 24.4006 7.22445C24.3444 7.02508 24.46 6.8182 24.6594 6.76133L25.9625 6.39195C26.0581 6.36508 26.1606 6.37695 26.2475 6.42508C26.3344 6.47383 26.3981 6.55445 26.4256 6.65008L26.795 7.9532C26.8108 8.00903 26.8134 8.06775 26.8027 8.12476C26.7919 8.18177 26.7681 8.23552 26.7331 8.28178C26.6981 8.32804 26.6529 8.36557 26.6009 8.39141C26.549 8.41724 26.4918 8.4307 26.4338 8.4307C26.27 8.4307 26.12 8.3232 26.0731 8.15758L25.9438 7.7007L25.1912 8.8782C25.1625 8.92341 25.1243 8.96188 25.0793 8.99101C25.0344 9.02013 24.9836 9.03921 24.9306 9.04695L23.5637 9.25195L22.4412 10.7488C22.4112 10.7891 22.3732 10.8229 22.3297 10.8482C22.2862 10.8734 22.238 10.8896 22.1881 10.8957L20.5419 11.1045L19.0419 12.9851C18.9834 13.0587 18.8992 13.1076 18.8062 13.122L17.6669 13.2988C17.6475 13.302 17.6281 13.3032 17.6087 13.3032C17.4281 13.3057 17.2687 13.1732 17.24 12.9882ZM3.68313 13.0932H8.21313C8.3825 13.802 9.02125 14.3307 9.78063 14.3307C10.5406 14.3307 11.1788 13.802 11.3481 13.0932H15.8781C16.1631 13.0932 16.4144 12.982 16.6056 12.7707C16.7969 12.5595 16.8831 12.2982 16.8556 12.0151C16.6838 10.2676 15.8719 8.6507 14.5694 7.4632C13.2575 6.26758 11.5569 5.60883 9.78063 5.60883C8.00438 5.60883 6.30375 6.26758 4.99188 7.4632C3.68875 8.65133 2.87688 10.2676 2.70563 12.0151C2.6775 12.2982 2.76438 12.5595 2.95563 12.7707C3.14688 12.9813 3.39813 13.0932 3.68313 13.0932ZM9.78063 13.5801C9.305 13.5801 8.91813 13.1932 8.91813 12.7176C8.91813 12.242 9.305 11.8551 9.78063 11.8551C10.2563 11.8551 10.6431 12.242 10.6431 12.7176C10.6431 13.1932 10.2563 13.5801 9.78063 13.5801ZM3.45187 12.0882C3.58812 10.7007 4.1575 9.4582 5.02 8.48758L5.87813 9.3457C5.9129 9.38054 5.95421 9.40818 5.99968 9.42704C6.04515 9.4459 6.0939 9.45561 6.14313 9.45561C6.19235 9.45561 6.2411 9.4459 6.28657 9.42704C6.33204 9.40818 6.37335 9.38054 6.40812 9.3457C6.55437 9.19945 6.55437 8.96195 6.40812 8.81508L5.55062 7.95758C6.58875 7.0357 7.93125 6.45445 9.40625 6.37008V7.57383C9.40625 7.7807 9.57438 7.94883 9.78125 7.94883C9.98812 7.94883 10.1562 7.7807 10.1562 7.57383V6.37008C11.6306 6.45508 12.9731 7.03633 14.0112 7.95758L13.1538 8.81508C13.0075 8.96133 13.0075 9.19883 13.1538 9.3457C13.1885 9.38054 13.2298 9.40818 13.2753 9.42704C13.3208 9.4459 13.3695 9.45561 13.4187 9.45561C13.468 9.45561 13.5167 9.4459 13.5622 9.42704C13.6077 9.40818 13.649 9.38054 13.6838 9.3457L14.5419 8.48758C15.4037 9.4582 15.9738 10.7007 16.11 12.0882C16.1169 12.1601 16.0994 12.2132 16.0506 12.267C16.0025 12.3201 15.9506 12.3432 15.8787 12.3432H11.3488C11.2588 11.9657 11.035 11.6395 10.7312 11.417L11.5819 9.15633C11.6169 9.06325 11.6136 8.96006 11.5726 8.86946C11.5315 8.77886 11.4562 8.70826 11.3631 8.6732C11.317 8.65584 11.268 8.64773 11.2188 8.64933C11.1695 8.65093 11.1211 8.66221 11.0763 8.68252C10.9857 8.72354 10.9151 8.79888 10.88 8.89195L10.0394 11.1263C9.95563 11.1126 9.86937 11.1057 9.78125 11.1057C9.02125 11.1057 8.38312 11.6345 8.21375 12.3432H3.68313C3.61125 12.3432 3.55938 12.3207 3.51125 12.267C3.4625 12.2132 3.445 12.1601 3.45187 12.0882ZM14.8794 15.1101C14.8794 15.317 14.7113 15.4851 14.5044 15.4851H5.23438C5.0275 15.4851 4.85938 15.317 4.85938 15.1101C4.85938 14.9032 5.0275 14.7351 5.23438 14.7351H14.5044C14.7119 14.7351 14.8794 14.9026 14.8794 15.1101ZM14.8794 16.9376C14.8794 17.1445 14.7113 17.3126 14.5044 17.3126H5.23438C5.0275 17.3126 4.85938 17.1445 4.85938 16.9376C4.85938 16.7307 5.0275 16.5626 5.23438 16.5626H14.5044C14.7119 16.5626 14.8794 16.7301 14.8794 16.9376ZM26.5537 21.8382C26.5862 21.917 26.6044 22.0013 26.6044 22.0888C26.6044 22.1763 26.5862 22.2613 26.5537 22.3395C26.5237 22.4126 26.4806 22.4788 26.4281 22.5357C26.4231 22.542 26.4175 22.5482 26.4112 22.5545C26.3519 22.6138 26.2787 22.6626 26.1969 22.697C26.1181 22.7295 26.0338 22.7476 25.9463 22.7476C25.8588 22.7476 25.7738 22.7295 25.6956 22.697C25.615 22.6638 25.5425 22.6151 25.4825 22.5551L25.4813 22.5538C25.4213 22.4932 25.3725 22.4207 25.3388 22.3401C25.3063 22.2613 25.2881 22.177 25.2881 22.0895C25.2881 22.002 25.3063 21.917 25.3388 21.8388C25.3719 21.7582 25.4206 21.6857 25.4806 21.6257L25.4819 21.6245C25.5425 21.5645 25.615 21.5157 25.6956 21.482C25.7744 21.4495 25.8588 21.4313 25.9463 21.4313C26.0338 21.4313 26.1187 21.4495 26.1969 21.482C26.2775 21.5151 26.35 21.5638 26.41 21.6238L26.4112 21.6251C26.4719 21.6851 26.5206 21.7576 26.5537 21.8382ZM28.255 21.8382C28.2875 21.917 28.3056 22.0013 28.3056 22.0888C28.3056 22.1763 28.2875 22.2613 28.255 22.3395C28.225 22.4126 28.1819 22.4788 28.1294 22.5357C28.1244 22.542 28.1187 22.5482 28.1125 22.5545C28.0531 22.6138 27.98 22.6626 27.8981 22.697C27.8194 22.7295 27.735 22.7476 27.6475 22.7476C27.56 22.7476 27.475 22.7295 27.3969 22.697C27.3163 22.6638 27.2438 22.6151 27.1838 22.5551L27.1825 22.5538C27.1225 22.4932 27.0738 22.4207 27.04 22.3401C27.0075 22.2613 26.9894 22.177 26.9894 22.0895C26.9894 22.002 27.0075 21.917 27.04 21.8388C27.0731 21.7582 27.1219 21.6857 27.1819 21.6257L27.1831 21.6245C27.2437 21.5645 27.3163 21.5157 27.3969 21.482C27.4756 21.4495 27.56 21.4313 27.6475 21.4313C27.735 21.4313 27.82 21.4495 27.8981 21.482C27.9787 21.5151 28.0512 21.5638 28.1112 21.6238L28.1125 21.6251C28.1725 21.6851 28.2212 21.7576 28.255 21.8382Z" fill="#2A3FCC"/>
</svg>
