<svg width="72" height="71" viewBox="0 0 72 71" fill="none" xmlns="http://www.w3.org/2000/svg">
<path d="M61.2101 49.464C60.6911 48.5974 58.5712 46.0178 53.0898 49.2098L43.8258 54.6055C43.5926 54.7421 43.349 54.8599 43.0971 54.9577C43.1525 54.8152 43.2011 54.6668 43.2424 54.5126C43.7555 52.5973 42.622 50.5993 40.6617 49.9637C40.6141 49.9484 40.5656 49.9363 40.5165 49.9273C37.8781 49.4513 35.2632 48.506 33.1621 47.7464C32.426 47.4803 31.7307 47.229 31.1369 47.0364C28.6583 46.2323 26.4434 47.2123 24.6041 48.2772L17.9629 52.1223L17.4561 51.2266C17.1314 50.6529 16.6014 50.2397 15.9637 50.0629C15.3259 49.8861 14.6588 49.9675 14.0854 50.2924L11.486 51.7633C10.2992 52.435 9.88015 53.9471 10.5517 55.134L18.1934 68.6365C18.648 69.4395 19.4872 69.891 20.35 69.8909C20.7756 69.891 21.194 69.7806 21.5641 69.5704L24.1632 68.0995C24.7369 67.7749 25.1501 67.2449 25.3269 66.6071C25.5038 65.9694 25.4222 65.3024 25.0976 64.7287L24.45 63.5844L25.6713 62.8794L37.4214 66.0279C38.1014 66.2101 38.778 66.3008 39.4437 66.3007C40.7907 66.3007 42.0924 65.9297 43.2825 65.1971L60.0941 54.8453C61.7533 53.8239 62.2851 51.2591 61.2101 49.464ZM23.1889 66.0147C23.1805 66.047 23.1656 66.0773 23.1453 66.1037C23.125 66.1301 23.0995 66.1522 23.0705 66.1686L20.4712 67.6397C20.4123 67.672 20.3431 67.6801 20.2783 67.6621C20.2135 67.6442 20.1583 67.6016 20.1244 67.5436L12.4827 54.0414C12.4148 53.9213 12.4589 53.7622 12.5788 53.6943L15.1782 52.2234C15.2208 52.1993 15.2626 52.1914 15.2994 52.1914C15.3268 52.1914 15.3512 52.1957 15.3713 52.2012C15.4035 52.2096 15.4338 52.2245 15.4602 52.2448C15.4866 52.2651 15.5087 52.2905 15.5252 52.3195L23.1669 65.8218C23.2087 65.896 23.2019 65.9676 23.1889 66.0147ZM58.931 52.956L42.1194 63.3078C40.8561 64.0854 39.4686 64.2798 37.996 63.8849L25.8019 60.6175C25.6612 60.5798 25.5144 60.5701 25.3699 60.5891C25.2255 60.6082 25.0862 60.6554 24.96 60.7283L23.3573 61.6536L19.0558 54.0533L25.7156 50.1975C27.7498 49.0199 29.122 48.7151 30.4524 49.1471C31.0111 49.3282 31.6583 49.5621 32.4077 49.8331C34.566 50.6134 37.2469 51.5826 40.0398 52.0957C40.8513 52.3895 41.3049 53.1708 41.0992 53.9383C40.8805 54.7544 40.2672 55.1105 39.2776 54.9991C37.9306 54.7211 36.6448 54.3544 35.2848 53.9661C34.6324 53.7797 33.9578 53.5871 33.263 53.401C32.9795 53.3271 32.6784 53.3684 32.4252 53.5157C32.172 53.6631 31.9874 53.9046 31.9116 54.1875C31.8359 54.4705 31.8751 54.7719 32.0207 55.0261C32.1664 55.2802 32.4066 55.4665 32.689 55.5442C33.366 55.7256 34.0318 55.9157 34.6755 56.0995C36.0943 56.5047 38.9192 57.1903 38.9268 57.1916L40.0794 57.3789C41.8708 57.6653 43.4615 57.3855 44.9426 56.5228L54.2065 51.1271C56.6823 49.6853 58.6366 49.4848 59.3067 50.6041C59.7577 51.357 59.5646 52.5661 58.931 52.956ZM15.7908 54.5811C15.8089 54.7019 15.803 54.8251 15.7734 54.9436C15.7438 55.0621 15.6911 55.1736 15.6183 55.2717C15.5455 55.3698 15.4541 55.4526 15.3492 55.5153C15.2444 55.578 15.1282 55.6193 15.0073 55.637C14.8865 55.6547 14.7633 55.6483 14.6449 55.6183C14.5265 55.5883 14.4152 55.5352 14.3174 55.462C14.2195 55.3889 14.1371 55.2971 14.0748 55.192C14.0125 55.087 13.9716 54.9706 13.9543 54.8497C13.9197 54.6066 13.9828 54.3597 14.1298 54.1631C14.2768 53.9665 14.4958 53.8361 14.7387 53.8006C14.9817 53.765 15.2288 53.8272 15.426 53.9735C15.6232 54.1198 15.7543 54.3383 15.7908 54.5811ZM21.4989 10.8789H26.6565L31.8935 31.2695C30.1918 31.6896 28.9259 33.2284 28.9259 35.0579C28.9259 36.9302 30.2516 38.4982 32.0136 38.874C30.9384 39.6599 30.2384 40.9295 30.2384 42.3604C30.2384 44.7408 32.175 46.6773 34.5554 46.6773C36.9359 46.6773 38.8724 44.7408 38.8724 42.3604C38.8724 40.9806 38.2211 39.751 37.2106 38.9601H50.7215C49.711 39.751 49.0597 40.9806 49.0597 42.3604C49.0597 44.7408 50.9962 46.6773 53.3767 46.6773C55.7571 46.6773 57.6935 44.7408 57.6935 42.3604C57.6935 40.9806 57.0422 39.751 56.0317 38.9601H56.7397C57.034 38.9601 57.3161 38.8432 57.5242 38.6352C57.7322 38.4271 57.8491 38.145 57.8491 37.8507C57.8491 37.5565 57.7322 37.2743 57.5242 37.0663C57.3161 36.8582 57.034 36.7414 56.7397 36.7414H32.8283C31.8999 36.7414 31.1447 35.9862 31.1447 35.0578C31.1447 34.1293 31.8999 33.3741 32.8283 33.3741H52.2678C53.427 33.3768 54.553 32.9881 55.4636 32.2709C56.3742 31.5537 57.016 30.55 57.285 29.4225L60.5583 15.8407C60.5977 15.6776 60.5994 15.5077 60.5636 15.3438C60.5277 15.1799 60.4551 15.0262 60.3513 14.8944C60.2475 14.7626 60.1151 14.656 59.9641 14.5828C59.8132 14.5095 59.6476 14.4715 59.4798 14.4715H48.4746C47.7106 12.9473 46.7889 11.5074 45.7245 10.1754C47.5749 8.21421 49.7817 6.58495 52.2436 5.40444L51.6556 6.51312C51.5873 6.64182 51.5451 6.78271 51.5313 6.92774C51.5175 7.07277 51.5324 7.2191 51.5751 7.35838C51.6178 7.49766 51.6876 7.62715 51.7804 7.73947C51.8732 7.85179 51.9872 7.94473 52.1159 8.013C52.2756 8.09809 52.4538 8.14262 52.6348 8.14265C52.8364 8.1428 53.0344 8.08797 53.2072 7.98405C53.38 7.88013 53.5213 7.73107 53.6157 7.55288L55.618 3.77782C55.6968 3.62911 55.7408 3.46443 55.7466 3.29622C55.7524 3.12801 55.7198 2.9607 55.6514 2.80693C55.583 2.65317 55.4804 2.51698 55.3516 2.40868C55.2228 2.30039 55.071 2.22282 54.9077 2.18184L50.7631 1.14264C50.1689 0.993286 49.5662 1.35453 49.4172 1.94887C49.3817 2.09018 49.3745 2.23708 49.3958 2.3812C49.4171 2.52531 49.4667 2.6638 49.5415 2.78878C49.6164 2.91375 49.7151 3.02275 49.8321 3.10956C49.9491 3.19636 50.0821 3.25927 50.2234 3.29469L51.0683 3.50658C48.5201 4.75467 46.2105 6.44007 44.2446 8.48614C42.2786 6.44011 39.969 4.75472 37.4208 3.50658L38.2659 3.29469C38.4072 3.25927 38.5401 3.19636 38.6571 3.10956C38.7741 3.02275 38.8729 2.91375 38.9478 2.78878C39.0226 2.6638 39.0721 2.52531 39.0935 2.3812C39.1148 2.23708 39.1076 2.09018 39.0721 1.94887C39.0367 1.80753 38.9738 1.67454 38.887 1.55751C38.8002 1.44049 38.6912 1.34171 38.5662 1.26684C38.4412 1.19196 38.3027 1.14246 38.1585 1.12114C38.0144 1.09983 37.8675 1.10714 37.7262 1.14264L33.5814 2.18184C33.4181 2.22277 33.2663 2.30031 33.1374 2.4086C33.0086 2.51689 32.906 2.65308 32.8376 2.80686C32.7692 2.96064 32.7366 3.12798 32.7424 3.2962C32.7482 3.46443 32.7922 3.62912 32.8711 3.77782L34.8734 7.55288C34.9679 7.73107 35.1091 7.88013 35.2819 7.98405C35.4548 8.08797 35.6527 8.1428 35.8544 8.14265C36.0457 8.14253 36.2337 8.09293 36.4002 7.99866C36.5667 7.90439 36.706 7.76867 36.8046 7.60467C36.9031 7.44067 36.9576 7.25397 36.9626 7.0627C36.9677 6.87144 36.9232 6.68212 36.8335 6.51312L36.2454 5.40444C38.7074 6.58495 40.9141 8.21421 42.7647 10.1754C41.7003 11.5074 40.7785 12.9473 40.0145 14.4715H29.8697L28.5913 9.4936C28.53 9.25515 28.3912 9.04385 28.1967 8.89296C28.0021 8.74208 27.7629 8.66019 27.5167 8.66018H21.4986C21.3529 8.6602 21.2087 8.68891 21.0741 8.74468C20.9395 8.80044 20.8172 8.88218 20.7142 8.9852C20.6112 9.08823 20.5295 9.21054 20.4738 9.34514C20.4181 9.47974 20.3894 9.62401 20.3894 9.76969C20.3894 9.91538 20.4181 10.0596 20.4739 10.1942C20.5297 10.3288 20.6114 10.4511 20.7144 10.5541C20.8175 10.6571 20.9398 10.7388 21.0744 10.7945C21.209 10.8503 21.3532 10.8789 21.4989 10.8789ZM53.3767 44.4585C52.2197 44.4585 51.2784 43.5172 51.2784 42.3602C51.2784 41.2033 52.2197 40.262 53.3767 40.262C54.5336 40.262 55.4748 41.2033 55.4748 42.3602C55.4748 43.5172 54.5335 44.4585 53.3767 44.4585ZM34.5554 44.4585C33.3985 44.4585 32.4572 43.5172 32.4572 42.3602C32.4572 41.2033 33.3985 40.262 34.5554 40.262C35.7124 40.262 36.6537 41.2033 36.6537 42.3602C36.6537 43.5172 35.7124 44.4585 34.5554 44.4585ZM44.2447 11.9127C44.8688 12.7258 45.4364 13.5807 45.9436 14.4714H42.5457C43.053 13.5807 43.6207 12.7258 44.2447 11.9127ZM39.0387 16.6902C38.3993 18.3665 37.9432 20.1128 37.6902 21.9013C37.668 22.0586 37.6798 22.2189 37.7249 22.3714C37.7699 22.5238 37.8472 22.6647 37.9515 22.7846C38.0558 22.9046 38.1846 23.0007 38.3293 23.0665C38.474 23.1323 38.6311 23.1663 38.7901 23.1661C39.0571 23.1657 39.3151 23.069 39.5166 22.8937C39.7181 22.7184 39.8497 22.4763 39.8871 22.2119C40.1585 20.2931 40.6903 18.4395 41.4426 16.6902H47.0467C47.799 18.4396 48.3308 20.2932 48.6022 22.2119C48.6434 22.5032 48.7987 22.7662 49.0338 22.943C49.2689 23.1199 49.5646 23.1961 49.8559 23.155C50.1472 23.1138 50.4103 22.9586 50.5871 22.7234C50.764 22.4883 50.8402 22.1926 50.799 21.9013C50.5461 20.1128 50.09 18.3665 49.4507 16.6902H58.0714L55.1281 28.9028C54.8033 30.2501 53.654 31.1554 52.268 31.1554H34.1549L30.4398 16.6902H39.0387Z" fill="#14B22B"/>
</svg>
