<svg width="56" height="56" viewBox="0 0 56 56" fill="none" xmlns="http://www.w3.org/2000/svg">
<g clip-path="url(#clip0_2038_856)">
<path d="M55.4691 52.9534L41.0108 38.7261C44.797 34.6126 47.1233 29.1723 47.1233 23.1859C47.1215 10.3799 36.5736 0 23.561 0C10.5484 0 0.000488281 10.3799 0.000488281 23.1859C0.000488281 35.9919 10.5484 46.3718 23.561 46.3718C29.1833 46.3718 34.34 44.4271 38.3905 41.1941L52.9049 55.4774C53.6121 56.1741 54.7603 56.1741 55.4675 55.4774C55.6357 55.3132 55.7694 55.1169 55.8607 54.9003C55.9521 54.6836 55.9992 54.4509 55.9994 54.2157C55.9995 53.9806 55.9527 53.7478 55.8616 53.531C55.7706 53.3143 55.6371 53.1179 55.4691 52.9534ZM23.561 42.8045C12.551 42.8045 3.62561 34.021 3.62561 23.1859C3.62561 12.3508 12.551 3.56729 23.561 3.56729C34.5711 3.56729 43.4964 12.3508 43.4964 23.1859C43.4964 34.021 34.5711 42.8045 23.561 42.8045Z" fill="#5A40FF"/>
</g>
<defs>
<clipPath id="clip0_2038_856">
<rect width="56" height="56" fill="white"/>
</clipPath>
</defs>
</svg>
