<svg width="56" height="56" viewBox="0 0 56 56" fill="none" xmlns="http://www.w3.org/2000/svg">
<path d="M54.6776 31.4794L45.7257 17.4466C45.4169 16.9637 44.9292 16.6231 44.3695 16.4994C43.8099 16.3756 43.224 16.4789 42.7404 16.7866L38.3457 19.5902C37.9384 19.8507 37.6302 20.2402 37.4703 20.6964C37.3103 21.1527 37.3078 21.6493 37.4632 22.1071C37.2635 22.11 37.0564 22.1058 36.842 22.0943C35.8685 22.0411 35.2626 21.7443 34.6217 21.4305C32.9968 20.6347 31.6357 20.2506 28.1713 22.1257C26.8879 20.4528 24.7604 20.9798 22.8602 21.4519C21.3926 21.8163 19.883 22.1914 18.4942 21.8407C18.6833 21.3727 18.7029 20.8532 18.5496 20.3723C18.3963 19.8913 18.0797 19.479 17.6545 19.2068L13.2597 16.4033C12.7762 16.0956 12.1903 15.9923 11.6306 16.116C11.071 16.2398 10.5832 16.5804 10.2744 17.0633L1.32254 31.0962C1.01531 31.5798 0.91225 32.1655 1.03593 32.7249C1.1596 33.2844 1.49994 33.772 1.9824 34.0811L6.37731 36.8846C6.7222 37.1058 7.12331 37.2235 7.53307 37.2236C7.69222 37.2236 7.85088 37.2061 8.00623 37.1716C8.28369 37.1113 8.54644 36.9966 8.77927 36.8341C9.01209 36.6716 9.21036 36.4645 9.36259 36.2248L9.94129 35.3176C9.98759 35.3635 10.0337 35.4071 10.0798 35.4483C9.15554 36.4781 8.31062 37.6603 8.44427 39.212C8.53921 40.3157 8.93821 41.1327 9.63001 41.6401C10.2515 42.096 11.0847 42.2731 12.1137 42.1708C12.2529 43.0713 12.6042 43.7913 13.163 44.318C13.8093 44.9274 14.7137 45.2567 15.8578 45.3008C16.0736 46.0865 16.4771 46.6874 17.0624 47.0923C17.8322 47.625 18.8487 47.7859 20.1556 47.5798C20.721 48.9673 21.8448 49.6921 23.446 49.6919C23.5029 49.6919 23.5604 49.691 23.6184 49.6892C24.4805 49.662 25.3381 49.021 25.9754 48.3939C27.7813 49.6386 29.3487 50.2653 30.6551 50.2652C31.0467 50.2682 31.4362 50.2057 31.8072 50.0802C32.7759 49.7462 33.5088 48.9928 33.993 47.8363C35.0991 48.19 36.0641 48.1674 36.8701 47.7667C37.7428 47.3332 38.3889 46.4733 38.7962 45.206C39.8595 45.3167 40.7292 45.1207 41.3891 44.6207C42.0153 44.1462 42.4265 43.4183 42.6173 42.4506C44.1178 42.6146 45.3821 42.2392 46.3826 41.3303C46.4286 41.2885 46.4693 41.2414 46.5039 41.1898C47.2367 40.096 47.5004 39.0293 47.2876 38.0202C47.1275 37.3287 46.7808 36.6943 46.2853 36.186C46.3037 36.1711 46.3216 36.1559 46.3393 36.1406L46.6375 36.608C46.7897 36.8476 46.988 37.0546 47.2208 37.2171C47.4536 37.3795 47.7163 37.4942 47.9937 37.5545C48.149 37.589 48.3077 37.6065 48.4668 37.6066C48.8765 37.6064 49.2777 37.4887 49.6225 37.2675L54.0174 34.4639C54.5001 34.1551 54.8407 33.6675 54.9644 33.1081C55.0882 32.5486 54.985 31.9629 54.6776 31.4794ZM8.07196 35.4017C7.98183 35.5425 7.83953 35.6418 7.67627 35.6779C7.51301 35.714 7.3421 35.6839 7.20101 35.5942L2.80588 32.7904C2.66503 32.7004 2.56568 32.5581 2.52961 32.3948C2.49354 32.2315 2.52371 32.0606 2.61349 31.9196L11.5653 17.8868C11.6098 17.8171 11.6678 17.7568 11.7357 17.7096C11.8037 17.6624 11.8803 17.6291 11.9612 17.6117C12.0071 17.6016 12.0539 17.5965 12.1009 17.5964C12.2197 17.5962 12.3361 17.6302 12.4362 17.6942L16.831 20.4978C16.9719 20.5879 17.0713 20.7302 17.1074 20.8935C17.1435 21.0568 17.1134 21.2277 17.0236 21.3689L8.07196 35.4017ZM10.5361 40.406C10.216 40.1712 10.0256 39.7254 9.97006 39.0809C9.86834 37.8983 10.7856 36.9234 11.7567 35.8912C11.949 35.6869 12.1478 35.4756 12.3345 35.2659C12.5184 35.0538 12.7574 34.8966 13.0251 34.8118C13.2927 34.727 13.5786 34.7179 13.8511 34.7854C14.1646 34.8627 14.4536 35.0173 14.6919 35.2352C14.9301 35.453 15.11 35.7271 15.215 36.0323C14.9511 36.8457 14.2506 38.3763 12.3988 40.5844C11.5512 40.7407 10.9098 40.6802 10.5359 40.406H10.5361ZM13.5876 41.5497C15.6705 39.0607 16.4337 37.2883 16.7109 36.3793C17.4604 35.5973 18.7552 35.2565 19.6803 35.6213C20.3341 35.8791 20.6657 36.4471 20.6691 37.3098L16.0821 43.7753C15.2382 43.7701 14.6101 43.5784 14.2138 43.2045C13.8424 42.8545 13.6331 42.2978 13.5874 41.5497H13.5876ZM17.934 45.8337C17.613 45.6116 17.4023 45.2431 17.2923 44.716L21.8751 38.2568C22.9323 38.0795 23.7316 38.2406 24.1422 38.7211C24.5742 39.2267 24.5907 40.1357 24.1927 41.2258C23.0548 42.6067 22.1541 43.7005 21.4906 44.507C20.9102 45.2123 20.4734 45.743 20.2561 46.0055C19.2072 46.2198 18.4079 46.1614 17.9338 45.8337H17.934ZM23.5704 48.1593C22.484 48.1943 21.8542 47.8039 21.5251 46.8728C21.7287 46.6262 22.0766 46.2036 22.6722 45.48C23.2907 44.7286 24.115 43.7276 25.1452 42.4769C26.1095 42.7646 26.6669 43.1755 26.8037 43.7014C26.9166 44.135 26.5582 45.2352 25.6718 46.4198C24.8391 47.5329 23.9675 48.1467 23.5704 48.1593ZM45.2846 40.258C44.5207 40.9115 43.5293 41.1032 42.2627 40.8456L33.8181 35.1385L32.9607 36.4073L41.1513 41.9427C41.0506 42.641 40.8207 43.131 40.4646 43.4009C40.0529 43.7127 39.4007 43.7837 38.5297 43.6183L32.0183 39.3698L31.1816 40.6522L37.3565 44.6811C37.083 45.5697 36.6915 46.1468 36.189 46.396C35.6421 46.6681 34.8747 46.5904 33.9087 46.1683L30.0659 43.4367L29.1786 44.6846L32.6246 47.1346C32.3119 47.9356 31.8708 48.4398 31.3082 48.6331C30.3287 48.9711 28.8386 48.4831 26.9801 47.2256C27.4716 46.5465 28.6517 44.7219 28.286 43.3158C28.0223 42.3021 27.2 41.5561 25.8377 41.0918C26.1896 39.7246 26.0088 38.5488 25.306 37.7264C24.6192 36.9228 23.5182 36.5618 22.1532 36.6788C21.9762 35.499 21.3076 34.617 20.2417 34.1967C18.9882 33.7025 17.4369 33.9507 16.2699 34.7536C15.7906 34.0181 15.0468 33.495 14.1925 33.2928C13.6525 33.164 13.0877 33.1849 12.5587 33.3532C12.0297 33.5215 11.5567 33.8309 11.1905 34.2481C11.168 34.2732 11.144 34.2988 11.1212 34.324C11.0031 34.2187 10.8939 34.1036 10.795 33.9801L17.6751 23.1944C19.5692 23.8465 21.5032 23.3667 23.229 22.9382C25.2507 22.436 26.255 22.2785 26.8801 22.9687C23.1409 25.8835 20.7824 29.4242 21.0905 31.7348C21.203 32.578 21.6736 33.2004 22.4156 33.4871C22.7328 33.6045 23.069 33.6621 23.4072 33.657C25.3351 33.657 28.2279 32.0978 31.724 29.1486C31.7293 29.1439 32.2987 28.7128 35.2947 30.4264C37.2627 31.552 39.533 33.1694 41.3572 34.4689C42.4502 35.2478 43.3942 35.9202 44.0452 36.3254C45.0559 36.9657 45.6427 37.6424 45.7893 38.337C45.9111 38.9136 45.746 39.5428 45.2845 40.258H45.2846ZM45.0649 35.1639C44.9971 35.1181 44.9288 35.0732 44.8598 35.0292C44.2441 34.6464 43.3176 33.9862 42.2457 33.2223C36.6192 29.2137 32.5004 26.4913 30.7366 27.9786C26.4863 31.5642 23.8952 32.4173 22.9676 32.0592C22.8169 32.001 22.6565 31.8929 22.6084 31.5329C22.4305 30.1985 24.0865 26.9199 28.323 23.7952C31.835 21.7718 32.7219 22.2057 33.948 22.8064C34.6279 23.1394 35.4739 23.5537 36.7583 23.6238C37.2821 23.6553 37.8077 23.6424 38.3294 23.5853L45.4944 34.8169C45.3817 34.9659 45.2342 35.085 45.0649 35.1639ZM53.1943 33.1743L48.7994 35.9778C48.6584 36.0677 48.4874 36.0979 48.3242 36.0618C48.1609 36.0258 48.0186 35.9264 47.9285 35.7855L38.9766 21.7526C38.8878 21.6113 38.8582 21.4407 38.8943 21.2777C38.9303 21.1147 39.029 20.9724 39.1691 20.8817L43.5641 18.0778C43.7052 17.988 43.8762 17.9579 44.0394 17.994C44.2027 18.03 44.345 18.1294 44.4351 18.2703L53.3869 32.3031C53.4766 32.4442 53.5067 32.6151 53.4706 32.7783C53.4345 32.9415 53.3351 33.0838 53.1943 33.1739V33.1743ZM35.4807 10.4812C35.6145 10.3285 35.8034 10.2352 36.006 10.2218C36.2086 10.2084 36.4082 10.276 36.561 10.4098L39.4572 12.9463C39.5377 13.0168 39.6025 13.1033 39.6474 13.2004C39.6924 13.2974 39.7165 13.4028 39.7183 13.5098C39.72 13.6167 39.6993 13.7228 39.6575 13.8213C39.6158 13.9197 39.5538 14.0084 39.4757 14.0814L36.8267 16.5592C36.678 16.6956 36.4814 16.7678 36.2798 16.7601C36.0781 16.7524 35.8876 16.6654 35.7498 16.518C35.612 16.3706 35.5379 16.1748 35.5437 15.973C35.5495 15.7713 35.6347 15.5801 35.7808 15.4408L36.9821 14.317L23.2313 14.5875H23.216C23.013 14.5894 22.8175 14.5107 22.6725 14.3685C22.5275 14.2263 22.445 14.0323 22.443 13.8292C22.4411 13.6262 22.5198 13.4307 22.662 13.2857C22.8042 13.1407 22.9982 13.0582 23.2013 13.0562L36.9505 12.7859L35.5521 11.5609C35.3996 11.4271 35.3064 11.2383 35.293 11.0358C35.2796 10.8334 35.3471 10.6339 35.4807 10.4812ZM13.4783 9.59299C13.4001 9.51993 13.3382 9.43132 13.2964 9.33286C13.2546 9.2344 13.234 9.12829 13.2357 9.02134C13.2374 8.9144 13.2616 8.80901 13.3065 8.71197C13.3515 8.61492 13.4163 8.52837 13.4967 8.4579L16.3931 5.92149C16.4684 5.853 16.5566 5.80021 16.6525 5.76619C16.7484 5.73218 16.8501 5.71763 16.9517 5.7234C17.0533 5.72917 17.1528 5.75513 17.2442 5.79978C17.3357 5.84443 17.4173 5.90686 17.4844 5.98343C17.5514 6.06 17.6025 6.14916 17.6347 6.24571C17.6669 6.34226 17.6795 6.44426 17.6718 6.54574C17.6641 6.64722 17.6362 6.74614 17.5898 6.83673C17.5435 6.92732 17.4795 7.00775 17.4017 7.07332L16.0034 8.29832L29.7526 8.56826C29.9557 8.5702 30.1496 8.65273 30.2918 8.79769C30.434 8.94264 30.5128 9.13815 30.5109 9.34121C30.509 9.54427 30.4264 9.73823 30.2815 9.88044C30.1365 10.0227 29.941 10.1015 29.7379 10.0995H29.7225L15.9717 9.82859L17.1727 10.9519C17.2473 11.0203 17.3076 11.1027 17.3501 11.1946C17.3926 11.2864 17.4164 11.3857 17.4203 11.4868C17.4242 11.5879 17.408 11.6888 17.3726 11.7836C17.3373 11.8784 17.2835 11.9652 17.2144 12.0391C17.1453 12.113 17.0622 12.1725 16.97 12.2141C16.8777 12.2557 16.7782 12.2786 16.677 12.2814C16.5759 12.2843 16.4752 12.2671 16.3808 12.2309C16.2863 12.1946 16.2 12.14 16.1268 12.0701L13.4783 9.59299Z" fill="#5A40FF"/>
</svg>
