<svg width="56" height="56" viewBox="0 0 56 56" fill="none" xmlns="http://www.w3.org/2000/svg">
<path d="M23.9173 20.2335L20.9117 19.3471L19.1407 16.7624C18.9851 16.5359 18.7768 16.3506 18.5336 16.2227C18.2905 16.0947 18.0198 16.0278 17.7451 16.0278C17.4703 16.0278 17.1997 16.0947 16.9565 16.2227C16.7134 16.3506 16.505 16.5359 16.3495 16.7624L14.5767 19.3471L11.572 20.2335C11.3083 20.3112 11.0676 20.452 10.8706 20.6437C10.6736 20.8354 10.5262 21.0722 10.4413 21.3336C10.3563 21.595 10.3363 21.8732 10.383 22.144C10.4297 22.4149 10.5416 22.6703 10.7092 22.8882L12.6193 25.3724L12.5336 28.5049C12.5262 28.7796 12.5859 29.0519 12.7074 29.2984C12.8289 29.5448 13.0086 29.758 13.231 29.9194C13.4533 30.0809 13.7116 30.1858 13.9836 30.225C14.2556 30.2642 14.533 30.2366 14.792 30.1446L17.7442 29.0946L20.6956 30.1446C20.9546 30.2371 21.2323 30.265 21.5046 30.2259C21.7768 30.1868 22.0354 30.0819 22.258 29.9202C22.4805 29.7586 22.6603 29.5452 22.7817 29.2984C22.9032 29.0516 22.9626 28.7789 22.9548 28.504L22.8691 25.3724L24.7792 22.8882C24.9441 22.6695 25.0538 22.4143 25.0991 22.1442C25.1444 21.8741 25.1239 21.597 25.0393 21.3365C24.9547 21.076 24.8086 20.8397 24.6133 20.6477C24.418 20.4557 24.1792 20.3136 23.9173 20.2335ZM21.2923 24.5525C21.1698 24.7117 21.1058 24.9082 21.1112 25.109L21.2031 28.4672C21.0981 28.4497 17.746 27.1854 17.7442 27.2912C17.746 27.1845 14.3877 28.4515 14.2853 28.4672L14.3772 25.109C14.3826 24.9082 14.3186 24.7117 14.1961 24.5525L12.1468 21.8881L15.3703 20.9379C15.5635 20.8811 15.731 20.7593 15.8446 20.5931L17.7442 17.8211L19.6438 20.5931C19.7574 20.7593 19.925 20.8811 20.1181 20.9379L23.3416 21.8881L21.2923 24.5525Z" fill="#5A40FF"/>
<path d="M49.7578 5.1695L48.5188 6.03838C48.1479 5.90634 47.7574 5.838 47.3638 5.83625H5.36377C4.4358 5.83718 3.5461 6.20623 2.88992 6.8624C2.23374 7.51858 1.8647 8.40828 1.86377 9.33625V39.0863C1.8647 40.0142 2.23374 40.9039 2.88992 41.5601C3.5461 42.2163 4.4358 42.5853 5.36377 42.5863H22.8603V43.7675C19.6044 44.3599 17.6138 45.7196 17.6138 47.3988C17.6138 49.9835 22.015 51.3363 26.3638 51.3363C30.7125 51.3363 35.1138 49.9835 35.1138 47.3988C35.1138 45.7188 33.1205 44.3581 29.8603 43.7666V42.5854H47.3638C48.2917 42.5845 49.1814 42.2154 49.8376 41.5592C50.4938 40.9031 50.8628 40.0134 50.8638 39.0854V11.8755L53.3225 9.41938C53.8055 8.92476 54.0873 8.26829 54.1134 7.57748C54.1395 6.88667 53.9078 6.21084 53.4635 5.68123C53.0192 5.15163 52.3939 4.80607 51.7091 4.71166C51.0243 4.61726 50.3288 4.77987 49.7578 5.1695ZM33.3638 47.3988C33.3638 48.1416 30.8928 49.5863 26.3638 49.5863C21.8348 49.5863 19.3638 48.1416 19.3638 47.3988C19.3638 46.865 20.657 45.9769 23.079 45.514C23.3239 46.1876 23.7703 46.7695 24.3573 47.1807C24.9444 47.5918 25.6438 47.8123 26.3606 47.8122C27.0773 47.8122 27.7767 47.5915 28.3636 47.1801C28.9506 46.7688 29.3968 46.1868 29.6415 45.5131C32.0679 45.976 33.3638 46.865 33.3638 47.3988ZM28.1103 44.3354C28.1103 44.7995 27.9259 45.2446 27.5977 45.5728C27.2695 45.901 26.8244 46.0854 26.3603 46.0854C25.8961 46.0854 25.451 45.901 25.1228 45.5728C24.7946 45.2446 24.6103 44.7995 24.6103 44.3354V42.5854H28.1103V44.3354ZM47.3638 40.8354H5.36377C4.89978 40.8349 4.45493 40.6504 4.12684 40.3223C3.79876 39.9942 3.61423 39.5494 3.61377 39.0854V38.5H49.1138V39.0863C49.1133 39.5502 48.9288 39.9951 48.6007 40.3232C48.2726 40.6513 47.8278 40.8349 47.3638 40.8354ZM49.1138 36.75H3.61377V9.33625C3.61423 8.87227 3.79876 8.42742 4.12684 8.09933C4.45493 7.77124 4.89978 7.58672 5.36377 7.58625H46.3103L36.2128 14.665C35.7615 14.9828 35.4217 15.4346 35.2414 15.9563C35.0611 16.4779 35.0495 17.0431 35.2083 17.5718C34.7524 17.9147 34.332 18.3025 33.9535 18.7294C32.7358 18.1833 31.3574 18.1148 30.0916 18.5375C28.8257 18.9602 27.765 19.8432 27.1198 21.0114C26.0662 23.4481 25.5328 26.0778 25.5535 28.7324C20.2563 36.5234 8.02377 32.7661 7.98877 23.3363C7.9885 21.3945 8.57567 19.498 9.67311 17.8961C10.7706 16.2942 12.3269 15.0618 14.1377 14.3607C15.9486 13.6597 17.9291 13.5229 19.8191 13.9682C21.7091 14.4135 23.4202 15.4202 24.7275 16.856C24.8839 17.0277 25.1022 17.1303 25.3342 17.1411C25.5662 17.152 25.793 17.0702 25.9648 16.9138C26.1365 16.7573 26.2391 16.5391 26.2499 16.3071C26.2607 16.0751 26.1789 15.8482 26.0225 15.6765C24.4773 13.9797 22.4549 12.79 20.221 12.2637C17.9872 11.7375 15.6464 11.8993 13.5062 12.7279C11.366 13.5565 9.52654 15.0132 8.22949 16.9065C6.93243 18.7998 6.23847 21.0413 6.23877 23.3363C6.33502 34.727 21.14 38.9699 27.2431 29.3711C29.7264 29.5619 33.6718 29.5899 35.3693 28.1549C36.1522 27.4897 36.7387 26.6233 37.0653 25.6492C37.3919 24.675 37.4462 23.6302 37.2225 22.6275C37.7102 22.3301 38.1661 21.9835 38.5831 21.5933C39.0761 21.8412 39.6346 21.9277 40.1795 21.8407C40.7244 21.7537 41.2281 21.4976 41.6194 21.1085L49.1138 13.6229V36.75ZM34.2431 26.8153C33.1721 27.7209 29.9548 27.8215 27.3096 27.6211C27.6911 24.2611 28.3229 18.4783 33.4486 20.4278C33.477 20.9936 33.6898 21.5347 34.0544 21.9684C34.4191 22.402 34.9155 22.7045 35.4681 22.8296C35.6653 23.5416 35.6547 24.2951 35.4377 25.0013C35.2206 25.7075 34.8061 26.3369 34.2431 26.8153ZM36.6231 20.9536C36.4454 21.1028 36.2156 21.1753 35.9844 21.1552C35.7532 21.135 35.5395 21.0238 35.3903 20.846C35.2411 20.6682 35.1686 20.4385 35.1887 20.2073C35.2089 19.9761 35.3201 19.7623 35.4979 19.6131L36.1681 19.0505L37.2934 20.391L36.6231 20.9536ZM52.0861 8.18126L40.3821 19.8713C40.2963 19.9564 40.1937 20.0228 40.0809 20.0664C39.9682 20.11 39.8476 20.1298 39.7268 20.1245C39.606 20.1193 39.4876 20.0891 39.379 20.0358C39.2704 19.9826 39.174 19.9075 39.0959 19.8153L38.0721 18.5955L37.0484 17.3766C36.9711 17.2835 36.9138 17.1753 36.8803 17.059C36.8467 16.9426 36.8376 16.8206 36.8535 16.7005C36.8693 16.5805 36.9098 16.465 36.9724 16.3614C37.035 16.2577 37.1184 16.1682 37.2173 16.0983C38.1141 15.4683 50.3388 6.89938 50.7623 6.60188C50.9746 6.45855 51.2325 6.39896 51.4862 6.43463C51.7398 6.4703 51.9713 6.59869 52.1359 6.79502C52.3005 6.99135 52.3864 7.24168 52.3773 7.49769C52.3681 7.7537 52.2644 7.99723 52.0861 8.18126Z" fill="#5A40FF"/>
</svg>
