<svg width="532" height="409" viewBox="0 0 532 409" fill="none" xmlns="http://www.w3.org/2000/svg">
<g clip-path="url(#clip0_2004_645)">
<mask id="mask0_2004_645" style="mask-type:luminance" maskUnits="userSpaceOnUse" x="-39" y="-113" width="613" height="614">
<path d="M-38.6494 -112.304H573.681V500.816H-38.6494V-112.304Z" fill="white"/>
</mask>
<g mask="url(#mask0_2004_645)">
<path d="M445.706 401.362H85.4803C59.2911 401.362 38.0596 380.104 38.0596 353.881V322.559C38.0596 296.338 59.2911 275.079 85.4803 275.079H445.706C471.896 275.079 493.127 296.338 493.127 322.559V353.881C493.127 380.104 471.896 401.362 445.706 401.362Z" fill="#9D8DFF"/>
</g>
<mask id="mask1_2004_645" style="mask-type:luminance" maskUnits="userSpaceOnUse" x="-39" y="-113" width="613" height="614">
<path d="M-38.6494 -112.304H573.681V500.816H-38.6494V-112.304Z" fill="white"/>
</mask>
<g mask="url(#mask1_2004_645)">
<path d="M445.706 218.915H85.4803C59.2911 218.915 38.0596 197.656 38.0596 171.432V140.112C38.0596 113.889 59.2911 92.6305 85.4803 92.6305H445.706C471.896 92.6305 493.127 113.889 493.127 140.112V171.432C493.127 197.656 471.896 218.915 445.706 218.915Z" fill="#9D8DFF"/>
</g>
<mask id="mask2_2004_645" style="mask-type:luminance" maskUnits="userSpaceOnUse" x="-39" y="-113" width="613" height="614">
<path d="M-38.6494 -112.304H573.681V500.816H-38.6494V-112.304Z" fill="white"/>
</mask>
<g mask="url(#mask2_2004_645)">
<path d="M368.667 121.241H111.721C93.0413 121.241 77.8975 106.077 77.8975 87.372V65.0325C77.8975 46.3271 93.0413 31.1637 111.721 31.1637H368.667C387.346 31.1637 402.49 46.3271 402.49 65.0325V87.372C402.49 106.077 387.346 121.241 368.667 121.241Z" fill="#9D8DFF"/>
</g>
<mask id="mask3_2004_645" style="mask-type:luminance" maskUnits="userSpaceOnUse" x="-39" y="-113" width="613" height="614">
<path d="M-38.6494 -112.304H573.681V500.816H-38.6494V-112.304Z" fill="white"/>
</mask>
<g mask="url(#mask3_2004_645)">
<path d="M460.7 289.219H100.474C74.2842 289.219 53.0527 267.961 53.0527 241.738C53.0527 215.515 74.2842 194.257 100.474 194.257H460.7C486.889 194.257 508.12 215.515 508.12 241.738C508.12 267.961 486.889 289.219 460.7 289.219Z" fill="#9D8DFF"/>
</g>
<path d="M465.361 338.774C463.372 331.846 461.398 328.386 459.438 328.394C455.597 328.41 451.812 341.753 448.084 368.425C446.253 358.688 442.357 341.297 437.227 341.243C430.819 341.176 425.809 368.181 424.394 376.333C416.067 367.541 410.968 363.754 409.092 364.966C406.719 366.5 409.517 376.056 417.484 393.63C448.415 393.301 479.345 392.971 510.277 392.641C519.916 386.748 524.236 377.82 522.121 373.367C519.826 368.536 508.518 365.942 496.456 372.378C496.852 370.555 502.757 342.712 496.456 340.256C491.403 338.284 480.99 353.602 478.687 357.059C481.007 336.948 480.514 326.404 477.206 325.43C477.038 325.379 476.862 325.355 476.678 325.355C474.221 325.355 470.449 329.827 465.361 338.774Z" fill="url(#paint0_linear_2004_645)"/>
<path d="M69.4701 338.774C67.48 331.846 65.5059 328.386 63.5461 328.394C59.7054 328.41 55.9215 341.753 52.1937 368.425C50.3605 358.688 46.466 341.297 41.3347 341.243C34.9272 341.176 29.9183 368.181 28.5026 376.333C20.1761 367.541 15.0767 363.754 13.2017 364.966C10.8271 366.5 13.623 376.056 21.5906 393.63C52.5234 393.301 83.4529 392.971 114.385 392.641C124.024 386.748 128.344 377.82 126.23 373.367C123.936 368.536 112.626 365.942 100.564 372.378C100.96 370.555 106.865 342.712 100.564 340.256C95.5123 338.284 85.0989 353.602 82.7959 357.059C85.1148 336.948 84.623 326.404 81.315 325.43C81.1461 325.379 80.9695 325.355 80.7868 325.355C78.3292 325.355 74.5574 329.827 69.4701 338.774Z" fill="url(#paint1_linear_2004_645)"/>
<mask id="mask4_2004_645" style="mask-type:luminance" maskUnits="userSpaceOnUse" x="-39" y="-113" width="613" height="614">
<path d="M-38.6494 -112.304H573.681V500.816H-38.6494V-112.304Z" fill="white"/>
</mask>
<g mask="url(#mask4_2004_645)">
<path d="M333.572 175.724V184.911H329.221H205.81H201.459V175.724H333.572Z" fill="#868DF4"/>
</g>
<mask id="mask5_2004_645" style="mask-type:luminance" maskUnits="userSpaceOnUse" x="-39" y="-113" width="613" height="614">
<path d="M-38.6494 -112.304H573.681V500.816H-38.6494V-112.304Z" fill="white"/>
</mask>
<g mask="url(#mask5_2004_645)">
<path d="M465.462 363.948V393.63H329.221V363.948H457.731H465.462Z" fill="#868DF4"/>
</g>
<mask id="mask6_2004_645" style="mask-type:luminance" maskUnits="userSpaceOnUse" x="-39" y="-113" width="613" height="614">
<path d="M-38.6494 -112.304H573.681V500.816H-38.6494V-112.304Z" fill="white"/>
</mask>
<g mask="url(#mask6_2004_645)">
<path d="M205.811 363.948V393.63H69.5693V363.948H77.2992H205.811Z" fill="#868DF4"/>
</g>
<mask id="mask7_2004_645" style="mask-type:luminance" maskUnits="userSpaceOnUse" x="-39" y="-113" width="613" height="614">
<path d="M-38.6494 -112.304H573.681V500.816H-38.6494V-112.304Z" fill="white"/>
</mask>
<g mask="url(#mask7_2004_645)">
<path d="M465.462 363.948V366.565H329.221V363.948H457.731H465.462Z" fill="#B2B3F6"/>
</g>
<mask id="mask8_2004_645" style="mask-type:luminance" maskUnits="userSpaceOnUse" x="-39" y="-113" width="613" height="614">
<path d="M-38.6494 -112.304H573.681V500.816H-38.6494V-112.304Z" fill="white"/>
</mask>
<g mask="url(#mask8_2004_645)">
<path d="M205.811 363.948V366.565H69.5693V363.948H77.2992H205.811Z" fill="#B2B3F6"/>
</g>
<mask id="mask9_2004_645" style="mask-type:luminance" maskUnits="userSpaceOnUse" x="-39" y="-113" width="613" height="614">
<path d="M-38.6494 -112.304H573.681V500.816H-38.6494V-112.304Z" fill="white"/>
</mask>
<g mask="url(#mask9_2004_645)">
<path d="M190.72 175.724V184.911H185.252H94.534H89.0654V175.724H190.72Z" fill="#868DF4"/>
</g>
<mask id="mask10_2004_645" style="mask-type:luminance" maskUnits="userSpaceOnUse" x="-39" y="-113" width="613" height="614">
<path d="M-38.6494 -112.304H573.681V500.816H-38.6494V-112.304Z" fill="white"/>
</mask>
<g mask="url(#mask10_2004_645)">
<path d="M445.968 175.724V184.911H440.499H349.781H344.313V175.724H445.968Z" fill="#868DF4"/>
</g>
<mask id="mask11_2004_645" style="mask-type:luminance" maskUnits="userSpaceOnUse" x="-39" y="-113" width="613" height="614">
<path d="M-38.6494 -112.304H573.681V500.816H-38.6494V-112.304Z" fill="white"/>
</mask>
<g mask="url(#mask11_2004_645)">
<path d="M329.221 363.948V393.63H318.783V194.151H216.247V393.63H205.811V363.948V184.912H329.221V363.948Z" fill="#B2B3F6"/>
</g>
<mask id="mask12_2004_645" style="mask-type:luminance" maskUnits="userSpaceOnUse" x="-39" y="-113" width="613" height="614">
<path d="M-38.6494 -112.304H573.681V500.816H-38.6494V-112.304Z" fill="white"/>
</mask>
<g mask="url(#mask12_2004_645)">
<path d="M350.123 59.9394H184.908C176.909 59.9394 170.366 53.3878 170.366 45.3793V18.0363C170.366 10.0278 176.909 3.47693 184.908 3.47693H350.123C358.121 3.47693 364.664 10.0278 364.664 18.0363V45.3793C364.664 53.3878 358.121 59.9394 350.123 59.9394Z" fill="#5B6BF5"/>
</g>
<mask id="mask13_2004_645" style="mask-type:luminance" maskUnits="userSpaceOnUse" x="-39" y="-113" width="613" height="614">
<path d="M-38.6494 -112.304H573.681V500.816H-38.6494V-112.304Z" fill="white"/>
</mask>
<g mask="url(#mask13_2004_645)">
<path d="M184.032 56.2485C178.127 56.2485 173.322 51.4376 173.322 45.5235V17.8913C173.322 11.9786 178.127 7.16776 184.032 7.16776H351C356.905 7.16776 361.709 11.9786 361.709 17.8913V45.5235C361.709 51.4376 356.905 56.2485 351 56.2485H184.032Z" stroke="#B2B3F6" stroke-width="2.66667" stroke-miterlimit="10" stroke-linecap="round" stroke-dasharray="1.33 6.67"/>
</g>
<path d="M184.907 9.60733C180.266 9.60733 176.49 13.3893 176.49 18.0362V45.3793C176.49 50.0278 180.266 53.8082 184.907 53.8082H350.122C354.764 53.8082 358.541 50.0278 358.541 45.3793V18.0362C358.541 13.3893 354.764 9.60733 350.122 9.60733H184.907Z" fill="url(#paint2_linear_2004_645)"/>
<path d="M329.24 69.4624H338.753V59.9393H329.24V69.4624Z" fill="url(#paint3_linear_2004_645)"/>
<path d="M196.278 69.4624H205.789V59.9393H196.278V69.4624Z" fill="url(#paint4_linear_2004_645)"/>
<mask id="mask14_2004_645" style="mask-type:luminance" maskUnits="userSpaceOnUse" x="-39" y="-113" width="613" height="614">
<path d="M-38.6494 -112.304H573.681V500.816H-38.6494V-112.304Z" fill="white"/>
</mask>
<g mask="url(#mask14_2004_645)">
<path d="M465.461 64.7017V76.2023H457.732H77.2992H69.5693V64.7017H465.461Z" fill="#B2B3F6"/>
</g>
<mask id="mask15_2004_645" style="mask-type:luminance" maskUnits="userSpaceOnUse" x="-39" y="-113" width="613" height="614">
<path d="M-38.6494 -112.304H573.681V500.816H-38.6494V-112.304Z" fill="white"/>
</mask>
<g mask="url(#mask15_2004_645)">
<path d="M457.733 89.6932H77.2988V76.2022H457.733V89.6932Z" fill="#5B6BF5"/>
</g>
<mask id="mask16_2004_645" style="mask-type:luminance" maskUnits="userSpaceOnUse" x="-39" y="-113" width="613" height="614">
<path d="M-38.6494 -112.304H573.681V500.816H-38.6494V-112.304Z" fill="white"/>
</mask>
<g mask="url(#mask16_2004_645)">
<mask id="mask17_2004_645" style="mask-type:luminance" maskUnits="userSpaceOnUse" x="77" y="76" width="381" height="5">
<path d="M77.2988 76.2022H457.732V80.1306H77.2988V76.2022Z" fill="white"/>
</mask>
<g mask="url(#mask17_2004_645)">
<path d="M457.733 80.1306H77.2988V76.2022H457.733V80.1306Z" fill="#D1D4D5"/>
</g>
</g>
<mask id="mask18_2004_645" style="mask-type:luminance" maskUnits="userSpaceOnUse" x="-39" y="-113" width="613" height="614">
<path d="M-38.6494 -112.304H573.681V500.816H-38.6494V-112.304Z" fill="white"/>
</mask>
<g mask="url(#mask18_2004_645)">
<path d="M457.733 96.433V109.912H419.689H381.645H343.603H305.559H267.515H229.473H191.429H153.386H115.343H77.2988V96.433H457.733Z" fill="#5B6BF5"/>
</g>
<path d="M80.6484 96.4329H454.382V89.6947H80.6484V96.4329Z" fill="url(#paint5_linear_2004_645)"/>
<mask id="mask19_2004_645" style="mask-type:luminance" maskUnits="userSpaceOnUse" x="-39" y="-113" width="613" height="614">
<path d="M-38.6494 -112.304H573.681V500.816H-38.6494V-112.304Z" fill="white"/>
</mask>
<g mask="url(#mask19_2004_645)">
<mask id="mask20_2004_645" style="mask-type:luminance" maskUnits="userSpaceOnUse" x="80" y="89" width="375" height="3">
<path d="M80.6494 89.6931H454.382V91.6752H80.6494V89.6931Z" fill="white"/>
</mask>
<g mask="url(#mask20_2004_645)">
<path d="M454.381 91.6753H80.6484V89.6949H454.381V91.6753Z" fill="#D1D4D5"/>
</g>
</g>
<mask id="mask21_2004_645" style="mask-type:luminance" maskUnits="userSpaceOnUse" x="-39" y="-113" width="613" height="614">
<path d="M-38.6494 -112.304H573.681V500.816H-38.6494V-112.304Z" fill="white"/>
</mask>
<g mask="url(#mask21_2004_645)">
<path d="M419.689 109.911L432.059 144.042H390.913L381.646 109.911H419.689Z" fill="#EEF5F7"/>
</g>
<mask id="mask22_2004_645" style="mask-type:luminance" maskUnits="userSpaceOnUse" x="-39" y="-113" width="613" height="614">
<path d="M-38.6494 -112.304H573.681V500.816H-38.6494V-112.304Z" fill="white"/>
</mask>
<g mask="url(#mask22_2004_645)">
<path d="M115.342 109.911L102.972 144.042H61.8398L77.2997 109.911H115.342Z" fill="#EEF5F7"/>
</g>
<mask id="mask23_2004_645" style="mask-type:luminance" maskUnits="userSpaceOnUse" x="-39" y="-113" width="613" height="614">
<path d="M-38.6494 -112.304H573.681V500.816H-38.6494V-112.304Z" fill="white"/>
</mask>
<g mask="url(#mask23_2004_645)">
<path d="M191.428 109.911L185.25 144.042H144.117L153.386 109.911H191.428Z" fill="#EEF5F7"/>
</g>
<mask id="mask24_2004_645" style="mask-type:luminance" maskUnits="userSpaceOnUse" x="-39" y="-113" width="613" height="614">
<path d="M-38.6494 -112.304H573.681V500.816H-38.6494V-112.304Z" fill="white"/>
</mask>
<g mask="url(#mask24_2004_645)">
<path d="M267.515 109.911V144.042H226.383L229.473 109.911H267.515Z" fill="#EEF5F7"/>
</g>
<mask id="mask25_2004_645" style="mask-type:luminance" maskUnits="userSpaceOnUse" x="-39" y="-113" width="613" height="614">
<path d="M-38.6494 -112.304H573.681V500.816H-38.6494V-112.304Z" fill="white"/>
</mask>
<g mask="url(#mask25_2004_645)">
<path d="M343.603 109.911L349.781 144.042H308.649L305.56 109.911H343.603Z" fill="#EEF5F7"/>
</g>
<mask id="mask26_2004_645" style="mask-type:luminance" maskUnits="userSpaceOnUse" x="-39" y="-113" width="613" height="614">
<path d="M-38.6494 -112.304H573.681V500.816H-38.6494V-112.304Z" fill="white"/>
</mask>
<g mask="url(#mask26_2004_645)">
<path d="M102.972 144.042V149.438C102.972 160.811 93.7705 170.025 82.4128 170.025C80.691 170.025 79.02 169.815 77.4308 169.419C68.477 167.182 61.8398 159.087 61.8398 149.438V144.042H102.972Z" fill="#BED4DE"/>
</g>
<mask id="mask27_2004_645" style="mask-type:luminance" maskUnits="userSpaceOnUse" x="-39" y="-113" width="613" height="614">
<path d="M-38.6494 -112.304H573.681V500.816H-38.6494V-112.304Z" fill="white"/>
</mask>
<g mask="url(#mask27_2004_645)">
<path d="M185.25 144.042V149.438C185.25 160.811 176.037 170.025 164.677 170.025C153.321 170.025 144.118 160.811 144.118 149.438V144.042H185.25Z" fill="#BED4DE"/>
</g>
<mask id="mask28_2004_645" style="mask-type:luminance" maskUnits="userSpaceOnUse" x="-39" y="-113" width="613" height="614">
<path d="M-38.6494 -112.304H573.681V500.816H-38.6494V-112.304Z" fill="white"/>
</mask>
<g mask="url(#mask28_2004_645)">
<path d="M267.515 144.042V149.438C267.515 160.811 258.313 170.025 246.942 170.025C235.584 170.025 226.383 160.811 226.383 149.438V144.042H267.515Z" fill="#BED4DE"/>
</g>
<mask id="mask29_2004_645" style="mask-type:luminance" maskUnits="userSpaceOnUse" x="-39" y="-113" width="613" height="614">
<path d="M-38.6494 -112.304H573.681V500.816H-38.6494V-112.304Z" fill="white"/>
</mask>
<g mask="url(#mask29_2004_645)">
<path d="M349.781 144.042V149.438C349.781 160.811 340.579 170.025 329.222 170.025C317.864 170.025 308.648 160.811 308.648 149.438V144.042H349.781Z" fill="#BED4DE"/>
</g>
<mask id="mask30_2004_645" style="mask-type:luminance" maskUnits="userSpaceOnUse" x="-39" y="-113" width="613" height="614">
<path d="M-38.6494 -112.304H573.681V500.816H-38.6494V-112.304Z" fill="white"/>
</mask>
<g mask="url(#mask30_2004_645)">
<path d="M432.059 144.042V149.438C432.059 160.811 422.845 170.025 411.487 170.025C400.129 170.025 390.914 160.811 390.914 149.438V144.042H432.059Z" fill="#BED4DE"/>
</g>
<mask id="mask31_2004_645" style="mask-type:luminance" maskUnits="userSpaceOnUse" x="-39" y="-113" width="613" height="614">
<path d="M-38.6494 -112.304H573.681V500.816H-38.6494V-112.304Z" fill="white"/>
</mask>
<g mask="url(#mask31_2004_645)">
<path d="M457.732 109.911L473.191 144.042H432.058L419.689 109.911H457.732Z" fill="#FF9999"/>
</g>
<mask id="mask32_2004_645" style="mask-type:luminance" maskUnits="userSpaceOnUse" x="-39" y="-113" width="613" height="614">
<path d="M-38.6494 -112.304H573.681V500.816H-38.6494V-112.304Z" fill="white"/>
</mask>
<g mask="url(#mask32_2004_645)">
<path d="M381.646 109.911L390.914 144.042H349.781L343.603 109.911H381.646Z" fill="#FF9999"/>
</g>
<mask id="mask33_2004_645" style="mask-type:luminance" maskUnits="userSpaceOnUse" x="-39" y="-113" width="613" height="614">
<path d="M-38.6494 -112.304H573.681V500.816H-38.6494V-112.304Z" fill="white"/>
</mask>
<g mask="url(#mask33_2004_645)">
<path d="M305.559 109.911L308.648 144.042H267.517V109.911H305.559Z" fill="#FF9999"/>
</g>
<mask id="mask34_2004_645" style="mask-type:luminance" maskUnits="userSpaceOnUse" x="-39" y="-113" width="613" height="614">
<path d="M-38.6494 -112.304H573.681V500.816H-38.6494V-112.304Z" fill="white"/>
</mask>
<g mask="url(#mask34_2004_645)">
<path d="M229.472 109.911L226.384 144.042H185.251L191.43 109.911H229.472Z" fill="#FF9999"/>
</g>
<path d="M432.059 144.042V149.438C432.059 160.811 441.261 170.024 452.618 170.024C454.34 170.024 456.009 169.815 457.6 169.419C466.552 167.182 473.192 159.087 473.192 149.438V144.042H432.059Z" fill="#FF6D7F"/>
<mask id="mask35_2004_645" style="mask-type:luminance" maskUnits="userSpaceOnUse" x="-39" y="-113" width="613" height="614">
<path d="M-38.6494 -112.304H573.681V500.816H-38.6494V-112.304Z" fill="white"/>
</mask>
<g mask="url(#mask35_2004_645)">
<path d="M190.719 317.301V308.114H185.25V184.912H190.719V175.724H89.0642V184.912H94.532V308.114H89.0642V317.301H190.719ZM445.966 317.301V308.114H440.498V184.912H445.966V175.724H344.311V184.912H349.78V308.114H344.311V317.301H445.966ZM457.731 170.024V363.948H329.221V184.912H333.571V175.724H201.459V184.912H205.81V363.948H77.2988V170.024L77.4299 169.419C79.0206 169.815 80.6901 170.024 82.4119 170.024C93.7696 170.024 102.973 160.811 102.973 149.438C102.973 160.811 112.187 170.024 123.544 170.024C134.902 170.024 144.118 160.811 144.118 149.438C144.118 160.811 153.319 170.024 164.677 170.024C176.035 170.024 185.25 160.811 185.25 149.438C185.25 160.811 194.452 170.024 205.81 170.024C217.167 170.024 226.383 160.811 226.383 149.438C226.383 160.811 235.584 170.024 246.942 170.024C258.314 170.024 267.515 160.811 267.515 149.438C267.515 160.811 276.716 170.024 288.088 170.024C299.446 170.024 308.647 160.811 308.647 149.438C308.647 160.811 317.863 170.024 329.221 170.024C340.577 170.024 349.78 160.811 349.78 149.438C349.78 160.811 358.995 170.024 370.353 170.024C381.71 170.024 390.912 160.811 390.912 149.438C390.912 160.811 400.128 170.024 411.486 170.024C422.843 170.024 432.057 160.811 432.057 149.438C432.057 160.811 441.261 170.024 452.617 170.024C454.34 170.024 456.009 169.815 457.6 169.419L457.731 170.024Z" fill="#5B6BF5"/>
</g>
<mask id="mask36_2004_645" style="mask-type:luminance" maskUnits="userSpaceOnUse" x="-39" y="-113" width="613" height="614">
<path d="M-38.6494 -112.304H573.681V500.816H-38.6494V-112.304Z" fill="white"/>
</mask>
<g mask="url(#mask36_2004_645)">
<g opacity="0.300003">
<mask id="mask37_2004_645" style="mask-type:luminance" maskUnits="userSpaceOnUse" x="77" y="149" width="381" height="215">
<g opacity="0.300003">
<path d="M77.2988 149.438H457.732V363.949H77.2988V149.438Z" fill="white"/>
</g>
</mask>
<g mask="url(#mask37_2004_645)">
<path d="M190.719 317.301V308.114H185.25V184.912H190.719V175.724H89.0642V184.912H94.532V308.114H89.0642V317.301H190.719ZM445.966 317.301V308.114H440.498V184.912H445.966V175.724H344.311V184.912H349.78V308.114H344.311V317.301H445.966ZM457.731 170.024V363.948H329.221V184.912H333.571V175.724H201.459V184.912H205.81V363.948H77.2988V170.024L77.4299 169.419C79.0206 169.815 80.6901 170.024 82.4119 170.024C93.7696 170.024 102.973 160.811 102.973 149.438C102.973 160.811 112.187 170.024 123.544 170.024C134.902 170.024 144.118 160.811 144.118 149.438C144.118 160.811 153.319 170.024 164.677 170.024C176.035 170.024 185.25 160.811 185.25 149.438C185.25 160.811 194.452 170.024 205.81 170.024C217.167 170.024 226.383 160.811 226.383 149.438C226.383 160.811 235.584 170.024 246.942 170.024C258.314 170.024 267.515 160.811 267.515 149.438C267.515 160.811 276.716 170.024 288.088 170.024C299.446 170.024 308.647 160.811 308.647 149.438C308.647 160.811 317.863 170.024 329.221 170.024C340.577 170.024 349.78 160.811 349.78 149.438C349.78 160.811 358.995 170.024 370.353 170.024C381.71 170.024 390.912 160.811 390.912 149.438C390.912 160.811 400.128 170.024 411.486 170.024C422.843 170.024 432.057 160.811 432.057 149.438C432.057 160.811 441.261 170.024 452.617 170.024C454.34 170.024 456.009 169.815 457.6 169.419L457.731 170.024Z" fill="black"/>
</g>
</g>
</g>
<mask id="mask38_2004_645" style="mask-type:luminance" maskUnits="userSpaceOnUse" x="-39" y="-113" width="613" height="614">
<path d="M-38.6494 -112.304H573.681V500.816H-38.6494V-112.304Z" fill="white"/>
</mask>
<g mask="url(#mask38_2004_645)">
<mask id="mask39_2004_645" style="mask-type:luminance" maskUnits="userSpaceOnUse" x="89" y="312" width="102" height="10">
<path d="M89.0645 312.707H190.72V321.894H89.0645V312.707Z" fill="white"/>
</mask>
<g mask="url(#mask39_2004_645)">
<path d="M190.72 312.706V321.893H89.0654V312.706H94.534H185.252H190.72Z" fill="#D1D4D5"/>
</g>
</g>
<mask id="mask40_2004_645" style="mask-type:luminance" maskUnits="userSpaceOnUse" x="-39" y="-113" width="613" height="614">
<path d="M-38.6494 -112.304H573.681V500.816H-38.6494V-112.304Z" fill="white"/>
</mask>
<g mask="url(#mask40_2004_645)">
<mask id="mask41_2004_645" style="mask-type:luminance" maskUnits="userSpaceOnUse" x="344" y="312" width="102" height="10">
<path d="M344.312 312.707H445.967V321.894H344.312V312.707Z" fill="white"/>
</mask>
<g mask="url(#mask41_2004_645)">
<path d="M445.967 312.706V321.893H344.312V312.706H349.78H440.498H445.967Z" fill="#D1D4D5"/>
</g>
</g>
<mask id="mask42_2004_645" style="mask-type:luminance" maskUnits="userSpaceOnUse" x="-39" y="-113" width="613" height="614">
<path d="M-38.6494 -112.304H573.681V500.816H-38.6494V-112.304Z" fill="white"/>
</mask>
<g mask="url(#mask42_2004_645)">
<path d="M190.72 308.114V317.301H89.0654V308.114H94.534H185.252H190.72Z" fill="#868DF4"/>
</g>
<mask id="mask43_2004_645" style="mask-type:luminance" maskUnits="userSpaceOnUse" x="-39" y="-113" width="613" height="614">
<path d="M-38.6494 -112.304H573.681V500.816H-38.6494V-112.304Z" fill="white"/>
</mask>
<g mask="url(#mask43_2004_645)">
<path d="M445.968 308.114V317.301H344.313V308.114H349.781H440.499H445.968Z" fill="#868DF4"/>
</g>
<mask id="mask44_2004_645" style="mask-type:luminance" maskUnits="userSpaceOnUse" x="-39" y="-113" width="613" height="614">
<path d="M-38.6494 -112.304H573.681V500.816H-38.6494V-112.304Z" fill="white"/>
</mask>
<g mask="url(#mask44_2004_645)">
<path d="M431.295 194.126H358.982V298.9H431.295V194.126ZM440.499 308.114H349.781V184.912H440.499V308.114Z" fill="#B2B3F6"/>
</g>
<mask id="mask45_2004_645" style="mask-type:luminance" maskUnits="userSpaceOnUse" x="-39" y="-113" width="613" height="614">
<path d="M-38.6494 -112.304H573.681V500.816H-38.6494V-112.304Z" fill="white"/>
</mask>
<g mask="url(#mask45_2004_645)">
<path d="M358.369 193.513H431.907V299.513H358.369V193.513Z" fill="#AFE2F5"/>
</g>
<mask id="mask46_2004_645" style="mask-type:luminance" maskUnits="userSpaceOnUse" x="-39" y="-113" width="613" height="614">
<path d="M-38.6494 -112.304H573.681V500.816H-38.6494V-112.304Z" fill="white"/>
</mask>
<g mask="url(#mask46_2004_645)">
<path d="M432.521 192.899H431.297H358.982H357.758V194.126V298.899V300.126H358.982H431.297H432.521V298.899V194.126V192.899ZM431.297 298.899H358.982V194.126H431.297V298.899Z" fill="#81BAC8"/>
</g>
<path d="M349.78 144.042V149.438C349.78 160.811 358.996 170.024 370.355 170.024C381.711 170.024 390.914 160.811 390.914 149.438V144.042H349.78Z" fill="#FF6D7F"/>
<mask id="mask47_2004_645" style="mask-type:luminance" maskUnits="userSpaceOnUse" x="-39" y="-113" width="613" height="614">
<path d="M-38.6494 -112.304H573.681V500.816H-38.6494V-112.304Z" fill="white"/>
</mask>
<g mask="url(#mask47_2004_645)">
<path d="M215.635 193.539H319.395V394.243H215.635V193.539Z" fill="#AFE2F5"/>
</g>
<mask id="mask48_2004_645" style="mask-type:luminance" maskUnits="userSpaceOnUse" x="-39" y="-113" width="613" height="614">
<path d="M-38.6494 -112.304H573.681V500.816H-38.6494V-112.304Z" fill="white"/>
</mask>
<g mask="url(#mask48_2004_645)">
<path d="M320.009 192.926H318.785H216.248H215.023V194.152V393.63V394.857H216.248H318.785H320.009V393.63V194.152V192.926ZM318.785 393.63H216.248V194.152H318.785V393.63Z" fill="#81BAC8"/>
</g>
<path d="M232.269 211.768C230.255 211.768 228.623 213.402 228.623 215.42V262.768C228.623 264.785 230.255 266.421 232.269 266.421H302.761C304.777 266.421 306.409 264.785 306.409 262.768V215.42C306.409 213.402 304.777 211.768 302.761 211.768H232.269Z" fill="#F6A61F"/>
<path d="M234.127 215.717C233.266 215.717 232.566 216.418 232.566 217.281V260.907C232.566 261.771 233.266 262.47 234.127 262.47H300.903C301.767 262.47 302.465 261.771 302.465 260.907V217.281C302.465 216.418 301.767 215.717 300.903 215.717H234.127Z" fill="url(#paint6_linear_2004_645)"/>
<mask id="mask49_2004_645" style="mask-type:luminance" maskUnits="userSpaceOnUse" x="-39" y="-113" width="613" height="614">
<path d="M-38.6494 -112.304H573.681V500.816H-38.6494V-112.304Z" fill="white"/>
</mask>
<g mask="url(#mask49_2004_645)">
<path d="M232.566 260.908V217.281C232.566 216.417 233.266 215.716 234.128 215.716H300.903C301.766 215.716 302.465 216.417 302.465 217.281V260.908C302.465 261.771 301.766 262.47 300.903 262.47H234.128C233.266 262.47 232.566 261.771 232.566 260.908Z" stroke="#EEF5F7" stroke-width="1.33333" stroke-miterlimit="10"/>
</g>
<path d="M255.825 243.47C255.825 245.168 255.504 246.611 254.862 247.802C254.224 248.991 253.354 249.901 252.251 250.529C251.154 251.152 249.919 251.464 248.548 251.464C247.167 251.464 245.928 251.15 244.83 250.521C243.732 249.893 242.865 248.984 242.228 247.794C241.591 246.603 241.271 245.163 241.271 243.47C241.271 241.774 241.591 240.33 242.228 239.14C242.865 237.95 243.732 237.043 244.83 236.42C245.928 235.792 247.167 235.478 248.548 235.478C249.919 235.478 251.154 235.792 252.251 236.42C253.354 237.043 254.224 237.95 254.862 239.14C255.504 240.33 255.825 241.774 255.825 243.47ZM252.494 243.47C252.494 242.372 252.33 241.444 252.001 240.69C251.677 239.935 251.22 239.363 250.628 238.973C250.036 238.583 249.342 238.388 248.548 238.388C247.754 238.388 247.061 238.583 246.469 238.973C245.878 239.363 245.417 239.935 245.088 240.69C244.764 241.444 244.603 242.372 244.603 243.47C244.603 244.57 244.764 245.497 245.088 246.251C245.417 247.006 245.878 247.579 246.469 247.969C247.061 248.359 247.754 248.554 248.548 248.554C249.342 248.554 250.036 248.359 250.628 247.969C251.22 247.579 251.677 247.006 252.001 246.251C252.33 245.497 252.494 244.57 252.494 243.47ZM258.259 251.25V235.691H264.39C265.568 235.691 266.573 235.916 267.402 236.367C268.232 236.813 268.864 237.433 269.299 238.228C269.74 239.018 269.959 239.93 269.959 240.963C269.959 241.997 269.737 242.909 269.292 243.699C268.847 244.489 268.202 245.104 267.357 245.545C266.517 245.986 265.5 246.206 264.307 246.206H260.398V243.57H263.775C264.407 243.57 264.929 243.46 265.339 243.243C265.753 243.02 266.062 242.714 266.264 242.324C266.472 241.928 266.576 241.475 266.576 240.963C266.576 240.446 266.472 239.996 266.264 239.611C266.062 239.221 265.753 238.92 265.339 238.707C264.924 238.489 264.398 238.38 263.76 238.38H261.544V251.25H258.259ZM272.093 251.25V235.691H282.565V238.403H275.379V242.111H282.026V244.823H275.379V248.538H282.595V251.25H272.093ZM298.175 235.691V251.25H295.338L288.576 241.457H288.463V251.25H285.177V235.691H288.061L294.769 245.477H294.905V235.691H298.175Z" fill="#F8FBFC"/>
<path d="M254.12 221.879L254.021 221.484C254.021 221.259 254.098 221.084 254.252 220.958C254.41 220.826 254.607 220.761 254.843 220.761C255.303 220.761 255.533 221.053 255.533 221.64C255.533 222.063 255.325 222.646 254.909 223.392C254.493 224.132 253.999 224.851 253.43 225.546C252.866 226.238 252.267 226.841 251.631 227.356C250.996 227.866 250.506 228.121 250.161 228.121C249.821 228.121 249.581 228.028 249.439 227.841C249.296 227.655 249.225 227.477 249.225 227.307C249.225 227.132 249.233 226.967 249.249 226.813C249.31 226.276 249.457 225.763 249.693 225.276C249.107 226.043 248.478 226.734 247.804 227.348C247.13 227.956 246.566 228.261 246.112 228.261C245.893 228.261 245.718 228.195 245.586 228.063C245.455 227.931 245.389 227.71 245.389 227.397C245.389 227.079 245.578 226.487 245.956 225.621C246.334 224.749 246.695 224.05 247.04 223.523C246.914 223.6 246.802 223.639 246.704 223.639C246.61 223.639 246.506 223.586 246.391 223.482C246.281 223.373 246.227 223.288 246.227 223.227C246.227 223.168 246.268 223.08 246.35 222.964C246.432 222.849 246.747 222.567 247.295 222.117C247.842 221.662 248.217 221.434 248.42 221.434C248.622 221.434 248.814 221.473 248.994 221.55C249.181 221.626 249.274 221.733 249.274 221.871C249.274 222.002 248.894 222.784 248.132 224.215C247.371 225.645 246.991 226.421 246.991 226.542C246.991 226.558 246.996 226.566 247.007 226.566C247.122 226.566 247.694 225.98 248.724 224.807C249.758 223.633 250.571 222.668 251.163 221.912C251.245 221.774 251.369 221.706 251.532 221.706L251.607 221.714L252.058 221.624C252.13 221.624 252.198 221.651 252.264 221.706C252.335 221.761 252.371 221.81 252.371 221.854C252.371 221.898 252.272 222.095 252.075 222.446C251.883 222.797 251.568 223.46 251.13 224.436C250.692 225.412 250.473 226.098 250.473 226.493C250.473 226.591 250.509 226.641 250.58 226.641C250.788 226.641 251.221 226.265 251.878 225.514C252.54 224.757 253.08 224.033 253.496 223.343C253.912 222.652 254.12 222.164 254.12 221.879ZM260.551 221.837C260.551 222.199 260.404 222.517 260.107 222.792C259.817 223.066 259.486 223.203 259.114 223.203C258.993 223.203 258.914 223.175 258.876 223.12C258.837 223.061 258.818 222.984 258.818 222.891C258.818 222.797 258.829 222.707 258.851 222.619C258.654 222.685 258.435 222.786 258.194 222.923C257.953 223.061 257.657 223.263 257.307 223.532C256.956 223.8 256.781 224.001 256.781 224.132C256.781 224.176 256.844 224.198 256.97 224.198C257.102 224.198 257.301 224.154 257.569 224.067C257.838 223.973 258.024 223.926 258.128 223.926C258.238 223.926 258.309 223.932 258.342 223.943C258.413 223.982 258.489 224.067 258.572 224.198C258.654 224.324 258.695 224.426 258.695 224.502C258.695 224.574 258.623 224.669 258.481 224.79C258.339 224.911 258.177 225.004 257.997 225.07C257.816 225.13 257.696 225.177 257.635 225.209C256.48 225.857 255.902 226.301 255.902 226.542C255.902 226.969 256.267 227.183 256.995 227.183C257.46 227.183 257.929 227.035 258.399 226.739C258.799 226.487 259.158 226.232 259.475 225.974C259.798 225.711 260.001 225.549 260.083 225.489C260.171 225.429 260.236 225.398 260.28 225.398C260.423 225.398 260.494 225.558 260.494 225.876C260.494 226.194 260.475 226.405 260.436 226.509C260.398 226.608 260.288 226.731 260.107 226.879C258.936 227.833 257.827 228.31 256.781 228.31C256.223 228.31 255.776 228.233 255.442 228.08C254.829 227.8 254.522 227.372 254.522 226.797C254.522 226.04 255.046 225.467 256.092 225.078C255.883 224.985 255.749 224.867 255.688 224.725C255.629 224.576 255.598 224.343 255.598 224.025C255.598 223.702 255.746 223.362 256.042 223.005C256.343 222.644 256.71 222.347 257.143 222.117C258.107 221.596 258.966 221.336 259.722 221.336C259.902 221.336 260.086 221.38 260.272 221.468C260.458 221.555 260.551 221.679 260.551 221.837ZM270.005 221.739C270.421 221.739 270.629 221.881 270.629 222.167C270.629 222.32 270.593 222.432 270.522 222.504C270.451 222.575 270.298 222.814 270.062 223.219C269.833 223.62 269.575 224.135 269.29 224.766C269.011 225.39 268.831 225.925 268.748 226.369C268.732 226.424 268.724 226.501 268.724 226.6C268.724 226.901 268.806 227.052 268.97 227.052C269.135 227.052 269.329 226.975 269.553 226.821C269.778 226.663 269.977 226.495 270.152 226.32C270.328 226.139 270.498 225.955 270.662 225.769C270.831 225.582 270.933 225.475 270.966 225.448C270.999 225.42 271.048 225.407 271.114 225.407C271.218 225.407 271.281 225.486 271.303 225.645C271.325 225.804 271.335 225.969 271.335 226.139C271.335 226.309 271.319 226.427 271.286 226.493C271.128 226.805 270.777 227.181 270.235 227.619C269.698 228.058 269.208 228.277 268.765 228.277C268.327 228.277 268.003 228.143 267.796 227.874C267.587 227.606 267.483 227.309 267.483 226.986C267.483 226.657 267.538 226.369 267.648 226.122C267.193 226.714 266.67 227.217 266.079 227.627C265.493 228.038 265.014 228.244 264.641 228.244C264.269 228.244 263.965 228.132 263.73 227.907C263.429 227.627 263.278 227.241 263.278 226.748C263.278 226.248 263.387 225.75 263.606 225.25C263.831 224.746 264.124 224.288 264.485 223.877C264.847 223.46 265.244 223.083 265.677 222.743C266.585 222.029 267.423 221.673 268.19 221.673C268.485 221.673 268.726 221.723 268.913 221.821C269.099 221.92 269.217 222.043 269.266 222.191C269.397 221.994 269.507 221.871 269.594 221.821C269.687 221.766 269.824 221.739 270.005 221.739ZM268.913 222.652C267.976 222.652 267.007 223.173 266.005 224.215C265.649 224.587 265.32 225.034 265.02 225.555C264.723 226.076 264.576 226.432 264.576 226.624C264.576 226.816 264.631 226.912 264.74 226.912C264.893 226.912 265.32 226.61 266.021 226.007C266.722 225.398 267.188 224.951 267.417 224.667C267.67 224.349 268.168 223.677 268.913 222.652ZM273.274 223.507C274.566 222.038 275.666 221.303 276.576 221.303C276.8 221.303 276.984 221.371 277.126 221.509C277.274 221.64 277.348 221.813 277.348 222.027C277.348 222.24 277.194 222.6 276.888 223.104C276.586 223.603 276.308 224.025 276.05 224.371C275.913 224.546 275.757 224.634 275.582 224.634C275.413 224.634 275.278 224.571 275.179 224.445C275.087 224.319 275.04 224.171 275.04 224.001C275.04 223.622 275.243 223.195 275.647 222.718L275.632 222.701C275.45 222.718 275.002 223.074 274.284 223.77C273.573 224.467 272.965 225.092 272.461 225.645C271.962 226.194 271.42 226.862 270.834 227.652C270.665 227.888 270.52 228.006 270.399 228.006C270.284 228.006 270.131 227.97 269.939 227.899C269.742 227.822 269.624 227.767 269.586 227.734C269.542 227.701 269.52 227.647 269.52 227.57C269.52 227.493 269.542 227.405 269.586 227.307C269.63 227.202 269.712 227.057 269.833 226.871C269.948 226.685 270.123 226.383 270.358 225.966C270.599 225.549 270.972 224.919 271.475 224.074C271.979 223.23 272.28 222.721 272.379 222.545C272.587 222.183 272.756 221.92 272.888 221.755C273.135 221.443 273.551 221.286 274.136 221.286C274.267 221.286 274.333 221.369 274.333 221.533C274.333 221.791 274.095 222.276 273.619 222.989L273.274 223.507ZM282.12 221.837C282.12 222.199 281.972 222.517 281.676 222.792C281.386 223.066 281.055 223.203 280.683 223.203C280.562 223.203 280.482 223.175 280.445 223.12C280.406 223.061 280.387 222.984 280.387 222.891C280.387 222.797 280.398 222.707 280.42 222.619C280.223 222.685 280.004 222.786 279.763 222.923C279.522 223.061 279.226 223.263 278.876 223.532C278.525 223.8 278.35 224.001 278.35 224.132C278.35 224.176 278.413 224.198 278.539 224.198C278.67 224.198 278.87 224.154 279.138 224.067C279.406 223.973 279.593 223.926 279.697 223.926C279.806 223.926 279.878 223.932 279.91 223.943C279.982 223.982 280.058 224.067 280.141 224.198C280.223 224.324 280.263 224.426 280.263 224.502C280.263 224.574 280.192 224.669 280.05 224.79C279.908 224.911 279.746 225.004 279.565 225.07C279.385 225.13 279.265 225.177 279.204 225.209C278.049 225.857 277.471 226.301 277.471 226.542C277.471 226.969 277.835 227.183 278.564 227.183C279.029 227.183 279.497 227.035 279.968 226.739C280.368 226.487 280.726 226.232 281.044 225.974C281.367 225.711 281.57 225.549 281.652 225.489C281.739 225.429 281.805 225.398 281.849 225.398C281.991 225.398 282.063 225.558 282.063 225.876C282.063 226.194 282.044 226.405 282.005 226.509C281.966 226.608 281.857 226.731 281.676 226.879C280.504 227.833 279.396 228.31 278.35 228.31C277.791 228.31 277.345 228.233 277.011 228.08C276.398 227.8 276.091 227.372 276.091 226.797C276.091 226.04 276.614 225.467 277.66 225.078C277.452 224.985 277.318 224.867 277.257 224.725C277.197 224.576 277.167 224.343 277.167 224.025C277.167 223.702 277.315 223.362 277.611 223.005C277.912 222.644 278.279 222.347 278.711 222.117C279.675 221.596 280.535 221.336 281.29 221.336C281.471 221.336 281.654 221.38 281.841 221.468C282.027 221.555 282.12 221.679 282.12 221.837Z" fill="#FFD250"/>
<path d="M267.516 144.042V149.438C267.516 160.811 276.717 170.024 288.089 170.024C299.446 170.024 308.649 160.811 308.649 149.438V144.042H267.516Z" fill="#FF6D7F"/>
<path d="M185.251 144.042V149.438C185.251 160.811 194.453 170.024 205.812 170.024C217.169 170.024 226.384 160.811 226.384 149.438V144.042H185.251Z" fill="#FF6D7F"/>
<mask id="mask50_2004_645" style="mask-type:luminance" maskUnits="userSpaceOnUse" x="-39" y="-113" width="613" height="614">
<path d="M-38.6494 -112.304H573.681V500.816H-38.6494V-112.304Z" fill="white"/>
</mask>
<g mask="url(#mask50_2004_645)">
<path d="M176.048 194.126H103.735V298.9H176.048V194.126ZM185.25 308.114H94.5322V184.912H185.25V308.114Z" fill="#B2B3F6"/>
</g>
<mask id="mask51_2004_645" style="mask-type:luminance" maskUnits="userSpaceOnUse" x="-39" y="-113" width="613" height="614">
<path d="M-38.6494 -112.304H573.681V500.816H-38.6494V-112.304Z" fill="white"/>
</mask>
<g mask="url(#mask51_2004_645)">
<path d="M103.123 193.513H176.662V299.513H103.123V193.513Z" fill="#AFE2F5"/>
</g>
<mask id="mask52_2004_645" style="mask-type:luminance" maskUnits="userSpaceOnUse" x="-39" y="-113" width="613" height="614">
<path d="M-38.6494 -112.304H573.681V500.816H-38.6494V-112.304Z" fill="white"/>
</mask>
<g mask="url(#mask52_2004_645)">
<path d="M177.273 192.899H176.049H103.735H102.511V194.126V298.899V300.126H103.735H176.049H177.273V298.899V194.126V192.899ZM176.049 298.899H103.735V194.126H176.049V298.899Z" fill="#81BAC8"/>
</g>
<mask id="mask53_2004_645" style="mask-type:luminance" maskUnits="userSpaceOnUse" x="-39" y="-113" width="613" height="614">
<path d="M-38.6494 -112.304H573.681V500.816H-38.6494V-112.304Z" fill="white"/>
</mask>
<g mask="url(#mask53_2004_645)">
<path d="M153.387 109.911L144.119 144.042H102.974L115.344 109.911H153.387Z" fill="#FF9999"/>
</g>
<path d="M102.973 144.042V149.438C102.973 160.811 112.188 170.024 123.545 170.024C134.903 170.024 144.118 160.811 144.118 149.438V144.042H102.973Z" fill="#FF6D7F"/>
<mask id="mask54_2004_645" style="mask-type:luminance" maskUnits="userSpaceOnUse" x="-39" y="-113" width="613" height="614">
<path d="M-38.6494 -112.304H573.681V500.816H-38.6494V-112.304Z" fill="white"/>
</mask>
<g mask="url(#mask54_2004_645)">
<path d="M231.575 276.847C231.575 278.534 230.208 279.901 228.523 279.901C226.838 279.901 225.473 278.534 225.473 276.847C225.473 275.159 226.838 273.791 228.523 273.791C230.208 273.791 231.575 275.159 231.575 276.847Z" fill="#81BAC8"/>
</g>
<mask id="mask55_2004_645" style="mask-type:luminance" maskUnits="userSpaceOnUse" x="-39" y="-113" width="613" height="614">
<path d="M-38.6494 -112.304H573.681V500.816H-38.6494V-112.304Z" fill="white"/>
</mask>
<g mask="url(#mask55_2004_645)">
<path d="M231.575 311.168C231.575 312.855 230.208 314.223 228.523 314.223C226.838 314.223 225.473 312.855 225.473 311.168C225.473 309.481 226.838 308.114 228.523 308.114C230.208 308.114 231.575 309.481 231.575 311.168Z" fill="#81BAC8"/>
</g>
<mask id="mask56_2004_645" style="mask-type:luminance" maskUnits="userSpaceOnUse" x="-39" y="-113" width="613" height="614">
<path d="M-38.6494 -112.304H573.681V500.816H-38.6494V-112.304Z" fill="white"/>
</mask>
<g mask="url(#mask56_2004_645)">
<path d="M228.522 313.004C227.34 313.004 226.383 312.045 226.383 310.861V276.92C226.383 275.737 227.34 274.778 228.522 274.778C229.704 274.778 230.663 275.737 230.663 276.92V310.861C230.663 312.045 229.704 313.004 228.522 313.004Z" fill="#D8E9F0"/>
</g>
<mask id="mask57_2004_645" style="mask-type:luminance" maskUnits="userSpaceOnUse" x="-39" y="-113" width="613" height="614">
<path d="M-38.6494 -112.304H573.681V500.816H-38.6494V-112.304Z" fill="white"/>
</mask>
<g mask="url(#mask57_2004_645)">
<path d="M532.241 393.63V409.096H2.79102V393.63H69.5702H205.811H216.248H318.784H329.222H465.462H532.241Z" fill="#BDD5DF"/>
</g>
<path d="M279.286 33.6609C275.137 33.7983 272.561 34.5358 272.561 37.2456C272.561 38.9999 273.992 40.9015 277.55 40.9015C282.353 40.9015 284.918 38.3049 284.918 34.0532V33.5805C283.23 33.585 281.155 33.5995 279.286 33.6609ZM289.487 39.2837C289.487 40.6033 289.525 41.9085 289.639 43.0672H285.395C285.289 42.1255 285.239 41.1777 285.242 40.23C282.944 43.0345 280.207 43.8434 276.411 43.8434C270.768 43.8336 267.75 40.9015 267.75 37.4679C267.75 32.5257 271.851 30.7805 278.971 30.6196C280.917 30.5771 283.106 30.568 284.913 30.568V30.0953C284.913 26.7846 282.772 25.4225 279.067 25.4225C276.315 25.4225 274.298 26.5531 274.073 28.5063H269.266C269.776 23.6393 274.932 22.4055 279.467 22.4055C284.899 22.4055 289.482 24.3207 289.482 30.0194L289.487 39.2837Z" fill="#F8B100"/>
<path d="M239.717 31.2441C239.541 26.988 236.451 25.4134 233.15 25.4134C229.598 25.4134 226.736 27.1868 226.259 31.2441H239.717ZM226.149 34.2801C226.397 38.3997 229.259 40.8355 233.198 40.8355C235.925 40.8355 238.354 39.733 239.164 37.3359H243.905C242.951 42.1786 237.753 43.8336 233.265 43.8336C225.105 43.8336 221.49 39.3741 221.49 33.3681C221.49 26.7467 225.229 22.3956 233.341 22.3956C239.793 22.3956 244.525 25.7678 244.525 33.0554V34.2801H226.149Z" fill="#E83434"/>
<path d="M256.255 40.7316C260.51 40.7316 263.409 37.6948 263.409 33.1169C263.409 28.539 260.5 25.5029 256.255 25.5029C252.011 25.5029 249.102 28.539 249.102 33.1169C249.102 37.6948 252.011 40.7316 256.255 40.7316ZM244.523 14.4174H249.097V25.8148C251.339 23.1666 254.429 22.3956 257.467 22.3956C262.565 22.3956 268.226 25.8057 268.226 33.1738C268.226 39.3217 263.724 43.8336 257.381 43.8336C254.043 43.8336 250.938 42.6513 249.011 40.315C249.011 41.2392 248.959 42.1634 248.854 43.0816H244.381C244.457 41.6626 244.538 39.8468 244.538 38.3952L244.523 14.4174Z" fill="#006CB8"/>
<path d="M312.784 23.1521L298.639 50.7008H293.503L297.571 43.0482L286.94 23.1521H292.292L300.127 38.7025L307.939 23.1574L312.784 23.1521Z" fill="#7CBD27"/>
</g>
<defs>
<linearGradient id="paint0_linear_2004_645" x1="495.365" y1="393.63" x2="435.471" y2="325.431" gradientUnits="userSpaceOnUse">
<stop stop-color="#2F1E7C"/>
<stop offset="1" stop-color="#5C248C"/>
</linearGradient>
<linearGradient id="paint1_linear_2004_645" x1="59.7001" y1="393.63" x2="79.4864" y2="325.368" gradientUnits="userSpaceOnUse">
<stop stop-color="#2F1E7C"/>
<stop offset="1" stop-color="#5C248C"/>
</linearGradient>
<linearGradient id="paint2_linear_2004_645" x1="236.743" y1="-21.6595" x2="298.407" y2="85.0069" gradientUnits="userSpaceOnUse">
<stop stop-color="#5A40FF"/>
<stop offset="0.454688" stop-color="#080322"/>
<stop offset="1" stop-color="#5A40FF"/>
</linearGradient>
<linearGradient id="paint3_linear_2004_645" x1="330.748" y1="59.0675" x2="337.258" y2="70.327" gradientUnits="userSpaceOnUse">
<stop/>
<stop offset="0.454688"/>
<stop offset="1"/>
</linearGradient>
<linearGradient id="paint4_linear_2004_645" x1="197.786" y1="59.0675" x2="204.294" y2="70.327" gradientUnits="userSpaceOnUse">
<stop/>
<stop offset="0.454688"/>
<stop offset="1"/>
</linearGradient>
<linearGradient id="paint5_linear_2004_645" x1="219.342" y1="9.51622" x2="315.876" y2="176.503" gradientUnits="userSpaceOnUse">
<stop/>
<stop offset="1"/>
</linearGradient>
<linearGradient id="paint6_linear_2004_645" x1="248.955" y1="206.903" x2="286.149" y2="271.243" gradientUnits="userSpaceOnUse">
<stop stop-color="#5A40FF"/>
<stop offset="0.454688"/>
<stop offset="1" stop-color="#5A40FF"/>
</linearGradient>
<clipPath id="clip0_2004_645">
<rect width="532" height="409" fill="white"/>
</clipPath>
</defs>
</svg>
