<svg width="88" height="88" viewBox="0 0 88 88" fill="none" xmlns="http://www.w3.org/2000/svg">
<path fill-rule="evenodd" clip-rule="evenodd" d="M28.9748 38.3752C27.1498 38.3752 25.8248 35.9502 27.3248 34.6002C26.2998 33.4502 26.7498 31.5752 28.1748 31.0002C27.2248 29.5752 28.1248 27.6252 29.8498 27.4752C30.1498 26.0752 31.6748 25.4002 32.6998 25.7752C33.3248 24.3752 34.7748 24.4502 34.8248 24.4502C35.2998 24.0252 35.9498 23.8252 36.5998 23.9002C37.1498 23.9752 37.6248 24.2252 37.9748 24.6252C38.7748 23.9252 39.9748 23.9002 40.7998 24.5002C41.9748 24.0252 43.3498 24.6002 43.7998 25.8002C44.9498 25.6002 46.0748 26.3002 46.3998 27.4002C46.7998 27.4752 47.1998 27.6502 47.4998 27.9252C47.9248 27.8252 48.3748 27.8502 48.7748 28.0002C49.5248 27.4502 50.6248 27.5002 51.3498 28.1002C52.6498 26.7252 54.2748 27.9502 54.2998 27.9502C55.1248 27.9752 55.8248 28.4502 56.1748 29.1502C57.3748 28.8502 58.5248 29.5752 58.7748 30.7002C60.3248 30.8752 61.1498 32.6252 60.3248 33.9502C61.6248 34.5002 61.9998 36.1752 61.0998 37.2502C62.4748 38.5252 61.1748 40.8002 59.4498 40.7002C59.2998 43.9502 57.9748 46.5502 55.7498 48.0502L56.3748 50.2002H58.3748C62.4498 50.2002 65.3248 53.3252 65.3248 57.1502V63.6252C65.3248 63.9002 65.0998 64.1252 64.8248 64.1252H23.1748C22.8998 64.1252 22.6748 63.9002 22.6748 63.6252V56.5252C22.6748 52.3252 26.0748 48.9252 30.2748 48.9252H32.4998L33.1998 46.4752C30.7498 44.8252 29.2748 41.9502 29.1248 38.3752H28.9748ZM55.4248 50.5752L54.8498 48.5502C52.7248 49.6252 50.1498 49.6502 47.9748 48.6502L47.7998 49.2752C49.9248 49.9252 51.6498 51.5002 52.5248 53.5002L55.4248 50.5752ZM52.8748 54.5502C53.0498 55.1752 53.1498 55.8502 53.1498 56.5252V63.1252H59.3998V60.2252C59.3998 59.5752 60.3998 59.5752 60.3998 60.2252V63.1252H64.3248V58.3502H56.6998C56.0498 58.3502 56.0498 57.3502 56.6998 57.3502H64.3248C64.3248 56.6502 64.2748 56.1502 64.0998 55.5002H58.7748C58.1248 55.5002 58.1248 54.5002 58.7748 54.5002H63.6998C62.7248 52.5502 60.6998 51.2002 58.3748 51.2002H56.1998L52.8748 54.5502ZM47.0998 50.1002C45.5748 49.8252 44.7248 49.9252 43.1248 49.9252L38.2498 54.8502C38.0748 55.0252 37.7498 55.0252 37.5498 54.8502L32.6748 49.9252H30.2748C27.6748 49.9252 25.3998 51.4502 24.3248 53.6252H33.1498C33.8248 53.6252 33.7998 54.6252 33.1498 54.6252H23.9498C23.7248 55.4002 23.6748 55.9752 23.6748 56.7752H41.6748C42.3248 56.7752 42.3248 57.7752 41.6748 57.7752H23.6748V63.1252H28.0998V59.9002C28.0998 59.2502 29.0998 59.2502 29.0998 59.9002V63.1252H46.6998V59.9002C46.6998 59.2502 47.6998 59.2502 47.6998 59.9002V63.1252H52.1498V56.5252C52.1498 53.6002 50.0248 50.6502 47.0998 50.1002ZM55.1998 47.2002C57.2998 45.8002 58.4498 43.2502 58.4498 40.1002C58.4498 39.8752 58.9998 37.8752 57.9998 37.1502C57.0498 37.5002 55.1998 38.4502 53.4748 35.7752C52.5748 36.0252 51.4998 35.8502 51.1498 34.7502C50.5998 35.2252 49.7998 35.4252 48.8998 35.6252C48.9248 36.6502 47.9998 37.7252 47.0498 38.1752C46.9748 40.6002 46.2748 42.7752 44.9998 44.4502C46.3748 47.1502 49.0998 48.5752 51.7998 48.3752C52.9998 48.3002 54.1998 47.8752 55.1998 47.2002ZM47.0748 48.1752C45.9498 47.4752 44.9998 46.4752 44.3248 45.2502C43.8248 45.7752 43.2498 46.2252 42.6498 46.6002L43.2998 48.9252C44.3248 48.9252 45.8498 48.8752 46.8248 49.0252L47.0748 48.1752ZM48.1748 28.8752C48.4498 29.6252 48.2998 30.5002 47.7748 31.1252C49.1498 31.7502 49.5748 33.4752 48.6748 34.6502C50.0748 34.3502 50.6498 34.1002 50.8248 33.4002C50.9748 32.7252 52.0248 32.8502 51.9998 33.5752C51.9498 34.7252 52.3998 35.1502 53.4248 34.7502C54.6498 34.2502 54.4248 37.5502 57.4248 36.3002C57.7748 36.1752 58.0498 36.0502 58.3498 36.2002C59.5248 36.8502 59.7498 38.3502 59.5498 39.7002C60.3998 39.7002 61.2748 38.4002 60.1998 37.7752C59.8248 37.5752 59.7998 37.0252 60.1498 36.7752C60.9998 36.1752 60.5998 34.8002 59.5498 34.7752C59.0748 34.7502 58.6998 34.1252 59.2748 33.6502C60.0748 32.9752 59.5498 31.6752 58.5498 31.7002C57.5498 31.7252 58.1248 30.8502 57.3998 30.3002C56.5998 29.7252 56.1748 30.4752 55.6748 30.2252C55.1498 29.9752 55.4748 29.0002 54.2248 28.9502C53.4248 28.9252 53.5498 28.3502 52.7248 28.4502C51.8498 28.5752 52.0248 29.3002 51.4248 29.3252C51.2248 29.3252 51.0248 29.2252 50.8998 29.0752C50.5498 28.5752 49.7998 28.4752 49.2748 28.8752C48.7748 29.3002 48.5998 28.9502 48.1748 28.8752ZM47.0498 28.8752C46.9248 28.7752 46.6498 28.3752 46.0498 28.3752C45.2748 28.4002 45.6748 27.5502 44.9248 27.0002C44.1248 26.4252 43.6998 27.1002 43.1998 26.8002C42.7498 26.5252 43.0998 25.8502 42.1998 25.4502C41.1998 24.9752 40.9998 25.9752 40.2748 25.3752C39.6998 24.8752 38.8498 25.0252 38.4248 25.5752C38.1748 25.9502 37.6248 25.9252 37.4248 25.5252C36.9998 24.8002 35.9748 24.6502 35.3748 25.2752C35.0498 25.6252 33.8248 25.1502 33.5248 26.4252C33.3498 27.2252 32.4498 26.7252 32.3748 26.7252C31.5998 26.5252 30.8248 27.0752 30.7748 27.8752C30.7248 28.8502 29.6248 28.0252 28.9748 29.0502C28.6498 29.6002 28.7748 30.3002 29.2498 30.7002C29.8498 31.2002 29.4248 31.8002 28.9748 31.8252C27.8248 31.8752 27.2998 33.3502 28.2498 34.1002C28.6998 34.4502 28.5998 34.9502 28.2498 35.1752C26.9748 35.9002 28.0248 37.4252 29.0498 37.3752C28.8748 36.3752 28.7748 34.3502 30.3248 33.5252C31.2248 33.0252 32.9998 35.5502 34.9248 32.1752C35.3498 31.4002 36.2248 32.4252 36.9498 31.9252C37.6998 31.4252 36.8998 30.0752 37.8498 29.9502C38.5998 29.8502 38.3498 30.6502 38.9748 31.0002C39.8248 31.5252 40.6998 30.6002 41.0748 31.3502C41.3248 31.8002 41.9998 32.6252 42.9248 32.1002C43.2998 31.8752 43.8498 32.1252 43.8248 32.6502C43.7498 34.8502 45.2248 34.5502 45.5248 34.7252C45.5248 34.7252 46.8498 35.5002 47.0498 37.0002C47.5748 36.5752 48.2248 35.7002 47.6748 35.2502C46.9748 34.6502 47.7998 34.2502 47.9998 33.8002C48.3998 32.9752 47.8498 31.9752 46.8748 31.9002C46.2748 31.8752 46.0998 31.0752 46.6248 30.7752C47.3248 30.4002 47.5248 29.5002 47.0498 28.8752ZM42.3748 49.2752L41.7498 47.1002C39.3498 48.2252 36.4748 48.1752 34.0998 47.0002L33.4498 49.2752L37.8998 53.7752L42.3748 49.2752ZM33.9998 45.7752C36.3748 47.0502 38.7498 47.3502 41.2998 46.2002C44.2748 44.8502 46.0498 41.7002 46.0498 37.8252C46.0498 37.7752 46.0498 37.7252 46.0748 37.7002C46.2498 36.5252 45.3498 35.8252 45.0998 35.6252C44.4498 35.5752 43.9248 35.3502 43.5498 34.9002C43.0748 34.3752 42.8998 33.7002 42.8498 33.2002C41.7498 33.5002 40.8748 32.8002 40.3748 32.0752C39.5248 32.2502 38.7748 32.1502 38.2248 31.7002C37.8748 33.0252 36.6748 33.2252 35.6248 32.9252C33.7498 35.8752 31.7248 34.8502 30.6748 34.4502C29.4998 35.2502 30.1248 37.5002 30.1248 37.7752C30.1248 41.4002 31.5248 44.2752 33.9998 45.7752Z" fill="#5A40FF"/>
</svg>
