<svg width="88" height="88" viewBox="0 0 88 88" fill="none" xmlns="http://www.w3.org/2000/svg">
<path d="M64.1338 24.9521H23.8662C21.9902 24.9521 20.4648 26.4785 20.4648 28.3535V59.6465C20.4648 61.5215 21.9902 63.0478 23.8662 63.0478H64.1338C66.0088 63.0478 67.5352 61.5225 67.5352 59.6465V28.3535C67.5352 26.4785 66.0098 24.9521 64.1338 24.9521ZM66.3633 59.6465C66.3633 60.876 65.3633 61.876 64.1338 61.876H23.8662C22.6367 61.876 21.6367 60.876 21.6367 59.6465V34.4697H66.3633V59.6465ZM66.3633 33.2979H21.6367V28.3535C21.6367 27.124 22.6367 26.124 23.8662 26.124H64.1338C65.3633 26.124 66.3633 27.124 66.3633 28.3535V33.2979ZM62.3252 27.8008H51.4121C50.3584 27.8008 49.502 28.6572 49.502 29.7109C49.502 30.7646 50.3584 31.6211 51.4121 31.6211H62.3252C63.3789 31.6211 64.2354 30.7646 64.2354 29.7109C64.2354 28.6582 63.3789 27.8008 62.3252 27.8008ZM62.3252 30.4492H51.4121C51.0049 30.4492 50.6738 30.1182 50.6738 29.7109C50.6738 29.3037 51.0049 28.9727 51.4121 28.9727H62.3252C62.7324 28.9727 63.0635 29.3037 63.0635 29.7109C63.0635 30.1182 62.7324 30.4492 62.3252 30.4492ZM25.6748 27.8008C24.6211 27.8008 23.7646 28.6572 23.7646 29.7109C23.7646 30.7646 24.6211 31.6211 25.6748 31.6211C26.7285 31.6211 27.585 30.7646 27.585 29.7109C27.585 28.6582 26.7275 27.8008 25.6748 27.8008ZM25.6748 30.4492C25.2676 30.4492 24.9365 30.1182 24.9365 29.7109C24.9365 29.3037 25.2676 28.9727 25.6748 28.9727C26.082 28.9727 26.4131 29.3037 26.4131 29.7109C26.4131 30.1182 26.0811 30.4492 25.6748 30.4492ZM31.1143 27.8008C30.0605 27.8008 29.2041 28.6572 29.2041 29.7109C29.2041 30.7646 30.0605 31.6211 31.1143 31.6211C32.168 31.6211 33.0244 30.7646 33.0244 29.7109C33.0244 28.6582 32.167 27.8008 31.1143 27.8008ZM31.1143 30.4492C30.707 30.4492 30.376 30.1182 30.376 29.7109C30.376 29.3037 30.707 28.9727 31.1143 28.9727C31.5215 28.9727 31.8525 29.3037 31.8525 29.7109C31.8525 30.1182 31.5215 30.4492 31.1143 30.4492ZM36.5537 27.8008C35.5 27.8008 34.6436 28.6572 34.6436 29.7109C34.6436 30.7646 35.5 31.6211 36.5537 31.6211C37.6074 31.6211 38.4639 30.7646 38.4639 29.7109C38.4639 28.6582 37.6064 27.8008 36.5537 27.8008ZM36.5537 30.4492C36.1465 30.4492 35.8154 30.1182 35.8154 29.7109C35.8154 29.3037 36.1465 28.9727 36.5537 28.9727C36.9609 28.9727 37.292 29.3037 37.292 29.7109C37.292 30.1182 36.9609 30.4492 36.5537 30.4492ZM39.5742 48.1709L38.8604 51.9023C38.7695 52.3789 38.9561 52.8516 39.3486 53.1357C39.7412 53.4209 40.248 53.4521 40.6729 53.2187L44 51.3867L47.3281 53.2187C47.5166 53.3232 47.7227 53.374 47.9268 53.374C48.1816 53.374 48.4346 53.2939 48.6523 53.1357C49.0449 52.8506 49.2314 52.3779 49.1406 51.9023L48.4268 48.1709L51.1982 45.5723C51.5518 45.2402 51.6787 44.748 51.5283 44.2871C51.3779 43.8262 50.9863 43.502 50.5059 43.4414L46.7363 42.9678L45.1211 39.5293C44.915 39.0908 44.4863 38.8184 44.001 38.8184C43.5156 38.8184 43.0869 39.0908 42.8809 39.5293L41.2656 42.9678L37.4961 43.4414C37.0156 43.502 36.623 43.8262 36.4736 44.2871C36.3242 44.748 36.4502 45.2402 36.8037 45.5723L39.5742 48.1709ZM37.5869 44.6494C37.5967 44.6191 37.6094 44.6084 37.6416 44.6045L41.7314 44.0908C41.8294 44.0785 41.9227 44.0416 42.0026 43.9835C42.0825 43.9255 42.1465 43.8482 42.1885 43.7588L43.9414 40.0283C43.9551 40 43.9688 39.9902 44.001 39.9902C44.0332 39.9902 44.0469 39.999 44.0605 40.0283L45.8135 43.7588C45.8555 43.8482 45.9194 43.9255 45.9993 43.9835C46.0792 44.0416 46.1725 44.0785 46.2705 44.0908L50.3604 44.6045C50.3916 44.6084 50.4053 44.6191 50.4141 44.6494C50.4238 44.6797 50.4199 44.6963 50.3965 44.7178L47.3896 47.5371C47.3175 47.6046 47.2636 47.6892 47.2331 47.7832C47.2025 47.8771 47.1962 47.9772 47.2148 48.0742L47.9893 52.123C47.9951 52.1543 47.9893 52.1699 47.9629 52.1885C47.9375 52.207 47.9199 52.208 47.8926 52.1934L44.2822 50.2051C44.1943 50.1562 44.0967 50.1328 44 50.1328C43.9033 50.1328 43.8057 50.1572 43.7178 50.2051L40.1074 52.1934C40.0801 52.209 40.0625 52.207 40.0371 52.1885C40.0117 52.1699 40.0049 52.1543 40.0117 52.123L40.7861 48.0742C40.8048 47.9772 40.7986 47.8771 40.768 47.7831C40.7374 47.6892 40.6835 47.6045 40.6113 47.5371L37.6045 44.7168C37.5811 44.6953 37.5771 44.6797 37.5869 44.6494ZM27.7812 53.4443L27.2471 56.2354C27.167 56.6533 27.3311 57.0684 27.6758 57.3184C27.8672 57.457 28.0889 57.5273 28.3125 57.5273C28.4922 57.5273 28.6719 57.4824 28.8379 57.3906L31.3271 56.0195L33.8164 57.3906C34.1895 57.5957 34.6348 57.5674 34.9785 57.3184C35.3223 57.0684 35.4873 56.6533 35.4072 56.2354L34.873 53.4443L36.9463 51.5C37.2568 51.209 37.3672 50.7764 37.2363 50.3721C37.1045 49.9678 36.7607 49.6836 36.3389 49.6299L33.5195 49.2754L32.3115 46.7031C32.1309 46.3184 31.7539 46.0791 31.3281 46.0791C30.9023 46.0791 30.5264 46.3184 30.3447 46.7031L29.1367 49.2754L26.3164 49.6299C25.8945 49.6826 25.5508 49.9678 25.4189 50.3721C25.2871 50.7764 25.3984 51.209 25.709 51.5L27.7812 53.4443ZM29.6016 50.3984C29.6996 50.3861 29.7928 50.3492 29.8727 50.2911C29.9526 50.2331 30.0166 50.1558 30.0586 50.0664L31.3262 47.3672L32.5937 50.0664C32.6358 50.1558 32.6997 50.2331 32.7796 50.2911C32.8595 50.3492 32.9528 50.3861 33.0508 50.3984L36.0098 50.7705L33.835 52.8105C33.7628 52.878 33.709 52.9627 33.6784 53.0566C33.6478 53.1505 33.6416 53.2507 33.6602 53.3477L34.2207 56.2764L31.6084 54.8379C31.5205 54.7891 31.4229 54.7656 31.3262 54.7656C31.2295 54.7656 31.1318 54.79 31.0439 54.8379L28.4316 56.2764L28.9922 53.3477C29.0109 53.2507 29.0046 53.1505 28.974 53.0566C28.9435 52.9626 28.8896 52.878 28.8174 52.8105L26.6426 50.7705L29.6016 50.3984ZM50.7637 50.373C50.6318 50.7773 50.7432 51.21 51.0537 51.501L53.127 53.4453L52.5928 56.2363C52.5127 56.6543 52.6768 57.0693 53.0215 57.3193C53.2129 57.458 53.4346 57.5283 53.6582 57.5283C53.8379 57.5283 54.0176 57.4834 54.1836 57.3916L56.6729 56.0205L59.1621 57.3916C59.5352 57.5967 59.9805 57.5684 60.3242 57.3193C60.6689 57.0693 60.833 56.6543 60.7529 56.2363L60.2187 53.4453L62.292 51.501C62.6025 51.21 62.7139 50.7773 62.582 50.373C62.4502 49.9687 62.1064 49.6836 61.6846 49.6309L58.8652 49.2764L57.6572 46.7041C57.4766 46.3193 57.0996 46.0801 56.6738 46.0801C56.248 46.0801 55.8721 46.3193 55.6904 46.7041L54.4824 49.2764L51.6621 49.6309C51.2393 49.6836 50.8955 49.9687 50.7637 50.373ZM54.9473 50.3984C55.0453 50.3861 55.1385 50.3492 55.2184 50.2911C55.2984 50.2331 55.3623 50.1558 55.4043 50.0664L56.6719 47.3672L57.9395 50.0664C57.9816 50.1557 58.0456 50.2329 58.1254 50.291C58.2053 50.349 58.2985 50.386 58.3965 50.3984L61.3555 50.7705L59.1807 52.8105C59.1085 52.878 59.0547 52.9627 59.0241 53.0566C58.9935 53.1505 58.9873 53.2507 59.0059 53.3477L59.5664 56.2764L56.9541 54.8379C56.7783 54.7412 56.5645 54.7412 56.3887 54.8379L53.7764 56.2764L54.3369 53.3477C54.3556 53.2507 54.3493 53.1505 54.3188 53.0566C54.2882 52.9626 54.2343 52.878 54.1621 52.8105L51.9873 50.7705L54.9473 50.3984Z" fill="#5A40FF"/>
</svg>
