<svg width="88" height="88" viewBox="0 0 88 88" fill="none" xmlns="http://www.w3.org/2000/svg">
<g clip-path="url(#clip0_2027_444)">
<path fill-rule="evenodd" clip-rule="evenodd" d="M58.1659 63.7581C54.1759 66.625 49.2838 68.314 44.0003 68.314C30.5811 68.314 19.6865 57.4194 19.6865 44.0003C19.6865 40.2619 20.5322 36.7195 22.0422 33.5539C21.2403 32.864 20.7322 31.842 20.7322 30.7022C20.7322 28.6267 22.4172 26.9417 24.4927 26.9417C25.1307 26.9417 25.7319 27.1009 26.2586 27.3818C26.9329 26.6623 27.65 25.9842 28.4061 25.3511C28.2596 24.9949 28.1845 24.6134 28.185 24.2283C28.185 22.5979 29.5087 21.2742 31.1391 21.2742C31.9751 21.2742 32.7303 21.6221 33.2679 22.1809C36.5055 20.5841 40.1489 19.6865 44.0003 19.6865C57.4194 19.6865 68.314 30.5811 68.314 44.0003C68.314 49.4264 66.5326 54.4398 63.5234 58.4871C64.142 59.1574 64.5203 60.053 64.5203 61.0362C64.5203 63.1117 62.8352 64.7967 60.7597 64.7967C59.7545 64.7967 58.8409 64.4015 58.1659 63.7581ZM23.4208 34.3076C22.137 37.0258 21.3763 40.0387 21.2685 43.2159H26.0759C26.4758 33.9372 33.9372 26.4758 43.2159 26.0759V21.2685C39.9252 21.3802 36.8107 22.1922 34.0173 23.5604C34.067 23.7752 34.0933 23.9987 34.0933 24.2283C34.0933 25.8588 32.7696 27.1825 31.1391 27.1825C30.5001 27.1834 29.8783 26.9761 29.3677 26.592C28.698 27.1556 28.0612 27.7571 27.4604 28.3936C27.9753 29.0529 28.2544 29.8657 28.2533 30.7022C28.2533 32.7777 26.5682 34.4628 24.4927 34.4628C24.1298 34.4631 23.7688 34.4108 23.4208 34.3076ZM21.2685 44.7846C21.6824 56.9754 31.7094 66.7454 44.0003 66.7454C48.9553 66.7454 53.5423 65.1575 57.2798 62.4633C57.0939 62.0105 56.9986 61.5257 56.9992 61.0362C56.998 60.2421 57.2495 59.4682 57.7173 58.8265L56.1175 57.2266C52.9243 60.154 48.6694 61.9414 44.0003 61.9414C34.361 61.9414 26.4871 54.3233 26.0759 44.7846H21.2685ZM62.2431 57.5801C64.925 53.9848 66.5695 49.5712 66.732 44.7846H61.9246C61.7366 49.145 59.9893 53.104 57.2266 56.1175L58.8853 57.776C59.4552 57.4473 60.1017 57.2747 60.7597 57.2756C61.2697 57.275 61.7745 57.3786 62.2431 57.5801ZM66.732 43.2159C66.539 37.5303 64.255 32.3712 60.6254 28.4843L57.2266 31.883C59.9893 34.8965 61.7366 38.8555 61.9246 43.2159H66.732ZM59.5162 27.3751C55.6293 23.7455 50.4703 21.4615 44.7846 21.2685V26.0759C49.145 26.2639 53.104 28.0112 56.1175 30.7739L59.5162 27.3751ZM44.0003 27.6277C34.964 27.6277 27.6277 34.964 27.6277 44.0003C27.6277 53.0365 34.964 60.3728 44.0003 60.3728C53.0365 60.3728 60.3728 53.0365 60.3728 44.0003C60.3728 34.964 53.0365 27.6277 44.0003 27.6277ZM39.611 42.1069H42.6838C42.8918 42.1069 43.0913 42.1896 43.2384 42.3366C43.3855 42.4837 43.4681 42.6832 43.4681 42.8912V53.9726C43.4681 54.1806 43.3855 54.3801 43.2384 54.5272C43.0913 54.6743 42.8918 54.7569 42.6838 54.7569H39.611C39.403 54.7569 39.2035 54.6743 39.0564 54.5272C38.9094 54.3801 38.8267 54.1806 38.8267 53.9726V42.8912C38.8267 42.6832 38.9094 42.4837 39.0564 42.3366C39.2035 42.1896 39.403 42.1069 39.611 42.1069ZM40.3953 43.6755V53.1883H41.8995V43.6755H40.3953ZM37.55 40.8206C37.6441 41.0687 37.6957 41.3373 37.6957 41.6176C37.6957 42.86 36.6831 43.8707 35.4408 43.8707C34.1985 43.8707 33.1859 42.86 33.1859 41.6176C33.1859 40.3756 34.1988 39.3627 35.4408 39.3627C35.8309 39.3627 36.1985 39.4627 36.5192 39.6383L39.0384 37.4439C38.9417 37.1896 38.8923 36.9198 38.8925 36.6477C38.8925 35.4049 39.9065 34.3919 41.1465 34.3919C42.3891 34.3919 43.4023 35.4052 43.4023 36.6477C43.4023 36.726 43.3983 36.8036 43.3903 36.88L45.3055 37.8245C45.7101 37.4418 46.2554 37.2067 46.854 37.2067C47.1724 37.2067 47.4756 37.2732 47.7506 37.3931L50.5315 34.4903C50.3826 34.184 50.3054 33.8478 50.3057 33.5071C50.3057 32.2643 51.3169 31.2512 52.5598 31.2512C53.8023 31.2512 54.8155 32.2646 54.8155 33.5071C54.8155 34.7497 53.8023 35.7629 52.5598 35.7629C52.2413 35.7629 51.9381 35.6964 51.6632 35.5766L48.8822 38.4794C49.0312 38.7857 49.1084 39.1219 49.108 39.4625C49.108 40.7028 48.0971 41.7165 46.854 41.7165C45.6111 41.7165 44.5982 40.7025 44.5982 39.4625C44.5982 39.3842 44.6022 39.3067 44.6101 39.2304L42.6936 38.2853C42.2892 38.6669 41.7445 38.9017 41.1465 38.9017C40.757 38.9017 40.3899 38.8017 40.0694 38.6261L37.55 40.8206ZM35.4408 42.3021C35.8186 42.3021 36.1271 41.9953 36.1271 41.6176C36.1271 41.2397 35.8188 40.9313 35.4408 40.9313C35.0628 40.9313 34.7546 41.2397 34.7546 41.6176C34.7546 41.9953 35.0631 42.3021 35.4408 42.3021ZM41.1465 37.3331C41.5248 37.3331 41.8337 37.0251 41.8337 36.6477C41.8337 36.2692 41.5251 35.9605 41.1465 35.9605C40.7692 35.9605 40.4611 36.2695 40.4611 36.6477C40.4611 37.0249 40.7694 37.3331 41.1465 37.3331ZM46.854 40.1479C47.2319 40.1479 47.5394 39.8397 47.5394 39.4625C47.5394 39.0843 47.2322 38.7753 46.854 38.7753C46.4754 38.7753 46.1668 39.084 46.1668 39.4625C46.1668 39.84 46.4757 40.1479 46.854 40.1479ZM52.5598 34.1943C52.9383 34.1943 53.2469 33.8856 53.2469 33.5071C53.2469 33.1286 52.9383 32.8199 52.5598 32.8199C52.1815 32.8199 51.8744 33.1289 51.8744 33.5071C51.8744 33.8853 52.1815 34.1943 52.5598 34.1943ZM51.0244 38.0746H54.097C54.305 38.0746 54.5045 38.1572 54.6516 38.3043C54.7987 38.4514 54.8813 38.6509 54.8813 38.8589V53.9726C54.8813 54.1806 54.7987 54.3801 54.6516 54.5272C54.5045 54.6743 54.305 54.7569 54.097 54.7569H51.0244C50.8164 54.7569 50.6169 54.6743 50.4698 54.5272C50.3227 54.3801 50.2401 54.1806 50.2401 53.9726V38.8589C50.2401 38.6509 50.3227 38.4514 50.4698 38.3043C50.6169 38.1572 50.8164 38.0746 51.0244 38.0746ZM51.8087 39.6432V53.1883H53.3127V39.6432H51.8087ZM45.3167 44.202H48.3895C48.5975 44.202 48.797 44.2846 48.9441 44.4317C49.0911 44.5788 49.1738 44.7783 49.1738 44.9863V53.9726C49.1738 54.1806 49.0911 54.3801 48.9441 54.5272C48.797 54.6743 48.5975 54.7569 48.3895 54.7569H45.3167C45.1087 54.7569 44.9092 54.6743 44.7621 54.5272C44.615 54.3801 44.5324 54.1806 44.5324 53.9726V44.9863C44.5324 44.7783 44.615 44.5788 44.7621 44.4317C44.9092 44.2846 45.1087 44.202 45.3167 44.202ZM46.101 45.7706V53.1883H47.6052V45.7706H46.101ZM33.9035 47.2927H36.9782C37.1862 47.2927 37.3857 47.3753 37.5328 47.5224C37.6799 47.6695 37.7625 47.869 37.7625 48.077V53.9726C37.7625 54.1806 37.6799 54.3801 37.5328 54.5272C37.3857 54.6743 37.1862 54.7569 36.9782 54.7569H33.9035C33.6955 54.7569 33.496 54.6743 33.3489 54.5272C33.2018 54.3801 33.1192 54.1806 33.1192 53.9726V48.077C33.1192 47.869 33.2018 47.6695 33.3489 47.5224C33.496 47.3753 33.6955 47.2927 33.9035 47.2927ZM34.6878 48.8613V53.1883H36.1939V48.8613H34.6878ZM60.7597 58.8443C59.55 58.8443 58.5678 59.8264 58.5678 61.0362C58.5678 62.2459 59.55 63.2281 60.7597 63.2281C61.9695 63.2281 62.9516 62.2459 62.9516 61.0362C62.9516 59.8264 61.9695 58.8443 60.7597 58.8443ZM24.4927 28.5103C23.283 28.5103 22.3008 29.4925 22.3008 30.7022C22.3008 31.912 23.283 32.8942 24.4927 32.8942C25.7025 32.8942 26.6847 31.912 26.6847 30.7022C26.6847 29.4925 25.7025 28.5103 24.4927 28.5103ZM31.1391 22.8428C30.3745 22.8428 29.7536 23.4636 29.7536 24.2283C29.7536 24.993 30.3745 25.6139 31.1391 25.6139C31.9038 25.6139 32.5247 24.993 32.5247 24.2283C32.5247 23.4636 31.9038 22.8428 31.1391 22.8428Z" fill="#5A40FF"/>
</g>
<defs>
<clipPath id="clip0_2027_444">
<rect width="50" height="50" fill="white" transform="translate(19 19)"/>
</clipPath>
</defs>
</svg>
