<svg width="60" height="61" viewBox="0 0 60 61" fill="none" xmlns="http://www.w3.org/2000/svg">
<g clip-path="url(#clip0_2009_2154)">
<path d="M36.2565 12.2775C29.9715 4.54384 18.5672 3.36564 10.8341 9.65052C7.11527 12.6737 4.74959 17.0502 4.2574 21.8175C3.7652 26.5847 5.1868 31.3523 8.2095 35.0714C11.2322 38.7906 15.6084 41.1568 20.3756 41.6496C25.1428 42.1424 29.9106 40.7214 33.6301 37.6991C37.3493 34.6762 39.7155 30.2996 40.208 25.5322C40.7005 20.7648 39.2791 15.997 36.2565 12.2775ZM38.3438 25.3392C37.9581 29.0639 36.2929 32.5396 33.6319 35.1743C30.971 37.8089 27.4789 39.4395 23.7505 39.7882C20.0222 40.137 16.2883 39.1823 13.1849 37.0869C10.0815 34.9914 7.80057 31.8848 6.73072 28.2963C5.66086 24.7078 5.86825 20.8594 7.31755 17.4066C8.76685 13.9539 11.3684 11.1104 14.679 9.36058C17.9897 7.61078 21.8045 7.06291 25.4738 7.81031C29.143 8.5577 32.4397 10.5541 34.8021 13.4595C36.1486 15.1071 37.1549 17.0054 37.7629 19.0446C38.3708 21.0838 38.5683 23.2232 38.3438 25.3392ZM59.1299 50.2733L49.9868 41.4009C49.5132 40.9427 48.8967 40.6609 48.2403 40.6026C47.584 40.5442 46.9274 40.7128 46.3804 41.0803L40.894 35.7565C45.9799 27.8876 45.7057 17.3086 39.4842 9.65345C37.6429 7.38785 35.3734 5.50711 32.8052 4.11861C30.2371 2.73011 27.4206 1.86105 24.5166 1.56105C21.6126 1.26104 18.6779 1.53597 15.8801 2.37014C13.0824 3.20431 10.4763 4.58137 8.21072 6.42271C-1.30185 14.1538 -2.75135 28.1829 4.98057 37.6955C8.66899 42.2245 13.9902 45.1217 19.796 45.7619C25.6017 46.4021 31.4264 44.7339 36.013 41.1174L41.334 46.2806C40.984 46.8388 40.8357 47.4999 40.9138 48.1541C40.9919 48.8083 41.2917 49.4159 41.7633 49.8759L50.9065 58.7482C51.4539 59.2779 52.189 59.5689 52.9507 59.5574C53.7123 59.5459 54.4383 59.233 54.9696 58.687L59.1915 54.3361C59.7208 53.7884 60.0115 53.0534 60 52.2919C59.9885 51.5303 59.6754 50.8047 59.1299 50.2733ZM45.0302 42.383L42.5948 44.8929L37.4393 39.8903C38.2921 39.0921 39.0805 38.2277 39.797 37.3051L45.0302 42.383ZM6.43498 36.5134C-0.644432 27.8026 0.68295 14.9568 9.39338 7.87771C13.5831 4.47271 18.9537 2.8715 24.324 3.4263C29.6942 3.98111 34.6241 6.64649 38.0292 10.8361C45.0001 19.4134 43.8197 32.0008 35.4646 39.1431L35.4609 39.1461C35.3325 39.256 35.2024 39.3645 35.0707 39.4717C26.3603 46.5509 13.5144 45.2237 6.43498 36.5134ZM57.8451 53.0308L53.623 57.382C53.4383 57.5717 53.186 57.6804 52.9214 57.6843C52.6567 57.6883 52.4012 57.5872 52.211 57.4031L43.0679 48.5309C42.8793 48.3457 42.7713 48.0936 42.7673 47.8293C42.7633 47.565 42.8637 47.3098 43.0466 47.119L47.2688 42.7677C47.4534 42.578 47.7057 42.4692 47.9704 42.4652C48.235 42.4613 48.4905 42.5625 48.6806 42.7466L57.8237 51.6189C58.0124 51.804 58.1205 52.0561 58.1245 52.3204C58.1285 52.5847 58.0281 52.84 57.8451 53.0308ZM32.9223 16.9616L22.7008 11.0602C22.5583 10.9779 22.3966 10.9347 22.2321 10.9347C22.0675 10.9347 21.9059 10.9779 21.7633 11.0602L11.5419 16.9616C11.3994 17.0439 11.281 17.1622 11.1988 17.3048C11.1165 17.4473 11.0731 17.6089 11.0731 17.7735V29.5761C11.0731 29.7407 11.1165 29.9024 11.1988 30.0449C11.281 30.1874 11.3994 30.3057 11.5419 30.388L21.7633 36.2892C21.9059 36.3715 22.0675 36.4148 22.2321 36.4148C22.3967 36.4148 22.5583 36.3715 22.7008 36.2892L32.9223 30.3878C33.0648 30.3055 33.1831 30.1872 33.2654 30.0446C33.3477 29.9021 33.391 29.7405 33.391 29.5759V17.7736C33.3911 17.609 33.3477 17.4473 33.2655 17.3048C33.1832 17.1623 33.0648 17.0439 32.9223 16.9616ZM22.2321 12.9546L30.5785 17.7736L22.2321 22.5924L13.8856 17.7736L22.2321 12.9546ZM12.9481 19.3972L21.2946 24.2161V33.8537L12.9481 29.0353V19.3972ZM23.1696 33.8537V24.2161L31.516 19.3972V29.0353L23.1696 33.8537Z" fill="#FFB800"/>
</g>
<defs>
<clipPath id="clip0_2009_2154">
<rect width="60" height="60" fill="white" transform="translate(0 0.5)"/>
</clipPath>
</defs>
</svg>
