<svg width="60" height="61" viewBox="0 0 60 61" fill="none" xmlns="http://www.w3.org/2000/svg">
<path d="M57.5391 26.6518H51.5203C52.3453 26.0986 52.9477 25.2385 53.1621 24.2354H57.1301C57.518 24.2354 57.8332 23.9201 57.8332 23.5322V19.4904C57.8332 19.1025 57.518 18.7873 57.1301 18.7873H56.0297V13.2736C56.0297 10.0838 53.434 7.48809 50.2441 7.48809H46.5316V6.30566C46.5316 5.91777 46.2164 5.60254 45.8285 5.60254H28.323C27.9352 5.60254 27.6199 5.91777 27.6199 6.30566V23.5334C27.6199 23.9213 27.9352 24.2365 28.323 24.2365H32.291C32.5055 25.2397 33.1078 26.0998 33.9328 26.6529H26.0496V18.7943C26.0496 18.4064 25.7344 18.0912 25.3465 18.0912H21.675V10.2303C21.675 9.84238 21.3598 9.52715 20.9719 9.52715H12.2238C11.8359 9.52715 11.5207 9.84238 11.5207 10.2303V18.0889H7.85039C7.4625 18.0889 7.14727 18.4041 7.14727 18.792V26.6506H2.46094C2.07305 26.6506 1.75781 26.9658 1.75781 27.3537C1.75781 27.7416 2.07305 28.0568 2.46094 28.0568H57.5391C57.927 28.0568 58.2422 27.7416 58.2422 27.3537C58.2422 26.9658 57.927 26.6518 57.5391 26.6518ZM49.3652 25.9006C47.9988 25.9006 46.8879 24.7897 46.8879 23.4232C46.8879 22.0568 47.9988 20.9459 49.3652 20.9459C50.7316 20.9459 51.8426 22.0568 51.8426 23.4232C51.8426 24.7885 50.7316 25.9006 49.3652 25.9006ZM45.5273 22.8291H39.9281C39.7594 21.7334 39.1301 20.7865 38.2453 20.1936H47.2102C46.3242 20.7865 45.6961 21.7334 45.5273 22.8291ZM56.4281 22.8291H53.2031C53.0344 21.7334 52.4051 20.7865 51.5203 20.1936H56.427V22.8291H56.4281ZM54.6246 13.2736V13.74H49.7414V8.89434H50.2453C52.6605 8.89434 54.6246 10.8584 54.6246 13.2736ZM48.3352 8.89434V14.4432C48.3352 14.8311 48.6504 15.1463 49.0383 15.1463H54.6246V18.7885H46.5328V8.89434H48.3352ZM45.1266 7.00879V18.7885H29.0262V7.00879H45.1266ZM32.25 22.8291H29.0262V20.1936H33.9328C33.048 20.7865 32.4188 21.7334 32.25 22.8291ZM36.0891 20.9447C37.4555 20.9447 38.5664 22.0557 38.5664 23.4221C38.5664 24.7885 37.4555 25.8994 36.0891 25.8994C34.7227 25.8994 33.6117 24.7885 33.6117 23.4221C33.6117 22.0557 34.7227 20.9447 36.0891 20.9447ZM39.8859 24.2354H45.5672C45.7816 25.2385 46.384 26.0986 47.209 26.6518H38.243C39.0691 26.0986 39.6715 25.2385 39.8859 24.2354ZM24.6434 26.6518H17.3016V19.4963H18.6434V23.3061C18.6434 23.5803 18.8027 23.8299 19.0512 23.9447C19.1449 23.9881 19.2457 24.0092 19.3453 24.0092C19.5094 24.0092 19.6723 23.9518 19.8012 23.8416L20.9707 22.8443L22.1402 23.8416C22.2425 23.9288 22.3676 23.9848 22.5007 24.0031C22.6339 24.0213 22.7694 24.0011 22.8914 23.9447C23.0132 23.8883 23.1163 23.7981 23.1886 23.685C23.2609 23.5718 23.2992 23.4403 23.2992 23.3061V19.4963H24.641V26.6518H24.6434ZM20.0496 19.4951H21.8953V21.7826L21.4289 21.3854C21.3017 21.277 21.1401 21.2175 20.973 21.2175C20.806 21.2175 20.6444 21.277 20.5172 21.3854L20.0508 21.7826V19.4951H20.0496ZM15.675 10.9334H17.5207V13.2209L17.0543 12.8236C16.9271 12.7153 16.7655 12.6558 16.5984 12.6558C16.4314 12.6558 16.2698 12.7153 16.1426 12.8236L15.6762 13.2209V10.9334H15.675ZM12.927 10.9334H14.2688V14.7432C14.2688 15.0174 14.4281 15.267 14.6766 15.3818C14.7703 15.4252 14.8711 15.4463 14.9707 15.4463C15.1348 15.4463 15.2977 15.3889 15.4266 15.2787L16.5961 14.2814L17.7656 15.2787C17.8679 15.3659 17.993 15.4219 18.1261 15.4402C18.2592 15.4585 18.3948 15.4382 18.5168 15.3818C18.6386 15.3254 18.7417 15.2352 18.814 15.1221C18.8862 15.0089 18.9246 14.8774 18.9246 14.7432V10.9334H20.2664V18.0889H12.9234V10.9334H12.927ZM11.3016 19.4951H13.1473V21.7826L12.6809 21.3854C12.5537 21.277 12.3921 21.2175 12.225 21.2175C12.0579 21.2175 11.8963 21.277 11.7691 21.3854L11.3027 21.7826V19.4951H11.3016ZM8.55352 19.4951H9.89531V23.3049C9.89531 23.5791 10.0547 23.8287 10.3031 23.9436C10.5527 24.0584 10.8457 24.0186 11.0543 23.8404L12.2238 22.8432L13.3934 23.8404C13.4956 23.9272 13.6205 23.983 13.7533 24.0013C13.8862 24.0196 14.0215 23.9995 14.1434 23.9436C14.2652 23.8871 14.3683 23.797 14.4406 23.6838C14.5128 23.5706 14.5512 23.4392 14.5512 23.3049V19.4951H15.893V26.6506H8.55352V19.4951ZM44.0953 29.9049C43.9734 29.6166 43.7473 29.3939 43.4566 29.2756C43.166 29.1572 42.8473 29.1596 42.5602 29.2814L40.3008 30.2365C39.7055 30.4885 39.4266 31.1764 39.6773 31.7717L39.7301 31.8971C37.8316 32.5252 36.0645 32.1068 34.35 31.7002C32.6777 31.3041 31.098 30.9291 29.6566 31.6615C29.6344 31.6732 29.6121 31.6861 29.5898 31.7002C28.8891 32.1572 28.3055 32.6143 27.8027 33.0338C27.1875 32.7303 26.3953 32.8029 25.5691 32.8803C24.3422 32.9951 22.9688 33.1217 21.6141 32.2803L21.641 32.2346C21.975 31.6814 21.7969 30.9596 21.2437 30.6256L19.1438 29.3576C18.5906 29.0236 17.8688 29.2018 17.5348 29.7549L11.2277 40.1998C11.066 40.467 11.018 40.7822 11.093 41.0869C11.168 41.3916 11.3566 41.6471 11.6238 41.8088L13.7238 43.0768C13.9125 43.1904 14.1211 43.2455 14.3273 43.2455C14.7246 43.2455 15.1125 43.0439 15.3328 42.6795L15.7055 42.0619C16.8211 42.3279 17.5793 42.86 17.9109 43.2057L17.0531 44.1818C16.616 44.6799 16.398 45.3197 16.4414 45.9842C16.4848 46.6486 16.7824 47.2557 17.2793 47.6928C17.7317 48.0917 18.3144 48.3114 18.9176 48.3104C18.9727 48.3104 19.0277 48.3092 19.0828 48.3057C19.1133 48.3033 19.1437 48.2986 19.1742 48.2951C19.2199 48.9561 19.5164 49.5584 20.0109 49.9943C20.4633 50.3933 21.046 50.613 21.6492 50.6119C21.7043 50.6119 21.7594 50.6107 21.8145 50.6072C21.8285 50.6061 21.8414 50.6037 21.8543 50.6025C21.8555 50.6166 21.8543 50.6295 21.8555 50.6424C21.8988 51.3068 22.1965 51.9139 22.6934 52.351C23.1456 52.7501 23.7284 52.9698 24.3316 52.9686C24.3867 52.9686 24.4418 52.9674 24.4969 52.9639C24.5156 52.9627 24.5332 52.9592 24.552 52.958C24.5871 53.6025 24.8695 54.233 25.3922 54.6924C25.8645 55.1072 26.4492 55.31 27.0328 55.31C27.5566 55.31 28.0781 55.1459 28.5141 54.8225C28.9969 55.2104 29.5723 55.4002 30.1383 55.4002C30.8285 55.4002 31.5059 55.1178 31.9898 54.567C32.3027 54.2107 32.4926 53.7889 32.5688 53.3529C32.8078 53.4279 33.0586 53.4689 33.3152 53.4689C33.3703 53.4689 33.4254 53.4678 33.4805 53.4643C34.1449 53.4209 34.752 53.1232 35.1891 52.6264C35.4996 52.2725 35.6977 51.8459 35.7715 51.39C36.0023 51.458 36.2391 51.4932 36.477 51.4932C37.1684 51.4932 37.8563 51.2072 38.3473 50.6482C38.6906 50.258 38.8887 49.7881 38.9461 49.3076C39.116 49.3439 39.2883 49.3639 39.4605 49.3639C40.152 49.3639 40.8398 49.0779 41.3309 48.5189C42.0785 47.6682 42.1383 46.4459 41.5559 45.5354C42.6141 44.9318 42.9809 44.3447 43.2867 43.8537C43.5305 43.4635 43.7215 43.1588 44.359 42.8588L44.4234 43.0123C44.6121 43.4588 45.0469 43.7271 45.5039 43.7271C45.6562 43.7271 45.8098 43.6979 45.9586 43.6346L48.218 42.6795C48.8133 42.4275 49.0922 41.7396 48.8414 41.1443L44.0953 29.9049ZM14.2535 41.7525L12.5555 40.7271L18.6199 30.6842L20.3191 31.7096L14.2535 41.7525ZM18.9938 46.9018C18.7043 46.9217 18.4254 46.8268 18.2098 46.6369C17.9941 46.4471 17.8652 46.1834 17.8465 45.8939C17.8277 45.6045 17.9215 45.3256 18.1113 45.11L20.0074 42.9514C20.1011 42.8448 20.215 42.7578 20.3426 42.6954C20.4701 42.633 20.6087 42.5966 20.7504 42.5881C20.775 42.5869 20.7984 42.5857 20.823 42.5857C21.0867 42.5857 21.3375 42.6795 21.5344 42.8529C21.75 43.0428 21.8789 43.3064 21.8977 43.5959C21.9164 43.8854 21.8227 44.1643 21.6328 44.3799L19.7367 46.5385C19.548 46.7541 19.2844 46.883 18.9938 46.9018ZM21.7254 49.2021C21.4359 49.2221 21.157 49.1271 20.9414 48.9373C20.7258 48.7475 20.5969 48.4838 20.5781 48.1943C20.5594 47.9049 20.6531 47.6271 20.8418 47.4115L22.6898 45.308C22.7062 45.2893 22.7203 45.2682 22.7367 45.2494L22.7391 45.2518C22.9289 45.0361 23.1926 44.9072 23.482 44.8885C23.7715 44.8697 24.0504 44.9635 24.266 45.1533C24.4816 45.3432 24.6105 45.6068 24.6293 45.8963C24.648 46.1857 24.5543 46.4647 24.3645 46.6803L23.7762 47.3494V47.3506L22.4684 48.8389C22.375 48.9459 22.2612 49.0332 22.1336 49.0955C22.006 49.1579 21.8672 49.1942 21.7254 49.2021ZM24.4078 51.56C24.1195 51.5787 23.8395 51.485 23.6238 51.2951C23.4082 51.1053 23.2793 50.8416 23.2605 50.5521C23.2418 50.2627 23.3355 49.985 23.5254 49.7693L24.8332 48.2811C25.227 47.8322 25.9125 47.7889 26.3602 48.1826C26.5758 48.3725 26.7047 48.6361 26.7234 48.9256C26.7422 49.215 26.6484 49.4939 26.4586 49.7096L25.1508 51.1979C24.9607 51.412 24.6936 51.5422 24.4078 51.56ZM26.3215 53.6342C25.8738 53.2404 25.8293 52.5561 26.223 52.1072L26.3449 51.9689L26.4258 51.8775C26.5274 51.7621 26.6526 51.6696 26.7928 51.6063C26.9331 51.5431 27.0852 51.5105 27.2391 51.5107C27.4934 51.5107 27.7477 51.5998 27.9527 51.7791C28.1684 51.9689 28.2973 52.2326 28.316 52.5221C28.3348 52.8115 28.241 53.0904 28.0512 53.3061L27.8496 53.5357C27.4547 53.9834 26.7691 54.0279 26.3215 53.6342ZM40.2785 47.5885C39.8848 48.0361 39.1992 48.0807 38.7516 47.6869L33.7465 43.2889C33.4547 43.0322 33.0105 43.0615 32.7539 43.3533C32.4973 43.6451 32.5266 44.0893 32.8184 44.3459L37.1965 48.1932C37.6441 48.5869 37.6875 49.2713 37.2937 49.7189C36.9 50.1666 36.2145 50.2111 35.7668 49.8174L31.2504 45.8482C30.9586 45.5916 30.5145 45.6209 30.2578 45.9127C30.0012 46.2045 30.0305 46.6486 30.3223 46.9053L34.0383 50.1701C34.2539 50.36 34.3828 50.6236 34.4016 50.9131C34.4203 51.2025 34.3266 51.4814 34.1367 51.6971C33.743 52.1447 33.0586 52.1893 32.6098 51.7955L30.252 49.7236C29.9602 49.467 29.516 49.4963 29.2594 49.7881C29.0027 50.0799 29.032 50.524 29.3238 50.7807L30.8391 52.1119C31.2879 52.5057 31.3312 53.1912 30.9375 53.6389C30.5648 54.0631 29.9156 54.1088 29.4363 53.7537C29.6484 53.3518 29.7492 52.8982 29.7199 52.4318C29.6766 51.7674 29.3789 51.1604 28.882 50.7232C28.5819 50.4598 28.2224 50.2728 27.8344 50.1783C28.0559 49.7705 28.1602 49.3088 28.1297 48.833C28.0863 48.1686 27.7887 47.5615 27.2906 47.1244C26.9219 46.8001 26.465 46.5929 25.9781 46.5291C26.032 46.2959 26.052 46.0533 26.0355 45.8072C25.9922 45.1428 25.6945 44.5357 25.1977 44.0986C24.6996 43.6615 24.0609 43.4436 23.3953 43.4869C23.3648 43.4893 23.3344 43.4939 23.3039 43.4975C23.2582 42.8365 22.9617 42.2342 22.466 41.7982C21.968 41.3611 21.3281 41.1432 20.6637 41.1865C19.9992 41.2299 19.3922 41.5275 18.9551 42.0244L18.8449 42.1486C18.3129 41.6201 17.4832 41.1186 16.4684 40.8092L20.891 33.4838C22.0406 34.1951 23.1914 34.3697 24.218 34.3697C24.7523 34.3697 25.2527 34.3229 25.7027 34.2807C25.9488 34.2572 26.1984 34.235 26.4246 34.2244C26.3203 34.3111 26.2172 34.3943 26.1188 34.4705C24.1313 35.9787 24.3867 37.6744 24.593 39.0373C24.7477 40.065 24.8824 40.9533 24.2836 41.8838C24.1664 42.0654 24.1395 42.2916 24.2109 42.4967C24.2824 42.7018 24.4441 42.8611 24.6492 42.9303C25.6652 43.2736 26.8148 43.0346 27.8039 42.2729C28.9184 41.415 29.5875 40.0932 29.5066 38.9049C29.4785 38.4947 29.7152 37.8584 30.0621 37.6533C30.1324 37.6111 30.3176 37.5022 30.7125 37.7412L40.1813 46.0615C40.6277 46.4564 40.6723 47.1408 40.2785 47.5885ZM42.0973 43.1084C41.8148 43.5619 41.543 43.9932 40.5234 44.4924L31.5961 36.6479C31.5691 36.6244 31.541 36.6033 31.5117 36.5846C30.5086 35.94 29.7234 36.2201 29.3449 36.4439C28.4613 36.9666 28.0441 38.1514 28.1016 39.001C28.1496 39.71 27.6727 40.5982 26.9437 41.1596C26.618 41.4104 26.2734 41.5732 25.9383 41.6412C26.2535 40.6369 26.1105 39.6889 25.9805 38.8275C25.7848 37.5314 25.643 36.5951 26.966 35.5908C27.2824 35.3506 27.6094 35.0635 27.9562 34.76C28.602 34.1939 29.332 33.5541 30.3258 32.9014C31.3031 32.4256 32.5664 32.7244 34.0254 33.0713C35.7914 33.4896 37.9523 34.0018 40.2785 33.1979L43.8152 41.5639C42.7582 42.0502 42.4102 42.6068 42.0973 43.1084ZM45.6316 42.2482L41.0637 31.4424L42.8918 30.6701L47.4598 41.476L45.6316 42.2482Z" fill="#14B22B"/>
</svg>
