<svg width="60" height="60" viewBox="0 0 60 60" fill="none" xmlns="http://www.w3.org/2000/svg">
<path d="M9.82517 15.0432H18.4064C19.1363 9.7813 23.6789 5.81348 29.0045 5.81348H30.9959C36.3215 5.81348 40.8641 9.7813 41.594 15.0432H50.1752C55.2422 15.0432 59.3822 19.1832 59.3822 24.2509V44.978C59.3822 50.0456 55.2422 54.1857 50.1752 54.1857H9.82517C4.7582 54.1857 0.618164 50.0456 0.618164 44.978V24.2509C0.618164 19.1832 4.7582 15.0432 9.82517 15.0432ZM16.8495 39.9167L12.871 45.5739C11.7627 47.15 9.36382 45.462 10.4722 43.8866L14.4513 38.2279C13.1205 36.8453 12.302 34.9645 12.302 32.8938C12.302 28.6446 15.7468 25.1991 19.996 25.1991C24.2451 25.1991 27.69 28.6446 27.69 32.8938C27.69 37.1422 24.2451 40.5878 19.996 40.5878C18.8748 40.5878 17.8104 40.3475 16.8495 39.9167ZM19.996 28.1379C17.3696 28.1379 15.2401 30.2675 15.2401 32.8938C15.2401 35.5201 17.3696 37.6489 19.996 37.6489C22.6223 37.6489 24.7518 35.5201 24.7518 32.8938C24.7518 30.2675 22.6223 28.1379 19.996 28.1379ZM32.9015 46.9998C30.969 46.9998 30.969 44.0609 32.9015 44.0609H46.5129C48.4454 44.0609 48.4454 46.9998 46.5129 46.9998H32.9015ZM32.9015 38.3406C30.969 38.3406 30.969 35.4017 32.9015 35.4017H46.5129C48.4454 35.4017 48.4454 38.3406 46.5129 38.3406H32.9015ZM32.9015 42.6698C30.969 42.6698 30.969 39.7317 32.9015 39.7317H46.5129C48.4454 39.7317 48.4454 42.6698 46.5129 42.6698H32.9015ZM32.9015 34.0106C30.969 34.0106 30.969 31.0718 32.9015 31.0718H46.5129C48.4454 31.0718 48.4454 34.0106 46.5129 34.0106H32.9015ZM32.9015 25.8574C30.969 25.8574 30.969 22.9193 32.9015 22.9193H43.8178C45.751 22.9193 45.751 25.8574 43.8178 25.8574H32.9015ZM21.3849 15.0432H38.6155C37.9125 11.4176 34.7022 8.75232 30.9959 8.75232H29.0045C25.2982 8.75232 22.0879 11.4176 21.3849 15.0432ZM50.1752 17.9813C36.7247 17.9813 23.2757 17.9813 9.82517 17.9813C6.38104 17.9813 3.5563 20.806 3.5563 24.2509V44.978C3.5563 48.4228 6.38033 51.2468 9.82517 51.2468H50.1752C53.6194 51.2468 56.4441 48.4228 56.4441 44.978V24.2509C56.4441 20.806 53.6194 17.9813 50.1752 17.9813Z" fill="#FD6900"/>
</svg>
