<svg width="60" height="60" viewBox="0 0 60 60" fill="none" xmlns="http://www.w3.org/2000/svg">
<path d="M57.3112 36.6909L54.9666 36.1434C54.8427 35.5439 54.6843 34.9519 54.4922 34.3706L56.2387 32.7328C56.5312 32.4591 56.6175 32.0287 56.4525 31.6622C55.9381 30.5276 55.3122 29.447 54.5841 28.4363C54.4698 28.2774 54.3085 28.1583 54.1231 28.0957C53.9376 28.0332 53.7372 28.0303 53.55 28.0875L51.2775 28.7775C50.8678 28.3181 50.4319 27.8812 49.9706 27.4716L50.6625 25.2C50.7194 25.0129 50.7163 24.8128 50.6538 24.6275C50.5912 24.4423 50.4724 24.2812 50.3137 24.1669C49.8097 23.8033 49.2878 23.4651 48.75 23.1534V6.5625C48.75 3.97781 46.6472 1.875 44.0625 1.875H6.5625C3.97781 1.875 1.875 3.97781 1.875 6.5625V30.9375C1.875 33.5222 3.97781 35.625 6.5625 35.625H16.4747L13.4063 44.0625H8.4375C8.18886 44.0625 7.9504 44.1613 7.77459 44.3371C7.59877 44.5129 7.5 44.7514 7.5 45C7.5 47.5847 9.60281 49.6875 12.1875 49.6875H23.7609C23.8978 49.8947 24.0206 50.1112 24.1659 50.3128C24.2801 50.4718 24.4414 50.591 24.6269 50.6536C24.8124 50.7161 25.0128 50.7189 25.2 50.6616L27.4725 49.9716C27.8822 50.4309 28.3181 50.8678 28.7794 51.2775L28.0875 53.5491C28.0306 53.7361 28.0337 53.9363 28.0962 54.1215C28.1588 54.3068 28.2776 54.4679 28.4363 54.5822C29.4488 55.3125 30.5344 55.9416 31.6631 56.4516C31.8415 56.5326 32.0408 56.5556 32.2329 56.5172C32.425 56.4789 32.6002 56.3811 32.7338 56.2378L34.3706 54.4903C34.95 54.6825 35.5434 54.8409 36.1444 54.9647L36.6919 57.3103C36.7364 57.5011 36.8395 57.6731 36.9868 57.8023C37.1341 57.9314 37.3182 58.0111 37.5131 58.0303C38.145 58.0931 38.7722 58.125 39.375 58.125C39.9778 58.125 40.605 58.0931 41.2378 58.0313C41.4328 58.0121 41.6168 57.9323 41.7641 57.8032C41.9114 57.6741 42.0146 57.502 42.0591 57.3112L42.6066 54.9656C43.2065 54.8421 43.7988 54.6837 44.3803 54.4913L46.0172 56.2387C46.151 56.3817 46.3262 56.4792 46.5182 56.5175C46.7102 56.5559 46.9094 56.5331 47.0878 56.4525C48.2223 55.9381 49.3026 55.3119 50.3128 54.5831C50.4718 54.4689 50.591 54.3077 50.6537 54.1222C50.7164 53.9368 50.7195 53.7364 50.6625 53.5491L49.9716 51.2766C50.4319 50.8669 50.8687 50.43 51.2784 49.9706L53.5509 50.6616C53.9325 50.7788 54.3506 50.6381 54.585 50.3128C55.3132 49.3021 55.9391 48.2215 56.4534 47.0869C56.5342 46.9085 56.557 46.7092 56.5187 46.5172C56.4804 46.3252 56.3828 46.15 56.2397 46.0162L54.4931 44.3784C54.6853 43.7972 54.8437 43.2047 54.9675 42.6047L57.3122 42.0572C57.5028 42.0127 57.6747 41.9097 57.8039 41.7626C57.933 41.6155 58.0128 41.4317 58.0322 41.2369C58.0931 40.6069 58.125 39.9797 58.125 39.375C58.125 38.7703 58.0931 38.1431 58.0303 37.5113C58.0113 37.3165 57.9317 37.1326 57.8027 36.9855C57.6737 36.8383 57.5018 36.7353 57.3112 36.6909ZM6.5625 3.75H44.0625C45.6131 3.75 46.875 5.01187 46.875 6.5625V22.2384C46.7207 22.2076 46.5611 22.2163 46.4111 22.2638C46.2611 22.3114 46.1255 22.3962 46.0172 22.5103L44.3803 24.2578C43.7988 24.0652 43.2066 23.9068 42.6066 23.7834L42.0591 21.4378C42.0146 21.247 41.9114 21.075 41.7641 20.9459C41.6168 20.8167 41.4328 20.737 41.2378 20.7178C39.9988 20.5931 38.7503 20.5931 37.5113 20.7178C37.3163 20.737 37.1322 20.8167 36.985 20.9459C36.8377 21.075 36.7345 21.247 36.69 21.4378L36.1425 23.7834C35.5416 23.9072 34.9491 24.0656 34.3687 24.2578L32.7319 22.5103C32.5979 22.3676 32.4228 22.2703 32.2308 22.2319C32.0389 22.1936 31.8397 22.2162 31.6612 22.2966C30.5268 22.811 29.4465 23.4372 28.4363 24.1659C28.2773 24.2802 28.1581 24.4414 28.0954 24.6268C28.0327 24.8123 28.0296 25.0127 28.0866 25.2L28.4072 26.25H9.375V15H18.75V13.125H9.375V7.5H41.25V18.75H43.125V6.5625C43.125 6.31386 43.0262 6.0754 42.8504 5.89959C42.6746 5.72377 42.4361 5.625 42.1875 5.625H8.4375C8.18886 5.625 7.9504 5.72377 7.77459 5.89959C7.59877 6.0754 7.5 6.31386 7.5 6.5625V26.25H3.75V6.5625C3.75 5.01187 5.01187 3.75 6.5625 3.75ZM28.125 28.125C27.9075 28.3425 27.6759 28.5478 27.4716 28.7775L25.3237 28.125H28.125ZM3.75 30.9375V28.125H24.5709C24.4094 28.1887 24.269 28.2965 24.1659 28.4363C23.4377 29.447 22.8118 30.5276 22.2975 31.6622C22.2167 31.8406 22.1939 32.0398 22.2322 32.2319C22.2706 32.4239 22.3682 32.5991 22.5112 32.7328L23.5969 33.75H6.5625C5.01187 33.75 3.75 32.4881 3.75 30.9375ZM18.4688 35.625H23.9062C23.8641 35.7975 23.8191 35.9691 23.7834 36.1434L21.4388 36.6909C21.2481 36.7354 21.0762 36.8384 20.9471 36.9855C20.8179 37.1326 20.7381 37.3165 20.7188 37.5113C20.6569 38.1431 20.625 38.7703 20.625 39.375C20.625 39.9797 20.6569 40.6059 20.7197 41.2387C20.739 41.4335 20.8189 41.6174 20.948 41.7645C21.0771 41.9116 21.2491 42.0146 21.4397 42.0591L23.7844 42.6066C23.8856 43.0987 24.0262 43.5816 24.1734 44.0625H15.4012L18.4688 35.625ZM12.1875 47.8125C11.606 47.8118 11.0389 47.6312 10.5641 47.2955C10.0893 46.9598 9.72992 46.4855 9.53531 45.9375H22.5956L22.5103 46.0172C22.3675 46.1511 22.2701 46.3262 22.2317 46.5182C22.1934 46.7102 22.2161 46.9094 22.2966 47.0878C22.4081 47.3344 22.5469 47.5706 22.6697 47.8125H12.1875ZM56.2181 40.3894L53.9428 40.9209C53.7623 40.9631 53.5984 41.0579 53.4718 41.1932C53.3451 41.3285 53.2614 41.4984 53.2312 41.6812C53.0826 42.5805 52.8465 43.4632 52.5262 44.3166C52.4612 44.49 52.4491 44.6789 52.4913 44.8592C52.5335 45.0396 52.6282 45.2034 52.7634 45.33L54.4566 46.9172C54.1536 47.5214 53.8145 48.1068 53.4413 48.6703L51.2372 48C51.06 47.9456 50.8706 47.9451 50.6931 47.9987C50.5156 48.0523 50.3581 48.1575 50.2406 48.3009C49.6584 49.0088 49.0088 49.6584 48.3009 50.2406C48.1579 50.3584 48.053 50.5159 47.9994 50.6933C47.9459 50.8707 47.9461 51.0599 48 51.2372L48.6703 53.4413C48.1065 53.8142 47.5211 54.1536 46.9172 54.4575L45.3309 52.7634C45.2043 52.6283 45.0404 52.5337 44.86 52.4916C44.6797 52.4496 44.4909 52.4619 44.3175 52.5272C43.4691 52.8459 42.5822 53.0831 41.6812 53.2322C41.4984 53.2623 41.3285 53.346 41.1932 53.4727C41.0579 53.5993 40.9631 53.7633 40.9209 53.9438L40.3903 56.2191C39.7147 56.2613 39.0372 56.2613 38.3616 56.2191L37.8309 53.9438C37.789 53.7632 37.6943 53.5991 37.5589 53.4724C37.4236 53.3457 37.2536 53.2621 37.0706 53.2322C36.1712 53.0829 35.2883 52.8468 34.4344 52.5272C34.261 52.4621 34.0722 52.4497 33.8919 52.4918C33.7115 52.5338 33.5476 52.6284 33.4209 52.7634L31.8347 54.4575C31.23 54.1544 30.6443 53.8151 30.0806 53.4413L30.7519 51.2381C30.8054 51.0608 30.8054 50.8717 30.7519 50.6944C30.6984 50.5171 30.5937 50.3596 30.4509 50.2416C29.7431 49.6593 29.0935 49.0097 28.5113 48.3019C28.3935 48.1589 28.2359 48.0539 28.0586 48.0004C27.8812 47.9468 27.6919 47.947 27.5147 48.0009L25.3106 48.6703C24.9372 48.1067 24.5979 47.5213 24.2944 46.9172L25.9884 45.33C26.1237 45.2034 26.2184 45.0396 26.2606 44.8592C26.3028 44.6789 26.2906 44.49 26.2256 44.3166C25.9055 43.4628 25.6694 42.5799 25.5206 41.6803C25.4907 41.4973 25.4071 41.3274 25.2804 41.192C25.1537 41.0566 24.9897 40.962 24.8091 40.92L22.5337 40.3884C22.4889 39.7133 22.4883 39.0359 22.5319 38.3606L24.8072 37.8291C24.9877 37.7869 25.1516 37.6921 25.2782 37.5568C25.4049 37.4215 25.4886 37.2516 25.5187 37.0688C25.6669 36.1706 25.9041 35.2838 26.2238 34.4334C26.2891 34.2599 26.3015 34.071 26.2594 33.8904C26.2174 33.7099 26.1228 33.5458 25.9875 33.4191L24.2934 31.8319C24.5944 31.23 24.9356 30.6441 25.3088 30.0787L27.5128 30.7481C27.8756 30.8578 28.2694 30.7388 28.5094 30.4472C29.0918 29.7396 29.7414 29.09 30.4491 28.5075C30.5921 28.3897 30.697 28.2322 30.7506 28.0548C30.8041 27.8775 30.8039 27.6882 30.75 27.5109L30.0797 25.3069C30.6435 24.9339 31.2289 24.5945 31.8328 24.2906L33.4191 25.9847C33.5458 26.1198 33.7096 26.2143 33.89 26.2563C34.0704 26.2984 34.2591 26.2861 34.4325 26.2209C35.2809 25.9022 36.1678 25.665 37.0688 25.5159C37.2516 25.4858 37.4215 25.4021 37.5568 25.2754C37.6921 25.1488 37.7869 24.9849 37.8291 24.8044L38.3597 22.5291C39.0353 22.4869 39.7128 22.4869 40.3884 22.5291L40.9191 24.8044C40.961 24.985 41.0557 25.149 41.1911 25.2757C41.3264 25.4024 41.4964 25.486 41.6794 25.5159C42.5788 25.6652 43.4617 25.9013 44.3156 26.2209C44.6672 26.3541 45.0703 26.2603 45.3291 25.9847L46.9153 24.2906C47.5181 24.5925 48.105 24.9328 48.6694 25.3069L47.9981 27.51C47.8884 27.8728 48.0075 28.2656 48.2991 28.5066C49.0059 29.0878 49.6584 29.7403 50.2388 30.4463C50.3563 30.5896 50.5138 30.6947 50.6913 30.7483C50.8687 30.8019 51.0581 30.8015 51.2353 30.7472L53.4394 30.0778C53.8134 30.6431 54.1537 31.2291 54.4556 31.8309L52.7616 33.4181C52.6263 33.5447 52.5316 33.7085 52.4894 33.8889C52.4472 34.0693 52.4594 34.2581 52.5244 34.4316C52.8441 35.2838 53.0812 36.1706 53.2294 37.0678C53.2593 37.2508 53.3429 37.4207 53.4696 37.5561C53.5963 37.6915 53.7603 37.7862 53.9409 37.8281L56.2163 38.3597C56.2609 39.0355 56.2615 39.7135 56.2181 40.3894Z" fill="#2A3FCC"/>
<path d="M45.9375 39.375C45.9375 35.7563 42.9928 32.8125 39.375 32.8125C35.7572 32.8125 32.8125 35.7563 32.8125 39.375C32.8125 42.9938 35.7572 45.9375 39.375 45.9375C42.9928 45.9375 45.9375 42.9938 45.9375 39.375ZM39.375 44.0625C36.7903 44.0625 34.6875 41.9597 34.6875 39.375C34.6875 36.7903 36.7903 34.6875 39.375 34.6875C41.9597 34.6875 44.0625 36.7903 44.0625 39.375C44.0625 41.9597 41.9597 44.0625 39.375 44.0625ZM31.7766 33.8831L30.2588 32.7834C29.8641 33.3272 29.5172 33.9103 29.2266 34.5159L30.9169 35.3269C31.1597 34.8209 31.4474 34.3377 31.7766 33.8831ZM38.9259 30.0113L38.8378 28.1381C38.1656 28.17 37.4934 28.2619 36.84 28.4119L37.2609 30.2391C37.8081 30.114 38.3653 30.0378 38.9259 30.0113ZM46.3603 30.5559L45.1941 32.0241C45.6328 32.3719 46.0434 32.7619 46.4147 33.1828L47.8209 31.9434C47.3757 31.439 46.8869 30.9747 46.3603 30.5559ZM30.3412 41.8884L28.5338 42.3872C28.7109 43.0322 28.9509 43.6669 29.2453 44.2744L30.9337 43.4578C30.6893 42.9536 30.491 42.4284 30.3412 41.8884ZM34.9106 31.1288L34.0153 29.4806C33.4266 29.8003 32.8631 30.1763 32.3381 30.5963L33.5119 32.0588C33.9487 31.7081 34.4194 31.395 34.9106 31.1288ZM48.6009 41.0494L50.4469 41.3822C50.565 40.7259 50.625 40.0509 50.625 39.375V39.3347L48.75 39.375C48.75 39.9394 48.6994 40.5028 48.6009 41.0494ZM39.8053 48.7406L39.8897 50.6138C40.5626 50.5832 41.2315 50.4929 41.8884 50.3438L41.4713 48.5156C40.9266 48.6394 40.3669 48.7153 39.8053 48.7406ZM46.9631 44.8828L48.4791 45.9863C48.8737 45.4434 49.2225 44.8613 49.5141 44.2556L47.8256 43.4419C47.5811 43.9466 47.2925 44.4288 46.9631 44.8828ZM48.4041 36.8447L50.2116 36.3431C50.0307 35.6934 49.7907 35.0617 49.4944 34.4559L47.8097 35.2772C48.0553 35.7816 48.2559 36.3084 48.4041 36.8447ZM43.8234 47.6297L44.7131 49.2797C45.3057 48.96 45.8683 48.5876 46.3941 48.1669L45.2241 46.7025C44.7853 47.0522 44.3147 47.3644 43.8234 47.6297ZM34.9641 49.7278C35.5828 49.9922 36.2297 50.2003 36.885 50.3484L37.2966 48.5194C36.7498 48.3961 36.2154 48.2232 35.7 48.0028L34.9641 49.7278ZM32.3241 45.5531L30.9141 46.7888C31.3575 47.2941 31.8478 47.7619 32.3738 48.18L33.54 46.7128C33.1005 46.3638 32.6935 45.9756 32.3241 45.5531ZM43.7653 29.0138C43.1447 28.7503 42.5014 28.5438 41.8434 28.3969L41.4328 30.2259C41.9798 30.3483 42.5145 30.5203 43.0303 30.7397L43.7653 29.0138ZM30.1453 37.7194L28.2994 37.3903C28.183 38.0455 28.1246 38.7096 28.125 39.375V39.3956L30 39.375C30 38.8191 30.0497 38.2613 30.1453 37.7194ZM35.3503 10.5872L34.0247 11.9128L36.1744 14.0625H24.375C21.7903 14.0625 19.6875 16.1653 19.6875 18.75V24.375H21.5625V18.75C21.5625 17.1994 22.8244 15.9375 24.375 15.9375H36.1744L34.0247 18.0872L35.3503 19.4128L39.1003 15.6628C39.1874 15.5758 39.2566 15.4725 39.3037 15.3588C39.3509 15.245 39.3752 15.1231 39.3752 15C39.3752 14.8769 39.3509 14.755 39.3037 14.6412C39.2566 14.5275 39.1874 14.4242 39.1003 14.3372L35.3503 10.5872ZM11.25 9.375H13.125V11.25H11.25V9.375ZM15 9.375H16.875V11.25H15V9.375ZM18.75 9.375H20.625V11.25H18.75V9.375Z" fill="#2A3FCC"/>
</svg>
