<svg width="56" height="56" viewBox="0 0 56 56" fill="none" xmlns="http://www.w3.org/2000/svg">
<path d="M47.25 42C46.4398 42 45.682 42.1995 44.9977 42.5285L44.9873 42.5127L40.0995 37.625L44.9873 32.7373L44.9977 32.7215C45.682 33.0505 46.4398 33.25 47.25 33.25C50.1445 33.25 52.5 30.8945 52.5 28C52.4968 26.9177 52.1586 25.863 51.5319 24.9806C50.9053 24.0983 50.0208 23.4315 49 23.072V5.25C49 4.78587 48.8156 4.34075 48.4874 4.01256C48.1592 3.68437 47.7141 3.5 47.25 3.5H42C41.5359 3.5 41.0908 3.68437 40.7626 4.01256C40.4344 4.34075 40.25 4.78587 40.25 5.25V10.5H36.75C36.2859 10.5 35.8408 10.6844 35.5126 11.0126C35.1844 11.3408 35 11.7859 35 12.25V17.5H31.5C31.0359 17.5 30.5908 17.6844 30.2626 18.0126C29.9344 18.3408 29.75 18.7859 29.75 19.25V23.072C29.1896 22.8647 28.5975 22.7558 28 22.75C26.9177 22.7532 25.863 23.0914 24.9806 23.7181C24.0983 24.3447 23.4315 25.2292 23.072 26.25H13.678C13.4133 25.5078 12.9845 24.8348 12.4237 24.2813C11.8628 23.7277 11.1844 23.3078 10.4388 23.0528C10.4563 22.9513 10.5 22.8585 10.5 22.75V22.428C11.5208 22.0685 12.4053 21.4017 13.0319 20.5194C13.6586 19.637 13.9968 18.5823 14 17.5C14 14.6055 11.6445 12.25 8.75 12.25C8.40388 12.25 8.06554 12.1474 7.77775 11.9551C7.48997 11.7628 7.26566 11.4895 7.13321 11.1697C7.00076 10.8499 6.9661 10.4981 7.03363 10.1586C7.10115 9.81913 7.26782 9.50731 7.51256 9.26256C7.75731 9.01782 8.06913 8.85115 8.40859 8.78363C8.74806 8.7161 9.09993 8.75076 9.4197 8.88321C9.73947 9.01566 10.0128 9.23997 10.2051 9.52775C10.3974 9.81554 10.5 10.1539 10.5 10.5C10.5 10.9641 10.6844 11.4092 11.0126 11.7374C11.3408 12.0656 11.7859 12.25 12.25 12.25C12.7141 12.25 13.1592 12.0656 13.4874 11.7374C13.8156 11.4092 14 10.9641 14 10.5C13.9968 9.41774 13.6586 8.36301 13.0319 7.48064C12.4053 6.59828 11.5208 5.93155 10.5 5.572V5.25C10.5 4.78587 10.3156 4.34075 9.98744 4.01256C9.65925 3.68437 9.21413 3.5 8.75 3.5C8.28587 3.5 7.84075 3.68437 7.51256 4.01256C7.18437 4.34075 7 4.78587 7 5.25V5.572C5.9792 5.93155 5.09474 6.59828 4.46806 7.48064C3.84138 8.36301 3.50321 9.41774 3.5 10.5C3.5 13.3945 5.8555 15.75 8.75 15.75C9.09612 15.75 9.43446 15.8526 9.72225 16.0449C10.01 16.2372 10.2343 16.5105 10.3668 16.8303C10.4992 17.1501 10.5339 17.5019 10.4664 17.8414C10.3989 18.1809 10.2322 18.4927 9.98744 18.7374C9.74269 18.9822 9.43087 19.1489 9.09141 19.2164C8.75194 19.2839 8.40007 19.2492 8.0803 19.1168C7.76053 18.9843 7.48722 18.76 7.29493 18.4722C7.10264 18.1845 7 17.8461 7 17.5C7 17.0359 6.81563 16.5908 6.48744 16.2626C6.15925 15.9344 5.71413 15.75 5.25 15.75C4.78587 15.75 4.34075 15.9344 4.01256 16.2626C3.68437 16.5908 3.5 17.0359 3.5 17.5C3.5 19.7785 4.96825 21.7035 7 22.428V22.75C7 22.8585 7.042 22.9513 7.06125 23.0528C6.02577 23.4029 5.12572 24.0681 4.48713 24.9552C3.84853 25.8423 3.50338 26.9069 3.5 28C3.5 30.8945 5.8555 33.25 8.75 33.25C9.5585 33.25 10.318 33.0505 11.0023 32.7215L11.0128 32.7373L15.9005 37.625L11.0128 42.5127L11.0023 42.5285C10.3008 42.1851 9.53095 42.0045 8.75 42C5.8555 42 3.5 44.3555 3.5 47.25C3.5 50.1445 5.8555 52.5 8.75 52.5C9.83226 52.4968 10.887 52.1586 11.7694 51.5319C12.6517 50.9053 13.3185 50.0208 13.678 49H23.072C23.7965 51.0318 25.7215 52.5 28 52.5C30.2785 52.5 32.2035 51.0318 32.928 49H42.322C42.6815 50.0208 43.3483 50.9053 44.2306 51.5319C45.113 52.1586 46.1677 52.4968 47.25 52.5C50.1445 52.5 52.5 50.1445 52.5 47.25C52.5 44.3555 50.1445 42 47.25 42ZM42.5127 44.9873L42.5285 44.9977C42.451 45.1615 42.382 45.3291 42.322 45.5H32.928C32.868 45.3291 32.799 45.1615 32.7215 44.9977L32.7373 44.9873L37.625 40.0995L42.5127 44.9873ZM25.7478 42.5285L25.7372 42.5127L20.8495 37.625L25.7372 32.7373L25.7478 32.7215C26.432 33.0505 27.1898 33.25 28 33.25C28.8085 33.25 29.568 33.0505 30.2523 32.7215L30.2627 32.7373L35.1505 37.625L30.2627 42.5127L30.2523 42.5285C29.568 42.1995 28.8102 42 28 42C27.1898 42 26.432 42.1995 25.7478 42.5285ZM37.625 35.1505L32.7373 30.2627L32.7215 30.2523C32.8002 30.0895 32.8667 29.9215 32.928 29.75H42.322C42.3833 29.9215 42.4498 30.0895 42.5285 30.2523L42.5127 30.2627L37.625 35.1505ZM47.25 29.75C46.7856 29.7498 46.3404 29.5651 46.0122 29.2366C45.684 28.908 45.4998 28.4626 45.5 27.9982C45.5002 27.5339 45.6849 27.0886 46.0134 26.7605C46.342 26.4323 46.7874 26.248 47.2517 26.2482C47.7161 26.2485 48.1614 26.4332 48.4895 26.7617C48.8177 27.0902 49.002 27.5356 49.0017 28C49.0015 28.4644 48.8168 28.9096 48.4883 29.2378C48.1598 29.566 47.7144 29.7502 47.25 29.75ZM45.5 7V23.072C44.8539 23.3015 44.2593 23.6559 43.75 24.115V7H45.5ZM38.5 14H40.25V26.25H38.5V14ZM33.25 21H35V26.25H33.25V21ZM28 26.25C28.2299 26.2501 28.4576 26.2955 28.67 26.3836C28.8823 26.4717 29.0753 26.6008 29.2378 26.7634C29.4003 26.9261 29.5292 27.1192 29.6171 27.3317C29.7049 27.5441 29.7501 27.7718 29.75 28.0017C29.7499 28.2317 29.7045 28.4593 29.6164 28.6717C29.5283 28.8841 29.3992 29.077 29.2366 29.2395C29.0739 29.4021 28.8808 29.5309 28.6683 29.6188C28.4559 29.7067 28.2282 29.7519 27.9982 29.7517C27.5339 29.7515 27.0886 29.5668 26.7605 29.2383C26.4323 28.9098 26.248 28.4644 26.2482 28C26.2485 27.5356 26.4332 27.0904 26.7617 26.7622C27.0902 26.434 27.5356 26.2498 28 26.25ZM8.75 29.75C8.28564 29.7498 7.84039 29.5651 7.5122 29.2366C7.18401 28.908 6.99977 28.4626 7 27.9982C7.00023 27.5339 7.18492 27.0886 7.51344 26.7605C7.84195 26.4323 8.28739 26.248 8.75175 26.2482C9.21611 26.2485 9.66136 26.4332 9.98955 26.7617C10.3177 27.0902 10.502 27.5356 10.5017 28C10.5015 28.4644 10.3168 28.9096 9.98831 29.2378C9.6598 29.566 9.21436 29.7502 8.75 29.75ZM13.4872 30.2627L13.4715 30.2523C13.5502 30.0895 13.6167 29.9215 13.678 29.75H23.072C23.1333 29.9215 23.1998 30.0895 23.2785 30.2523L23.2628 30.2627L18.375 35.1505L13.4872 30.2627ZM18.375 40.0995L23.2628 44.9873L23.2785 44.9977C23.201 45.1615 23.132 45.3291 23.072 45.5H13.678C13.618 45.3291 13.549 45.1615 13.4715 44.9977L13.4872 44.9873L18.375 40.0995ZM8.75 49C8.28564 48.9998 7.84039 48.8151 7.5122 48.4866C7.18401 48.158 6.99977 47.7126 7 47.2483C7.00023 46.7839 7.18492 46.3386 7.51344 46.0105C7.84195 45.6823 8.28739 45.498 8.75175 45.4983C9.21611 45.4985 9.66136 45.6832 9.98955 46.0117C10.3177 46.3402 10.502 46.7856 10.5017 47.25C10.5015 47.7144 10.3168 48.1596 9.98831 48.4878C9.6598 48.816 9.21436 49.0002 8.75 49ZM28 49C27.5356 48.9998 27.0904 48.8151 26.7622 48.4866C26.434 48.158 26.2498 47.7126 26.25 47.2483C26.2502 46.7839 26.4349 46.3386 26.7634 46.0105C27.092 45.6823 27.5374 45.498 28.0017 45.4983C28.2317 45.4984 28.4593 45.5438 28.6717 45.6319C28.8841 45.72 29.077 45.849 29.2395 46.0117C29.4021 46.1744 29.5309 46.3674 29.6188 46.5799C29.7067 46.7924 29.7519 47.0201 29.7517 47.25C29.7516 47.4799 29.7062 47.7076 29.6181 47.92C29.53 48.1323 29.401 48.3253 29.2383 48.4878C29.0756 48.6503 28.8826 48.7792 28.6701 48.8671C28.4576 48.9549 28.2299 49.0001 28 49ZM47.25 49C46.7856 48.9998 46.3404 48.8151 46.0122 48.4866C45.684 48.158 45.4998 47.7126 45.5 47.2483C45.5002 46.7839 45.6849 46.3386 46.0134 46.0105C46.342 45.6823 46.7874 45.498 47.2517 45.4983C47.7161 45.4985 48.1614 45.6832 48.4895 46.0117C48.8177 46.3402 49.002 46.7856 49.0017 47.25C49.0015 47.7144 48.8168 48.1596 48.4883 48.4878C48.1598 48.816 47.7144 49.0002 47.25 49Z" fill="#14B22B"/>
<path d="M17.4996 15.75C17.7295 15.7502 17.9571 15.7051 18.1694 15.6171C18.3817 15.5291 18.5746 15.4 18.7369 15.2372L22.7496 11.2245L25.0124 13.4872C25.3406 13.8153 25.7856 13.9996 26.2496 13.9996C26.7137 13.9996 27.1587 13.8153 27.4869 13.4872L31.6221 9.35375C31.8671 10.0187 32.4971 10.5 33.2496 10.5C33.7138 10.5 34.1589 10.3156 34.4871 9.98744C34.8153 9.65925 34.9996 9.21413 34.9996 8.75V5.25C34.9996 4.78587 34.8153 4.34075 34.4871 4.01256C34.1589 3.68437 33.7138 3.5 33.2496 3.5H29.7496C29.2855 3.5 28.8404 3.68437 28.5122 4.01256C28.184 4.34075 27.9996 4.78587 27.9996 5.25C27.9996 6.0025 28.4791 6.6325 29.1459 6.8775L26.2496 9.7755L23.9869 7.51275C23.6587 7.18468 23.2137 7.00037 22.7496 7.00037C22.2856 7.00037 21.8406 7.18468 21.5124 7.51275L16.2624 12.7628C16.0177 13.0075 15.8511 13.3193 15.7836 13.6587C15.7161 13.9981 15.7508 14.3499 15.8832 14.6696C16.0156 14.9894 16.2399 15.2627 16.5276 15.455C16.8153 15.6473 17.1536 15.7499 17.4996 15.75Z" fill="#14B22B"/>
</svg>
