<svg width="56" height="56" viewBox="0 0 56 56" fill="none" xmlns="http://www.w3.org/2000/svg">
<path d="M53.3124 46.0321L45.5844 38.1921C44.8004 37.4081 43.5684 37.2961 42.5604 37.7441L39.3124 34.4961C45.2484 26.2081 44.4644 14.5601 37.0724 7.16806C33.1524 3.13606 27.7764 1.00806 22.1764 1.00806C16.5764 1.00806 11.2004 3.24806 7.28044 7.16806C-0.895562 15.4561 -0.895562 28.8961 7.28044 37.1841C11.3124 41.2161 16.5764 43.4561 22.1764 43.4561C24.4164 43.4561 26.6564 43.1201 28.6724 42.4481C30.8004 41.7761 32.7044 40.7681 34.4964 39.5361L37.7444 42.7841C37.1844 43.7921 37.4084 45.0241 38.1924 45.8081L45.9204 53.6481C46.9284 54.6561 48.2724 55.2161 49.6164 55.2161C51.0724 55.2161 52.3044 54.6561 53.3124 53.6481C55.4404 51.4081 55.4404 48.0481 53.3124 46.0321ZM5.82444 14.3361C6.16044 13.7761 6.38444 13.2161 6.72044 12.6561C6.83244 12.4321 7.16844 12.3201 7.50444 12.4321C7.72844 12.5441 7.84044 12.8801 7.72844 13.2161C7.39244 13.7761 7.16844 14.2241 6.83244 14.7841C6.72044 15.0081 6.49644 15.1201 6.27244 15.1201H6.04844C5.82444 15.0081 5.71244 14.6721 5.82444 14.3361ZM8.06444 32.7041C7.95244 32.8161 7.84044 32.8161 7.72844 32.8161C7.50444 32.8161 7.39244 32.7041 7.28044 32.5921C4.48044 28.4481 3.47244 23.4081 4.48044 18.4801C4.48044 18.1441 4.81644 17.9201 5.15244 18.0321C5.48844 18.0321 5.60044 18.3681 5.60044 18.7041C4.70444 23.2961 5.60044 28.1121 8.28844 31.9201C8.40044 32.1441 8.28844 32.4801 8.06444 32.7041ZM22.1764 37.4081C13.7764 37.4081 7.05644 30.5761 7.05644 22.1761C7.05644 13.7761 13.8884 6.94406 22.1764 6.94406C30.5764 6.94406 37.4084 13.7761 37.4084 22.1761C37.4084 30.5761 30.5764 37.4081 22.1764 37.4081ZM44.2404 42.3361C44.1284 42.4481 44.0164 42.5601 43.7924 42.5601C43.5684 42.5601 43.4564 42.5601 43.3444 42.3361L42.8964 41.8881C42.6724 41.6641 42.6724 41.3281 42.8964 41.1041C43.1204 40.8801 43.4564 40.8801 43.6804 41.1041L44.1284 41.5521C44.4644 41.7761 44.4644 42.1121 44.2404 42.3361ZM48.9444 47.1521C48.8324 47.2641 48.7204 47.3761 48.4964 47.3761C48.3844 47.3761 48.1604 47.2641 48.0484 47.1521L45.3604 44.4641C45.1364 44.2401 45.1364 43.9041 45.3604 43.6801C45.5844 43.4561 45.9204 43.4561 46.1444 43.6801L48.8324 46.3681C49.1684 46.5921 49.1684 46.9281 48.9444 47.1521Z" fill="#FFB800"/>
<path d="M15.6805 23.5201V28.7841C15.6805 29.1201 15.4565 29.3441 15.1205 29.3441H11.8725C11.5365 29.3441 11.3125 29.1201 11.3125 28.7841V23.5201C11.3125 23.1841 11.5365 22.9601 11.8725 22.9601H15.1205C15.3445 22.9601 15.6805 23.2961 15.6805 23.5201ZM20.8325 20.2721V28.7841C20.8325 29.1201 20.6085 29.3441 20.2725 29.3441H17.0245C16.6885 29.3441 16.4645 29.1201 16.4645 28.7841V20.2721C16.4645 19.9361 16.6885 19.7121 17.0245 19.7121H20.2725C20.6085 19.7121 20.8325 20.0481 20.8325 20.2721ZM25.9845 22.1761V28.7841C25.9845 29.1201 25.7605 29.3441 25.4245 29.3441H22.1765C21.8405 29.3441 21.6165 29.1201 21.6165 28.7841V22.1761C21.6165 21.8401 21.8405 21.6161 22.1765 21.6161H25.4245C25.7605 21.6161 25.9845 21.8401 25.9845 22.1761ZM31.2485 18.1441V28.7841C31.2485 29.1201 31.0245 29.3441 30.6885 29.3441H27.4405C27.1045 29.3441 26.8805 29.1201 26.8805 28.7841V18.1441C26.8805 17.8081 27.1045 17.5841 27.4405 17.5841H30.6885C30.9125 17.5841 31.2485 17.9201 31.2485 18.1441Z" fill="#FFB800"/>
<path d="M31.1378 14.336C31.1378 15.456 30.2418 16.464 29.0098 16.464C28.4498 16.464 28.0018 16.24 27.6658 15.904L25.8738 17.024C25.9858 17.248 25.9858 17.36 25.9858 17.584C25.9858 18.704 25.0898 19.712 23.8578 19.712C22.7378 19.712 21.8418 18.816 21.7298 17.696L20.4978 17.36C20.1618 18.032 19.4898 18.48 18.7058 18.48C18.1458 18.48 17.5858 18.256 17.2498 17.92L15.5698 18.928C15.5698 19.04 15.6818 19.264 15.6818 19.488C15.6818 20.608 14.7858 21.616 13.5538 21.616C12.3218 21.616 11.4258 20.72 11.4258 19.488C11.4258 18.368 12.3218 17.36 13.5538 17.36C14.1138 17.36 14.6738 17.584 15.0098 17.92L16.6898 16.912C16.6898 16.8 16.5778 16.576 16.5778 16.352C16.5778 15.232 17.4738 14.224 18.7058 14.224C19.8258 14.224 20.7218 15.12 20.8338 16.24L22.1778 16.576C22.5138 15.904 23.1858 15.456 23.9698 15.456C24.5298 15.456 24.9778 15.68 25.3138 16.016L27.1058 14.896C26.8818 14.672 26.8818 14.448 26.8818 14.336C26.8818 13.216 27.7778 12.208 29.0098 12.208C30.1298 12.208 31.1378 13.104 31.1378 14.336Z" fill="#FFB800"/>
</svg>
