<svg width="75" height="48" viewBox="0 0 75 48" fill="none" xmlns="http://www.w3.org/2000/svg">
<path d="M62.6842 0.728213C62.772 0.805105 62.8336 0.879805 62.8953 0.977498C62.9939 1.11755 63.1039 1.15109 63.2643 1.19868C64.0633 1.46553 64.8009 1.87 65.4339 2.42481C65.4502 2.43901 65.4665 2.45321 65.4833 2.46784C66.5789 3.4265 67.2544 4.77333 67.3773 6.22185C67.3888 6.42781 67.3888 6.63391 67.3878 6.84012C67.3877 6.86805 67.3876 6.89597 67.3875 6.92474C67.3855 7.36483 67.3604 7.78739 67.2768 8.22029C67.265 8.28468 67.2532 8.34907 67.2415 8.41346C67.1617 8.84613 67.0749 9.27642 66.9587 9.70104C66.9517 9.72664 66.9448 9.75224 66.9375 9.77862C66.9038 9.90133 66.8691 10.0237 66.8331 10.1458C66.7297 10.4958 66.7297 10.4958 66.7742 10.8516C66.8556 10.95 66.9149 10.9706 67.0422 10.9848C67.6932 10.9969 68.3373 10.7907 68.9576 10.6175C69.3059 10.5208 69.6546 10.4383 70.0098 10.3707C70.0505 10.3629 70.0913 10.3551 70.1333 10.347C70.6137 10.2586 71.0805 10.2069 71.5685 10.2082C71.6473 10.2083 71.7261 10.2075 71.8048 10.2067C72.68 10.2031 73.5384 10.428 74.1794 11.0514C74.7611 11.7165 74.8369 12.4693 74.7825 13.3163C74.7069 14.0856 74.3759 14.8229 74.0561 15.5178C74.0154 15.6068 73.9757 15.6961 73.9366 15.7858C73.6277 16.4897 73.255 17.1575 72.8619 17.8178C71.3955 20.2908 70.2038 22.9093 68.9187 29.537C68.9156 29.5762 68.9125 29.6153 68.9093 29.6557C68.8776 30.1003 68.8747 30.5457 68.8692 30.9913C68.8543 32.1561 68.6888 33.1208 67.8199 33.9761C67.0846 34.6705 66.0798 34.9643 65.0988 35.0994C65.0742 35.1029 65.0496 35.1064 65.0243 35.11C64.7516 35.1431 64.4765 35.1389 64.2022 35.1388C64.1149 35.1389 64.0277 35.1395 63.9404 35.1401C63.5446 35.1415 63.1796 35.1135 62.8014 34.989C62.4023 34.8665 61.9927 34.7966 61.5805 34.733C61.5444 34.7274 61.5083 34.7218 61.4712 34.716C60.2167 34.533 58.882 34.5724 57.6266 34.733C57.5687 34.7399 57.5687 34.7399 57.5097 34.747C54.2218 35.146 51.0725 36.3822 43.9722 39.1948C43.8904 39.2287 43.8086 39.2625 43.7267 39.2962C43.0095 39.5922 42.2934 39.8911 41.5779 40.1911C41.4341 40.2514 41.2903 40.3117 41.1465 40.3719C40.234 40.7541 39.3229 41.1392 38.412 41.5252C36.8554 42.1848 35.297 42.8402 33.7342 43.4852C33.6366 43.5255 33.5389 43.5659 33.4413 43.6063C32.4372 44.0214 31.4295 44.4272 30.4184 44.8251C30.3727 44.8431 30.3727 44.8431 30.3261 44.8614C28.9933 45.3856 27.6543 45.899 26.2969 46.3573C26.2732 46.3653 26.2494 46.3733 26.2249 46.3816C24.2109 47.0609 22.139 47.5878 20.0268 47.8519C19.988 47.8568 19.988 47.8568 19.9485 47.8618C19.1495 47.9609 18.3538 48.0021 17.5488 47.9999C17.479 47.9997 17.4093 47.9996 17.3396 47.9995C16.6686 47.9983 16.005 47.9874 15.3399 47.8894C15.2997 47.8837 15.2596 47.878 15.2182 47.8721C13.177 47.5739 11.1556 46.8339 9.61914 45.4275C9.54887 45.3633 9.4773 45.3012 9.40488 45.2394C9.17574 45.0405 8.96761 44.8237 8.77242 44.592C8.7443 44.559 8.71618 44.5261 8.68721 44.4922C7.15827 42.6682 6.42002 40.3345 6.41851 37.9784C6.41849 37.9466 6.41846 37.9149 6.41844 37.8822C6.41903 37.3592 6.44178 36.8487 6.52741 36.3317C6.53316 36.2969 6.53891 36.262 6.54483 36.2261C6.68773 35.3916 6.9187 34.5294 7.3651 33.8004C7.3651 33.7784 7.3651 33.7564 7.3651 33.7338C6.35503 33.4099 5.02626 33.9867 4.1358 34.4374C4.11452 34.4482 4.09325 34.4591 4.07133 34.4702C3.27218 34.8775 2.3968 35.1694 1.50126 34.8995C0.92949 34.6892 0.513003 34.3028 0.253099 33.7525C-0.106056 32.8453 -0.0318157 31.8066 0.160953 30.8693C0.165422 30.8474 0.169894 30.8255 0.1745 30.8029C0.561687 28.909 1.18226 27.0987 1.88754 25.301C2.98167 22.5115 3.82809 19.7376 4.24051 15.6541C4.24249 15.6272 4.24448 15.6003 4.24652 15.5726C4.29726 14.8716 4.3205 14.1715 4.32258 13.4687C4.32298 13.3441 4.32363 13.2195 4.32436 13.0949C4.32639 12.7413 4.32824 12.3877 4.32935 12.0341C4.33004 11.8162 4.33124 11.5983 4.33273 11.3804C4.3332 11.2981 4.33349 11.2159 4.3336 11.1337C4.33483 10.2838 4.4202 9.51676 5.03318 8.86784C5.26138 8.65432 5.52262 8.49771 5.80215 8.36107C5.82527 8.34968 5.8484 8.33829 5.87222 8.32656C6.13585 8.19751 6.40257 8.07525 6.66982 7.95384C6.69635 7.94174 6.72289 7.92965 6.75023 7.91719C7.1898 7.71692 7.63108 7.52067 8.07328 7.32625C8.43045 7.16913 8.78646 7.00959 9.14208 6.84906C9.69149 6.60107 10.2426 6.35722 10.7954 6.1169C11.1958 5.94279 11.5955 5.76703 11.9948 5.59028C12.2145 5.49306 12.4343 5.39603 12.654 5.29897C12.7639 5.25047 12.8737 5.20192 12.9834 5.15331C13.5725 4.89266 14.1635 4.64118 14.7703 4.42325C14.8238 4.40402 14.8238 4.40402 14.8784 4.3844C15.9271 4.01206 17.036 3.72134 18.1546 3.69049C18.2088 3.68849 18.2088 3.68849 18.2641 3.68646C19.358 3.66494 20.4833 3.91924 21.2963 4.68373C21.3334 4.71966 21.3334 4.71966 21.3713 4.75633C21.395 4.77822 21.4187 4.80012 21.4432 4.82268C22.1484 5.49024 22.4806 6.54101 22.5142 7.48962C22.5163 7.60136 22.5169 7.71301 22.5168 7.82477C22.5169 7.86413 22.5169 7.9035 22.5169 7.94405C22.5151 8.24077 22.494 8.52734 22.4435 8.81983C22.487 8.82472 22.5305 8.82962 22.5754 8.83466C24.4924 9.06417 26.4373 9.91401 27.6603 11.4469C28.3074 12.2764 28.3074 12.2764 28.3074 12.5169C30.642 11.7298 32.9013 10.7637 35.1417 9.74446C35.2803 9.6814 35.419 9.61856 35.5578 9.55588C36.1368 9.29443 36.7135 9.02866 37.2881 8.7579C37.586 8.61753 37.8845 8.47847 38.1838 8.34103C38.7056 8.10113 39.2245 7.85509 39.7436 7.60948C40.043 7.46785 40.3427 7.32673 40.6424 7.18568C40.6951 7.1609 40.7477 7.13611 40.8004 7.11132C40.8793 7.07416 40.9583 7.03701 41.0372 6.99986C41.2241 6.91193 41.4108 6.82393 41.5976 6.7359C41.889 6.5986 42.1804 6.46143 42.4719 6.32435C42.5469 6.28907 42.6219 6.25376 42.6968 6.21845C43.2339 5.96563 43.7722 5.71584 44.3137 5.47255C44.6293 5.33074 44.9436 5.18634 45.2568 5.03929C45.7834 4.79213 46.3142 4.55527 46.8471 4.3219C47.0151 4.2483 47.1829 4.1742 47.3506 4.09981C49.8474 2.99362 52.4011 1.94951 56.4748 0.963446C56.5013 0.958578 56.5278 0.95371 56.5552 0.948694C56.8202 0.900667 57.0843 0.857906 57.3524 0.830737C57.9725 0.767666 58.494 0.596515 59.0687 0.369777C59.3633 0.254426 59.6645 0.167096 59.9721 0.0932907C60.0066 0.0845749 60.0411 0.075859 60.0767 0.066879C61.0164 -0.130531 61.9595 0.114705 62.6842 0.728213Z" fill="#666666"/>
<path d="M62.5515 1.7251C62.8312 1.76177 63.0657 1.84414 63.3222 1.95825C63.3636 1.97537 63.4052 1.99236 63.4468 2.00925C64.111 2.28232 64.6764 2.66801 65.1986 3.15732C65.2229 3.1793 65.2471 3.20128 65.2721 3.22393C66.0974 4.00014 66.6268 5.19094 66.6788 6.31667C66.6797 6.36321 66.6804 6.40976 66.6809 6.45631C66.6814 6.49433 66.6814 6.49433 66.6819 6.53313C66.6827 6.61525 66.6831 6.69737 66.6834 6.77949C66.6836 6.82153 66.6836 6.82153 66.6837 6.86442C66.6844 7.43618 66.6348 7.99525 66.4888 8.55033C66.4686 8.63305 66.4527 8.71613 66.4369 8.7998C66.3687 9.16139 66.2897 9.50997 66.1766 9.86043C66.0438 10.284 65.9516 10.8066 66.1635 11.2219C66.3112 11.4507 66.4577 11.5717 66.7284 11.6365C67.5165 11.7794 68.3277 11.5233 69.0766 11.3078C69.4232 11.2084 69.771 11.1243 70.1242 11.0512C70.1599 11.0436 70.1955 11.0361 70.2323 11.0283C71.2022 10.832 72.4334 10.7333 73.3154 11.2553C73.6788 11.5 73.9381 11.8188 74.056 12.245C74.2838 13.44 73.7276 14.5619 73.2404 15.6143C73.2251 15.6476 73.2098 15.6808 73.1941 15.7151C72.8993 16.3541 72.5535 16.9628 72.1932 17.5673C71.1041 19.3969 70.1825 21.301 69.4876 23.3125C69.4788 23.3378 69.47 23.3631 69.461 23.3892C69.3276 23.7759 69.2089 24.1636 69.1071 24.5597C69.0858 24.6394 69.0625 24.7182 69.0383 24.7971C68.8743 25.3345 68.7616 25.8829 68.6462 26.4322C68.628 26.5186 68.6091 26.6046 68.5896 26.6907C68.5145 27.023 68.4634 27.3575 68.4153 27.6945C68.411 27.7247 68.4066 27.7549 68.4021 27.786C68.319 28.366 68.2612 28.9464 68.2198 29.5307C68.2155 29.5873 68.2108 29.6438 68.2059 29.7003C68.1845 29.9538 68.1759 30.2051 68.1749 30.4595C68.1741 30.539 68.1733 30.6185 68.1725 30.698C68.1713 30.8209 68.1703 30.9438 68.1698 31.0667C68.1659 31.9794 68.0389 32.7284 67.3931 33.419C66.7721 34.0237 65.9315 34.2565 65.0981 34.3996C65.0551 34.4086 65.0551 34.4086 65.0112 34.4177C64.8515 34.439 64.6939 34.437 64.5329 34.4362C64.4982 34.4362 64.4635 34.4361 64.4278 34.4361C64.3175 34.4359 64.2073 34.4355 64.097 34.435C64.0221 34.4349 63.9471 34.4347 63.8721 34.4346C63.6888 34.4342 63.5055 34.4337 63.3222 34.433C63.3058 34.4034 63.3058 34.4034 63.289 34.3732C63.227 34.2618 63.1651 34.1506 63.0991 34.0414C63.0523 33.9637 63.0111 33.8848 62.9705 33.8039C62.5224 32.9228 61.9509 32.0699 61.1777 31.4353C61.1489 31.4105 61.1202 31.3857 61.0906 31.3601C60.2043 30.6036 59.1498 30.0815 58.0279 29.7699C57.9959 29.761 57.9639 29.7521 57.9309 29.7429C57.0178 29.4942 56.0686 29.3958 55.1232 29.3973C55.0995 29.3973 55.0757 29.3973 55.0512 29.3974C51.936 29.4044 48.8772 30.3856 38.5553 34.3274C38.3956 34.3923 38.2359 34.4572 38.0762 34.5221C37.5245 34.7463 36.9729 34.9708 36.4216 35.1958C35.899 35.409 35.3762 35.6217 34.8532 35.8339C34.8214 35.8469 34.7896 35.8598 34.7569 35.8731C33.7079 36.2989 32.6574 36.721 31.6052 37.1388C31.4717 37.1918 31.3382 37.2448 31.2047 37.2978C31.0472 37.3604 30.8897 37.423 30.7321 37.4856C30.4915 37.5812 30.2509 37.6768 30.0103 37.7726C29.5011 37.9754 28.9913 38.1768 28.4805 38.3757C28.4452 38.3895 28.4099 38.4032 28.3736 38.4173C23.8404 40.1827 23.8404 40.1827 22.0407 40.6614C22.0179 40.6675 21.995 40.6736 21.9715 40.6799C20.217 41.1477 18.4294 41.3961 16.6125 41.3609C16.5798 41.3606 16.5471 41.3602 16.5135 41.3599C15.1279 41.3447 13.6981 40.9991 12.4575 40.395C12.4207 40.3772 12.4207 40.3772 12.3831 40.359C10.6324 39.5016 9.21312 37.9467 8.56226 36.1129C8.53868 36.0434 8.51578 35.9738 8.49338 35.9039C8.46908 35.8287 8.44355 35.7539 8.41802 35.6791C8.22343 35.0919 8.11766 34.4717 8.11837 33.8527C8.11468 33.6103 8.04121 33.3959 7.86488 33.2235C7.45331 32.9061 6.87208 32.9327 6.38216 32.9924C6.29617 33.0055 6.21031 33.0194 6.12457 33.034C6.10169 33.0378 6.0788 33.0416 6.05522 33.0454C5.21968 33.1867 4.44722 33.5104 3.68946 33.8767C3.05009 34.1857 2.41434 34.4384 1.69319 34.2344C1.54355 34.1782 1.42303 34.1 1.29947 34C1.27848 33.9832 1.25749 33.9665 1.23586 33.9492C0.920782 33.6688 0.76406 33.2112 0.729841 32.8009C0.688336 32.0433 0.765055 31.3409 0.930887 30.6026C0.939294 30.5648 0.9477 30.5271 0.956361 30.4881C1.00279 30.2826 1.0527 30.078 1.10522 29.8739C1.13381 29.7626 1.16173 29.6512 1.18966 29.5398C1.27937 29.1852 1.37133 28.8331 1.49311 28.4879C1.54904 28.3285 1.59846 28.1682 1.64476 28.0058C1.73001 27.7129 1.83069 27.4269 1.93612 27.1407C1.95521 27.0886 1.97429 27.0364 1.99338 26.9842C2.22647 26.3489 2.4684 25.7169 2.71988 25.0885C2.91426 24.6028 3.10172 24.117 3.27014 23.6216C3.33514 23.4306 3.40397 23.2411 3.47335 23.0517C3.61694 22.6587 3.74513 22.2658 3.8553 21.8625C3.88035 21.7733 3.90711 21.6849 3.9344 21.5963C4.20411 20.7176 4.39377 19.8167 4.54971 18.9117C4.55515 18.8805 4.56059 18.8493 4.56619 18.8172C4.65179 18.3177 4.71865 17.8153 4.78427 17.313C4.78912 17.2759 4.78912 17.2759 4.79406 17.2382C4.9714 15.872 5.01805 14.4966 5.0289 13.1205C5.02923 13.0796 5.02956 13.0387 5.0299 12.9966C5.03316 12.5798 5.03565 12.1631 5.03643 11.7463C5.0368 11.588 5.03753 11.4297 5.03831 11.2714C5.03858 11.1971 5.03866 11.1228 5.03855 11.0485C5.03763 10.4189 5.06426 9.85067 5.52847 9.37178C5.85321 9.07339 6.26567 8.89469 6.66489 8.71757C6.71947 8.69302 6.77404 8.66845 6.8286 8.64385C6.99577 8.56864 7.16327 8.49417 7.33085 8.41988C7.35636 8.40856 7.38187 8.39724 7.40815 8.38558C7.62945 8.2874 7.85089 8.18949 8.07253 8.09205C8.42972 7.93496 8.78574 7.77539 9.14138 7.61485C9.66644 7.37785 10.1929 7.14455 10.7213 6.915C11.117 6.74309 11.5115 6.56897 11.905 6.39227C17.6043 3.83313 17.6043 3.83313 19.9632 4.65615C20.25 4.76841 20.5006 4.92247 20.7339 5.12245C20.7678 5.14899 20.7678 5.14899 20.8024 5.17606C21.3943 5.65409 21.7183 6.48755 21.7987 7.22309C21.8145 7.43025 21.8161 7.63769 21.8166 7.84533C21.8168 7.88831 21.817 7.93129 21.8172 7.97557C21.8153 8.22557 21.7942 8.46492 21.755 8.71178C21.7328 8.8627 21.7242 9.01286 21.7182 9.16514C21.7169 9.19322 21.7156 9.2213 21.7143 9.25023C21.7112 9.31761 21.7084 9.38501 21.7056 9.45241C21.7499 9.4634 21.7941 9.4744 21.8397 9.48572C21.7952 9.48645 21.7952 9.48645 21.7499 9.48719C20.4545 9.51082 19.2451 9.68938 18.0533 10.2185C18.0018 10.2406 17.9502 10.2627 17.8987 10.2848C17.1446 10.616 16.4405 11.0885 15.8418 11.6507C15.798 11.6883 15.754 11.7258 15.7099 11.7631C15.4112 12.0229 15.1478 12.3061 14.9036 12.6166C14.8698 12.6585 14.836 12.7003 14.8021 12.7422C13.8702 13.9091 13.327 15.2837 13.0942 16.7467C13.0882 16.7813 13.0882 16.7813 13.0821 16.8166C12.8953 17.9128 13.045 19.081 13.3287 20.1441C13.3354 20.1691 13.342 20.1942 13.3488 20.22C13.6863 21.4595 14.3489 22.5404 15.1381 23.5414C15.1714 23.5841 15.2046 23.6267 15.2377 23.6693C15.4602 23.9544 15.6913 24.2323 15.9228 24.5102C16.0647 24.6808 16.2053 24.8526 16.3462 25.0241C16.4789 25.1854 16.6118 25.3465 16.7452 25.5072C17.4689 26.3796 17.4689 26.3796 17.7759 26.7828C17.8211 26.8419 17.8667 26.9008 17.9123 26.9596C18.8049 28.1175 19.686 29.4187 19.4841 30.9451C19.4583 31.0712 19.4138 31.1854 19.3601 31.3021C19.3388 31.3529 19.3388 31.3529 19.317 31.4047C19.1167 31.8456 18.7689 32.1801 18.3214 32.3679C18.0877 32.4536 17.8725 32.4862 17.624 32.4845C17.5918 32.4843 17.5596 32.4841 17.5264 32.4839C17.1273 32.474 16.8016 32.3491 16.5119 32.0681C16.2484 31.7769 16.2175 31.486 16.2373 31.1069C16.2805 30.6372 16.553 30.2538 16.847 29.9032C17.2656 29.3988 17.5365 28.8759 17.4837 28.2045C17.422 27.7343 17.2002 27.3239 16.847 27.0054C16.1765 26.4933 15.3493 26.4335 14.5339 26.5161C13.9132 26.6 13.3407 26.8097 12.7926 27.1053C12.762 27.1214 12.762 27.1214 12.7308 27.1379C12.2909 27.3702 11.9142 27.6647 11.5528 28.0046C11.5253 28.0302 11.4978 28.0558 11.4694 28.0822C10.6133 28.9028 10.0849 30.0486 9.87743 31.2021C9.87144 31.2345 9.86545 31.2668 9.85928 31.3001C9.80117 31.6504 9.79854 31.997 9.79995 32.3512C9.80002 32.3977 9.80002 32.3977 9.8001 32.4451C9.80143 32.9036 9.81831 33.3496 9.91094 33.8001C9.91767 33.8362 9.91767 33.8362 9.92454 33.873C10.0386 34.4797 10.2828 35.0595 10.5811 35.5987C10.5985 35.6302 10.5985 35.6302 10.6163 35.6624C10.8883 36.1478 11.2357 36.5631 11.6198 36.9643C11.6417 36.9878 11.6635 37.0113 11.6861 37.0355C12.9752 38.3796 15.0087 39.0511 16.836 39.1055C19.5605 39.152 22.1873 38.1515 24.1517 36.2649C24.4714 35.9571 24.7862 35.6514 25.0564 35.2989C25.0822 35.2668 25.108 35.2347 25.1345 35.2016C25.8028 34.3656 26.3082 33.4271 26.6983 32.4345C26.7994 32.4823 26.8583 32.5224 26.9286 32.6094C27.6757 33.4799 28.6576 34.0759 29.781 34.333C29.8034 34.3385 29.8258 34.3439 29.8488 34.3496C31.3114 34.696 32.9067 34.2525 34.1643 33.5022C34.4114 33.3495 34.6466 33.1809 34.8741 33.0007C34.9073 32.9746 34.9404 32.9485 34.9745 32.9216C35.4448 32.5427 35.8812 32.1113 36.2392 31.6255C36.2829 31.5666 36.3277 31.5088 36.3727 31.4509C36.8445 30.838 37.1889 30.1461 37.4877 29.4368C37.5319 29.3367 37.5768 29.2369 37.6218 29.1371C37.7425 29.1872 37.812 29.2567 37.9003 29.3515C38.4925 29.9497 39.2849 30.3442 40.1013 30.536C40.1225 30.541 40.1437 30.546 40.1655 30.5512C41.392 30.8282 42.7043 30.6127 43.8207 30.0697C43.8568 30.0522 43.8568 30.0522 43.8936 30.0344C44.8917 29.5456 45.7872 28.7776 46.4678 27.9047C46.5044 27.8598 46.5044 27.8598 46.5418 27.8139C47.1412 27.0649 47.6244 26.2332 48.0427 25.3733C48.1418 25.4693 48.2318 25.5638 48.3128 25.6752C48.8243 26.3334 49.5447 26.7708 50.3547 26.9721C50.3905 26.982 50.4262 26.9919 50.4631 27.0022C51.5524 27.2587 52.876 27.0646 53.8373 26.5037C53.9811 26.4134 54.1144 26.3183 54.2416 26.206C54.262 26.1884 54.2825 26.1707 54.3036 26.1526C54.6607 25.8235 54.8795 25.352 54.9204 24.8723C54.932 24.537 54.8603 24.231 54.7777 23.9078C54.8028 23.9267 54.8028 23.9267 54.8285 23.946C54.8734 23.9797 54.9185 24.0131 54.9637 24.0465C55.0185 24.0874 55.0729 24.1288 55.1268 24.1709C55.3036 24.3054 55.484 24.4165 55.6824 24.5157C55.714 24.5315 55.714 24.5315 55.7461 24.5477C56.8417 25.078 58.1373 25.0693 59.2761 24.6801C60.0021 24.4187 60.5809 24.03 60.918 23.3229C61.1141 22.8979 61.1153 22.3127 60.9562 21.8788C60.817 21.5722 60.6475 21.3097 60.4303 21.0515C60.2053 20.7557 60.2314 20.3715 60.2311 20.0192C60.231 19.9836 60.231 19.9836 60.231 19.9473C60.2317 19.4854 60.2726 19.0358 60.34 18.5786C60.3457 18.5385 60.3515 18.4983 60.3574 18.457C60.439 17.8902 60.5329 17.3255 60.6289 16.761C60.7266 16.1846 60.8165 15.6071 60.9054 15.0293C60.9126 14.9829 60.9197 14.9365 60.9268 14.8901C60.9322 14.8555 60.9322 14.8555 60.9376 14.8203C60.9555 14.7037 60.9735 14.5872 60.9914 14.4706C60.9967 14.436 60.9967 14.436 61.0022 14.4006C61.0541 14.0635 61.1066 13.7266 61.1597 13.3897C61.1663 13.3478 61.1729 13.3059 61.1798 13.2628C61.2117 13.0605 61.244 12.8584 61.2768 12.6563C61.289 12.5807 61.3013 12.5051 61.3135 12.4295C61.3193 12.3936 61.3252 12.3576 61.3312 12.3206C61.3611 12.1338 61.389 11.9469 61.413 11.7592C61.4225 11.6852 61.4325 11.6113 61.4427 11.5375C61.454 11.4545 61.4641 11.3714 61.4726 11.2881C61.4868 11.1875 61.5003 11.1085 61.5462 11.0179C61.6505 10.9435 61.758 10.9156 61.8813 10.8846C61.9337 10.8666 61.986 10.848 62.038 10.8288C62.0634 10.8199 62.0888 10.8111 62.115 10.8019C62.9743 10.4992 63.5591 10.0054 63.9605 9.18561C64.2554 8.5542 64.3876 7.86361 64.4824 7.17811C64.4935 7.0976 64.5055 7.01727 64.5178 6.93692C64.616 6.27286 64.5929 5.71039 64.1774 5.15186C63.8429 4.77203 63.4028 4.60647 62.9088 4.57323C62.8009 4.5667 62.693 4.56123 62.585 4.55623C62.6179 4.2559 62.6556 3.95723 62.7044 3.65901C62.7569 3.34291 62.7569 3.34291 62.786 3.02409C62.7871 3.00286 62.7882 2.98163 62.7893 2.95976C62.8094 2.51183 62.7477 2.13464 62.5515 1.7251Z" fill="#7E7E7E"/>
<path d="M62.6842 0.728213C62.772 0.805105 62.8336 0.879805 62.8953 0.977498C62.9939 1.11755 63.1039 1.15109 63.2643 1.19868C64.0633 1.46553 64.8009 1.87 65.4339 2.42481C65.4502 2.43901 65.4665 2.45321 65.4833 2.46784C66.5789 3.4265 67.2544 4.77333 67.3773 6.22185C67.3888 6.42781 67.3888 6.63391 67.3878 6.84012C67.3877 6.86805 67.3876 6.89597 67.3875 6.92474C67.3855 7.36483 67.3604 7.78739 67.2768 8.22029C67.265 8.28468 67.2532 8.34907 67.2415 8.41346C67.1617 8.84613 67.0749 9.27642 66.9587 9.70104C66.9517 9.72664 66.9448 9.75224 66.9375 9.77862C66.9038 9.90133 66.8691 10.0237 66.8331 10.1458C66.7297 10.4958 66.7297 10.4958 66.7742 10.8516C66.8556 10.95 66.9149 10.9706 67.0422 10.9848C67.6932 10.9969 68.3373 10.7907 68.9576 10.6175C69.3059 10.5208 69.6546 10.4383 70.0098 10.3707C70.0505 10.3629 70.0913 10.3551 70.1333 10.347C70.6137 10.2586 71.0805 10.2069 71.5685 10.2082C71.6473 10.2083 71.7261 10.2075 71.8048 10.2067C72.68 10.2031 73.5384 10.428 74.1794 11.0514C74.7611 11.7165 74.8369 12.4693 74.7825 13.3163C74.7069 14.0856 74.3759 14.8229 74.0561 15.5178C74.0154 15.6068 73.9757 15.6961 73.9366 15.7858C73.6277 16.4897 73.255 17.1575 72.8619 17.8178C71.3955 20.2908 70.2038 22.9093 68.9187 29.537C68.9156 29.5762 68.9125 29.6153 68.9093 29.6557C68.8776 30.1003 68.8747 30.5457 68.8692 30.9913C68.8543 32.1561 68.6888 33.1208 67.8199 33.9761C67.0846 34.6705 66.0798 34.9643 65.0988 35.0994C65.0742 35.1029 65.0496 35.1064 65.0243 35.11C64.7516 35.1431 64.4765 35.1389 64.2022 35.1388C64.1149 35.1389 64.0277 35.1395 63.9404 35.1401C63.5446 35.1415 63.1796 35.1135 62.8014 34.989C62.4023 34.8665 61.9927 34.7966 61.5805 34.733C61.5444 34.7274 61.5083 34.7218 61.4712 34.716C60.2167 34.533 58.882 34.5724 57.6266 34.733C57.5687 34.7399 57.5687 34.7399 57.5097 34.747C54.2218 35.146 51.0725 36.3822 43.9722 39.1948C43.8904 39.2287 43.8086 39.2625 43.7267 39.2962C43.0095 39.5922 42.2934 39.8911 41.5779 40.1911C41.4341 40.2514 41.2903 40.3117 41.1465 40.3719C40.234 40.7541 39.3229 41.1392 38.412 41.5252C36.8554 42.1848 35.297 42.8402 33.7342 43.4852C33.6366 43.5255 33.5389 43.5659 33.4413 43.6063C32.4372 44.0214 31.4295 44.4272 30.4184 44.8251C30.3727 44.8431 30.3727 44.8431 30.3261 44.8614C28.9933 45.3856 27.6543 45.899 26.2969 46.3573C26.2732 46.3653 26.2494 46.3733 26.2249 46.3816C24.2109 47.0609 22.139 47.5878 20.0268 47.8519C19.988 47.8568 19.988 47.8568 19.9485 47.8618C19.1495 47.9609 18.3538 48.0021 17.5488 47.9999C17.479 47.9997 17.4093 47.9996 17.3396 47.9995C16.6686 47.9983 16.005 47.9874 15.3399 47.8894C15.2997 47.8837 15.2596 47.878 15.2182 47.8721C13.177 47.5739 11.1556 46.8339 9.61914 45.4275C9.54887 45.3633 9.4773 45.3012 9.40488 45.2394C9.17574 45.0405 8.96761 44.8237 8.77242 44.592C8.7443 44.559 8.71618 44.5261 8.68721 44.4922C7.15827 42.6682 6.42002 40.3345 6.41851 37.9784C6.41849 37.9466 6.41846 37.9149 6.41844 37.8822C6.41903 37.3592 6.44178 36.8487 6.52741 36.3317C6.53316 36.2969 6.53891 36.262 6.54483 36.2261C6.68773 35.3916 6.9187 34.5294 7.3651 33.8004C7.3651 33.7784 7.3651 33.7564 7.3651 33.7338C6.35503 33.4099 5.02626 33.9867 4.1358 34.4374C4.11452 34.4482 4.09325 34.4591 4.07133 34.4702C3.27218 34.8775 2.3968 35.1694 1.50126 34.8995C0.92949 34.6892 0.513003 34.3028 0.253099 33.7525C-0.106056 32.8453 -0.0318157 31.8066 0.160953 30.8693C0.165422 30.8474 0.169894 30.8255 0.1745 30.8029C0.561687 28.909 1.18226 27.0987 1.88754 25.301C2.98167 22.5115 3.82809 19.7376 4.24051 15.6541C4.24249 15.6272 4.24448 15.6003 4.24652 15.5726C4.29726 14.8716 4.3205 14.1715 4.32258 13.4687C4.32298 13.3441 4.32363 13.2195 4.32436 13.0949C4.32639 12.7413 4.32824 12.3877 4.32935 12.0341C4.33004 11.8162 4.33124 11.5983 4.33273 11.3804C4.3332 11.2981 4.33349 11.2159 4.3336 11.1337C4.33483 10.2838 4.4202 9.51676 5.03318 8.86784C5.26138 8.65432 5.52262 8.49771 5.80215 8.36107C5.82527 8.34968 5.8484 8.33829 5.87222 8.32656C6.13585 8.19751 6.40257 8.07525 6.66982 7.95384C6.69635 7.94174 6.72289 7.92965 6.75023 7.91719C7.1898 7.71692 7.63108 7.52067 8.07328 7.32625C8.43045 7.16913 8.78646 7.00959 9.14208 6.84906C9.69149 6.60107 10.2426 6.35722 10.7954 6.1169C11.1958 5.94279 11.5955 5.76703 11.9948 5.59028C12.2145 5.49306 12.4343 5.39603 12.654 5.29897C12.7639 5.25047 12.8737 5.20192 12.9834 5.15331C13.5725 4.89266 14.1635 4.64118 14.7703 4.42325C14.8238 4.40402 14.8238 4.40402 14.8784 4.3844C15.9271 4.01206 17.036 3.72134 18.1546 3.69049C18.2088 3.68849 18.2088 3.68849 18.2641 3.68646C19.358 3.66494 20.4833 3.91924 21.2963 4.68373C21.3334 4.71966 21.3334 4.71966 21.3713 4.75633C21.395 4.77822 21.4187 4.80012 21.4432 4.82268C22.1484 5.49024 22.4806 6.54101 22.5142 7.48962C22.5163 7.60136 22.5169 7.71301 22.5168 7.82477C22.5169 7.86413 22.5169 7.9035 22.5169 7.94405C22.5151 8.24077 22.494 8.52734 22.4435 8.81983C22.487 8.82472 22.5305 8.82962 22.5754 8.83466C24.4924 9.06417 26.4373 9.91401 27.6603 11.4469C28.3074 12.2764 28.3074 12.2764 28.3074 12.5169C30.642 11.7298 32.9013 10.7637 35.1417 9.74446C35.2803 9.6814 35.419 9.61856 35.5578 9.55588C36.1368 9.29443 36.7135 9.02866 37.2881 8.7579C37.586 8.61753 37.8845 8.47847 38.1838 8.34103C38.7056 8.10113 39.2245 7.85509 39.7436 7.60948C40.043 7.46785 40.3427 7.32673 40.6424 7.18568C40.6951 7.1609 40.7477 7.13611 40.8004 7.11132C40.8793 7.07416 40.9583 7.03701 41.0372 6.99986C41.2241 6.91193 41.4108 6.82393 41.5976 6.7359C41.889 6.5986 42.1804 6.46143 42.4719 6.32435C42.5469 6.28907 42.6219 6.25376 42.6968 6.21845C43.2339 5.96563 43.7722 5.71584 44.3137 5.47255C44.6293 5.33074 44.9436 5.18634 45.2568 5.03929C45.7834 4.79213 46.3142 4.55527 46.8471 4.3219C47.0151 4.2483 47.1829 4.1742 47.3506 4.09981C49.8474 2.99362 52.4011 1.94951 56.4748 0.963446C56.5013 0.958578 56.5278 0.95371 56.5552 0.948694C56.8202 0.900667 57.0843 0.857906 57.3524 0.830737C57.9725 0.767666 58.494 0.596515 59.0687 0.369777C59.3633 0.254426 59.6645 0.167096 59.9721 0.0932907C60.0066 0.0845749 60.0411 0.075859 60.0767 0.066879C61.0164 -0.130531 61.9595 0.114705 62.6842 0.728213ZM58.846 1.1953C58.4479 1.37452 58.0708 1.43759 57.6375 1.48522C57.615 1.48769 57.5925 1.49017 57.5694 1.49272C57.5467 1.49522 57.524 1.49771 57.5006 1.50028C57.2406 1.52979 56.9834 1.57417 56.7261 1.62127C56.7029 1.62549 56.6798 1.62971 56.656 1.63407C56.2457 1.70959 55.8404 1.80195 55.4359 1.90352C55.3338 1.92871 55.2314 1.95178 55.1288 1.97459C52.2665 2.61564 49.5144 3.90347 43.5564 6.59841C43.2607 6.73715 42.9643 6.87445 42.6675 7.01082C42.326 7.16781 41.9867 7.32879 41.6481 7.49179C41.3811 7.62004 41.1127 7.74498 40.8434 7.86849C40.5221 8.01589 40.2026 8.16657 39.8843 8.32022C39.5357 8.48844 39.1854 8.65272 38.8335 8.81412C38.5266 8.9551 38.2211 9.0989 37.9159 9.24328C37.4463 9.46531 36.9752 9.6835 36.5013 9.89626C36.1724 10.0439 35.8447 10.194 35.5173 10.3449C33.6162 11.2204 31.6913 12.0604 29.7165 12.759C29.6417 12.7855 29.5671 12.8121 29.4924 12.8388C29.3543 12.888 29.2162 12.9369 29.078 12.9857C29.0247 13.0045 28.9713 13.0234 28.9181 13.0423C28.5838 13.1609 28.2499 13.2645 27.9053 13.3496C27.9011 13.3253 27.8969 13.301 27.8926 13.2759C27.7901 12.8186 27.4904 12.3801 27.2016 12.0173C27.1784 11.9869 27.1552 11.9565 27.1312 11.9251C26.7979 11.5014 26.4044 11.1269 25.9619 10.8183C25.9274 10.7942 25.893 10.7702 25.8575 10.7454C25.3611 10.4144 24.8191 10.1288 24.2513 9.94088C24.1825 9.91783 24.1144 9.89332 24.0462 9.86862C23.3055 9.60511 22.4947 9.45267 21.7064 9.45267C21.7103 9.35689 21.7145 9.26115 21.7189 9.16539C21.72 9.13912 21.721 9.11284 21.7221 9.08577C21.73 8.92057 21.7481 8.76024 21.774 8.59682C21.8116 8.34572 21.8185 8.09916 21.8174 7.84559C21.8173 7.8231 21.8173 7.80062 21.8172 7.77746C21.8128 6.82112 21.5552 5.91767 20.8687 5.22263C20.1164 4.5251 19.0857 4.36088 18.0937 4.38541C17.5545 4.40834 17.0265 4.50252 16.5041 4.63337C16.4102 4.65689 16.3161 4.67956 16.222 4.7022C14.9677 5.0096 13.7964 5.55907 12.6209 6.07963C12.4641 6.14901 12.3073 6.21821 12.1504 6.28742C11.8999 6.39802 11.6493 6.5087 11.3988 6.61946C11.1397 6.73404 10.8806 6.84853 10.6214 6.96294C9.96951 7.25069 9.31778 7.53867 8.66727 7.8294C8.57347 7.87132 8.47965 7.9132 8.38582 7.95506C8.07454 8.09392 7.7634 8.23308 7.45245 8.37268C7.2845 8.448 7.11632 8.52277 6.9479 8.59705C6.84179 8.64393 6.73584 8.69117 6.62991 8.73847C6.58075 8.76034 6.53151 8.78205 6.4822 8.80359C5.91714 9.05065 5.39146 9.35465 5.15359 9.95228C5.02027 10.3457 5.03885 10.7489 5.03946 11.1588C5.03919 11.2349 5.03886 11.311 5.03848 11.3871C5.03774 11.548 5.03724 11.7089 5.03694 11.8698C5.03606 12.2868 5.03299 12.7038 5.02964 13.1208C5.02916 13.1821 5.02916 13.1821 5.02866 13.2447C5.01769 14.5773 4.96456 15.9083 4.79544 17.2313C4.78412 17.3202 4.77308 17.4091 4.76207 17.4981C4.59132 18.8708 4.59132 18.8708 4.44129 19.5342C4.41727 19.641 4.39404 19.7479 4.37099 19.8549C4.18973 20.6955 3.98367 21.5257 3.71276 22.3426C3.70071 22.3794 3.68866 22.4161 3.67625 22.454C3.50968 22.9616 3.33521 23.4648 3.14366 23.9638C3.08487 24.1171 3.02947 24.2713 2.9756 24.4264C2.83112 24.8399 2.66559 25.2457 2.50165 25.6518C2.48434 25.6946 2.48434 25.6946 2.46668 25.7384C2.44556 25.7906 2.42438 25.8428 2.4031 25.8949C2.21508 26.3584 2.04712 26.829 1.88185 27.3009C1.84881 27.3952 1.81562 27.4894 1.78241 27.5837C1.67125 27.8999 1.56272 28.2163 1.46775 28.5378C1.4572 28.5733 1.44664 28.6088 1.43577 28.6453C1.20508 29.4268 1.00015 30.2094 0.84907 31.0101C0.833483 31.0902 0.816381 31.1698 0.798383 31.2495C0.726419 31.5866 0.72097 31.9228 0.720112 32.2661C0.719988 32.2899 0.719866 32.3136 0.719739 32.3381C0.718147 32.9254 0.796676 33.4959 1.22914 33.9302C1.55897 34.2343 1.90666 34.3162 2.34995 34.3082C2.87389 34.2733 3.32577 34.0594 3.78918 33.8331C4.8395 33.3202 6.28736 32.6909 7.47845 33.0374C7.71697 33.1195 7.89835 33.2147 8.03525 33.434C8.1062 33.5997 8.11129 33.7486 8.11483 33.9253C8.16887 35.3147 8.65067 36.7353 9.47608 37.8639C9.49897 37.8957 9.52187 37.9275 9.54545 37.9603C10.0021 38.581 10.5284 39.1389 11.1515 39.5959C11.1886 39.6237 11.2256 39.6516 11.2627 39.6795C12.7867 40.8092 14.7319 41.3207 16.6132 41.3611C16.6542 41.3622 16.6951 41.3633 16.7373 41.3644C19.1232 41.4237 21.4953 40.914 23.7451 40.1532C23.8168 40.129 23.8885 40.1051 23.9603 40.0812C24.9383 39.7554 25.8972 39.3778 26.8578 39.0053C26.9875 38.9551 27.1172 38.905 27.2469 38.855C28.636 38.3192 30.0198 37.7698 31.4034 37.2199C31.4888 37.186 31.5742 37.152 31.6597 37.1181C32.7262 36.6943 33.7907 36.2659 34.8539 35.8342C34.9052 35.8134 34.9052 35.8134 34.9575 35.7922C35.4724 35.5832 35.9872 35.3736 36.5018 35.1636C36.9645 34.9748 37.4274 34.7863 37.8905 34.5982C37.9218 34.5854 37.9531 34.5727 37.9854 34.5596C38.0491 34.5337 38.1128 34.5079 38.1765 34.482C38.3592 34.4077 38.5418 34.3333 38.7243 34.2587C39.6579 33.8774 40.5944 33.5031 41.5314 33.1301C41.629 33.0912 41.7266 33.0524 41.8241 33.0135C42.667 32.6775 43.5119 32.3475 44.3604 32.0261C44.4185 32.0041 44.4766 31.982 44.5347 31.96C46.3891 31.2558 48.2668 30.6043 50.1879 30.1033C50.2129 30.0967 50.2379 30.0902 50.2637 30.0834C52.2198 29.5724 54.3078 29.2285 56.3307 29.4603C56.4208 29.4705 56.5109 29.4791 56.6011 29.4877C58.3222 29.666 60.0321 30.3654 61.2919 31.5542C61.355 31.6127 61.4178 31.6676 61.4844 31.7218C61.6101 31.8266 61.7093 31.9442 61.815 32.0684C61.8423 32.0989 61.8696 32.1294 61.8978 32.1608C62.3898 32.7147 62.7534 33.3556 63.0779 34.0171C63.1383 34.1312 63.212 34.23 63.2894 34.3333C63.3004 34.3663 63.3115 34.3992 63.3229 34.4332C63.5337 34.4366 63.7444 34.439 63.9553 34.4405C64.0266 34.4412 64.0979 34.4421 64.1693 34.4433C65.3742 34.4625 66.5598 34.1894 67.4598 33.354C67.9528 32.8526 68.1504 32.1757 68.1551 31.4905C68.1559 31.4138 68.1568 31.3371 68.1577 31.2604C68.1582 31.2203 68.1586 31.1803 68.1591 31.139C68.1678 30.407 68.1945 29.6822 68.27 28.9541C68.2807 28.8503 68.2906 28.7465 68.3 28.6425C68.3513 28.0824 68.4251 27.5242 68.5367 26.9727C68.5505 26.9038 68.5637 26.8349 68.5768 26.7659C68.7247 25.9979 68.8907 25.2281 69.1299 24.4827C69.1539 24.4054 69.1759 24.3278 69.1973 24.2497C69.2985 23.8812 69.4156 23.5197 69.5407 23.1587C69.5484 23.1362 69.5562 23.1137 69.5642 23.0906C69.9376 22.0127 70.3945 20.9691 70.8956 19.9445C70.9142 19.9064 70.9328 19.8684 70.9519 19.8292C71.3829 18.951 71.8692 18.1025 72.3654 17.2595C72.7969 16.5253 73.19 15.7866 73.5088 14.9971C73.5528 14.8908 73.6015 14.7876 73.6516 14.684C74.0102 13.9207 74.2574 12.9707 74.0265 12.136C73.8469 11.6754 73.5422 11.3569 73.0989 11.1383C72.1507 10.7228 70.9739 10.8735 69.9909 11.0847C69.9532 11.0926 69.9154 11.1004 69.8765 11.1085C69.4821 11.1909 69.095 11.2896 68.7092 11.4053C68.1993 11.5569 67.7019 11.6611 67.1679 11.6655C67.1368 11.6659 67.1057 11.6662 67.0736 11.6666C66.7849 11.6629 66.5037 11.6141 66.2873 11.4117C66.0405 11.1083 66.0406 10.7235 66.0596 10.3533C66.0817 10.1482 66.1466 9.95604 66.2096 9.76039C66.3199 9.41722 66.3873 9.07012 66.4539 8.71646C66.4715 8.62587 66.4904 8.53576 66.5103 8.44564C66.5163 8.41832 66.5223 8.39101 66.5285 8.36287C66.5394 8.31408 66.5504 8.26532 66.5616 8.21661C66.6625 7.75862 66.6874 7.30096 66.6862 6.83387C66.6862 6.80619 66.6862 6.7785 66.6861 6.74997C66.6814 5.37961 66.1798 4.13431 65.2098 3.15341C64.5736 2.52905 63.7356 2.02269 62.8669 1.79979C62.6106 1.73272 62.4856 1.6474 62.3434 1.4183C62.1169 1.06432 61.7013 0.883921 61.3124 0.759439C60.4668 0.611469 59.6134 0.843764 58.846 1.1953Z" fill="#666666"/>
<path d="M21.4315 10.941C21.5183 10.9411 21.6051 10.9403 21.6919 10.9395C23.1777 10.934 24.6463 11.4881 25.7133 12.5232C26.3563 13.1656 26.7694 14.04 26.7777 14.9533C26.7776 14.9881 26.7774 15.0229 26.7772 15.0587C26.7771 15.0952 26.777 15.1317 26.7768 15.1693C26.7732 15.4418 26.7439 15.6854 26.6662 15.9476C26.6597 15.9751 26.6532 16.0025 26.6466 16.0308C26.4702 16.7239 25.9715 17.3796 25.3594 17.7462C24.8718 18.01 24.3584 18.2342 23.7919 18.0887C23.6925 18.043 23.6224 17.9855 23.55 17.9044C23.4726 17.6929 23.5176 17.5283 23.5902 17.3256C23.7943 16.7248 23.7228 16.038 23.4578 15.4709C23.1914 14.9771 22.8172 14.7049 22.3102 14.4821C22.2776 14.4675 22.2451 14.4529 22.2115 14.4379C21.7002 14.2454 21.0314 14.2872 20.5383 14.5054C20.2586 14.6348 20.0023 14.786 19.7636 14.9817C19.7425 14.9989 19.7214 15.0162 19.6996 15.0339C19.2694 15.4226 19.0049 16.0478 18.9772 16.6178C18.9761 16.6879 18.9758 16.7581 18.9762 16.8282C18.9764 16.8656 18.9765 16.903 18.9767 16.9415C18.9876 17.4687 19.1158 17.9466 19.3615 18.4124C19.3758 18.4434 19.3901 18.4744 19.4048 18.5063C19.7734 19.2949 20.3863 19.9729 20.9699 20.6107C21.0167 20.6627 21.0634 20.7148 21.1102 20.7668C21.3171 20.9953 21.529 21.2191 21.7406 21.4434C21.7612 21.4653 21.7819 21.4872 21.8032 21.5098C21.8661 21.5765 21.929 21.6432 21.9919 21.7098C22.0757 21.7986 22.1594 21.8874 22.2432 21.9763C22.2639 21.9983 22.2847 22.0203 22.3061 22.043C22.946 22.7217 22.946 22.7217 23.2382 23.081C23.3165 23.1767 23.3965 23.2707 23.4767 23.3648C24.5864 24.6905 25.4471 26.2208 25.728 27.9383C25.7345 27.9779 25.7345 27.9779 25.7412 28.0183C25.8547 28.7546 25.862 29.599 25.7393 30.3336C25.7269 30.4098 25.7168 30.4862 25.7066 30.5627C25.4943 32.0206 24.7722 33.4498 23.7973 34.5475C23.7641 34.5851 23.7311 34.6229 23.6983 34.6609C23.3508 35.0619 22.9699 35.4458 22.5448 35.7655C22.5046 35.7967 22.4645 35.828 22.4245 35.8592C21.6826 36.4316 20.8458 36.8775 19.9647 37.1978C19.9429 37.2058 19.9212 37.2139 19.8989 37.2223C18.1994 37.8514 16.0807 37.8898 14.4195 37.1362C14.3691 37.1125 14.3187 37.0886 14.2684 37.0645C14.2421 37.052 14.2158 37.0395 14.1887 37.0267C13.6003 36.7429 13.0933 36.3861 12.6265 35.9321C12.6043 35.9117 12.5822 35.8914 12.5593 35.8704C12.2352 35.5669 11.9929 35.1898 11.7888 34.7996C11.7775 34.7783 11.7662 34.7571 11.7545 34.7351C11.4822 34.2169 11.3021 33.6518 11.2527 33.0676C11.2505 33.0435 11.2483 33.0193 11.246 32.9945C11.1294 31.6415 11.4237 30.3663 12.304 29.3122C12.9179 28.6029 13.8117 28.0134 14.771 27.9383C14.9036 27.9308 15.036 27.9276 15.1689 27.9258C15.2032 27.9246 15.2376 27.9233 15.2729 27.922C15.5613 27.9188 15.7802 27.991 15.9982 28.1819C16.0618 28.3055 16.0748 28.4043 16.0443 28.5378C15.9642 28.718 15.8514 28.8665 15.7176 29.0104C15.2696 29.4957 14.9784 30.096 14.838 30.7361C14.8322 30.7621 14.8264 30.7881 14.8204 30.8148C14.7314 31.3069 14.7752 31.842 14.972 32.3016C14.9858 32.3338 14.9858 32.3338 14.9998 32.3668C15.2884 33.0171 15.8304 33.468 16.4905 33.7255C17.1767 33.9569 17.9326 34.0041 18.6244 33.7671C18.6615 33.755 18.6987 33.743 18.737 33.7305C19.1552 33.5837 19.5326 33.3603 19.8641 33.0676C19.8871 33.0476 19.91 33.0275 19.9336 33.0069C20.5218 32.459 20.893 31.5831 20.9437 30.7876C20.9478 30.66 20.9491 30.5328 20.9489 30.4051C20.9489 30.3825 20.9489 30.3598 20.9489 30.3365C20.9451 29.3189 20.5659 28.3646 20.0317 27.5053C20.0149 27.4781 19.9981 27.4509 19.9807 27.4228C19.7394 27.0337 19.4871 26.6581 19.205 26.297C19.138 26.2107 19.0729 26.1231 19.0076 26.0356C18.7435 25.6858 18.4686 25.3448 18.1888 25.0072C18.142 24.9504 18.0952 24.8935 18.0484 24.8365C17.9203 24.6809 17.7918 24.5255 17.6631 24.3702C17.6431 24.3462 17.6232 24.3221 17.6026 24.2972C17.5014 24.1752 17.4002 24.0531 17.299 23.9311C16.5327 23.0077 16.5327 23.0077 16.2216 22.599C16.1752 22.5384 16.1282 22.4783 16.0812 22.4182C15.8312 22.0963 15.6115 21.7625 15.4076 21.41C15.3941 21.3868 15.3806 21.3636 15.3666 21.3397C14.4694 19.7818 14.2201 17.8658 14.6809 16.135C14.8272 15.6107 15.017 15.129 15.2736 14.6486C15.2851 14.6267 15.2966 14.6047 15.3085 14.582C15.4981 14.2221 15.7222 13.8999 15.9772 13.5828C15.9925 13.5637 16.0078 13.5446 16.0236 13.5249C17.1396 12.1427 18.8042 11.1701 20.5869 10.9735C20.8683 10.9449 21.1489 10.9403 21.4315 10.941Z" fill="#FEFEFE"/>
<path d="M60.7388 2.18278C60.7788 2.18192 60.8188 2.18106 60.86 2.18018C61.0121 2.19432 61.119 2.24004 61.2349 2.33917C61.4496 2.63912 61.3603 3.06152 61.3047 3.40145C61.287 3.50335 61.2687 3.6051 61.2502 3.70685C61.2099 3.93014 61.1782 4.15426 61.1472 4.37898C61.0965 4.74158 61.037 5.10204 60.9731 5.46256C60.9012 5.86995 60.838 6.27855 60.7765 6.6876C61.1258 6.57301 61.4746 6.45728 61.8215 6.33579C61.9038 6.30714 61.9861 6.27851 62.0684 6.24989C62.1237 6.23057 62.1791 6.21116 62.2344 6.19167C62.3159 6.16303 62.3975 6.13487 62.4791 6.1068C62.5033 6.09817 62.5276 6.08954 62.5525 6.08064C62.7011 6.03018 62.8292 6.00146 62.988 6.02145C63.076 6.08913 63.1169 6.12906 63.1388 6.2387C63.1329 6.55511 63.0874 6.86129 63.0329 7.17269C63.0175 7.26144 63.003 7.35031 62.9886 7.43923C62.8843 8.05834 62.7124 8.75639 62.2174 9.18566C61.8716 9.39634 61.4826 9.5204 61.1009 9.64985C61.0014 9.68364 60.902 9.71788 60.8026 9.75221C60.7393 9.77394 60.676 9.79565 60.6126 9.81733C60.583 9.82752 60.5533 9.83772 60.5227 9.84823C60.4953 9.85748 60.468 9.86673 60.4398 9.87626C60.4158 9.88443 60.3918 9.8926 60.367 9.90102C60.3074 9.91842 60.3074 9.91842 60.2404 9.91842C60.2376 9.94936 60.2347 9.98029 60.2318 10.0122C60.1822 10.514 60.0964 11.0103 60.0139 11.5075C59.9931 11.6332 59.9725 11.7589 59.9519 11.8847C59.9478 11.9099 59.9436 11.9351 59.9394 11.9611C59.931 12.012 59.9227 12.063 59.9143 12.114C59.9018 12.1904 59.8893 12.2668 59.8767 12.3432C59.8017 12.8004 59.7283 13.2578 59.6561 13.7155C59.6506 13.7504 59.6451 13.7853 59.6394 13.8213C59.5722 14.2475 59.508 14.6739 59.4485 15.1012C59.405 15.4091 59.3516 15.7149 59.2973 16.0211C59.2435 16.3264 59.1964 16.6323 59.1521 16.9391C59.118 17.173 59.0798 17.4058 59.0389 17.6386C58.9004 18.4333 58.7873 19.2277 58.787 20.0355C58.7869 20.0793 58.7869 20.123 58.7868 20.168C58.7958 20.9418 58.974 21.5711 59.4786 22.168C59.6218 22.3507 59.63 22.5147 59.6038 22.7418C59.4602 23.0443 59.1692 23.1954 58.8666 23.308C58.5586 23.4138 58.2562 23.502 57.9284 23.5078C57.8932 23.5088 57.8932 23.5088 57.8574 23.5098C57.1247 23.5282 56.4443 23.4238 55.8739 22.927C55.8211 22.8769 55.7687 22.8263 55.7169 22.7751C55.6959 22.7554 55.675 22.7357 55.6534 22.7155C55.1514 22.2041 54.9799 21.3646 54.9567 20.6788C54.9554 20.6425 54.9541 20.6062 54.9528 20.5689C54.9305 19.8183 55.0357 19.0938 55.1623 18.3556C55.2054 18.1028 55.2441 17.8495 55.2813 17.5958C55.3227 17.3127 55.3669 17.0304 55.4153 16.7485C55.465 16.4591 55.5086 16.1692 55.5493 15.8784C55.5935 15.5638 55.6435 15.2511 55.7001 14.9386C55.745 14.6871 55.782 14.4348 55.8174 14.1818C55.8615 13.8665 55.9114 13.5532 55.9682 13.2401C56.0134 12.9871 56.0501 12.7334 56.0855 12.4789C56.1397 12.0889 56.2075 11.7031 56.2865 11.3173C56.2621 11.3257 56.2378 11.334 56.2127 11.3426C56.1782 11.3545 56.1437 11.3663 56.1081 11.3785C56.0498 11.3985 56.0498 11.3985 55.9903 11.4189C55.9035 11.4486 55.8168 11.4783 55.7301 11.508C55.5233 11.5788 55.3166 11.6497 55.1101 11.7212C55.0227 11.7515 54.9353 11.7816 54.8479 11.8118C54.7862 11.8332 54.7246 11.8546 54.6629 11.8761C54.4683 11.9432 54.276 12.0049 54.075 12.0501C54.0741 12.0745 54.0733 12.0989 54.0724 12.124C54.0569 12.4173 54.0132 12.7008 53.9628 12.9899C53.9177 13.2499 53.8788 13.5103 53.8425 13.7717C53.7919 14.1335 53.7321 14.493 53.6681 14.8527C53.6196 15.128 53.5773 15.4037 53.5389 15.6806C53.4953 15.9941 53.4457 16.3058 53.3902 16.6174C53.3282 16.9657 53.2732 17.3144 53.2226 17.6645C53.1655 18.0595 53.1032 18.4534 53.0363 18.8469C52.9443 19.389 52.8562 19.9314 52.778 20.4756C52.7682 20.5437 52.7581 20.6118 52.748 20.6799C52.5887 21.7632 52.4125 23.052 53.0827 24.0022C53.1407 24.0792 53.2003 24.1548 53.2603 24.2302C53.4064 24.4162 53.4931 24.5609 53.4834 24.8012C53.4539 24.9859 53.3134 25.1122 53.1733 25.2252C52.5132 25.6766 51.5589 25.743 50.7902 25.6167C50.1832 25.4894 49.6402 25.1127 49.2939 24.6028C48.905 23.9603 48.8064 23.2566 48.8038 22.519C48.8037 22.4946 48.8036 22.4701 48.8036 22.4449C48.8033 21.7009 48.9211 20.9751 49.0488 20.2433C49.087 20.0214 49.1182 19.7985 49.1494 19.5755C49.1935 19.2609 49.2435 18.9483 49.3001 18.6357C49.3451 18.3842 49.382 18.1319 49.4174 17.8789C49.4615 17.5636 49.5115 17.2503 49.5682 16.937C49.6131 16.6855 49.6501 16.4332 49.6855 16.1802C49.7295 15.8651 49.7795 15.5519 49.8362 15.2388C49.889 14.9434 49.9307 14.6468 49.9724 14.3497C50.0149 14.048 50.0651 13.7485 50.1211 13.449C50.0948 13.4584 50.0685 13.4678 50.0413 13.4775C49.9417 13.513 49.842 13.5485 49.7423 13.584C49.6788 13.6066 49.6152 13.6293 49.5517 13.652C49.4289 13.6957 49.3059 13.739 49.1829 13.7821C49.1266 13.8019 49.1266 13.8019 49.0693 13.8221C49.0343 13.8342 48.9994 13.8462 48.9634 13.8586C48.9328 13.8692 48.9023 13.8798 48.8708 13.8907C48.7181 13.9324 48.5684 13.9416 48.4122 13.9153C48.3116 13.8553 48.263 13.8186 48.2111 13.7155C48.143 12.9965 48.228 11.5424 48.6924 10.9603C48.8849 10.7879 49.1554 10.7349 49.3982 10.6638C49.5406 10.622 49.6765 10.5707 49.8134 10.5134C49.9191 10.4718 50.0277 10.4422 50.1369 10.4111C50.2563 10.3739 50.3704 10.3261 50.4854 10.2771C50.5567 10.2515 50.5567 10.2515 50.6572 10.2515C50.656 10.2146 50.6548 10.1776 50.6535 10.1396C50.6537 9.97006 50.6841 9.80973 50.7158 9.64363C50.7702 9.34743 50.8168 9.05091 50.8583 8.75266C50.9023 8.43751 50.9521 8.12427 51.009 7.81118C51.0547 7.55613 51.0909 7.30022 51.1263 7.04357C51.3078 5.75165 51.3078 5.75165 51.7295 5.42192C52.4498 4.90424 53.8295 4.23799 54.7451 4.32278C54.8879 4.35309 54.99 4.39963 55.0949 4.50389C55.3071 4.8499 55.1704 5.43918 55.1095 5.81536C55.102 5.86419 55.0944 5.91302 55.0869 5.96186C55.0242 6.36574 54.956 6.76879 54.8873 7.17171C54.819 7.57305 54.7567 7.97515 54.6969 8.37783C54.6905 8.42081 54.6841 8.46378 54.6775 8.50806C54.6691 8.56464 54.6691 8.56464 54.6606 8.62236C54.6477 8.70076 54.6322 8.77603 54.6111 8.85258C54.6292 8.84591 54.6474 8.83923 54.666 8.83235C55.0665 8.68519 55.4683 8.5438 55.8744 8.41263C56.0546 8.35397 56.2307 8.28976 56.4062 8.21834C56.532 8.169 56.6602 8.12735 56.7891 8.08651C56.7948 8.04529 56.8005 8.00408 56.8064 7.96161C56.8514 7.64023 56.8998 7.31976 56.9546 6.99986C57.0101 6.67506 57.0597 6.34966 57.1074 6.02364C57.1483 5.74645 57.1936 5.47024 57.2415 5.19416C57.2728 5.01058 57.3007 4.82694 57.3252 4.64232C57.3308 4.60058 57.3365 4.55885 57.3422 4.51585C57.3529 4.43517 57.3633 4.35445 57.3731 4.27367C57.436 3.80128 57.623 3.48549 57.9991 3.19181C58.1625 3.07692 58.3379 2.99316 58.5189 2.9093C58.5583 2.89081 58.5976 2.87233 58.6381 2.85328C59.1982 2.59274 59.7772 2.38347 60.3744 2.22441C60.408 2.21437 60.408 2.21437 60.4422 2.20412C60.5413 2.18466 60.638 2.18407 60.7388 2.18278Z" fill="#FEFEFE"/>
<path d="M62.6842 0.728213C62.772 0.805105 62.8336 0.879805 62.8953 0.977498C62.9939 1.11755 63.1039 1.15109 63.2643 1.19868C64.0633 1.46553 64.8009 1.87 65.4339 2.42481C65.4502 2.43901 65.4665 2.45321 65.4833 2.46784C66.5789 3.4265 67.2544 4.77333 67.3773 6.22185C67.3888 6.42781 67.3888 6.63391 67.3878 6.84012C67.3877 6.86805 67.3876 6.89597 67.3875 6.92474C67.3855 7.36483 67.3604 7.78739 67.2768 8.22029C67.265 8.28468 67.2532 8.34907 67.2415 8.41346C67.1617 8.84613 67.0749 9.27642 66.9587 9.70104C66.9517 9.72664 66.9448 9.75224 66.9375 9.77862C66.9038 9.90133 66.8691 10.0237 66.8331 10.1458C66.7297 10.4958 66.7297 10.4958 66.7742 10.8516C66.8556 10.95 66.9149 10.9706 67.0422 10.9848C67.6932 10.9969 68.3373 10.7907 68.9576 10.6175C69.3059 10.5208 69.6546 10.4383 70.0098 10.3707C70.0505 10.3629 70.0913 10.3551 70.1333 10.347C70.6137 10.2586 71.0805 10.2069 71.5685 10.2082C71.6473 10.2083 71.7261 10.2075 71.8048 10.2067C72.68 10.2031 73.5384 10.428 74.1794 11.0514C74.7611 11.7165 74.8369 12.4693 74.7825 13.3163C74.7069 14.0856 74.3759 14.8229 74.0561 15.5178C74.0154 15.6068 73.9757 15.6961 73.9366 15.7858C73.6277 16.4897 73.255 17.1575 72.8619 17.8178C71.3955 20.2908 70.2038 22.9093 68.9187 29.537C68.9156 29.5762 68.9125 29.6153 68.9093 29.6557C68.8776 30.1003 68.8747 30.5457 68.8692 30.9913C68.8543 32.1561 68.6888 33.1208 67.8199 33.9761C67.0846 34.6705 66.0798 34.9643 65.0988 35.0994C65.0742 35.1029 65.0496 35.1064 65.0243 35.11C64.7516 35.1431 64.4765 35.1389 64.2022 35.1388C64.1149 35.1389 64.0277 35.1395 63.9404 35.1401C63.5446 35.1415 63.1796 35.1135 62.8014 34.989C62.4023 34.8665 61.9927 34.7966 61.5805 34.733C61.5444 34.7274 61.5083 34.7218 61.4712 34.716C60.2167 34.533 58.882 34.5724 57.6266 34.733C57.5687 34.7399 57.5687 34.7399 57.5097 34.747C54.2218 35.146 51.0725 36.3822 43.9722 39.1948C43.8904 39.2287 43.8086 39.2625 43.7267 39.2962C43.0095 39.5922 42.2934 39.8911 41.5779 40.1911C41.4341 40.2514 41.2903 40.3117 41.1465 40.3719C40.234 40.7541 39.3229 41.1392 38.412 41.5252C36.8554 42.1848 35.297 42.8402 33.7342 43.4852C33.6366 43.5255 33.5389 43.5659 33.4413 43.6063C32.4372 44.0214 31.4295 44.4272 30.4184 44.8251C30.3727 44.8431 30.3727 44.8431 30.3261 44.8614C28.9933 45.3856 27.6543 45.899 26.2969 46.3573C26.2732 46.3653 26.2494 46.3733 26.2249 46.3816C24.2109 47.0609 22.139 47.5878 20.0268 47.8519C19.988 47.8568 19.988 47.8568 19.9485 47.8618C19.1495 47.9609 18.3538 48.0021 17.5488 47.9999C17.479 47.9997 17.4093 47.9996 17.3396 47.9995C16.6686 47.9983 16.005 47.9874 15.3399 47.8894C15.2997 47.8837 15.2596 47.878 15.2182 47.8721C13.177 47.5739 11.1556 46.8339 9.61914 45.4275C9.54887 45.3633 9.4773 45.3012 9.40488 45.2394C9.17574 45.0405 8.96761 44.8237 8.77242 44.592C8.7443 44.559 8.71618 44.5261 8.68721 44.4922C7.15827 42.6682 6.42002 40.3345 6.41851 37.9784C6.41849 37.9466 6.41846 37.9149 6.41844 37.8822C6.41903 37.3592 6.44178 36.8487 6.52741 36.3317C6.53316 36.2969 6.53891 36.262 6.54483 36.2261C6.68773 35.3916 6.9187 34.5294 7.3651 33.8004C7.3651 33.7784 7.3651 33.7564 7.3651 33.7338C6.35503 33.4099 5.02626 33.9867 4.1358 34.4374C4.11452 34.4482 4.09325 34.4591 4.07133 34.4702C3.27218 34.8775 2.3968 35.1694 1.50126 34.8995C0.92949 34.6892 0.513003 34.3028 0.253099 33.7525C-0.106056 32.8453 -0.0318157 31.8066 0.160953 30.8693C0.165422 30.8474 0.169894 30.8255 0.1745 30.8029C0.561687 28.909 1.18226 27.0987 1.88754 25.301C2.98167 22.5115 3.82809 19.7376 4.24051 15.6541C4.24249 15.6272 4.24448 15.6003 4.24652 15.5726C4.29726 14.8716 4.3205 14.1715 4.32258 13.4687C4.32298 13.3441 4.32363 13.2195 4.32436 13.0949C4.32639 12.7413 4.32824 12.3877 4.32935 12.0341C4.33004 11.8162 4.33124 11.5983 4.33273 11.3804C4.3332 11.2981 4.33349 11.2159 4.3336 11.1337C4.33483 10.2838 4.4202 9.51676 5.03318 8.86784C5.26138 8.65432 5.52262 8.49771 5.80215 8.36107C5.82527 8.34968 5.8484 8.33829 5.87222 8.32656C6.13585 8.19751 6.40257 8.07525 6.66982 7.95384C6.69635 7.94174 6.72289 7.92965 6.75023 7.91719C7.1898 7.71692 7.63108 7.52067 8.07328 7.32625C8.43045 7.16913 8.78646 7.00959 9.14208 6.84906C9.69149 6.60107 10.2426 6.35722 10.7954 6.1169C11.1958 5.94279 11.5955 5.76703 11.9948 5.59028C12.2145 5.49306 12.4343 5.39603 12.654 5.29897C12.7639 5.25047 12.8737 5.20192 12.9834 5.15331C13.5725 4.89266 14.1635 4.64118 14.7703 4.42325C14.8238 4.40402 14.8238 4.40402 14.8784 4.3844C15.9271 4.01206 17.036 3.72134 18.1546 3.69049C18.2088 3.68849 18.2088 3.68849 18.2641 3.68646C19.358 3.66494 20.4833 3.91924 21.2963 4.68373C21.3334 4.71966 21.3334 4.71966 21.3713 4.75633C21.395 4.77822 21.4187 4.80012 21.4432 4.82268C22.1484 5.49024 22.4806 6.54101 22.5142 7.48962C22.5163 7.60136 22.5169 7.71301 22.5168 7.82477C22.5169 7.86413 22.5169 7.9035 22.5169 7.94405C22.5151 8.24077 22.494 8.52734 22.4435 8.81983C22.487 8.82472 22.5305 8.82962 22.5754 8.83466C24.4924 9.06417 26.4373 9.91401 27.6603 11.4469C28.3074 12.2764 28.3074 12.2764 28.3074 12.5169C30.642 11.7298 32.9013 10.7637 35.1417 9.74446C35.2803 9.6814 35.419 9.61856 35.5578 9.55588C36.1368 9.29443 36.7135 9.02866 37.2881 8.7579C37.586 8.61753 37.8845 8.47847 38.1838 8.34103C38.7056 8.10113 39.2245 7.85509 39.7436 7.60948C40.043 7.46785 40.3427 7.32673 40.6424 7.18568C40.6951 7.1609 40.7477 7.13611 40.8004 7.11132C40.8793 7.07416 40.9583 7.03701 41.0372 6.99986C41.2241 6.91193 41.4108 6.82393 41.5976 6.7359C41.889 6.5986 42.1804 6.46143 42.4719 6.32435C42.5469 6.28907 42.6219 6.25376 42.6968 6.21845C43.2339 5.96563 43.7722 5.71584 44.3137 5.47255C44.6293 5.33074 44.9436 5.18634 45.2568 5.03929C45.7834 4.79213 46.3142 4.55527 46.8471 4.3219C47.0151 4.2483 47.1829 4.1742 47.3506 4.09981C49.8474 2.99362 52.4011 1.94951 56.4748 0.963446C56.5013 0.958578 56.5278 0.95371 56.5552 0.948694C56.8202 0.900667 57.0843 0.857906 57.3524 0.830737C57.9725 0.767666 58.494 0.596515 59.0687 0.369777C59.3633 0.254426 59.6645 0.167096 59.9721 0.0932907C60.0066 0.0845749 60.0411 0.075859 60.0767 0.066879C61.0164 -0.130531 61.9595 0.114705 62.6842 0.728213ZM58.846 1.1953C58.4479 1.37452 58.0708 1.43759 57.6375 1.48522C57.615 1.48769 57.5925 1.49017 57.5694 1.49272C57.5467 1.49522 57.524 1.49771 57.5006 1.50028C57.2406 1.52979 56.9834 1.57417 56.7261 1.62127C56.7029 1.62549 56.6798 1.62971 56.656 1.63407C56.2457 1.70959 55.8404 1.80195 55.4359 1.90352C55.3338 1.92871 55.2314 1.95178 55.1288 1.97459C52.2665 2.61564 49.5144 3.90347 43.5564 6.59841C43.2607 6.73715 42.9643 6.87445 42.6675 7.01082C42.326 7.16781 41.9867 7.32879 41.6481 7.49179C41.3811 7.62004 41.1127 7.74498 40.8434 7.86849C40.5221 8.01589 40.2026 8.16657 39.8843 8.32022C39.5357 8.48844 39.1854 8.65272 38.8335 8.81412C38.5266 8.9551 38.2211 9.0989 37.9159 9.24328C37.4463 9.46531 36.9752 9.6835 36.5013 9.89626C36.1724 10.0439 35.8447 10.194 35.5173 10.3449C33.6162 11.2204 31.6913 12.0604 29.7165 12.759C29.6417 12.7855 29.5671 12.8121 29.4924 12.8388C29.3543 12.888 29.2162 12.9369 29.078 12.9857C29.0247 13.0045 28.9713 13.0234 28.9181 13.0423C28.5838 13.1609 28.2499 13.2645 27.9053 13.3496C27.9011 13.3253 27.8969 13.301 27.8926 13.2759C27.7901 12.8186 27.4904 12.3801 27.2016 12.0173C27.1784 11.9869 27.1552 11.9565 27.1312 11.9251C26.7979 11.5014 26.4044 11.1269 25.9619 10.8183C25.9274 10.7942 25.893 10.7702 25.8575 10.7454C25.3611 10.4144 24.8191 10.1288 24.2513 9.94088C24.1825 9.91783 24.1144 9.89332 24.0462 9.86862C23.3055 9.60511 22.4947 9.45267 21.7064 9.45267C21.7103 9.35689 21.7145 9.26115 21.7189 9.16539C21.72 9.13912 21.721 9.11284 21.7221 9.08577C21.73 8.92057 21.7481 8.76024 21.774 8.59682C21.8116 8.34572 21.8185 8.09916 21.8174 7.84559C21.8173 7.8231 21.8173 7.80062 21.8172 7.77746C21.8128 6.82112 21.5552 5.91767 20.8687 5.22263C20.1164 4.5251 19.0857 4.36088 18.0937 4.38541C17.5545 4.40834 17.0265 4.50252 16.5041 4.63337C16.4102 4.65689 16.3161 4.67956 16.222 4.7022C14.9677 5.0096 13.7964 5.55907 12.6209 6.07963C12.4641 6.14901 12.3073 6.21821 12.1504 6.28742C11.8999 6.39802 11.6493 6.5087 11.3988 6.61946C11.1397 6.73404 10.8806 6.84853 10.6214 6.96294C9.96951 7.25069 9.31778 7.53867 8.66727 7.8294C8.57347 7.87132 8.47965 7.9132 8.38582 7.95506C8.07454 8.09392 7.7634 8.23308 7.45245 8.37268C7.2845 8.448 7.11632 8.52277 6.9479 8.59705C6.84179 8.64393 6.73584 8.69117 6.62991 8.73847C6.58075 8.76034 6.53151 8.78205 6.4822 8.80359C5.91714 9.05065 5.39146 9.35465 5.15359 9.95228C5.02027 10.3457 5.03885 10.7489 5.03946 11.1588C5.03919 11.2349 5.03886 11.311 5.03848 11.3871C5.03774 11.548 5.03724 11.7089 5.03694 11.8698C5.03606 12.2868 5.03299 12.7038 5.02964 13.1208C5.02916 13.1821 5.02916 13.1821 5.02866 13.2447C5.01769 14.5773 4.96456 15.9083 4.79544 17.2313C4.78412 17.3202 4.77308 17.4091 4.76207 17.4981C4.59132 18.8708 4.59132 18.8708 4.44129 19.5342C4.41727 19.641 4.39404 19.7479 4.37099 19.8549C4.18973 20.6955 3.98367 21.5257 3.71276 22.3426C3.70071 22.3794 3.68866 22.4161 3.67625 22.454C3.50968 22.9616 3.33521 23.4648 3.14366 23.9638C3.08487 24.1171 3.02947 24.2713 2.9756 24.4264C2.83112 24.8399 2.66559 25.2457 2.50165 25.6518C2.48434 25.6946 2.48434 25.6946 2.46668 25.7384C2.44556 25.7906 2.42438 25.8428 2.4031 25.8949C2.21508 26.3584 2.04712 26.829 1.88185 27.3009C1.84881 27.3952 1.81562 27.4894 1.78241 27.5837C1.67125 27.8999 1.56272 28.2163 1.46775 28.5378C1.4572 28.5733 1.44664 28.6088 1.43577 28.6453C1.20508 29.4268 1.00015 30.2094 0.84907 31.0101C0.833483 31.0902 0.816381 31.1698 0.798383 31.2495C0.726419 31.5866 0.72097 31.9228 0.720112 32.2661C0.719988 32.2899 0.719866 32.3136 0.719739 32.3381C0.718147 32.9254 0.796676 33.4959 1.22914 33.9302C1.55897 34.2343 1.90666 34.3162 2.34995 34.3082C2.87389 34.2733 3.32577 34.0594 3.78918 33.8331C4.8395 33.3202 6.28736 32.6909 7.47845 33.0374C7.72147 33.1211 7.88907 33.2173 8.03525 33.434C8.10993 33.6567 8.11417 33.8994 8.01719 34.1147C7.97067 34.1918 7.92346 34.268 7.87517 34.344C7.55295 34.8558 7.39243 35.5013 7.27295 36.0861C7.26297 36.1348 7.26297 36.1348 7.25278 36.1846C7.14908 36.7195 7.11968 37.24 7.12181 37.784C7.12217 37.8926 7.12181 38.0013 7.12138 38.1099C7.12041 39.5641 7.45531 41.0207 8.10227 42.3271C8.11382 42.3508 8.12537 42.3745 8.13726 42.399C8.51823 43.1752 9.04225 43.8719 9.64362 44.492C9.66152 44.5106 9.67942 44.5291 9.69786 44.5482C9.93442 44.7917 10.1769 45.0186 10.4478 45.2248C10.466 45.2388 10.4842 45.2528 10.503 45.2672C12.3636 46.6886 14.6979 47.2781 17.0153 47.3232C17.0484 47.3239 17.0814 47.3246 17.1155 47.3254C18.4617 47.3513 19.8113 47.2184 21.1367 46.9901C21.1779 46.9831 21.2191 46.9762 21.2616 46.969C22.6956 46.7241 24.1116 46.3432 25.4927 45.891C25.524 45.8807 25.5553 45.8705 25.5876 45.86C26.5961 45.5305 27.5934 45.1755 28.5833 44.7942C28.6757 44.7586 28.7681 44.7231 28.8605 44.6877C30.4726 44.0686 32.0733 43.4205 33.6686 42.7601C33.7136 42.7414 33.7136 42.7414 33.7595 42.7224C34.2098 42.5359 34.6598 42.3485 35.1094 42.1605C35.154 42.1419 35.154 42.1419 35.1995 42.1229C36.1697 41.7172 37.1381 41.3076 38.1063 40.8974C39.5516 40.2849 40.9985 39.6765 42.4482 39.0743C42.6551 38.9883 42.8618 38.902 43.0686 38.8156C43.9759 38.4365 44.886 38.0643 45.7984 37.6973C45.8353 37.6825 45.8723 37.6676 45.9103 37.6523C48.8942 36.4523 51.9315 35.2316 59.6999 33.9232C59.7329 33.9231 59.766 33.923 59.8001 33.9228C60.8828 33.9207 62.3306 33.94 63.3229 34.4332C63.3696 34.4369 63.4165 34.4385 63.4634 34.4391C63.5071 34.4397 63.5071 34.4397 63.5517 34.4404C63.5835 34.4406 63.6153 34.4409 63.648 34.4411C63.6811 34.4414 63.7142 34.4417 63.7484 34.442C63.819 34.4424 63.8897 34.4428 63.9603 34.443C64.0312 34.4434 64.1021 34.4441 64.173 34.4451C65.3762 34.462 66.5612 34.1881 67.4598 33.354C67.9528 32.8526 68.1504 32.1757 68.1551 31.4905C68.1559 31.4138 68.1568 31.3371 68.1577 31.2604C68.1582 31.2203 68.1586 31.1803 68.1591 31.139C68.1678 30.407 68.1945 29.6822 68.27 28.9541C68.2807 28.8503 68.2906 28.7465 68.3 28.6425C68.3513 28.0824 68.4251 27.5242 68.5367 26.9727C68.5505 26.9038 68.5637 26.8349 68.5768 26.7659C68.7247 25.9979 68.8907 25.2281 69.1299 24.4827C69.1539 24.4054 69.1759 24.3278 69.1973 24.2497C69.2985 23.8812 69.4156 23.5197 69.5407 23.1587C69.5484 23.1362 69.5562 23.1137 69.5642 23.0906C69.9376 22.0127 70.3945 20.9691 70.8956 19.9445C70.9142 19.9064 70.9328 19.8684 70.9519 19.8292C71.3829 18.951 71.8692 18.1025 72.3654 17.2595C72.7969 16.5253 73.19 15.7866 73.5088 14.9971C73.5528 14.8908 73.6015 14.7876 73.6516 14.684C74.0102 13.9207 74.2574 12.9707 74.0265 12.136C73.8469 11.6754 73.5422 11.3569 73.0989 11.1383C72.1507 10.7228 70.9739 10.8735 69.9909 11.0847C69.9532 11.0926 69.9154 11.1004 69.8765 11.1085C69.4821 11.1909 69.095 11.2896 68.7092 11.4053C68.1993 11.5569 67.7019 11.6611 67.1679 11.6655C67.1368 11.6659 67.1057 11.6662 67.0736 11.6666C66.7849 11.6629 66.5037 11.6141 66.2873 11.4117C66.0405 11.1083 66.0406 10.7235 66.0596 10.3533C66.0817 10.1482 66.1466 9.95604 66.2096 9.76039C66.3199 9.41722 66.3873 9.07012 66.4539 8.71646C66.4715 8.62587 66.4904 8.53576 66.5103 8.44564C66.5163 8.41832 66.5223 8.39101 66.5285 8.36287C66.5394 8.31408 66.5504 8.26532 66.5616 8.21661C66.6625 7.75862 66.6874 7.30096 66.6862 6.83387C66.6862 6.80619 66.6862 6.7785 66.6861 6.74997C66.6814 5.37961 66.1798 4.13431 65.2098 3.15341C64.5736 2.52905 63.7356 2.02269 62.8669 1.79979C62.6106 1.73272 62.4856 1.6474 62.3434 1.4183C62.1169 1.06432 61.7013 0.883921 61.3124 0.759439C60.4668 0.611469 59.6134 0.843764 58.846 1.1953Z" fill="#FDFEFE"/>
<path d="M46.4352 13.5488C47.2482 14.2596 47.6698 15.2875 47.9095 16.3133C47.9155 16.3382 47.9216 16.3632 47.9278 16.3889C48.1076 17.1376 48.1621 17.8893 48.1566 18.6573C48.1564 18.7152 48.1564 18.7152 48.1562 18.7743C48.1537 19.3374 48.1343 19.8867 48.0435 20.4434C48.0316 20.5238 48.0197 20.6043 48.0078 20.6847C47.7664 22.2654 47.2516 23.7454 46.5357 25.173C46.5235 25.1975 46.5113 25.2219 46.4987 25.247C46.1938 25.8506 45.8229 26.4134 45.3964 26.9383C45.3817 26.9568 45.367 26.9753 45.3518 26.9944C44.4416 28.1351 43.2823 28.9539 41.8293 29.2248C40.8808 29.3184 39.9091 29.1463 39.1466 28.5467C39.0377 28.4579 38.933 28.3651 38.8289 28.2706C38.8066 28.2508 38.7843 28.231 38.7614 28.2107C38.4167 27.888 38.1739 27.4855 37.9577 27.0716C37.9374 27.0334 37.9171 26.9952 37.8962 26.9559C37.5613 26.2879 37.3859 25.5477 37.2645 24.815C37.2605 24.791 37.2565 24.767 37.2524 24.7423C37.1794 24.273 37.1802 23.8002 37.1808 23.3266C37.1808 23.2939 37.1808 23.2613 37.1808 23.2277C37.1816 22.7839 37.1865 22.3437 37.2423 21.9028C37.2557 21.7961 37.2672 21.6892 37.2789 21.5824C37.4479 20.1209 37.8725 18.6824 38.495 17.3489C38.5271 17.2798 38.5583 17.2105 38.5895 17.141C38.8323 16.6067 39.1259 16.0933 39.4656 15.6138C39.4915 15.5764 39.5175 15.5389 39.5434 15.5014C39.8406 15.0762 40.1816 14.6917 40.5378 14.3148C40.5584 14.293 40.5789 14.2711 40.6001 14.2486C40.7668 14.077 40.9524 13.9291 41.141 13.7819C41.1586 13.7678 41.1762 13.7537 41.1943 13.7392C41.7006 13.336 42.2891 13.0176 42.9169 12.8493C42.9525 12.8392 42.9882 12.8291 43.025 12.8187C44.2314 12.4954 45.4864 12.7489 46.4352 13.5488Z" fill="#FEFEFE"/>
<path d="M58.263 1.42559C58.1717 1.49775 58.0837 1.55043 57.9773 1.59759C57.9336 1.61733 57.9336 1.61733 57.8891 1.63747C57.8584 1.65136 57.8277 1.66525 57.796 1.67956C56.9758 2.06026 56.4411 2.60128 56.085 3.42404C56.0563 3.4048 56.0276 3.38557 55.998 3.36575C55.403 2.97251 54.8263 2.79231 54.1116 2.91701C52.8436 3.17461 51.0312 3.79359 50.2667 4.9027C49.9626 5.3874 49.8472 5.87946 49.7646 6.43836C49.7564 6.4932 49.7481 6.54804 49.7397 6.60288C49.7211 6.72628 49.7025 6.84969 49.6839 6.97311C49.647 7.21887 49.6092 7.46451 49.5714 7.71015C49.568 7.73251 49.5646 7.75487 49.561 7.77791C49.5471 7.86823 49.5332 7.95855 49.5194 8.04887C49.4825 8.2888 49.4457 8.52875 49.4089 8.7687C49.3999 8.827 49.3999 8.827 49.3908 8.88648C49.3772 8.97529 49.3636 9.0641 49.35 9.15291C49.3182 9.16397 49.2865 9.17503 49.2538 9.18643C49.1344 9.22815 49.0151 9.27035 48.896 9.3127C48.8447 9.33085 48.7933 9.34887 48.7419 9.36676C48.1489 9.57339 47.6384 9.83769 47.3395 10.4186C47.2123 10.6901 47.1289 10.959 47.0652 11.2513C47.0528 11.3055 47.0528 11.3055 47.0401 11.3608C46.9861 11.6006 46.9421 11.8412 46.9039 12.084C46.8763 12.0674 46.8486 12.0509 46.8201 12.0339C46.1976 11.6674 45.5449 11.4167 44.8264 11.3179C44.804 11.3147 44.7815 11.3115 44.7584 11.3082C43.1378 11.1006 41.5926 11.6502 40.3134 12.6148C40.131 12.7548 39.961 12.9066 39.7931 13.0633C39.7097 13.1406 39.6247 13.2152 39.5385 13.2893C39.4237 13.3903 39.3221 13.4967 39.2233 13.6132C39.1833 13.6599 39.1421 13.7055 39.0998 13.7501C38.463 14.4232 37.9788 15.2305 37.5327 16.0355C37.486 16.1182 37.4372 16.1995 37.3877 16.2807C37.2826 16.2349 37.2194 16.1838 37.1427 16.0996C36.375 15.3209 35.1703 14.8858 34.0874 14.8729C34.0126 14.8726 33.9379 14.8727 33.8632 14.8731C33.7879 14.8735 33.7127 14.8731 33.6374 14.8727C32.3467 14.8713 31.0579 15.3275 30.0161 16.0808C29.9837 16.104 29.9513 16.1271 29.9179 16.151C29.3592 16.5585 28.8243 17.0219 28.3742 17.5464C28.3462 17.5779 28.3182 17.6095 28.2894 17.642C27.7182 18.2914 27.2552 19.027 26.8328 19.778C26.8191 19.8022 26.8053 19.8265 26.7911 19.8515C26.1557 20.9792 25.7224 22.2199 25.4255 23.4751C25.4034 23.4751 25.3813 23.4751 25.3585 23.4751C25.3062 23.4081 25.2577 23.341 25.2098 23.2711C24.9506 22.9018 24.6678 22.5538 24.3734 22.2117C24.2949 22.1202 24.2193 22.0266 24.1438 21.9325C23.9733 21.724 23.787 21.5308 23.6013 21.3359C23.5104 21.2405 23.4212 21.1439 23.3334 21.0457C23.109 20.796 22.8757 20.5543 22.6444 20.3109C22.0202 19.6543 22.0202 19.6543 21.8067 19.4116C21.7642 19.3633 21.7642 19.3633 21.7208 19.314C21.2411 18.7627 20.8215 18.1866 20.5334 17.5131C20.5151 17.4718 20.5151 17.4718 20.4965 17.4297C20.3838 17.1287 20.363 16.675 20.4852 16.3744C20.523 16.3088 20.523 16.3088 20.5669 16.2474C20.5824 16.2244 20.5979 16.2014 20.6139 16.1776C20.7767 15.9655 21.0019 15.8167 21.2688 15.7696C21.5418 15.7385 21.7804 15.7609 22.0102 15.9237C22.1704 16.0658 22.2343 16.2081 22.2503 16.4199C22.2557 16.6915 22.2272 16.9148 22.1408 17.176C21.9997 17.6261 22.06 18.107 22.2652 18.5282C22.3399 18.6595 22.4096 18.7787 22.5177 18.8856C22.5774 18.9453 22.5774 18.9453 22.5774 19.0119C22.5964 19.0206 22.6154 19.0293 22.6351 19.0383C22.7173 19.0816 22.786 19.1329 22.8601 19.1888C23.3784 19.5536 24.0351 19.6173 24.6504 19.5314C25.7743 19.3269 26.7644 18.6775 27.4157 17.746C27.6594 17.3831 27.8418 16.997 27.9721 16.5805C27.984 16.5437 27.996 16.5069 28.0083 16.469C28.3164 15.47 28.2546 14.4724 27.956 13.4816C27.9386 13.4163 27.9386 13.4163 27.9386 13.3496C27.9971 13.3315 27.9971 13.3315 28.0568 13.3129C29.5556 12.8461 31.016 12.2922 32.4621 11.6843C32.5018 11.6676 32.5018 11.6676 32.5424 11.6506C33.1677 11.3878 33.7898 11.1188 34.4083 10.8406C34.5803 10.7633 34.7526 10.6867 34.9249 10.6101C35.5832 10.3174 36.238 10.0184 36.8897 9.71147C37.111 9.60733 37.3331 9.50492 37.5553 9.40271C38.4646 8.984 39.3698 8.55666 40.2753 8.12993C41.0818 7.74987 41.8884 7.37008 42.6956 6.99164C42.8419 6.92303 42.9881 6.85433 43.1344 6.78555C43.6485 6.54375 44.1638 6.30495 44.6821 6.0721C44.9976 5.93031 45.3118 5.78593 45.625 5.63891C46.1954 5.37123 46.7705 5.11474 47.3483 4.86295C47.4119 4.83521 47.4755 4.80746 47.5392 4.77969C49.0443 4.12289 50.5575 3.4959 52.0976 2.92443C52.1371 2.90975 52.1765 2.89508 52.2172 2.87996C52.8324 2.65194 53.4526 2.4359 54.0871 2.26713C54.1981 2.23746 54.3081 2.20558 54.418 2.17241C55.4241 1.86966 56.4492 1.65524 57.4881 1.50053C57.5133 1.49676 57.5384 1.49299 57.5642 1.48911C57.6365 1.47832 57.7088 1.46779 57.7811 1.45734C57.8231 1.45121 57.8651 1.44508 57.9084 1.43877C58.0277 1.42568 58.1431 1.42326 58.263 1.42559Z" fill="#7E7E7E"/>
<path d="M34.3388 16.313C34.3736 16.316 34.4083 16.319 34.4441 16.322C35.2166 16.4196 35.9504 16.8621 36.4498 17.4455C36.9764 18.1219 37.1147 18.8851 37.0435 19.7212C36.9316 20.4369 36.5493 21.0926 35.964 21.5256C35.5471 21.8056 35.0195 22.0498 34.5064 21.9753C34.3499 21.8973 34.3499 21.8973 34.3053 21.8088C34.2949 21.6352 34.3238 21.4887 34.3723 21.3237C34.4753 20.9424 34.4767 20.5838 34.3388 20.21C34.3299 20.1857 34.3209 20.1614 34.3117 20.1364C34.2144 19.9118 34.0355 19.7453 33.8111 19.6459C33.4613 19.5359 33.1305 19.6217 32.8163 19.7832C31.7671 20.3934 31.155 21.7365 30.8577 22.8595C30.8452 22.9089 30.8328 22.9584 30.8205 23.0078C30.8126 23.0385 30.8048 23.0691 30.7966 23.1006C30.4103 24.6142 29.9925 26.9043 30.8288 28.3481C31.0108 28.6233 31.2241 28.8284 31.5242 28.9698C31.548 28.9811 31.5718 28.9924 31.5963 29.0041C32.0133 29.1621 32.5649 29.1105 32.965 28.9365C34.1174 28.4199 34.7824 27.2955 35.3066 26.2088C35.4443 25.9241 35.58 25.7011 35.8802 25.5725C36.0213 25.5461 36.1255 25.561 36.255 25.6266C36.4626 25.8009 36.5993 25.9905 36.6264 26.2631C36.6297 26.3661 36.6296 26.4686 36.6278 26.5717C36.6274 26.6087 36.6271 26.6456 36.6267 26.6837C36.6219 26.9729 36.6016 27.2525 36.5503 27.5376C36.5465 27.5596 36.5428 27.5815 36.5389 27.6041C36.297 28.9638 35.6114 30.2567 34.6553 31.251C34.6225 31.2851 34.5899 31.3194 34.5575 31.3538C34.1225 31.8138 33.6318 32.1813 33.0655 32.4671C33.0449 32.4777 33.0243 32.4882 33.003 32.4991C32.3257 32.8416 31.6468 33.0058 30.8875 33.0063C30.8539 33.0067 30.8203 33.0071 30.7857 33.0075C30.5555 33.008 30.3416 32.9818 30.1169 32.9334C30.0557 32.921 30.0557 32.921 29.9933 32.9083C29.1881 32.7129 28.4554 32.2469 27.9389 31.6011C27.9257 31.5848 27.9126 31.5684 27.899 31.5515C27.1387 30.5948 26.699 29.3784 26.5651 28.1705C26.5617 28.1407 26.5583 28.1109 26.5549 28.0802C26.2282 25.0137 27.0261 21.7878 28.8436 19.2774C28.8603 19.254 28.877 19.2306 28.8942 19.2065C29.1116 18.9032 29.3467 18.6264 29.6067 18.3582C29.6813 18.2812 29.7523 18.2023 29.8217 18.1206C29.8887 18.042 29.9558 17.9701 30.0352 17.9035C30.0581 17.8842 30.0811 17.8649 30.1047 17.845C30.1308 17.8231 30.157 17.8012 30.1839 17.7786C30.2145 17.7515 30.2451 17.7244 30.2767 17.6965C31.4185 16.6939 32.814 16.1786 34.3388 16.313Z" fill="#FEFEFE"/>
<path d="M56.3302 29.4268C56.4203 29.437 56.5104 29.4456 56.6006 29.4542C58.3265 29.633 60.0291 30.3356 61.2948 31.5233C61.3637 31.5877 61.4337 31.6484 61.5067 31.7081C61.6349 31.8162 61.7398 31.9408 61.8481 32.0682C61.8753 32.0986 61.9026 32.1291 61.9307 32.1604C62.2745 32.5474 62.5537 32.9756 62.8072 33.4255C62.828 33.4623 62.828 33.4623 62.8492 33.5C62.921 33.6306 62.9786 33.7565 63.0208 33.9001C62.8849 33.767 62.7547 33.6292 62.625 33.49C62.035 32.8606 61.3822 32.3373 60.6123 31.9385C60.5461 31.9042 60.4805 31.869 60.4148 31.8336C59.8669 31.5442 59.267 31.3169 58.6648 31.1689C58.6355 31.161 58.6061 31.1531 58.5758 31.145C58.4719 31.1176 58.3675 31.0931 58.2627 31.069C58.2363 31.0627 58.2098 31.0565 58.1825 31.0501C57.6211 30.9196 57.0609 30.8508 56.4868 30.8025C56.452 30.7993 56.4171 30.7961 56.3811 30.7928C56.0813 30.767 55.7823 30.7612 55.4816 30.7609C55.4551 30.7608 55.4286 30.7608 55.4013 30.7607C54.1911 30.7612 53.0129 30.9317 51.8293 31.1689C51.7963 31.1755 51.7633 31.1821 51.7293 31.1888C51.0782 31.3196 50.4434 31.4947 49.8064 31.6804C49.6501 31.7259 49.4935 31.7702 49.3368 31.8138C48.7391 31.9807 48.1497 32.1729 47.5648 32.3793C47.4052 32.4354 47.2446 32.4882 47.0837 32.5407C46.902 32.6002 46.7236 32.6636 46.5468 32.7367C46.4546 32.7729 46.3613 32.8037 46.267 32.8343C46.0848 32.8936 45.9081 32.9616 45.7309 33.0341C45.4256 33.1591 45.119 33.2746 44.8062 33.3797C44.6252 33.4412 44.4494 33.5114 44.2732 33.5854C44.1361 33.6418 43.9981 33.6956 43.8598 33.7489C43.8197 33.7644 43.8197 33.7644 43.7787 33.7802C43.7224 33.8019 43.666 33.8236 43.6096 33.8453C42.9471 34.1006 42.288 34.3634 41.6302 34.6305C41.5031 34.6821 41.3759 34.7336 41.2487 34.7852C40.0728 35.2615 38.8979 35.7401 37.7244 36.2222C37.093 36.4816 36.461 36.7398 35.8288 36.9971C35.7442 37.0316 35.6595 37.066 35.5749 37.1005C32.6888 38.2757 32.6888 38.2757 31.5825 38.7131C31.4399 38.7695 31.2975 38.8263 31.155 38.8831C30.4609 39.1596 29.7661 39.4342 29.0707 39.7074C29.0065 39.7326 28.9423 39.7578 28.8781 39.783C28.8469 39.7953 28.8157 39.8075 28.7835 39.8202C28.6041 39.8907 28.4249 39.9617 28.2459 40.0332C27.9178 40.1642 27.5883 40.2912 27.2577 40.4159C26.8444 40.5718 26.4332 40.7318 26.0238 40.8976C25.5354 41.0952 25.04 41.2679 24.5391 41.4313C24.4587 41.4591 24.3811 41.4903 24.3027 41.5233C24.1081 41.6028 23.9067 41.6595 23.7049 41.7179C23.5533 41.7619 23.4034 41.8087 23.254 41.8595C23.038 41.9318 22.8191 41.9886 22.598 42.0438C22.3683 42.1015 22.1395 42.1604 21.9122 42.2272C21.6547 42.3009 21.3947 42.3549 21.1321 42.406C21.1073 42.4108 21.0825 42.4157 21.0569 42.4207C20.6564 42.4993 20.2549 42.5714 19.8525 42.6391C19.8277 42.6434 19.8029 42.6476 19.7773 42.652C19.4932 42.7002 19.2118 42.7373 18.9235 42.7524C18.8271 42.7575 18.8271 42.7575 18.7453 42.7762C18.6205 42.8001 18.4952 42.8054 18.3685 42.8115C18.3405 42.8129 18.3125 42.8143 18.2837 42.8157C17.9794 42.8299 17.6754 42.8331 17.3708 42.8327C17.342 42.8327 17.3131 42.8327 17.2834 42.8327C16.4579 42.8311 15.6503 42.771 14.8368 42.6266C14.8092 42.6219 14.7815 42.6172 14.753 42.6124C12.8217 42.2786 10.9249 41.2413 9.71014 39.6956C9.68371 39.6632 9.65728 39.6308 9.63004 39.5975C9.28362 39.1654 9.00683 38.6917 8.76887 38.1932C8.73945 38.1323 8.70879 38.0719 8.67808 38.0116C8.41099 37.4741 8.25154 36.8997 8.14942 36.3105C8.13599 36.2356 8.12072 36.1613 8.10492 36.0868C8.03594 35.7416 8.02588 35.4 8.02638 35.0492C8.02641 35.0263 8.02643 35.0035 8.02645 34.9799C8.02895 34.2252 8.02895 34.2252 8.13528 34.0666C8.13896 34.0952 8.14263 34.1238 8.14641 34.1533C8.32118 35.4798 8.70756 36.7677 9.5091 37.8637C9.53199 37.8955 9.55488 37.9273 9.57847 37.9601C10.0269 38.5696 10.54 39.1128 11.151 39.5624C11.1694 39.5762 11.1879 39.5901 11.2069 39.6044C12.7438 40.7602 14.7048 41.2866 16.6127 41.3276C16.6537 41.3287 16.6946 41.3298 16.7368 41.3309C19.1227 41.3902 21.4948 40.8805 23.7446 40.1197C23.8163 40.0955 23.888 40.0716 23.9598 40.0477C24.9378 39.7219 25.8967 39.3443 26.8573 38.9718C26.987 38.9216 27.1167 38.8715 27.2464 38.8215C28.6356 38.2857 30.0193 37.7363 31.4029 37.1864C31.4883 37.1525 31.5738 37.1185 31.6592 37.0846C32.7257 36.6608 33.7902 36.2324 34.8535 35.8007C34.8876 35.7868 34.9218 35.773 34.957 35.7587C35.472 35.5497 35.9867 35.3401 36.5013 35.1301C36.964 34.9413 37.4269 34.7528 37.89 34.5647C37.9369 34.5456 37.9369 34.5456 37.9849 34.5261C38.0486 34.5002 38.1123 34.4743 38.176 34.4485C38.3587 34.3742 38.5413 34.2998 38.7238 34.2252C39.6575 33.8439 40.5939 33.4696 41.5309 33.0966C41.6285 33.0577 41.7261 33.0189 41.8236 32.98C42.6665 32.644 43.5114 32.314 44.3599 31.9926C44.418 31.9706 44.4761 31.9485 44.5342 31.9265C46.3886 31.2223 48.2663 30.5708 50.1874 30.0697C50.2124 30.0632 50.2374 30.0567 50.2632 30.0499C52.2193 29.5389 54.3073 29.1949 56.3302 29.4268Z" fill="#FDFEFE"/>
<path d="M58.2639 1.42559C58.1726 1.49775 58.0846 1.55043 57.9782 1.59759C57.9491 1.61075 57.92 1.62391 57.89 1.63747C57.8439 1.65831 57.8439 1.65831 57.7969 1.67956C56.9766 2.06026 56.4419 2.60128 56.0859 3.42404C56.0572 3.4048 56.0284 3.38557 55.9988 3.36575C55.4039 2.97251 54.8271 2.79231 54.1125 2.91701C52.8489 3.17372 51.0279 3.79255 50.2688 4.90153C50.1649 5.06733 50.1649 5.06733 50.0954 5.24906C50.0447 5.4036 49.9891 5.51256 49.8504 5.59978C49.624 5.71229 49.3838 5.7924 49.1456 5.87629C49.0682 5.90479 48.9908 5.93346 48.9135 5.96228C48.7557 6.02105 48.5977 6.07927 48.4396 6.13716C48.1091 6.25898 47.7833 6.39191 47.4577 6.52579C47.3969 6.55065 47.3361 6.5755 47.2753 6.60034C47.0958 6.67374 46.9165 6.74752 46.7373 6.82139C46.6942 6.83913 46.6942 6.83913 46.6502 6.85722C45.2561 7.43127 43.8674 8.01942 42.4883 8.62842C42.2246 8.74483 41.9603 8.86003 41.696 8.97526C41.6086 9.01339 41.5212 9.05153 41.4337 9.08967C41.2009 9.19124 40.9681 9.29278 40.7352 9.39429C40.1243 9.66064 39.5134 9.92737 38.9033 10.1956C36.8257 11.1088 36.8257 11.1088 35.7823 11.5507C35.6131 11.6223 35.4441 11.6942 35.2752 11.7662C33.1976 12.6517 31.1024 13.5365 28.9384 14.1948C28.9002 14.2065 28.9002 14.2065 28.8612 14.2184C28.7895 14.2402 28.7177 14.2617 28.6459 14.283C28.6055 14.295 28.5652 14.307 28.5236 14.3194C28.4073 14.3492 28.2931 14.3676 28.174 14.3822C28.1683 14.3551 28.1626 14.328 28.1567 14.3001C28.0891 13.9821 28.0151 13.6658 27.9395 13.3496C27.998 13.3315 27.998 13.3315 28.0577 13.3129C29.5565 12.8461 31.0168 12.2922 32.463 11.6843C32.5027 11.6676 32.5027 11.6676 32.5433 11.6506C33.1685 11.3878 33.7907 11.1188 34.4092 10.8406C34.5812 10.7633 34.7535 10.6867 34.9258 10.6101C35.5841 10.3174 36.2389 10.0184 36.8906 9.71147C37.1119 9.60733 37.3339 9.50492 37.5562 9.40271C38.4654 8.984 39.3707 8.55666 40.2762 8.12993C41.0827 7.74987 41.8892 7.37008 42.6965 6.99164C42.8428 6.92303 42.989 6.85433 43.1352 6.78555C43.6494 6.54375 44.1646 6.30495 44.6829 6.0721C44.9985 5.93031 45.3127 5.78593 45.6258 5.63891C46.1963 5.37123 46.7714 5.11474 47.3491 4.86295C47.4128 4.83521 47.4764 4.80746 47.54 4.77969C49.0452 4.12289 50.5584 3.4959 52.0985 2.92443C52.1379 2.90975 52.1774 2.89508 52.218 2.87996C52.8332 2.65194 53.4535 2.4359 54.088 2.26713C54.1989 2.23746 54.309 2.20558 54.4189 2.17241C55.425 1.86966 56.4501 1.65524 57.489 1.50053C57.5141 1.49676 57.5392 1.49299 57.5651 1.48911C57.6374 1.47832 57.7096 1.46779 57.782 1.45734C57.824 1.45121 57.866 1.44508 57.9093 1.43877C58.0286 1.42568 58.144 1.42326 58.2639 1.42559Z" fill="#666666"/>
<path d="M44.0901 16.1641C44.5276 16.5104 44.6457 17.0524 44.7109 17.5802C44.7308 17.7627 44.7322 17.944 44.7324 18.1274C44.7326 18.1817 44.7326 18.1817 44.7328 18.2371C44.7329 18.3136 44.733 18.3902 44.733 18.4667C44.7331 18.5811 44.7337 18.6954 44.7343 18.8098C44.7359 19.4295 44.7046 20.0447 44.599 20.6564C44.5934 20.6904 44.5877 20.7244 44.5818 20.7594C43.9455 24.4935 43.9455 24.4935 42.6494 25.4566C42.3858 25.6292 42.1306 25.7196 41.8116 25.6733C41.5079 25.5756 41.3325 25.3966 41.1896 25.1196C40.9817 24.6379 40.9028 24.0993 40.9001 23.5787C40.8999 23.5479 40.8996 23.517 40.8994 23.4852C40.8988 23.3853 40.8986 23.2855 40.8985 23.1857C40.8985 23.1515 40.8985 23.1173 40.8984 23.082C40.8988 22.5067 40.9296 21.9472 41.0074 21.3767C41.0144 21.3214 41.0144 21.3214 41.0216 21.265C41.2326 19.6011 41.6328 17.4338 42.985 16.2963C43.2873 16.0734 43.752 15.9528 44.0901 16.1641Z" fill="#666666"/>
<path d="M20.7349 5.12256C20.7688 5.14909 20.7688 5.14909 20.8034 5.17616C21.3953 5.65419 21.7193 6.48766 21.7997 7.2232C21.8155 7.43035 21.8171 7.6378 21.8176 7.84544C21.8178 7.88842 21.818 7.93139 21.8182 7.97567C21.8163 8.22567 21.7952 8.46502 21.756 8.71189C21.7338 8.8628 21.7252 9.01296 21.7192 9.16524C21.7179 9.19332 21.7166 9.2214 21.7153 9.25033C21.7122 9.31772 21.7094 9.38512 21.7066 9.45252C21.7509 9.46351 21.7951 9.4745 21.8407 9.48583C21.7854 9.48583 21.7301 9.48583 21.6731 9.48583C21.6724 9.45119 21.6724 9.45119 21.6716 9.41585C21.6479 8.40734 21.547 7.39776 20.7967 6.64416C20.0672 5.95987 19.1036 5.79206 18.1357 5.81252C16.4332 5.87385 14.8119 6.49926 13.2607 7.14858C11.538 7.86972 9.79924 8.55792 8.05645 9.22978C8.02376 9.24238 7.99107 9.25499 7.95738 9.26798C7.61062 9.40149 7.26309 9.5327 6.91418 9.66056C6.86774 9.67763 6.86774 9.67763 6.82036 9.69505C6.67581 9.74818 6.53117 9.80096 6.38618 9.8529C5.93522 10.0164 5.49504 10.1934 5.24416 10.6273C5.1346 10.8669 5.11326 11.1251 5.08683 11.3843C5.07577 11.3843 5.06471 11.3843 5.05332 11.3843C5.0508 11.25 5.04899 11.1156 5.0478 10.9812C5.0473 10.9357 5.04662 10.8902 5.04574 10.8447C5.0359 10.3232 5.11165 9.86 5.45332 9.45044C5.78831 9.10485 6.23172 8.9103 6.66588 8.71768C6.72046 8.69313 6.77504 8.66855 6.8296 8.64395C6.99676 8.56874 7.16426 8.49428 7.33184 8.41999C7.35735 8.40867 7.38286 8.39735 7.40914 8.38569C7.63045 8.28751 7.85188 8.1896 8.07352 8.09216C8.43072 7.93507 8.78673 7.7755 9.14238 7.61496C9.66743 7.37795 10.1939 7.14466 10.7223 6.91511C11.118 6.7432 11.5125 6.56908 11.906 6.39238C18.6717 3.3544 18.6717 3.3544 20.7349 5.12256Z" fill="#666666"/>
<path d="M66.0042 10.3516C66.0152 10.3516 66.0263 10.3516 66.0377 10.3516C66.0386 10.391 66.0394 10.4304 66.0403 10.471C66.0528 10.8621 66.0814 11.1943 66.3728 11.484C66.7325 11.7546 67.3305 11.6837 67.7509 11.6323C68.2017 11.5645 68.6408 11.4335 69.078 11.3077C69.4246 11.2082 69.7725 11.1242 70.1256 11.051C70.1613 11.0435 70.197 11.0359 70.2337 11.0282C71.2037 10.8319 72.4348 10.7331 73.3168 11.2552C73.6802 11.4999 73.9395 11.8186 74.0574 12.2449C74.2289 13.1442 73.9672 14.1206 73.5434 14.9147C73.5 14.7853 73.5355 14.6972 73.5727 14.5712C73.714 14.0817 73.7748 13.5055 73.5373 13.038C73.3517 12.7245 73.0677 12.5699 72.7221 12.4758C71.5274 12.2112 70.292 12.5452 69.1371 12.8519C68.974 12.8951 68.8107 12.9373 68.6471 12.9787C68.6228 12.985 68.5985 12.9914 68.5734 12.9979C68.1999 13.0923 67.8299 13.1281 67.445 13.1286C67.4059 13.1294 67.3668 13.1302 67.3264 13.131C66.9308 13.1323 66.5426 13.0484 66.2387 12.783C65.8434 12.3759 65.8218 11.9132 65.8267 11.3765C65.8364 11.0318 65.8942 10.6795 66.0042 10.3516Z" fill="#666666"/>
<path d="M32.7971 21.876C32.8192 21.876 32.8413 21.876 32.8641 21.876C32.8715 21.9102 32.8788 21.9444 32.8864 21.9797C32.9903 22.4405 33.147 22.8187 33.5495 23.099C33.9052 23.3202 34.2734 23.4213 34.6924 23.4206C34.7212 23.4206 34.75 23.4207 34.7798 23.4207C35.0226 23.4168 35.2392 23.3721 35.4714 23.304C35.5782 23.2749 35.5782 23.2749 35.7123 23.2749C35.7123 23.5607 35.7123 23.8464 35.7123 24.1409C35.6314 24.169 35.5506 24.1972 35.4672 24.2262C34.65 24.5251 34.2106 25.1514 33.8379 25.902C33.5481 26.4846 33.0913 27.3956 32.4285 27.6382C32.3215 27.6606 32.2331 27.6663 32.127 27.6382C31.897 27.4216 31.8657 26.9794 31.854 26.6811C31.8536 26.6365 31.8533 26.5919 31.8533 26.5473C31.8531 26.5231 31.853 26.4989 31.8528 26.474C31.8525 26.3958 31.8525 26.3175 31.8526 26.2392C31.8526 26.2123 31.8527 26.1854 31.8527 26.1577C31.8564 24.7115 32.077 23.156 32.7971 21.876Z" fill="#666666"/>
<path d="M43.37 17.8042C43.4537 17.8125 43.4537 17.8125 43.5207 17.8791C43.5313 17.9675 43.538 18.0528 43.5417 18.1414C43.5436 18.1765 43.5436 18.1765 43.5456 18.2122C43.5652 18.6002 43.5509 18.9864 43.527 19.3738C43.5255 19.3979 43.5241 19.422 43.5225 19.4469C43.4812 20.1057 43.3823 20.7406 43.2392 21.385C43.2213 21.4668 43.2044 21.5487 43.188 21.6308C43.0735 22.1939 42.8893 22.7413 42.6768 23.2749C42.6664 23.301 42.6561 23.327 42.6454 23.3538C42.4663 23.7902 42.4663 23.7902 42.348 23.9078C42.2663 23.9161 42.2663 23.9161 42.1804 23.9078C42.111 23.8042 42.1049 23.781 42.1042 23.6635C42.1039 23.6343 42.1036 23.605 42.1033 23.5749C42.1033 23.5432 42.1033 23.5115 42.1033 23.4788C42.1031 23.4458 42.103 23.4128 42.1028 23.3788C42.1024 23.2713 42.1026 23.1639 42.1029 23.0564C42.103 23.0197 42.1031 22.9831 42.1032 22.9454C42.1051 22.4038 42.1215 21.8779 42.2139 21.3431C42.222 21.295 42.23 21.2469 42.2379 21.1989C42.7966 17.8612 42.7966 17.8612 43.37 17.8042Z" fill="#666666"/>
<path d="M62.5527 1.7251C62.8324 1.76177 63.067 1.84414 63.3234 1.95825C63.3649 1.97537 63.4064 1.99236 63.448 2.00925C64.1122 2.28232 64.6777 2.66801 65.1998 3.15732C65.2241 3.1793 65.2484 3.20128 65.2734 3.22393C66.0971 3.99873 66.6332 5.19428 66.6796 6.31931C66.6802 6.36693 66.6807 6.41455 66.681 6.46216C66.6813 6.50089 66.6813 6.50089 66.6817 6.5404C66.6822 6.62357 66.6824 6.70673 66.6826 6.7899C66.6826 6.81811 66.6827 6.84631 66.6828 6.87537C66.6833 7.31945 66.6567 7.74942 66.5737 8.18673C66.5626 8.18673 66.5515 8.18673 66.5401 8.18673C66.5438 8.12374 66.5438 8.12374 66.5475 8.05949C66.6176 6.77942 66.5839 5.55753 65.736 4.52292C65.7153 4.4954 65.6946 4.46788 65.6733 4.43952C65.0568 3.72104 64.0653 3.43841 63.1782 3.24387C63.0585 3.21715 62.9397 3.18752 62.8208 3.15732C62.8205 3.13756 62.8202 3.1178 62.8198 3.09745C62.8101 2.60518 62.7686 2.17575 62.5527 1.7251Z" fill="#666666"/>
<path d="M63.9066 11.4938C64.0634 11.5965 64.1749 11.6876 64.2697 11.8503C64.2865 11.8785 64.3032 11.9067 64.3205 11.9357C64.4409 12.1721 64.4406 12.4969 64.3662 12.7483C64.2166 13.0653 63.9838 13.2566 63.6582 13.3825C63.3564 13.4553 63.0516 13.431 62.7803 13.2729C62.5519 13.1112 62.3705 12.9196 62.2844 12.6497C62.2448 12.3283 62.2653 12.056 62.4519 11.7837C62.4713 11.7535 62.4906 11.7233 62.5106 11.6921C62.9 11.305 63.4229 11.2272 63.9066 11.4938Z" fill="#666666"/>
<path d="M62.7206 18.2119C62.7793 18.2542 62.7793 18.2542 62.8211 18.3118C62.8503 18.5378 62.7384 18.7277 62.62 18.9113C62.6532 18.9223 62.6864 18.9333 62.7206 18.9447C62.783 19.0688 62.7465 19.2119 62.7206 19.3443C62.6682 19.4505 62.6682 19.4505 62.5865 19.5442C62.5709 19.5626 62.5553 19.5809 62.5393 19.5999C62.3348 19.8091 62.0599 19.8888 61.7897 19.9841C61.675 20.0248 61.5612 20.0677 61.4473 20.1104C61.4979 19.5623 61.5907 19.0209 61.6818 18.4783C61.7088 18.4696 61.7358 18.4609 61.7637 18.4518C61.8173 18.4343 61.8173 18.4343 61.872 18.4164C61.9073 18.4049 61.9426 18.3934 61.979 18.3816C62.0743 18.3485 62.1656 18.3112 62.2577 18.2702C62.4086 18.209 62.5588 18.1754 62.7206 18.2119Z" fill="#F6F9FC"/>
<path d="M67.4781 16.3472C67.4605 16.6482 67.4236 16.9438 67.3741 17.2412C67.3628 17.3095 67.3518 17.3779 67.3408 17.4463C67.3336 17.4906 67.3263 17.535 67.319 17.5793C67.3126 17.6186 67.3061 17.6578 67.2995 17.6983C67.2761 17.8172 67.2451 17.9299 67.21 18.0458C67.1672 18.0527 67.1243 18.0596 67.0802 18.0667C66.9466 18.0951 66.851 18.1427 66.7367 18.2165C66.5981 18.3038 66.5063 18.3456 66.3388 18.3123C66.237 18.2371 66.208 18.1961 66.1846 18.0708C66.1825 17.7331 66.2351 17.4651 66.4742 17.2056C66.5386 17.1473 66.6017 17.0951 66.6739 17.0466C66.6932 17.0337 66.7124 17.0207 66.7323 17.0073C66.8477 16.9656 66.9536 16.976 67.076 16.98C67.0785 16.9427 67.081 16.9054 67.0836 16.8669C67.088 16.8179 67.0924 16.7688 67.0969 16.7198C67.0992 16.6829 67.0992 16.6829 67.1015 16.6453C67.1087 16.5734 67.1087 16.5734 67.143 16.4471C67.265 16.3611 67.3278 16.3472 67.4781 16.3472Z" fill="#F6F9FC"/>
<path d="M63.9066 11.4938C64.0634 11.5965 64.1749 11.6876 64.2697 11.8503C64.2865 11.8785 64.3032 11.9067 64.3205 11.9357C64.4409 12.1721 64.4406 12.4969 64.3662 12.7483C64.2166 13.0653 63.9838 13.2566 63.6582 13.3825C63.3564 13.4553 63.0516 13.431 62.7803 13.2729C62.5519 13.1112 62.3705 12.9196 62.2844 12.6497C62.2448 12.3283 62.2653 12.056 62.4519 11.7837C62.4713 11.7535 62.4906 11.7233 62.5106 11.6921C62.9 11.305 63.4229 11.2272 63.9066 11.4938ZM62.6082 11.9064C62.457 12.1156 62.458 12.3337 62.4854 12.5831C62.5609 12.8464 62.721 13.0113 62.9545 13.1493C63.1746 13.2408 63.4018 13.2577 63.628 13.1806C63.8887 13.0624 64.0428 12.9268 64.1651 12.6704C64.2312 12.4728 64.2152 12.2565 64.1587 12.0585C64.0295 11.8431 63.888 11.6634 63.6467 11.5714C63.1926 11.4652 62.9037 11.57 62.6082 11.9064Z" fill="#F1F6FB"/>
<path d="M64.663 17.8461C64.73 17.8794 64.73 17.8794 64.7635 17.946C64.7724 18.1537 64.7491 18.3508 64.7174 18.5559C64.7132 18.5857 64.709 18.6154 64.7046 18.646C64.7003 18.6745 64.696 18.7031 64.6915 18.7325C64.6876 18.7582 64.6838 18.7839 64.6798 18.8103C64.663 18.8786 64.663 18.8786 64.596 18.9785C64.5329 18.997 64.5329 18.997 64.4577 19.0077C64.3383 19.0299 64.2581 19.0619 64.1583 19.1305C64.0223 19.2216 63.9227 19.245 63.7583 19.245C63.6912 19.2137 63.6912 19.2137 63.6577 19.145C63.6316 18.9538 63.6579 18.8335 63.7691 18.675C63.9458 18.4772 64.1762 18.3799 64.4284 18.3124C64.4284 18.2574 64.4284 18.2024 64.4284 18.1458C64.2413 18.1852 64.1729 18.2291 64.0598 18.379C63.9605 18.4296 63.9038 18.4456 63.7918 18.4456C63.8196 18.2491 63.914 18.1428 64.0598 18.0126C64.255 17.8816 64.4276 17.8132 64.663 17.8461Z" fill="#F5F8FC"/>
<path d="M65.8357 17.373C65.8709 17.3723 65.8709 17.3723 65.9069 17.3716C65.9697 17.3793 65.9697 17.3793 66.0367 17.4459C66.0548 17.5899 66.0458 17.7344 66.0367 17.8789C66.0352 17.9042 66.0336 17.9296 66.032 17.9558C66.0039 18.3254 66.0039 18.3254 65.9362 18.4784C65.8311 18.566 65.7363 18.596 65.6011 18.6116C65.6226 18.3098 65.6593 18.0118 65.7016 17.7123C65.5412 17.7465 65.5412 17.7465 65.4056 17.8326C65.3498 17.9464 65.3312 18.063 65.3121 18.187C65.3081 18.2111 65.304 18.2353 65.2998 18.2602C65.2732 18.4213 65.2521 18.5828 65.2325 18.7449C65.122 18.7778 65.0114 18.8108 64.8975 18.8448C64.9189 18.5938 64.9466 18.3448 64.9812 18.0954C64.9856 18.0629 64.99 18.0304 64.9944 17.997C64.9987 17.9659 65.003 17.9348 65.0074 17.9028C65.0131 17.861 65.0131 17.861 65.019 17.8184C65.0315 17.7456 65.0315 17.7456 65.065 17.6457C65.1662 17.5775 65.2464 17.5728 65.3666 17.5791C65.4821 17.5791 65.55 17.4844 65.6346 17.4126C65.7093 17.3754 65.7529 17.3738 65.8357 17.373Z" fill="#F7F9FC"/>
<path d="M62.9209 11.7839C63.0335 11.7812 63.1462 11.7784 63.2623 11.7756C63.2975 11.7744 63.3327 11.7732 63.369 11.7719C63.5156 11.7702 63.6011 11.7698 63.7289 11.8469C63.8349 11.9648 63.8388 12.0543 63.8375 12.2081C63.8256 12.2835 63.8256 12.2835 63.7481 12.3855C63.6581 12.4501 63.6581 12.4501 63.5575 12.4501C63.5793 12.4834 63.6011 12.5166 63.6235 12.5509C63.6518 12.5943 63.6801 12.6377 63.7083 12.6811C63.7227 12.7031 63.7371 12.7251 63.7519 12.7477C63.8591 12.9126 63.8591 12.9126 63.8591 12.9497C63.6936 12.9879 63.6936 12.9879 63.5911 12.9497C63.5237 12.8601 63.4699 12.7731 63.4195 12.6736C63.3856 12.6065 63.3856 12.6065 63.323 12.5167C63.2677 12.5057 63.2124 12.4947 63.1555 12.4834C63.1555 12.6373 63.1555 12.7911 63.1555 12.9497C63.078 12.9497 63.0006 12.9497 62.9209 12.9497C62.9209 12.565 62.9209 12.1803 62.9209 11.7839Z" fill="#F4F8FC"/>
<path d="M63.7246 18.1118C63.7288 18.3325 63.7288 18.3325 63.6911 18.4449C63.66 18.46 63.6289 18.4751 63.5968 18.4907C63.4246 18.578 63.3499 18.7 63.289 18.8779C63.2714 18.9848 63.2581 19.0916 63.2455 19.1993C63.2336 19.2969 63.2199 19.3838 63.1885 19.4774C63.1192 19.509 63.1192 19.509 63.0356 19.5336C63.0079 19.542 62.9802 19.5504 62.9517 19.559C62.9303 19.5651 62.9089 19.5711 62.8869 19.5773C62.8799 19.3196 62.9051 19.0708 62.9393 18.8154C62.9437 18.7747 62.9481 18.734 62.9527 18.6921C62.9917 18.4051 62.9917 18.4051 63.0748 18.3288C63.1688 18.2868 63.2538 18.2784 63.356 18.2784C63.3671 18.3003 63.3781 18.3223 63.3895 18.345C63.4057 18.3309 63.4218 18.3169 63.4385 18.3024C63.4596 18.2842 63.4808 18.2659 63.5026 18.2471C63.5341 18.2199 63.5341 18.2199 63.5662 18.1921C63.6651 18.1118 63.6651 18.1118 63.7246 18.1118Z" fill="#F6F9FC"/>
<path d="M66.9755 17.2465C67.0295 17.3002 67.0173 17.3576 67.0195 17.4317C67.0174 17.6407 66.9565 17.7956 66.8101 17.9459C66.7254 17.9867 66.6664 17.9892 66.5734 17.9792C66.5167 17.9229 66.5301 17.8545 66.5273 17.7773C66.5286 17.5846 66.5788 17.4569 66.7074 17.3131C66.8154 17.2415 66.8508 17.2367 66.9755 17.2465Z" fill="#666666"/>
<path d="M62.3847 19.1776C62.3955 19.2926 62.3931 19.3616 62.3387 19.4649C62.2111 19.5796 62.0252 19.6772 61.8486 19.6772C61.8365 19.3772 61.8365 19.3772 61.9156 19.2442C62.0699 19.17 62.2182 19.1218 62.3847 19.1776Z" fill="#666666"/>
<path d="M62.4509 18.5116C62.4613 18.6198 62.4613 18.6198 62.4509 18.7447C62.3224 18.898 62.1351 18.9283 61.9482 18.9779C61.9593 18.868 61.9704 18.758 61.9817 18.6448C62.3025 18.4925 62.3025 18.4925 62.4509 18.5116Z" fill="#2A3FCC"/>
<path d="M63.1553 11.9836C63.2153 11.9818 63.2753 11.9805 63.3354 11.9794C63.3688 11.9786 63.4022 11.9778 63.4367 11.9771C63.5239 11.9836 63.5239 11.9836 63.5909 12.0502C63.6013 12.1334 63.6013 12.1334 63.5909 12.2167C63.4798 12.2903 63.4453 12.2908 63.3165 12.2875C63.2863 12.2869 63.2561 12.2863 63.225 12.2857C63.202 12.2849 63.179 12.2841 63.1553 12.2833C63.1553 12.1844 63.1553 12.0855 63.1553 11.9836Z" fill="#666666"/>
<path d="M64.3614 18.5117C64.3865 18.5658 64.3865 18.5658 64.3949 18.6449C64.3257 18.7699 64.2555 18.8768 64.1269 18.9447C64.0515 18.9343 64.0515 18.9343 63.9928 18.9114C63.9803 18.8385 63.9803 18.8385 63.9928 18.7449C64.1071 18.6313 64.2063 18.5616 64.3614 18.5117Z" fill="#666666"/>
<path d="M64.3363 18.1353C64.3667 18.1387 64.3971 18.1421 64.4285 18.1457C64.4285 18.2006 64.4285 18.2556 64.4285 18.3122C64.2958 18.3672 64.1631 18.4221 64.0264 18.4787C64.1577 18.1523 64.1577 18.1523 64.3363 18.1353Z" fill="#666666"/>
<path d="M73.6771 14.415C73.6993 14.415 73.7214 14.415 73.7442 14.415C73.6892 14.5893 73.6306 14.7532 73.5431 14.9146C73.5041 14.7982 73.5177 14.7609 73.5536 14.6461C73.5624 14.6169 73.5713 14.5876 73.5804 14.5575C73.6101 14.4817 73.6101 14.4817 73.6771 14.415Z" fill="#7E7E7E"/>
</svg>
