<svg width="79" height="48" viewBox="0 0 79 48" fill="none" xmlns="http://www.w3.org/2000/svg">
<path d="M48.2542 0L70.5831 22.3487H25.9253L48.2542 0Z" fill="#7E7E7E"/>
<path d="M35.487 0L57.8159 22.3487H13.1582L35.487 0Z" fill="#7E7E7E"/>
<path d="M22.9631 0L45.292 22.3487H0.634277L22.9631 0Z" fill="#7E7E7E"/>
<path d="M17.0782 32.5369C17.0782 33.8389 16.7803 35.034 16.1844 36.1225C15.5885 37.1896 14.6735 38.054 13.4391 38.7157C12.2048 39.3775 10.6726 39.7082 8.84237 39.7082H5.45865V47.7759H0V25.3016H8.84237C10.63 25.3016 12.141 25.6111 13.3753 26.23C14.6096 26.8489 15.5353 27.7027 16.1525 28.7912C16.7696 29.8797 17.0782 31.1283 17.0782 32.5369ZM8.42739 35.3542C9.47018 35.3542 10.2469 35.1087 10.7577 34.6179C11.2684 34.127 11.5238 33.4333 11.5238 32.5369C11.5238 31.6405 11.2684 30.9468 10.7577 30.456C10.2469 29.9651 9.47018 29.7196 8.42739 29.7196H5.45865V35.3542H8.42739ZM31.3482 47.7759L26.6876 39.292H25.3788V47.7759H19.92V25.3016H29.0817C30.848 25.3016 32.3483 25.6111 33.5827 26.23C34.8382 26.8489 35.7745 27.7027 36.3919 28.7912C37.0089 29.8583 37.3176 31.0536 37.3176 32.3768C37.3176 33.8709 36.8918 35.2047 36.0407 36.3787C35.2107 37.5526 33.9763 38.385 32.3378 38.8758L37.5091 47.7759H31.3482ZM25.3788 35.4182H28.7625C29.7627 35.4182 30.5074 35.1727 30.9971 34.6819C31.5078 34.1911 31.7632 33.4973 31.7632 32.6009C31.7632 31.7471 31.5078 31.0748 30.9971 30.584C30.5074 30.0932 29.7627 29.8477 28.7625 29.8477H25.3788V35.4182ZM51.3421 48C49.2353 48 47.2988 47.5092 45.5323 46.5273C43.7874 45.5454 42.3934 44.1796 41.3506 42.4294C40.3291 40.658 39.8183 38.6731 39.8183 36.4747C39.8183 34.2763 40.3291 32.3022 41.3506 30.552C42.3934 28.8018 43.7874 27.436 45.5323 26.4541C47.2988 25.4723 49.2353 24.9814 51.3421 24.9814C53.449 24.9814 55.3751 25.4723 57.12 26.4541C58.8865 27.436 60.2697 28.8018 61.2698 30.552C62.2914 32.3022 62.8021 34.2763 62.8021 36.4747C62.8021 38.6731 62.2914 40.658 61.2698 42.4294C60.2483 44.1796 58.8651 45.5454 57.12 46.5273C55.3751 47.5092 53.449 48 51.3421 48ZM51.3421 43.0057C53.1298 43.0057 54.5557 42.408 55.6197 41.2129C56.705 40.0177 57.2477 38.4382 57.2477 36.4747C57.2477 34.4898 56.705 32.9105 55.6197 31.7365C54.5557 30.5414 53.1298 29.9437 51.3421 29.9437C49.5334 29.9437 48.0861 30.5306 47.0007 31.7045C45.9368 32.8785 45.4046 34.4684 45.4046 36.4747C45.4046 38.4596 45.9368 40.0498 47.0007 41.2449C48.0861 42.4188 49.5334 43.0057 51.3421 43.0057Z" fill="#7E7E7E"/>
<path d="M69.4066 42.54C69.4854 42.0935 69.704 41.7254 70.0627 41.4348C70.4215 41.1444 70.8343 40.9969 71.3011 40.9925C71.7227 40.9885 72.0964 41.0907 72.4223 41.2991C72.7405 41.5 72.9917 41.7961 73.1763 42.1869C73.3608 42.5779 73.4553 43.0414 73.4605 43.5775L73.4926 46.9874L65.6089 47.0622L65.5779 43.7999C65.573 43.2638 65.655 42.8023 65.8247 42.4154C65.9942 42.0211 66.2323 41.7244 66.5393 41.5249C66.846 41.318 67.1952 41.2129 67.5868 41.2092C68.046 41.2048 68.4313 41.3257 68.7424 41.5719C69.0535 41.8108 69.2747 42.1334 69.4066 42.54ZM68.8468 45.4455L68.833 43.9955C68.8296 43.6179 68.7439 43.3281 68.5764 43.1256C68.4013 42.9235 68.1555 42.8237 67.8392 42.8267C67.523 42.8299 67.2794 42.934 67.108 43.1397C66.9368 43.3451 66.8529 43.6366 66.8565 44.0144L66.8703 45.4642L68.8468 45.4455ZM72.175 43.8164C72.1713 43.4313 72.0782 43.1338 71.8955 42.9242C71.7126 42.7067 71.4555 42.5999 71.1243 42.6028C70.7854 42.6063 70.5229 42.722 70.3368 42.9503C70.1433 43.1786 70.0482 43.4854 70.0519 43.8706L70.0667 45.4339L72.1902 45.4137L72.175 43.8164ZM71.8759 34.8742L71.9056 38.0235L73.4128 38.5303L73.4285 40.1956L65.5065 37.4273L65.4891 35.5808L73.3573 32.6625L73.373 34.3391L71.8759 34.8742ZM70.615 35.3168L67.3275 36.4922L70.6366 37.6051L70.615 35.3168ZM73.3087 27.5217L70.253 29.2953L70.2599 30.043L73.3323 30.0139L73.3473 31.5996L65.4633 31.6747L65.4353 28.7067C65.4296 28.095 65.5337 27.5729 65.7481 27.1405C65.9549 26.708 66.2417 26.3842 66.6088 26.1695C66.968 25.9468 67.3737 25.8335 67.8255 25.8291C68.3451 25.8242 68.817 25.971 69.2416 26.2689C69.6585 26.5669 69.949 27.0137 70.1128 27.6086L73.2913 25.6865L73.3087 27.5217ZM69.0741 30.0543L69.0616 28.7289C69.0574 28.2984 68.9528 27.9785 68.7475 27.769C68.5347 27.5596 68.2437 27.4567 67.8748 27.4601C67.5134 27.4636 67.2357 27.5719 67.0419 27.7852C66.8406 27.9987 66.7421 28.3206 66.746 28.7511L66.7586 30.0762L69.0741 30.0543Z" fill="#7E7E7E"/>
<path d="M75.942 28.5666L75.6552 28.0445H75.5747V28.5666H75.2388V27.1836H75.8026C75.9111 27.1836 76.0034 27.2026 76.0795 27.2407C76.1567 27.2789 76.2144 27.3314 76.2524 27.3983C76.2902 27.4641 76.3094 27.5375 76.3094 27.619C76.3094 27.7108 76.2831 27.7931 76.2308 27.8653C76.1797 27.9374 76.1036 27.9886 76.0029 28.0189L76.3212 28.5666H75.942ZM75.5747 27.8062H75.7829C75.8443 27.8062 75.8902 27.7911 75.9204 27.7608C75.9519 27.7306 75.9676 27.6879 75.9676 27.6328C75.9676 27.5803 75.9519 27.539 75.9204 27.5087C75.8902 27.4784 75.8443 27.4634 75.7829 27.4634H75.5747V27.8062Z" fill="#7E7E7E"/>
<path d="M75.8766 29.6748C76.8259 29.6748 77.5955 28.903 77.5955 27.9509C77.5955 26.9989 76.8259 26.2271 75.8766 26.2271C74.9273 26.2271 74.1577 26.9989 74.1577 27.9509C74.1577 28.903 74.9273 29.6748 75.8766 29.6748Z" stroke="#7E7E7E" stroke-width="1.29906"/>
</svg>
