<svg width="147" height="48" viewBox="0 0 147 48" fill="none" xmlns="http://www.w3.org/2000/svg">
<path d="M4.92576 42.4758L0.985352 36.4604H2.70928L5.66458 41.1254L8.74303 36.4604H10.3438L6.52655 42.4758V46.0359H4.92576V42.4758Z" fill="#7E7E7E"/>
<path d="M15.0239 42.4756C15.0239 41.0024 14.5313 40.1431 12.9305 40.1431C11.3298 40.1431 10.8372 41.0024 10.8372 42.4756C10.8372 43.9487 11.3298 44.9308 12.9305 44.9308C14.4082 44.9308 15.0239 43.9487 15.0239 42.4756ZM9.11328 42.4756C9.11328 40.0203 10.0984 38.6699 12.8074 38.6699C15.3933 38.6699 16.5015 40.0203 16.5015 42.4756C16.5015 44.9308 15.5164 46.2812 12.8074 46.2812C10.2215 46.2812 9.11328 44.9308 9.11328 42.4756Z" fill="#7E7E7E"/>
<path d="M17.979 42.8441V38.793H19.4567V42.8441C19.4567 43.949 19.4567 44.8083 21.3037 44.8083C23.0276 44.8083 23.0276 43.949 23.0276 42.8441V38.793H24.5053V42.8441C24.5053 45.1766 24.0127 46.2815 21.1806 46.2815C18.4716 46.2815 17.979 45.1766 17.979 42.8441Z" fill="#7E7E7E"/>
<path d="M26.106 38.9157L27.3373 38.793L27.4605 39.6523C27.7067 39.1613 28.6918 38.793 29.9232 38.793V40.2661C28.1993 40.2661 27.7067 41.1255 27.7067 42.3531V46.1587H26.2291V38.9157H26.106Z" fill="#7E7E7E"/>
<path d="M38.5429 41.3709C39.8974 41.3709 40.5131 40.8799 40.5131 39.6523C40.5131 38.3019 39.8974 37.9336 38.5429 37.9336H35.7107V41.3709H38.5429ZM34.11 36.4604H38.5429C41.1288 36.4604 42.1139 37.5653 42.1139 39.5295C42.1139 41.4937 41.2519 42.8441 38.4198 42.8441H35.5876V46.1587H33.9868V36.4604H34.11Z" fill="#7E7E7E"/>
<path d="M44.4532 41.739H48.3936C48.2705 40.6341 48.2705 39.8975 46.6697 39.8975C45.0689 40.0203 44.5764 40.6341 44.4532 41.739ZM42.9756 42.4756C42.9756 40.3886 43.5913 38.6699 46.6697 38.6699C49.7482 38.6699 49.8713 40.7569 49.8713 43.0894H44.5764C44.6995 44.1942 45.0689 44.9308 46.7929 44.9308C47.9011 44.9308 48.5168 44.6853 49.1325 44.1942L49.9944 45.2991C49.1325 45.9129 48.2705 46.2812 46.916 46.2812C43.5913 46.2812 42.9756 44.5625 42.9756 42.4756Z" fill="#7E7E7E"/>
<path d="M50.6104 38.7927H51.9649L52.2111 36.8285L53.4425 36.583V38.7927H55.2896V40.1431H53.4425V43.7032C53.4425 44.317 53.5657 44.6853 54.4276 44.6853H55.2896V46.0357C55.0433 46.0357 54.4276 46.0357 54.1813 46.0357C52.3343 46.0357 51.9649 45.4219 51.9649 43.9487V40.1431H50.7335V38.7927H50.6104Z" fill="#7E7E7E"/>
<path d="M56.7671 47.1406C57.5059 46.7723 57.6291 46.6496 57.6291 46.1585H56.7671V44.1943H58.6142V45.6675C58.6142 47.0179 58.3679 47.5089 57.1365 48L56.7671 47.1406Z" fill="#7E7E7E"/>
<path d="M71.2973 41.2481C71.2973 39.0384 70.3122 37.8108 67.8494 37.8108C65.3867 37.8108 64.4016 39.0384 64.4016 41.2481C64.4016 43.4578 65.3867 44.6854 67.8494 44.6854C70.3122 44.8082 71.2973 43.4578 71.2973 41.2481ZM62.8008 41.2481C62.8008 37.688 64.6478 36.2148 67.8494 36.2148C70.9279 36.2148 72.8981 37.688 72.8981 41.2481C72.8981 44.8082 70.9279 46.2813 67.8494 46.2813C64.771 46.2813 62.8008 44.8082 62.8008 41.2481Z" fill="#7E7E7E"/>
<path d="M74.2524 42.8441V38.793H75.7301V42.8441C75.7301 43.949 75.7301 44.8083 77.5772 44.8083C79.3011 44.8083 79.3011 43.949 79.3011 42.8441V38.793H80.7787V42.8441C80.7787 45.1766 80.2862 46.2815 77.454 46.2815C74.745 46.2815 74.2524 45.1766 74.2524 42.8441Z" fill="#7E7E7E"/>
<path d="M82.3794 38.9157L83.6108 38.793L83.7339 39.6523C83.9802 39.1613 84.9653 38.793 86.1967 38.793V40.2661C84.4727 40.2661 83.9802 41.1255 83.9802 42.3531V46.1587H82.5025V38.9157H82.3794Z" fill="#7E7E7E"/>
<path d="M94.9399 41.3709C96.2944 41.3709 96.9101 40.8799 96.9101 39.6523C96.9101 38.3019 96.2944 37.9336 94.9399 37.9336H92.1077V41.3709H94.9399ZM90.5069 36.4604H94.9399C97.5258 36.4604 98.5109 37.5653 98.5109 39.5295C98.5109 41.4937 97.6489 42.8441 94.8167 42.8441H91.9846V46.1587H90.3838V36.4604H90.5069Z" fill="#7E7E7E"/>
<path d="M104.421 42.9668V42.5985H104.175C101.343 42.5985 100.727 42.9668 100.727 43.9489C100.727 44.6855 101.097 45.0538 102.205 45.0538C103.682 44.931 104.421 44.3172 104.421 42.9668ZM99.2495 43.9489C99.2495 41.8619 100.481 41.2481 104.052 41.2481H104.421C104.421 40.3888 104.175 40.0205 102.697 40.0205C101.835 40.0205 101.097 40.3888 100.604 40.6343L99.8652 39.4067C100.358 39.0384 101.589 38.5474 102.944 38.5474C105.53 38.5474 106.022 39.4067 106.022 41.4937V43.9489C106.022 44.5627 106.022 44.6855 106.761 44.6855V46.0359C106.638 46.0359 106.515 46.0359 106.145 46.0359C105.406 46.0359 105.037 45.9131 104.914 45.2993C104.544 45.9131 103.682 46.1586 102.205 46.1586C99.7421 46.2814 99.2495 45.1765 99.2495 43.9489Z" fill="#7E7E7E"/>
<path d="M107.376 45.2993L108.115 44.0717C108.977 44.5627 109.839 44.8082 110.701 44.8082C111.933 44.8082 112.302 44.6855 112.302 43.9489C112.302 43.3351 111.933 43.2123 110.701 43.0896C108.977 42.844 107.746 42.5985 107.746 40.7571C107.746 39.4067 108.485 38.5474 110.701 38.5474C111.809 38.5474 112.918 38.7929 113.533 39.1612L112.795 40.3888C112.302 40.1433 111.44 39.8977 110.701 39.8977C109.47 39.8977 109.224 40.1433 109.224 40.6343C109.224 41.2481 109.593 41.3709 110.701 41.4937C112.548 41.7392 113.78 41.9847 113.78 43.7034C113.78 45.422 112.918 46.0359 110.578 46.0359C109.593 46.2814 108.362 46.0359 107.376 45.2993Z" fill="#7E7E7E"/>
<path d="M114.642 45.2993L115.38 44.0717C116.242 44.5627 117.104 44.8082 117.966 44.8082C119.198 44.8082 119.567 44.6855 119.567 43.9489C119.567 43.3351 119.198 43.2123 117.966 43.0896C116.242 42.844 115.011 42.5985 115.011 40.7571C115.011 39.4067 115.75 38.5474 117.966 38.5474C119.075 38.5474 120.183 38.7929 120.798 39.1612L120.06 40.3888C119.567 40.1433 118.705 39.8977 117.966 39.8977C116.735 39.8977 116.489 40.1433 116.489 40.6343C116.489 41.2481 116.858 41.3709 117.966 41.4937C119.813 41.7392 121.045 41.9847 121.045 43.7034C121.045 45.422 120.183 46.0359 117.843 46.0359C116.735 46.2814 115.627 46.0359 114.642 45.2993Z" fill="#7E7E7E"/>
<path d="M122.399 46.0358H123.877V38.6701H122.399V46.0358ZM122.399 37.9335H123.877V36.2148H122.399V37.9335Z" fill="#7E7E7E"/>
<path d="M131.019 42.4756C131.019 41.0024 130.527 40.1431 128.926 40.1431C127.325 40.1431 126.833 41.0024 126.833 42.4756C126.833 43.9487 127.325 44.9308 128.926 44.9308C130.527 44.9308 131.019 43.9487 131.019 42.4756ZM125.232 42.4756C125.232 40.0203 126.217 38.6699 128.926 38.6699C131.512 38.6699 132.62 40.0203 132.62 42.4756C132.62 44.9308 131.635 46.2812 128.926 46.2812C126.34 46.2812 125.232 44.9308 125.232 42.4756Z" fill="#7E7E7E"/>
<path d="M133.975 38.9156L135.206 38.7929L135.329 39.4067C135.699 38.9156 136.437 38.5474 138.038 38.5474C140.255 38.5474 140.624 39.775 140.624 41.6164V46.0359H139.146V41.8619C139.146 40.7571 139.023 40.0205 137.546 40.0205C135.822 40.0205 135.575 40.8798 135.575 41.9847V46.0359H134.098V38.9156H133.975Z" fill="#7E7E7E"/>
<path d="M144.072 44.1943H142.225V46.1585H144.072V44.1943Z" fill="#7E7E7E"/>
<path d="M144.441 37.5655C144.811 37.5655 144.934 37.4427 144.934 37.1972C144.934 36.9517 144.811 36.8289 144.441 36.8289H143.702V37.5655H144.441ZM144.441 38.0565H143.825V38.9159H143.21V36.3379H144.441C145.303 36.3379 145.426 36.7061 145.426 37.1972C145.426 37.5655 145.303 37.9338 144.934 38.0565L145.426 39.0386H144.811L144.441 38.0565ZM146.165 37.6882C146.165 36.5834 145.673 35.8468 144.318 35.8468C142.964 35.8468 142.471 36.7061 142.471 37.6882C142.471 38.6703 142.964 39.5297 144.318 39.5297C145.549 39.5297 146.165 38.6703 146.165 37.6882ZM142.102 37.6882C142.102 36.4606 142.84 35.4785 144.195 35.4785C145.673 35.4785 146.411 36.4606 146.411 37.6882C146.411 38.9159 145.673 39.898 144.195 39.898C142.84 39.898 142.102 38.9159 142.102 37.6882Z" fill="#7E7E7E"/>
<path d="M141.485 0H0V29.7085H141.485V0Z" fill="#7E7E7E"/>
<path d="M28.9376 25.9029V0.859375H0.985352V28.7264H140.623V25.9029H28.9376ZM25.9823 25.9029H3.81752V3.80567H25.9823V25.9029Z" fill="#7E7E7E"/>
<path d="M11.5753 4.7876H4.80273V11.5395H11.5753V4.7876Z" fill="white"/>
<path d="M11.5753 18.1689H4.80273V24.9209H11.5753V18.1689Z" fill="white"/>
<path d="M18.3478 11.417H11.5752V18.1689H18.3478V11.417Z" fill="white"/>
<path d="M25.1207 4.7876H18.3481V11.5395H25.1207V4.7876Z" fill="white"/>
<path d="M25.1207 18.1689H18.3481V24.9209H25.1207V18.1689Z" fill="white"/>
<path d="M140.624 0.859375H28.938V25.7801H140.624V0.859375Z" fill="#7E7E7E"/>
<path d="M99.9888 6.50639C99.9888 6.26086 100.112 6.01534 100.481 6.01534H102.698C102.944 6.01534 103.067 6.1381 103.19 6.26086L108.608 14.3632C109.101 15.0997 109.717 15.9591 110.209 16.9412C110.332 17.0639 110.455 17.0639 110.455 16.9412C110.455 16.0818 110.332 14.7315 110.332 13.7494V6.38363C110.332 6.1381 110.455 5.89258 110.825 5.89258H112.672C112.918 5.89258 113.164 6.01534 113.164 6.38363V21.1151C113.164 21.3606 113.041 21.6061 112.672 21.6061H110.579C110.332 21.6061 110.209 21.4834 110.086 21.3606L104.668 13.2583C104.175 12.5217 103.56 11.6624 103.067 10.6803C102.944 10.5575 102.821 10.5575 102.821 10.6803C102.821 11.5396 102.944 12.89 102.944 13.8721V21.2379C102.944 21.4834 102.821 21.7289 102.452 21.7289H100.604C100.358 21.7289 100.112 21.6061 100.112 21.2379V6.50639H99.9888Z" fill="white"/>
<path d="M90.3838 6.50667C90.3838 6.26115 90.5069 6.01562 90.8763 6.01562H92.7234C92.9697 6.01562 93.216 6.13839 93.216 6.50667V21.2381C93.216 21.4837 93.0928 21.7292 92.7234 21.7292H90.8763C90.6301 21.7292 90.3838 21.6064 90.3838 21.2381V6.50667Z" fill="white"/>
<path d="M84.5962 19.3965C83.9805 19.3965 83.4879 19.3965 83.2417 19.2737C82.8723 19.151 82.7491 19.0282 82.626 18.7827L80.7789 16.0819C80.6558 15.9592 80.7789 15.8364 80.902 15.8364C81.3946 15.5909 81.8871 15.2226 82.3797 14.8543C83.2417 13.995 83.8574 12.6446 83.8574 11.1714C83.8574 9.69829 83.3648 8.3479 82.3797 7.48857C81.5177 6.62923 80.4095 6.13818 78.6856 6.13818H72.5287C72.2824 6.13818 72.0361 6.26095 72.0361 6.62923V21.3607C72.0361 21.6062 72.1593 21.8518 72.5287 21.8518H74.3757C74.622 21.8518 74.8683 21.729 74.8683 21.3607V16.573C74.8683 16.4502 74.9914 16.3275 75.1146 16.3275H77.3311C77.5773 16.3275 77.8236 16.4502 77.9467 16.6957L80.5326 20.5014C81.3946 21.8518 82.3797 22.0973 83.7342 22.0973C83.9805 22.0973 84.5962 22.0973 84.7193 21.9745C84.9656 21.8518 85.0887 21.729 85.0887 21.6062V20.0103C85.0887 19.5193 84.9656 19.3965 84.5962 19.3965ZM80.2864 12.8901C79.7938 13.2584 79.3013 13.5039 78.4393 13.5039H74.9914C74.8683 13.5039 74.7452 13.3812 74.7452 13.2584V8.96172C74.7452 8.83895 74.8683 8.71619 74.9914 8.71619H78.4393C79.3013 8.71619 79.7938 8.96172 80.2864 9.33C80.7789 9.69829 81.0252 10.4349 81.0252 11.1714C81.0252 11.7852 80.7789 12.5218 80.2864 12.8901Z" fill="white"/>
<path d="M54.4275 20.1333C53.3193 19.0284 52.7036 17.5553 52.7036 15.3456V6.50667C52.7036 6.26115 52.8268 6.01562 53.1962 6.01562H55.0432C55.2895 6.01562 55.5358 6.13839 55.5358 6.50667V15.7138C55.5358 16.9415 55.9052 17.678 56.5209 18.4146C57.1366 19.1512 58.1217 19.3967 59.2299 19.3967C60.3381 19.3967 61.3233 19.0284 61.9389 18.4146C62.5546 17.678 62.924 16.9415 62.924 15.7138V6.50667C62.924 6.26115 63.0472 6.01562 63.4166 6.01562H65.2637C65.5099 6.01562 65.7562 6.13839 65.7562 6.50667V15.4683C65.7562 17.678 65.1405 19.0284 64.0323 20.1333C62.924 21.3609 61.077 21.9747 59.2299 21.9747C57.3828 21.9747 55.5358 21.2381 54.4275 20.1333Z" fill="white"/>
<path d="M45.9308 7.48877C44.9457 6.50667 43.8375 6.01562 41.9904 6.01562H35.5873C35.341 6.01562 35.0947 6.13839 35.0947 6.50667V21.2381C35.0947 21.4837 35.2179 21.7292 35.5873 21.7292H37.3112C37.5575 21.7292 37.8038 21.6064 37.8038 21.2381V17.187C37.8038 17.0642 37.9269 16.9415 38.05 16.9415H41.8673C43.8375 16.9415 44.9457 16.4504 45.9308 15.4683C46.9159 14.4862 47.5316 13.0131 47.5316 11.5399C47.5316 9.94402 46.9159 8.47087 45.9308 7.48877ZM43.9606 13.5041C43.4681 13.9952 42.8524 14.2407 41.8673 14.2407H38.05C37.9269 14.2407 37.8038 14.1179 37.8038 13.9952V8.96192C37.8038 8.83916 37.9269 8.71639 38.05 8.71639H41.8673C42.8524 8.71639 43.4681 8.96192 43.9606 9.45297C44.4532 9.94402 44.8226 10.8034 44.8226 11.5399C44.6995 12.2765 44.4532 13.0131 43.9606 13.5041Z" fill="white"/>
<path d="M133.481 21.1154L127.325 6.38391C127.201 6.13839 127.078 6.01562 126.832 6.01562H124.492C124.246 6.01562 124.123 6.13839 124 6.38391L117.966 21.1154C117.843 21.4837 117.966 21.6064 118.336 21.6064H120.306C120.552 21.6064 120.675 21.4837 120.798 21.2381L122.03 18.2919C122.153 18.1691 122.153 18.0463 122.399 18.0463H129.048C129.172 18.0463 129.295 18.1691 129.418 18.2919L130.649 21.2381C130.772 21.4837 130.896 21.6064 131.142 21.6064H133.112C133.481 21.6064 133.605 21.4837 133.481 21.1154ZM127.94 15.4683H123.507C123.261 15.4683 123.138 15.3456 123.261 15.1L124.246 12.522C124.739 11.4172 125.108 10.3123 125.601 9.20744C125.724 8.96192 125.847 8.96192 125.97 9.20744C126.463 10.4351 126.832 11.4172 127.325 12.522L128.31 15.1C128.187 15.3456 128.187 15.4683 127.94 15.4683Z" fill="white"/>
<path d="M133.852 4.91016C132.374 4.91016 131.266 6.01502 131.266 7.48816C131.266 8.96131 132.374 10.0662 133.852 10.0662C135.329 10.0662 136.437 8.96131 136.437 7.48816C136.314 6.01502 135.206 4.91016 133.852 4.91016ZM133.852 9.57512C132.743 9.57512 131.758 8.59302 131.758 7.48816C131.758 6.3833 132.743 5.40121 133.852 5.40121C134.96 5.40121 135.945 6.3833 135.945 7.48816C135.945 8.59302 134.96 9.57512 133.852 9.57512Z" fill="#7E7E7E"/>
<path d="M134.591 8.22486L134.344 7.73381C134.714 7.61105 134.96 7.24276 134.96 6.87447C134.96 6.38342 134.591 6.01514 134.098 6.01514H132.99V8.71591H133.482V7.85657H133.975L134.467 8.59314C134.714 8.83867 134.837 8.83867 135.206 8.83867V8.34762C134.837 8.34762 134.714 8.34762 134.591 8.22486ZM133.975 7.36552H133.359V6.50619H133.975C134.221 6.50619 134.344 6.62895 134.344 6.87447C134.344 7.24276 134.221 7.36552 133.975 7.36552Z" fill="#7E7E7E"/>
</svg>
