<svg width="83" height="48" viewBox="0 0 83 48" fill="none" xmlns="http://www.w3.org/2000/svg">
<path d="M57.2244 0.197738C57.7365 0.337973 58.2389 0.495653 58.7427 0.663159C59.0199 0.752568 59.0199 0.752568 59.3027 0.843784C59.8721 1.03001 60.4392 1.22176 61.006 1.41595C61.2624 1.50325 61.2624 1.50325 61.5241 1.59231C66.8668 3.43701 71.8138 6.17494 75.912 10.0991C76.1434 10.3202 76.3774 10.5386 76.6115 10.7569C79.646 13.6693 82.3482 17.94 82.4432 22.2705C82.5148 26.3695 81.6242 29.7525 78.9474 32.9302C78.8224 33.0823 78.6974 33.2343 78.5687 33.391C76.694 35.5716 74.1743 37.3854 71.5404 38.5401C71.0672 38.406 71.0672 38.406 70.7174 38.2101C70.6518 37.8594 70.6518 37.8594 70.7174 37.3851C71.0586 37.0223 71.3883 36.7137 71.7667 36.3951C74.1183 34.3047 75.8311 31.7073 76.643 28.6403C76.6984 28.4374 76.6984 28.4374 76.7549 28.2304C77.7604 23.7841 76.3312 19.2204 74.0094 15.4406C73.0988 14.075 72.0089 12.8344 70.882 11.6457C70.8033 11.5623 70.7246 11.479 70.6435 11.3931C69.3896 10.0731 68.0849 8.9059 66.6024 7.8508C66.5113 7.78521 66.4203 7.71962 66.3265 7.65205C63.4339 5.58571 60.2897 4.06259 56.9996 2.74712C56.3871 2.50064 55.7795 2.24372 55.173 1.98313C54.9966 1.90805 54.8203 1.83297 54.6387 1.75561C54.2574 1.58095 54.2574 1.58095 54.0928 1.41595C54.0413 1.02409 54.0413 1.02409 54.0928 0.590973C54.934 -0.233221 56.1512 -0.0215432 57.2244 0.197738Z" fill="#7E7E7E"/>
<path d="M11.1329 10.4901C11.2666 10.8511 11.2666 10.8511 11.2975 11.3151C10.9361 11.7108 10.9361 11.7108 10.4745 12.1401C7.55094 14.8933 5.52288 18.2465 5.30951 22.3337C5.14279 27.8913 7.39818 32.6276 11.1502 36.6291C13.5579 39.1361 16.1926 41.1029 19.1983 42.8293C19.3058 42.8922 19.4133 42.955 19.524 43.0197C21.3239 44.0633 23.2247 44.8484 25.1569 45.6078C25.3558 45.6874 25.5548 45.7669 25.7598 45.8489C26.0279 45.954 26.0279 45.954 26.3014 46.0611C26.7822 46.3004 27.0752 46.5533 27.4283 46.9542C27.2387 47.3615 27.0912 47.6221 26.7699 47.9442C25.3501 48.1345 24.0751 47.8097 22.7372 47.3667C22.4587 47.2774 22.4587 47.2774 22.1746 47.1863C20.4914 46.6366 18.8457 46.0131 17.2231 45.3043C17.1021 45.2516 16.9811 45.1989 16.8564 45.1446C10.2572 42.2344 3.99259 37.4033 1.09228 30.6196C-0.109528 27.3585 -0.461738 23.7016 0.763077 20.3899C0.82079 20.2223 0.878503 20.0547 0.937965 19.882C2.3895 16.0221 5.43291 13.3002 8.82848 11.1501C8.97997 11.0531 9.13147 10.9561 9.28756 10.8562C9.99764 10.4277 10.3041 10.2645 11.1329 10.4901Z" fill="#7E7E7E"/>
<path d="M23.8081 9.5004C24.4732 9.45711 25.1379 9.43085 25.8039 9.40759C25.9919 9.39514 26.1799 9.3827 26.3736 9.36988C27.7355 9.33416 27.7355 9.33416 28.2488 9.78898C28.5103 10.1759 28.7128 10.5625 28.9107 10.9854C29.0404 11.2142 29.1713 11.4424 29.3036 11.6698C29.4304 11.902 29.5566 12.1344 29.6823 12.3672C30.5514 13.9568 31.456 15.5247 32.3673 17.0902C32.3714 16.3003 32.3744 15.5105 32.3763 14.7206C32.3772 14.4519 32.3783 14.1832 32.3797 13.9145C32.3817 13.5283 32.3827 13.1421 32.3834 12.7558C32.3842 12.6357 32.3851 12.5155 32.386 12.3917C32.386 11.877 32.3664 11.4777 32.2027 10.9854C31.7075 10.7832 31.7075 10.7832 31.2151 10.6554C31.2151 10.2742 31.2151 9.89309 31.2151 9.5004C32.5187 9.5004 33.8224 9.5004 35.1655 9.5004C35.1655 9.88154 35.1655 10.2627 35.1655 10.6554C35.0059 10.703 34.8464 10.7507 34.682 10.7997C34.1604 10.9263 34.1604 10.9263 34.0133 11.3154C33.9935 11.6556 33.9841 11.9965 33.9795 12.3373C33.9762 12.552 33.9729 12.7667 33.9696 12.9879C33.9668 13.2231 33.964 13.4584 33.9612 13.6936C33.9578 13.9336 33.9544 14.1736 33.9509 14.4136C33.9418 15.0456 33.9336 15.6776 33.9257 16.3096C33.9174 16.9544 33.9083 17.5991 33.8992 18.2439C33.8815 19.5093 33.8649 20.7747 33.8487 22.0401C33.0339 22.0401 32.2192 22.0401 31.3797 22.0401C31.2363 21.7825 31.0928 21.525 30.9451 21.2596C29.9613 19.4948 28.9753 17.7316 27.9745 15.9765C27.8935 15.8344 27.8125 15.6923 27.7291 15.5458C27.3611 14.9017 26.9886 14.2611 26.6063 13.6253C26.5982 14.5061 26.5922 15.3869 26.5882 16.2678C26.5866 16.5674 26.5843 16.867 26.5815 17.1666C26.5775 17.5975 26.5756 18.0283 26.5742 18.4592C26.5725 18.5929 26.5708 18.7266 26.569 18.8644C26.5549 19.7669 26.5549 19.7669 26.9355 20.5551C27.3561 20.6891 27.3561 20.6891 27.7585 20.7201C27.7585 21.1557 27.7585 21.5913 27.7585 22.0401C26.4549 22.0401 25.1512 22.0401 23.8081 22.0401C23.8081 21.6045 23.8081 21.1689 23.8081 20.7201C23.9677 20.6725 24.1272 20.6248 24.2916 20.5758C24.8133 20.4492 24.8133 20.4492 24.9603 20.0601C24.9785 19.7882 24.9865 19.5155 24.9894 19.2429C24.9916 19.0728 24.9937 18.9026 24.9958 18.7273C24.9971 18.5429 24.9983 18.3585 24.9995 18.1685C25.0009 17.9797 25.0022 17.7909 25.0036 17.5964C25.0058 17.1965 25.0076 16.7966 25.0089 16.3968C25.0117 15.7836 25.019 15.1707 25.0262 14.5576C25.0279 14.1697 25.0293 13.7818 25.0304 13.3939C25.0333 13.2098 25.0362 13.0258 25.0391 12.8361C25.0386 12.6654 25.0382 12.4947 25.0377 12.3189C25.0386 12.1686 25.0396 12.0183 25.0406 11.8634C24.9931 11.4569 24.9931 11.4569 24.6571 11.1908C24.2916 10.9636 24.2916 10.9636 23.8081 10.8204C23.8081 10.3848 23.8081 9.94919 23.8081 9.5004Z" fill="#7E7E7E"/>
<path d="M22.3253 21.2154C22.3253 22.141 22.3253 23.0666 22.3253 24.0203C21.7133 23.8669 21.3934 23.7055 20.8748 23.3706C19.6289 22.607 18.5542 22.3646 17.1096 22.6591C16.3742 22.9294 16.3742 22.9294 15.9059 23.5253C15.7897 24.3147 15.7351 25.055 16.1528 25.7528C17.2174 26.393 18.4707 26.6776 19.6621 26.9931C21.0103 27.3714 21.9586 28.0578 22.6693 29.2783C23.1466 30.3995 23.04 31.6054 22.6449 32.7297C22.1232 33.96 21.266 34.7759 20.0929 35.3741C18.1093 36.061 15.8235 35.7527 13.9307 34.9101C13.7779 34.849 13.6252 34.788 13.4678 34.7251C13.1077 34.4151 13.1077 34.4151 13.0273 33.7892C13.0328 33.5474 13.0426 33.3057 13.0563 33.0642C13.06 32.9405 13.0637 32.8168 13.0675 32.6894C13.0772 32.3845 13.092 32.0798 13.1077 31.7751C13.4086 31.6701 13.4086 31.6701 13.7661 31.6101C14.0063 31.8016 14.2453 31.9953 14.4721 32.2024C15.7719 33.2763 17.2448 33.3714 18.8687 33.2601C19.4907 33.0558 19.745 32.8953 20.1649 32.4042C20.4483 31.694 20.4884 31.005 20.2241 30.2695C19.9692 29.8814 19.7847 29.8018 19.3522 29.6405C19.1342 29.5591 19.1342 29.5591 18.9118 29.4761C18.5018 29.3418 18.0932 29.2168 17.6786 29.0985C17.5561 29.0635 17.4335 29.0285 17.3073 28.9924C17.0638 28.924 16.8198 28.8574 16.5752 28.793C15.5625 28.5133 14.7472 28.0714 14.0542 27.2584C13.9358 27.1237 13.9358 27.1237 13.815 26.9864C13.1298 25.9395 13.1518 24.7304 13.2723 23.5253C13.4256 23.0294 13.6383 22.6319 13.9307 22.2054C14.0258 22.059 14.1208 21.9127 14.2188 21.7619C16.4017 19.5129 19.7417 19.9205 22.3253 21.2154Z" fill="#7E7E7E"/>
<path d="M67.0946 24.6803C68.1028 25.6585 68.606 26.7426 68.7406 28.1452C68.7406 28.7986 68.7406 29.4519 68.7406 30.1251C66.4049 30.1251 64.0692 30.1251 61.6628 30.1251C61.9374 31.7739 61.9374 31.7739 62.815 32.9301C63.8341 33.4597 64.8368 33.5608 65.9424 33.26C66.4705 33.0173 66.9749 32.7541 67.4791 32.4647C67.9176 32.2701 67.9176 32.2701 68.576 32.4351C68.576 33.1429 68.576 33.8507 68.576 34.58C66.6524 35.5773 64.7855 36.0677 62.6504 35.405C61.4206 34.9777 60.5944 34.1779 59.9692 33.0383C59.069 31.0909 59.0912 28.819 59.7988 26.8104C60.3647 25.5638 61.2112 24.5591 62.4858 24.0203C64.0681 23.5181 65.7905 23.5555 67.0946 24.6803ZM62.3212 26.4952C61.9225 27.0846 61.6628 27.5925 61.6628 28.3102C63.238 28.3102 64.8132 28.3102 66.4362 28.3102C66.3433 26.9691 66.3433 26.9691 65.6132 26.0415C64.5104 25.5809 63.2129 25.6393 62.3212 26.4952Z" fill="#7E7E7E"/>
<path d="M31.5463 24.7095C32.7876 25.8599 33.3062 27.319 33.3981 28.9852C33.4631 31.0079 33.2374 32.8282 31.8704 34.4146C30.7955 35.4352 29.6748 35.8238 28.1971 35.7855C26.954 35.6422 25.8817 35.2002 25.0395 34.2606C23.6384 32.3258 23.6452 30.2864 23.805 27.9798C24.0799 26.5232 24.8436 25.2219 26.0682 24.3705C27.8264 23.3858 29.9262 23.4915 31.5463 24.7095ZM26.7266 26.7217C26.0798 27.6942 26.0493 28.53 26.0477 29.671C26.0436 29.8201 26.0396 29.9692 26.0354 30.1228C26.0309 31.1822 26.2239 32.0138 26.7678 32.9297C27.3176 33.4641 27.7921 33.5814 28.5578 33.6309C29.4002 33.617 29.8364 33.325 30.4198 32.7234C31.0304 31.7949 31.1073 30.8128 31.0988 29.7329C31.0979 29.6095 31.097 29.4862 31.096 29.3592C31.0695 28.1522 30.9323 27.2586 30.1215 26.3298C28.8891 25.5977 27.7429 25.6464 26.7266 26.7217Z" fill="#7E7E7E"/>
<path d="M34.9137 23.998C35.1606 23.9987 35.1606 23.9987 35.4126 23.9993C35.5772 23.9989 35.7419 23.9985 35.9115 23.998C36.3179 24.02 36.3179 24.02 36.4825 24.185C36.5069 24.6394 36.5212 25.0901 36.5288 25.5449C36.5333 25.7523 36.5333 25.7523 36.538 25.9639C36.5477 26.409 36.5563 26.8541 36.5648 27.2993C36.4072 30.3041 36.4072 30.3041 37.1409 33.0947C37.6718 33.3608 38.2113 33.3365 38.7869 33.2597C39.1486 33.118 39.476 32.9518 39.8137 32.7602C40.1037 32.5998 40.1037 32.5998 40.5975 32.4348C40.5971 32.3318 40.5968 32.2288 40.5964 32.1227C40.5928 31.0548 40.5903 29.987 40.5885 28.9191C40.5876 28.5201 40.5865 28.1211 40.5851 27.7221C40.5831 27.15 40.5822 26.5778 40.5814 26.0057C40.5806 25.8261 40.5797 25.6465 40.5788 25.4615C40.5788 25.2963 40.5788 25.1312 40.5788 24.961C40.5784 24.8148 40.5781 24.6686 40.5777 24.518C40.5975 24.185 40.5975 24.185 40.7621 24.02C41.091 24.0037 41.4204 23.9986 41.7497 23.9993C41.9296 23.9989 42.1096 23.9985 42.2949 23.998C42.7373 24.02 42.7373 24.02 42.9019 24.185C42.9183 24.5283 42.923 24.8722 42.9232 25.2159C42.9235 25.3234 42.9238 25.431 42.9241 25.5419C42.9248 25.8991 42.9243 26.2563 42.9238 26.6135C42.9239 26.8607 42.924 27.1079 42.9242 27.3551C42.9245 27.8739 42.9241 28.3927 42.9234 28.9114C42.9224 29.5778 42.923 30.2442 42.9239 30.9106C42.9245 31.4213 42.9244 31.932 42.9239 32.4427C42.9238 32.6884 42.924 32.9342 42.9243 33.18C42.9247 33.5229 42.9241 33.8659 42.9232 34.2088C42.9231 34.4043 42.9229 34.5998 42.9228 34.8013C42.9019 35.2397 42.9019 35.2397 42.7373 35.4047C42.3774 35.4167 42.0172 35.4185 41.6571 35.415C41.3614 35.4128 41.3614 35.4128 41.0598 35.4105C40.831 35.4076 40.831 35.4076 40.5975 35.4047C40.5432 35.1869 40.4889 34.9691 40.4329 34.7447C40.3455 34.8023 40.2581 34.86 40.168 34.9194C40.0517 34.9944 39.9354 35.0695 39.8156 35.1469C39.7011 35.2215 39.5865 35.2962 39.4684 35.3731C38.6414 35.8345 37.7122 35.8516 36.7976 35.6644C35.9025 35.3843 35.3184 34.8898 34.8365 34.0847C34.3174 32.9588 34.2748 31.995 34.2887 30.7648C34.289 30.5766 34.2893 30.3885 34.2896 30.1946C34.2907 29.7992 34.293 29.4039 34.2964 29.0086C34.3016 28.4006 34.3032 27.7928 34.3041 27.1849C34.3056 26.8004 34.3073 26.4159 34.3093 26.0315C34.3103 25.7575 34.3103 25.7575 34.3114 25.4779C34.313 25.3104 34.3145 25.1429 34.3162 24.9703C34.3173 24.8223 34.3184 24.6742 34.3196 24.5216C34.3538 24.0229 34.4129 24.0251 34.9137 23.998Z" fill="#7E7E7E"/>
<path d="M38.6193 13.2957C38.6234 13.5047 38.6275 13.7138 38.6318 13.9292C38.6473 14.7019 38.6638 15.4747 38.6806 16.2474C38.6877 16.5823 38.6946 16.9173 38.7012 17.2523C38.7106 17.7327 38.7211 18.2131 38.7318 18.6935C38.7346 18.8442 38.7373 18.995 38.7402 19.1503C38.6889 19.8242 38.6889 19.8242 38.9485 20.3905C39.3531 20.4318 39.3531 20.4318 39.7715 20.3905C40.1489 20.0835 40.1489 20.0835 40.1381 19.599C40.1355 19.3112 40.1355 19.3112 40.1328 19.0177C40.1313 18.7066 40.1313 18.7066 40.1296 18.3893C40.1269 18.1717 40.1241 17.9541 40.1213 17.73C40.1196 17.5089 40.1181 17.2878 40.1168 17.0667C40.1129 16.5247 40.1075 15.9827 40.1007 15.4406C39.8834 15.3862 39.6662 15.3317 39.4423 15.2756C39.4423 14.9489 39.4423 14.6223 39.4423 14.2857C40.1598 14.006 40.8786 13.744 41.613 13.5122C41.7443 13.4708 41.8756 13.4293 42.011 13.3866C42.4296 13.29 42.8 13.2894 43.2281 13.2957C43.2242 13.6142 43.2242 13.6142 43.2203 13.9391C43.2113 14.726 43.2057 15.5128 43.201 16.2997C43.1985 16.6405 43.1951 16.9812 43.1908 17.3219C43.1849 17.8114 43.1821 18.3007 43.1799 18.7902C43.1773 18.9428 43.1748 19.0955 43.1722 19.2527C43.1721 19.4657 43.1721 19.4657 43.172 19.683C43.1709 19.808 43.1698 19.9329 43.1687 20.0616C43.2438 20.4777 43.4236 20.5984 43.7219 20.8855C43.7528 21.4114 43.7528 21.4114 43.7219 21.8755C43.352 21.9632 42.9815 22.0487 42.6109 22.1333C42.3015 22.2051 42.3015 22.2051 41.9859 22.2783C41.2142 22.4034 41.2142 22.4034 40.7591 22.2055C40.4711 21.8652 40.4711 21.8652 40.2653 21.5455C40.1397 21.651 40.0141 21.7565 39.8847 21.8652C39.1277 22.4475 38.3894 22.4797 37.4671 22.3705C36.6988 22.0217 36.3219 21.5821 35.9566 20.8231C35.6364 19.8007 35.741 18.6759 35.7527 17.6148C35.7551 17.2946 35.7525 16.9744 35.7497 16.6543C35.7521 16.3701 35.7521 16.3701 35.7546 16.0801C35.7059 15.5692 35.7059 15.5692 35.2424 15.3203C35.1075 15.2511 34.9725 15.1819 34.8335 15.1106C34.7821 14.6672 34.7821 14.6672 34.8335 14.2857C37.326 13.2957 37.326 13.2957 38.6193 13.2957Z" fill="#7E7E7E"/>
<path d="M58.703 24.6801C58.703 25.4968 58.703 26.3135 58.703 27.155C58.0027 27.0146 57.701 26.9098 57.1187 26.5672C56.2179 26.1049 55.4224 25.9714 54.4234 26.165C53.797 26.4547 53.4863 26.9044 53.1374 27.4953C52.622 28.913 52.6819 30.5101 53.1066 31.9399C53.4287 32.6097 53.657 32.8641 54.2896 33.2496C55.468 33.5787 56.3846 33.3366 57.4473 32.7707C57.7434 32.5957 57.7434 32.5957 58.0446 32.2699C58.2619 32.2699 58.4791 32.2699 58.703 32.2699C58.703 33.0866 58.703 33.9033 58.703 34.7448C56.8361 35.5837 55.4422 36.0028 53.4358 35.4048C52.1543 34.8356 51.2975 33.891 50.7507 32.6102C50.0301 30.626 50.1167 28.3813 50.9976 26.4641C51.6543 25.2452 52.4683 24.4257 53.7881 23.9647C55.6042 23.5419 57.0341 23.9366 58.703 24.6801Z" fill="#7E7E7E"/>
<path d="M47.5108 10.1602C47.6195 10.2146 47.7281 10.2691 47.84 10.3252C47.84 11.4141 47.84 12.5031 47.84 13.6251C48.3832 13.6251 48.9264 13.6251 49.486 13.6251C49.486 14.0062 49.486 14.3874 49.486 14.78C48.9429 14.78 48.3997 14.78 47.84 14.78C47.8944 16.6857 47.9487 18.5915 48.0046 20.5549C48.7379 20.4732 48.7379 20.4732 49.486 20.3899C49.8152 20.8849 49.8152 20.8849 49.7876 21.2175C49.5687 21.7407 49.2273 21.9274 48.7492 22.2068C47.9649 22.5147 47.1827 22.4994 46.3586 22.3699C45.7499 22.0281 45.4474 21.6984 45.2064 21.0499C45.1786 20.5657 45.1682 20.0977 45.1743 19.6139C45.175 19.4066 45.175 19.4066 45.1757 19.195C45.1776 18.7546 45.1817 18.3142 45.1859 17.8737C45.1875 17.5747 45.189 17.2756 45.1904 16.9766C45.194 16.2444 45.1997 15.5122 45.2064 14.78C44.7719 14.78 44.3374 14.78 43.8896 14.78C43.8896 14.3989 43.8896 14.0178 43.8896 13.6251C44.3242 13.6251 44.7587 13.6251 45.2064 13.6251C45.2064 12.8083 45.2064 11.9916 45.2064 11.1501C45.6997 10.9288 46.1934 10.7088 46.6878 10.4901C46.8474 10.4187 47.007 10.3472 47.1714 10.2736C47.2834 10.2362 47.3954 10.1987 47.5108 10.1602Z" fill="#7E7E7E"/>
<path d="M44.823 23.998C45.003 23.9985 45.1829 23.9989 45.3683 23.9993C45.5482 23.9989 45.7281 23.9985 45.9135 23.998C46.3559 24.02 46.3559 24.02 46.5205 24.185C46.5272 24.5149 46.5275 24.845 46.5205 25.1749C46.6729 25.0706 46.6729 25.0706 46.8285 24.9642C47.7528 24.3648 48.5277 23.9671 49.6479 24.02C49.8108 24.0744 49.9738 24.1289 50.1417 24.185C50.1417 24.9472 50.1417 25.7095 50.1417 26.4949C49.8429 26.5085 49.5442 26.5221 49.2364 26.5361C48.2984 26.6118 47.3817 26.7866 46.6851 27.4849C46.6658 27.727 46.6576 27.97 46.6539 28.2129C46.6511 28.3676 46.6484 28.5223 46.6456 28.6817C46.6433 28.8499 46.6411 29.0182 46.6388 29.1916C46.6358 29.3631 46.6327 29.5346 46.6296 29.7113C46.6199 30.2616 46.6112 30.8119 46.6028 31.3623C46.5917 32.0859 46.5796 32.8094 46.5668 33.533C46.5645 33.7013 46.5623 33.8695 46.56 34.0429C46.5573 34.1976 46.5545 34.3523 46.5517 34.5117C46.5496 34.6486 46.5475 34.7855 46.5454 34.9266C46.5205 35.2397 46.5205 35.2397 46.3559 35.4047C45.996 35.4167 45.6358 35.4185 45.2757 35.415C45.0786 35.4135 44.8815 35.412 44.6784 35.4105C44.4495 35.4076 44.4495 35.4076 44.2161 35.4047C44.2123 33.9447 44.2093 32.4846 44.2076 31.0246C44.2067 30.3467 44.2055 29.6689 44.2037 28.991C44.2019 28.3373 44.2009 27.6837 44.2005 27.03C44.2002 26.7801 44.1996 26.5302 44.1987 26.2802C44.1975 25.9314 44.1973 25.5825 44.1974 25.2336C44.197 25.0347 44.1967 24.8357 44.1963 24.6307C44.2229 24.0325 44.2268 24.0276 44.823 23.998Z" fill="#7E7E7E"/>
<path d="M56.5634 13.2955C56.92 13.5934 57.0334 13.812 57.1093 14.2694C57.1433 14.8606 57.1168 15.1835 56.7897 15.688C56.2891 16.0049 55.9938 16.01 55.4112 15.9355C55.2482 15.8266 55.0853 15.7177 54.9174 15.6055C54.4166 17.3515 54.2345 18.9026 54.259 20.7203C54.4763 20.7748 54.6935 20.8292 54.9174 20.8853C54.9174 21.2665 54.9174 21.6476 54.9174 22.0403C53.5051 22.0403 52.0929 22.0403 50.6378 22.0403C50.6378 21.6592 50.6378 21.278 50.6378 20.8853C50.9637 20.8037 50.9637 20.8037 51.2962 20.7203C51.3058 20.0294 51.3116 19.3385 51.3168 18.6476C51.3195 18.4526 51.3223 18.2577 51.3251 18.0569C51.3346 16.6338 51.3346 16.6338 50.967 15.2755C50.6422 14.9548 50.6422 14.9548 50.3086 14.7805C50.3629 14.5082 50.4172 14.236 50.4732 13.9555C50.8397 13.8441 51.2067 13.7345 51.574 13.6255C51.8805 13.5336 51.8805 13.5336 52.1931 13.4399C52.6955 13.3158 53.0885 13.2641 53.6006 13.2955C53.7635 13.7311 53.9265 14.1667 54.0944 14.6155C54.2777 14.3398 54.2777 14.3398 54.4647 14.0586C55.0767 13.2098 55.5166 12.983 56.5634 13.2955Z" fill="#7E7E7E"/>
<path d="M61.4997 13.2954C61.4997 15.7456 61.4997 18.1958 61.4997 20.7202C61.7169 20.7747 61.9342 20.8291 62.1581 20.8852C62.1581 21.2664 62.1581 21.6475 62.1581 22.0402C60.7458 22.0402 59.3335 22.0402 57.8785 22.0402C57.8785 21.6591 57.8785 21.2779 57.8785 20.8852C58.2044 20.8036 58.2044 20.8036 58.5369 20.7202C58.5409 20.0213 58.5439 19.3224 58.5459 18.6235C58.5467 18.3857 58.5479 18.1479 58.5493 17.9101C58.5513 17.5685 58.5522 17.2269 58.5529 16.8854C58.5538 16.6797 58.5547 16.4741 58.5556 16.2622C58.5711 15.7823 58.5711 15.7823 58.3723 15.4404C58.0403 15.2533 58.0403 15.2533 57.7139 15.1104C57.7139 14.8381 57.7139 14.5659 57.7139 14.2854C58.4313 14.0057 59.1502 13.7437 59.8845 13.512C60.0159 13.4705 60.1472 13.429 60.2825 13.3863C60.6767 13.2954 60.6767 13.2954 61.4997 13.2954Z" fill="#7E7E7E"/>
<path d="M60.676 9.50014C61.2421 10.0073 61.4706 10.3131 61.5916 11.0676C61.4827 11.7467 61.2714 12.1045 60.8406 12.6351C60.3468 12.9651 60.3468 12.9651 59.781 12.9547C59.1946 12.8001 59.1946 12.8001 58.8037 12.4391C58.5005 11.9132 58.3837 11.5933 58.3716 10.9851C58.5604 10.3974 58.7473 9.96544 59.1534 9.50014C59.73 9.24328 60.0776 9.32126 60.676 9.50014Z" fill="#7E7E7E"/>
<path d="M70.2256 23.0923C70.9017 23.2335 71.1398 23.4625 71.5424 24.0204C71.6472 24.6857 71.6574 25.0132 71.2647 25.5672C70.8327 25.8715 70.5895 25.9874 70.061 26.0003C69.594 25.7717 69.2759 25.5433 68.9088 25.1754C68.8136 24.4526 68.8272 24.1335 69.2586 23.5357C69.7318 23.1954 69.7318 23.1954 70.2256 23.0923ZM69.8964 23.5254C70.5548 23.6904 70.5548 23.6904 70.5548 23.6904L69.8964 23.5254ZM69.4026 23.8554C69.3483 24.2365 69.294 24.6177 69.238 25.0104C69.401 25.092 69.401 25.092 69.5672 25.1754C69.5672 24.7398 69.5672 24.3042 69.5672 23.8554C69.5129 23.8554 69.4586 23.8554 69.4026 23.8554ZM70.884 23.8554C70.8297 24.2365 70.7754 24.6177 70.7194 25.0104C70.8824 25.0104 71.0453 25.0104 71.2132 25.0104C71.2132 24.6837 71.2132 24.357 71.2132 24.0204C71.1046 23.9659 70.996 23.9115 70.884 23.8554ZM70.061 24.6804C70.061 24.8982 70.061 25.116 70.061 25.3404C69.8981 25.422 69.8981 25.422 69.7318 25.5054C70.0577 25.5054 70.3837 25.5054 70.7194 25.5054C70.6108 25.4509 70.5022 25.3965 70.3902 25.3404C70.2874 25.0001 70.2874 25.0001 70.2256 24.6804C70.1713 24.6804 70.117 24.6804 70.061 24.6804Z" fill="#7E7E7E"/>
</svg>
