<svg width="172" height="48" viewBox="0 0 172 48" fill="none" xmlns="http://www.w3.org/2000/svg">
<g clip-path="url(#clip0_143_139)">
<path d="M135.571 4.81223C135.571 3.39858 134.427 2.25075 133.002 2.25075H129.191C127.766 2.25075 126.622 3.39858 126.622 4.81223V44.346C126.622 45.7596 127.766 46.9074 129.191 46.9074H133.002C134.427 46.9074 135.571 45.7596 135.571 44.346V4.81223ZM140.429 5.8634V7.73618C140.429 8.50945 141.075 9.13774 141.854 9.13774H168.142C169.335 9.13774 170.309 8.18323 170.309 6.98706V3.80939C170.309 2.61322 169.323 1.53789 168.13 1.65871C168.13 1.65871 142.718 4.13561 141.903 4.22019C140.965 4.34101 140.429 5.09012 140.429 5.8634ZM119.146 46.9195C112.607 46.9195 108.492 42.002 108.492 36.5165V20.7006H106.617C105.618 20.7006 104.815 19.9032 104.815 18.9124V16.2664C104.815 15.2756 105.63 14.4782 106.629 14.4782H108.492V4.75181C108.492 3.37442 109.612 2.26283 111 2.26283H114.714C116.102 2.26283 117.222 3.3865 117.222 4.7639V14.4782H123.018C124.016 14.4782 124.832 15.2756 124.832 16.2664V18.9124C124.832 19.9032 124.028 20.7006 123.03 20.7006H117.234V35.3325C117.234 38.2081 118.987 40.1654 122.129 40.1654H122.652C123.736 40.1654 124.613 41.0354 124.613 42.1107V44.9863C124.613 46.0617 123.736 46.9316 122.652 46.9316L119.146 46.9195ZM57.9252 20.1086C61.8336 20.1086 65.1942 22.8634 65.5351 26.5848H50.3761C50.7048 22.8634 54.0167 20.1086 57.9252 20.1086V13.3424C47.3564 13.3424 41.4268 21.5464 41.4268 30.1974C41.4268 39.4163 47.7704 47.5357 57.9982 47.5357C64.9872 47.5357 71.891 43.8747 73.1816 37.8698C73.3521 37.0603 72.8042 35.997 71.6596 35.997H66.6675C65.7543 35.997 65.0115 36.432 64.5732 37.0844C63.1486 39.1626 61.0422 40.2742 57.9495 40.2742C53.5662 40.2742 50.5344 36.8549 50.3152 33.061H71.5622C73.5225 33.061 74.3992 32.0098 74.3992 30.2095C74.3992 21.776 69.3705 13.3545 57.9373 13.3545L57.9252 20.1086ZM154.76 20.1086C158.657 20.1086 162.029 22.8634 162.37 26.5848H147.211C147.54 22.8634 150.852 20.1086 154.76 20.1086V13.3424C144.192 13.3424 138.262 21.5464 138.262 30.1974C138.262 39.4163 144.618 47.5357 154.833 47.5357C161.822 47.5357 168.714 43.8747 170.017 37.8698C170.187 37.0603 169.639 35.997 168.495 35.997H163.503C162.602 35.997 161.859 36.432 161.408 37.0844C159.984 39.1626 157.89 40.2742 154.785 40.2742C150.414 40.2742 147.37 36.8549 147.138 33.061H168.397C170.358 33.061 171.234 32.0098 171.234 30.2095C171.234 21.776 166.206 13.3545 154.773 13.3545L154.76 20.1086Z" fill="#7E7E7E"/>
<path d="M101.344 2.69772H32.5132C30.9425 2.69772 29.6884 3.95429 29.6884 5.51292L29.9198 32.3359C29.9198 32.3359 15.0895 5.75457 14.3102 4.38926C13.5797 3.1206 12.0211 1.93652 9.866 1.93652H4.20419C2.64567 1.93652 1.36719 3.1931 1.36719 4.75173V44.0921C1.36719 45.6387 2.63349 46.9074 4.20419 46.9074H7.83261C9.4033 46.9074 10.6696 45.6387 10.6696 44.0921L10.4383 16.5079C10.4383 16.5079 25.4147 43.3672 26.0478 44.4184C26.9123 45.8441 28.3734 46.9074 30.492 46.9074H35.6912C37.2619 46.9074 38.5282 45.6387 38.5282 44.0921V9.35514H101.356C102.427 9.35514 103.292 8.49729 103.292 7.43403V4.59466C103.28 3.55557 102.415 2.69772 101.344 2.69772Z" fill="#7E7E7E"/>
<path d="M90.2037 19.7826C93.199 19.7826 95.4394 20.8579 96.243 22.7186C96.6326 23.6127 97.3754 23.7819 98.4103 23.7819H102.526C103.208 23.7819 103.987 23.2019 103.987 22.3199C103.987 17.5715 98.2886 13.3306 90.2037 13.3306C81.8389 13.3306 76.3597 17.2815 76.3597 23.5765C76.3597 28.3974 80.1951 31.2609 84.9072 32.4812C87.0502 33.037 90.7273 33.9432 92.505 34.4023C94.4288 34.9098 96.1578 35.4897 96.1578 37.1209C96.1578 39.7065 93.4182 40.5885 90.4107 40.5885C87.5737 40.5885 84.7367 39.332 83.9331 37.3263C83.4583 36.1664 82.6425 35.9972 81.3884 35.9972H77.212C76.4815 35.9972 75.6413 36.6255 75.6413 37.5679V38.0995C75.6413 42.6909 81.851 47.5118 90.4229 47.5118C96.4987 47.5118 104.961 45.0107 104.961 36.9155C104.961 32.2275 101.807 28.9894 96.6692 27.6966C94.6601 27.1891 89.8263 25.9688 88.7792 25.703C86.9041 25.2197 85.1629 24.6156 85.1629 23.0328C85.1507 20.6042 87.4033 19.7826 90.2037 19.7826ZM-62.1781 -6.38798C-61.411 -6.38798 -60.8022 -7.00418 -60.8022 -7.7533C-60.8022 -8.51449 -61.4232 -9.11861 -62.1781 -9.11861C-62.933 -9.11861 -63.554 -8.50241 -63.554 -7.7533C-63.554 -7.00418 -62.933 -6.38798 -62.1781 -6.38798ZM-80.6977 -8.81655C-80.0524 -8.81655 -79.541 -9.33609 -79.541 -9.96438C-79.541 -10.6048 -80.0646 -11.1122 -80.6977 -11.1122C-81.3431 -11.1122 -81.8544 -10.5927 -81.8544 -9.96438C-81.8666 -9.33609 -81.3431 -8.81655 -80.6977 -8.81655ZM-94.5905 19.3476L-95.1506 18.7435C-93.5799 17.2936 -91.9118 14.9738 -91.6317 13.6205C-91.376 12.3519 -89.5496 12.5573 -89.9027 13.9347C-90.3532 15.6987 -92.5206 17.8131 -94.5905 19.3476ZM-106.34 -8.33325C-109.238 -7.08876 -109.664 -4.12856 -107.631 -2.36453C-105.184 -0.225937 -101.129 -2.08663 -101.519 -5.34889C-98.2311 -5.17974 -96.1125 -8.56282 -96.636 -10.9189C-95.1749 -12.1634 -95.0288 -14.8215 -96.7821 -15.8606C-98.6572 -16.9843 -100.435 -16.5493 -101.567 -14.3986C-104.587 -14.6282 -107.473 -12.2721 -106.34 -8.33325L-107.74 -8.93737C-109.579 -12.7554 -106.365 -16.6581 -102.407 -15.764C-101.616 -17.6609 -98.6694 -19.6303 -95.4915 -17.7213C-92.9467 -16.1989 -92.411 -12.26 -95.114 -10.351C-93.8477 -6.67796 -96.3803 -3.68151 -100.24 -4.01982C-100.691 0.704411 -105.184 1.30853 -108.081 -0.926719C-109.725 -2.19538 -110.395 -3.94733 -110.699 -5.2764C-111.028 -6.67796 -111.028 -7.93453 -112.428 -9.37234C-113.475 -10.4598 -115.35 -10.4235 -115.35 -10.4235C-115.35 -13.8549 -118.589 -16.9964 -122.607 -15.474C-124.032 -16.6943 -125.785 -16.8151 -127.052 -15.3048C-127.782 -14.4349 -128.184 -12.1392 -125.931 -11.088C-126.053 -7.9587 -123.642 -5.96509 -120.136 -6.24299C-120.002 -4.57561 -118.139 -3.04114 -116.495 -2.81158L-116.507 -1.97789C-118.26 -2.14705 -119.21 -1.53084 -120.379 -0.0930301C-124.507 -0.286349 -127.405 1.5381 -127.283 4.47413C-130.181 5.01784 -130.729 8.03845 -129.085 9.64541C-127.441 11.2524 -125.03 10.6241 -124.202 8.70298C-121.268 9.25878 -118.687 7.16851 -118.565 4.77619C-115.837 4.77619 -114.632 3.70086 -114.182 1.21187L-113.147 1.29645C-112.842 3.97875 -114.096 6.52815 -117.359 6.22608C-117.445 9.44001 -120.586 11.2282 -123.508 10.1287C-124.872 12.666 -128.001 13.693 -130.631 11.204C-133.164 8.79964 -132.238 4.69161 -128.927 3.70085C-128.854 0.559421 -126.504 -2.43702 -121.962 -1.27711C-121.962 -1.27711 -121.378 -2.67867 -119.953 -2.76325C-120.903 -3.14989 -121.621 -3.66943 -121.816 -4.63603C-125.249 -3.91108 -128.16 -7.04043 -127.38 -10.1939C-130.485 -11.8372 -130.534 -14.8819 -129 -16.6822C-127.405 -18.5671 -124.738 -18.9779 -122.352 -16.948C-118.309 -19.1712 -113.743 -16.4527 -114.023 -11.8855C-111.198 -12.0667 -109.482 -9.62607 -109.798 -7.0646C-109.336 -8.18826 -108.788 -8.70781 -107.74 -8.93737L-106.34 -8.33325Z" fill="#7E7E7E"/>
</g>
<defs>
<clipPath id="clip0_143_139">
<rect width="172" height="48" fill="white"/>
</clipPath>
</defs>
</svg>
