<svg width="179" height="48" viewBox="0 0 179 48" fill="none" xmlns="http://www.w3.org/2000/svg">
<path d="M69.1759 0.00023553C69.3069 0.00082338 69.438 0.00141123 69.573 0.00201689C70.763 0.0268017 71.8263 0.24163 72.9434 0.647502C73.0858 0.698626 73.2282 0.74975 73.3749 0.802423C74.9802 1.44464 76.4152 2.43859 77.7054 3.58962C77.8043 3.67685 77.9031 3.76408 78.0049 3.85395C79.0902 4.82712 80.0604 5.84887 80.9576 7.00248C81.0496 7.11869 81.1417 7.23489 81.2366 7.35462C84.2097 11.1713 84.2097 11.1713 84.2097 12.1806C84.2864 12.1806 84.363 12.1806 84.442 12.1806C84.4721 12.0988 84.5022 12.0171 84.5332 11.9328C85.6682 9.19269 87.7659 6.75731 89.7848 4.64879C89.8497 4.58004 89.9147 4.51129 89.9816 4.44045C92.3144 2.01381 95.6484 0.0971468 99.0336 0.00368333C101.728 -0.0196179 103.748 0.751552 105.718 2.6578C107.314 4.354 107.985 6.54527 108.028 8.84866C107.926 11.6668 106.729 14.3596 105 16.535C104.95 16.5985 104.9 16.6621 104.849 16.7276C103.696 18.1893 102.402 19.515 100.935 20.6539C100.86 20.7129 100.786 20.7718 100.709 20.8325C99.2022 22.0217 97.6067 23.0054 95.9406 23.9491C96.0575 24.0163 96.1744 24.0835 96.2949 24.1528C101.183 26.9942 106.095 30.9228 107.675 36.6549C108.307 39.1768 108.028 41.6792 106.751 43.944C105.448 45.9158 103.477 47.3695 101.167 47.8391C100.847 47.8976 100.56 47.9375 100.238 47.9568C100.127 47.9644 100.016 47.972 99.9009 47.9798C96.1917 48.1114 92.8744 46.1978 90.2281 43.7179C89.1883 42.72 88.2279 41.6818 87.379 40.5126C87.223 40.2983 87.064 40.0865 86.9047 39.8747C86.1647 38.8827 85.5171 37.8547 84.9066 36.7768C84.8628 36.7021 84.8191 36.6275 84.774 36.5506C84.442 35.979 84.442 35.979 84.442 35.7176C84.3653 35.7176 84.2887 35.7176 84.2097 35.7176C84.1859 35.8095 84.1621 35.9015 84.1376 35.9962C83.9181 36.582 83.6015 37.0859 83.2733 37.6153C83.2054 37.7254 83.1376 37.8355 83.0676 37.9489C82.5571 38.7691 82.0193 39.5489 81.4222 40.3073C81.3477 40.4051 81.2733 40.503 81.1967 40.6038C80.5782 41.4077 79.9058 42.1564 79.2154 42.8964C79.1615 42.955 79.1076 43.0136 79.0521 43.0739C76.6371 45.6887 73.2861 47.7835 69.6867 47.9757C67.1546 48.0423 64.9573 47.221 63.0999 45.4634C61.2632 43.4996 60.6693 41.2222 60.7121 38.5793C60.8498 34.6985 63.3484 31.3884 65.9746 28.7742C66.2784 28.4924 66.5893 28.2199 66.9037 27.9504C67.0024 27.8651 67.0024 27.8651 67.103 27.7781C68.8334 26.2978 70.7616 25.1074 72.7111 23.9491C72.654 23.9167 72.5969 23.8842 72.538 23.8508C69.8645 22.3257 67.4797 20.5848 65.2777 18.4179C65.2085 18.3501 65.1393 18.2823 65.068 18.2125C62.6771 15.8358 60.7541 12.4775 60.7207 9.02335C60.7201 8.89532 60.7195 8.76728 60.7189 8.63536C60.7165 8.51005 60.7141 8.38475 60.7116 8.25564C60.7057 7.01673 60.9431 5.87856 61.5029 4.77383C61.5425 4.69502 61.5821 4.61621 61.623 4.53501C62.4787 2.90957 63.7712 1.68772 65.3793 0.846095C65.4879 0.788567 65.4879 0.788567 65.5988 0.729876C66.7388 0.163999 67.9172 -0.00728943 69.1759 0.00023553Z" fill="#7E7E7E"/>
<path d="M148.799 0.0308037C148.899 0.0296511 148.998 0.0284986 149.1 0.027311C152.151 -0.000850389 154.944 0.206926 157.848 1.23569C157.964 1.27614 157.964 1.27614 158.081 1.31741C160.656 2.24195 163.045 3.7186 164.995 5.65692C165.174 5.83369 165.356 6.00697 165.538 6.1803C169.875 10.3704 171.913 16.6032 172.403 22.5219C172.412 22.6278 172.421 22.7336 172.43 22.8427C172.516 24.0767 172.483 25.2951 172.483 26.5379C160.141 26.5379 147.799 26.5379 135.084 26.5379C136.182 31.5475 137.858 35.6429 142.196 38.4819C144.896 40.1834 147.974 40.83 151.119 40.8146C151.252 40.8143 151.252 40.8143 151.388 40.814C152.828 40.809 154.229 40.7304 155.642 40.4247C155.721 40.4077 155.8 40.3907 155.882 40.3732C158.712 39.7407 161.092 38.3093 163.191 36.3058C163.26 36.2425 163.328 36.1793 163.399 36.1141C164.247 35.3013 164.935 34.3103 165.63 33.3637C166.074 33.5164 166.335 33.6873 166.654 34.033C166.952 34.3465 167.25 34.6465 167.576 34.9303C167.975 35.2783 168.365 35.6356 168.752 35.9969C169.203 36.4173 169.655 36.8373 170.109 37.2546C170.2 37.3385 170.292 37.4224 170.386 37.5088C170.634 37.7346 170.634 37.7346 170.973 37.9534C170.811 38.4326 170.589 38.7649 170.269 39.1523C170.176 39.2647 170.083 39.3771 169.988 39.4929C169.628 39.9162 169.26 40.3321 168.887 40.7438C168.723 40.93 168.565 41.122 168.413 41.318C168.072 41.7434 167.668 42.0724 167.256 42.4254C167.16 42.5128 167.063 42.6002 166.964 42.6902C163.433 45.8127 158.856 47.367 154.248 47.8389C154.129 47.8519 154.01 47.865 153.887 47.8784C147.965 48.4193 141.804 47.1813 136.942 43.6022C136.845 43.5313 136.845 43.5313 136.746 43.4589C131.704 39.7442 128.621 34.1468 127.595 27.9576C126.655 21.4931 128.084 14.6134 131.953 9.33802C135.748 4.2894 141.021 1.01692 147.245 0.114097C147.763 0.0500264 148.278 0.0358248 148.799 0.0308037ZM139.04 11.842C137.451 13.7133 135.432 16.8959 135.432 19.4768C145.053 19.4768 154.673 19.4768 164.585 19.4768C164.235 17.8901 164.235 17.8901 163.75 16.3582C163.699 16.2205 163.699 16.2205 163.647 16.0801C162.322 12.6229 159.913 9.69539 156.528 8.18085C150.556 5.65144 143.452 7.00622 139.04 11.842Z" fill="#7E7E7E"/>
<path d="M0.353516 1.11816C28.3428 1.11816 28.3428 1.11816 35.2512 8.11576C38.9162 11.9023 41.2289 17.3906 41.261 22.7078C41.2618 22.7989 41.2626 22.8901 41.2634 22.9839C41.2654 23.2762 41.2662 23.5685 41.2664 23.8608C41.2665 23.9607 41.2666 24.0606 41.2668 24.1635C41.2655 25.6878 41.1995 27.1605 40.8889 28.6564C40.8637 28.7849 40.8637 28.7849 40.8381 28.916C40.0151 33.0621 38.0637 36.7718 35.1977 39.8365C35.1013 39.9404 35.0049 40.0443 34.9055 40.1514C31.7727 43.4324 27.541 45.4918 23.1619 46.4121C23.0556 46.4346 22.9493 46.4572 22.8398 46.4804C15.4749 47.8982 7.8502 46.8976 0.353516 46.8976C0.353516 31.7904 0.353516 16.6832 0.353516 1.11816ZM7.78694 8.06157C7.78694 18.5473 7.78694 29.033 7.78694 39.8365C15.2582 40.2715 15.2582 40.2715 23.1547 39.1524C23.2991 39.1065 23.2991 39.1065 23.4465 39.0597C27.1266 37.8629 30.1472 35.4183 31.9678 31.9479C32.5884 30.7079 33.005 29.4138 33.3393 28.068C33.3602 27.9868 33.381 27.9056 33.4025 27.8219C34.3648 23.8897 33.7345 19.0273 31.7323 15.5336C29.6941 12.1374 26.5814 9.66893 22.7699 8.64999C17.8308 7.4583 12.9966 8.06157 7.78694 8.06157Z" fill="#7E7E7E"/>
<path d="M114.058 1.11816C116.511 1.11816 118.964 1.11816 121.491 1.11816C121.491 16.2254 121.491 31.3326 121.491 46.8976C119.038 46.8976 116.585 46.8976 114.058 46.8976C114.058 31.7904 114.058 16.6832 114.058 1.11816Z" fill="#7E7E7E"/>
<path d="M47.1562 1.11816C49.6093 1.11816 52.0623 1.11816 54.5897 1.11816C54.5897 16.2254 54.5897 31.3326 54.5897 46.8976C52.1366 46.8976 49.6836 46.8976 47.1562 46.8976C47.1562 31.7904 47.1562 16.6832 47.1562 1.11816Z" fill="#7E7E7E"/>
<path d="M100.806 6.34876C101.414 6.80773 101.799 7.35528 102.094 8.06163C102.384 10.3151 101.337 12.2762 100.025 14.0194C99.4392 14.7782 98.7996 15.4841 98.1449 16.1819C98.0371 16.3025 98.0371 16.3025 97.9272 16.4255C95.0998 19.4821 90.5425 21.6696 86.4141 21.8308C86.5219 17.0342 89.2846 12.6986 92.5177 9.40765C94.4648 7.53953 98.0464 4.70433 100.806 6.34876Z" fill="white"/>
<path d="M86.4171 26.0674C88.447 26.3169 90.3855 26.6527 92.2244 27.5973C92.3674 27.6659 92.5104 27.7342 92.6536 27.8023C94.2846 28.5884 95.74 29.5717 97.1026 30.7748C97.2706 30.9213 97.2706 30.9213 97.442 31.0708C99.4132 32.8233 101.911 35.6207 102.132 38.3912C102.136 39.6434 102.019 40.3456 101.158 41.2722C100.45 41.9456 99.7458 42.0283 98.7937 42.0183C96.1529 41.902 93.814 39.7086 91.9921 37.9536C91.9128 37.8807 91.8334 37.8079 91.7517 37.7329C88.8518 34.979 86.5362 30.3481 86.4053 26.2903C86.4092 26.2168 86.4131 26.1432 86.4171 26.0674Z" fill="white"/>
<path d="M73.5261 7.35538C74.01 7.68627 74.4672 8.04132 74.9199 8.41454C74.9831 8.46665 75.0463 8.51876 75.1115 8.57245C78.8808 11.6971 81.6857 16.1923 82.1783 21.1673C82.1989 21.3883 82.2182 21.6094 82.2372 21.8306C77.5591 21.7227 73.1567 18.9813 69.9759 15.6738C68.2296 13.7226 66.4637 11.296 66.5137 8.56211C66.6044 7.7649 66.9503 7.13881 67.53 6.59778C69.4208 5.15271 71.7372 6.23281 73.5261 7.35538Z" fill="white"/>
<path d="M82.1164 26.1848C81.868 30.7225 79.7949 34.553 76.7736 37.8356C76.6926 37.924 76.6116 38.0124 76.5282 38.1036C74.7819 39.9441 72.182 41.946 69.5653 42.006C68.5823 41.9842 67.856 41.6363 67.1697 40.9248C66.5102 39.9856 66.4261 39.086 66.5527 37.9532C66.6952 37.4152 66.8964 36.9252 67.1334 36.4233C67.2091 36.2622 67.2091 36.2622 67.2863 36.0979C69.4899 31.7468 73.6627 28.409 78.1937 26.8745C78.7506 26.6993 79.3128 26.554 79.8806 26.4201C79.9842 26.3957 80.0879 26.3712 80.1947 26.346C80.848 26.2037 81.4484 26.1628 82.1164 26.1848Z" fill="white"/>
<path d="M177.194 40.5054C177.965 40.9824 178.575 41.7321 178.849 42.609C178.934 43.723 178.749 44.63 178.04 45.5088C177.406 46.136 176.726 46.3457 175.851 46.3823C174.977 46.3457 174.273 46.1425 173.659 45.4881C173.006 44.6366 172.765 43.8446 172.852 42.757C173 42.0047 173.408 41.2974 174.001 40.8194C174.928 40.2189 176.165 40.0099 177.194 40.5054ZM173.877 41.8367C173.472 42.5117 173.432 43.1853 173.528 43.955C173.738 44.6901 174.187 45.1821 174.806 45.6026C175.414 45.9175 176.012 45.868 176.664 45.7203C177.345 45.3692 177.884 44.7957 178.174 44.0727C178.279 43.2092 178.241 42.4261 177.71 41.719C177.174 41.13 176.655 40.8266 175.859 40.7408C175.045 40.8249 174.421 41.2343 173.877 41.8367Z" fill="#7E7E7E"/>
<path d="M174.573 41.6016C174.906 41.5918 175.239 41.5821 175.582 41.5721C175.686 41.5678 175.79 41.5636 175.897 41.5591C176.359 41.5526 176.61 41.57 177.018 41.8093C177.323 42.1638 177.315 42.3397 177.288 42.7894C177.23 43.0891 177.108 43.2702 176.896 43.4845C176.953 43.5314 177.01 43.5783 177.069 43.6266C177.295 43.8978 177.281 44.0399 177.266 44.3892C177.263 44.4843 177.26 44.5794 177.257 44.6774C177.253 44.7498 177.249 44.8222 177.245 44.8967C176.938 44.8967 176.631 44.8967 176.315 44.8967C176.277 44.5472 176.239 44.1977 176.199 43.8376C175.969 43.7987 175.739 43.7599 175.502 43.7199C175.502 44.1082 175.502 44.4966 175.502 44.8967C175.196 44.8967 174.889 44.8967 174.573 44.8967C174.573 43.8093 174.573 42.7219 174.573 41.6016ZM175.502 42.19C175.502 42.5007 175.502 42.8114 175.502 43.1315C175.732 43.0926 175.962 43.0538 176.199 43.0138C176.238 42.8196 176.276 42.6254 176.315 42.4253C175.972 42.1465 175.972 42.1465 175.502 42.19Z" fill="#7E7E7E"/>
</svg>
