<svg width="220" height="48" viewBox="0 0 220 48" fill="none" xmlns="http://www.w3.org/2000/svg">
<path d="M211.848 13.7458C211.848 13.5084 211.896 13.271 211.992 13.0811C212.185 12.6538 212.521 12.3215 212.905 12.1791C213.338 11.9891 213.819 11.9891 214.251 12.1791C214.684 12.369 215.02 12.7013 215.212 13.0811C215.356 13.5084 215.356 13.9832 215.212 14.4105C215.02 14.8378 214.684 15.1702 214.251 15.3601C213.819 15.5025 213.338 15.5025 212.905 15.3601C212.473 15.1702 212.185 14.8378 211.992 14.4105C211.896 14.2206 211.848 13.9832 211.848 13.7458ZM212.088 13.7458C212.088 13.9357 212.136 14.1256 212.185 14.3156C212.281 14.5055 212.377 14.6479 212.521 14.7903C212.665 14.9328 212.809 15.0277 213.002 15.1227C213.386 15.2651 213.77 15.2651 214.155 15.1227C214.491 14.9802 214.78 14.6954 214.924 14.363C215.068 13.9832 215.068 13.6034 214.924 13.2236C214.828 12.8437 214.539 12.5589 214.155 12.4164C213.77 12.274 213.386 12.274 213.002 12.4164C212.665 12.5589 212.377 12.8437 212.233 13.1761C212.136 13.366 212.088 13.5559 212.088 13.7458ZM213.194 14.7429H212.953V12.7488H213.722C213.915 12.7488 214.059 12.7963 214.203 12.8912C214.299 12.9862 214.347 13.1286 214.347 13.3185C214.347 13.4135 214.347 13.461 214.299 13.5559C214.299 13.6034 214.251 13.6509 214.203 13.6983C214.155 13.7458 214.107 13.7933 214.059 13.8408C213.963 13.8408 213.915 13.8408 213.867 13.8883L214.443 14.7429H214.155L213.578 13.8883H213.194V14.7429ZM213.194 13.6509H213.53C213.578 13.6509 213.674 13.6509 213.722 13.6509C213.77 13.6509 213.867 13.6509 213.915 13.6034C213.963 13.6034 214.011 13.5559 214.059 13.5084C214.107 13.461 214.107 13.366 214.107 13.3185C214.107 13.2236 214.059 13.1286 213.963 13.0811C213.915 13.0337 213.867 12.9862 213.819 12.9862C213.77 12.9862 213.722 12.9862 213.674 12.9862H213.194V13.6509Z" fill="#7E7E7E"/>
<path d="M161.751 38.3615L160.741 39.6909C161.318 39.7859 161.751 40.2606 161.703 40.8778C161.703 41.6375 161.078 42.2072 160.309 42.2072C160.261 42.2072 160.261 42.2072 160.213 42.2072C159.636 42.2072 159.107 41.9698 158.771 41.5425L159.3 41.0203C159.492 41.3052 159.828 41.4951 160.213 41.4951C160.549 41.5425 160.837 41.3052 160.886 40.9728C160.886 40.9253 160.886 40.9253 160.886 40.8778C160.886 40.3556 160.357 40.2132 159.828 40.3556L159.684 40.0233L160.405 39.0262H158.963V38.2666H161.799V38.3615H161.751ZM157.57 38.2191V38.314L156.128 42.0648H155.167L156.464 38.9313H154.734V38.1716H157.57V38.2191ZM152.427 39.501C152.427 39.1212 152.139 38.8363 151.803 38.8363C151.466 38.8363 151.13 39.1212 151.13 39.4535C151.13 39.7859 151.418 40.1182 151.754 40.1182C152.091 40.1657 152.379 39.8808 152.427 39.5485C152.427 39.5485 152.427 39.5485 152.427 39.501ZM153.292 39.501C153.292 39.9283 153.148 40.3081 152.86 40.6405L151.851 42.0648H150.793L151.803 40.7829C151.706 40.7829 151.658 40.8304 151.562 40.8304C150.889 40.8304 150.265 40.3081 150.265 39.6434C150.265 39.596 150.265 39.5485 150.265 39.501C150.313 38.6939 151.082 38.0767 151.899 38.1241C152.62 38.2191 153.244 38.7888 153.292 39.501ZM148.487 38.1241V42.0648H147.621V39.3111L146.853 39.6909L146.564 39.0262L148.342 38.0767L148.487 38.1241ZM141.662 41.685C141.662 41.4001 141.854 41.2102 142.143 41.2102C142.143 41.2102 142.143 41.2102 142.191 41.2102C142.479 41.2102 142.671 41.4001 142.671 41.685C142.671 41.9698 142.479 42.1598 142.191 42.1598C142.191 42.1598 142.191 42.1598 142.143 42.1598C141.903 42.1598 141.662 41.9698 141.662 41.685ZM138.779 38.9787H137.673V38.2191H140.701V38.9787H139.596V42.1123H138.731V38.9787H138.779ZM133.3 41.5425L133.781 40.9253C134.069 41.2102 134.405 41.3526 134.79 41.3526C135.174 41.3526 135.415 41.1627 135.415 40.9253C135.415 40.2132 133.444 40.7829 133.444 39.3111C133.444 38.5989 134.021 38.1241 134.934 38.1241C135.415 38.1241 135.895 38.2666 136.232 38.5989L135.751 39.2161C135.511 38.9787 135.222 38.8838 134.886 38.8838C134.454 38.8838 134.261 39.0737 134.261 39.3111C134.261 39.9758 136.232 39.501 136.232 40.9253C136.232 41.685 135.655 42.1598 134.742 42.1598C134.261 42.1598 133.685 41.9698 133.3 41.5425ZM131.858 41.3526V42.1123H129.359V38.2666H131.81V39.0262H130.176V39.7859H131.714V40.5455H130.176V41.4476L131.858 41.3526Z" fill="#7E7E7E"/>
<path d="M184.386 46.0061C181.647 46.0061 178.908 44.3919 178.908 41.3533C178.908 37.745 184.819 34.7539 196.161 35.2762C193.325 41.5432 189.481 46.0061 184.386 46.0061ZM215.336 20.4156C212.789 20.4156 212.5 23.7865 214.423 24.4987C215.384 24.8785 216.585 24.926 216.585 26.0655C216.585 27.4423 214.663 34.6589 200.87 34.0892C201.303 33.1397 201.687 32.1426 202.072 31.0981L204.955 22.5996C207.214 16.0477 207.358 15.4779 209.425 13.0091C210.001 12.3444 210.866 10.3029 204.811 12.9141C201.447 14.3385 201.639 15.0981 201.88 15.4779C202.697 16.8548 202.408 17.8518 200.87 22.4572L199.909 25.0684C198.756 28.3444 196.882 30.5284 194.911 30.3859C193.085 30.2435 193.037 28.202 194.142 25.0684L197.699 15.0032C197.891 14.4334 197.602 13.4364 194.142 15.0981C192.989 15.6678 191.739 16.38 191.547 16.9023C191.259 17.7094 192.556 18.0417 192.076 19.4661L190.057 24.6411C188.423 29.2465 190.201 32.2851 193.998 32.2851C195.248 32.2851 196.497 31.8578 197.506 31.1456C197.458 31.2405 197.506 31.383 197.65 31.383C197.699 31.383 197.795 31.383 197.843 31.3355C197.554 32.1426 197.218 33.0922 196.882 33.8043C182.897 32.8073 174.006 35.2287 174.006 41.7331C174.006 44.4394 176.697 48.0002 183.762 48.0002C189.577 48.0002 196.017 43.8222 200.246 35.6085C213.798 36.6055 219.084 29.9112 219.084 25.021C219.084 22.6471 217.691 20.4156 215.336 20.4156Z" fill="#7E7E7E"/>
<path d="M180.205 22.4089C181.406 21.9816 182.319 21.8392 183.04 21.4594C183.136 21.4119 183.281 21.4594 183.329 21.5543C183.377 21.6018 183.377 21.6493 183.329 21.6967L182.031 25.2101C181.022 28.0588 179.82 29.3407 178.379 29.5306C177.129 29.673 176.264 28.8659 176.264 27.3941C176.264 25.1626 177.61 23.311 180.205 22.4089ZM156.512 21.7442L155.215 25.2576C154.205 28.1062 153.004 29.3881 151.562 29.5781C150.313 29.7205 149.448 28.9134 149.448 27.4416C149.448 25.1626 150.793 23.311 153.388 22.4089C154.59 21.9816 155.503 21.8392 156.224 21.4594C156.32 21.4119 156.464 21.4594 156.512 21.5543C156.56 21.6018 156.56 21.6493 156.512 21.7442ZM180.397 30.1953C180.493 30.1003 180.589 30.1003 180.685 30.1953C180.734 30.2427 180.734 30.2902 180.734 30.3377C180.878 31.4772 181.55 32.0469 183.665 32.0469C185.059 32.0469 186.116 31.7146 186.212 31.3822C186.5 30.5276 184.578 30.0528 185.059 28.676L188.038 20.13C189.048 17.2338 188.134 13.9104 183.136 13.9104C181.502 13.9104 179.868 14.3377 178.427 15.1448C178.186 15.2872 178.09 15.2398 177.898 15.0024C177.369 14.2427 176.504 13.8154 175.543 13.8154C173.573 13.8154 172.131 14.9074 170.689 16.854C170.641 16.9015 170.545 16.9015 170.497 16.9015C170.449 16.854 170.449 16.8065 170.449 16.7591L171.218 14.5276C171.41 13.9579 171.266 12.8659 167.806 14.5276C166.652 15.0973 165.403 15.8095 165.211 16.3318C164.922 17.2338 166.412 17.4237 165.932 18.8006L162.616 28.3436C162.087 29.8629 160.934 30.67 159.636 30.5751C158.242 30.4801 157.954 29.3407 158.338 28.2962L161.174 20.0825C162.183 17.1864 161.27 13.8629 156.272 13.8629C152.956 13.8629 149.592 15.8095 148.919 17.7086C148.583 18.7056 149.111 19.4653 150.072 19.4653C151.13 19.4653 152.043 18.6582 152.523 17.5187C153.052 16.3318 154.253 15.3347 155.551 15.3347C157.041 15.3347 158.146 16.2843 157.377 18.3733C156.993 19.4653 156.176 19.9875 153.148 20.6522C147.381 21.8867 144.93 24.6404 144.93 28.3911C144.93 30.5751 146.468 32.1419 149.111 32.1419C150.745 32.0944 152.331 31.3822 153.436 30.1478C153.533 30.0528 153.629 30.0528 153.725 30.1478C153.773 30.1953 153.773 30.2427 153.773 30.2427C153.965 31.4297 153.244 32.1419 158.915 32.1419C164.922 32.1419 167.229 31.6196 167.373 31.2873C167.662 30.4327 166.076 30.1478 166.556 28.7709L169.296 20.9371C170.113 18.5632 171.699 16.3792 173.429 16.3792C175.351 16.3792 174.678 18.8481 176.264 19.3703C176.408 19.4178 176.601 19.4653 176.745 19.4653H176.793H176.841C177.85 19.4178 178.715 18.6107 179.196 17.5187C179.724 16.3318 180.926 15.3347 182.223 15.3347C183.713 15.3347 184.818 16.2843 184.05 18.3733C183.665 19.4653 182.848 19.9875 179.82 20.6522C174.053 21.8867 171.602 24.6404 171.602 28.3911C171.602 30.5751 173.14 32.1419 175.784 32.1419C177.754 32.1419 179.34 31.4297 180.397 30.1953Z" fill="#7E7E7E"/>
<path d="M142.14 28.8661L150.454 5.03227C150.646 4.46254 150.262 3.46551 146.753 5.12723C145.6 5.69696 144.35 6.40913 144.158 6.93138C143.918 7.59607 145.167 7.97589 144.639 9.54266L137.911 28.8661C137.43 30.2904 135.556 30.4804 135.46 31.24C135.412 31.5723 135.892 31.9996 138.68 31.9996C142.092 31.9996 143.245 31.7148 143.341 31.335C143.582 30.4329 141.659 30.243 142.14 28.8661Z" fill="#7E7E7E"/>
<path d="M127.82 30.4807C126.33 30.4807 125.417 28.724 125.417 26.1603C125.417 22.1721 128.156 15.4778 131.328 15.4778C132.818 15.4778 133.731 17.2344 133.731 19.7982C133.731 23.8338 130.992 30.4807 127.82 30.4807ZM131.376 13.7686C126.042 13.7686 121.38 19.4659 121.38 25.0683C121.38 29.2463 124.023 32.2374 127.724 32.2374C133.01 32.2374 137.72 26.5876 137.72 20.9852C137.768 16.7597 135.125 13.7686 131.376 13.7686Z" fill="#7E7E7E"/>
<path d="M125.657 4.36795C125.802 3.65579 125.657 3.4184 124.84 3.65579C121.188 4.60534 118.881 0 112.922 0C106.002 0 103.503 4.46291 103.503 8.40356C103.503 15.1929 113.451 18.9436 113.451 28.1068C113.451 34.6113 108.693 39.454 101.917 39.454C93.7468 39.454 89.7099 33.8516 89.7099 27.5371C89.7099 20.1306 93.6988 17.3769 97.5915 17.3769C99.8502 17.2819 101.724 19.0386 101.821 21.2226C101.821 21.3175 101.821 21.365 101.821 21.4599C101.821 23.1217 100.763 25.3531 98.7929 25.7329C98.4565 25.7804 98.2162 26.1602 98.2643 26.4926C98.2643 26.5401 98.2643 26.5401 98.3123 26.5875C98.7929 28.0119 100.139 29.0089 101.676 29.0564C105.281 29.0564 106.819 25.5905 106.819 23.2166C106.819 17.8516 102.493 14.1959 97.2551 14.1959C88.8929 14.1959 84.0391 21.1276 84.0391 27.6321C84.0391 35.7033 89.806 42.2552 101.676 42.2552C112.393 42.2552 119.41 33.6617 119.41 25.2107C119.41 16.0475 109.654 11.727 109.654 6.4095C109.654 4.03561 110.952 2.42137 113.258 2.42137C117.728 2.42137 120.083 6.31454 120.275 11.6795C120.275 12.1543 120.659 12.8665 121.428 12.1068C123.11 10.4926 125.081 7.64392 125.657 4.36795Z" fill="#7E7E7E"/>
<path d="M0.908203 1.61426V11.3947H90.2964C92.5071 10.4451 94.8619 9.97034 97.2648 10.0178C97.9857 10.0178 98.7066 10.0653 99.4274 10.1603C99.3313 9.59052 99.2833 8.97331 99.2833 8.40358C99.2833 6.02969 99.908 3.6558 101.206 1.61426H0.908203Z" fill="#7E7E7E"/>
<path d="M0.908203 11.442V21.2224H81.0212C81.7901 19.2284 82.8954 17.3767 84.3372 15.715C85.9712 13.8634 88.0377 12.3916 90.2964 11.3945L0.908203 11.442Z" fill="white"/>
<path d="M0.908203 21.2227V31.0031H80.1081C79.9158 29.9111 79.8197 28.7716 79.8197 27.6322C79.8197 25.4482 80.2522 23.2642 81.0212 21.2227H0.908203Z" fill="url(#paint0_linear_145_301)"/>
<path d="M0.908203 31.0024V40.7829H85.2503C82.511 38.1716 80.6848 34.7057 80.1081 31.0024H0.908203Z" fill="#7E7E7E"/>
<defs>
<linearGradient id="paint0_linear_145_301" x1="0.907777" y1="26.1002" x2="81.0092" y2="26.1002" gradientUnits="userSpaceOnUse">
<stop offset="0.246" stop-color="white"/>
</linearGradient>
</defs>
</svg>
