<svg width="180" height="48" viewBox="0 0 180 48" fill="none" xmlns="http://www.w3.org/2000/svg">
<path d="M123.572 5.07384C128.834 9.17148 132.047 14.598 132.981 21.1669C133.584 28.6002 131.619 34.8333 126.794 40.5855C120.886 46.3017 115.041 47.869 107.016 47.869C99.5509 47.7117 94.42 45.0625 89.0471 40.0171C84.7641 35.0761 83.3223 28.943 83.4169 22.5561C84.0875 15.7701 87.0599 10.042 92.2477 5.60278C101.736 -0.781951 113.884 -1.31729 123.572 5.07384ZM107.914 4.04637C107.241 4.92296 106.593 5.81893 105.956 6.72145C104.024 9.35704 101.935 11.5445 99.5424 13.7739C96.5306 16.7307 94.3019 19.2218 93.8143 23.5015C93.9775 27.3615 94.74 30.8268 97.0945 33.9586C101.058 37.5461 104.895 38.7249 110.16 38.5032C114.865 37.8954 117.394 35.2881 120.291 31.8429C122.405 28.833 122.457 25.4765 122.014 21.9451C120.054 17.1661 116.654 14.1609 112.88 10.6824C110.941 8.60186 109.848 6.62752 108.698 4.04637C108.439 4.04637 108.181 4.04637 107.914 4.04637Z" fill="#7E7E7E"/>
<path d="M6.96519 0.579994C7.59226 0.580229 8.21934 0.580464 8.86541 0.580707C9.53461 0.596773 10.2038 0.612839 10.8933 0.629392C11.5843 0.633796 12.2754 0.638201 12.9873 0.642739C15.1905 0.660138 17.3927 0.6992 19.5955 0.738827C21.0908 0.754442 22.586 0.768645 24.0813 0.781385C27.7433 0.815672 31.4046 0.869387 35.0662 0.933378C34.009 4.36078 33.1573 6.3759 30.3663 8.71543C28.3969 9.69367 26.935 9.64251 24.733 9.7125C23.9288 9.74159 23.1245 9.77069 22.2959 9.80066C20.5905 9.85548 18.8851 9.91019 17.1798 9.96481C15.9749 10.0084 15.9749 10.0084 14.7457 10.053C14.0049 10.0765 13.2642 10.1001 12.5011 10.1244C10.8024 10.0857 10.8024 10.0857 9.99981 11.05C9.81679 12.4889 9.67627 13.9332 9.55919 15.3788C9.4461 16.7752 9.333 18.1716 9.21648 19.6103C14.9034 19.6103 20.5904 19.6103 26.4496 19.6103C25.6663 25.0577 25.6663 25.0577 23.8059 26.906C20.4754 28.9542 18.0117 29.0353 14.1612 28.9974C12.7753 28.9869 12.7753 28.9869 11.3614 28.9761C10.6536 28.9671 9.94577 28.9581 9.21648 28.9488C9.3054 30.3598 9.40537 31.7702 9.51023 33.1802C9.56476 33.9657 9.61928 34.7512 9.67546 35.5605C9.7825 36.2035 9.88953 36.8465 9.99981 37.509C11.9666 38.486 13.2972 38.3608 15.4953 38.3419C16.6752 38.354 16.6752 38.354 17.879 38.3663C19.5333 38.3783 21.1879 38.3725 22.842 38.348C28.7314 38.4526 28.7314 38.4526 31.1786 40.2137C33.3173 42.591 34.3424 44.534 35.0662 47.6257C30.6613 47.7027 26.2568 47.7591 21.8514 47.7967C20.353 47.8123 18.8547 47.8336 17.3565 47.8605C15.202 47.8983 13.0481 47.9159 10.8933 47.9297C10.2241 47.9457 9.55489 47.9618 8.86541 47.9783C7.9248 47.9787 7.9248 47.9787 6.96519 47.9791C6.14069 47.9894 6.14069 47.9894 5.29953 48C2.97509 47.4445 2.04549 46.3698 0.599912 44.5129C0.202034 42.6232 0.202034 42.6232 0.19448 40.4942C0.184603 39.6943 0.174727 38.8944 0.164551 38.0702C0.170893 37.2109 0.177236 36.3516 0.183771 35.4662C0.180773 34.5798 0.177775 33.6934 0.174687 32.7801C0.172555 30.9067 0.178332 29.0332 0.19142 27.1598C0.208187 24.2902 0.191579 21.422 0.171531 18.5524C0.173602 16.7326 0.177616 14.9127 0.183771 13.0928C0.177428 12.2335 0.171086 11.3742 0.164551 10.4888C0.174427 9.68892 0.184304 8.88903 0.19448 8.0649C0.196973 7.36231 0.199466 6.65973 0.202034 5.93585C0.970368 2.28678 3.28482 0.533712 6.96519 0.579994Z" fill="#7E7E7E"/>
<path d="M169.797 4.04636C170.314 4.30317 170.831 4.55998 171.364 4.82457C170.264 7.46449 169.103 8.76225 166.664 10.272C164.919 10.5123 164.919 10.5123 163.041 10.4453C162.358 10.4307 161.675 10.4162 160.972 10.4012C160.265 10.3746 159.559 10.348 158.83 10.3206C157.427 10.2738 156.024 10.2341 154.62 10.2021C154 10.1791 153.38 10.1561 152.741 10.1324C150.784 10.2891 149.549 10.8553 147.864 11.8284C147.602 13.6757 147.602 13.6757 147.864 15.7194C150.529 18.4021 153.909 18.9836 157.459 19.9023C168.411 22.9403 168.411 22.9403 172.147 27.9275C173.515 32.4289 173.871 36.9932 171.706 41.3029C168.981 44.7737 166.185 46.2279 161.964 47.6258C152.085 48.337 143.823 47.8033 135.331 42.1784C136.454 38.6426 136.454 38.6426 138.17 37.266C142.673 35.9711 146.654 36.7386 151.04 37.9348C154.856 38.8179 158.555 38.7231 161.964 36.731C162.941 35.3113 162.941 35.3113 162.747 33.6182C159.749 29.5352 155.001 28.946 150.35 27.6859C144.996 26.1452 140.716 24.3164 137.681 19.4159C136.709 15.7948 136.47 13.0716 137.681 9.4938C144.726 -1.8115 158.921 -1.10741 169.797 4.04636Z" fill="#7E7E7E"/>
<path d="M70.9182 2.57975C74.6199 4.79921 78.3136 7.23902 79.7122 11.4075C75.8997 13.3013 73.7617 14.2254 69.529 12.9639C68.3828 12.4371 67.2407 11.9013 66.1019 11.3589C62.0615 9.52329 58.896 8.93969 54.5387 10.4196C50.2437 12.3519 47.8702 14.7034 45.7845 18.9464C44.8057 23.6316 45.1972 27.7385 47.449 31.9813C50.5902 35.637 53.3392 36.9095 58.0392 37.751C61.9968 37.9697 65.3405 36.5062 68.7793 34.6837C71.184 33.5727 73.1845 33.7479 75.7956 33.9755C78.0966 35.1428 78.0966 35.1428 79.7122 36.3101C77.5859 41.0224 73.7772 43.7739 69.1373 45.9404C62.9329 48.1801 55.3922 48.443 49.2115 45.989C43.0672 42.7296 38.2498 38.0002 35.6502 31.5436C34.3909 25.0796 34.1225 18.0921 37.4127 12.1857C45.3398 1.38119 58.1836 -3.34394 70.9182 2.57975Z" fill="#7E7E7E"/>
<path d="M174.497 39.0654C178.184 39.6148 178.184 39.6148 179.197 40.6218C179.295 42.5674 179.295 42.5674 179.197 44.5129C178.414 45.2911 178.414 45.2911 176.505 45.437C174.497 45.2911 174.497 45.2911 172.931 43.7347C173.366 40.1895 173.366 40.1895 174.497 39.0654Z" fill="#7E7E7E"/>
</svg>
