<svg width="52" height="48" viewBox="0 0 52 48" fill="none" xmlns="http://www.w3.org/2000/svg">
<path d="M26.9661 0.00591929C27.1434 0.00298924 27.1434 0.00298924 27.3243 0C27.985 0.0811945 28.3859 0.501283 28.8418 0.960695C28.8986 1.01764 28.9555 1.07458 29.014 1.13325C29.2034 1.32331 29.3919 1.51418 29.5805 1.70507C29.7164 1.84183 29.8524 1.97854 29.9884 2.1152C30.357 2.48578 30.7249 2.85707 31.0926 3.22849C31.4773 3.61674 31.8626 4.00433 32.2478 4.392C32.9769 5.12593 33.7055 5.86046 34.4338 6.59521C35.2631 7.43177 36.0931 8.26766 36.9231 9.1035C38.6303 10.8227 40.3367 12.5427 42.0425 14.2632C42.1704 14.1544 42.2981 14.0453 42.4257 13.9361C42.5325 13.8451 42.5325 13.8451 42.6413 13.7522C43.0266 13.4108 43.3769 13.0343 43.7289 12.6589C44.1552 12.2178 44.5758 11.867 45.2039 11.778C45.7179 11.8261 46.0353 11.9333 46.4186 12.2868C46.4988 12.3605 46.579 12.4342 46.6617 12.5101C47.082 12.911 47.4962 13.3175 47.9062 13.7291C48.0423 13.8654 48.0423 13.8654 48.1812 14.0045C48.3713 14.1951 48.5613 14.3858 48.7511 14.5767C49.0419 14.8689 49.3337 15.1602 49.6255 15.4514C49.8107 15.6373 49.9959 15.8233 50.1811 16.0094C50.2682 16.0962 50.3554 16.1831 50.4452 16.2725C50.5258 16.3539 50.6063 16.4352 50.6893 16.519C50.7601 16.5901 50.8309 16.6611 50.9039 16.7343C51.352 17.2567 51.3497 17.7336 51.3476 18.4046C51.3485 18.5548 51.3485 18.5548 51.3494 18.708C51.351 19.039 51.3509 19.3699 51.3506 19.7008C51.3511 19.931 51.3516 20.1613 51.3521 20.3915C51.353 20.8742 51.353 21.3569 51.3524 21.8396C51.3517 22.4576 51.3537 23.0755 51.3563 23.6935C51.3581 24.1691 51.3581 24.6447 51.3578 25.1203C51.3578 25.3481 51.3585 25.5759 51.3596 25.8037C51.3611 26.1226 51.3603 26.4415 51.3589 26.7604C51.3598 26.8541 51.3607 26.9479 51.3616 27.0445C51.3549 27.7646 51.1787 28.3164 50.6592 28.838C50.6004 28.8979 50.5416 28.9577 50.481 29.0194C50.387 29.1124 50.387 29.1124 50.2911 29.2072C50.1931 29.3057 50.1931 29.3057 50.0932 29.4063C49.9558 29.5443 49.8179 29.6818 49.6796 29.8189C49.4684 30.0285 49.2588 30.2397 49.0493 30.4511C48.9151 30.5854 48.7809 30.7196 48.6465 30.8536C48.5841 30.9165 48.5216 30.9794 48.4573 31.0442C48.1533 31.3442 47.8926 31.6007 47.4905 31.7479C47.1837 31.7229 47.1837 31.7229 46.8287 31.6584C45.4892 31.4986 44.3538 31.5255 43.2567 32.3871C42.146 33.336 41.1585 34.4213 40.1744 35.4993C39.7372 35.9745 39.2905 36.4405 38.8444 36.9072C38.3427 37.433 37.8421 37.9595 37.3484 38.4929C37.2733 38.5739 37.1982 38.6549 37.1209 38.7384C36.9827 38.8877 36.845 39.0375 36.7077 39.1876C36.304 39.624 35.879 40.0189 35.4296 40.4073C35.0859 40.7104 34.765 41.0341 34.4439 41.361C34.3743 41.4314 34.3046 41.5018 34.2328 41.5744C34.0834 41.7254 33.9342 41.8766 33.785 42.0279C33.549 42.2673 33.3126 42.5062 33.076 42.7451C32.4042 43.4235 31.7331 44.1025 31.0624 44.7821C30.6507 45.1992 30.2385 45.6158 29.8259 46.032C29.669 46.1904 29.5124 46.3491 29.356 46.508C29.1382 46.7292 28.9197 46.9497 28.7011 47.1701C28.6366 47.236 28.5721 47.3019 28.5057 47.3697C28.0093 47.8676 27.6859 47.9702 26.9951 47.9868C26.8772 47.9912 26.7593 47.9955 26.6378 48C25.9098 47.8996 25.4302 47.3607 24.9527 46.8358C24.8933 46.7717 24.8338 46.7076 24.7726 46.6416C24.6431 46.5018 24.5139 46.3618 24.385 46.2215C24.0255 45.8305 23.6635 45.4418 23.3019 45.0528C23.2248 44.9699 23.1478 44.8869 23.0684 44.8014C21.9859 43.6372 20.8854 42.4902 19.7859 41.3422C18.894 40.4099 18.009 39.4726 17.1374 38.5211C16.1286 37.4215 15.1054 36.3376 14.0569 35.2763C13.9726 35.1909 13.8883 35.1056 13.8015 35.0177C11.8286 33.0359 10.1085 31.4111 7.21222 31.3265C6.27863 31.3469 5.34371 31.4359 4.43242 31.6462C3.67343 31.8105 3.67343 31.8105 3.30726 31.6115C3.01998 31.3703 2.79897 31.1533 2.63095 30.8154C2.61689 30.5429 2.61037 30.27 2.60715 29.9971C2.60601 29.9129 2.60486 29.8288 2.60368 29.742C2.60001 29.4633 2.59714 29.1845 2.59428 28.9057C2.59189 28.7127 2.58946 28.5196 2.58698 28.3266C2.58057 27.818 2.57485 27.3094 2.56926 26.8008C2.56344 26.282 2.55698 25.7632 2.55058 25.2444C2.53811 24.2262 2.52635 23.2079 2.51504 22.1896C2.32231 22.3038 2.32231 22.3038 2.12569 22.4202C1.70774 22.6677 1.46757 22.7081 0.992278 22.6199C0.636944 22.4873 0.433214 22.2448 0.196712 21.9565C0.15846 21.918 0.120208 21.8795 0.0807961 21.8399C0.0441321 21.3234 0.0394115 20.8063 0.0338466 20.2887C0.0313579 20.1149 0.02742 19.9412 0.0219607 19.7674C0.0141263 19.5158 0.0109999 19.2645 0.00880126 19.0128C0.00589684 18.8621 0.00299243 18.7115 0 18.5563C0.195383 17.4767 1.20811 16.7104 1.95176 15.9684C2.0646 15.8551 2.1774 15.7417 2.29016 15.6283C2.52479 15.3925 2.7598 15.1572 2.99512 14.9221C3.29689 14.6206 3.59787 14.3184 3.89861 14.0159C4.13066 13.7826 4.36302 13.5496 4.59549 13.3166C4.76063 13.1511 4.92559 12.9854 5.09056 12.8198C5.19041 12.7201 5.29026 12.6204 5.39313 12.5177C5.48113 12.4297 5.56912 12.3417 5.65978 12.2509C6.01661 11.9178 6.28167 11.898 6.76047 11.8736C6.93485 11.861 6.93485 11.861 7.11275 11.8481C7.69902 11.9752 8.0077 12.332 8.42676 12.7479C8.52279 12.8409 8.61881 12.9339 8.71774 13.0298C9.02913 13.3339 9.33684 13.6414 9.64389 13.95C9.80347 14.1083 9.80347 14.1083 9.96628 14.2698C10.0667 14.3706 10.1671 14.4713 10.2706 14.5751C10.3618 14.6664 10.453 14.7576 10.547 14.8516C10.7451 15.0792 10.7451 15.0792 10.7451 15.3123C11.5653 14.6217 12.3153 13.8641 13.0685 13.102C13.2072 12.9621 13.3459 12.8223 13.4846 12.6824C13.7817 12.383 14.0786 12.0833 14.3753 11.7836C14.8445 11.3096 15.3142 10.8361 15.7841 10.3627C17.1194 9.01712 18.454 7.67083 19.7881 6.32405C20.5262 5.57898 21.2647 4.83432 22.0037 4.09011C22.4709 3.61952 22.9376 3.14841 23.4039 2.67692C23.6936 2.38425 23.9837 2.09208 24.274 1.80004C24.4086 1.66444 24.543 1.52864 24.6772 1.39263C24.8602 1.20718 25.0439 1.02246 25.2278 0.837898C25.3305 0.734303 25.4331 0.630708 25.5389 0.523974C26.0101 0.0986239 26.3366 0.00831427 26.9661 0.00591929Z" fill="#FBFBFB"/>
<path d="M27.3213 1.20783C27.5461 1.34075 27.5461 1.34075 27.7467 1.5348C27.8257 1.60993 27.9047 1.68507 27.9862 1.76249C28.0728 1.84872 28.1594 1.93494 28.2486 2.02379C28.345 2.11774 28.4414 2.21169 28.5407 2.30848C28.8816 2.64335 29.2192 2.98132 29.5563 3.32C29.6854 3.44934 29.8146 3.57866 29.9438 3.70796C30.292 4.05661 30.6399 4.40563 30.9876 4.75477C31.2049 4.97299 31.4224 5.19114 31.6398 5.40927C32.3205 6.09219 33.001 6.77534 33.6811 7.45883C34.4657 8.24734 35.2512 9.03508 36.0372 9.82218C36.6457 10.4316 37.2536 11.0416 37.8609 11.6522C38.2234 12.0166 38.5862 12.3807 38.9497 12.7442C39.2907 13.0852 39.6308 13.427 39.9704 13.7695C40.0953 13.8952 40.2206 14.0206 40.3461 14.1457C40.5169 14.316 40.6866 14.4873 40.8561 14.659C40.9992 14.8026 40.9992 14.8026 41.1452 14.9491C41.3471 15.1956 41.3471 15.1956 41.3471 15.5453C40.8301 15.8052 40.1263 15.6883 39.5512 15.6898C39.2922 15.691 39.0333 15.6946 38.7743 15.6983C38.6086 15.699 38.4429 15.6996 38.2772 15.7001C38.0517 15.7017 38.0517 15.7017 37.8218 15.7034C36.2755 15.5489 34.9555 13.6722 33.9258 12.6194C33.471 12.1549 33.0142 11.6921 32.5579 11.229C31.9797 10.642 31.4022 10.0545 30.8263 9.46528C30.3582 8.98641 29.8885 8.50925 29.4176 8.03321C29.2389 7.85197 29.0609 7.67011 28.8835 7.48761C28.6364 7.23346 28.3871 6.98155 28.1373 6.73005C28.0647 6.65431 27.992 6.57857 27.9172 6.50054C27.6087 6.19385 27.4006 6.0099 26.9792 5.88817C26.4227 6.04376 26.1132 6.41381 25.7191 6.8249C25.631 6.91397 25.5428 7.00304 25.4521 7.0948C25.1608 7.38995 24.8721 7.68746 24.5832 7.98497C24.381 8.19049 24.1786 8.39583 23.9761 8.60099C23.4972 9.08677 23.0197 9.57396 22.543 10.062C21.64 10.9864 20.7345 11.9085 19.8276 12.8291C19.5305 13.1315 19.2345 13.4351 18.9387 13.7388C18.7558 13.925 18.573 14.1112 18.3901 14.2973C18.3085 14.3818 18.2268 14.4662 18.1428 14.5532C17.5686 15.1345 17.0515 15.6147 16.2137 15.7148C16.0561 15.7147 15.8985 15.7121 15.741 15.7074C15.6153 15.7064 15.6153 15.7064 15.4872 15.7054C15.2226 15.7028 14.9582 15.6969 14.6936 15.691C14.5131 15.6886 14.3325 15.6865 14.1519 15.6846C13.7118 15.6795 13.2718 15.6715 12.8317 15.6618C12.7419 15.4654 12.7419 15.4654 12.7158 15.1956C12.9169 14.9198 12.9169 14.9198 13.2253 14.6085C13.3096 14.5222 13.3096 14.5222 13.3956 14.4342C13.5852 14.2409 13.7768 14.0498 13.9685 13.8586C14.1045 13.7209 14.2404 13.583 14.3762 13.445C14.7461 13.0699 15.1178 12.6966 15.49 12.3238C15.8002 12.0126 16.1095 11.7006 16.4189 11.3885C17.1486 10.6524 17.8797 9.91785 18.6118 9.18419C19.3676 8.42679 20.1211 7.66708 20.8734 6.90617C21.5188 6.25352 22.1655 5.60223 22.8134 4.95204C23.2005 4.56346 23.5872 4.1744 23.9726 3.78406C24.3352 3.41699 24.6994 3.05167 25.0649 2.68762C25.1989 2.55365 25.3323 2.41907 25.465 2.28387C25.6462 2.09949 25.8294 1.9174 26.0133 1.73573C26.1154 1.63318 26.2174 1.53064 26.3226 1.42498C26.693 1.15967 26.8756 1.13698 27.3213 1.20783Z" fill="#666666"/>
<path d="M12.7158 32.4468C13.2809 32.4382 13.8459 32.4318 14.411 32.4276C14.603 32.4259 14.795 32.4235 14.9871 32.4205C15.2639 32.4162 15.5406 32.4142 15.8175 32.4127C15.9452 32.41 15.9452 32.41 16.0755 32.4072C16.8591 32.407 17.3387 32.6508 17.895 33.1882C18.0565 33.3517 18.2171 33.5163 18.3769 33.6816C18.4652 33.7714 18.5535 33.8613 18.6445 33.9539C18.8356 34.1485 19.0262 34.3435 19.2166 34.5389C19.5178 34.8479 19.8202 35.1556 20.123 35.4629C20.9835 36.3368 21.8421 37.2126 22.699 38.09C23.2237 38.627 23.7501 39.1623 24.2775 39.6965C24.4782 39.9005 24.6782 40.1051 24.8776 40.3104C25.1559 40.597 25.4363 40.8814 25.7172 41.1654C25.7993 41.2509 25.8813 41.3365 25.9658 41.4246C26.2942 41.7529 26.5244 41.9749 26.9723 42.1086C27.5186 41.9466 27.8501 41.5865 28.2486 41.1892C28.3201 41.1197 28.3916 41.0502 28.4653 40.9786C28.6869 40.761 28.9054 40.5405 29.1233 40.3191C29.2052 40.2364 29.2871 40.1537 29.3715 40.0684C29.5477 39.8905 29.7237 39.7124 29.8996 39.5342C30.178 39.2522 30.4568 38.9706 30.7357 38.6891C31.5281 37.8895 32.3199 37.0891 33.1111 36.2883C33.5965 35.7971 34.0824 35.3065 34.5687 34.8162C34.7536 34.6295 34.9382 34.4427 35.1227 34.2556C35.3799 33.9947 35.6377 33.7346 35.8958 33.4746C35.9718 33.3972 36.0478 33.3197 36.1261 33.2399C36.1966 33.1692 36.2671 33.0984 36.3397 33.0256C36.4005 32.9641 36.4613 32.9026 36.5239 32.8393C37.0179 32.4176 37.4812 32.4154 38.1069 32.4241C38.241 32.4246 38.241 32.4246 38.3778 32.4251C38.6624 32.4264 38.947 32.4293 39.2317 32.4323C39.425 32.4334 39.6183 32.4345 39.8117 32.4355C40.2849 32.438 40.758 32.4421 41.2312 32.4468C41.2312 33.03 41.1122 33.0918 40.713 33.4958C40.6572 33.5528 40.6015 33.6099 40.544 33.6686C40.3564 33.86 40.1671 34.0497 39.9778 34.2394C39.8432 34.376 39.7086 34.5127 39.5741 34.6496C39.208 35.0213 38.8405 35.3915 38.4725 35.7614C38.1656 36.0701 37.8594 36.3794 37.5532 36.6888C36.8307 37.4185 36.1069 38.147 35.3823 38.8747C34.6346 39.6257 33.8893 40.3791 33.1451 41.1336C32.5064 41.781 31.8661 42.4269 31.2246 43.0714C30.8413 43.4566 30.4587 43.8423 30.0776 44.2296C29.7191 44.5939 29.3586 44.9561 28.9967 45.3169C28.8641 45.4496 28.7323 45.5831 28.6012 45.7173C28.4221 45.9004 28.2407 46.0808 28.0584 46.2608C27.907 46.4133 27.907 46.4133 27.7525 46.569C27.3512 46.843 27.1015 46.8345 26.6258 46.7843C26.4112 46.6659 26.4112 46.6659 26.2504 46.4976C26.1885 46.4349 26.1266 46.3722 26.0628 46.3076C25.9989 46.2388 25.935 46.1699 25.8691 46.099C25.8004 46.0285 25.7318 45.958 25.661 45.8854C25.4421 45.6599 25.2261 45.4318 25.0102 45.2034C24.7941 44.9785 24.5775 44.7542 24.3606 44.5301C24.2262 44.3909 24.0924 44.251 23.9592 44.1105C23.6368 43.7726 23.3079 43.453 22.9537 43.1487C22.4373 42.6968 21.951 42.2188 21.4662 41.733C21.3724 41.6395 21.2786 41.5459 21.182 41.4495C20.8749 41.143 20.5682 40.836 20.2617 40.529C20.1565 40.4237 20.0514 40.3184 19.9431 40.21C19.4449 39.7112 18.9469 39.2121 18.4493 38.7127C17.8764 38.1378 17.3026 37.5638 16.7279 36.9907C16.2286 36.4924 15.7305 35.993 15.2329 35.493C15.0215 35.281 14.8096 35.0693 14.5974 34.8581C14.3016 34.5635 14.0073 34.2674 13.7134 33.971C13.5812 33.8404 13.5812 33.8404 13.4464 33.7071C13.3666 33.6261 13.2869 33.545 13.2047 33.4616C13.1351 33.3918 13.0654 33.3221 12.9937 33.2502C12.7996 32.9859 12.7581 32.7695 12.7158 32.4468Z" fill="#666666"/>
<path d="M6.8111 12.981C7.19242 13.1115 7.26795 13.2095 7.51471 13.5167C7.80982 13.8679 8.10998 14.1651 8.46555 14.4539C9.3385 15.1857 10.0157 15.8254 10.1518 17.0014C10.1842 17.6278 10.1739 18.2485 10.1546 18.8752C10.1529 19.1472 10.1521 19.4191 10.1519 19.6911C10.1496 20.2573 10.1409 20.8229 10.1268 21.3889C10.109 22.1129 10.1035 22.8363 10.1023 23.5606C10.1008 24.1205 10.0948 24.6803 10.0873 25.2402C10.0839 25.5072 10.0813 25.7742 10.0796 26.0412C10.0762 26.414 10.0674 26.7862 10.057 27.1588C10.0568 27.2679 10.0566 27.377 10.0564 27.4893C10.024 28.3276 9.71774 28.7334 9.12218 29.3C9.01369 29.4137 8.90545 29.5277 8.79752 29.6419C8.70144 29.7383 8.60537 29.8346 8.50637 29.9338C8.4088 30.0322 8.31123 30.1306 8.2107 30.2321C7.78471 30.6338 7.43324 30.5993 6.87585 30.5977C6.7494 30.5978 6.7494 30.5978 6.62039 30.598C6.44217 30.5981 6.26396 30.5979 6.08575 30.5974C5.81201 30.5968 5.5383 30.5974 5.26457 30.5981C5.09168 30.5981 4.91878 30.5979 4.74589 30.5977C4.66354 30.5979 4.5812 30.5982 4.49635 30.5984C3.91928 30.5956 3.91928 30.5956 3.79003 30.4656C3.77899 30.1215 3.77548 29.7801 3.77687 29.4359C3.77686 29.3279 3.77684 29.2198 3.77682 29.1085C3.7769 28.7497 3.77781 28.3908 3.77871 28.0319C3.77893 27.7838 3.77909 27.5357 3.77921 27.2876C3.77965 26.6332 3.78079 25.9787 3.78207 25.3243C3.78326 24.6571 3.78379 23.9899 3.78437 23.3226C3.78562 22.0124 3.7876 20.7022 3.79003 19.392C3.41643 19.6121 3.10942 19.8164 2.81108 20.1328C2.7413 20.2053 2.67152 20.2778 2.59963 20.3525C2.45513 20.505 2.31084 20.6577 2.16675 20.8106C2.09727 20.8826 2.02779 20.9547 1.9562 21.0289C1.89373 21.0951 1.83125 21.1612 1.76688 21.2293C1.58763 21.3736 1.58763 21.3736 1.23988 21.3736C0.994325 20.4302 0.845113 19.3802 1.23988 18.4595C2.02332 17.2347 3.24942 16.2727 4.32623 15.3183C4.76892 14.9222 5.15722 14.4937 5.52878 14.03C6.29761 13.1496 6.29761 13.1496 6.8111 12.981Z" fill="#666666"/>
<path d="M27.6 17.7246C28.4057 17.8193 29.0949 18.7298 29.5734 19.3343C30.1029 20.1814 29.9801 21.214 29.9403 22.1744C29.9371 22.4144 29.9348 22.6546 29.9332 22.8947C29.9268 23.5206 29.9092 24.1458 29.8892 24.7715C29.8709 25.4118 29.864 26.0523 29.8558 26.6928C29.8421 27.6243 29.8248 28.5555 29.7977 29.4867C29.7939 29.6337 29.7939 29.6337 29.7901 29.7837C29.7687 30.4518 29.7687 30.4518 29.6392 30.582C29.468 30.5935 29.2963 30.5973 29.1248 30.5975C28.9692 30.5977 28.9692 30.5977 28.8106 30.598C28.6469 30.5973 28.6469 30.5973 28.48 30.5966C28.3164 30.5973 28.3164 30.5973 28.1495 30.598C28.0458 30.5978 27.9421 30.5977 27.8352 30.5975C27.7395 30.5974 27.6437 30.5972 27.545 30.5971C27.3209 30.582 27.3209 30.582 27.2049 30.4655C27.1924 30.2046 27.188 29.9434 27.1867 29.6822C27.1861 29.6003 27.1855 29.5184 27.1849 29.4341C27.1836 29.2556 27.1826 29.0771 27.1818 28.8986C27.1805 28.6159 27.1782 28.3332 27.1757 28.0505C27.1685 27.2464 27.1623 26.4423 27.1584 25.6381C27.156 25.1467 27.1519 24.6553 27.1467 24.1639C27.1451 23.9768 27.1441 23.7897 27.1437 23.6025C27.1431 23.3399 27.1405 23.0775 27.1373 22.8149C27.1364 22.6657 27.1354 22.5164 27.1345 22.3626C27.0713 21.7977 26.9209 21.4117 26.4877 21.0383C26.4184 20.995 26.349 20.9518 26.2776 20.9072C26.2779 21.0267 26.2781 21.1461 26.2784 21.2693C26.2807 22.3928 26.2825 23.5163 26.2836 24.6399C26.2842 25.2176 26.285 25.7952 26.2864 26.3729C26.2876 26.9299 26.2883 27.487 26.2886 28.044C26.2888 28.257 26.2892 28.47 26.2899 28.683C26.2907 28.9803 26.2908 29.2775 26.2908 29.5748C26.2912 29.6638 26.2916 29.7527 26.292 29.8444C26.2908 30.4522 26.2908 30.4522 26.1617 30.582C25.9905 30.5935 25.8188 30.5973 25.6473 30.5975C25.4918 30.5977 25.4918 30.5977 25.3331 30.598C25.1695 30.5973 25.1695 30.5973 25.0025 30.5966C24.8389 30.5973 24.8389 30.5973 24.672 30.598C24.5683 30.5978 24.4646 30.5977 24.3577 30.5975C24.262 30.5974 24.1662 30.5972 24.0675 30.5971C23.8434 30.582 23.8434 30.582 23.7275 30.4655C23.7149 30.1969 23.7105 29.9279 23.7092 29.659C23.7086 29.5746 23.708 29.4903 23.7074 29.4034C23.7061 29.2195 23.7051 29.0357 23.7044 28.8519C23.703 28.5609 23.7007 28.2699 23.6982 27.9789C23.691 27.1512 23.6848 26.3235 23.6809 25.4958C23.6785 24.99 23.6744 24.4843 23.6692 23.9785C23.6676 23.7858 23.6666 23.593 23.6662 23.4002C23.6657 23.1301 23.663 22.8601 23.6598 22.59C23.6589 22.4363 23.6579 22.2826 23.657 22.1243C23.6089 21.6997 23.5195 21.4777 23.2638 21.1403C23.1873 21.1018 23.1108 21.0634 23.032 21.0237C23.031 21.14 23.0301 21.2564 23.0291 21.3762C23.0201 22.4705 23.01 23.5649 22.9986 24.6592C22.9928 25.2219 22.9875 25.7845 22.9831 26.3472C22.9788 26.8898 22.9734 27.4325 22.9673 27.9751C22.9651 28.1825 22.9634 28.3899 22.962 28.5973C22.9601 28.887 22.9567 29.1767 22.953 29.4664C22.9527 29.5528 22.9525 29.6391 22.9522 29.7281C22.9425 30.3223 22.9425 30.3223 22.6842 30.582C22.4576 30.6103 22.4576 30.6103 22.1839 30.6089C22.0858 30.6087 21.9877 30.6084 21.8866 30.6082C21.784 30.6068 21.6814 30.6054 21.5758 30.6039C21.4727 30.6038 21.3697 30.6037 21.2636 30.6037C20.498 30.5984 20.498 30.5984 20.3659 30.4655C20.3518 30.1351 20.3452 29.8076 20.3435 29.4771C20.3426 29.3734 20.3416 29.2697 20.3407 29.1629C20.3378 28.8182 20.3359 28.4734 20.3342 28.1287C20.3336 28.0112 20.3329 27.8938 20.3323 27.7727C20.3292 27.1508 20.327 26.5289 20.3253 25.9069C20.3234 25.2639 20.3182 24.621 20.3123 23.978C20.3084 23.4842 20.307 22.9905 20.3064 22.4967C20.3056 22.2596 20.3038 22.0226 20.3011 21.7856C20.2974 21.4538 20.2974 21.1221 20.2982 20.7903C20.2963 20.6923 20.2944 20.5943 20.2925 20.4933C20.2978 19.9947 20.3169 19.8027 20.6382 19.4014C21.5137 18.7099 21.5137 18.7099 21.9597 18.6487C22.2205 18.6924 22.2205 18.6924 22.4524 18.9256C22.7767 18.9049 22.8943 18.8322 23.1184 18.5936C23.2492 18.4215 23.3796 18.2491 23.5097 18.0764C23.7275 17.8765 23.7275 17.8765 24.0127 17.8191C24.398 17.8942 24.5307 18.0458 24.7924 18.3355C25.0938 18.6779 25.0938 18.6779 25.4662 18.9256C25.4662 19.0025 25.4662 19.0794 25.4662 19.1587C26.2079 18.9698 26.5377 18.5646 27.0351 18.0067C27.3209 17.7599 27.3209 17.7599 27.6 17.7246Z" fill="#666666"/>
<path d="M45.3383 13.1225C47.0733 13.6533 48.935 15.5413 49.8425 17.0634C50.7405 18.7627 50.5343 21.0178 50.4898 22.8811C50.4876 22.9924 50.4854 23.1037 50.4832 23.2184C50.4674 23.9725 50.437 24.7248 50.3947 25.4779C50.3898 25.5768 50.3849 25.6757 50.3799 25.7776C50.2771 27.6459 50.2771 27.6459 49.5411 28.3239C49.4764 28.3766 49.4118 28.4292 49.3451 28.4835C49.2091 28.628 49.2091 28.628 49.0703 28.7754C48.5827 29.2638 48.0866 29.7345 47.5634 30.1842C47.4179 30.3108 47.2788 30.4449 47.1427 30.5817C46.7737 30.637 46.6014 30.6041 46.2771 30.414C45.2335 29.5624 44.1626 28.681 43.9172 27.2912C43.8387 26.4515 43.8651 25.6183 43.9145 24.778C43.9301 24.4604 43.9332 24.1433 43.9361 23.8254C43.9403 23.4417 43.9521 23.0584 43.9641 22.6749C43.9693 22.4641 43.9693 22.4641 43.9745 22.2491C44.0298 21.3134 44.2439 20.8292 44.9403 20.2074C45.024 20.1226 45.1077 20.0377 45.1939 19.9503C45.2632 19.8856 45.3325 19.821 45.404 19.7544C45.5185 19.6445 45.5185 19.6445 45.6354 19.5324C45.7928 19.3826 45.9513 19.2338 46.1108 19.0862C46.186 19.0134 46.2611 18.9406 46.3386 18.8656C46.4068 18.8013 46.4751 18.737 46.5455 18.6708C46.705 18.461 46.705 18.461 46.6733 18.1763C46.5356 17.801 46.3527 17.6097 46.0691 17.3297C45.9175 17.1787 45.9175 17.1787 45.7628 17.0247C45.6564 16.921 45.5499 16.8173 45.4402 16.7105C45.336 16.6068 45.2318 16.5031 45.1244 16.3963C44.6166 15.8944 44.1065 15.408 43.5493 14.962C43.5885 14.3648 43.9117 14.0745 44.3318 13.6944C44.3927 13.6349 44.4537 13.5754 44.5165 13.5141C44.9771 13.0898 44.9771 13.0898 45.3383 13.1225Z" fill="#666666"/>
<path d="M41.3144 17.7017C42.1159 17.8249 42.6871 18.496 43.1614 19.1232C43.6504 19.966 43.5129 21.0305 43.4799 21.9696C43.4772 22.2153 43.4752 22.461 43.4738 22.7066C43.4683 23.3482 43.453 23.9892 43.4356 24.6306C43.4197 25.2866 43.4138 25.9426 43.4068 26.5988C43.3949 27.5532 43.3801 28.5075 43.3563 29.4618C43.3542 29.5624 43.352 29.6629 43.3498 29.7665C43.331 30.452 43.331 30.452 43.2015 30.5822C43.0303 30.5937 42.8586 30.5975 42.6871 30.5977C42.5315 30.5979 42.5315 30.5979 42.3729 30.5982C42.2092 30.5975 42.2092 30.5975 42.0423 30.5968C41.8787 30.5975 41.8787 30.5975 41.7118 30.5982C41.6081 30.598 41.5044 30.5979 41.3975 30.5977C41.3017 30.5976 41.206 30.5974 41.1073 30.5973C40.8831 30.5822 40.8831 30.5822 40.7672 30.4657C40.7547 30.2012 40.7503 29.9364 40.7489 29.6717C40.7481 29.5472 40.7481 29.5472 40.7472 29.4201C40.7459 29.2392 40.7449 29.0582 40.7441 28.8772C40.7428 28.5906 40.7405 28.304 40.738 28.0173C40.7308 27.2021 40.7246 26.3868 40.7207 25.5716C40.7183 25.0733 40.7142 24.5752 40.709 24.077C40.7074 23.8872 40.7064 23.6975 40.706 23.5077C40.7054 23.2415 40.7027 22.9754 40.6996 22.7092C40.6987 22.5579 40.6977 22.4066 40.6968 22.2507C40.6469 21.7998 40.5485 21.5203 40.3036 21.1405C40.0658 20.9768 40.0658 20.9768 39.8399 20.9074C39.8402 21.0268 39.8404 21.1463 39.8407 21.2694C39.843 22.393 39.8448 23.5165 39.8459 24.6401C39.8465 25.2177 39.8473 25.7954 39.8486 26.3731C39.8499 26.9301 39.8506 27.4871 39.8509 28.0442C39.8511 28.2572 39.8515 28.4702 39.8522 28.6832C39.853 28.9804 39.8531 29.2777 39.8531 29.575C39.8535 29.664 39.8539 29.7529 39.8543 29.8446C39.8531 30.4524 39.8531 30.4524 39.724 30.5822C39.5528 30.5937 39.3811 30.5975 39.2096 30.5977C39.0541 30.5979 39.0541 30.5979 38.8954 30.5982C38.7317 30.5975 38.7317 30.5975 38.5648 30.5968C38.4012 30.5975 38.4012 30.5975 38.2343 30.5982C38.1306 30.598 38.0269 30.5979 37.92 30.5977C37.8243 30.5976 37.7285 30.5974 37.6298 30.5973C37.4057 30.5822 37.4057 30.5822 37.2897 30.4657C37.2744 30.1294 37.2666 29.796 37.2637 29.4595C37.2617 29.3012 37.2617 29.3012 37.2597 29.1396C37.2469 28.0332 37.2414 26.9268 37.2364 25.8203C37.2338 25.2952 37.229 24.7702 37.2222 24.2451C37.2139 23.6116 37.2097 22.9782 37.2082 22.3446C37.207 22.1032 37.2044 21.8619 37.2004 21.6205C37.1951 21.282 37.1948 20.9438 37.1958 20.6052C37.1931 20.5059 37.1903 20.4065 37.1875 20.3042C37.1953 19.7393 37.2848 19.4515 37.6819 19.0407C37.9275 18.818 38.1076 18.6898 38.4127 18.5542C38.7861 18.5847 38.8893 18.7778 39.1444 19.0423C39.417 19.116 39.417 19.116 39.724 19.0423C40.0135 18.7813 40.2601 18.5112 40.513 18.2159C40.7693 17.9344 40.9359 17.7718 41.3144 17.7017Z" fill="#666666"/>
<path d="M34.0006 17.646C34.3393 17.7861 34.5285 17.9591 34.7848 18.222C34.8766 18.3152 34.9683 18.4085 35.0628 18.5045C35.204 18.6516 35.204 18.6516 35.3481 18.8016C35.444 18.8992 35.54 18.9968 35.6388 19.0974C36.8686 20.3574 36.6194 22.084 36.6594 23.7775C36.6615 23.8661 36.6637 23.9548 36.6659 24.0461C36.747 27.8884 36.747 27.8884 35.6983 29.1311C35.0878 29.7654 34.2776 30.5167 33.3825 30.6172C32.9809 30.5639 32.8253 30.3493 32.5516 30.0574C32.4511 29.9512 32.3505 29.8449 32.2469 29.7355C31.9391 29.3959 31.6341 29.0549 31.3395 28.7037C31.1459 28.4673 31.1459 28.4673 30.8547 28.2725C30.3685 27.7797 30.4318 27.0522 30.3999 26.3993C30.3883 26.1762 30.3883 26.1762 30.3764 25.9486C30.3544 25.4678 30.3434 24.9872 30.3347 24.506C30.3329 24.4251 30.3311 24.3441 30.3293 24.2608C30.2594 20.761 30.2594 20.761 31.4485 19.3797C33.1202 17.6381 33.1202 17.6381 34.0006 17.646Z" fill="#666666"/>
<path d="M17.4681 17.7599C17.7261 17.9381 17.7261 17.9381 17.963 18.1852C18.0492 18.2735 18.1353 18.3619 18.2241 18.4529C18.3117 18.5464 18.3994 18.6398 18.4896 18.7361C18.5795 18.8287 18.6694 18.9212 18.762 19.0166C19.8527 20.1489 19.6586 21.4983 19.6963 23.0069C19.7082 23.4722 19.7247 23.9361 19.7534 24.4006C19.9552 27.7591 19.9552 27.7591 18.8298 29.0384C17.4208 30.5276 17.4208 30.5276 16.6953 30.6224C16.2795 30.5603 16.1045 30.3273 15.8145 30.0292C15.759 29.9729 15.7035 29.9165 15.6463 29.8584C15.4697 29.6784 15.2953 29.4964 15.1208 29.3143C15.0017 29.1926 14.8825 29.0711 14.7631 28.9496C13.9731 28.1408 13.6726 27.6896 13.6421 26.5423C13.6757 25.6353 14.0561 25.1932 14.6916 24.5877C14.9208 24.3792 15.1541 24.1764 15.3889 23.9742C15.6235 23.7659 15.8564 23.5561 16.087 23.3433C16.2297 23.2122 16.3749 23.0839 16.5227 22.9587C16.7489 22.765 16.7489 22.765 17.0045 22.4225C17.0041 21.8003 16.8538 21.4681 16.4249 21.0237C16.3484 20.9852 16.2719 20.9468 16.1931 20.9071C16.2074 21.091 16.2074 21.091 16.222 21.2787C16.1758 21.9875 15.7781 22.2683 15.273 22.7139C15.1926 22.7826 15.1122 22.8512 15.0294 22.922C14.8327 23.0949 14.6542 23.2726 14.476 23.4643C14.2225 23.7047 14.2225 23.7047 13.8747 23.7047C13.6712 22.6783 13.4544 21.4095 13.998 20.4583C14.3697 19.9282 14.8145 19.474 15.2802 19.0275C15.3466 18.9632 15.4129 18.8989 15.4813 18.8326C15.6747 18.6482 15.8713 18.4685 16.0708 18.2908C16.1306 18.2367 16.1904 18.1825 16.2521 18.1268C16.6613 17.7831 16.9392 17.6655 17.4681 17.7599Z" fill="#666666"/>
<path d="M22.13 32.7822C22.2854 32.7828 22.2854 32.7828 22.444 32.7835C22.5526 32.7835 22.6612 32.7834 22.773 32.7834C23.1336 32.7835 23.4943 32.7844 23.8549 32.7853C24.1043 32.7855 24.3536 32.7857 24.6029 32.7858C25.2606 32.7863 25.9182 32.7874 26.5758 32.7887C27.2463 32.7899 27.9168 32.7904 28.5873 32.791C29.904 32.7923 31.2207 32.7943 32.5373 32.7967C32.6065 33.0139 32.6065 33.0139 32.6532 33.263C32.4746 33.5174 32.4746 33.5174 32.2004 33.7956C32.0986 33.9002 31.9968 34.0048 31.8919 34.1126C31.7787 34.2257 31.6654 34.3388 31.552 34.4518C31.4368 34.5684 31.3216 34.6851 31.2065 34.8018C30.9646 35.0465 30.7217 35.29 30.4779 35.5328C30.1664 35.8434 29.8578 36.1569 29.55 36.4712C29.3126 36.713 29.0735 36.953 28.834 37.1927C28.7196 37.3075 28.6057 37.4229 28.4924 37.5389C28.3332 37.7013 28.1715 37.8612 28.0098 38.021C27.9186 38.1125 27.8274 38.2041 27.7334 38.2984C27.3607 38.5624 27.0772 38.603 26.6256 38.6249C26.3664 38.4796 26.3664 38.4796 26.1262 38.237C26.0276 38.14 25.929 38.043 25.8274 37.9431C25.7714 37.8859 25.7154 37.8288 25.6577 37.7699C25.4398 37.5488 25.2179 37.3322 24.9955 37.1157C24.5445 36.6756 24.0975 36.2314 23.652 35.7857C23.4644 35.5984 23.2764 35.4117 23.0878 35.2255C22.8132 34.9543 22.5402 34.6816 22.2674 34.4086C22.1829 34.3256 22.0984 34.2427 22.0113 34.1572C21.8951 34.0399 21.8951 34.0399 21.7766 33.9201C21.7082 33.8521 21.6399 33.7841 21.5695 33.714C21.3745 33.4487 21.3267 33.2393 21.2935 32.9133C21.5137 32.6918 21.837 32.7827 22.13 32.7822Z" fill="#666666"/>
<path d="M27.1477 9.36572C27.6002 9.49778 27.7944 9.639 28.1255 9.97128C28.2303 10.0748 28.335 10.1783 28.4429 10.2849C28.5544 10.3987 28.6658 10.5125 28.7771 10.6264C28.8931 10.7428 29.0091 10.8591 29.1253 10.9753C29.3676 11.2185 29.6087 11.4629 29.8489 11.7082C30.1572 12.0228 30.4682 12.3345 30.7802 12.6453C31.0199 12.8848 31.2582 13.1256 31.4961 13.3668C31.6103 13.4824 31.725 13.5975 31.84 13.7122C32.0001 13.8723 32.1582 14.0345 32.3162 14.1967C32.4066 14.2885 32.4971 14.3803 32.5903 14.4749C32.6493 14.5589 32.7082 14.6428 32.769 14.7293C32.7307 14.8832 32.6925 15.0371 32.6531 15.1956C28.9808 15.1956 25.3086 15.1956 21.5251 15.1956C21.4868 15.0417 21.4486 14.8879 21.4092 14.7293C21.5922 14.4689 21.5922 14.4689 21.8726 14.1823C21.9768 14.0747 22.0809 13.967 22.1882 13.856C22.3039 13.7395 22.4198 13.6231 22.5357 13.5068C22.6536 13.387 22.7713 13.2672 22.889 13.1473C23.1364 12.8961 23.3848 12.6462 23.634 12.3969C23.953 12.0775 24.2684 11.7548 24.583 11.431C24.8254 11.1825 25.07 10.9361 25.3152 10.6904C25.4323 10.5722 25.5488 10.4534 25.6645 10.3338C25.8267 10.1666 25.9923 10.0027 26.1579 9.83895C26.2512 9.74485 26.3444 9.65074 26.4405 9.55378C26.7413 9.36737 26.7413 9.36737 27.1477 9.36572Z" fill="#666666"/>
<path d="M13.1795 20.0913C13.1822 21.4419 13.1843 22.7925 13.1855 24.1432C13.1861 24.7702 13.187 25.3973 13.1883 26.0244C13.1895 26.629 13.1902 27.2337 13.1905 27.8383C13.1907 28.0695 13.1912 28.3007 13.1918 28.532C13.1926 28.8546 13.1927 29.1773 13.1927 29.5C13.1931 29.5966 13.1935 29.6932 13.194 29.7927C13.1928 30.4523 13.1928 30.4523 13.0636 30.5821C12.9009 30.5936 12.7377 30.5974 12.5746 30.5976C12.4269 30.5978 12.4269 30.5978 12.2762 30.5981C12.1727 30.5976 12.0691 30.5972 11.9624 30.5967C11.8589 30.5971 11.7553 30.5976 11.6486 30.5981C11.5502 30.5979 11.4517 30.5978 11.3502 30.5976C11.2593 30.5975 11.1684 30.5973 11.0747 30.5972C10.8612 30.5821 10.8612 30.5821 10.7453 30.4656C10.7228 30.2237 10.7084 29.9811 10.6972 29.7384C10.6936 29.6624 10.6901 29.5864 10.6864 29.508C10.655 28.7987 10.6364 28.089 10.6217 27.3791C10.6115 26.9032 10.5974 26.4282 10.5728 25.9528C10.4057 22.6414 10.4057 22.6414 11.2377 21.5487C12.5698 20.0913 12.5698 20.0913 13.1795 20.0913Z" fill="#666666"/>
<path d="M6.10831 17.2939C6.72034 17.3642 7.05019 17.4384 7.49931 17.8768C7.67478 18.2297 7.63027 18.5947 7.62838 18.9817C7.6284 19.0715 7.62842 19.1614 7.62843 19.254C7.62835 19.5517 7.62745 19.8493 7.62654 20.147C7.62633 20.3532 7.62616 20.5593 7.62605 20.7654C7.6256 21.3085 7.62446 21.8516 7.62318 22.3947C7.622 22.9486 7.62147 23.5026 7.62088 24.0565C7.61964 25.1438 7.61766 26.2312 7.61522 27.3185C6.84917 27.3356 6.84917 27.3356 6.53575 27.0417C6.11288 26.6263 6.11288 26.6263 6.09437 26.1249C6.09404 25.9602 6.09435 25.7955 6.09515 25.6308C6.09514 25.5409 6.09512 25.4511 6.0951 25.3585C6.09518 25.0608 6.09608 24.7631 6.09699 24.4654C6.09721 24.2593 6.09737 24.0531 6.09749 23.847C6.09793 23.3039 6.09907 22.7609 6.10035 22.2178C6.10154 21.6638 6.10207 21.1099 6.10265 20.5559C6.1039 19.4686 6.10588 18.3813 6.10831 17.2939Z" fill="#FDFDFD"/>
<path d="M46.6792 20.7905C47.0612 20.8972 47.25 21.0143 47.524 21.3072C47.8003 21.8862 47.7805 22.3814 47.7677 23.0153C47.767 23.1385 47.7664 23.2617 47.7657 23.3886C47.7631 23.7806 47.7573 24.1724 47.7514 24.5643C47.7491 24.8307 47.7469 25.097 47.7451 25.3634C47.74 26.015 47.7322 26.6666 47.7224 27.3181C47.176 27.2433 47.176 27.2433 46.8776 26.8678C46.589 26.293 46.6211 25.7127 46.6339 25.082C46.6345 24.959 46.6352 24.8359 46.6359 24.7092C46.6385 24.3184 46.6443 23.9278 46.6502 23.5371C46.6525 23.2712 46.6546 23.0054 46.6565 22.7396C46.6616 22.0898 46.6694 21.4402 46.6792 20.7905Z" fill="#F6F6F6"/>
<path d="M33.0008 20.9067C33.4896 20.9985 33.6417 21.1988 33.9282 21.6061C34.067 21.8854 34.0581 22.057 34.0572 22.3686C34.0572 22.4783 34.0572 22.588 34.0572 22.701C34.0566 22.8196 34.056 22.9382 34.0554 23.0605C34.0552 23.1817 34.0551 23.303 34.0549 23.4279C34.0542 23.8163 34.0528 24.2047 34.0513 24.5931C34.0507 24.856 34.0502 25.1188 34.0497 25.3817C34.0485 26.0271 34.0465 26.6724 34.0441 27.3178C33.6331 27.2561 33.4976 27.2357 33.1993 26.925C32.8871 26.3929 32.9435 25.8089 32.9555 25.2096C32.9562 25.0864 32.9569 24.9632 32.9575 24.8363C32.9601 24.4443 32.9659 24.0525 32.9718 23.6606C32.9742 23.3942 32.9763 23.1278 32.9782 22.8615C32.9833 22.2099 32.991 21.5583 33.0008 20.9067Z" fill="#FCFCFC"/>
<path d="M10.9708 17.7466C11.0673 17.7472 11.1638 17.7478 11.2633 17.7484C11.3675 17.7488 11.4717 17.7492 11.5791 17.7496C11.7435 17.751 11.7435 17.751 11.9112 17.7525C12.0213 17.7531 12.1313 17.7536 12.2447 17.7541C12.5175 17.7555 12.7903 17.7574 13.0631 17.7598C13.1573 18.0148 13.1573 18.0148 13.179 18.3426C12.9922 18.5648 12.8151 18.7355 12.5995 18.9255C12.4653 19.0624 12.3322 19.2004 12.2001 19.3394C12.0579 19.4855 11.9157 19.6317 11.7736 19.7778C11.7017 19.853 11.6298 19.9282 11.5558 20.0057C11.4863 20.0767 11.4168 20.1477 11.3452 20.2209C11.2827 20.2855 11.2203 20.3502 11.1559 20.4168C10.9766 20.5574 10.9766 20.5574 10.6289 20.5574C10.6255 20.113 10.6235 19.6686 10.6216 19.2242C10.6207 19.0973 10.6197 18.9704 10.6187 18.8396C10.6183 18.719 10.6179 18.5985 10.6176 18.4742C10.617 18.3625 10.6163 18.2508 10.6157 18.1357C10.6324 17.8066 10.6436 17.7657 10.9708 17.7466Z" fill="#666666"/>
<path d="M42.506 11.1159C42.7233 11.2543 42.7233 11.2543 42.8537 11.4656C42.8994 11.8331 42.9213 12.0613 42.7161 12.3762C42.4407 12.5577 42.2567 12.6154 41.9264 12.6312C41.6004 12.522 41.6004 12.522 41.3468 12.2815C41.2688 11.9563 41.2747 11.675 41.3468 11.349C41.6873 10.9144 42.0057 10.966 42.506 11.1159ZM42.3901 11.4656C42.3901 11.6579 42.3901 11.8503 42.3901 12.0484C42.4283 12.0484 42.4666 12.0484 42.506 12.0484C42.506 11.8561 42.506 11.6637 42.506 11.4656C42.4677 11.4656 42.4295 11.4656 42.3901 11.4656ZM41.5787 11.5822C41.6946 11.9318 41.6946 11.9318 41.6946 11.9318L41.5787 11.5822ZM42.0423 12.0484C42.1583 12.2815 42.1583 12.2815 42.1583 12.2815L42.0423 12.0484Z" fill="white"/>
<path d="M16.8886 24.7539C16.9651 24.7539 17.0416 24.7539 17.1204 24.7539C17.1204 25.6002 17.1204 26.4464 17.1204 27.3183C16.5977 27.0555 16.4585 26.9005 16.1931 26.3858C16.1193 26.032 16.1394 25.825 16.1931 25.4533C16.4756 25.1765 16.4756 25.1765 16.7727 24.987C16.8109 24.9101 16.8492 24.8332 16.8886 24.7539Z" fill="#F3F3F3"/>
</svg>
