<svg width="60" height="60" viewBox="0 0 60 60" fill="none" xmlns="http://www.w3.org/2000/svg">
<path d="M50.0852 50.1261L42.7341 14.7415C42.5267 13.7435 41.9518 12.945 41.0714 12.4318L30.5734 6.31313C29.2663 5.5513 27.6668 4.82696 25.711 5.23301C25.5694 5.26276 25.429 5.2981 25.2902 5.33895C24.9552 4.88559 24.5871 4.4577 24.1888 4.05879C22.4838 2.35395 20.3511 1.26797 18.1833 1.0009C15.9291 0.723404 13.9034 1.35493 12.4789 2.77946C11.0542 4.20399 10.4226 6.22993 10.7003 8.48391C10.9451 10.4707 11.8795 12.427 13.3461 14.0525L11.014 16.1502C10.2473 16.84 9.84191 17.7497 9.84191 18.7813L9.8418 55.5239C9.8418 57.4753 11.4293 59.0629 13.3807 59.0629L36.2293 59.063C38.0729 59.063 39.5909 57.6457 39.753 55.8436L47.3731 54.2605C49.2606 53.8684 50.4771 52.0138 50.0852 50.1261ZM12.5613 8.25469C12.3557 6.5863 12.7974 5.11266 13.8047 4.1052C14.8121 3.09797 16.285 2.65629 17.9541 2.86184C19.7089 3.07805 21.4521 3.97395 22.8627 5.38465C23.0552 5.57751 23.2394 5.77835 23.415 5.98665C22.0915 6.32684 21.06 7.11376 20.1988 7.88848L14.7398 12.799C13.5285 11.458 12.7592 9.86169 12.5613 8.25469ZM37.8931 55.5241C37.8931 56.4416 37.1467 57.1881 36.2293 57.1881L13.3807 57.188C12.4633 57.188 11.7168 56.4415 11.7168 55.524L11.7169 18.7814C11.7169 18.2824 11.8971 17.8778 12.268 17.5443L21.4526 9.28254C22.6214 8.23137 23.5418 7.75829 24.5636 7.69501C25.1922 8.90977 25.489 10.1843 25.4322 11.3571C24.2615 11.1629 23.017 11.5153 22.1158 12.4166C20.6331 13.8994 20.6331 16.312 22.1159 17.795C22.8573 18.5365 23.8313 18.9072 24.8051 18.9072C25.7792 18.9072 26.7529 18.5364 27.4942 17.795C28.2126 17.0768 28.6082 16.1217 28.6082 15.1058C28.6082 14.09 28.2126 13.135 27.4943 12.4166C27.4074 12.3299 27.3163 12.2473 27.2214 12.1693C27.4008 10.9262 27.2648 9.58805 26.8275 8.27333C27.2454 8.52129 27.6808 8.85376 28.1576 9.28266L37.3422 17.5445C37.7131 17.8781 37.8933 18.2828 37.8933 18.7816L37.8931 55.5241ZM26.7331 15.1057C26.7331 15.6209 26.5326 16.1048 26.1684 16.4692C25.9897 16.6488 25.7773 16.7912 25.5432 16.8881C25.3092 16.985 25.0583 17.0346 24.805 17.0339C24.5187 17.0339 24.2429 16.9698 23.9909 16.8522C24.5355 16.5682 25.0335 16.2028 25.4679 15.7686C25.9023 15.3337 26.2673 14.8346 26.55 14.2888C26.6705 14.5443 26.733 14.8232 26.7331 15.1057ZM23.4414 13.7425C23.6441 13.5396 23.8896 13.3846 24.16 13.2889C24.4303 13.1932 24.7187 13.1592 25.0039 13.1893C24.7939 13.6525 24.5086 14.0762 24.1421 14.4429C23.7812 14.8038 23.3607 15.0913 22.8884 15.3039C22.8313 14.7464 23.0153 14.1687 23.4414 13.7425ZM46.9918 52.4247L39.768 53.9255L39.7681 18.7814C39.7681 17.7499 39.3627 16.8402 38.596 16.1504L29.4113 7.8886C29.3349 7.81989 29.2578 7.75188 29.1802 7.68458C29.3257 7.76122 29.4746 7.84313 29.6291 7.93313L40.1271 14.052C40.5471 14.2966 40.7992 14.6469 40.8981 15.1229L48.2492 50.5076C48.4311 51.3829 47.867 52.2429 46.9918 52.4247ZM26.5895 25.0944C23.7496 25.0944 21.4391 27.4049 21.4391 30.2448C21.4391 32.7645 23.2584 34.866 25.652 35.3081V42.3019H18.8073C18.5587 42.3019 18.3202 42.4007 18.1444 42.5765C17.9686 42.7523 17.8698 42.9907 17.8698 43.2394C17.8698 43.488 17.9686 43.7265 18.1444 43.9023C18.3202 44.0781 18.5587 44.1769 18.8073 44.1769H25.652V47.8247H18.8073C18.5587 47.8247 18.3202 47.9235 18.1444 48.0993C17.9686 48.2751 17.8698 48.5136 17.8698 48.7622C17.8698 49.0108 17.9686 49.2493 18.1444 49.4251C18.3202 49.6009 18.5587 49.6997 18.8073 49.6997H26.5895C26.8382 49.6997 27.0766 49.6009 27.2524 49.4251C27.4283 49.2493 27.527 49.0108 27.527 48.7622V35.3081C29.9207 34.8659 31.7399 32.7645 31.7399 30.2448C31.74 27.4048 29.4296 25.0944 26.5895 25.0944ZM26.5895 33.5202C24.7834 33.5202 23.3141 32.0509 23.3141 30.2448C23.3141 28.4387 24.7834 26.9694 26.5895 26.9694C28.3956 26.9694 29.8649 28.4387 29.8649 30.2448C29.8649 32.0509 28.3957 33.5202 26.5895 33.5202Z" fill="#279D39"/>
</svg>
