<svg width="389" height="519" viewBox="0 0 389 519" fill="none" xmlns="http://www.w3.org/2000/svg">
<path d="M376.845 2.03417H12.1576C6.56279 2.03417 2.02734 6.58741 2.02734 12.2041V506.463C2.02734 512.08 6.56279 516.633 12.1576 516.633H376.845C382.44 516.633 386.975 512.08 386.975 506.463V12.2041C386.975 6.58741 382.44 2.03417 376.845 2.03417Z" fill="#E4E8FB" stroke="#2A3FCC" stroke-width="2"/>
<path d="M372.79 34.5776H16.207V490.191H372.79V34.5776Z" fill="white"/>
<path d="M372.79 34.5776H16.207V67.1214H372.79V34.5776Z" fill="black"/>
<path d="M254.27 44.7476H37.4831C34.6857 44.7476 32.418 47.0242 32.418 49.8325C32.418 52.6409 34.6857 54.9175 37.4831 54.9175H254.27C257.067 54.9175 259.335 52.6409 259.335 49.8325C259.335 47.0242 257.067 44.7476 254.27 44.7476Z" fill="white"/>
<path d="M324.165 49.8325C324.165 47.0242 321.898 44.7476 319.1 44.7476C316.303 44.7476 314.035 47.0242 314.035 49.8325C314.035 52.6409 316.303 54.9175 319.1 54.9175C321.898 54.9175 324.165 52.6409 324.165 49.8325Z" fill="white"/>
<path d="M342.4 49.8325C342.4 47.0242 340.132 44.7476 337.335 44.7476C334.537 44.7476 332.27 47.0242 332.27 49.8325C332.27 52.6409 334.537 54.9175 337.335 54.9175C340.132 54.9175 342.4 52.6409 342.4 49.8325Z" fill="white"/>
<path d="M360.634 49.8325C360.634 47.0242 358.366 44.7476 355.569 44.7476C352.772 44.7476 350.504 47.0242 350.504 49.8325C350.504 52.6409 352.772 54.9175 355.569 54.9175C358.366 54.9175 360.634 52.6409 360.634 49.8325Z" fill="white"/>
<g filter="url(#filter0_d_621_2259)">
<path d="M200.579 99.6655H68.8867C62.173 99.6655 56.7305 105.129 56.7305 111.869V278.656C56.7305 285.396 62.173 290.86 68.8867 290.86H200.579C207.293 290.86 212.736 285.396 212.736 278.656V111.869C212.736 105.129 207.293 99.6655 200.579 99.6655Z" fill="white"/>
<path d="M68.8867 100.166H200.579C207.015 100.166 212.235 105.404 212.235 111.87V278.657C212.235 285.122 207.015 290.36 200.579 290.36H68.8867C62.4511 290.36 57.2307 285.122 57.2305 278.657V111.87C57.2305 105.404 62.451 100.166 68.8867 100.166Z" stroke="black" stroke-opacity="0.17"/>
</g>
<path d="M149.928 115.938H74.9648C71.608 115.938 68.8867 118.669 68.8867 122.039V197.297C68.8867 200.667 71.608 203.399 74.9648 203.399H149.928C153.285 203.399 156.007 200.667 156.007 197.297V122.039C156.007 118.669 153.285 115.938 149.928 115.938Z" fill="#E6EDFF"/>
<path d="M113.46 215.603H72.9388C70.7009 215.603 68.8867 217.424 68.8867 219.671C68.8867 221.917 70.7009 223.739 72.9388 223.739H113.46C115.698 223.739 117.512 221.917 117.512 219.671C117.512 217.424 115.698 215.603 113.46 215.603Z" fill="black"/>
<path d="M145.876 229.841H72.9388C70.7009 229.841 68.8867 231.662 68.8867 233.909C68.8867 236.155 70.7009 237.977 72.9388 237.977H145.876C148.114 237.977 149.928 236.155 149.928 233.909C149.928 231.662 148.114 229.841 145.876 229.841Z" fill="black"/>
<path d="M101.303 244.079H72.9388C70.7009 244.079 68.8867 245.9 68.8867 248.147C68.8867 250.393 70.7009 252.215 72.9388 252.215H101.303C103.541 252.215 105.355 250.393 105.355 248.147C105.355 245.9 103.541 244.079 101.303 244.079Z" fill="black"/>
<path d="M156.007 258.316H72.9388C70.7009 258.316 68.8867 260.138 68.8867 262.384C68.8867 264.631 70.7009 266.452 72.9388 266.452H156.007C158.244 266.452 160.059 264.631 160.059 262.384C160.059 260.138 158.244 258.316 156.007 258.316Z" fill="black"/>
<path d="M166.136 229.841H160.058C157.82 229.841 156.006 231.662 156.006 233.909C156.006 236.155 157.82 237.977 160.058 237.977H166.136C168.374 237.977 170.188 236.155 170.188 233.909C170.188 231.662 168.374 229.841 166.136 229.841Z" fill="black"/>
<path d="M196.526 229.841H180.318C178.08 229.841 176.266 231.662 176.266 233.909C176.266 236.155 178.08 237.977 180.318 237.977H196.526C198.764 237.977 200.578 236.155 200.578 233.909C200.578 231.662 198.764 229.841 196.526 229.841Z" fill="black"/>
<path d="M196.527 244.079H160.058C157.82 244.079 156.006 245.9 156.006 248.147C156.006 250.393 157.82 252.215 160.058 252.215H196.527C198.765 252.215 200.579 250.393 200.579 248.147C200.579 245.9 198.765 244.079 196.527 244.079Z" fill="black"/>
<path d="M188.423 120.005H170.189C167.951 120.005 166.137 121.827 166.137 124.073C166.137 126.32 167.951 128.141 170.189 128.141H188.423C190.661 128.141 192.475 126.32 192.475 124.073C192.475 121.827 190.661 120.005 188.423 120.005Z" fill="black"/>
<path d="M196.527 136.277H170.189C167.951 136.277 166.137 138.099 166.137 140.345C166.137 142.592 167.951 144.413 170.189 144.413H196.527C198.765 144.413 200.579 142.592 200.579 140.345C200.579 138.099 198.765 136.277 196.527 136.277Z" fill="black"/>
<path d="M196.527 150.515H170.189C167.951 150.515 166.137 152.336 166.137 154.583C166.137 156.83 167.951 158.651 170.189 158.651H196.527C198.765 158.651 200.579 156.83 200.579 154.583C200.579 152.336 198.765 150.515 196.527 150.515Z" fill="black"/>
<path d="M351.52 113.903H280.608C276.132 113.903 272.504 117.546 272.504 122.039V150.515C272.504 155.008 276.132 158.651 280.608 158.651H351.52C355.995 158.651 359.624 155.008 359.624 150.515V122.039C359.624 117.546 355.995 113.903 351.52 113.903Z" fill="#B8CCFE"/>
<path d="M232.996 195.263V141.362C232.996 138.554 235.263 136.277 238.061 136.277H330.246C333.603 136.277 336.324 139.009 336.324 142.379V175.069C336.324 178.439 333.603 181.171 330.246 181.171H240.869L232.996 195.263Z" fill="#2A3FCC"/>
<path d="M276.076 146.956H242.594C241.489 146.956 240.594 147.851 240.594 148.956V156.142C240.594 157.247 241.489 158.142 242.594 158.142H276.076C277.18 158.142 278.076 157.247 278.076 156.142V148.956C278.076 147.851 277.18 146.956 276.076 146.956Z" fill="#FEFEFC"/>
<path d="M294.31 161.193H242.594C241.489 161.193 240.594 162.089 240.594 163.193V170.38C240.594 171.485 241.489 172.38 242.594 172.38H294.31C295.414 172.38 296.31 171.485 296.31 170.38V163.193C296.31 162.089 295.414 161.193 294.31 161.193Z" fill="#FEFEFC"/>
<path d="M326.724 161.193H305.398C304.294 161.193 303.398 162.089 303.398 163.193V170.38C303.398 171.485 304.294 172.38 305.398 172.38H326.724C327.829 172.38 328.724 171.485 328.724 170.38V163.193C328.724 162.089 327.829 161.193 326.724 161.193Z" fill="#FEFEFC"/>
<path d="M232.996 282.724V228.824C232.996 226.015 235.263 223.739 238.061 223.739H330.246C333.603 223.739 336.324 226.47 336.324 229.841V262.531C336.324 265.901 333.603 268.633 330.246 268.633H240.869L232.996 282.724Z" fill="#2A3FCC"/>
<path d="M276.076 234.417H242.594C241.489 234.417 240.594 235.312 240.594 236.417V243.604C240.594 244.708 241.489 245.604 242.594 245.604H276.076C277.18 245.604 278.076 244.708 278.076 243.604V236.417C278.076 235.312 277.18 234.417 276.076 234.417Z" fill="#FEFEFC"/>
<path d="M294.31 248.655H242.594C241.489 248.655 240.594 249.55 240.594 250.655V257.842C240.594 258.946 241.489 259.842 242.594 259.842H294.31C295.414 259.842 296.31 258.946 296.31 257.842V250.655C296.31 249.55 295.414 248.655 294.31 248.655Z" fill="#FEFEFC"/>
<path d="M326.724 248.655H305.398C304.294 248.655 303.398 249.55 303.398 250.655V257.842C303.398 258.946 304.294 259.842 305.398 259.842H326.724C327.829 259.842 328.724 258.946 328.724 257.842V250.655C328.724 249.55 327.829 248.655 326.724 248.655Z" fill="#FEFEFC"/>
<path d="M119.538 311.2H64.8346C60.3588 311.2 56.7305 314.843 56.7305 319.336V374.254C56.7305 378.747 60.3588 382.39 64.8346 382.39H119.538C124.014 382.39 127.642 378.747 127.642 374.254V319.336C127.642 314.843 124.014 311.2 119.538 311.2Z" fill="black"/>
<path d="M265.412 311.2H151.954C147.478 311.2 143.85 314.843 143.85 319.336C143.85 323.83 147.478 327.472 151.954 327.472H265.412C269.888 327.472 273.516 323.83 273.516 319.336C273.516 314.843 269.888 311.2 265.412 311.2Z" fill="black"/>
<path d="M322.141 339.676H151.954C147.478 339.676 143.85 343.319 143.85 347.812C143.85 352.305 147.478 355.948 151.954 355.948H322.141C326.617 355.948 330.245 352.305 330.245 347.812C330.245 343.319 326.617 339.676 322.141 339.676Z" fill="black"/>
<path d="M322.141 368.152H151.954C147.478 368.152 143.85 371.794 143.85 376.288C143.85 380.781 147.478 384.424 151.954 384.424H322.141C326.617 384.424 330.245 380.781 330.245 376.288C330.245 371.794 326.617 368.152 322.141 368.152Z" fill="black"/>
<path d="M265.41 394.593H151.952C147.476 394.593 143.848 398.236 143.848 402.729C143.848 407.223 147.476 410.865 151.952 410.865H265.41C269.886 410.865 273.514 407.223 273.514 402.729C273.514 398.236 269.886 394.593 265.41 394.593Z" fill="#B8CCFE"/>
<path d="M322.139 423.069H151.952C147.476 423.069 143.848 426.712 143.848 431.205C143.848 435.699 147.476 439.341 151.952 439.341H322.139C326.615 439.341 330.243 435.699 330.243 431.205C330.243 426.712 326.615 423.069 322.139 423.069Z" fill="#B8CCFE"/>
<path d="M322.139 451.545H151.952C147.476 451.545 143.848 455.188 143.848 459.681C143.848 464.174 147.476 467.817 151.952 467.817H322.139C326.615 467.817 330.243 464.174 330.243 459.681C330.243 455.188 326.615 451.545 322.139 451.545Z" fill="#B8CCFE"/>
<path d="M119.538 394.593H64.8346C60.3588 394.593 56.7305 398.236 56.7305 402.729V457.647C56.7305 462.14 60.3588 465.783 64.8346 465.783H119.538C124.014 465.783 127.642 462.14 127.642 457.647V402.729C127.642 398.236 124.014 394.593 119.538 394.593Z" fill="#B8CCFE"/>
<path d="M115.485 132.209C107.826 132.209 101.596 138.464 101.596 146.153C101.596 153.842 107.826 160.097 115.485 160.097C123.144 160.097 129.375 153.842 129.375 146.153C129.375 138.464 123.144 132.209 115.485 132.209ZM132.766 169.206C128.964 165.33 123.923 163.196 118.572 163.196H112.399C107.048 163.196 102.007 165.33 98.204 169.206C94.4199 173.064 92.3359 178.155 92.3359 183.543C92.3359 184.399 93.027 185.093 93.8792 185.093H137.091C137.943 185.093 138.634 184.399 138.634 183.543C138.634 178.155 136.55 173.064 132.766 169.206Z" fill="#2A3FCC"/>
<path d="M84.5876 367.389L84.3248 366.967C80.3109 360.517 69.6444 346.831 69.5367 346.693L69.3828 346.496L73.0168 343.109L84.5201 350.684C91.7629 341.821 98.5198 335.733 102.927 332.178C107.749 328.289 110.887 326.499 110.919 326.482L110.99 326.442H117.155L116.566 326.936C101.422 339.656 85.0082 366.692 84.8447 366.963L84.5876 367.389Z" fill="white"/>
<path d="M84.5876 451.559L84.3248 451.136C80.3109 444.687 69.6444 431 69.5367 430.863L69.3828 430.666L73.0168 427.279L84.5201 434.854C91.7629 425.991 98.5198 419.903 102.927 416.348C107.749 412.459 110.887 410.669 110.919 410.652L110.99 410.611H117.155L116.566 411.106C101.422 423.826 85.0082 450.862 84.8447 451.133L84.5876 451.559Z" fill="white"/>
<defs>
<filter id="filter0_d_621_2259" x="52.7305" y="99.6655" width="160.005" height="195.195" filterUnits="userSpaceOnUse" color-interpolation-filters="sRGB">
<feFlood flood-opacity="0" result="BackgroundImageFix"/>
<feColorMatrix in="SourceAlpha" type="matrix" values="0 0 0 0 0 0 0 0 0 0 0 0 0 0 0 0 0 0 127 0" result="hardAlpha"/>
<feOffset dx="-4" dy="4"/>
<feComposite in2="hardAlpha" operator="out"/>
<feColorMatrix type="matrix" values="0 0 0 0 0.353571 0 0 0 0 0.25 0 0 0 0 1 0 0 0 1 0"/>
<feBlend mode="normal" in2="BackgroundImageFix" result="effect1_dropShadow_621_2259"/>
<feBlend mode="normal" in="SourceGraphic" in2="effect1_dropShadow_621_2259" result="shape"/>
</filter>
</defs>
</svg>
