<svg width="61" height="60" viewBox="0 0 61 60" fill="none" xmlns="http://www.w3.org/2000/svg">
<path d="M8.87305 4.12817H10.5169V5.99617H8.87305V4.12817ZM13.7859 4.12817H15.439V5.99617H13.7859V4.12817ZM18.6987 4.12817H20.3425V5.99617H18.6987V4.12817ZM33.5493 4.12817H50.9216V5.99617H33.5493V4.12817Z" fill="black"/>
<path d="M3.25965 26.3948V60H56.5349V26.6189C57.6683 26.3627 58.6807 25.7283 59.4055 24.8201C60.1304 23.9119 60.5245 22.784 60.523 21.622V20.221L56.5349 9.54545V2.82067C56.5349 1.27024 55.274 0 53.7142 0H6.08032C4.52989 0 3.25965 1.2609 3.25965 2.82067V8.2472H3.21295L0.0280199 20.1463L0 21.622C0 23.7702 1.3076 25.6382 3.25965 26.3948ZM54.6669 58.1227H5.12765V26.7403C6.65006 26.7403 8.2939 26.0025 9.31195 24.5641C10.2273 25.8624 11.787 26.7403 13.4963 26.7403C15.2055 26.7403 16.7279 25.9184 17.6899 24.5641C18.6239 25.8904 20.193 26.7403 21.8836 26.7403C23.5928 26.7403 25.1152 25.9091 26.0679 24.5641C27.0112 25.8904 28.5803 26.7403 30.2615 26.7403C31.9427 26.7403 33.4651 25.9465 34.4458 24.5641C35.3798 25.8811 36.9489 26.7403 38.6395 26.7403C40.358 26.7403 41.8804 25.9091 42.8331 24.5641C43.7578 25.8717 45.3176 26.7403 47.0174 26.7403C48.736 26.7403 50.2677 25.8998 51.2111 24.5641C51.9956 25.6756 53.2659 26.4882 54.6669 26.6843V58.1227ZM10.246 20.4732L12.0766 10.1245H17.6245L16.7559 20.3892V21.622C16.7559 23.3873 15.3176 24.8817 13.4963 24.8817C11.703 24.8817 10.246 23.4153 10.246 21.622V20.4732ZM50.2771 20.5199V21.622C50.2771 23.4433 48.8014 24.8817 47.0174 24.8817C45.2242 24.8817 43.7671 23.4153 43.7671 21.622V20.3892L41.8244 10.1245H47.3443L50.2771 20.5199ZM41.8991 20.4732V21.6127C41.8991 23.378 40.4608 24.8724 38.6395 24.8724C37.7757 24.8699 36.948 24.5257 36.3373 23.9149C35.7265 23.3041 35.3823 22.4765 35.3798 21.6127V20.2864L34.3711 10.1245H39.9191L41.8991 20.4732ZM33.5118 20.4359V21.622C33.5118 23.378 32.1015 24.8817 30.2615 24.8817C29.3978 24.8792 28.5701 24.535 27.9593 23.9242C27.3485 23.3135 27.0043 22.4858 27.0019 21.622L26.9365 10.1245H32.5031L33.5118 20.4359ZM25.1245 19.5392L25.1339 20.3892V21.622C25.1339 23.4527 23.6395 24.8817 21.8836 24.8817C21.0198 24.8792 20.1921 24.535 19.5814 23.9242C18.9706 23.3135 18.6264 22.4858 18.6239 21.622V20.4732L19.5019 10.1245H25.0685L25.1245 19.5392ZM58.655 21.622C58.655 24.779 55.4888 24.835 55.3954 24.8817C53.6021 24.8817 52.1451 23.4153 52.1451 21.622V20.3892L49.287 10.1245H54.7603L58.655 20.5573V21.622ZM5.12765 2.82067C5.12765 2.29763 5.55729 1.86799 6.08032 1.86799H53.7142C54.2372 1.86799 54.6669 2.29763 54.6669 2.82067V8.2472H5.12765V2.82067ZM1.86799 20.5106L4.65131 10.1245H10.1806L8.39664 20.221L8.37796 21.6127C8.37796 23.6675 6.50062 25.246 4.38979 24.7883C3.66922 24.6266 3.02549 24.2236 2.56519 23.6461C2.10489 23.0686 1.85562 22.3512 1.85865 21.6127V20.5106H1.86799Z" fill="black"/>
<path d="M21.3923 33.6588H44.106L40.6206 45.8579H24.8778" fill="white"/>
<path d="M21.3923 33.6588H44.106L40.6206 45.8579H24.8778" stroke="black" stroke-width="1.2" stroke-miterlimit="10" stroke-linecap="round" stroke-linejoin="round"/>
<path d="M30.1061 52.8286C30.1061 53.791 29.3258 54.5713 28.3633 54.5713C27.4009 54.5713 26.6206 53.791 26.6206 52.8286C26.6206 51.8661 27.4009 51.0858 28.3633 51.0858C29.3258 51.0858 30.1061 51.8661 30.1061 52.8286Z" stroke="black" stroke-width="1.2" stroke-miterlimit="10" stroke-linecap="round" stroke-linejoin="round"/>
<path d="M38.8778 52.8286C38.8778 53.791 38.0975 54.5713 37.1351 54.5713C36.1726 54.5713 35.3923 53.791 35.3923 52.8286C35.3923 51.8661 36.1726 51.0858 37.1351 51.0858C38.0975 51.0858 38.8778 51.8661 38.8778 52.8286Z" stroke="black" stroke-width="1.2" stroke-miterlimit="10" stroke-linecap="round" stroke-linejoin="round"/>
<path d="M40.6206 49.3433H25.9549C24.6594 49.3433 23.8168 47.9799 24.3962 46.8211L24.8779 45.8578" stroke="black" stroke-width="1.2" stroke-miterlimit="10" stroke-linecap="round" stroke-linejoin="round"/>
<path d="M16.106 30.1733H20.3966C21.8803 35.3672 24.8777 45.8579 24.8777 45.8579" stroke="black" stroke-width="1.2" stroke-miterlimit="10" stroke-linecap="round" stroke-linejoin="round"/>
</svg>
