<svg width="74" height="60" viewBox="0 0 74 60" fill="none" xmlns="http://www.w3.org/2000/svg">
<path d="M63.1782 0.5V0.924805L63.1802 0.948242C63.2062 1.22454 63.2425 1.50661 63.2896 1.78418V1.78516C63.578 3.47965 64.26 5.05825 65.2778 6.35938H65.1753L66.0298 7.21289C67.612 8.7927 68.8734 9.34246 69.6528 9.62402L69.9575 9.73047C70.8403 10.0357 71.764 10.2112 72.6997 10.2578V16.2441C69.5661 16.1475 66.5261 15.1033 63.9683 13.2334L63.1724 12.6523V27.8906C63.1724 34.7539 57.7312 40.2996 51.0366 40.2998H51.0356C48.6319 40.3046 46.2804 39.5749 44.2837 38.2031L43.9819 37.9902C40.9057 35.7404 38.8999 32.0584 38.8999 27.8906C38.9 21.0333 44.341 15.4868 51.0415 15.4717C51.452 15.4717 51.8652 15.4924 52.2749 15.5352V21.585C51.8701 21.5018 51.4508 21.458 51.021 21.458C47.5406 21.4582 44.7418 24.3408 44.7417 27.8652L44.7446 28.0869C44.7813 29.1943 45.0999 30.2748 45.6704 31.2217C46.2792 32.2319 47.1518 33.0514 48.1919 33.5859C49.0418 34.023 50.0017 34.2724 51.021 34.2725C54.4902 34.2725 57.2904 31.4072 57.3013 27.8926V0.5H63.1782Z" fill="white" stroke="black"/>
<mask id="path-2-inside-1_2001_66" fill="white">
<path d="M53.4532 47.5056C50.1695 52.1777 45.5962 55.7923 40.292 57.9079C34.9877 60.0236 29.1821 60.5486 23.5844 59.419C17.9866 58.2894 12.839 55.554 8.77028 51.5469C4.70159 47.5398 1.88794 42.4345 0.673036 36.8547C-0.54187 31.2748 -0.105444 25.4619 1.929 20.126C3.96345 14.79 7.50785 10.1621 12.1293 6.80749C16.7507 3.45285 22.249 1.51672 27.9527 1.2356C33.6564 0.954475 39.3185 2.34053 44.2474 5.22445L39.0383 14.1272C35.8387 12.2551 32.1631 11.3553 28.4605 11.5378C24.7579 11.7203 21.1886 12.9772 18.1886 15.1549C15.1885 17.3326 12.8877 20.3368 11.567 23.8007C10.2463 27.2645 9.96299 31.038 10.7517 34.6603C11.5403 38.2825 13.3668 41.5966 16.008 44.1978C18.6493 46.7991 21.9909 48.5748 25.6247 49.3081C29.2586 50.0414 33.0273 49.7005 36.4706 48.3271C39.9139 46.9538 42.8827 44.6073 45.0144 41.5744L53.4532 47.5056Z"/>
</mask>
<path d="M53.4532 47.5056C50.1695 52.1777 45.5962 55.7923 40.292 57.9079C34.9877 60.0236 29.1821 60.5486 23.5844 59.419C17.9866 58.2894 12.839 55.554 8.77028 51.5469C4.70159 47.5398 1.88794 42.4345 0.673036 36.8547C-0.54187 31.2748 -0.105444 25.4619 1.929 20.126C3.96345 14.79 7.50785 10.1621 12.1293 6.80749C16.7507 3.45285 22.249 1.51672 27.9527 1.2356C33.6564 0.954475 39.3185 2.34053 44.2474 5.22445L39.0383 14.1272C35.8387 12.2551 32.1631 11.3553 28.4605 11.5378C24.7579 11.7203 21.1886 12.9772 18.1886 15.1549C15.1885 17.3326 12.8877 20.3368 11.567 23.8007C10.2463 27.2645 9.96299 31.038 10.7517 34.6603C11.5403 38.2825 13.3668 41.5966 16.008 44.1978C18.6493 46.7991 21.9909 48.5748 25.6247 49.3081C29.2586 50.0414 33.0273 49.7005 36.4706 48.3271C39.9139 46.9538 42.8827 44.6073 45.0144 41.5744L53.4532 47.5056Z" fill="white" stroke="black" stroke-width="2" mask="url(#path-2-inside-1_2001_66)"/>
<circle cx="27" cy="30.6001" r="8.5" fill="white" stroke="black"/>
</svg>
