<svg width="66" height="61" viewBox="0 0 66 61" fill="none" xmlns="http://www.w3.org/2000/svg">
<path d="M10.0376 16.4168V1.46143C10.0376 0.909141 10.4853 0.461426 11.0376 0.461426H26.1145C26.6668 0.461426 27.1145 0.909142 27.1145 1.46143V16.4824C27.1145 17.3026 26.1816 17.774 25.5213 17.2875L18.9548 12.449C18.5943 12.1834 18.1011 12.1898 17.7477 12.4647L11.6515 17.2061C10.9947 17.717 10.0376 17.2489 10.0376 16.4168Z" fill="white"/>
<rect x="0.75" y="0.75" width="56.0219" height="48.1061" rx="3.25" stroke="black" stroke-width="1.5"/>
<line x1="38.2183" y1="1.58325" x2="38.2183" y2="48.5507" stroke="black" stroke-width="1.5"/>
<path d="M43.4058 40.6873H64.3816L61.1628 51.9531H46.6246" fill="white"/>
<path d="M43.4058 40.6873H64.3816L61.1628 51.9531H46.6246" stroke="black" stroke-width="1.5" stroke-miterlimit="10" stroke-linecap="round" stroke-linejoin="round"/>
<path d="M51.4529 58.3906C51.4529 59.2794 50.7324 60 49.8435 60C48.9547 60 48.2341 59.2794 48.2341 58.3906C48.2341 57.5018 48.9547 56.7812 49.8435 56.7812C50.7324 56.7812 51.4529 57.5018 51.4529 58.3906Z" stroke="black" stroke-width="1.5" stroke-miterlimit="10" stroke-linecap="round" stroke-linejoin="round"/>
<path d="M59.5535 58.3906C59.5535 59.2794 58.8329 60 57.9441 60C57.0553 60 56.3347 59.2794 56.3347 58.3906C56.3347 57.5018 57.0553 56.7812 57.9441 56.7812C58.8329 56.7812 59.5535 57.5018 59.5535 58.3906Z" stroke="black" stroke-width="1.5" stroke-miterlimit="10" stroke-linecap="round" stroke-linejoin="round"/>
<path d="M61.1629 55.1719H47.6193C46.4229 55.1719 45.6448 53.9128 46.1798 52.8427L46.6246 51.9531" stroke="black" stroke-width="1.5" stroke-miterlimit="10" stroke-linecap="round" stroke-linejoin="round"/>
<path d="M38.5239 37.4685H42.4863C43.8565 42.265 46.6246 51.9531 46.6246 51.9531" stroke="black" stroke-width="1.5" stroke-miterlimit="10" stroke-linecap="round" stroke-linejoin="round"/>
</svg>
