<svg width="60" height="60" viewBox="0 0 60 60" fill="none" xmlns="http://www.w3.org/2000/svg">
<path fill-rule="evenodd" clip-rule="evenodd" d="M44.298 11.1845C44.3168 11.5583 44.6285 11.8489 44.9965 11.8489C45.0105 11.8489 45.0199 11.8478 45.0352 11.8478L49.6336 11.5946C49.9922 11.5747 50.2793 11.2888 50.2992 10.9313L50.5523 6.33408C50.5711 5.94619 50.2746 5.61455 49.8867 5.59346C49.4941 5.57119 49.1695 5.86885 49.1449 6.25674L48.9773 9.3376C43.7812 4.67236 37.1297 2.12354 30.1289 2.12354C29.9953 2.12354 29.8559 2.12471 29.7223 2.12588C22.3301 2.23018 15.382 5.16689 10.152 10.3958C5.58281 14.9626 2.78789 20.761 2.06016 27.1653C1.35703 33.3798 2.74922 39.7267 5.97891 45.0376C6.04218 45.1406 6.13075 45.2256 6.23618 45.2847C6.34161 45.3438 6.4604 45.3749 6.58125 45.3751C6.70547 45.3751 6.83437 45.3423 6.94922 45.2731C7.27969 45.0704 7.38516 44.638 7.18359 44.3063C0.730078 33.7103 2.3625 20.1751 11.148 11.3896C21.2824 1.25166 37.2832 0.82627 47.9203 10.281L44.959 10.4438C44.5699 10.4649 44.2734 10.7966 44.298 11.1845ZM53.059 16.4251C59.509 27.0212 57.8824 40.5563 49.0969 49.3419C38.9625 59.4763 22.957 59.904 12.3246 50.4505L15.2859 50.2876C15.3781 50.2828 15.4683 50.2597 15.5515 50.2198C15.6346 50.1799 15.709 50.1238 15.7704 50.055C15.8317 49.9861 15.8788 49.9057 15.9089 49.8185C15.939 49.7313 15.9515 49.639 15.9457 49.547C15.927 49.1603 15.5918 48.8638 15.2039 48.8837L10.6102 49.1368C10.2516 49.1567 9.96445 49.4427 9.94453 49.8001L9.69141 54.3974C9.67266 54.7853 9.96914 55.1169 10.357 55.138C10.3711 55.1392 10.3805 55.1392 10.3957 55.1392C10.7637 55.1392 11.0754 54.8497 11.0988 54.4747L11.2664 51.3938C16.4578 56.0591 23.1141 58.6079 30.1148 58.6079C30.2531 58.6079 30.3926 58.6067 30.5309 58.6044C37.9184 58.4978 44.8664 55.561 50.0918 50.3356C54.6563 45.7688 57.4559 39.9704 58.1836 33.5661C58.8867 27.3517 57.4945 21.0048 54.2602 15.6938C54.0598 15.3622 53.6238 15.2567 53.2934 15.4583C52.9629 15.661 52.8574 16.0935 53.059 16.4251Z" fill="black"/>
<path fill-rule="evenodd" clip-rule="evenodd" d="M27.2589 26.3663C30.5894 26.3663 33.3023 23.6569 33.3023 20.3265C33.3023 16.996 30.5894 14.2866 27.2589 14.2866C23.9285 14.2866 21.2203 16.996 21.2203 20.3265C21.2203 23.6569 23.9285 26.3663 27.2589 26.3663ZM32.6753 30.5206C31.0195 31.403 29.1539 31.8683 27.2589 31.8683C25.3687 31.8683 23.5031 31.403 21.8425 30.5206C19.9335 31.1487 18.225 32.112 16.8855 33.3179C15.464 34.5964 14.7468 36.2147 14.7468 38.1272V41.7812C17.9953 43.6585 22.5316 44.7296 27.2589 44.7296C29.4644 44.7296 31.5937 44.5069 33.6128 44.0675C33.0841 43.0609 32.8082 41.9408 32.8089 40.8038C32.8089 37.4722 35.1339 34.6749 38.25 33.9448C38.0588 33.7218 37.8525 33.5123 37.6324 33.3179C36.2976 32.112 34.5843 31.1487 32.6753 30.5206Z" fill="white"/>
<path fill-rule="evenodd" clip-rule="evenodd" d="M39.8566 35.1636C36.7465 35.1636 34.2152 37.6937 34.2152 40.8038C34.2152 43.9151 36.7465 46.4452 39.8566 46.4452C42.9668 46.4452 45.498 43.9151 45.498 40.8038C45.4992 37.6937 42.9679 35.1636 39.8566 35.1636ZM36.9961 40.2448C37.2738 39.9706 37.7191 39.9706 37.991 40.2448L39.1101 41.364L41.7222 38.753C41.9953 38.4776 42.4453 38.4776 42.7172 38.753C42.8483 38.8851 42.9219 39.0637 42.9219 39.2499C42.9219 39.4361 42.8483 39.6147 42.7172 39.7468L39.607 42.8558C39.5417 42.9213 39.4641 42.9733 39.3786 43.0087C39.2931 43.0441 39.2015 43.0622 39.109 43.062C38.932 43.062 38.7504 42.9929 38.6109 42.8558L36.9937 41.2397C36.723 40.9644 36.723 40.519 36.9961 40.2448Z" fill="black"/>
</svg>
