<svg width="27" height="25" viewBox="0 0 27 25" fill="none" xmlns="http://www.w3.org/2000/svg">
<g clip-path="url(#clip0_2013_325)">
<path d="M13.7188 0C6.39523 0 0.4375 5.60728 0.4375 12.5C0.4375 19.3927 6.39523 25 13.7188 25C21.0423 25 27 19.3927 27 12.5C27 5.60728 21.0423 0 13.7188 0ZM17.8216 13.2365L12.2877 18.4448C12.185 18.5416 12.0631 18.6185 11.9288 18.6708C11.7945 18.7232 11.6506 18.7501 11.5052 18.75C11.3598 18.7501 11.2159 18.7232 11.0816 18.6708C10.9473 18.6185 10.8253 18.5416 10.7227 18.4448C10.29 18.0375 10.29 17.3792 10.7227 16.9719L15.4741 12.5L10.7227 8.02813C10.29 7.62085 10.29 6.9625 10.7227 6.55522C11.1555 6.14795 11.855 6.14795 12.2877 6.55522L17.8216 11.7636C18.2543 12.1708 18.2543 12.8292 17.8216 13.2365Z" fill="#5A40FF"/>
</g>
<defs>
<clipPath id="clip0_2013_325">
<rect width="26.5625" height="25" fill="white" transform="translate(0.4375)"/>
</clipPath>
</defs>
</svg>
