<svg width="51" height="48" viewBox="0 0 51 48" fill="none" xmlns="http://www.w3.org/2000/svg">
<path fill-rule="evenodd" clip-rule="evenodd" d="M0 23.75C0 10.6329 11.2974 0 25.2344 0C39.1713 0 50.4688 10.6329 50.4688 23.75C50.4688 36.8671 39.1713 47.5 25.2344 47.5C11.2974 47.5 0 36.8671 0 23.75ZM23.4503 12.5709C23.9235 12.1256 24.5653 11.8755 25.2344 11.8755C25.9035 11.8755 26.5452 12.1256 27.0184 12.5709L37.1122 22.0709C37.5719 22.5188 37.8262 23.1187 37.8205 23.7415C37.8147 24.3642 37.5493 24.9599 37.0815 25.4002C36.6136 25.8405 35.9807 26.0903 35.319 26.0957C34.6574 26.1011 34.02 25.8618 33.5441 25.4291L27.7578 19.9833V33.25C27.7578 33.8799 27.492 34.484 27.0187 34.9294C26.5455 35.3748 25.9036 35.625 25.2344 35.625C24.5651 35.625 23.9233 35.3748 23.45 34.9294C22.9768 34.484 22.7109 33.8799 22.7109 33.25V19.9833L16.9247 25.4291C16.4488 25.8618 15.8113 26.1011 15.1497 26.0957C14.4881 26.0903 13.8552 25.8405 13.3873 25.4002C12.9194 24.9599 12.654 24.3642 12.6483 23.7415C12.6425 23.1187 12.8969 22.5188 13.3566 22.0709L23.4503 12.5709Z" fill="#5A40FF"/>
</svg>
