<svg width="40" height="30" viewBox="0 0 40 30" fill="none" xmlns="http://www.w3.org/2000/svg">
<path d="M3.75098 4.00684C5.50001 2.43811 7.85899 1.6629 10.2305 1.90039V1.90137C14.4651 2.3378 17.791 6.18501 17.707 10.7275C17.5854 16.9876 15.3382 21.017 12.7109 23.624C10.0596 26.2549 6.96144 27.4934 5.09277 28.04L5.06445 28.0488L5.03711 28.0586C5.01029 28.0682 4.95789 28.0801 4.81348 28.0801C4.47962 28.0801 4.18882 27.9272 4.00391 27.6367L4.00098 27.6328L3.92578 27.4912C3.77955 27.1525 3.83808 26.7559 4.09766 26.4609C6.01298 24.2838 7.46612 22.0005 8.39551 19.6631L8.84375 18.5371L7.65332 18.3115C3.78789 17.5763 1.00017 14.1429 1 10.2139L1.01172 9.77637C1.06548 8.75716 1.30505 7.7546 1.71973 6.81934C2.19361 5.75069 2.88505 4.79216 3.75098 4.00684ZM25.0439 4.00684C26.7935 2.43752 29.1527 1.66321 31.5098 1.90039V1.90137C35.7131 2.33823 39 6.09138 39 10.5605V10.7275C38.8784 16.9876 36.6312 21.017 34.0039 23.624C31.3525 26.2549 28.2543 27.4934 26.3857 28.04L26.3574 28.0488L26.3301 28.0586C26.3032 28.0682 26.2505 28.0801 26.1064 28.0801C25.7726 28.08 25.4817 27.9272 25.2969 27.6367L25.2949 27.6328L25.2188 27.4912C25.0726 27.1526 25.1312 26.7559 25.3906 26.4609C27.306 24.2837 28.7601 22.0006 29.6895 19.6631L30.1367 18.5371L28.9473 18.3115C25.0818 17.5764 22.2931 14.143 22.293 10.2139L22.3047 9.77637C22.3584 8.75714 22.598 7.75462 23.0127 6.81934C23.4866 5.75069 24.179 4.79309 25.0449 4.00781L25.0439 4.00684Z" fill="#2A3FCC" stroke="#2A3FCC" stroke-width="2"/>
</svg>
