<svg width="416" height="469" viewBox="0 0 416 469" fill="none" xmlns="http://www.w3.org/2000/svg">
<path d="M107.863 128.643C124.589 116.751 143.948 109.09 164.283 106.316C184.617 103.542 205.321 105.738 224.621 112.715C243.921 119.693 261.243 131.244 275.102 146.38C288.962 161.515 298.946 179.785 304.201 199.623C309.456 219.462 309.824 240.279 305.275 260.291C300.725 280.303 291.393 298.914 278.077 314.53C264.762 330.147 247.86 342.304 228.819 349.96C209.777 357.615 189.164 360.542 168.744 358.489L174.967 296.591C185.384 297.638 195.898 296.145 205.611 292.24C215.325 288.334 223.946 282.133 230.739 274.167C237.531 266.201 242.291 256.707 244.612 246.499C246.933 236.291 246.745 225.672 244.065 215.552C241.384 205.433 236.291 196.113 229.221 188.392C222.151 180.672 213.315 174.779 203.47 171.22C193.625 167.661 183.064 166.541 172.691 167.956C162.319 169.371 152.443 173.279 143.911 179.345L107.863 128.643Z" fill="white"/>
<g filter="url(#filter0_d_2014_2)">
<rect x="143.899" y="194.591" width="75.605" height="75.605" rx="37.8025" fill="#5A40FF"/>
<path fill-rule="evenodd" clip-rule="evenodd" d="M181.702 229.546C188.373 229.546 193.782 234.955 193.782 241.626C193.782 248.298 188.373 253.706 181.702 253.706C175.03 253.706 169.622 248.298 169.622 241.626C169.622 234.955 175.03 229.546 181.702 229.546ZM169.424 220.439C169.349 220.351 169.249 220.305 169.134 220.305C169.018 220.305 168.918 220.351 168.844 220.439L163.604 226.61C163.505 226.726 163.485 226.879 163.548 227.016C163.612 227.154 163.742 227.237 163.894 227.237H166.334V235.342C166.334 235.761 166.676 236.103 167.095 236.103H169.429C170.049 234.729 170.896 233.469 171.933 232.375V227.237H174.373C174.525 227.237 174.655 227.154 174.719 227.016C174.782 226.879 174.762 226.726 174.663 226.61L169.424 220.439ZM194.56 211.215C194.485 211.127 194.386 211.081 194.27 211.081C194.154 211.081 194.055 211.127 193.98 211.215L188.74 217.386C188.642 217.502 188.621 217.655 188.685 217.793C188.749 217.93 188.879 218.013 189.03 218.013H191.471V232.375C192.508 233.469 193.354 234.729 193.974 236.103H196.308C196.727 236.103 197.069 235.761 197.069 235.342V218.013H199.51C199.662 218.013 199.791 217.93 199.855 217.793C199.919 217.655 199.898 217.502 199.8 217.386L194.56 211.215ZM181.992 215.827L187.232 221.998C187.33 222.114 187.351 222.267 187.287 222.405C187.223 222.542 187.093 222.625 186.941 222.625H184.501V228.464C183.598 228.273 182.662 228.171 181.702 228.171C180.742 228.171 179.806 228.273 178.902 228.464V222.625H176.462C176.31 222.625 176.18 222.542 176.117 222.404C176.053 222.267 176.074 222.114 176.172 221.998L181.412 215.827C181.486 215.739 181.586 215.693 181.702 215.693C181.817 215.693 181.917 215.739 181.992 215.827ZM178.047 247.946L186.607 236.023C186.71 235.876 186.751 235.694 186.72 235.517C186.69 235.339 186.591 235.181 186.445 235.076C186.299 234.971 186.118 234.928 185.94 234.955C185.763 234.983 185.603 235.079 185.496 235.223L176.935 247.145C176.833 247.293 176.792 247.475 176.822 247.652C176.853 247.829 176.952 247.987 177.097 248.092C177.243 248.197 177.425 248.241 177.602 248.213C177.78 248.186 177.94 248.09 178.047 247.946ZM180.017 235.184C178.917 234.086 177.111 234.089 176.013 235.188C174.914 236.287 174.918 238.094 176.017 239.192C177.123 240.298 178.915 240.294 180.02 239.188C181.126 238.081 181.123 236.289 180.017 235.184ZM187.357 244.055C186.265 242.964 184.469 242.967 183.378 244.059C182.287 245.152 182.29 246.947 183.382 248.038C184.475 249.13 186.27 249.126 187.361 248.034C188.453 246.942 188.449 245.147 187.357 244.055ZM186.441 244.977C185.853 244.388 184.888 244.386 184.299 244.975C183.711 245.564 183.708 246.528 184.298 247.117C184.887 247.705 185.851 247.708 186.44 247.118C187.028 246.53 187.031 245.566 186.441 244.977ZM179.095 236.111C178.503 235.519 177.532 235.516 176.94 236.11C176.348 236.702 176.345 237.672 176.938 238.265C177.532 238.859 178.499 238.862 179.094 238.266C179.688 237.672 179.69 236.706 179.095 236.111Z" fill="white"/>
</g>
<g filter="url(#filter1_d_2014_2)">
<rect x="154.897" y="79.1215" width="68.7318" height="68.7318" rx="34.3659" fill="white"/>
<path d="M202.501 96.9058C200.8 95.247 199.666 93.027 199.243 90.5887C199.187 90.2644 199.143 89.9339 199.112 89.6096V88.5059H190.515V122.661C190.502 126.639 187.269 129.863 183.288 129.863C182.117 129.863 181.014 129.583 180.036 129.09C178.84 128.488 177.835 127.565 177.133 126.424C176.431 125.283 176.06 123.969 176.062 122.629C176.062 118.638 179.295 115.396 183.288 115.396C184.054 115.396 184.789 115.514 185.481 115.732V106.989C184.765 106.89 184.036 106.84 183.313 106.84C174.579 106.858 167.508 113.936 167.508 122.661C167.508 128.136 170.287 132.956 174.51 135.794C177.11 137.543 180.174 138.475 183.307 138.469C192.035 138.469 199.106 131.391 199.106 122.661V105.206C202.58 107.694 206.745 109.028 211.017 109.022V100.473C209.702 100.473 208.4 100.261 207.167 99.843C206.301 99.5499 204.663 99.026 202.495 96.9058H202.501Z" fill="black"/>
</g>
<g filter="url(#filter2_d_2014_2)">
<rect x="248.122" y="130.354" width="68.7318" height="68.7318" rx="34.3659" fill="white"/>
<path d="M282.483 156.868C283.612 156.868 284.54 156.284 284.665 155.527L285.781 142.952C285.781 141.709 284.322 140.688 282.487 140.688C280.654 140.688 279.198 141.709 279.198 142.952L280.311 155.527C280.433 156.284 281.363 156.868 282.487 156.868H282.483ZM275.675 160.797C276.241 159.823 276.197 158.728 275.601 158.242L265.248 150.992C264.173 150.37 262.558 151.118 261.641 152.705C260.722 154.289 260.885 156.059 261.96 156.679L273.424 162.009C274.141 162.274 275.117 161.764 275.679 160.791L275.675 160.797ZM289.296 160.79C289.861 161.764 290.833 162.274 291.55 162.009L303.015 156.678C304.094 156.058 304.249 154.288 303.337 152.705C302.417 151.118 300.8 150.369 299.726 150.992L289.373 158.242C288.781 158.728 288.737 159.823 289.3 160.797L289.296 160.79ZM282.483 172.576C283.612 172.576 284.54 173.158 284.665 173.915L285.781 186.489C285.781 187.734 284.322 188.753 282.487 188.753C280.654 188.753 279.198 187.734 279.198 186.489L280.311 173.915C280.433 173.158 281.363 172.576 282.487 172.576H282.483ZM289.296 168.649C289.861 167.673 290.833 167.166 291.55 167.436L303.015 172.759C304.094 173.382 304.249 175.153 303.337 176.738C302.417 178.319 300.8 179.071 299.726 178.451L289.373 171.207C288.781 170.714 288.737 169.619 289.3 168.646L289.296 168.649ZM275.675 168.647C276.241 169.62 276.197 170.715 275.601 171.206L265.248 178.45C264.173 179.07 262.558 178.319 261.641 176.738C260.722 175.153 260.885 173.383 261.96 172.759L273.424 167.435C274.141 167.166 275.117 167.673 275.68 168.649L275.675 168.647Z" fill="#FDBB30"/>
</g>
<g filter="url(#filter3_d_2014_2)">
<rect x="255.682" y="240.325" width="68.7318" height="68.7318" rx="34.3659" fill="white"/>
<g clip-path="url(#clip0_2014_2)">
<path d="M303.76 268.401C303.76 270.37 303.831 272.327 303.737 274.296C303.643 276.536 304.325 278.458 305.738 280.156C305.903 280.356 306.056 280.557 306.197 280.769C306.703 281.536 306.609 282.066 305.914 282.656C304.431 283.905 302.96 285.167 301.477 286.417C300.594 287.16 300.041 287.148 299.146 286.417C297.946 285.438 297.004 284.236 296.169 282.95C295.969 282.644 295.863 282.656 295.615 282.891C294.132 284.342 292.567 285.686 290.578 286.358C287.506 287.407 284.387 287.572 281.303 286.476C278.337 285.415 276.56 283.222 275.901 280.168C275.171 276.76 275.547 273.518 277.643 270.629C279.231 268.448 281.433 267.163 283.963 266.373C286.576 265.571 289.271 265.264 291.978 264.993C292.744 264.911 293.497 264.84 294.262 264.769C294.45 264.757 294.615 264.734 294.603 264.486C294.58 263.236 294.709 261.963 294.415 260.737C294.038 259.169 293.014 258.249 291.449 257.907C290.331 257.659 289.224 257.73 288.141 258.096C286.494 258.662 285.47 259.805 285.058 261.503C284.834 262.435 284.399 262.765 283.492 262.67C281.562 262.47 279.632 262.27 277.713 262.069C276.925 261.987 276.513 261.385 276.677 260.619C277.678 255.726 280.879 252.978 285.493 251.717C289.036 250.75 292.626 250.691 296.18 251.693C299.041 252.495 301.442 253.91 302.783 256.716C303.548 258.308 303.725 260.029 303.749 261.751C303.772 263.956 303.749 266.184 303.76 268.401ZM294.603 272.079C294.603 271.49 294.58 270.9 294.615 270.311C294.639 269.945 294.509 269.816 294.144 269.851C293.25 269.933 292.343 269.945 291.449 270.063C289.883 270.264 288.353 270.653 287.082 271.643C285.234 273.093 284.846 275.074 285.152 277.303C285.517 279.92 287.847 281.37 290.342 280.498C292.037 279.908 293.073 278.659 293.791 277.09C294.544 275.499 294.603 273.789 294.603 272.079Z" fill="#050606"/>
<path d="M290.248 298.691C281.268 298.632 273.205 296.321 265.92 291.452C264.437 290.461 263.024 289.376 261.682 288.186C261.565 288.079 261.447 287.973 261.353 287.844C261.223 287.667 261.129 287.454 261.282 287.242C261.435 287.006 261.694 286.983 261.918 287.089C262.436 287.337 262.93 287.608 263.436 287.867C268.073 290.32 272.958 292.088 278.078 293.208C282.715 294.222 287.4 294.694 292.155 294.564C298.946 294.376 305.491 293.008 311.788 290.473C312.094 290.343 312.411 290.214 312.729 290.143C313.176 290.06 313.624 290.119 313.824 290.603C314.012 291.051 313.765 291.404 313.435 291.687C313.2 291.888 312.929 292.053 312.659 292.23C308.598 294.871 304.149 296.569 299.441 297.618C296.333 298.326 293.179 298.667 290.248 298.691Z" fill="#F6A61F"/>
<path d="M312.906 288.186C311.552 288.174 310.21 288.351 308.869 288.492C308.61 288.516 308.315 288.586 308.198 288.303C308.056 287.985 308.327 287.796 308.551 287.643C310.222 286.535 312.094 286.099 314.059 285.992C315.413 285.91 316.755 285.969 318.073 286.37C318.673 286.547 318.967 286.9 318.956 287.513C318.885 290.791 317.79 293.645 315.425 295.967C315.342 296.05 315.248 296.121 315.154 296.191C314.942 296.345 314.683 296.486 314.459 296.298C314.247 296.121 314.365 295.861 314.459 295.649C315.154 293.916 315.86 292.194 316.201 290.343C316.248 290.107 316.26 289.872 316.272 289.648C316.284 288.881 316.013 288.551 315.26 288.362C314.471 288.15 313.683 288.186 312.906 288.186Z" fill="#F6A61F"/>
</g>
</g>
<g filter="url(#filter4_d_2014_2)">
<rect x="180.765" y="309.057" width="68.7318" height="68.7318" rx="34.3659" fill="white"/>
<g clip-path="url(#clip1_2014_2)">
<path d="M230.842 328.849C230.809 328.609 230.599 328.476 230.426 328.461C230.253 328.447 226.59 328.175 226.59 328.175C226.59 328.175 224.046 325.644 223.767 325.364C223.487 325.084 222.942 325.169 222.73 325.232C222.699 325.241 222.174 325.403 221.306 325.672C220.457 323.222 218.957 320.97 216.319 320.97C216.246 320.97 216.171 320.973 216.096 320.977C215.345 319.983 214.416 319.551 213.613 319.551C207.467 319.551 204.531 327.25 203.61 331.162C201.222 331.904 199.525 332.431 199.309 332.499C197.976 332.918 197.934 332.96 197.759 334.219C197.627 335.172 194.139 362.201 194.139 362.201L221.318 367.304L236.044 364.112C236.044 364.112 230.874 329.089 230.842 328.849ZM219.804 326.138L217.504 326.851C217.505 326.688 217.506 326.529 217.506 326.354C217.506 324.831 217.295 323.605 216.957 322.633C218.316 322.804 219.222 324.354 219.804 326.138ZM215.27 322.935C215.648 323.884 215.894 325.246 215.894 327.084C215.894 327.178 215.893 327.264 215.892 327.351C214.397 327.815 212.772 328.319 211.143 328.824C212.057 325.288 213.772 323.579 215.27 322.935ZM213.444 321.203C213.71 321.203 213.977 321.293 214.233 321.469C212.263 322.398 210.152 324.737 209.26 329.409L205.506 330.574C206.55 327.011 209.03 321.203 213.444 321.203Z" fill="#95BF46"/>
<path d="M230.426 328.461C230.253 328.447 226.59 328.175 226.59 328.175C226.59 328.175 224.046 325.644 223.767 325.364C223.662 325.26 223.521 325.206 223.374 325.183L221.319 367.304L236.044 364.112C236.044 364.112 230.874 329.089 230.842 328.849C230.809 328.609 230.599 328.476 230.426 328.461Z" fill="#5E8E3E"/>
<path d="M216.319 336.615L214.503 342.027C214.503 342.027 212.912 341.177 210.962 341.177C208.103 341.177 207.959 342.974 207.959 343.427C207.959 345.899 214.389 346.847 214.389 352.637C214.389 357.192 211.506 360.126 207.618 360.126C202.953 360.126 200.567 357.216 200.567 357.216L201.816 353.08C201.816 353.08 204.268 355.19 206.338 355.19C207.69 355.19 208.24 354.123 208.24 353.344C208.24 350.119 202.964 349.975 202.964 344.677C202.964 340.217 206.159 335.902 212.607 335.902C215.091 335.902 216.319 336.615 216.319 336.615Z" fill="white"/>
</g>
</g>
<path d="M167.979 372.795C138.844 370.081 111.285 358.333 89.1536 339.191C67.0222 320.049 51.4245 294.471 44.5405 266.031C37.6564 237.591 39.8301 207.711 50.7576 180.567C61.6851 153.423 80.8205 130.372 105.489 114.635L107.635 117.999C83.6676 133.289 65.0761 155.685 54.4591 182.058C43.8421 208.43 41.7303 237.461 48.4187 265.092C55.1071 292.724 70.2615 317.575 91.7639 336.173C113.266 354.771 140.042 366.186 168.349 368.822L167.979 372.795Z" fill="#5A40FF"/>
<rect x="37.3652" y="161.6" width="32.9913" height="32.9913" rx="16.4956" fill="white"/>
<path d="M59.588 187.095C60.7176 187.095 61.6334 186.18 61.6334 185.05C61.6334 183.92 60.7176 183.004 59.588 183.004C58.4583 183.004 57.5425 183.92 57.5425 185.05C57.5425 186.18 58.4583 187.095 59.588 187.095Z" fill="#455A64"/>
<path d="M51.4061 187.095C52.5358 187.095 53.4516 186.18 53.4516 185.05C53.4516 183.92 52.5358 183.004 51.4061 183.004C50.2765 183.004 49.3607 183.92 49.3607 185.05C49.3607 186.18 50.2765 187.095 51.4061 187.095Z" fill="#455A64"/>
<path d="M63.1675 171.688C63.1291 171.645 63.0819 171.61 63.029 171.586C62.9761 171.562 62.9187 171.55 62.8607 171.55H48.1334C47.9075 171.55 47.7243 171.733 47.7242 171.959C47.7242 171.986 47.727 172.014 47.7325 172.041L49.3689 180.223C49.3878 180.315 49.438 180.398 49.511 180.458C49.5841 180.517 49.6755 180.55 49.7698 180.55C49.7878 180.551 49.8058 180.551 49.8238 180.55L62.0965 178.914C62.1862 178.902 62.2693 178.86 62.333 178.796C62.3966 178.732 62.4372 178.648 62.4483 178.558L63.2665 172.013C63.2742 171.955 63.2694 171.896 63.2523 171.84C63.2352 171.784 63.2063 171.732 63.1675 171.688Z" fill="#FFC107"/>
<path d="M51.4062 178.914C51.3093 178.914 51.2156 178.879 51.1418 178.817C51.0679 178.754 51.0187 178.667 51.0028 178.572L50.1846 173.662C50.1543 173.439 50.3112 173.233 50.5351 173.202C50.6384 173.188 50.7431 173.214 50.8279 173.275C50.9127 173.335 50.9712 173.426 50.9914 173.528L51.8095 178.437C51.8465 178.66 51.696 178.871 51.4733 178.908C51.4511 178.912 51.4287 178.914 51.4062 178.914ZM53.4516 178.504C53.3492 178.505 53.2504 178.467 53.1746 178.398C53.0989 178.329 53.0517 178.234 53.0425 178.132L52.6334 173.632C52.6123 173.407 52.7774 173.208 53.0024 173.187L53.0057 173.186C53.2307 173.166 53.4296 173.332 53.45 173.557L53.8591 178.057C53.8794 178.282 53.7135 178.481 53.4885 178.501H53.4884L53.4516 178.504ZM55.4971 178.095C55.2711 178.095 55.088 177.912 55.088 177.686V173.595C55.088 173.369 55.2711 173.186 55.4971 173.186C55.723 173.186 55.9062 173.369 55.9062 173.595V177.686C55.9062 177.912 55.723 178.095 55.4971 178.095ZM57.5425 177.686H57.4967C57.272 177.663 57.1092 177.461 57.133 177.236L57.1334 177.232L57.5425 173.55C57.5691 173.325 57.7712 173.163 57.9966 173.186C58.2212 173.211 58.3831 173.413 58.3583 173.638L57.9492 177.32C57.9386 177.42 57.8913 177.513 57.8162 177.581C57.7411 177.649 57.6436 177.686 57.5425 177.686ZM59.588 177.277C59.5259 177.277 59.4645 177.263 59.4087 177.236C59.3528 177.208 59.3039 177.169 59.2657 177.12C59.2274 177.071 59.2009 177.014 59.1879 176.953C59.175 176.892 59.1761 176.829 59.1912 176.769L60.0093 173.496C60.0589 173.276 60.2778 173.137 60.4982 173.187C60.7187 173.237 60.8571 173.456 60.8076 173.676C60.8062 173.682 60.8046 173.688 60.803 173.694L59.9848 176.967C59.9627 177.056 59.9117 177.134 59.8398 177.19C59.7679 177.247 59.6792 177.277 59.588 177.277Z" fill="#FAFAFA"/>
<path d="M61.2243 182.186H51.7817C50.4179 182.183 49.2445 181.221 48.9737 179.885L46.9798 169.914H44.8607C44.6348 169.914 44.4516 169.73 44.4516 169.504C44.4516 169.279 44.6348 169.095 44.8607 169.095H47.3152C47.4096 169.095 47.501 169.128 47.574 169.188C47.6471 169.247 47.6973 169.33 47.7161 169.423L49.7763 179.724C49.9694 180.678 50.8075 181.366 51.7817 181.368H61.2243C61.4502 181.368 61.6334 181.551 61.6334 181.777C61.6334 182.003 61.4502 182.186 61.2243 182.186Z" fill="#455A64"/>
<rect x="30.492" y="255.075" width="32.9913" height="32.9913" rx="16.4956" fill="white"/>
<path d="M48.0104 269.014C47.92 269.014 47.8332 268.978 47.7693 268.914C47.7054 268.85 47.6695 268.763 47.6695 268.673V265.264C47.6695 264.631 47.418 264.024 46.9705 263.576C46.523 263.129 45.916 262.877 45.2831 262.877C44.6502 262.877 44.0432 263.129 43.5957 263.576C43.1482 264.024 42.8968 264.631 42.8968 265.264V268.673C42.8968 268.763 42.8608 268.85 42.7969 268.914C42.733 268.978 42.6463 269.014 42.5558 269.014C42.4654 269.014 42.3787 268.978 42.3148 268.914C42.2509 268.85 42.2149 268.763 42.2149 268.673V265.264C42.2149 264.45 42.5382 263.67 43.1136 263.094C43.689 262.519 44.4694 262.196 45.2831 262.196C46.0968 262.196 46.8772 262.519 47.4526 263.094C48.028 263.67 48.3513 264.45 48.3513 265.264V268.673C48.3513 268.763 48.3154 268.85 48.2514 268.914C48.1875 268.978 48.1008 269.014 48.0104 269.014Z" fill="#DADCDE"/>
<path d="M48.6922 280.946H37.1013L37.7831 267.309H48.0103L48.6922 280.946Z" fill="#EB423F"/>
<path d="M51.4194 280.946H48.6922L48.0103 267.309H50.7376L51.4194 280.946Z" fill="#D13330"/>
<path d="M50.0758 279.241C50.069 279.241 50.0622 279.241 50.0554 279.241C49.9685 279.241 49.8849 279.208 49.8217 279.148C49.7585 279.088 49.7204 279.007 49.7153 278.92L49.0335 267.329C49.0331 267.322 49.0331 267.316 49.0331 267.309H49.7157L50.3963 278.88C50.4016 278.97 50.3708 279.059 50.3107 279.127C50.2506 279.194 50.1661 279.235 50.0758 279.241Z" fill="#A82A27"/>
<path d="M56.874 280.946H54.1467L54.1041 280.395V280.394L53.4649 272.082H56.1922L56.8207 280.251V280.251L56.874 280.946Z" fill="#EBA72E"/>
<path d="M55.5445 279.239C55.533 279.241 55.5215 279.241 55.5099 279.241C55.4255 279.241 55.3441 279.209 55.2815 279.153C55.2189 279.096 55.1796 279.018 55.1712 278.934L55.1588 278.812L54.4894 272.116C54.4881 272.105 54.4876 272.093 54.4876 272.082H55.1712L55.8411 278.781L55.8496 278.866C55.8541 278.911 55.8497 278.956 55.8368 278.998C55.8239 279.041 55.8027 279.081 55.7743 279.116C55.746 279.151 55.7111 279.179 55.6717 279.2C55.6322 279.222 55.589 279.235 55.5445 279.239Z" fill="#E09F2C"/>
<path d="M56.874 280.945H56.4641L55.5104 279.515L54.5567 280.945H54.1467L54.1041 280.394V280.394L55.1588 278.812L55.2266 278.711C55.2578 278.664 55.3 278.626 55.3495 278.599C55.399 278.573 55.4542 278.559 55.5104 278.559C55.5665 278.559 55.6218 278.573 55.6713 278.599C55.7208 278.626 55.763 278.664 55.7942 278.711L55.8411 278.781L56.8207 280.25V280.251L56.874 280.945Z" fill="#E09F2C"/>
<path d="M54.1468 280.946H45.2831L45.965 272.082H53.4649L54.1468 280.946Z" fill="#F7B030"/>
<path d="M50.0558 278.559H49.374C48.9221 278.559 48.4888 278.379 48.1692 278.059C47.8497 277.74 47.6699 277.307 47.6694 276.855V274.127C47.6694 274.037 47.7054 273.95 47.7693 273.886C47.8332 273.822 47.9199 273.786 48.0103 273.786C48.1008 273.786 48.1875 273.822 48.2514 273.886C48.3153 273.95 48.3512 274.037 48.3512 274.127V276.855C48.3516 277.126 48.4594 277.386 48.6511 277.577C48.8429 277.769 49.1028 277.877 49.374 277.877H50.0558C50.3269 277.877 50.5869 277.769 50.7786 277.577C50.9704 277.386 51.0782 277.126 51.0785 276.855V274.127C51.0785 274.037 51.1144 273.95 51.1784 273.886C51.2423 273.822 51.329 273.786 51.4194 273.786C51.5098 273.786 51.5965 273.822 51.6605 273.886C51.7244 273.95 51.7603 274.037 51.7603 274.127V276.855C51.7598 277.307 51.5801 277.74 51.2605 278.059C50.941 278.379 50.5077 278.559 50.0558 278.559Z" fill="#E9EEF2"/>
<path d="M40.1694 268.673H40.8512V270.718H40.1694V268.673Z" fill="#DADCDE"/>
<path d="M40.5103 269.014C40.4199 269.014 40.3332 268.978 40.2693 268.914C40.2054 268.85 40.1694 268.763 40.1694 268.673V265.264C40.1694 264.45 40.4927 263.67 41.0681 263.094C41.6435 262.519 42.4239 262.196 43.2376 262.196C44.0513 262.196 44.8317 262.519 45.4071 263.094C45.9825 263.67 46.3058 264.45 46.3058 265.264V268.673C46.3058 268.763 46.2699 268.85 46.2059 268.914C46.142 268.978 46.0553 269.014 45.9649 269.014C45.8745 269.014 45.7877 268.978 45.7238 268.914C45.6599 268.85 45.624 268.763 45.624 268.673V265.264C45.624 264.631 45.3725 264.024 44.925 263.576C44.4775 263.129 43.8705 262.877 43.2376 262.877C42.6047 262.877 41.9977 263.129 41.5502 263.576C41.1027 264.024 40.8512 264.631 40.8512 265.264V268.673C40.8512 268.763 40.8153 268.85 40.7514 268.914C40.6875 268.978 40.6008 269.014 40.5103 269.014Z" fill="#E9EEF2"/>
<path d="M41.5331 273.446H39.4876V270.718L40.5104 270.036L41.5331 270.718V273.446Z" fill="#F7B030"/>
<rect x="76.5422" y="324.494" width="32.9913" height="32.9913" rx="16.4956" fill="white"/>
<path d="M95.042 341.944C96.3062 341.527 97.393 340.703 98.1172 339.614C98.8413 338.524 99.1581 337.236 99.0136 335.968C98.869 334.701 98.272 333.532 97.3244 332.662C96.3767 331.792 95.1369 331.274 93.8164 331.196C92.4958 331.118 91.1761 331.486 90.0821 332.236C88.9882 332.986 88.1877 334.072 87.817 335.309C87.4463 336.547 87.5283 337.858 88.0492 339.021C88.57 340.184 89.4974 341.126 90.6733 341.686L91.3946 340.331C90.5394 339.923 89.8649 339.238 89.4861 338.392C89.1073 337.547 89.0476 336.593 89.3172 335.693C89.5868 334.793 90.169 334.003 90.9646 333.457C91.7602 332.912 92.72 332.645 93.6805 332.701C94.6409 332.758 95.5425 333.135 96.2318 333.768C96.921 334.4 97.3552 335.25 97.4603 336.172C97.5654 337.094 97.335 338.031 96.8084 338.823C96.2817 339.616 95.4913 340.215 94.5719 340.518L95.042 341.944Z" fill="#626262"/>
<path d="M83.5378 336.748H87.856V352.294V352.294C85.4711 352.294 83.5378 350.36 83.5378 347.976V336.748Z" fill="#EA323C"/>
<path d="M102.538 336.748H98.2196V352.294V352.294C100.604 352.294 102.538 350.36 102.538 347.976V336.748Z" fill="#88B621"/>
<path d="M98.2196 336.748H93.0378V352.294H98.2196V336.748Z" fill="#F5AE03"/>
<path d="M93.0378 336.748H87.856V352.294H93.0378V336.748Z" fill="#0064D1"/>
<defs>
<filter id="filter0_d_2014_2" x="60.2993" y="114.991" width="246.805" height="246.805" filterUnits="userSpaceOnUse" color-interpolation-filters="sRGB">
<feFlood flood-opacity="0" result="BackgroundImageFix"/>
<feColorMatrix in="SourceAlpha" type="matrix" values="0 0 0 0 0 0 0 0 0 0 0 0 0 0 0 0 0 0 127 0" result="hardAlpha"/>
<feMorphology radius="22" operator="erode" in="SourceAlpha" result="effect1_dropShadow_2014_2"/>
<feOffset dx="2" dy="6"/>
<feGaussianBlur stdDeviation="53.8"/>
<feComposite in2="hardAlpha" operator="out"/>
<feColorMatrix type="matrix" values="0 0 0 0 0.375 0 0 0 0 0.375 0 0 0 0 0.375 0 0 0 1 0"/>
<feBlend mode="normal" in2="BackgroundImageFix" result="effect1_dropShadow_2014_2"/>
<feBlend mode="normal" in="SourceGraphic" in2="effect1_dropShadow_2014_2" result="shape"/>
</filter>
<filter id="filter1_d_2014_2" x="75.7966" y="0.0215225" width="238.932" height="238.932" filterUnits="userSpaceOnUse" color-interpolation-filters="sRGB">
<feFlood flood-opacity="0" result="BackgroundImageFix"/>
<feColorMatrix in="SourceAlpha" type="matrix" values="0 0 0 0 0 0 0 0 0 0 0 0 0 0 0 0 0 0 127 0" result="hardAlpha"/>
<feMorphology radius="6" operator="dilate" in="SourceAlpha" result="effect1_dropShadow_2014_2"/>
<feOffset dx="6" dy="6"/>
<feGaussianBlur stdDeviation="39.55"/>
<feComposite in2="hardAlpha" operator="out"/>
<feColorMatrix type="matrix" values="0 0 0 0 0 0 0 0 0 0 0 0 0 0 0 0 0 0 0.5 0"/>
<feBlend mode="normal" in2="BackgroundImageFix" result="effect1_dropShadow_2014_2"/>
<feBlend mode="normal" in="SourceGraphic" in2="effect1_dropShadow_2014_2" result="shape"/>
</filter>
<filter id="filter2_d_2014_2" x="169.022" y="51.2542" width="238.932" height="238.932" filterUnits="userSpaceOnUse" color-interpolation-filters="sRGB">
<feFlood flood-opacity="0" result="BackgroundImageFix"/>
<feColorMatrix in="SourceAlpha" type="matrix" values="0 0 0 0 0 0 0 0 0 0 0 0 0 0 0 0 0 0 127 0" result="hardAlpha"/>
<feMorphology radius="6" operator="dilate" in="SourceAlpha" result="effect1_dropShadow_2014_2"/>
<feOffset dx="6" dy="6"/>
<feGaussianBlur stdDeviation="39.55"/>
<feComposite in2="hardAlpha" operator="out"/>
<feColorMatrix type="matrix" values="0 0 0 0 0 0 0 0 0 0 0 0 0 0 0 0 0 0 0.5 0"/>
<feBlend mode="normal" in2="BackgroundImageFix" result="effect1_dropShadow_2014_2"/>
<feBlend mode="normal" in="SourceGraphic" in2="effect1_dropShadow_2014_2" result="shape"/>
</filter>
<filter id="filter3_d_2014_2" x="176.582" y="161.225" width="238.932" height="238.932" filterUnits="userSpaceOnUse" color-interpolation-filters="sRGB">
<feFlood flood-opacity="0" result="BackgroundImageFix"/>
<feColorMatrix in="SourceAlpha" type="matrix" values="0 0 0 0 0 0 0 0 0 0 0 0 0 0 0 0 0 0 127 0" result="hardAlpha"/>
<feMorphology radius="6" operator="dilate" in="SourceAlpha" result="effect1_dropShadow_2014_2"/>
<feOffset dx="6" dy="6"/>
<feGaussianBlur stdDeviation="39.55"/>
<feComposite in2="hardAlpha" operator="out"/>
<feColorMatrix type="matrix" values="0 0 0 0 0 0 0 0 0 0 0 0 0 0 0 0 0 0 0.5 0"/>
<feBlend mode="normal" in2="BackgroundImageFix" result="effect1_dropShadow_2014_2"/>
<feBlend mode="normal" in="SourceGraphic" in2="effect1_dropShadow_2014_2" result="shape"/>
</filter>
<filter id="filter4_d_2014_2" x="101.665" y="229.957" width="238.932" height="238.932" filterUnits="userSpaceOnUse" color-interpolation-filters="sRGB">
<feFlood flood-opacity="0" result="BackgroundImageFix"/>
<feColorMatrix in="SourceAlpha" type="matrix" values="0 0 0 0 0 0 0 0 0 0 0 0 0 0 0 0 0 0 127 0" result="hardAlpha"/>
<feMorphology radius="6" operator="dilate" in="SourceAlpha" result="effect1_dropShadow_2014_2"/>
<feOffset dx="6" dy="6"/>
<feGaussianBlur stdDeviation="39.55"/>
<feComposite in2="hardAlpha" operator="out"/>
<feColorMatrix type="matrix" values="0 0 0 0 0 0 0 0 0 0 0 0 0 0 0 0 0 0 0.5 0"/>
<feBlend mode="normal" in2="BackgroundImageFix" result="effect1_dropShadow_2014_2"/>
<feBlend mode="normal" in="SourceGraphic" in2="effect1_dropShadow_2014_2" result="shape"/>
</filter>
<clipPath id="clip0_2014_2">
<rect width="66" height="48" fill="white" transform="translate(257.048 250.691)"/>
</clipPath>
<clipPath id="clip1_2014_2">
<rect width="42" height="48" fill="white" transform="translate(194.131 319.423)"/>
</clipPath>
</defs>
</svg>
