<svg width="198" height="39" viewBox="0 0 198 39" fill="none" xmlns="http://www.w3.org/2000/svg">
<path d="M7.86887 19.2243C7.33171 11.1832 14.9564 9.17297 18.8358 9.17297L25.9979 1.57863C17.9405 -1.28042 11.5992 0.38736 9.43557 1.57863C1.19917 5.33113 -0.263089 13.268 0.0353312 16.7673C0.75154 26.774 10.48 29.4246 15.2548 29.499C9.5251 27.3548 7.94347 21.7558 7.86887 19.2243Z" fill="url(#paint0_linear_139_21)"/>
<path d="M27.7305 19.7757C28.2678 27.8168 20.6431 29.827 16.7636 29.827L9.60156 37.4213C17.6589 40.2804 24.0003 38.6126 26.1639 37.4213C34.4003 33.6688 35.8625 25.732 35.5641 22.2327C34.848 12.2259 25.1194 9.57542 20.3447 9.50098C26.0744 11.6452 27.656 17.2442 27.7305 19.7757Z" fill="url(#paint1_linear_139_21)"/>
<path d="M17.6818 30.8241C23.7387 30.8241 28.6487 25.924 28.6487 19.8794C28.6487 13.8347 23.7387 8.93457 17.6818 8.93457C11.6249 8.93457 6.71484 13.8347 6.71484 19.8794C6.71484 25.924 11.6249 30.8241 17.6818 30.8241Z" fill="white"/>
<path d="M17.8335 27.6354C22.1599 27.6354 25.6671 24.1353 25.6671 19.8177C25.6671 15.5001 22.1599 12 17.8335 12C13.5072 12 10 15.5001 10 19.8177C10 24.1353 13.5072 27.6354 17.8335 27.6354Z" fill="#4917C7"/>
<path d="M13 23V20.3913L15 19V23H13Z" fill="white"/>
<path d="M16 23.01V18.1038L18 16.65V23.01H16Z" fill="white"/>
<path d="M19 23.02V15.9827L21 14.9V23.02H19Z" fill="white"/>
<path d="M47.3064 24.0153C45.969 24.0153 44.7706 23.7986 43.7111 23.3653C42.6517 22.932 41.8006 22.2906 41.158 21.4413C40.5327 20.592 40.2027 19.5693 40.168 18.3733H44.9095C44.979 19.0493 45.2135 19.5693 45.613 19.9333C46.0124 20.28 46.5335 20.4533 47.1761 20.4533C47.8361 20.4533 48.3572 20.306 48.7393 20.0113C49.1214 19.6993 49.3124 19.2746 49.3124 18.7373C49.3124 18.2866 49.1561 17.914 48.8435 17.6193C48.5482 17.3246 48.1748 17.082 47.7232 16.8913C47.289 16.7006 46.6638 16.484 45.8474 16.2413C44.6664 15.8773 43.7024 15.5133 42.9556 15.1493C42.2088 14.7853 41.5661 14.248 41.0277 13.5373C40.4893 12.8266 40.2201 11.8993 40.2201 10.7553C40.2201 9.05662 40.8367 7.73062 42.0698 6.77729C43.303 5.80662 44.9095 5.32129 46.8895 5.32129C48.9043 5.32129 50.5282 5.80662 51.7614 6.77729C52.9945 7.73062 53.6545 9.06529 53.7414 10.7813H48.9217C48.8869 10.192 48.6698 9.73262 48.2703 9.40329C47.8709 9.05662 47.3585 8.88329 46.7332 8.88329C46.1948 8.88329 45.7606 9.03062 45.4306 9.32529C45.1006 9.60262 44.9356 10.01 44.9356 10.5473C44.9356 11.1366 45.2135 11.596 45.7693 11.9253C46.3251 12.2546 47.1935 12.61 48.3745 12.9913C49.5556 13.39 50.5109 13.7713 51.2403 14.1353C51.9872 14.4993 52.6298 15.028 53.1682 15.7213C53.7067 16.4146 53.9759 17.3073 53.9759 18.3993C53.9759 19.4393 53.7067 20.384 53.1682 21.2333C52.6472 22.0826 51.883 22.7586 50.8756 23.2613C49.8682 23.764 48.6785 24.0153 47.3064 24.0153ZM61.3548 5.58129V16.5013C61.3548 17.5933 61.624 18.434 62.1625 19.0233C62.7009 19.6126 63.4912 19.9073 64.5333 19.9073C65.5754 19.9073 66.3743 19.6126 66.9301 19.0233C67.4859 18.434 67.7638 17.5933 67.7638 16.5013V5.58129H72.2188V16.4753C72.2188 18.1046 71.8714 19.4826 71.1767 20.6093C70.4819 21.736 69.544 22.5853 68.363 23.1573C67.1993 23.7293 65.8967 24.0153 64.4551 24.0153C63.0135 24.0153 61.7196 23.738 60.5733 23.1833C59.4443 22.6113 58.5498 21.762 57.8898 20.6353C57.2298 19.4913 56.8998 18.1046 56.8998 16.4753V5.58129H61.3548ZM84.9345 23.8333L81.1308 16.9433H80.0626V23.8333H75.6076V5.58129H83.0847C84.5263 5.58129 85.7508 5.83262 86.7582 6.33529C87.783 6.83796 88.5472 7.53129 89.0509 8.41529C89.5546 9.28196 89.8064 10.2526 89.8064 11.3273C89.8064 12.5406 89.459 13.624 88.7643 14.5773C88.0869 15.5306 87.0796 16.2066 85.7421 16.6053L89.9627 23.8333H84.9345ZM80.0626 13.7973H82.8242C83.6405 13.7973 84.2484 13.598 84.6479 13.1993C85.0647 12.8006 85.2732 12.2373 85.2732 11.5093C85.2732 10.816 85.0647 10.27 84.6479 9.87129C84.2484 9.47262 83.6405 9.27329 82.8242 9.27329H80.0626V13.7973ZM97.3182 9.14329V12.8353H103.284V16.2673H97.3182V20.2713H104.066V23.8333H92.8632V5.58129H104.066V9.14329H97.3182Z" fill="url(#paint2_linear_139_21)"/>
<path d="M119.617 24.0153C118.28 24.0153 117.081 23.7986 116.022 23.3653C114.962 22.932 114.111 22.2906 113.469 21.4413C112.843 20.592 112.513 19.5693 112.479 18.3733H117.22C117.29 19.0493 117.524 19.5693 117.924 19.9333C118.323 20.28 118.844 20.4533 119.487 20.4533C120.147 20.4533 120.668 20.306 121.05 20.0113C121.432 19.6993 121.623 19.2746 121.623 18.7373C121.623 18.2866 121.467 17.914 121.154 17.6193C120.859 17.3246 120.485 17.082 120.034 16.8913C119.6 16.7006 118.974 16.484 118.158 16.2413C116.977 15.8773 116.013 15.5133 115.266 15.1493C114.519 14.7853 113.877 14.248 113.338 13.5373C112.8 12.8266 112.531 11.8993 112.531 10.7553C112.531 9.05662 113.147 7.73062 114.38 6.77729C115.614 5.80662 117.22 5.32129 119.2 5.32129C121.215 5.32129 122.839 5.80662 124.072 6.77729C125.305 7.73062 125.965 9.06529 126.052 10.7813H121.232C121.197 10.192 120.98 9.73262 120.581 9.40329C120.181 9.05662 119.669 8.88329 119.044 8.88329C118.505 8.88329 118.071 9.03062 117.741 9.32529C117.411 9.60262 117.246 10.01 117.246 10.5473C117.246 11.1366 117.524 11.596 118.08 11.9253C118.636 12.2546 119.504 12.61 120.685 12.9913C121.866 13.39 122.821 13.7713 123.551 14.1353C124.298 14.4993 124.94 15.028 125.479 15.7213C126.017 16.4146 126.286 17.3073 126.286 18.3993C126.286 19.4393 126.017 20.384 125.479 21.2333C124.958 22.0826 124.194 22.7586 123.186 23.2613C122.179 23.764 120.989 24.0153 119.617 24.0153ZM128.533 14.6813C128.533 12.8786 128.924 11.2753 129.705 9.87129C130.487 8.44996 131.572 7.34929 132.962 6.56929C134.369 5.77196 135.958 5.37329 137.73 5.37329C139.901 5.37329 141.759 5.94529 143.305 7.08929C144.851 8.23329 145.884 9.79329 146.405 11.7693H141.507C141.142 11.0066 140.621 10.426 139.944 10.0273C139.284 9.62862 138.529 9.42929 137.677 9.42929C136.305 9.42929 135.194 9.90596 134.343 10.8593C133.492 11.8126 133.066 13.0866 133.066 14.6813C133.066 16.276 133.492 17.55 134.343 18.5033C135.194 19.4566 136.305 19.9333 137.677 19.9333C138.529 19.9333 139.284 19.734 139.944 19.3353C140.621 18.9366 141.142 18.356 141.507 17.5933H146.405C145.884 19.5693 144.851 21.1293 143.305 22.2733C141.759 23.4 139.901 23.9633 137.73 23.9633C135.958 23.9633 134.369 23.5733 132.962 22.7933C131.572 21.996 130.487 20.8953 129.705 19.4913C128.924 18.0873 128.533 16.484 128.533 14.6813ZM160.779 20.6093H153.953L152.859 23.8333H148.196L154.813 5.58129H159.972L166.589 23.8333H161.873L160.779 20.6093ZM159.633 17.1773L157.366 10.4953L155.126 17.1773H159.633ZM173.318 20.4013H179.154V23.8333H168.863V5.58129H173.318V20.4013ZM185.995 9.14329V12.8353H191.961V16.2673H185.995V20.2713H192.742V23.8333H181.54V5.58129H192.742V9.14329H185.995Z" fill="url(#paint3_linear_139_21)"/>
<path d="M46.4068 33.4274C46.0016 33.4274 45.6369 33.358 45.3126 33.2194C44.9884 33.0749 44.7337 32.8727 44.5484 32.6127C44.3632 32.3527 44.2705 32.0494 44.2705 31.7027H45.33C45.3532 31.9627 45.4545 32.1765 45.6339 32.344C45.8192 32.5116 46.0768 32.5954 46.4068 32.5954C46.7485 32.5954 47.0147 32.5145 47.2058 32.3527C47.3968 32.1852 47.4923 31.9714 47.4923 31.7114C47.4923 31.5092 47.4316 31.3445 47.31 31.2174C47.1942 31.0902 47.0466 30.992 46.8671 30.9227C46.6934 30.8534 46.4502 30.7782 46.1376 30.6974C45.744 30.5934 45.4226 30.4894 45.1737 30.3854C44.9305 30.2756 44.7221 30.108 44.5484 29.8827C44.3747 29.6574 44.2879 29.3569 44.2879 28.9814C44.2879 28.6347 44.3747 28.3314 44.5484 28.0714C44.7221 27.8114 44.9652 27.612 45.2779 27.4734C45.5905 27.3347 45.9524 27.2654 46.3634 27.2654C46.9482 27.2654 47.4258 27.4127 47.7963 27.7074C48.1727 27.9962 48.3811 28.3949 48.4216 28.9034H47.3274C47.31 28.6839 47.2058 28.496 47.0147 28.34C46.8237 28.184 46.5718 28.106 46.2592 28.106C45.9756 28.106 45.744 28.1782 45.5645 28.3227C45.385 28.4672 45.2952 28.6752 45.2952 28.9467C45.2952 29.1316 45.3503 29.2847 45.4602 29.406C45.5761 29.5216 45.7208 29.614 45.8945 29.6834C46.0681 29.7527 46.3056 29.8279 46.6066 29.9087C47.006 30.0185 47.3303 30.1282 47.5792 30.238C47.834 30.3479 48.0481 30.5182 48.2218 30.7494C48.4013 30.9747 48.491 31.278 48.491 31.6594C48.491 31.9656 48.4071 32.2545 48.2392 32.526C48.0771 32.7976 47.8369 33.0172 47.5184 33.1847C47.2058 33.3465 46.8353 33.4274 46.4068 33.4274ZM65.1779 33.4274C64.6163 33.4274 64.0982 33.2974 63.6234 33.0374C63.1545 32.7716 62.7811 32.4047 62.5032 31.9367C62.2311 31.4629 62.095 30.9314 62.095 30.342C62.095 29.7527 62.2311 29.224 62.5032 28.756C62.7811 28.288 63.1545 27.924 63.6234 27.664C64.0982 27.3982 64.6163 27.2654 65.1779 27.2654C65.7453 27.2654 66.2634 27.3982 66.7324 27.664C67.2072 27.924 67.5806 28.288 67.8527 28.756C68.1247 29.224 68.2608 29.7527 68.2608 30.342C68.2608 30.9314 68.1247 31.4629 67.8527 31.9367C67.5806 32.4047 67.2072 32.7716 66.7324 33.0374C66.2634 33.2974 65.7453 33.4274 65.1779 33.4274ZM65.1779 32.5694C65.5774 32.5694 65.9334 32.4799 66.2461 32.3007C66.5587 32.1159 66.8019 31.8559 66.9756 31.5207C67.1551 31.1799 67.2448 30.7869 67.2448 30.342C67.2448 29.8972 67.1551 29.5072 66.9756 29.172C66.8019 28.8369 66.5587 28.5799 66.2461 28.4007C65.9334 28.2216 65.5774 28.132 65.1779 28.132C64.7784 28.132 64.4224 28.2216 64.1098 28.4007C63.7971 28.5799 63.5511 28.8369 63.3716 29.172C63.1979 29.5072 63.1111 29.8972 63.1111 30.342C63.1111 30.7869 63.1979 31.1799 63.3716 31.5207C63.5511 31.8559 63.7971 32.1159 64.1098 32.3007C64.4224 32.4799 64.7784 32.5694 65.1779 32.5694ZM82.9908 32.5694H85.0316V33.3667H82.0008V27.3434H82.9908V32.5694ZM99.6066 27.3434V31.1827C99.6066 31.6392 99.7256 31.9829 99.9627 32.214C100.206 32.4452 100.542 32.5607 100.97 32.5607C101.404 32.5607 101.74 32.4452 101.977 32.214C102.221 31.9829 102.342 31.6392 102.342 31.1827V27.3434H103.332V31.1654C103.332 31.6565 103.225 32.0725 103.011 32.4134C102.796 32.7542 102.51 33.0085 102.151 33.176C101.792 33.3436 101.396 33.4274 100.961 33.4274C100.527 33.4274 100.13 33.3436 99.7716 33.176C99.4182 33.0085 99.1377 32.7542 98.9293 32.4134C98.7209 32.0725 98.6166 31.6565 98.6166 31.1654V27.3434H99.6066ZM121.286 27.3434V28.1494H119.679V33.3667H118.689V28.1494H117.074V27.3434H121.286ZM136.045 27.3434V33.3667H135.055V27.3434H136.045ZM152.863 33.4274C152.302 33.4274 151.783 33.2974 151.308 33.0374C150.839 32.7716 150.466 32.4047 150.188 31.9367C149.916 31.4629 149.78 30.9314 149.78 30.342C149.78 29.7527 149.916 29.224 150.188 28.756C150.466 28.288 150.839 27.924 151.308 27.664C151.783 27.3982 152.302 27.2654 152.863 27.2654C153.431 27.2654 153.948 27.3982 154.417 27.664C154.892 27.924 155.265 28.288 155.537 28.756C155.81 29.224 155.945 29.7527 155.945 30.342C155.945 30.9314 155.81 31.4629 155.537 31.9367C155.265 32.4047 154.892 32.7716 154.417 33.0374C153.948 33.2974 153.431 33.4274 152.863 33.4274ZM152.863 32.5694C153.262 32.5694 153.618 32.4799 153.931 32.3007C154.243 32.1159 154.487 31.8559 154.66 31.5207C154.84 31.1799 154.929 30.7869 154.929 30.342C154.929 29.8972 154.84 29.5072 154.66 29.172C154.487 28.8369 154.243 28.5799 153.931 28.4007C153.618 28.2216 153.262 28.132 152.863 28.132C152.463 28.132 152.107 28.2216 151.794 28.4007C151.482 28.5799 151.236 28.8369 151.056 29.172C150.883 29.5072 150.796 29.8972 150.796 30.342C150.796 30.7869 150.883 31.1799 151.056 31.5207C151.236 31.8559 151.482 32.1159 151.794 32.3007C152.107 32.4799 152.463 32.5694 152.863 32.5694ZM174.644 33.3667H173.654L170.676 28.8687V33.3667H169.686V27.3347H170.676L173.654 31.824V27.3347H174.644V33.3667ZM190.699 33.4274C190.294 33.4274 189.929 33.358 189.605 33.2194C189.281 33.0749 189.026 32.8727 188.84 32.6127C188.655 32.3527 188.562 32.0494 188.562 31.7027H189.622C189.645 31.9627 189.747 32.1765 189.926 32.344C190.112 32.5116 190.369 32.5954 190.699 32.5954C191.041 32.5954 191.307 32.5145 191.498 32.3527C191.689 32.1852 191.784 31.9714 191.784 31.7114C191.784 31.5092 191.724 31.3445 191.602 31.2174C191.486 31.0902 191.339 30.992 191.159 30.9227C190.985 30.8534 190.742 30.7782 190.43 30.6974C190.036 30.5934 189.715 30.4894 189.466 30.3854C189.222 30.2756 189.014 30.108 188.84 29.8827C188.667 29.6574 188.58 29.3569 188.58 28.9814C188.58 28.6347 188.667 28.3314 188.84 28.0714C189.014 27.8114 189.257 27.612 189.57 27.4734C189.882 27.3347 190.245 27.2654 190.655 27.2654C191.241 27.2654 191.718 27.4127 192.088 27.7074C192.465 27.9962 192.674 28.3949 192.714 28.9034H191.619C191.602 28.6839 191.498 28.496 191.307 28.34C191.116 28.184 190.864 28.106 190.551 28.106C190.268 28.106 190.036 28.1782 189.856 28.3227C189.678 28.4672 189.587 28.6752 189.587 28.9467C189.587 29.1316 189.643 29.2847 189.752 29.406C189.869 29.5216 190.013 29.614 190.186 29.6834C190.36 29.7527 190.598 29.8279 190.899 29.9087C191.298 30.0185 191.623 30.1282 191.871 30.238C192.126 30.3479 192.34 30.5182 192.514 30.7494C192.694 30.9747 192.783 31.278 192.783 31.6594C192.783 31.9656 192.7 32.2545 192.531 32.526C192.37 32.7976 192.129 33.0172 191.81 33.1847C191.498 33.3465 191.128 33.4274 190.699 33.4274Z" fill="#6C6A6A"/>
<defs>
<linearGradient id="paint0_linear_139_21" x1="4.70765" y1="29.499" x2="21.2393" y2="-0.0285303" gradientUnits="userSpaceOnUse">
<stop stop-color="#2E77E4"/>
<stop offset="1" stop-color="#4917C7"/>
</linearGradient>
<linearGradient id="paint1_linear_139_21" x1="18.8837" y1="39" x2="26.3781" y2="9.51643" gradientUnits="userSpaceOnUse">
<stop stop-color="#2C7DE6"/>
<stop offset="1" stop-color="#4B11C5"/>
</linearGradient>
<linearGradient id="paint2_linear_139_21" x1="39.0738" y1="14.7333" x2="197.995" y2="14.7333" gradientUnits="userSpaceOnUse">
<stop stop-color="#2A3FCC"/>
<stop offset="1" stop-color="#5A40FF"/>
</linearGradient>
<linearGradient id="paint3_linear_139_21" x1="39.0731" y1="14.7333" x2="197.995" y2="14.7333" gradientUnits="userSpaceOnUse">
<stop/>
<stop offset="1"/>
</linearGradient>
</defs>
</svg>
