<svg width="20" height="20" viewBox="0 0 20 20" fill="none" xmlns="http://www.w3.org/2000/svg">
<path d="M19.4692 7.13819L13.3206 6.19899L10.5647 0.328763C10.3588 -0.109588 9.63963 -0.109588 9.43379 0.328763L6.67869 6.19899L0.530119 7.13819C0.416595 7.15563 0.310072 7.20401 0.222246 7.27803C0.134419 7.35204 0.0686856 7.44883 0.0322619 7.55775C-0.00416179 7.66668 -0.0098669 7.78354 0.015773 7.89549C0.0414129 8.00745 0.0974063 8.11018 0.177605 8.19239L4.64444 12.7709L3.58857 19.2437C3.56972 19.3594 3.58381 19.4781 3.62925 19.5863C3.67469 19.6944 3.74963 19.7875 3.84551 19.8551C3.9414 19.9226 4.05435 19.9618 4.17146 19.9682C4.28857 19.9746 4.40512 19.9479 4.50777 19.8912L9.99965 16.8561L15.4915 19.892C15.5942 19.9487 15.7107 19.9754 15.8278 19.9691C15.9449 19.9627 16.0579 19.9235 16.1538 19.8559C16.2497 19.7884 16.3246 19.6952 16.37 19.5871C16.4155 19.479 16.4296 19.3602 16.4107 19.2445L15.3549 12.7717L19.8217 8.19323C19.9021 8.11104 19.9583 8.00824 19.9841 7.89617C20.0099 7.78409 20.0042 7.66708 19.9678 7.558C19.9313 7.44893 19.8655 7.35202 19.7775 7.27795C19.6896 7.20388 19.5829 7.15552 19.4692 7.13819Z" fill="#2A3FCC"/>
</svg>
