<svg width="60" height="60" viewBox="0 0 60 60" fill="none" xmlns="http://www.w3.org/2000/svg">
<path d="M50.0852 50.1262L42.7341 14.7416C42.5267 13.7436 41.9518 12.9451 41.0714 12.4319L30.5734 6.31319C29.2663 5.55136 27.6668 4.82702 25.711 5.23307C25.5694 5.26282 25.429 5.29816 25.2902 5.33901C24.9552 4.88566 24.5871 4.45776 24.1888 4.05886C22.4838 2.35401 20.3511 1.26804 18.1833 1.00097C15.9291 0.723465 13.9034 1.35499 12.4789 2.77952C11.0542 4.20405 10.4226 6.22999 10.7003 8.48397C10.9451 10.4708 11.8795 12.4271 13.3461 14.0526L11.014 16.1503C10.2473 16.84 9.84191 17.7498 9.84191 18.7814L9.8418 55.524C9.8418 57.4754 11.4293 59.0629 13.3807 59.0629L36.2293 59.063C38.0729 59.063 39.5909 57.6458 39.753 55.8437L47.3731 54.2606C49.2606 53.8685 50.4771 52.0139 50.0852 50.1262ZM12.5613 8.25475C12.3557 6.58636 12.7974 5.11272 13.8047 4.10526C14.8121 3.09804 16.285 2.65636 17.9541 2.8619C19.7089 3.07811 21.4521 3.97401 22.8627 5.38472C23.0552 5.57757 23.2394 5.77841 23.415 5.98671C22.0915 6.3269 21.06 7.11382 20.1988 7.88854L14.7398 12.7991C13.5285 11.4581 12.7592 9.86175 12.5613 8.25475ZM37.8931 55.5242C37.8931 56.4417 37.1467 57.1882 36.2293 57.1882L13.3807 57.188C12.4633 57.188 11.7168 56.4415 11.7168 55.5241L11.7169 18.7815C11.7169 18.2825 11.8971 17.8778 12.268 17.5443L21.4526 9.28261C22.6214 8.23143 23.5418 7.75835 24.5636 7.69507C25.1922 8.90983 25.489 10.1844 25.4322 11.3572C24.2615 11.163 23.017 11.5154 22.1158 12.4167C20.6331 13.8994 20.6331 16.3121 22.1159 17.7951C22.8573 18.5366 23.8313 18.9072 24.8051 18.9072C25.7792 18.9072 26.7529 18.5364 27.4942 17.7951C28.2126 17.0769 28.6082 16.1218 28.6082 15.1059C28.6082 14.0901 28.2126 13.135 27.4943 12.4167C27.4074 12.3299 27.3163 12.2474 27.2214 12.1694C27.4008 10.9263 27.2648 9.58811 26.8275 8.27339C27.2454 8.52136 27.6808 8.85382 28.1576 9.28272L37.3422 17.5446C37.7131 17.8782 37.8933 18.2828 37.8933 18.7817L37.8931 55.5242ZM26.7331 15.1058C26.7331 15.6209 26.5326 16.1049 26.1684 16.4692C25.9897 16.6488 25.7773 16.7912 25.5432 16.8882C25.3092 16.9851 25.0583 17.0347 24.805 17.034C24.5187 17.034 24.2429 16.9699 23.9909 16.8522C24.5355 16.5683 25.0335 16.2029 25.4679 15.7687C25.9023 15.3338 26.2673 14.8347 26.55 14.2889C26.6705 14.5444 26.733 14.8233 26.7331 15.1058ZM23.4414 13.7425C23.6441 13.5396 23.8896 13.3847 24.16 13.2889C24.4303 13.1932 24.7187 13.1592 25.0039 13.1894C24.7939 13.6525 24.5086 14.0763 24.1421 14.443C23.7812 14.8039 23.3607 15.0914 22.8884 15.3039C22.8313 14.7465 23.0153 14.1687 23.4414 13.7425ZM46.9918 52.4247L39.768 53.9255L39.7681 18.7815C39.7681 17.75 39.3627 16.8403 38.596 16.1505L29.4113 7.88866C29.3349 7.81995 29.2578 7.75194 29.1802 7.68464C29.3257 7.76128 29.4746 7.84319 29.6291 7.93319L40.1271 14.052C40.5471 14.2967 40.7992 14.647 40.8981 15.123L48.2492 50.5076C48.4311 51.3829 47.867 52.243 46.9918 52.4247ZM26.5895 25.0945C23.7496 25.0945 21.4391 27.4049 21.4391 30.2449C21.4391 32.7645 23.2584 34.866 25.652 35.3082V42.3019H18.8073C18.5587 42.3019 18.3202 42.4007 18.1444 42.5765C17.9686 42.7523 17.8698 42.9908 17.8698 43.2394C17.8698 43.4881 17.9686 43.7265 18.1444 43.9024C18.3202 44.0782 18.5587 44.1769 18.8073 44.1769H25.652V47.8248H18.8073C18.5587 47.8248 18.3202 47.9235 18.1444 48.0993C17.9686 48.2752 17.8698 48.5136 17.8698 48.7623C17.8698 49.0109 17.9686 49.2494 18.1444 49.4252C18.3202 49.601 18.5587 49.6998 18.8073 49.6998H26.5895C26.8382 49.6998 27.0766 49.601 27.2524 49.4252C27.4283 49.2494 27.527 49.0109 27.527 48.7623V35.3082C29.9207 34.8659 31.7399 32.7645 31.7399 30.2449C31.74 27.4048 29.4296 25.0945 26.5895 25.0945ZM26.5895 33.5203C24.7834 33.5203 23.3141 32.051 23.3141 30.2449C23.3141 28.4388 24.7834 26.9695 26.5895 26.9695C28.3956 26.9695 29.8649 28.4388 29.8649 30.2449C29.8649 32.051 28.3957 33.5203 26.5895 33.5203Z" fill="#5A40FF"/>
</svg>
