<svg width="60" height="60" viewBox="0 0 60 60" fill="none" xmlns="http://www.w3.org/2000/svg">
<path d="M58.3452 45.0348L47.1798 24.4511L43.9342 18.4604C43.8651 18.3329 43.7635 18.226 43.6396 18.1507C43.5157 18.0754 43.3741 18.0343 43.2291 18.0317L36.7859 17.9143V14.0035C36.7859 6.3148 30.5308 0.0595703 22.8421 0.0595703C15.1534 0.0595703 8.8982 6.3148 8.8982 14.0035V20.2559H1.85992C1.64273 20.2559 1.43444 20.3422 1.28087 20.4957C1.12729 20.6493 1.04102 20.8576 1.04102 21.0748V57.4628C1.04102 57.68 1.12729 57.8883 1.28087 58.0419C1.43444 58.1954 1.64273 58.2817 1.85992 58.2817H36.4633C37.0796 58.9607 37.8726 59.4614 38.777 59.7296C39.2494 59.8702 39.7397 59.9419 40.2326 59.9424C41.0669 59.9424 41.8916 59.7348 42.643 59.3266L56.3024 51.92C58.7648 50.5819 59.6811 47.493 58.3452 45.0348ZM10.5359 14.0035C10.5359 7.21785 16.0565 1.69738 22.842 1.69738C29.6275 1.69738 35.1481 7.21785 35.1481 14.0035V17.8838L34.5844 17.8732C33.5116 14.6298 31.8196 12.1864 30.1008 11.1538C28.9599 8.26012 26.1373 6.20605 22.842 6.20605C18.5425 6.20605 15.0446 9.70398 15.0446 14.0035V20.2559H10.5359V14.0035ZM32.9724 24.1122L32.9728 24.112C33.3427 23.9111 33.7483 23.7844 34.1668 23.7392C34.2171 24.6882 34.1332 25.4537 33.9063 25.9632C33.8223 26.1608 33.8194 26.3835 33.898 26.5833C33.9767 26.7831 34.1306 26.944 34.3268 27.0314C34.5229 27.1188 34.7455 27.1257 34.9467 27.0505C35.1478 26.9754 35.3114 26.8243 35.4023 26.6297C35.7292 25.8961 35.841 24.9766 35.8192 23.9921C36.4604 24.271 37.017 24.7562 37.3756 25.4167C38.2289 26.9912 37.6422 28.9666 36.0672 29.8202C35.3052 30.2338 34.4273 30.3257 33.5952 30.0786C32.7644 29.8319 32.0799 29.2768 31.6679 28.5153C30.814 26.94 31.3993 24.9647 32.9724 24.1122ZM27.387 20.256H16.6824V14.0036C16.6824 10.6071 19.4457 7.84398 22.8421 7.84398C24.9992 7.84398 26.8997 8.95809 28.0012 10.64C27.8646 10.6591 27.7298 10.6898 27.5984 10.7317C25.1463 11.5282 24.3559 13.7649 25.2497 17.3795C25.3019 17.5904 25.4356 17.7718 25.6216 17.8841C25.8075 17.9963 26.0304 18.03 26.2412 17.9779C26.4521 17.9258 26.6336 17.792 26.7458 17.6061C26.858 17.4201 26.8917 17.1972 26.8396 16.9864C25.9701 13.4698 27.0589 12.629 28.1039 12.2895C28.2923 12.2288 28.5188 12.2424 28.7707 12.3251C28.9261 12.8711 29.0051 13.436 29.0052 14.0036V17.8723C28.8783 17.9398 28.7714 18.0395 28.6953 18.1614L27.387 20.256ZM30.6379 13.8112C31.414 14.7489 32.2042 16.1014 32.8395 17.8407L30.6428 17.7995V14.0035C30.6428 13.939 30.6395 13.8753 30.6379 13.8112ZM2.67883 21.8938H26.3641L21.5903 29.5375C19.1675 30.1407 17.4283 32.3508 17.4283 34.8664C17.4283 37.6189 19.4608 39.905 22.1028 40.3018V48.661C22.1028 48.8782 22.1891 49.0865 22.3426 49.24C22.4962 49.3936 22.7045 49.4799 22.9217 49.4799C23.1389 49.4799 23.3472 49.3936 23.5007 49.24C23.6543 49.0865 23.7406 48.8782 23.7406 48.661V40.3027C24.5711 40.1809 25.3618 39.8674 26.0502 39.3871L35.4093 56.6439H2.67883V21.8938ZM22.9217 38.7252C20.7957 38.7252 19.0661 36.9941 19.0661 34.8664C19.0661 33.2267 20.1182 31.7714 21.6295 31.2334L24.5922 36.6988L25.262 37.9339C24.5938 38.4475 23.7818 38.7252 22.9217 38.7252ZM55.5211 50.4805L41.8618 57.8871C41.0564 58.3248 40.1263 58.4215 39.2426 58.1594C38.3597 57.8976 37.6335 57.3104 37.1975 56.5056L27.0973 37.8827C27.0641 37.7564 27.001 37.6401 26.9133 37.5434L26.0318 35.9181L23.0136 30.3502L28.5201 21.5332L28.5227 21.5291L29.8383 19.4225L33.3703 19.4886C33.6388 20.4212 33.8424 21.3046 33.9786 22.1124C33.3522 22.1814 32.7452 22.3717 32.1916 22.6727C29.825 23.9556 28.9439 26.9267 30.2276 29.2953C30.8479 30.4414 31.8782 31.2773 33.1289 31.6486C33.5825 31.784 34.0532 31.8529 34.5265 31.8532C35.329 31.8532 36.1234 31.6532 36.8479 31.2599C37.9959 30.6378 38.8326 29.6064 39.2041 28.3559C39.5754 27.1054 39.4375 25.7845 38.815 24.636C38.128 23.3705 36.959 22.5303 35.6582 22.2181C35.5186 21.2832 35.3056 20.3534 35.08 19.5207L36.2869 19.5432L42.7216 19.6605L45.74 25.2317L56.9059 45.8164C57.8109 47.4816 57.1894 49.5741 55.5211 50.4805ZM45.9032 36.6926L42.0576 51.5581C42.0031 51.7683 41.8674 51.9483 41.6803 52.0585C41.4932 52.1687 41.27 52.2001 41.0597 52.1458C40.8495 52.0914 40.6694 51.9557 40.5592 51.7686C40.449 51.5814 40.4177 51.3582 40.472 51.1479L44.3177 36.2825C44.3721 36.0723 44.5078 35.8923 44.695 35.7821C44.8821 35.6719 45.1053 35.6406 45.3155 35.6949C45.4196 35.7218 45.5174 35.7689 45.6033 35.8336C45.6892 35.8983 45.7615 35.9793 45.8161 36.072C45.8707 36.1646 45.9064 36.2671 45.9214 36.3736C45.9363 36.4801 45.9302 36.5885 45.9032 36.6926ZM40.4153 40.8613C39.9815 40.1245 39.2861 39.5999 38.4571 39.3848L38.4552 39.3842C36.7466 38.9448 34.9949 39.9769 34.5509 41.6868C34.1103 43.3956 35.1426 45.1472 36.8534 45.5916C37.1199 45.6603 37.3898 45.6943 37.658 45.6943C38.223 45.6943 38.7802 45.5434 39.28 45.2488C40.0179 44.8138 40.5419 44.1176 40.7546 43.2904C40.9698 42.4614 40.8494 41.5988 40.4153 40.8613ZM39.1689 42.8807C39.1182 43.08 39.0283 43.2673 38.9046 43.4316C38.7809 43.596 38.6258 43.7341 38.4483 43.838C38.2717 43.9429 38.0761 44.0117 37.8728 44.0406C37.6695 44.0694 37.4625 44.0577 37.2637 44.0062C36.4267 43.7887 35.9212 42.9318 36.1364 42.0971C36.3198 41.391 36.9593 40.9207 37.6573 40.9207C37.9295 40.9206 38.1971 40.9917 38.4333 41.127C38.6696 41.2623 38.8663 41.4571 39.0039 41.692C39.2159 42.0521 39.2746 42.4737 39.1689 42.8807ZM49.5234 42.2492L49.5214 42.2486C47.8131 41.8097 46.0618 42.84 45.6169 44.5484C45.1764 46.2609 46.2079 48.0123 47.9147 48.4523C48.1831 48.522 48.4548 48.5564 48.725 48.5564C49.2893 48.5564 49.8459 48.406 50.3452 48.112C51.0834 47.6773 51.6075 46.9817 51.8207 46.155C52.2647 44.4456 51.2342 42.6936 49.5234 42.2492ZM50.2353 45.7446C50.1844 45.9438 50.0944 46.1309 49.9707 46.295C49.8469 46.4591 49.6918 46.5971 49.5143 46.7008C49.337 46.8059 49.1406 46.8747 48.9364 46.9032C48.7322 46.9318 48.5245 46.9194 48.3251 46.8668C47.4909 46.6519 46.9875 45.7948 47.2026 44.9588C47.386 44.2543 48.0251 43.7852 48.723 43.7852C48.8516 43.7852 48.9824 43.8011 49.1126 43.8345C49.9486 44.0522 50.4525 44.9083 50.2353 45.7446Z" fill="#5A40FF"/>
</svg>
