<svg width="48" height="48" viewBox="0 0 48 48" fill="none" xmlns="http://www.w3.org/2000/svg">
<path d="M42.9696 16.1328C42.0806 16.1366 41.2205 16.4487 40.536 17.0159C39.8514 17.5832 39.3849 18.3703 39.216 19.2432H32.1984V15.8832H38.4V8.79355C39.3479 8.65997 40.2117 8.17717 40.8221 7.4398C41.4325 6.70243 41.7455 5.76366 41.6998 4.80751C41.654 3.85136 41.2527 2.94679 40.5747 2.2711C39.8966 1.59541 38.9907 1.19733 38.0344 1.1549C37.0781 1.11247 36.1404 1.42875 35.4052 2.04173C34.6699 2.65471 34.1901 3.5202 34.0599 4.46854C33.9296 5.41688 34.1582 6.37968 34.7009 7.16821C35.2437 7.95674 36.0613 8.51415 36.9936 8.73115V14.4624H31.9968C31.7563 13.8175 31.3068 13.2717 30.72 12.912V11.04C30.72 9.2577 30.012 7.54844 28.7518 6.28819C27.4915 5.02795 25.7823 4.31995 24 4.31995C22.2178 4.31995 20.5085 5.02795 19.2483 6.28819C17.988 7.54844 17.28 9.2577 17.28 11.04V12.912C16.6904 13.2709 16.2376 13.8166 15.9936 14.4624H10.9968V8.73115C11.9211 8.51417 12.7311 7.96004 13.2683 7.17723C13.8054 6.39442 14.0311 5.4393 13.9011 4.49886C13.771 3.55841 13.2947 2.70036 12.5653 2.09267C11.8359 1.48497 10.9059 1.1714 9.95743 1.21334C9.00896 1.25528 8.1103 1.64971 7.43736 2.31941C6.76443 2.98911 6.36567 3.88586 6.31916 4.83411C6.27265 5.78236 6.58173 6.71383 7.1859 7.44617C7.79007 8.17852 8.64582 8.65899 9.58563 8.79355V15.8736H15.8256V19.2336H8.77923C8.60336 18.2928 8.0825 17.4515 7.31873 16.8748C6.55495 16.298 5.60331 16.0272 4.6503 16.1155C3.69729 16.2038 2.81161 16.6449 2.16682 17.3522C1.52203 18.0595 1.16461 18.9821 1.16461 19.9392C1.16461 20.8962 1.52203 21.8188 2.16682 22.5261C2.81161 23.2334 3.69729 23.6745 4.6503 23.7628C5.60331 23.8511 6.55495 23.5803 7.31873 23.0035C8.0825 22.4268 8.60336 21.5855 8.77923 20.6448H15.8016V23.448C15.8029 24.2649 16.128 25.0479 16.7056 25.6256C17.2832 26.2032 18.0663 26.5283 18.8832 26.5296H21.4464V35.7215L20.4864 34.3968C20.2537 34.0714 19.959 33.7953 19.6191 33.5843C19.2793 33.3733 18.901 33.2316 18.5062 33.1674C18.1114 33.1031 17.7078 33.1176 17.3186 33.21C16.9294 33.3023 16.5623 33.4708 16.2384 33.7055C15.5948 34.1781 15.1623 34.8844 15.0339 35.6725C14.9056 36.4606 15.0916 37.2676 15.552 37.9199L21.6 46.4976C21.6638 46.5914 21.7498 46.668 21.8502 46.7208C21.9507 46.7735 22.0626 46.8007 22.176 46.7999H34.4016C34.9132 46.7988 35.4177 46.6796 35.8756 46.4514C36.3335 46.2233 36.7326 45.8925 37.0416 45.4847L38.3232 43.7855C38.7543 43.2125 38.9884 42.5154 38.9904 41.7983V35.2655C38.9892 34.5556 38.7066 33.8751 38.2045 33.373C37.7025 32.871 37.022 32.5884 36.312 32.5871H35.1696C35.0319 31.964 34.6857 31.4065 34.1883 31.0068C33.6908 30.607 33.0718 30.389 32.4336 30.3888H30.7584C30.5108 29.9119 30.1375 29.5119 29.679 29.2319C29.2205 28.9518 28.6941 28.8025 28.1568 28.8H27.0288V26.5392H29.1168C29.9337 26.5379 30.7168 26.2128 31.2944 25.6352C31.8721 25.0575 32.1972 24.2745 32.1984 23.4576V20.64H39.216C39.3459 21.3597 39.6786 22.0275 40.175 22.5646C40.6714 23.1017 41.3109 23.4859 42.0183 23.672C42.7256 23.858 43.4714 23.8382 44.1678 23.6148C44.8643 23.3914 45.4825 22.9738 45.9496 22.411C46.4168 21.8483 46.7135 21.1638 46.8049 20.4381C46.8963 19.7124 46.7786 18.9758 46.4655 18.3147C46.1525 17.6537 45.6572 17.0958 45.0379 16.7067C44.4186 16.3176 43.701 16.1135 42.9696 16.1184V16.1328ZM35.4624 5.01595C35.4624 4.54128 35.6032 4.07726 35.8669 3.68258C36.1306 3.2879 36.5054 2.98029 36.944 2.79864C37.3825 2.61699 37.8651 2.56946 38.3306 2.66207C38.7962 2.75467 39.2238 2.98325 39.5595 3.31889C39.8951 3.65454 40.1237 4.08218 40.2163 4.54773C40.3089 5.01329 40.2614 5.49585 40.0797 5.93439C39.8981 6.37293 39.5905 6.74776 39.1958 7.01148C38.8011 7.27519 38.3371 7.41595 37.8624 7.41595C37.2259 7.41595 36.6155 7.16309 36.1654 6.71301C35.7153 6.26292 35.4624 5.65247 35.4624 5.01595ZM7.72323 5.01595C7.72323 4.54128 7.86399 4.07726 8.1277 3.68258C8.39142 3.2879 8.76624 2.98029 9.20479 2.79864C9.64333 2.61699 10.1259 2.56946 10.5914 2.66207C11.057 2.75467 11.4846 2.98325 11.8203 3.31889C12.1559 3.65454 12.3845 4.08218 12.4771 4.54773C12.5697 5.01329 12.5222 5.49585 12.3405 5.93439C12.1589 6.37293 11.8513 6.74776 11.4566 7.01148C11.0619 7.27519 10.5979 7.41595 10.1232 7.41595C9.48671 7.41595 8.87626 7.16309 8.42617 6.71301C7.97608 6.26292 7.72323 5.65247 7.72323 5.01595ZM5.03043 22.3584C4.55575 22.3584 4.09174 22.2176 3.69706 21.9539C3.30238 21.6902 2.99477 21.3153 2.81312 20.8768C2.63147 20.4382 2.58394 19.9557 2.67654 19.4901C2.76915 19.0246 2.99773 18.5969 3.33337 18.2613C3.66902 17.9256 4.09666 17.6971 4.56221 17.6045C5.02777 17.5119 5.51033 17.5594 5.94887 17.741C6.38741 17.9227 6.76224 18.2303 7.02596 18.625C7.28967 19.0197 7.43043 19.4837 7.43043 19.9584C7.43043 20.5949 7.17757 21.2053 6.72748 21.6554C6.2774 22.1055 5.66695 22.3584 5.03043 22.3584ZM18.72 11.04C18.72 9.63961 19.2763 8.29662 20.2665 7.30643C21.2567 6.31624 22.5997 5.75995 24 5.75995C25.4004 5.75995 26.7434 6.31624 27.7336 7.30643C28.7237 8.29662 29.28 9.63961 29.28 11.04V12.48H18.72V11.04ZM28.1568 30.24C28.5634 30.2412 28.9528 30.4036 29.2398 30.6915C29.5269 30.9794 29.688 31.3694 29.688 31.7759V34.9199H31.0992V32.0399L30.9312 31.8192H32.4336C32.8041 31.8192 33.1594 31.9663 33.4213 32.2283C33.6833 32.4902 33.8304 32.8455 33.8304 33.2159V36.5423H35.2368V33.9984H36.312C36.6481 33.9984 36.9704 34.1319 37.2081 34.3695C37.4457 34.6072 37.5792 34.9295 37.5792 35.2655V41.7983C37.5789 42.2093 37.444 42.6089 37.1952 42.9359L35.9136 44.6399C35.7358 44.8725 35.507 45.0614 35.245 45.192C34.9829 45.3226 34.6944 45.3915 34.4016 45.3935H22.5168L16.704 37.0895C16.4621 36.7403 16.3664 36.3104 16.4372 35.8915C16.5081 35.4727 16.7399 35.0982 17.0832 34.8479C17.2553 34.7213 17.451 34.6306 17.6588 34.5811C17.8666 34.5316 18.0822 34.5244 18.2928 34.5599C18.5044 34.5938 18.7071 34.6694 18.8892 34.7823C19.0713 34.8952 19.2292 35.0431 19.3536 35.2176L21.6 38.3279C21.6884 38.4485 21.8123 38.5383 21.9544 38.5848C22.0964 38.6313 22.2495 38.6321 22.392 38.5871C22.5325 38.5398 22.6544 38.4493 22.7406 38.3287C22.8268 38.2081 22.8727 38.0634 22.872 37.9151V23.2224C22.8609 23.0343 22.8884 22.8459 22.9527 22.6689C23.0171 22.4918 23.1169 22.3297 23.2461 22.1926C23.3754 22.0556 23.5313 21.9463 23.7042 21.8717C23.8772 21.797 24.0636 21.7585 24.252 21.7585C24.4404 21.7585 24.6268 21.797 24.7998 21.8717C24.9728 21.9463 25.1287 22.0556 25.2579 22.1926C25.3871 22.3297 25.487 22.4918 25.5513 22.6689C25.6157 22.8459 25.6431 23.0343 25.632 23.2224V32.8799H27.0432V30.24H28.1568ZM30.7872 23.4672C30.7872 23.9102 30.6112 24.335 30.298 24.6483C29.9847 24.9616 29.5598 25.1376 29.1168 25.1376H27.0288V23.2176C26.999 22.4973 26.6918 21.8165 26.1716 21.3174C25.6515 20.8184 24.9585 20.5397 24.2376 20.5397C23.5168 20.5397 22.8238 20.8184 22.3036 21.3174C21.7834 21.8165 21.4763 22.4973 21.4464 23.2176V25.1376H18.8832C18.4402 25.1376 18.0153 24.9616 17.7021 24.6483C17.3888 24.335 17.2128 23.9102 17.2128 23.4672V15.5472C17.2128 15.1041 17.3888 14.6793 17.7021 14.366C18.0153 14.0527 18.4402 13.8768 18.8832 13.8768H29.1168C29.5598 13.8768 29.9847 14.0527 30.298 14.366C30.6112 14.6793 30.7872 15.1041 30.7872 15.5472V23.4672ZM42.9696 22.368C42.495 22.368 42.0309 22.2272 41.6363 21.9635C41.2416 21.6998 40.934 21.3249 40.7523 20.8864C40.5707 20.4478 40.5231 19.9653 40.6157 19.4997C40.7083 19.0342 40.9369 18.6065 41.2726 18.2709C41.6082 17.9352 42.0359 17.7067 42.5014 17.6141C42.967 17.5215 43.4495 17.569 43.8881 17.7506C44.3266 17.9323 44.7014 18.2399 44.9652 18.6346C45.2289 19.0293 45.3696 19.4933 45.3696 19.968C45.3671 20.6028 45.1131 21.2108 44.6633 21.6588C44.2135 22.1068 43.6045 22.3584 42.9696 22.3584V22.368Z" fill="#FFFDFD"/>
</svg>
