<svg width="48" height="48" viewBox="0 0 48 48" fill="none" xmlns="http://www.w3.org/2000/svg">
<path d="M1.44281 32.0382C1.39014 31.8985 1.39501 31.7437 1.45635 31.6077C1.51769 31.4716 1.63049 31.3655 1.77 31.3125C17.3916 25.3969 29.0831 15.8147 36.5391 2.8219L33.3 3.61409C32.9991 3.68815 32.6934 3.50347 32.6203 3.20159C32.6027 3.12987 32.5993 3.05538 32.6105 2.98237C32.6217 2.90936 32.6472 2.83928 32.6855 2.77614C32.7238 2.713 32.7742 2.65804 32.8338 2.61441C32.8934 2.57079 32.961 2.53935 33.0328 2.5219L37.53 1.42128C37.6708 1.38698 37.8195 1.40827 37.945 1.48073C38.0705 1.55319 38.1633 1.67124 38.2041 1.81034L39.4997 6.25503C39.5241 6.33886 39.5287 6.42724 39.5131 6.51315C39.4975 6.59907 39.4621 6.68017 39.4097 6.75003C39.3573 6.81989 39.2894 6.87659 39.2112 6.91565C39.1331 6.9547 39.047 6.97503 38.9597 6.97503C38.7159 6.97503 38.4919 6.81565 38.4197 6.57003L37.4981 3.41066C33.7369 9.95815 28.9069 15.691 23.1281 20.46C17.2341 25.3247 10.1831 29.3288 2.16844 32.3635C2.10281 32.3878 2.03531 32.4 1.96969 32.4C1.8554 32.4008 1.74362 32.3666 1.64941 32.3019C1.5552 32.2371 1.48309 32.1451 1.44281 32.0382ZM8.49656 37.0782V46.0313C8.49656 46.3416 8.24437 46.5938 7.93406 46.5938H1.96875C1.65844 46.5938 1.40625 46.3416 1.40625 46.0313V37.0782C1.40625 36.7678 1.65844 36.5157 1.96875 36.5157H7.93406C8.24531 36.5157 8.49656 36.7678 8.49656 37.0782ZM7.37156 37.6407H2.53125V45.4688H7.37156V37.6407ZM38.6653 36.9253C38.6653 37.8844 37.8853 38.6653 36.9253 38.6653C35.9653 38.6653 35.1853 37.8853 35.1853 36.9253C35.1853 36.7013 35.2294 36.4885 35.3063 36.2916L34.2937 35.2791C34.0744 35.0597 34.0744 34.7035 34.2937 34.4832C34.5131 34.2638 34.8694 34.2638 35.0897 34.4832L36.0384 35.4319C36.2991 35.2763 36.6019 35.1853 36.9263 35.1853C37.8853 35.1863 38.6653 35.9663 38.6653 36.9253ZM37.5403 36.9253C37.5403 36.586 37.2647 36.3103 36.9253 36.3103C36.5859 36.3103 36.3103 36.586 36.3103 36.9253C36.3103 37.2647 36.5859 37.5403 36.9253 37.5403C37.2647 37.5403 37.5403 37.2647 37.5403 36.9253ZM42.7181 36.9253C42.7181 40.1194 40.1194 42.7182 36.9253 42.7182C33.7312 42.7182 31.1325 40.1194 31.1325 36.9253C31.1325 33.7313 33.7312 31.1325 36.9253 31.1325C40.1194 31.1325 42.7181 33.7313 42.7181 36.9253ZM41.5931 36.9253C41.5931 34.3519 39.4997 32.2575 36.9253 32.2575C34.3509 32.2575 32.2575 34.351 32.2575 36.9253C32.2575 39.4997 34.3509 41.5932 36.9253 41.5932C39.4997 41.5932 41.5931 39.4997 41.5931 36.9253ZM46.3612 39.0375V46.0313C46.3612 46.3416 46.1091 46.5938 45.7987 46.5938H39.8334C39.6159 46.5938 39.4284 46.47 39.3347 46.29C38.3926 46.5319 37.4195 46.6302 36.4481 46.5816C36.4106 46.5891 36.3722 46.5938 36.3328 46.5938H30.3675C30.0572 46.5938 29.805 46.3416 29.805 46.0313V43.4569C28.6134 42.1594 27.7725 40.5366 27.4294 38.7385V46.0313C27.4294 46.3416 27.1772 46.5938 26.8669 46.5938H20.9016C20.5912 46.5938 20.3391 46.3416 20.3391 46.0313V29.49C20.3391 29.1797 20.5912 28.9275 20.9016 28.9275H26.8669C27.1772 28.9275 27.4294 29.1797 27.4294 29.49V35.1122C27.6328 34.0453 28.0116 33.0394 28.5347 32.1272C28.5403 32.115 28.5459 32.1028 28.5534 32.0916C28.5628 32.0757 28.5731 32.0597 28.5834 32.0457C28.9322 31.4522 29.3419 30.8982 29.805 30.3947V23.9278C29.805 23.6175 30.0572 23.3653 30.3675 23.3653H36.3328C36.6431 23.3653 36.8953 23.6175 36.8953 23.9278V27.2588H36.9263C37.7344 27.2588 38.52 27.3591 39.2709 27.5466V16.6153C39.2709 16.305 39.5231 16.0528 39.8334 16.0528H45.7987C46.1091 16.0528 46.3612 16.305 46.3612 16.6153V34.8141C46.5131 35.4938 46.5938 36.2007 46.5938 36.9263C46.5938 37.6519 46.5131 38.3578 46.3612 39.0375ZM26.3034 30.0525H21.4631V45.4688H26.3034V30.0525ZM40.395 27.9019C40.8553 28.08 41.2997 28.291 41.7234 28.5347C41.7356 28.5403 41.7478 28.546 41.76 28.5535C41.7759 28.5628 41.7919 28.5732 41.8069 28.5835C43.218 29.413 44.3974 30.5847 45.2362 31.9903V17.1778H40.3959V27.9019H40.395ZM30.9291 24.4894V29.3475C31.2825 29.0672 31.6547 28.8122 32.0456 28.5825C32.0606 28.5722 32.0756 28.5619 32.0916 28.5525C32.1037 28.546 32.115 28.5403 32.1272 28.5338C33.2475 27.89 34.4864 27.4793 35.7694 27.3263V24.4885H30.9291V24.4894ZM32.4038 45.4688C31.884 45.1926 31.3904 44.8697 30.9291 44.5041V45.4688H32.4038ZM36.9253 45.4688C40.9537 45.4688 44.3391 42.6666 45.2353 38.9091V34.9425C45.0876 34.3231 44.8703 33.7224 44.5875 33.1519L43.6894 33.6703C43.6012 33.7219 43.5037 33.7453 43.4091 33.7453C43.215 33.7453 43.0256 33.6441 42.9216 33.4641C42.7659 33.195 42.8587 32.851 43.1278 32.6953L44.025 32.1778C43.4018 31.249 42.6035 30.4507 41.6747 29.8275L41.1572 30.7247C41.0531 30.9047 40.8637 31.006 40.6697 31.006C40.5741 31.006 40.4775 30.9816 40.3894 30.931C40.2602 30.8562 40.166 30.7333 40.1274 30.5892C40.0887 30.4451 40.1088 30.2916 40.1831 30.1622L40.7016 29.2641C39.6983 28.7677 38.6067 28.4749 37.4897 28.4025V29.4413C37.4897 29.7516 37.2375 30.0038 36.9272 30.0038C36.6169 30.0038 36.3647 29.7516 36.3647 29.4413V28.4025C35.2181 28.4775 34.1325 28.7794 33.1528 29.2641L33.6713 30.1622C33.8269 30.4313 33.7341 30.7753 33.465 30.931C33.3769 30.9825 33.2794 31.006 33.1847 31.006C32.9906 31.006 32.8012 30.9047 32.6972 30.7247L32.1797 29.8275C31.2509 30.4507 30.4525 31.249 29.8294 32.1778L30.7266 32.6953C30.8557 32.7701 30.9499 32.893 30.9886 33.0371C31.0272 33.1812 31.0072 33.3348 30.9328 33.4641C30.8288 33.6441 30.6394 33.7453 30.4453 33.7453C30.3497 33.7453 30.2531 33.721 30.165 33.6703L29.2669 33.1519C28.7034 34.291 28.3866 35.5725 28.3866 36.9263C28.3828 41.6363 32.2153 45.4688 36.9253 45.4688ZM45.2362 41.8613C44.326 43.3868 43.016 44.6343 41.4478 45.4688H45.2362V41.8613ZM17.9625 33.9403V46.0313C17.9625 46.3416 17.7103 46.5938 17.4 46.5938H11.4347C11.1244 46.5938 10.8722 46.3416 10.8722 46.0313V33.9403C10.8722 33.63 11.1244 33.3778 11.4347 33.3778H17.4C17.7113 33.3778 17.9625 33.63 17.9625 33.9403ZM16.8375 34.5028H11.9972V45.4688H16.8375V34.5028Z" fill="#5A40FF"/>
</svg>
