<svg width="35" height="32" viewBox="0 0 35 32" fill="none" xmlns="http://www.w3.org/2000/svg">
<g clip-path="url(#clip0_2024_369)">
<path d="M33.4042 20.3092H32.9342V4.07225C32.9342 3.12269 32.1616 2.35013 31.212 2.35013H21.5216V1.09588C21.5216 0.491625 21.03 0 20.4257 0H16.5745C15.9702 0 15.4786 0.491625 15.4786 1.09588V2.35013H12.1654C11.906 2.35013 11.6957 2.56037 11.6957 2.81981C11.6957 3.07925 11.906 3.2895 12.1654 3.2895H31.2121C31.6437 3.2895 31.9949 3.64062 31.9949 4.07231V20.3093H24.5978C24.3384 20.3093 24.1281 20.5196 24.1281 20.779C24.1281 21.0384 24.3384 21.2487 24.5978 21.2487H33.4042C33.4457 21.2487 33.4855 21.2652 33.5149 21.2946C33.5443 21.3239 33.5608 21.3637 33.5608 21.4053V22.5029C33.5608 22.5445 33.5443 22.5843 33.5149 22.6136C33.4855 22.643 33.4457 22.6595 33.4042 22.6595H8.35055C8.09111 22.6595 7.88086 22.8697 7.88086 23.1292C7.88086 23.3886 8.09111 23.5989 8.35055 23.5989H11.0799L9.5023 31.4379C9.48857 31.506 9.49016 31.5764 9.50694 31.6439C9.52372 31.7114 9.55528 31.7743 9.59933 31.8281C9.64338 31.8819 9.69884 31.9252 9.76168 31.955C9.82453 31.9848 9.8932 32.0002 9.96273 32.0002H12.7802C12.8887 32.0002 12.9938 31.9626 13.0778 31.8939C13.1617 31.8252 13.2193 31.7295 13.2407 31.6232L13.7555 29.065H23.2739L23.7887 31.6232C23.8101 31.7295 23.8676 31.8252 23.9516 31.8939C24.0355 31.9626 24.1406 32.0002 24.2491 32.0002H27.0666C27.1361 32.0002 27.2048 31.9848 27.2677 31.955C27.3305 31.9253 27.386 31.8819 27.43 31.8281C27.4741 31.7743 27.5057 31.7114 27.5224 31.6439C27.5392 31.5764 27.5408 31.506 27.527 31.4379L25.9494 23.5989H33.4042C34.0085 23.5989 34.5001 23.1073 34.5001 22.503V21.4053C34.5001 20.8009 34.0085 20.3092 33.4042 20.3092ZM16.4179 1.09588C16.418 1.05436 16.4345 1.01456 16.4638 0.985205C16.4932 0.955851 16.533 0.939346 16.5745 0.939313H20.4257C20.4672 0.939346 20.507 0.955851 20.5364 0.985205C20.5658 1.01456 20.5823 1.05436 20.5823 1.09588V2.35013H16.4179V1.09588ZM22.1737 23.5987L22.6811 26.1196H14.3482L14.8556 23.5987H22.1737ZM12.3957 31.0607H10.5364L12.0381 23.5987H13.8975L12.3957 31.0607ZM13.9445 28.1255L14.1592 27.0589H22.8701L23.0847 28.1255H13.9445ZM26.4929 31.0607H24.6335L23.1318 23.5987H24.9912L26.4929 31.0607Z" fill="#5A40FF"/>
<path d="M6.47175 22.6594H3.59588C3.55436 22.6594 3.51456 22.6429 3.48521 22.6135C3.45585 22.5842 3.43935 22.5444 3.43931 22.5028V21.4052C3.43935 21.3636 3.45585 21.3238 3.48521 21.2945C3.51456 21.2651 3.55436 21.2486 3.59588 21.2486H22.719C22.9784 21.2486 23.1887 21.0383 23.1887 20.7789C23.1887 20.5195 22.9784 20.3092 22.719 20.3092H5.00519V4.07228C5.00519 3.64066 5.35631 3.28947 5.78794 3.28947H10.2866C10.5461 3.28947 10.7563 3.07922 10.7563 2.81979C10.7563 2.56035 10.5461 2.3501 10.2866 2.3501H5.788C4.83844 2.3501 4.06588 3.12266 4.06588 4.07222V20.3092H3.59588C2.99163 20.3093 2.5 20.8009 2.5 21.4052V22.5028C2.5 23.1071 2.99163 23.5987 3.59588 23.5987H6.47175C6.59631 23.5987 6.71577 23.5492 6.80385 23.4612C6.89192 23.3731 6.94141 23.2536 6.94141 23.1291C6.94141 23.0045 6.89192 22.885 6.80385 22.797C6.71577 22.7089 6.59631 22.6594 6.47175 22.6594Z" fill="#5A40FF"/>
<path d="M13.8302 7.98678C13.786 7.9437 13.7338 7.90973 13.6766 7.88683C13.6193 7.86393 13.5581 7.85254 13.4964 7.85331C13.4347 7.85408 13.3738 7.867 13.3171 7.89133C13.2604 7.91566 13.2091 7.95092 13.1661 7.99509L11.6411 9.55878L11.0007 8.93603C10.9565 8.89303 10.9042 8.85915 10.8469 8.83634C10.7896 8.81354 10.7284 8.80224 10.6667 8.80311C10.605 8.80397 10.5441 8.81698 10.4875 8.84138C10.4308 8.86579 10.3795 8.90112 10.3366 8.94534C10.2936 8.98956 10.2597 9.04182 10.2369 9.09912C10.2141 9.15643 10.2028 9.21767 10.2037 9.27934C10.2045 9.34101 10.2175 9.4019 10.2419 9.45855C10.2663 9.51519 10.3017 9.56648 10.3459 9.60947L11.3225 10.5592C11.4101 10.6446 11.5276 10.6923 11.6499 10.6922C11.7126 10.6922 11.7746 10.6797 11.8324 10.6554C11.8902 10.631 11.9425 10.5953 11.9862 10.5504L13.8386 8.65097C13.9255 8.56177 13.9735 8.4417 13.9719 8.31714C13.9703 8.19259 13.9194 8.07376 13.8302 7.98678Z" fill="#5A40FF"/>
<path d="M15.5923 9.18749C15.5923 7.25499 14.0201 5.68286 12.0876 5.68286C10.1551 5.68286 8.58301 7.25505 8.58301 9.18749C8.58301 11.12 10.1552 12.6921 12.0876 12.6921C14.0201 12.6921 15.5923 11.12 15.5923 9.18749ZM12.0876 11.7528C10.6731 11.7528 9.52232 10.602 9.52232 9.18749C9.52232 7.77299 10.6731 6.62217 12.0876 6.62217C13.5021 6.62217 14.6529 7.77299 14.6529 9.18749C14.6529 10.602 13.5021 11.7528 12.0876 11.7528ZM13.4709 14.9195C13.3828 14.8314 13.2633 14.782 13.1388 14.782C13.0142 14.782 12.8947 14.8314 12.8066 14.9195L12.0876 15.6385L11.3686 14.9195C11.2805 14.8314 11.1611 14.782 11.0365 14.782C10.9119 14.782 10.7925 14.8314 10.7044 14.9195C10.6163 15.0076 10.5669 15.127 10.5669 15.2516C10.5669 15.3762 10.6163 15.4956 10.7044 15.5837L11.4234 16.3027L10.7044 17.0217C10.6388 17.0874 10.5941 17.1711 10.576 17.2622C10.5579 17.3533 10.5672 17.4477 10.6027 17.5335C10.6383 17.6193 10.6985 17.6927 10.7757 17.7443C10.8529 17.7959 10.9436 17.8235 11.0365 17.8235C11.0982 17.8236 11.1593 17.8115 11.2163 17.7879C11.2733 17.7643 11.3251 17.7297 11.3686 17.686L12.0876 16.967L12.8066 17.686C12.8984 17.7777 13.0186 17.8235 13.1388 17.8235C13.2589 17.8235 13.3791 17.7777 13.4709 17.686C13.5589 17.5979 13.6084 17.4784 13.6084 17.3539C13.6084 17.2293 13.5589 17.1098 13.4709 17.0217L12.7519 16.3027L13.4709 15.5837C13.5145 15.5401 13.5491 15.4883 13.5727 15.4314C13.5963 15.3744 13.6085 15.3133 13.6085 15.2516C13.6085 15.1899 13.5963 15.1289 13.5727 15.0719C13.5491 15.0149 13.5145 14.9631 13.4709 14.9195ZM27.7948 14.9195C27.7067 14.8314 27.5873 14.782 27.4627 14.782C27.3381 14.782 27.2187 14.8314 27.1306 14.9195L26.4116 15.6385L25.6926 14.9195C25.649 14.8759 25.5972 14.8413 25.5402 14.8177C25.4832 14.7941 25.4221 14.7819 25.3604 14.7819C25.2988 14.7819 25.2377 14.7941 25.1807 14.8177C25.1237 14.8413 25.0719 14.8759 25.0283 14.9195C24.9847 14.9631 24.9501 15.0149 24.9265 15.0719C24.9029 15.1289 24.8907 15.1899 24.8907 15.2516C24.8907 15.3133 24.9029 15.3744 24.9265 15.4314C24.9501 15.4883 24.9847 15.5401 25.0283 15.5837L25.7473 16.3027L25.0283 17.0217C24.9402 17.1098 24.8907 17.2293 24.8907 17.3539C24.8907 17.4784 24.9402 17.5979 25.0283 17.686C25.1164 17.7741 25.2359 17.8236 25.3604 17.8236C25.485 17.8236 25.6045 17.7741 25.6926 17.686L26.4116 16.967L27.1306 17.686C27.2223 17.7777 27.3425 17.8235 27.4627 17.8235C27.5829 17.8235 27.7031 17.7777 27.7948 17.686C27.8384 17.6424 27.873 17.5906 27.8966 17.5336C27.9202 17.4766 27.9324 17.4155 27.9324 17.3539C27.9324 17.2922 27.9202 17.2311 27.8966 17.1741C27.873 17.1171 27.8384 17.0654 27.7948 17.0217L27.0758 16.3027L27.7948 15.5837C27.8384 15.5401 27.873 15.4883 27.8966 15.4314C27.9202 15.3744 27.9324 15.3133 27.9324 15.2516C27.9324 15.1899 27.9202 15.1289 27.8966 15.0719C27.873 15.0149 27.8384 14.9631 27.7948 14.9195ZM18.1481 10.6559C18.2399 10.7476 18.3601 10.7935 18.4803 10.7935C18.6004 10.7935 18.7206 10.7476 18.8124 10.6559L19.5314 9.93692L20.2504 10.6559C20.294 10.6996 20.3457 10.7342 20.4027 10.7578C20.4597 10.7814 20.5208 10.7936 20.5825 10.7935C20.6754 10.7934 20.7661 10.7658 20.8434 10.7142C20.9206 10.6626 20.9807 10.5893 21.0163 10.5035C21.0518 10.4177 21.0611 10.3233 21.043 10.2322C21.0249 10.1411 20.9803 10.0574 20.9146 9.99167L20.1956 9.27267L20.9146 8.55367C21.0027 8.46557 21.0522 8.34611 21.0522 8.22155C21.0522 8.09699 21.0027 7.97752 20.9146 7.88942C20.8265 7.80138 20.7071 7.75193 20.5825 7.75193C20.458 7.75193 20.3385 7.80138 20.2504 7.88942L19.5314 8.60842L18.8124 7.88942C18.7243 7.80138 18.6048 7.75193 18.4803 7.75193C18.3557 7.75193 18.2362 7.80138 18.1481 7.88942C18.0601 7.97752 18.0106 8.09699 18.0106 8.22155C18.0106 8.34611 18.0601 8.46557 18.1481 8.55367L18.8671 9.27267L18.1481 9.99167C18.1045 10.0353 18.0699 10.0871 18.0463 10.1441C18.0227 10.201 18.0106 10.2621 18.0106 10.3238C18.0106 10.3855 18.0227 10.4466 18.0463 10.5035C18.0699 10.5605 18.1045 10.6123 18.1481 10.6559ZM17.5412 16.3028C17.5412 17.4002 18.434 18.293 19.5314 18.293C20.6289 18.293 21.5216 17.4002 21.5216 16.3028C21.5216 15.2054 20.6288 14.3125 19.5314 14.3125C18.4341 14.3125 17.5412 15.2054 17.5412 16.3028ZM20.5823 16.3028C20.5823 16.8822 20.1108 17.3537 19.5314 17.3537C18.9519 17.3537 18.4805 16.8822 18.4805 16.3028C18.4805 15.7234 18.9519 15.2519 19.5314 15.2519C20.1108 15.2519 20.5823 15.7234 20.5823 16.3028Z" fill="#5A40FF"/>
<path d="M16.5285 12.7539C16.5063 12.8765 16.5337 13.0029 16.6047 13.1052C16.6757 13.2076 16.7844 13.2776 16.907 13.2998C16.9837 13.3137 17.7943 13.4551 18.9218 13.4551C20.4669 13.4551 22.6072 13.1894 24.2686 11.9655C25.6233 10.9677 26.4273 9.50417 26.6586 7.61561C26.6737 7.49197 26.6391 7.36738 26.5624 7.26925C26.4857 7.17113 26.3731 7.10749 26.2495 7.09235C25.9927 7.06104 25.7578 7.24404 25.7262 7.50148C25.5278 9.12186 24.851 10.3685 23.7146 11.207C21.1703 13.0842 17.1148 12.3827 17.0741 12.3754C16.8193 12.3296 16.5748 12.4987 16.5285 12.7539Z" fill="#5A40FF"/>
</g>
<defs>
<clipPath id="clip0_2024_369">
<rect width="35" height="32" fill="white"/>
</clipPath>
</defs>
</svg>
