<svg width="34" height="32" viewBox="0 0 34 32" fill="none" xmlns="http://www.w3.org/2000/svg">
<g clip-path="url(#clip0_2024_372)">
<path d="M4.16667 32H28.1667C28.3081 32 28.4438 31.9438 28.5438 31.8438C28.6438 31.7438 28.7 31.6081 28.7 31.4667V17.6H27.6333V30.9333H4.16667C3.28307 30.9333 2.56667 30.2169 2.56667 29.3333C2.56667 28.4497 3.28307 27.7333 4.16667 27.7333H5.23333C5.37478 27.7333 5.51044 27.6771 5.61046 27.5771C5.71048 27.4771 5.76667 27.3415 5.76667 27.2V11.2H14.3V10.1333H5.76667V6.4C5.76667 6.25855 5.71048 6.1229 5.61046 6.02288C5.51044 5.92286 5.37478 5.86667 5.23333 5.86667H4.16667C2.69453 5.86847 1.5018 7.0612 1.5 8.53334V29.3333C1.5018 30.8055 2.69453 31.9982 4.16667 32ZM2.56667 10.6667V8.53334C2.56667 7.64974 3.28307 6.93334 4.16667 6.93334H4.7V26.6667H4.16667C3.58955 26.6659 3.02789 26.8531 2.56667 27.2V10.6667Z" fill="#14B22B"/>
<path d="M13.7668 12.8H7.36683C7.22538 12.8 7.08973 12.8562 6.98971 12.9562C6.88969 13.0562 6.8335 13.1919 6.8335 13.3333V17.6C6.8335 17.7414 6.88969 17.8771 6.98971 17.9771C7.08973 18.0771 7.22538 18.1333 7.36683 18.1333H13.7668C13.9083 18.1333 14.0439 18.0771 14.144 17.9771C14.244 17.8771 14.3002 17.7414 14.3002 17.6V16H16.4335V14.9333H14.3002V13.3333C14.3002 13.1919 14.244 13.0562 14.144 12.9562C14.0439 12.8562 13.9083 12.8 13.7668 12.8ZM13.2335 17.0667H7.90016V13.8667H13.2335V17.0667ZM19.1002 27.7333H25.5002C25.6416 27.7333 25.7773 27.6771 25.8773 27.5771C25.9773 27.4771 26.0335 27.3414 26.0335 27.2V22.9333C26.0335 22.7919 25.9773 22.6562 25.8773 22.5562C25.7773 22.4562 25.6416 22.4 25.5002 22.4H22.8335V19.2H21.7668V22.4H19.1002C18.9587 22.4 18.8231 22.4562 18.723 22.5562C18.623 22.6562 18.5668 22.7919 18.5668 22.9333V24.5333H14.3002V22.9333C14.3002 22.7919 14.244 22.6562 14.144 22.5562C14.0439 22.4562 13.9083 22.4 13.7668 22.4H7.36683C7.22538 22.4 7.08973 22.4562 6.98971 22.5562C6.88969 22.6562 6.8335 22.7919 6.8335 22.9333V27.2C6.8335 27.3414 6.88969 27.4771 6.98971 27.5771C7.08973 27.6771 7.22538 27.7333 7.36683 27.7333H13.7668C13.9083 27.7333 14.0439 27.6771 14.144 27.5771C14.244 27.4771 14.3002 27.3414 14.3002 27.2V25.6H18.5668V27.2C18.5668 27.3414 18.623 27.4771 18.723 27.5771C18.8231 27.6771 18.9587 27.7333 19.1002 27.7333ZM19.6335 23.4667H24.9668V26.6667H19.6335V23.4667ZM13.2335 26.6667H7.90016V23.4667H13.2335V26.6667ZM24.4335 4.26666C21.7824 4.26666 19.6335 6.4156 19.6335 9.06666C19.6335 11.7177 21.7824 13.8667 24.4335 13.8667C27.0846 13.8667 29.2335 11.7177 29.2335 9.06666C29.2306 6.41693 27.0832 4.26953 24.4335 4.26666ZM24.4335 12.8C22.3715 12.8 20.7002 11.1287 20.7002 9.06666C20.7002 7.00466 22.3715 5.33333 24.4335 5.33333C26.4955 5.33333 28.1668 7.00466 28.1668 9.06666C28.1645 11.1276 26.4944 12.7977 24.4335 12.8Z" fill="#14B22B"/>
<path d="M32.9667 11.2C33.1082 11.2 33.2438 11.1438 33.3438 11.0438C33.4438 10.9438 33.5 10.8081 33.5 10.6667V7.46667C33.5 7.32522 33.4438 7.18956 33.3438 7.08954C33.2438 6.98952 33.1082 6.93333 32.9667 6.93333H31.0237C30.9098 6.58328 30.7688 6.24267 30.6018 5.9146L31.9779 4.54347C32.0782 4.44347 32.1347 4.30753 32.1347 4.16587C32.1347 4.0242 32.0782 3.88827 31.9779 3.78827L29.7133 1.5216C29.6133 1.42158 29.4777 1.36537 29.3362 1.36533C29.1947 1.36557 29.0591 1.42197 28.9592 1.52213L27.5854 2.89813C27.2573 2.73134 26.9167 2.59034 26.5667 2.4764V0.533333C26.5667 0.391885 26.5105 0.256229 26.4105 0.15621C26.3105 0.0561903 26.1748 0 26.0334 0L22.8334 0C22.6919 0 22.5563 0.0561903 22.4562 0.15621C22.3562 0.256229 22.3 0.391885 22.3 0.533333V2.47633C21.95 2.59031 21.6094 2.73136 21.2813 2.8982L19.9097 1.52213C19.8097 1.42195 19.6741 1.36555 19.5326 1.36533C19.3911 1.36537 19.2555 1.42158 19.1555 1.5216L16.8883 3.78673C16.788 3.88673 16.7316 4.02267 16.7316 4.16433C16.7316 4.306 16.788 4.44193 16.8883 4.54193L18.2643 5.913C18.0974 6.24158 17.9565 6.58274 17.843 6.93333H15.9C15.7586 6.93333 15.6229 6.98952 15.5229 7.08954C15.4229 7.18956 15.3667 7.32522 15.3667 7.46667V10.6667C15.3667 10.8081 15.4229 10.9438 15.5229 11.0438C15.6229 11.1438 15.7586 11.2 15.9 11.2H17.843C17.9569 11.5501 18.098 11.8907 18.2649 12.2187L16.8888 13.5899C16.8391 13.6394 16.7996 13.6983 16.7727 13.7632C16.7457 13.828 16.7319 13.8975 16.7319 13.9677C16.7319 14.038 16.7457 14.1075 16.7727 14.1723C16.7996 14.2372 16.8391 14.2961 16.8888 14.3456L19.1534 16.6065C19.2535 16.7065 19.3891 16.7626 19.5305 16.7626C19.6719 16.7626 19.8075 16.7065 19.9076 16.6065L21.2792 15.2352C21.6081 15.402 21.9494 15.543 22.3 15.6569V17.6C22.3 17.7415 22.3562 17.8771 22.4562 17.9771C22.5563 18.0771 22.6919 18.1333 22.8334 18.1333H26.0334C26.1748 18.1333 26.3105 18.0771 26.4105 17.9771C26.5105 17.8771 26.5667 17.7415 26.5667 17.6V15.657C26.9169 15.543 27.2577 15.402 27.586 15.2351L28.9576 16.6065C29.0576 16.7063 29.1931 16.7623 29.3344 16.7623C29.4757 16.7623 29.6112 16.7063 29.7112 16.6065L31.9779 14.3451C32.0277 14.2955 32.0672 14.2367 32.0942 14.1718C32.1212 14.107 32.1351 14.0374 32.1351 13.9672C32.1351 13.897 32.1212 13.8274 32.0942 13.7626C32.0672 13.6977 32.0277 13.6389 31.9779 13.5893L30.6019 12.2182C30.7688 11.8903 30.9098 11.5499 31.0236 11.2H32.9667ZM30.1102 10.5307C29.9699 11.0617 29.7585 11.5714 29.4818 12.0458C29.4224 12.1477 29.3985 12.2664 29.4137 12.3834C29.429 12.5004 29.4826 12.609 29.5662 12.6922L30.8462 13.968L29.3352 15.4758L28.0599 14.1989C27.9766 14.1156 27.8681 14.0622 27.7513 14.0471C27.6344 14.0319 27.5159 14.0559 27.4141 14.1151C26.9398 14.392 26.4301 14.6032 25.899 14.743C25.7848 14.7727 25.6838 14.8395 25.6116 14.9328C25.5394 15.0261 25.5002 15.1406 25.5 15.2586V17.0667H23.3667V15.2586C23.3667 15.1409 23.3277 15.0264 23.2558 14.9332C23.1839 14.8399 23.0832 14.773 22.9694 14.743C22.4382 14.6032 21.9285 14.392 21.4542 14.1151C21.3524 14.0559 21.2338 14.0319 21.117 14.0471C21.0002 14.0622 20.8917 14.1156 20.8084 14.1989L19.532 15.4753L18.0211 13.968L19.3011 12.6923C19.3847 12.609 19.4383 12.5004 19.4536 12.3835C19.4688 12.2665 19.4449 12.1478 19.3854 12.0459C19.1087 11.5714 18.8973 11.0618 18.757 10.5308C18.727 10.4169 18.6602 10.3162 18.5669 10.2443C18.4736 10.1724 18.3592 10.1334 18.2414 10.1334H16.4334V8.00007H18.2414C18.3591 7.99997 18.4734 7.96094 18.5666 7.88907C18.6598 7.8172 18.7266 7.71652 18.7566 7.60273C18.8968 7.07168 19.1082 6.56201 19.3849 6.08753C19.4443 5.98564 19.4683 5.86693 19.453 5.74998C19.4377 5.63303 19.3841 5.52444 19.3006 5.4412L18.0206 4.16493L19.532 2.65333L20.8084 3.93333C20.8916 4.01691 21.0002 4.07053 21.1171 4.0858C21.2341 4.10107 21.3528 4.07713 21.4547 4.01773C21.929 3.74091 22.4387 3.5297 22.9698 3.38987C23.0835 3.35974 23.1841 3.2929 23.2558 3.19972C23.3276 3.10655 23.3666 2.99228 23.3667 2.87467V1.06667H25.5V2.87473C25.5001 2.99248 25.539 3.10691 25.6109 3.20018C25.6828 3.29345 25.7835 3.36031 25.8974 3.39033C26.4285 3.53016 26.9382 3.74138 27.4126 4.0182C27.5146 4.07783 27.6335 4.10191 27.7506 4.08664C27.8678 4.07138 27.9766 4.01764 28.0599 3.93387L29.3362 2.65387L30.8477 4.16533L29.5677 5.44167C29.4841 5.5249 29.4305 5.63351 29.4153 5.75048C29.4001 5.86745 29.4241 5.98616 29.4836 6.088C29.7602 6.56251 29.9715 7.07215 30.1118 7.60313C30.1418 7.71658 30.2083 7.81696 30.3012 7.88871C30.394 7.96047 30.508 7.99958 30.6253 8H32.4334V10.1333H30.6253C30.5076 10.1334 30.3933 10.1725 30.3001 10.2443C30.2069 10.3162 30.1402 10.4169 30.1102 10.5307Z" fill="#14B22B"/>
<path d="M24.4331 6.93332C23.255 6.93332 22.2998 7.88852 22.2998 9.06665C22.2998 10.2448 23.255 11.2 24.4331 11.2C25.6113 11.2 26.5665 10.2448 26.5665 9.06665C26.5665 7.88852 25.6113 6.93332 24.4331 6.93332ZM24.4331 10.1333C23.8441 10.1333 23.3665 9.65572 23.3665 9.06665C23.3665 8.47759 23.8441 7.99999 24.4331 7.99999C25.0222 7.99999 25.4998 8.47759 25.4998 9.06665C25.4998 9.65572 25.0222 10.1333 24.4331 10.1333Z" fill="#14B22B"/>
</g>
<defs>
<clipPath id="clip0_2024_372">
<rect width="34" height="32" fill="white"/>
</clipPath>
</defs>
</svg>
