<svg width="36" height="32" viewBox="0 0 36 32" fill="none" xmlns="http://www.w3.org/2000/svg">
<path d="M32 7.99998H31.3506C31.9308 7.35283 32.3112 6.55153 32.4457 5.69287C32.5803 4.83422 32.4633 3.95497 32.109 3.16136C31.7546 2.36774 31.178 1.69373 30.4488 1.22076C29.7197 0.747786 28.8691 0.496094 28 0.496094C27.1309 0.496094 26.2803 0.747786 25.5512 1.22076C24.822 1.69373 24.2454 2.36774 23.891 3.16136C23.5367 3.95497 23.4197 4.83422 23.5543 5.69287C23.6888 6.55153 24.0692 7.35283 24.6494 7.99998H18.5V2.99998C18.5 2.86737 18.4473 2.74019 18.3536 2.64642C18.2598 2.55266 18.1326 2.49998 18 2.49998H16C15.8674 2.49998 15.7402 2.55266 15.6464 2.64642C15.5527 2.74019 15.5 2.86737 15.5 2.99998V7.99998H15V0.999977C15 0.867368 14.9473 0.740191 14.8536 0.646423C14.7598 0.552655 14.6326 0.499977 14.5 0.499977H12.5C12.3674 0.499977 12.2402 0.552655 12.1464 0.646423C12.0527 0.740191 12 0.867368 12 0.999977V7.99998H11.5V4.49998C11.5 4.36737 11.4473 4.24019 11.3536 4.14642C11.2598 4.05266 11.1326 3.99998 11 3.99998H9C8.86739 3.99998 8.74021 4.05266 8.64645 4.14642C8.55268 4.24019 8.5 4.36737 8.5 4.49998V7.99998H5C4.46975 8.00057 3.96139 8.21148 3.58644 8.58642C3.2115 8.96136 3.0006 9.46973 3 9.99998V25C3.0006 25.5302 3.2115 26.0386 3.58644 26.4135C3.96139 26.7885 4.46975 26.9994 5 27H15.3062L14.6394 29H13C12.8674 29 12.7402 29.0527 12.6464 29.1464C12.5527 29.2402 12.5 29.3674 12.5 29.5V30.5H7.5C7.36739 30.5 7.24021 30.5527 7.14645 30.6464C7.05268 30.7402 7 30.8674 7 31C7 31.1326 7.05268 31.2598 7.14645 31.3535C7.24021 31.4473 7.36739 31.5 7.5 31.5H29.5C29.6326 31.5 29.7598 31.4473 29.8536 31.3535C29.9473 31.2598 30 31.1326 30 31C30 30.8674 29.9473 30.7402 29.8536 30.6464C29.7598 30.5527 29.6326 30.5 29.5 30.5H24.5V29.5C24.5 29.3674 24.4473 29.2402 24.3536 29.1464C24.2598 29.0527 24.1326 29 24 29H22.3606L21.6938 27H32C32.5303 26.9994 33.0386 26.7885 33.4136 26.4135C33.7885 26.0386 33.9994 25.5302 34 25V9.99998C33.9994 9.46973 33.7885 8.96136 33.4136 8.58642C33.0386 8.21148 32.5303 8.00057 32 7.99998ZM28.5 1.53623C29.2473 1.64527 29.9394 1.99262 30.4734 2.52662C31.0074 3.06061 31.3547 3.75271 31.4638 4.49998H28.5V1.53623ZM28.2069 5.49998H31.4638C31.3774 6.10079 31.1362 6.66878 30.7638 7.14812C30.3914 7.62746 29.9007 8.00164 29.3399 8.23387C28.7791 8.46609 28.1675 8.54838 27.5652 8.47264C26.963 8.39689 26.3908 8.16572 25.905 7.80185L28.2069 5.49998ZM24.5 4.99998C24.5012 4.15872 24.8049 3.34595 25.3557 2.71004C25.9064 2.07414 26.6675 1.65751 27.5 1.53623V4.7931L25.1981 7.09498C24.7443 6.49089 24.4992 5.75556 24.5 4.99998ZM16.5 3.49998H17.5V13H16.5V3.49998ZM15 8.99998H15.5V13H15V8.99998ZM13 1.49998H14V13H13V1.49998ZM11.5 8.99998H12V13H11.5V8.99998ZM9.5 4.99998H10.5V13H9.5V4.99998ZM23.5 30V30.5H13.5V30H23.5ZM15.6938 29L16.3606 27H20.6394L21.3062 29H15.6938ZM33 25C32.9997 25.2651 32.8942 25.5192 32.7067 25.7067C32.5193 25.8942 32.2651 25.9996 32 26H5C4.73489 25.9996 4.48074 25.8942 4.29328 25.7067C4.10582 25.5192 4.00035 25.2651 4 25V24H33V25ZM33 23H4V9.99998C4.00035 9.73487 4.10582 9.48071 4.29328 9.29325C4.48074 9.10579 4.73489 9.00032 5 8.99998H8.5V13H8V9.99998C8 9.86737 7.94732 9.74019 7.85355 9.64642C7.75979 9.55265 7.63261 9.49998 7.5 9.49998H5.5C5.36739 9.49998 5.24021 9.55265 5.14645 9.64642C5.05268 9.74019 5 9.86737 5 9.99998V13.5C5 13.6326 5.05268 13.7598 5.14645 13.8535C5.24021 13.9473 5.36739 14 5.5 14H21.5C21.6326 14 21.7598 13.9473 21.8536 13.8535C21.9473 13.7598 22 13.6326 22 13.5V9.99998C22 9.86737 21.9473 9.74019 21.8536 9.64642C21.7598 9.55265 21.6326 9.49998 21.5 9.49998H19.5C19.3674 9.49998 19.2402 9.55265 19.1464 9.64642C19.0527 9.74019 19 9.86737 19 9.99998V13H18.5V8.99998H25.9425C26.5786 9.32853 27.2841 9.49998 28 9.49998C28.7159 9.49998 29.4214 9.32853 30.0575 8.99998H32C32.2651 9.00032 32.5193 9.10579 32.7067 9.29325C32.8942 9.48071 32.9997 9.73487 33 9.99998V23ZM7 10.5V13H6V10.5H7ZM20 13V10.5H21V13H20Z" fill="#FD6900"/>
<path d="M8.49979 24.5H5.49979C5.36719 24.5 5.24001 24.5526 5.14624 24.6464C5.05247 24.7402 4.99979 24.8674 4.99979 25C4.99979 25.1326 5.05247 25.2598 5.14624 25.3535C5.24001 25.4473 5.36719 25.5 5.49979 25.5H8.49979C8.6324 25.5 8.75958 25.4473 8.85335 25.3535C8.94712 25.2598 8.99979 25.1326 8.99979 25C8.99979 24.8674 8.94712 24.7402 8.85335 24.6464C8.75958 24.5526 8.6324 24.5 8.49979 24.5ZM10.4998 24.5H9.99979C9.86719 24.5 9.74001 24.5526 9.64624 24.6464C9.55247 24.7402 9.49979 24.8674 9.49979 25C9.49979 25.1326 9.55247 25.2598 9.64624 25.3535C9.74001 25.4473 9.86719 25.5 9.99979 25.5H10.4998C10.6324 25.5 10.7596 25.4473 10.8533 25.3535C10.9471 25.2598 10.9998 25.1326 10.9998 25C10.9998 24.8674 10.9471 24.7402 10.8533 24.6464C10.7596 24.5526 10.6324 24.5 10.4998 24.5ZM23.9998 13C24.0655 13.0001 24.1305 12.9872 24.1912 12.962C24.2519 12.9369 24.307 12.9 24.3534 12.8535L26.2069 11H30.4998C30.6324 11 30.7596 10.9473 30.8533 10.8535C30.9471 10.7598 30.9998 10.6326 30.9998 10.5C30.9998 10.3674 30.9471 10.2402 30.8533 10.1464C30.7596 10.0526 30.6324 9.99997 30.4998 9.99997H25.9998C25.9341 9.99997 25.8691 10.0129 25.8084 10.038C25.7478 10.0631 25.6927 10.1 25.6462 10.1464L23.6462 12.1464C23.5763 12.2163 23.5287 12.3054 23.5094 12.4024C23.4901 12.4994 23.5 12.5999 23.5378 12.6913C23.5757 12.7827 23.6398 12.8608 23.722 12.9157C23.8042 12.9707 23.9009 13 23.9998 13ZM30.4998 18.5C30.237 18.5002 29.9789 18.5694 29.7513 18.7007C29.5237 18.832 29.3346 19.0207 29.2029 19.2481L23.9685 16.1943C23.8976 15.8536 23.7104 15.5481 23.439 15.3303C23.1676 15.1124 22.8289 14.9957 22.4809 15.0001C22.1329 15.0045 21.7973 15.1298 21.5315 15.3546C21.2657 15.5793 21.0864 15.8894 21.0242 16.2318L15.7567 20.1825C15.6134 19.9618 15.4145 19.7827 15.18 19.6633C14.9456 19.5438 14.6838 19.4882 14.4211 19.502C14.1583 19.5159 13.9038 19.5986 13.6832 19.742C13.4626 19.8853 13.2835 20.0842 13.1642 20.3187L7.95792 18.1493C7.87577 17.8068 7.67577 17.5041 7.39291 17.2942C7.11006 17.0843 6.76239 16.9806 6.41077 17.0013C6.05915 17.0219 5.726 17.1656 5.46963 17.4071C5.21327 17.6486 5.05004 17.9726 5.00851 18.3224C4.96699 18.6722 5.04982 19.0254 5.24251 19.3202C5.4352 19.6151 5.72546 19.8328 6.06247 19.9351C6.39949 20.0375 6.76178 20.0181 7.08591 19.8803C7.41004 19.7424 7.67537 19.495 7.83542 19.1812L13.0417 21.3506C13.122 21.6851 13.315 21.9818 13.5882 22.191C13.8613 22.4001 14.1981 22.509 14.542 22.4993C14.8859 22.4896 15.216 22.362 15.477 22.1378C15.738 21.9137 15.914 21.6066 15.9754 21.2681L21.2429 17.3175C21.3825 17.5324 21.5748 17.708 21.8016 17.8274C22.0284 17.9468 22.282 18.0061 22.5382 17.9995C22.7944 17.9929 23.0446 17.9207 23.2649 17.7898C23.4853 17.6589 23.6684 17.4737 23.7967 17.2518L29.031 20.3056C29.0888 20.5832 29.2241 20.8388 29.4212 21.0426C29.6183 21.2465 29.8692 21.3903 30.1447 21.4574C30.4202 21.5245 30.7091 21.5121 30.9779 21.4217C31.2467 21.3312 31.4843 21.1665 31.6632 20.9465C31.8422 20.7265 31.9551 20.4603 31.9889 20.1788C32.0227 19.8972 31.976 19.6119 31.8542 19.3558C31.7324 19.0997 31.5406 18.8834 31.3008 18.7319C31.0611 18.5804 30.7834 18.5 30.4998 18.5ZM6.99979 18.5025C6.99946 18.6353 6.94642 18.7626 6.85232 18.8563C6.75822 18.9501 6.63075 19.0026 6.49792 19.0025C6.36509 19.0023 6.23775 18.9494 6.14389 18.8554C6.05002 18.7615 5.9973 18.6341 5.9973 18.5012C5.9973 18.3684 6.05002 18.241 6.14389 18.147C6.23775 18.053 6.36509 18.0001 6.49792 18C6.63075 17.9998 6.75822 18.0524 6.85232 18.1461C6.94642 18.2399 6.99946 18.3671 6.99979 18.5V18.5025ZM14.4998 21.5C14.3672 21.4998 14.2402 21.4471 14.1464 21.3533C14.0527 21.2596 14 21.1325 13.9998 21V20.9975C14.0003 20.8987 14.03 20.8023 14.0853 20.7204C14.1405 20.6385 14.2188 20.5748 14.3102 20.5373C14.4016 20.4999 14.502 20.4903 14.5989 20.5099C14.6957 20.5295 14.7845 20.5773 14.8542 20.6473C14.9239 20.7173 14.9713 20.8064 14.9904 20.9033C15.0095 21.0003 14.9994 21.1007 14.9615 21.1919C14.9236 21.2831 14.8595 21.361 14.7773 21.4159C14.6951 21.4707 14.5986 21.5 14.4998 21.5ZM22.4998 17C22.4009 17 22.3042 16.9706 22.222 16.9157C22.1398 16.8608 22.0757 16.7827 22.0379 16.6913C22 16.5999 21.9901 16.4994 22.0094 16.4024C22.0287 16.3054 22.0763 16.2163 22.1462 16.1464C22.2162 16.0765 22.3053 16.0289 22.4022 16.0096C22.4992 15.9903 22.5998 16.0002 22.6911 16.038C22.7825 16.0759 22.8606 16.14 22.9155 16.2222C22.9705 16.3044 22.9998 16.4011 22.9998 16.5C22.9996 16.6325 22.9469 16.7596 22.8531 16.8533C22.7594 16.9471 22.6323 16.9998 22.4998 17ZM30.4998 20.5C30.4009 20.5 30.3042 20.4706 30.222 20.4157C30.1398 20.3608 30.0757 20.2827 30.0379 20.1913C30 20.0999 29.9901 19.9994 30.0094 19.9024C30.0287 19.8054 30.0763 19.7163 30.1462 19.6464C30.2162 19.5765 30.3053 19.5289 30.4022 19.5096C30.4992 19.4903 30.5998 19.5002 30.6911 19.538C30.7825 19.5759 30.8606 19.64 30.9155 19.7222C30.9705 19.8044 30.9998 19.9011 30.9998 20C30.9996 20.1325 30.9469 20.2596 30.8531 20.3533C30.7594 20.4471 30.6323 20.4998 30.4998 20.5Z" fill="#FD6900"/>
<path d="M26.5 21.5H23C22.8674 21.5 22.7402 21.5526 22.6464 21.6464C22.5527 21.7402 22.5 21.8674 22.5 22C22.5 22.1326 22.5527 22.2598 22.6464 22.3535C22.7402 22.4473 22.8674 22.5 23 22.5H26.5C26.6326 22.5 26.7598 22.4473 26.8536 22.3535C26.9473 22.2598 27 22.1326 27 22C27 21.8674 26.9473 21.7402 26.8536 21.6464C26.7598 21.5526 26.6326 21.5 26.5 21.5ZM26.5 20H25C24.8674 20 24.7402 20.0526 24.6464 20.1464C24.5527 20.2402 24.5 20.3674 24.5 20.5C24.5 20.6326 24.5527 20.7598 24.6464 20.8535C24.7402 20.9473 24.8674 21 25 21H26.5C26.6326 21 26.7598 20.9473 26.8536 20.8535C26.9473 20.7598 27 20.6326 27 20.5C27 20.3674 26.9473 20.2402 26.8536 20.1464C26.7598 20.0526 26.6326 20 26.5 20ZM5.5 15.5H11C11.1326 15.5 11.2598 15.4473 11.3536 15.3535C11.4473 15.2598 11.5 15.1326 11.5 15C11.5 14.8674 11.4473 14.7402 11.3536 14.6464C11.2598 14.5526 11.1326 14.5 11 14.5H5.5C5.36739 14.5 5.24021 14.5526 5.14645 14.6464C5.05268 14.7402 5 14.8674 5 15C5 15.1326 5.05268 15.2598 5.14645 15.3535C5.24021 15.4473 5.36739 15.5 5.5 15.5ZM12.5 15.5H13C13.1326 15.5 13.2598 15.4473 13.3536 15.3535C13.4473 15.2598 13.5 15.1326 13.5 15C13.5 14.8674 13.4473 14.7402 13.3536 14.6464C13.2598 14.5526 13.1326 14.5 13 14.5H12.5C12.3674 14.5 12.2402 14.5526 12.1464 14.6464C12.0527 14.7402 12 14.8674 12 15C12 15.1326 12.0527 15.2598 12.1464 15.3535C12.2402 15.4473 12.3674 15.5 12.5 15.5Z" fill="#FD6900"/>
</svg>
