<svg width="60" height="60" viewBox="0 0 60 60" fill="none" xmlns="http://www.w3.org/2000/svg">
<g clip-path="url(#clip0_2012_338)">
<path d="M45.9375 45C47.4881 45 48.75 43.7381 48.75 42.1875C48.75 40.6369 47.4881 39.375 45.9375 39.375C44.3869 39.375 43.125 40.6369 43.125 42.1875C43.125 43.7381 44.3869 45 45.9375 45ZM45.9375 41.25C46.1232 41.2498 46.3048 41.3047 46.4592 41.4078C46.6137 41.5108 46.7341 41.6574 46.8053 41.8289C46.8764 42.0004 46.8951 42.1892 46.8589 42.3713C46.8227 42.5534 46.7333 42.7207 46.602 42.852C46.4707 42.9833 46.3034 43.0727 46.1213 43.1089C45.9392 43.1451 45.7504 43.1264 45.5789 43.0553C45.4074 42.9841 45.2608 42.8637 45.1578 42.7092C45.0547 42.5548 44.9998 42.3732 45 42.1875C45 41.67 45.4209 41.25 45.9375 41.25Z" fill="#2A3FCC"/>
<path d="M55.4625 38.2294C55.3231 37.8999 55.2852 37.5363 55.3535 37.1851C55.4218 36.8339 55.5932 36.5111 55.8459 36.2578L57.21 34.8928L53.2312 30.9141L51.8653 32.2791C51.3487 32.7966 50.5744 32.9466 49.8581 32.6466C49.5296 32.5117 49.2488 32.282 49.0514 31.9867C48.854 31.6915 48.7491 31.3442 48.75 30.9891V29.0625H46.8272C46.7465 27.5791 46.4671 26.1132 45.9966 24.7041L56.8453 13.8553C57.5503 13.1542 58.1093 12.3203 58.4899 11.4018C58.8705 10.4832 59.0651 9.49832 59.0625 8.50406C59.0625 4.33219 55.6678 0.9375 51.4959 0.9375C49.4747 0.9375 47.5744 1.725 46.1456 3.15375L35.3081 13.9922C33.8782 13.5181 32.3906 13.2403 30.8859 13.1662C29.5922 10.9059 27.1612 9.375 24.375 9.375C23.6616 9.375 22.9734 9.48187 22.3181 9.66844C20.7 6.62625 17.5566 4.6875 14.0625 4.6875C8.89312 4.6875 4.6875 8.89313 4.6875 14.0625C4.6875 14.7806 4.77562 15.4875 4.93594 16.1794C3.78062 16.5298 2.76842 17.242 2.04854 18.2112C1.32866 19.1804 0.939178 20.3552 0.9375 21.5625C0.9375 24.6647 3.46031 27.1875 6.5625 27.1875H13.3631C13.2059 28.1168 13.1263 29.0575 13.125 30C13.125 32.0634 13.5066 33.7425 14.1225 35.1769L5.75906 43.5413L1.10531 55.6406C0.932165 56.0952 0.894204 56.5902 0.996006 57.0659C1.09781 57.5417 1.33503 57.9778 1.67907 58.3217C2.02311 58.6656 2.45928 58.9027 2.93502 59.0044C3.41076 59.1061 3.90574 59.068 4.36031 58.8947L16.4597 54.2409L22.575 48.1247C22.5291 48.3263 22.5 48.5344 22.5 48.75C22.5 49.4728 22.7822 50.1263 23.2312 50.625C22.7627 51.1373 22.502 51.8058 22.5 52.5C22.5 53.8031 23.3953 54.8925 24.6 55.2094C25.3987 57.4969 27.5381 59.0625 30 59.0625C32.4619 59.0625 34.6012 57.4969 35.4 55.2094C36 55.0529 36.5314 54.7023 36.9112 54.2122C37.2911 53.7221 37.4981 53.1201 37.5 52.5C37.5 52.4297 37.4841 52.3641 37.4794 52.2956L38.6437 53.46L40.0097 52.095C40.5262 51.5775 41.2978 51.4266 42.0159 51.7256C42.3445 51.8614 42.6253 52.0917 42.8227 52.3873C43.0202 52.6829 43.1254 53.0305 43.125 53.3859V55.3125H48.75V53.3859C48.75 52.6566 49.1859 52.005 49.8956 51.7116C50.225 51.5721 50.5884 51.5342 50.9395 51.6025C51.2905 51.6708 51.6132 51.8423 51.8662 52.095L53.2312 53.46L57.21 49.4812L55.8459 48.1163C55.3294 47.5988 55.1784 46.8253 55.4775 46.1091C55.6126 45.7805 55.8425 45.4995 56.1378 45.302C56.4332 45.1045 56.7806 44.9994 57.1359 45H59.0625V39.375H57.1359C56.4066 39.375 55.7559 38.9391 55.4625 38.2294ZM41.415 40.9931C42.4378 39.9947 43.4625 38.9747 44.3466 37.7953C44.8554 37.6043 45.394 37.5043 45.9375 37.5C48.5222 37.5 50.625 39.6028 50.625 42.1875C50.625 44.7722 48.5222 46.875 45.9375 46.875C43.3528 46.875 41.25 44.7722 41.25 42.1875C41.25 41.7816 41.3128 41.3822 41.415 40.9931ZM42.5409 18.7856L46.875 14.4506L50.2369 17.8125L45.2297 22.8197C44.5306 21.3535 43.6252 19.9951 42.5409 18.7856ZM43.5131 8.4375L45 6.95062L53.0494 15L51.5625 16.4869L43.5131 8.4375ZM51.4959 2.8125C53.0048 2.81448 54.4513 3.41477 55.5183 4.48171C56.5852 5.54866 57.1855 6.99518 57.1875 8.50406C57.1895 9.2518 57.0433 9.99252 56.7572 10.6834C56.471 11.3742 56.0508 12.0014 55.5206 12.5288L54.375 13.6744L46.3256 5.625L47.4712 4.47937C47.9986 3.94933 48.6259 3.5291 49.3167 3.24299C50.0075 2.95688 50.7482 2.81056 51.4959 2.8125ZM42.1875 9.76312L45.5494 13.125L41.2172 17.4572C40.0087 16.3719 38.6508 15.4655 37.185 14.7656L42.1875 9.76312ZM45 30C45 34.8778 42.5437 37.2741 39.9431 39.81C38.1525 41.5566 36.3131 43.3622 35.2425 45.9938C35.0599 45.9564 34.8739 45.9375 34.6875 45.9375H30.9375V41.25C30.9375 39.6994 29.6756 38.4375 28.125 38.4375H26.25C26.0086 38.4267 25.7807 38.3232 25.6137 38.1486C25.4467 37.9739 25.3535 37.7416 25.3535 37.5C25.3535 37.2584 25.4467 37.0261 25.6137 36.8514C25.7807 36.6768 26.0086 36.5733 26.25 36.5625H35.625C37.1756 36.5625 38.4375 35.3006 38.4375 33.75C38.4375 32.1994 37.1756 30.9375 35.625 30.9375H28.125C27.6084 30.9375 27.1875 30.5175 27.1875 30V27.1875H31.875C34.4597 27.1875 36.5625 25.0847 36.5625 22.5C36.5625 19.9153 34.4597 17.8125 31.875 17.8125C31.8487 17.8125 31.8244 17.82 31.7981 17.82C31.8384 17.5069 31.875 17.1938 31.875 16.875C31.8724 16.2758 31.7982 15.6791 31.6537 15.0975C39.1275 15.93 45 22.3444 45 30ZM24.375 48.75C24.375 48.2325 24.7959 47.8125 25.3125 47.8125H34.6875C34.9289 47.8233 35.1568 47.9268 35.3238 48.1014C35.4908 48.2761 35.584 48.5084 35.584 48.75C35.584 48.9916 35.4908 49.2239 35.3238 49.3986C35.1568 49.5732 34.9289 49.6767 34.6875 49.6875H25.3125C24.7959 49.6875 24.375 49.2675 24.375 48.75ZM12.5756 48.75L19.4672 41.8584C20.6203 43.0022 21.6909 44.1591 22.4803 45.5681L15.9375 52.1119L12.5756 48.75ZM2.8125 21.5625C2.8125 19.4944 4.49437 17.8125 6.5625 17.8125C8.63062 17.8125 10.3125 19.4944 10.3125 21.5625H12.1875C12.1875 18.5419 9.79219 16.0763 6.8025 15.9497C6.64265 15.3334 6.562 14.6992 6.5625 14.0625C6.5625 9.92719 9.92719 6.5625 14.0625 6.5625C15.3954 6.56281 16.7039 6.91942 17.8526 7.5954C19.0013 8.27138 19.9485 9.24215 20.5959 10.4072C19.5857 10.9972 18.7273 11.8152 18.0894 12.7959C17.4515 13.7767 17.0517 14.8929 16.9219 16.0556C15.285 16.4587 14.0625 17.9278 14.0625 19.6875H15.9375C15.9375 18.6534 16.7784 17.8125 17.8125 17.8125C18.8466 17.8125 19.6875 18.6534 19.6875 19.6875H21.5625C21.5625 17.9672 20.3925 16.53 18.8109 16.0894C19.1953 13.3594 21.54 11.25 24.375 11.25C27.4772 11.25 30 13.7728 30 16.875C30 17.3681 29.9194 17.8509 29.7937 18.3216C28.2562 19.0912 27.1875 20.6663 27.1875 22.5H29.0625C29.0625 20.9494 30.3244 19.6875 31.875 19.6875C33.4256 19.6875 34.6875 20.9494 34.6875 22.5C34.6875 24.0506 33.4256 25.3125 31.875 25.3125H6.5625C4.49437 25.3125 2.8125 23.6306 2.8125 21.5625ZM25.3125 27.1875V30C25.3125 31.5506 26.5744 32.8125 28.125 32.8125H35.625C35.8664 32.8233 36.0943 32.9268 36.2613 33.1014C36.4283 33.2761 36.5215 33.5084 36.5215 33.75C36.5215 33.9916 36.4283 34.2239 36.2613 34.3986C36.0943 34.5732 35.8664 34.6767 35.625 34.6875H26.25C24.6994 34.6875 23.4375 35.9494 23.4375 37.5C23.4375 39.0506 24.6994 40.3125 26.25 40.3125H28.125C28.6416 40.3125 29.0625 40.7325 29.0625 41.25V45.9375H25.3125C25.1222 45.9375 24.9366 45.9572 24.7575 45.9938C23.6869 43.3622 21.8475 41.5566 20.0569 39.81C17.4562 37.2741 15 34.8778 15 30C15 29.0522 15.1134 28.1128 15.2887 27.1875H25.3125ZM18.1284 40.5459L11.25 47.4244L7.88812 44.0625L15.0412 36.9094C15.9216 38.2912 17.0128 39.4444 18.1284 40.5459ZM6.91969 45.7453L14.2547 53.0803L8.04469 55.4691L4.53094 51.9553L6.91969 45.7453ZM3.68812 57.1444C3.28219 57.3019 2.8125 56.9784 2.8125 56.5434C2.8125 56.4637 2.8275 56.3859 2.85469 56.3128L3.79406 53.8697L6.12937 56.205L3.68812 57.1444ZM30 57.1875C29.3342 57.1871 28.6799 57.0142 28.1009 56.6856C27.5219 56.3569 27.038 55.8839 26.6962 55.3125H33.3037C32.962 55.8839 32.4781 56.3569 31.8991 56.6856C31.3201 57.0142 30.6658 57.1871 30 57.1875ZM34.6875 53.4375H25.3125C25.0711 53.4267 24.8432 53.3232 24.6762 53.1486C24.5092 52.9739 24.416 52.7416 24.416 52.5C24.416 52.2584 24.5092 52.0261 24.6762 51.8514C24.8432 51.6768 25.0711 51.5733 25.3125 51.5625H34.6875C34.9289 51.5733 35.1568 51.6768 35.3238 51.8514C35.4908 52.0261 35.584 52.2584 35.584 52.5C35.584 52.7416 35.4908 52.9739 35.3238 53.1486C35.1568 53.3232 34.9289 53.4267 34.6875 53.4375ZM57.1875 43.125H57.1359C55.6444 43.125 54.3131 44.0156 53.7319 45.4237C53.4487 46.0959 53.3724 46.8372 53.5127 47.5529C53.653 48.2687 54.0034 48.9263 54.5194 49.4419L54.5587 49.4812L53.2312 50.8088L53.1919 50.7694C52.1344 49.7119 50.5556 49.4016 49.1428 49.9941C48.4707 50.2703 47.8961 50.7405 47.4922 51.3446C47.0884 51.9486 46.8735 52.6593 46.875 53.3859V53.4375H45V53.3859C45 51.8944 44.1094 50.5631 42.7012 49.9809C42.029 49.6973 41.2873 49.6208 40.5713 49.7613C39.8553 49.9018 39.1975 50.2528 38.6822 50.7694L38.6428 50.8088L37.3725 49.5384C37.4475 49.2863 37.5 49.0256 37.5 48.75C37.5 48.0844 37.2581 47.4806 36.87 46.9978C37.4531 45.4238 38.3672 44.1647 39.4312 43.0022C39.8344 46.2366 42.5953 48.75 45.9375 48.75C49.5562 48.75 52.5 45.8053 52.5 42.1875C52.5 38.5697 49.5562 35.625 45.9375 35.625C45.8456 35.625 45.7566 35.6344 45.6656 35.6381C46.3003 34.3209 46.7362 32.7938 46.8459 30.9375H46.875V30.9891C46.875 32.4806 47.7656 33.8128 49.1728 34.3931C49.845 34.6771 50.5866 34.7539 51.3027 34.6136C52.0188 34.4733 52.6766 34.1223 53.1919 33.6056L53.2312 33.5662L54.5587 34.8938L54.5194 34.9331C53.4637 35.9897 53.1544 37.5675 53.7441 38.9813C54.0201 39.6536 54.4902 40.2284 55.0943 40.6325C55.6984 41.0366 56.4091 41.2516 57.1359 41.25H57.1875V43.125Z" fill="#2A3FCC"/>
</g>
<defs>
<clipPath id="clip0_2012_338">
<rect width="60" height="60" fill="white"/>
</clipPath>
</defs>
</svg>
