<svg width="60" height="60" viewBox="0 0 60 60" fill="none" xmlns="http://www.w3.org/2000/svg">
<g clip-path="url(#clip0_2012_341)">
<path d="M57.6246 13.2388L30.3823 0.0873603C30.2631 0.029862 30.1325 0 30.0002 0C29.8679 0 29.7373 0.029862 29.6181 0.0873603L2.37566 13.2388C2.22682 13.3107 2.10125 13.4231 2.01338 13.5631C1.92551 13.7031 1.87891 13.865 1.87891 14.0303V45.9697C1.87891 46.135 1.92551 46.2969 2.01338 46.4369C2.10125 46.5769 2.22682 46.6893 2.37566 46.7612L29.618 59.9126C29.7372 59.9701 29.8678 60 30.0002 60C30.1325 60 30.2631 59.9701 30.3823 59.9126L57.6246 46.7612C57.7735 46.6893 57.8991 46.5769 57.9869 46.4369C58.0748 46.2969 58.1214 46.135 58.1214 45.9697V14.0304C58.1214 13.8651 58.0748 13.7032 57.9869 13.5632C57.8991 13.4232 57.7735 13.3107 57.6246 13.2388ZM30.0002 1.8549L55.2209 14.0303L47.9099 17.5598C47.8636 17.5236 47.8137 17.4922 47.7611 17.466L22.7117 5.37345L30.0002 1.8549ZM20.7268 6.3672L45.9108 18.5249L40.7528 21.0151L15.5792 8.86224L20.7268 6.3672ZM46.5 20.1923V29.3969L41.6821 31.7228V22.5182L46.5 20.1923ZM56.3636 45.4182L30.8791 57.7208V27.7334L36.9579 24.7988C37.0619 24.7486 37.1549 24.6785 37.2317 24.5923C37.3085 24.5062 37.3677 24.4057 37.4057 24.2968C37.4437 24.1878 37.4598 24.0724 37.4533 23.9571C37.4467 23.8419 37.4174 23.7291 37.3673 23.6252C37.3171 23.5212 37.2469 23.4282 37.1608 23.3514C37.0746 23.2746 36.9742 23.2154 36.8652 23.1774C36.7562 23.1394 36.6408 23.1233 36.5256 23.1298C36.4104 23.1364 36.2976 23.1657 36.1936 23.2158L30.0002 26.2059L27.5631 25.0293C27.4592 24.9791 27.3464 24.9499 27.2311 24.9432C27.1159 24.9366 27.0005 24.9528 26.8915 24.9908C26.7825 25.0288 26.6821 25.0879 26.5959 25.1648C26.5098 25.2416 26.4397 25.3347 26.3895 25.4387C26.3393 25.5426 26.3101 25.6554 26.3035 25.7706C26.2969 25.8859 26.3131 26.0013 26.3511 26.1102C26.3891 26.2192 26.4482 26.3197 26.525 26.4058C26.6019 26.4919 26.6949 26.5621 26.7988 26.6123L29.1213 27.7334V57.7208L3.63672 45.4179V15.4306L23.043 24.7992C23.1619 24.8568 23.2923 24.8868 23.4244 24.8868C23.6236 24.8871 23.8169 24.8196 23.9728 24.6956C24.1286 24.5716 24.2377 24.3983 24.2822 24.2042C24.3267 24.01 24.3039 23.8065 24.2176 23.627C24.1313 23.4475 23.9866 23.3027 23.8071 23.2162L4.77941 14.0303L13.5105 9.81533L39.9121 22.561C39.916 22.5664 39.9203 22.5712 39.9243 22.5765V33.1232C39.9244 33.272 39.9622 33.4183 40.0342 33.5485C40.1062 33.6786 40.2101 33.7884 40.3361 33.8675C40.4621 33.9466 40.6061 33.9924 40.7546 34.0006C40.9032 34.0089 41.0514 33.9793 41.1853 33.9147L47.7611 30.7402C47.91 30.6684 48.0355 30.556 48.1234 30.416C48.2113 30.276 48.2579 30.114 48.2579 29.9487V19.3438L56.3636 15.4307V45.4182Z" fill="#2A3FCC"/>
<path d="M10.8898 42.0093L6.89192 40.0794C6.682 39.978 6.44043 39.9642 6.22033 40.041C6.00023 40.1177 5.81964 40.2788 5.71829 40.4887C5.61693 40.6986 5.60312 40.9402 5.67989 41.1603C5.75665 41.3804 5.91771 41.561 6.12762 41.6623L10.1255 43.5923C10.2444 43.65 10.3748 43.6799 10.5069 43.68C10.6723 43.6801 10.8344 43.6335 10.9745 43.5455C11.1147 43.4576 11.2271 43.332 11.299 43.183C11.3492 43.079 11.3784 42.9662 11.385 42.851C11.3916 42.7358 11.3755 42.6204 11.3375 42.5114C11.2995 42.4024 11.2404 42.302 11.1636 42.2158C11.0867 42.1297 10.9937 42.0595 10.8898 42.0093ZM14.5691 39.6144L6.89743 35.9108C6.68801 35.8133 6.44861 35.8021 6.23102 35.8797C6.01344 35.9573 5.83515 36.1175 5.73472 36.3255C5.63429 36.5336 5.6198 36.7728 5.69438 36.9914C5.76896 37.2101 5.92662 37.3906 6.13325 37.4939L13.8049 41.1975C13.9238 41.2551 14.0542 41.285 14.1864 41.2851C14.3856 41.2854 14.579 41.218 14.7349 41.094C14.8908 40.97 14.9999 40.7967 15.0444 40.6025C15.0889 40.4083 15.0661 40.2047 14.9797 40.0252C14.8934 39.8457 14.7486 39.7008 14.5691 39.6144Z" fill="#2A3FCC"/>
</g>
<defs>
<clipPath id="clip0_2012_341">
<rect width="60" height="60" fill="white"/>
</clipPath>
</defs>
</svg>
