<svg width="60" height="60" viewBox="0 0 60 60" fill="none" xmlns="http://www.w3.org/2000/svg">
<g clip-path="url(#clip0_2012_342)">
<path fill-rule="evenodd" clip-rule="evenodd" d="M3.10648 30.888H1.78154C1.32695 30.888 0.958008 30.5189 0.958008 30.0645C0.958008 29.6099 1.32695 29.2409 1.78154 29.2409H3.10648C3.53424 15.006 15.0122 3.52799 29.2471 3.10035V1.76494C29.2471 1.31047 29.6161 0.941406 30.0706 0.941406C30.5252 0.941406 30.8941 1.31047 30.8941 1.76494V3.10035C45.1291 3.52799 56.6071 15.006 57.0347 29.2409H58.218C58.6726 29.2409 59.0415 29.6099 59.0415 30.0645C59.0415 30.5189 58.6726 30.888 58.218 30.888H57.0347C56.6071 45.1228 45.1291 56.6008 30.8941 57.0286V58.2355C30.8941 58.69 30.5252 59.0591 30.0706 59.0591C29.6161 59.0591 29.2471 58.69 29.2471 58.2355V57.0286C15.0122 56.6008 3.53424 45.1228 3.10648 30.888ZM29.2471 4.76776C15.9321 5.19435 5.20048 15.926 4.77401 29.2409H6.09424C6.51966 16.6543 16.6605 6.51352 29.2471 6.08799V4.76776ZM55.3673 29.2409C54.9407 15.926 44.2091 5.19435 30.8941 4.76776V6.08799C43.4807 6.51352 53.6215 16.6543 54.0471 29.2409H55.3673ZM30.8941 55.3611C44.2091 54.9346 54.9407 44.2029 55.3673 30.888H54.0471C53.6215 43.4746 43.4807 53.6154 30.8941 54.0408V55.3611ZM4.77401 30.888C5.20048 44.2029 15.9321 54.9346 29.2471 55.3611V54.0408C16.6605 53.6154 6.51966 43.4746 6.09424 30.888H4.77401ZM29.2471 7.75576C17.5805 8.17976 8.18589 17.5743 7.76189 29.2409H8.88071C9.3353 29.2409 9.70424 29.6099 9.70424 30.0645C9.70424 30.5189 9.3353 30.888 8.88071 30.888H7.76189C8.18589 42.5546 17.5805 51.9492 29.2471 52.3732V51.1363C29.2471 50.6818 29.6161 50.3128 30.0706 50.3128C30.5252 50.3128 30.8941 50.6818 30.8941 51.1363V52.3732C42.5607 51.9492 51.9553 42.5546 52.3793 30.888H51.1188C50.6642 30.888 50.2953 30.5189 50.2953 30.0645C50.2953 29.6099 50.6642 29.2409 51.1188 29.2409H52.3793C51.9553 17.5743 42.5607 8.17976 30.8941 7.75576V8.86411C30.8941 9.3187 30.5252 9.68764 30.0706 9.68764C29.6161 9.68764 29.2471 9.3187 29.2471 8.86411V7.75576ZM25.4035 32.8826C25.4035 33.7508 24.8533 34.5046 23.8473 35.0255C22.719 35.6099 20.9595 35.9216 19.1964 35.9216C17.4333 35.9216 15.6739 35.6099 14.5455 35.0255C13.5395 34.5046 12.9893 33.7508 12.9893 32.8826C12.9893 29.4553 15.7677 26.6767 19.1964 26.6767C22.6237 26.6767 25.4035 29.4553 25.4035 32.8826ZM23.8072 32.8826C23.8072 30.3368 21.7421 28.2731 19.1964 28.2731C16.6497 28.2731 14.5857 30.3368 14.5857 32.8826C14.5857 33.2116 14.8984 33.4105 15.2795 33.6079C16.2282 34.0992 17.7141 34.3252 19.1964 34.3252C20.6787 34.3252 22.1646 34.0992 23.1132 33.6079C23.4945 33.4105 23.8072 33.2116 23.8072 32.8826ZM40.9448 18.3942C42.9357 18.3942 44.552 20.0106 44.552 22.0014C44.552 23.9922 42.9357 25.6086 40.9448 25.6086C38.954 25.6086 37.3377 23.9922 37.3377 22.0014C37.3377 20.0106 38.954 18.3942 40.9448 18.3942ZM40.9448 20.0609C39.8739 20.0609 39.0044 20.9305 39.0044 22.0014C39.0044 23.0723 39.8739 23.9419 40.9448 23.9419C42.0158 23.9419 42.8853 23.0723 42.8853 22.0014C42.8853 20.9305 42.0158 20.0609 40.9448 20.0609ZM47.1519 32.8826C47.1519 33.7508 46.6017 34.5046 45.5958 35.0255C44.4673 35.6099 42.7079 35.9216 40.9448 35.9216C39.1817 35.9216 37.4222 35.6099 36.2939 35.0255C35.288 34.5046 34.7377 33.7508 34.7377 32.8826C34.7377 29.4553 37.5161 26.6767 40.9448 26.6767C44.3721 26.6767 47.1519 29.4553 47.1519 32.8826ZM45.5555 32.8826C45.5555 30.3368 43.4906 28.2731 40.9448 28.2731C38.398 28.2731 36.3341 30.3368 36.3341 32.8826C36.3341 33.2116 36.6467 33.4105 37.028 33.6079C37.9766 34.0992 39.4626 34.3252 40.9448 34.3252C42.4271 34.3252 43.913 34.0992 44.8617 33.6079C45.243 33.4105 45.5555 33.2116 45.5555 32.8826ZM37.7374 41.4654C37.7374 42.4936 37.0706 43.3752 35.8793 43.9921C34.4702 44.7218 32.2722 45.1061 30.0706 45.1061C27.869 45.1061 25.671 44.7218 24.2619 43.9921C23.0706 43.3752 22.4039 42.4936 22.4039 41.4654C22.4039 37.2322 25.8357 33.8003 30.0706 33.8003C34.3039 33.8003 37.7374 37.2322 37.7374 41.4654ZM36.1515 41.4654C36.1515 38.108 33.4281 35.3861 30.0706 35.3861C26.7117 35.3861 23.9897 38.108 23.9897 41.4654C23.9897 41.9576 24.421 42.2886 24.9912 42.5839C26.2217 43.2212 28.1479 43.5202 30.0706 43.5202C31.9933 43.5202 33.9195 43.2212 35.1501 42.5839C35.7204 42.2886 36.1515 41.9576 36.1515 41.4654ZM30.0706 23.2789C32.4761 23.2789 34.429 25.2319 34.429 27.6373C34.429 30.0428 32.4761 31.9956 30.0706 31.9956C27.6652 31.9956 25.7122 30.0428 25.7122 27.6373C25.7122 25.2319 27.6652 23.2789 30.0706 23.2789ZM30.0706 24.9456C28.5851 24.9456 27.379 26.1518 27.379 27.6373C27.379 29.1229 28.5851 30.3291 30.0706 30.3291C31.5562 30.3291 32.7624 29.1229 32.7624 27.6373C32.7624 26.1518 31.5562 24.9456 30.0706 24.9456ZM19.1964 18.3942C21.1873 18.3942 22.8035 20.0106 22.8035 22.0014C22.8035 23.9922 21.1873 25.6086 19.1964 25.6086C17.2055 25.6086 15.5893 23.9922 15.5893 22.0014C15.5893 20.0106 17.2055 18.3942 19.1964 18.3942ZM19.1964 20.0609C18.1254 20.0609 17.2559 20.9305 17.2559 22.0014C17.2559 23.0723 18.1254 23.9419 19.1964 23.9419C20.2674 23.9419 21.137 23.0723 21.137 22.0014C21.137 20.9305 20.2674 20.0609 19.1964 20.0609Z" fill="#2A3FCC"/>
</g>
<defs>
<clipPath id="clip0_2012_342">
<rect width="60" height="60" fill="white"/>
</clipPath>
</defs>
</svg>
