<svg width="60" height="60" viewBox="0 0 60 60" fill="none" xmlns="http://www.w3.org/2000/svg">
<path d="M53.4375 11.2499H45.9375V6.50613C45.9344 6.30073 45.8625 6.10231 45.7333 5.94256C45.6041 5.78282 45.4252 5.67097 45.225 5.62488L30.225 1.87488C30.0755 1.85681 29.9245 1.85681 29.775 1.87488L14.775 5.62488C14.5717 5.67171 14.3904 5.78634 14.2609 5.94991C14.1314 6.11348 14.0614 6.31625 14.0625 6.52488V11.2499H6.5625C5.3193 11.2499 4.12701 11.7437 3.24794 12.6228C2.36886 13.5019 1.875 14.6942 1.875 15.9374V44.0624C1.875 45.3056 2.36886 46.4979 3.24794 47.3769C4.12701 48.256 5.3193 48.7499 6.5625 48.7499H19.2375L16.2375 56.2499H12.1875C11.9389 56.2499 11.7004 56.3486 11.5246 56.5245C11.3488 56.7003 11.25 56.9387 11.25 57.1874C11.25 57.436 11.3488 57.6745 11.5246 57.8503C11.7004 58.0261 11.9389 58.1249 12.1875 58.1249H47.8125C48.0611 58.1249 48.2996 58.0261 48.4754 57.8503C48.6512 57.6745 48.75 57.436 48.75 57.1874C48.75 56.9387 48.6512 56.7003 48.4754 56.5245C48.2996 56.3486 48.0611 56.2499 47.8125 56.2499H43.7625L40.7625 48.7499H53.4375C54.6807 48.7499 55.873 48.256 56.7521 47.3769C57.6311 46.4979 58.125 45.3056 58.125 44.0624V15.9374C58.125 14.6942 57.6311 13.5019 56.7521 12.6228C55.873 11.7437 54.6807 11.2499 53.4375 11.2499ZM15.9375 7.23738L30 3.74988L44.0625 7.19988V25.3124C44.0625 29.042 42.5809 32.6188 39.9437 35.2561C37.3065 37.8933 33.7296 39.3749 30 39.3749C26.2704 39.3749 22.6935 37.8933 20.0563 35.2561C17.4191 32.6188 15.9375 29.042 15.9375 25.3124V7.23738ZM41.7375 56.2499H18.2625L21.2625 48.7499H38.7375L41.7375 56.2499ZM56.25 44.0624C56.25 44.8083 55.9537 45.5237 55.4262 46.0511C54.8988 46.5786 54.1834 46.8749 53.4375 46.8749H6.5625C5.81658 46.8749 5.10121 46.5786 4.57376 46.0511C4.04632 45.5237 3.75 44.8083 3.75 44.0624V15.9374C3.75 15.1915 4.04632 14.4761 4.57376 13.9486C5.10121 13.4212 5.81658 13.1249 6.5625 13.1249H14.0625V25.3124C14.0625 29.5393 15.7416 33.593 18.7305 36.5819C21.7193 39.5708 25.7731 41.2499 30 41.2499C34.2269 41.2499 38.2807 39.5708 41.2695 36.5819C44.2584 33.593 45.9375 29.5393 45.9375 25.3124V13.1249H53.4375C54.1834 13.1249 54.8988 13.4212 55.4262 13.9486C55.9537 14.4761 56.25 15.1915 56.25 15.9374V44.0624Z" fill="#2A3FCC"/>
<path d="M30 31.875C32.0396 31.875 34.0334 31.2702 35.7293 30.137C37.4252 29.0039 38.747 27.3933 39.5275 25.5089C40.308 23.6246 40.5123 21.5511 40.1143 19.5506C39.7164 17.5502 38.7343 15.7127 37.292 14.2705C35.8498 12.8282 34.0123 11.8461 32.0119 11.4482C30.0114 11.0502 27.9379 11.2545 26.0536 12.035C24.1692 12.8155 22.5586 14.1373 21.4255 15.8332C20.2923 17.5291 19.6875 19.5229 19.6875 21.5625C19.6925 24.296 20.7805 26.9162 22.7134 28.8491C24.6463 30.782 27.2665 31.87 30 31.875ZM30 13.125C31.6688 13.125 33.3001 13.6199 34.6876 14.547C36.0752 15.4741 37.1566 16.7919 37.7952 18.3336C38.4338 19.8754 38.6009 21.5719 38.2754 23.2086C37.9498 24.8453 37.1462 26.3487 35.9662 27.5287C34.7862 28.7087 33.2828 29.5123 31.6461 29.8379C30.0094 30.1634 28.3129 29.9964 26.7711 29.3577C25.2294 28.7191 23.9116 27.6377 22.9845 26.2501C22.0574 24.8626 21.5625 23.2313 21.5625 21.5625C21.5675 19.3263 22.458 17.183 24.0393 15.6018C25.6205 14.0205 27.7638 13.13 30 13.125Z" fill="#2A3FCC"/>
<path d="M25.5937 25.9686C25.6778 26.0583 25.7795 26.1298 25.8924 26.1786C26.0052 26.2275 26.1269 26.2527 26.2499 26.2527C26.3729 26.2527 26.4946 26.2275 26.6075 26.1786C26.7203 26.1298 26.822 26.0583 26.9062 25.9686L29.9999 22.8936L33.0937 25.9686C33.1778 26.0583 33.2795 26.1298 33.3924 26.1786C33.5052 26.2275 33.6269 26.2527 33.7499 26.2527C33.8729 26.2527 33.9946 26.2275 34.1075 26.1786C34.2203 26.1298 34.322 26.0583 34.4062 25.9686C34.4959 25.8844 34.5673 25.7828 34.6162 25.6699C34.6651 25.557 34.6903 25.4353 34.6903 25.3124C34.6903 25.1894 34.6651 25.0677 34.6162 24.9548C34.5673 24.8419 34.4959 24.7403 34.4062 24.6561L31.3312 21.5624L34.4062 18.4686C34.4923 18.3824 34.5607 18.2801 34.6073 18.1675C34.654 18.0549 34.678 17.9342 34.678 17.8124C34.678 17.6905 34.654 17.5698 34.6073 17.4572C34.5607 17.3446 34.4923 17.2423 34.4062 17.1561C34.32 17.0699 34.2177 17.0016 34.1051 16.9549C33.9925 16.9083 33.8718 16.8843 33.7499 16.8843C33.628 16.8843 33.5074 16.9083 33.3948 16.9549C33.2822 17.0016 33.1798 17.0699 33.0937 17.1561L29.9999 20.2311L26.9062 17.1561C26.7321 16.9821 26.4961 16.8843 26.2499 16.8843C26.0038 16.8843 25.7677 16.9821 25.5937 17.1561C25.4196 17.3302 25.3218 17.5662 25.3218 17.8124C25.3218 18.0585 25.4196 18.2946 25.5937 18.4686L28.6687 21.5624L25.5937 24.6561C25.504 24.7403 25.4325 24.8419 25.3836 24.9548C25.3348 25.0677 25.3096 25.1894 25.3096 25.3124C25.3096 25.4353 25.3348 25.557 25.3836 25.6699C25.4325 25.7828 25.504 25.8844 25.5937 25.9686Z" fill="#2A3FCC"/>
</svg>
