<svg width="32" height="32" viewBox="0 0 32 32" fill="none" xmlns="http://www.w3.org/2000/svg">
<g clip-path="url(#clip0_2020_323)">
<path d="M5.9873 2.99316H6.9873V3.99316H5.9873V2.99316Z" fill="#5A40FF"/>
<path d="M18.4873 0.437988L6.9873 5.95799V4.99299H5.9873V13.493H7.0853L5.3278 16.3045C5.1808 16.5405 4.7938 16.5405 4.6463 16.3045L2.8893 13.4935H3.9873V2.99349H2.9873V12.4935H1.0853L3.5853 16.4935H0.487305V31.4935H30.4873V9.49349H31.4873V6.67899L18.4873 0.437988ZM4.4873 17.4925H5.4873V18.4925H4.4873V17.4925ZM8.4873 30.4925H1.4873V24.4925H3.4873V26.4925H6.4873V24.4925H8.4873V30.4925ZM4.4873 25.4925V24.4925H5.4873V25.4925H4.4873ZM8.4873 23.4925H1.4873V17.4925H3.4873V19.4925H6.4873V17.4925H8.4873V23.4925ZM16.4873 30.4925H9.4873V24.4925H11.4873V26.4925H14.4873V24.4925H16.4873V30.4925ZM12.4873 25.4925V24.4925H13.4873V25.4925H12.4873ZM19.4873 18.9925V30.4925H17.4873V23.4925H12.4873V18.4925H14.4873V20.4925H17.4873V18.4925H19.4873V18.9925ZM15.4873 19.4925V18.4925H16.4873V19.4925H15.4873ZM19.4873 17.4925H12.4873V12.4925H14.4873V14.4925H17.4873V12.4925H19.4873V17.4925ZM15.4873 13.493V12.493H16.4873V13.493H15.4873ZM27.4873 30.4925H20.4873V25.4925H22.4873V27.4925H25.4873V25.4925H27.4873V30.4925ZM23.4873 26.4925V25.4925H24.4873V26.4925H23.4873ZM27.4873 24.4925H20.4873V19.4925H22.4873V21.4925H25.4873V19.4925H27.4873V24.4925ZM23.4873 20.4925V19.4925H24.4873V20.4925H23.4873ZM27.4873 18.4925H20.4873V13.4925H22.4873V15.4925H25.4873V13.4925H27.4873V18.4925ZM23.4873 14.493V13.493H24.4873V14.493H23.4873ZM29.4873 30.4925H28.4873V12.4925H20.4873V11.4925H11.4873V23.4925H9.4873V16.4925H6.3898L8.8898 12.4925H6.9878V9.49249H29.4878V30.4925H29.4873ZM30.4873 8.49299H6.9873V7.06749L18.4873 1.54749L30.4873 7.30749V8.49299Z" fill="#5A40FF"/>
</g>
<defs>
<clipPath id="clip0_2020_323">
<rect width="32" height="32" fill="white"/>
</clipPath>
</defs>
</svg>
