<svg width="32" height="32" viewBox="0 0 32 32" fill="none" xmlns="http://www.w3.org/2000/svg">
<path d="M12.1315 9.57899C13.1579 8.55393 14.5491 7.97805 15.9997 7.97776C17.4503 7.97748 18.8417 8.55283 19.8685 9.57749C19.9628 9.66857 20.0891 9.71897 20.2202 9.71783C20.3513 9.71669 20.4767 9.6641 20.5694 9.5714C20.6621 9.4787 20.7147 9.35329 20.7158 9.22219C20.717 9.09109 20.6666 8.96479 20.5755 8.87049C17.402 5.55399 11.4835 6.83449 9.95199 11.1465C8.29899 15.3 11.5895 20.0015 15.9995 19.914C20.4095 20.0005 23.7 15.301 22.047 11.1465C21.9999 11.0225 21.9055 10.9223 21.7846 10.8679C21.6636 10.8135 21.526 10.8094 21.402 10.8565C21.278 10.9036 21.1778 10.998 21.1234 11.1189C21.069 11.2399 21.0649 11.3775 21.112 11.5015C21.4859 12.4878 21.5673 13.5611 21.3463 14.5924C21.1252 15.6238 20.6112 16.5695 19.866 17.316C14.517 22.238 7.21299 14.9085 12.131 9.57899H12.1315Z" fill="#2A3FCC"/>
<path d="M8.42701 20.5925C8.3809 20.519 8.31682 20.4585 8.24081 20.4167C8.16481 20.3749 8.07939 20.3532 7.99265 20.3536C7.9059 20.354 7.82069 20.3765 7.74507 20.419C7.66946 20.4615 7.60593 20.5226 7.56051 20.5965L4.57501 25.7675C4.48077 25.9293 4.43436 26.1145 4.44118 26.3016C4.44799 26.4887 4.50775 26.67 4.61351 26.8245C4.7194 26.9809 4.86741 27.104 5.0404 27.1798C5.21339 27.2555 5.40429 27.2807 5.59101 27.2525L8.26601 26.845L9.25151 29.366C9.32198 29.539 9.43928 29.6889 9.59024 29.7989C9.74119 29.9089 9.91983 29.9746 10.1061 29.9887C10.2923 30.0027 10.4788 29.9646 10.6446 29.8786C10.8103 29.7925 10.9488 29.6619 11.0445 29.5015L14.2125 24.0185L14.4425 24.2485C14.8571 24.6594 15.4173 24.89 16.001 24.89C16.5848 24.89 17.1449 24.6594 17.5595 24.2485L19.267 22.541C19.4943 22.3156 19.8014 22.1893 20.1215 22.1895H22.5365C23.0407 22.1873 23.5286 22.0105 23.917 21.689L26.562 26.2655L23.492 25.7955C23.3798 25.778 23.2649 25.7994 23.1665 25.8562C23.0681 25.9129 22.9921 26.0016 22.951 26.1075L21.8235 29L19.6235 25.2C19.5547 25.0903 19.446 25.0116 19.3203 24.9804C19.1945 24.9492 19.0616 24.9681 18.9495 25.0329C18.8374 25.0978 18.7549 25.2036 18.7192 25.3282C18.6836 25.4527 18.6977 25.5862 18.7585 25.7005L20.957 29.5C21.0523 29.6613 21.1908 29.7927 21.3569 29.8792C21.523 29.9658 21.7101 30.0041 21.8968 29.9898C22.0836 29.9755 22.2626 29.9091 22.4136 29.7982C22.5645 29.6874 22.6814 29.5364 22.751 29.3625L23.7355 26.845L26.414 27.255C26.5994 27.2801 26.7881 27.253 26.9589 27.1766C27.1297 27.1003 27.2758 26.9778 27.3807 26.823C27.4857 26.6681 27.5454 26.4871 27.553 26.3002C27.5607 26.1133 27.516 25.9279 27.424 25.765L24.5715 20.825C24.683 20.5572 24.7404 20.2701 24.7405 19.98V17.565C24.7417 17.246 24.8685 16.9402 25.0935 16.714L26.8055 15.007C27.2171 14.5918 27.4479 14.0307 27.4475 13.4461C27.4472 12.8615 27.2157 12.3007 26.8035 11.886L25.094 10.181C24.8687 9.95474 24.7417 9.6488 24.7405 9.32951V6.90951C24.7398 6.32491 24.5073 5.76445 24.0939 5.35107C23.6806 4.9377 23.1201 4.70517 22.5355 4.70451H20.1205C19.9621 4.70477 19.8053 4.67362 19.659 4.61286C19.5128 4.55209 19.3801 4.46292 19.2685 4.35051L17.5585 2.64551C17.1449 2.23292 16.5845 2.00122 16.0003 2.00122C15.416 2.00122 14.8556 2.23292 14.442 2.64551L12.732 4.35001C12.6205 4.46239 12.4879 4.55154 12.3417 4.6123C12.1956 4.67306 12.0388 4.70424 11.8805 4.70401H9.46551C8.88091 4.70467 8.32044 4.9372 7.90707 5.35057C7.49369 5.76395 7.26117 6.32441 7.26051 6.90901V9.32901C7.25921 9.64813 7.1322 9.95389 6.90701 10.18L5.19701 11.8855C4.78463 12.3006 4.55318 12.8619 4.55318 13.447C4.55318 14.0321 4.78463 14.5934 5.19701 15.0085L6.90701 16.713C7.13227 16.9393 7.25928 17.2452 7.26051 17.5645C7.29451 18.008 7.07401 18.8255 7.76051 18.8545C7.89312 18.8545 8.02029 18.8018 8.11406 18.7081C8.20783 18.6143 8.26051 18.4871 8.26051 18.3545V17.5645C8.25852 16.9799 8.02603 16.4197 7.61351 16.0055L5.90501 14.302C5.6795 14.075 5.55276 13.7681 5.55239 13.4482C5.55201 13.1282 5.67803 12.821 5.90301 12.5935L7.61351 10.8875C8.02572 10.4733 8.25802 9.91335 8.26001 9.32901V6.90901C8.26041 6.58955 8.38749 6.28328 8.61338 6.05739C8.83928 5.83149 9.14554 5.70441 9.46501 5.70401H11.88C12.1696 5.70478 12.4565 5.64807 12.724 5.53719C12.9915 5.4263 13.2344 5.26343 13.4385 5.05801L15.149 3.35251C15.3751 3.12697 15.6814 3.0003 16.0008 3.0003C16.3201 3.0003 16.6264 3.12697 16.8525 3.35251L18.5625 5.05751C18.7666 5.26297 19.0095 5.4259 19.277 5.53688C19.5445 5.64785 19.8314 5.70466 20.121 5.70401H22.536C22.8555 5.70441 23.1617 5.83149 23.3876 6.05739C23.6135 6.28328 23.7406 6.58955 23.741 6.90901V9.32901C23.743 9.9136 23.9755 10.4738 24.388 10.888L26.098 12.593C26.3232 12.8201 26.4495 13.127 26.4495 13.4468C26.4495 13.7666 26.3232 14.0734 26.098 14.3005L24.3875 16.0055C23.9752 16.4198 23.7429 16.98 23.741 17.5645V19.9795C23.7413 20.2996 23.6146 20.6068 23.3887 20.8336C23.1628 21.0605 22.8561 21.1885 22.536 21.1895H20.121C19.5371 21.1889 18.9768 21.4196 18.5625 21.831L16.8525 23.541C16.6259 23.7656 16.3198 23.8916 16.0008 23.8916C15.6817 23.8916 15.3756 23.7656 15.149 23.541L13.439 21.831C13.106 21.4966 12.6718 21.2816 12.204 21.2195C12.069 21.1525 9.67301 21.2065 9.46551 21.1895C9.25544 21.1889 9.04917 21.1335 8.86705 21.0288C8.68493 20.9241 8.53326 20.7737 8.42701 20.5925ZM12.045 22.206C12.59 22.2175 13.115 22.965 13.48 23.2865L10.182 29L9.05201 26.1085C9.01029 26.0032 8.93421 25.915 8.83611 25.8583C8.73801 25.8015 8.62363 25.7796 8.51151 25.796L5.44151 26.267L8.08201 21.6945C8.47309 22.0131 8.96162 22.1878 9.46601 22.1895H11.881C11.9364 22.1894 11.9917 22.195 12.046 22.206H12.045Z" fill="#2A3FCC"/>
</svg>
