<svg width="32" height="32" viewBox="0 0 32 32" fill="none" xmlns="http://www.w3.org/2000/svg">
<path fill-rule="evenodd" clip-rule="evenodd" d="M18.3328 29.3166H2.86339C2.27496 29.3166 1.79797 28.8378 1.79797 28.2533V1.50462C1.79797 0.916699 2.27546 0.439209 2.86339 0.439209H20.0892C20.3818 0.439209 20.6351 0.545499 20.8407 0.751115L23.9962 3.90657C24.2018 4.11218 24.3081 4.36548 24.3081 4.65806V16.1484C26.69 16.17 28.6307 18.1255 28.6307 20.5123V21.6324H28.9953C29.6617 21.6324 30.2021 22.1756 30.2021 22.8391V30.3541C30.2021 31.0204 29.6617 31.5608 28.9953 31.5608H19.5411C18.8751 31.5608 18.3328 31.0201 18.3328 30.3541V29.3166ZM23.3042 16.2562V4.92837H20.6026C20.1731 4.92837 19.8189 4.57424 19.8189 4.14468V1.44313H2.86339C2.84708 1.44313 2.83144 1.44961 2.81991 1.46114C2.80837 1.47267 2.8019 1.48831 2.8019 1.50462V28.2533C2.8019 28.2865 2.82994 28.3127 2.86339 28.3127H18.3328V25.9209H4.7362C4.45918 25.9209 4.23424 25.696 4.23424 25.419C4.23424 25.142 4.45918 24.917 4.7362 24.917H18.3328V23.3853H4.7362C4.45918 23.3853 4.23424 23.1604 4.23424 22.8833C4.23424 22.6063 4.45918 22.3814 4.7362 22.3814H18.4235C18.6046 21.9431 19.0375 21.6324 19.5411 21.6324H19.9041V20.5123C19.9041 18.4432 21.3638 16.6982 23.3042 16.2562ZM22.5943 3.92445L20.8229 2.15303V3.92445H22.5943ZM27.6268 21.6324V20.5123C27.6268 18.6644 26.1162 17.1521 24.2682 17.1521C22.4203 17.1521 20.9081 18.6643 20.9081 20.5123V21.6324H21.6733V20.5123C21.6733 19.0872 22.8452 17.9158 24.2682 17.9158C25.6912 17.9158 26.8631 19.0872 26.8631 20.5123V21.6324H27.6268ZM22.6772 21.6324H25.8592V20.5123C25.8592 19.6384 25.1409 18.9197 24.2682 18.9197C23.3956 18.9197 22.6772 19.6384 22.6772 20.5123V21.6324ZM19.5411 22.6363C19.4288 22.6363 19.3367 22.7273 19.3367 22.8391V30.3541C19.3367 30.4664 19.4288 30.5569 19.5411 30.5569H28.9953C29.0491 30.5569 29.1007 30.5355 29.1387 30.4975C29.1768 30.4594 29.1981 30.4079 29.1981 30.3541V22.8391C29.198 22.7853 29.1767 22.7338 29.1386 22.6958C29.1006 22.6578 29.0491 22.6364 28.9953 22.6363H19.5411ZM24.2682 23.413C25.304 23.413 26.1437 24.2543 26.1437 25.2901C26.1443 25.5604 26.0863 25.8277 25.9737 26.0735C25.861 26.3193 25.6965 26.5377 25.4913 26.7137V28.5571C25.4913 29.231 24.9394 29.7801 24.2682 29.7801C23.5943 29.7801 23.0452 29.231 23.0452 28.5571L23.0452 26.7138C22.6447 26.3699 22.3912 25.8601 22.3912 25.2901C22.3912 24.2545 23.2326 23.413 24.2682 23.413ZM24.2682 24.4169C23.7865 24.4169 23.3951 24.8084 23.3951 25.2901C23.3951 25.6048 23.5614 25.8799 23.8106 26.0336C23.8835 26.0786 23.9437 26.1414 23.9854 26.2162C24.0272 26.291 24.0491 26.3752 24.0491 26.4609V28.5571C24.0492 28.6152 24.0723 28.6709 24.1134 28.712C24.1545 28.753 24.2102 28.7761 24.2682 28.7762C24.3263 28.776 24.3819 28.7529 24.423 28.7118C24.464 28.6708 24.4872 28.6152 24.4874 28.5571V26.4609C24.4874 26.3752 24.5093 26.291 24.551 26.2162C24.5928 26.1414 24.653 26.0786 24.7258 26.0336C24.8527 25.9555 24.9573 25.846 25.0298 25.7159C25.1023 25.5857 25.1401 25.4391 25.1398 25.2901C25.1398 24.8085 24.7498 24.4169 24.2682 24.4169ZM13.2496 3.01634L19.0323 5.49239C19.1226 5.53106 19.1996 5.5954 19.2537 5.67743C19.3078 5.75945 19.3367 5.85555 19.3367 5.95381V10.942C19.3367 14.5717 16.7065 17.7203 13.1434 18.38C13.083 18.3912 13.021 18.3912 12.9606 18.38C9.39961 17.7203 6.76933 14.5717 6.76933 10.942V5.95381C6.76934 5.85556 6.79817 5.75947 6.85227 5.67745C6.90636 5.59543 6.98333 5.53108 7.07364 5.49239L12.8544 3.0164C12.9168 2.98964 12.9841 2.97584 13.052 2.97583C13.1199 2.97582 13.1871 2.9896 13.2496 3.01634ZM13.0521 4.02384L7.77325 6.28492V10.942C7.77325 14.059 10.0099 16.7666 13.0521 17.3753C16.096 16.7666 18.3328 14.059 18.3328 10.942V6.28492L13.0521 4.02384ZM14.6825 10.3962C16.0133 10.9715 16.9795 12.2299 17.1397 13.7292C17.1472 13.7993 17.1399 13.8701 17.1182 13.9371C17.0965 14.0041 17.061 14.0658 17.014 14.1181C16.9669 14.1705 16.9093 14.2124 16.845 14.2411C16.7807 14.2697 16.7111 14.2845 16.6406 14.2845H9.46543C9.39499 14.2845 9.32534 14.2697 9.26101 14.241C9.19668 14.2123 9.1391 14.1704 9.09203 14.118C9.04496 14.0656 9.00944 14.0039 8.98779 13.9369C8.96614 13.8699 8.95883 13.799 8.96635 13.729C9.12735 12.2296 10.0938 10.9713 11.4243 10.3962C10.9946 9.97352 10.7274 9.38591 10.7274 8.738C10.7274 7.45687 11.7719 6.41148 13.053 6.41148C14.3353 6.41148 15.3796 7.45693 15.3796 8.738C15.3796 9.38597 15.1124 9.97364 14.6825 10.3962ZM13.053 11.0645C11.6471 11.0645 10.4593 11.9989 10.0762 13.2806H16.0301C15.6477 11.9988 14.4596 11.0645 13.053 11.0645ZM13.053 10.0606C13.782 10.0606 14.3757 9.46628 14.3757 8.738C14.3757 8.00972 13.782 7.4154 13.053 7.4154C12.3248 7.4154 11.7313 8.00978 11.7313 8.738C11.7313 9.46622 12.3248 10.0606 13.053 10.0606ZM6.78495 20.8497C6.50794 20.8497 6.28299 20.6247 6.28299 20.3477C6.28299 20.0707 6.50794 19.8458 6.78495 19.8458H18.8393C19.1163 19.8458 19.3413 20.0707 19.3413 20.3477C19.3413 20.6247 19.1163 20.8497 18.8393 20.8497H6.78495Z" fill="#2A3FCC"/>
</svg>
