<svg width="22" height="22" viewBox="0 0 22 22" fill="none" xmlns="http://www.w3.org/2000/svg">
<rect width="22" height="22" rx="11" fill="white"/>
<g clip-path="url(#clip0_116_71)">
<path fill-rule="evenodd" clip-rule="evenodd" d="M13.8602 7.23687C13.8639 7.31164 13.9263 7.36976 13.9999 7.36976C14.0027 7.36976 14.0045 7.36953 14.0076 7.36953L14.9273 7.3189C14.999 7.31492 15.0564 7.25773 15.0604 7.18625L15.111 6.26679C15.1148 6.18921 15.0555 6.12289 14.9779 6.11867C14.8994 6.11421 14.8345 6.17375 14.8295 6.25132L14.796 6.8675C13.7568 5.93445 12.4265 5.42468 11.0263 5.42468C10.9996 5.42468 10.9717 5.42492 10.945 5.42515C9.46658 5.44601 8.07697 6.03335 7.03095 7.07914C6.11712 7.9925 5.55814 9.15218 5.41259 10.433C5.27197 11.6759 5.55041 12.9453 6.19634 14.0075C6.209 14.0281 6.22671 14.0451 6.2478 14.0569C6.26888 14.0687 6.29264 14.075 6.31681 14.075C6.34166 14.075 6.36744 14.0684 6.39041 14.0546C6.4565 14.0141 6.47759 13.9276 6.43728 13.8612C5.14658 11.742 5.47306 9.035 7.23017 7.27789C9.25705 5.25031 12.4572 5.16523 14.5846 7.05617L13.9924 7.08875C13.9145 7.09296 13.8552 7.15929 13.8602 7.23687ZM15.6124 8.285C16.9024 10.4042 16.577 13.1112 14.8199 14.8684C12.7931 16.8952 9.59197 16.9808 7.46548 15.0901L8.05775 15.0575C8.07617 15.0565 8.09422 15.0519 8.11085 15.0439C8.12748 15.0359 8.14237 15.0247 8.15464 15.011C8.16691 14.9972 8.17633 14.9811 8.18235 14.9637C8.18836 14.9462 8.19086 14.9278 8.1897 14.9094C8.18595 14.832 8.11892 14.7727 8.04134 14.7767L7.12259 14.8273C7.05087 14.8313 6.99345 14.8885 6.98947 14.96L6.93884 15.8794C6.93509 15.957 6.99439 16.0234 7.07197 16.0276C7.07478 16.0278 7.07666 16.0278 7.0797 16.0278C7.1533 16.0278 7.21564 15.9699 7.22033 15.8949L7.25384 15.2787C8.29212 16.2118 9.62337 16.7216 11.0235 16.7216C11.0512 16.7216 11.0791 16.7213 11.1067 16.7209C12.5842 16.6995 13.9738 16.1122 15.0189 15.0671C15.9318 14.1537 16.4917 12.9941 16.6373 11.7132C16.7779 10.4703 16.4995 9.20093 15.8526 8.13875C15.8125 8.07242 15.7253 8.05132 15.6592 8.09164C15.5931 8.13218 15.572 8.21867 15.6124 8.285Z" fill="black"/>
<path fill-rule="evenodd" clip-rule="evenodd" d="M10.4516 10.2732C11.1177 10.2732 11.6603 9.73136 11.6603 9.06527C11.6603 8.39917 11.1177 7.8573 10.4516 7.8573C9.78555 7.8573 9.24391 8.39917 9.24391 9.06527C9.24391 9.73136 9.78555 10.2732 10.4516 10.2732ZM11.5349 11.1041C11.2037 11.2806 10.8306 11.3736 10.4516 11.3736C10.0736 11.3736 9.70047 11.2806 9.36836 11.1041C8.98656 11.2297 8.64484 11.4224 8.37695 11.6635C8.09266 11.9193 7.94922 12.2429 7.94922 12.6254V13.3562C8.59891 13.7317 9.50617 13.9459 10.4516 13.9459C10.8927 13.9459 11.3186 13.9014 11.7224 13.8135C11.6167 13.6122 11.5615 13.3881 11.5616 13.1607C11.5616 12.4944 12.0266 11.935 12.6498 11.7889C12.6116 11.7443 12.5704 11.7024 12.5263 11.6635C12.2594 11.4224 11.9167 11.2297 11.5349 11.1041Z" fill="#2A3FCC"/>
<path fill-rule="evenodd" clip-rule="evenodd" d="M12.972 12.0326C12.35 12.0326 11.8438 12.5386 11.8438 13.1606C11.8438 13.7829 12.35 14.2889 12.972 14.2889C13.5941 14.2889 14.1003 13.7829 14.1003 13.1606C14.1005 12.5386 13.5943 12.0326 12.972 12.0326ZM12.3999 13.0488C12.4555 12.994 12.5445 12.994 12.5989 13.0488L12.8227 13.2727L13.3452 12.7505C13.3998 12.6954 13.4898 12.6954 13.5441 12.7505C13.5704 12.7769 13.5851 12.8126 13.5851 12.8499C13.5851 12.8871 13.5704 12.9228 13.5441 12.9492L12.9221 13.571C12.9091 13.5841 12.8935 13.5945 12.8764 13.6016C12.8593 13.6087 12.841 13.6123 12.8225 13.6123C12.7871 13.6123 12.7508 13.5985 12.7229 13.571L12.3995 13.2478C12.3453 13.1927 12.3453 13.1037 12.3999 13.0488Z" fill="black"/>
</g>
<defs>
<clipPath id="clip0_116_71">
<rect width="12" height="12" fill="white" transform="translate(5 5)"/>
</clipPath>
</defs>
</svg>
