<svg
  width="50"
  height="50"
  viewBox="0 0 50 50"
  fill="none"
  xmlns="http://www.w3.org/2000/svg">
  <rect
    x="0.477539"
    width="50"
    height="50"
    rx="25"
    transform="rotate(0.547612 0.477539 0)"
    fill="white"
  />
  <g clipPath="url(#clip0_95_152)">
    <path
      d="M31.5588 22.415C31.5502 23.3175 31.574 24.2148 31.5222 25.1169C31.4691 26.1432 31.7742 27.027 32.4152 27.8113C32.49 27.9039 32.5593 27.9965 32.6232 28.0944C32.8522 28.4478 32.8067 28.6906 32.4853 28.9577C31.7989 29.524 31.1179 30.0958 30.4316 30.6621C30.023 30.9986 29.7691 30.9908 29.3616 30.6519C28.8147 30.1981 28.3877 29.6427 28.0096 29.0501C27.9191 28.9087 27.8704 28.9136 27.7559 29.0206C27.0687 29.6788 26.3441 30.2879 25.4279 30.5872C24.0129 31.0547 22.5801 31.1167 21.1691 30.6006C19.812 30.1012 19.0056 29.0883 18.7164 27.6858C18.3963 26.1209 18.5834 24.6365 19.558 23.3218C20.297 22.329 21.3132 21.7497 22.4785 21.3987C23.6816 21.0427 24.9204 20.914 26.1645 20.8016C26.5161 20.7672 26.8623 20.738 27.2138 20.709C27.3004 20.7044 27.3761 20.6943 27.3718 20.5808C27.3665 20.0079 27.4315 19.4248 27.3018 18.8615C27.1357 18.1412 26.6696 17.7152 25.9524 17.5516C25.4401 17.4332 24.9318 17.4608 24.4331 17.6236C23.6741 17.8757 23.1989 18.3954 23.0024 19.1717C22.8956 19.5977 22.6942 19.747 22.2785 19.6998C21.3932 19.5995 20.5078 19.4992 19.6279 19.3989C19.2662 19.3576 19.0797 19.0802 19.1587 18.7297C19.6395 16.4915 21.1213 15.2464 23.2452 14.6885C24.876 14.2609 26.5244 14.2496 28.1519 14.7246C29.4616 15.1046 30.5577 15.7636 31.1615 17.0556C31.5058 17.7884 31.5793 18.5782 31.5826 19.3672C31.5837 20.3779 31.5631 21.3991 31.5588 22.415ZM27.3385 24.0609C27.3411 23.7907 27.3329 23.5204 27.3517 23.2503C27.3641 23.0829 27.3052 23.0229 27.1375 23.0375C26.7265 23.0714 26.3103 23.0728 25.8991 23.123C25.1795 23.208 24.4753 23.3796 23.8874 23.8279C23.0326 24.4845 22.8456 25.3906 22.9764 26.4133C23.1324 27.6145 24.196 28.2894 25.3455 27.9005C26.1262 27.6377 26.6072 27.0695 26.9437 26.3539C27.2965 25.6277 27.331 24.8444 27.3385 24.0609Z"
      fill="#050606"
    />
    <path
      d="M25.2215 36.2382C21.0987 36.1718 17.4072 35.0773 14.0835 32.8135C13.407 32.3531 12.7633 31.8497 12.1525 31.2981C12.0989 31.2489 12.0453 31.1998 12.0027 31.1399C11.944 31.0583 11.9017 30.9606 11.9729 30.864C12.0441 30.7566 12.1631 30.7469 12.2653 30.7965C12.502 30.9123 12.7278 31.0388 12.959 31.1599C15.0774 32.3042 17.3122 33.1362 19.658 33.672C21.7827 34.1571 23.9313 34.3938 26.115 34.3553C29.2339 34.2986 32.2444 33.7005 35.1466 32.5663C35.2876 32.5082 35.4341 32.4501 35.5803 32.4191C35.786 32.3832 35.9911 32.4122 36.0808 32.6347C36.1653 32.8408 36.0503 33.0019 35.8978 33.1301C35.7888 33.2209 35.6638 33.2954 35.5387 33.3753C33.6628 34.5679 31.6128 35.3265 29.4466 35.7868C28.0169 36.0974 26.5672 36.2403 25.2215 36.2382Z"
      fill="#F6A61F"
    />
    <path
      d="M35.6697 31.5228C35.0483 31.5115 34.4315 31.5867 33.8149 31.6456C33.6959 31.6553 33.5605 31.6864 33.5077 31.5562C33.4442 31.4097 33.5693 31.3244 33.6727 31.2552C34.4449 30.7545 35.306 30.5628 36.2089 30.5228C36.8307 30.4909 37.4465 30.5238 38.0499 30.7133C38.3248 30.797 38.4583 30.9604 38.4502 31.2414C38.4034 32.7433 37.8884 34.0462 36.792 35.1004C36.7539 35.1379 36.7103 35.1699 36.6668 35.2019C36.5688 35.2712 36.4493 35.3349 36.3475 35.2475C36.251 35.1655 36.3062 35.0471 36.3503 34.9503C36.6767 34.159 37.0085 33.3731 37.1733 32.5262C37.196 32.4183 37.2024 32.3103 37.2088 32.2077C37.2176 31.8565 37.0947 31.704 36.7497 31.6142C36.3886 31.5135 36.0264 31.5262 35.6697 31.5228Z"
      fill="#F6A61F"
    />
  </g>
  <defs>
    <clipPath id="clip0_95_152">
      <rect
        width="30.303"
        height="22"
        fill="white"
        transform="translate(10.1914 14.0935) rotate(0.547612)"
      />
    </clipPath>
  </defs>
</svg>