<svg width="22" height="22" viewBox="0 0 22 22" fill="none" xmlns="http://www.w3.org/2000/svg">
<rect width="22" height="22" rx="11" fill="white"/>
<path d="M10.6201 11.157V16.6698" stroke="black" stroke-width="0.4"/>
<path d="M14.412 11.1414L9.14749 11.0244C8.62466 11.0128 8.18118 11.4059 8.13006 11.9264L7.76699 15.6231C7.70924 16.2112 8.17129 16.7208 8.7622 16.7208H15.6049C16.2898 16.7208 16.772 16.0479 16.5518 15.3994L15.3367 11.8197C15.2016 11.4217 14.8321 11.1507 14.412 11.1414Z" fill="url(#paint0_linear_116_37)" stroke="black" stroke-width="0.4"/>
<path d="M12.9678 11.106C13.6143 13.0457 14.7543 16.823 13.7334 16.7209" stroke="black" stroke-width="0.4"/>
<path d="M8.67832 5.2771C7.16273 5.2771 5.92969 6.51014 5.92969 8.02575V9.37164C5.92969 9.46329 6.00406 9.53761 6.09572 9.53761H7.01716C7.06118 9.5376 7.10339 9.52012 7.13451 9.48899C7.16564 9.45787 7.18313 9.41565 7.18313 9.37164V8.02575C7.18313 7.20131 7.85386 6.53056 8.6783 6.53056C9.50275 6.53056 10.1735 7.20131 10.1735 8.02575V9.37164C10.1735 9.46329 10.2479 9.53761 10.3395 9.53761H11.261C11.305 9.5376 11.3472 9.52012 11.3783 9.48899C11.4095 9.45787 11.427 9.41565 11.427 9.37164V8.02575C11.427 6.51014 10.1939 5.2771 8.67832 5.2771ZM11.095 9.20567H10.5055V8.02575C10.5055 7.01827 9.68582 6.19862 8.67836 6.19862C7.6709 6.19862 6.85125 7.01827 6.85125 8.02575V9.20567H6.26169V8.02575C6.26169 6.69318 7.34579 5.60906 8.67834 5.60906C10.0109 5.60906 11.095 6.69318 11.095 8.02575V9.20567Z" fill="#2A3FCC"/>
<rect x="5" y="9.20569" width="7.35581" height="5.88854" rx="1" fill="white"/>
<path d="M11.6428 9.20569H5.71304C5.31988 9.20569 5 9.52557 5 9.91873V14.3812C5 14.7743 5.31988 15.0942 5.71304 15.0942H11.6428C12.0359 15.0942 12.3558 14.7743 12.3558 14.3812V9.91873C12.3558 9.52557 12.0359 9.20569 11.6428 9.20569ZM12.0239 14.3812C12.0239 14.5913 11.8529 14.7623 11.6428 14.7623H5.71304C5.5029 14.7623 5.33194 14.5913 5.33194 14.3812V9.91873C5.33194 9.70859 5.5029 9.53763 5.71304 9.53763H11.6428C11.8529 9.53763 12.0239 9.70859 12.0239 9.91873V14.3812Z" fill="black"/>
<path d="M9.23561 12.3673C9.42952 12.204 9.54236 11.9651 9.54236 11.7084C9.54236 11.2315 9.15436 10.8435 8.67744 10.8435C8.20051 10.8435 7.8125 11.2315 7.8125 11.7084C7.8125 11.9651 7.92534 12.204 8.11928 12.3674L7.9327 13.2563C7.92764 13.2805 7.92803 13.3055 7.93384 13.3295C7.93965 13.3535 7.95074 13.3759 7.9663 13.395C7.98186 13.4142 8.0015 13.4297 8.02379 13.4403C8.04608 13.4509 8.07046 13.4564 8.09514 13.4564H9.25974C9.28442 13.4564 9.3088 13.4509 9.33109 13.4403C9.35338 13.4297 9.37302 13.4142 9.38858 13.3951C9.40414 13.3759 9.41523 13.3535 9.42104 13.3295C9.42684 13.3055 9.42722 13.2805 9.42214 13.2564L9.23561 12.3673ZM8.96221 12.1572C8.93374 12.1753 8.91147 12.2017 8.89837 12.2328C8.88527 12.2639 8.88196 12.2983 8.88889 12.3313L9.05532 13.1244H8.29958L8.46605 12.3314C8.47298 12.2983 8.46968 12.264 8.45658 12.2328C8.44348 12.2017 8.4212 12.1754 8.39272 12.1572C8.23726 12.0583 8.14446 11.8905 8.14446 11.7084C8.14446 11.4146 8.38354 11.1755 8.67744 11.1755C8.97132 11.1755 9.2104 11.4146 9.2104 11.7084C9.21044 11.8905 9.11764 12.0583 8.96221 12.1572Z" fill="#2A3FCC"/>
<defs>
<linearGradient id="paint0_linear_116_37" x1="12.3298" y1="11.0038" x2="12.3298" y2="16.7208" gradientUnits="userSpaceOnUse">
<stop offset="0.538541" stop-color="white"/>
<stop offset="1" stop-color="#5A40FF"/>
</linearGradient>
</defs>
</svg>
