<svg
  width="50"
  height="50"
  viewBox="0 0 50 50"
  fill="none"
  xmlns="http://www.w3.org/2000/svg">
  <rect
    x="0.477539"
    width="50"
    height="50"
    rx="25"
    transform="rotate(0.547612 0.477539 0)"
    fill="white"
  />
  <path
    d="M26.4596 22.2468C26.3536 22.246 26.2521 22.2031 26.1777 22.1275C26.1032 22.0519 26.0619 21.9499 26.0627 21.8438L26.0926 17.8439C26.0981 17.1014 25.8085 16.387 25.2873 15.858C24.7662 15.329 24.0562 15.0286 23.3136 15.0231C22.571 15.0175 21.8567 15.3072 21.3277 15.8283C20.7986 16.3495 20.4983 17.0595 20.4928 17.802L20.4628 21.8019C20.462 21.908 20.4191 22.0094 20.3436 22.0839C20.268 22.1583 20.1659 22.1997 20.0599 22.1989C19.9538 22.1981 19.8523 22.1552 19.7779 22.0796C19.7034 22.0041 19.6621 21.902 19.6629 21.7959L19.6928 17.7961C19.6999 16.8413 20.0861 15.9285 20.7662 15.2584C21.4464 14.5884 22.3649 14.216 23.3196 14.2231C24.2744 14.2302 25.1872 14.6164 25.8572 15.2965C26.5273 15.9767 26.8997 16.8952 26.8926 17.8499L26.8626 21.8498C26.8618 21.9559 26.8189 22.0573 26.7434 22.1318C26.6678 22.2062 26.5657 22.2476 26.4596 22.2468Z"
    fill="#DADCDE"
  />
  <path
    d="M27.1547 36.2524L13.5551 36.1507L14.4748 20.1572L26.4744 20.247L27.1547 36.2524Z"
    fill="#EB423F"
  />
  <path
    d="M30.3548 36.2763L27.1549 36.2524L26.4746 20.2469L29.6745 20.2708L30.3548 36.2763Z"
    fill="#D13330"
  />
  <path
    d="M28.7935 34.2641C28.7855 34.2646 28.7775 34.2645 28.7695 34.2644C28.6676 34.2636 28.5698 34.2239 28.4961 34.1533C28.4225 34.0828 28.3786 33.9868 28.3733 33.885L27.6751 20.2794C27.6747 20.2714 27.6747 20.2639 27.6748 20.2559L28.4758 20.2619L29.1727 33.844C29.1781 33.9499 29.1412 34.0537 29.0701 34.1325C28.999 34.2113 28.8995 34.2586 28.7935 34.2641Z"
    fill="#A82A27"
  />
  <path
    d="M36.7541 36.3243L33.5542 36.3004L33.509 35.6535L33.509 35.653L32.832 25.8947L36.0319 25.9187L36.6977 35.5084L36.6977 35.5089L36.7541 36.3243Z"
    fill="#EBA72E"
  />
  <path
    d="M35.2094 34.3107C35.1959 34.312 35.1824 34.3126 35.1688 34.3124C35.0698 34.3115 34.9745 34.2739 34.9016 34.2069C34.8287 34.1398 34.7832 34.0481 34.774 33.9494L34.7606 33.8063L34.0339 25.9437C34.0326 25.9304 34.0321 25.917 34.0322 25.9037L34.8342 25.9097L35.5614 33.7758L35.5706 33.8754C35.5755 33.9277 35.57 33.9804 35.5545 34.0306C35.5389 34.0808 35.5137 34.1274 35.4801 34.1679C35.4466 34.2083 35.4054 34.2417 35.359 34.2662C35.3125 34.2907 35.2617 34.3058 35.2094 34.3107Z"
    fill="#E09F2C"
  />
  <path
    d="M36.7543 36.3242L36.2734 36.3206L35.1669 34.6332L34.0354 36.3038L33.5544 36.3002L33.5093 35.6534L33.5093 35.6529L34.7606 33.8062L34.841 33.6878C34.878 33.6333 34.9279 33.5888 34.9862 33.5582C35.0445 33.5276 35.1095 33.5118 35.1753 33.5123C35.2412 33.5128 35.3059 33.5295 35.3638 33.561C35.4216 33.5925 35.4708 33.6377 35.507 33.6928L35.5614 33.7757L36.6979 35.5082L36.6979 35.5087L36.7543 36.3242Z"
    fill="#E09F2C"
  />
  <path
    d="M33.5543 36.3004L23.1546 36.2226L24.0324 25.8289L32.8321 25.8948L33.5543 36.3004Z"
    fill="#F7B030"
  />
  <path
    d="M28.7756 33.4645L27.9756 33.4585C27.4454 33.454 26.9386 33.2393 26.5665 32.8615C26.1944 32.4838 25.9873 31.9739 25.9906 31.4436L26.0146 28.2437C26.0154 28.1377 26.0583 28.0362 26.1339 27.9618C26.2094 27.8873 26.3115 27.8459 26.4176 27.8467C26.5236 27.8475 26.6251 27.8904 26.6995 27.966C26.774 28.0416 26.8154 28.1436 26.8146 28.2497L26.7906 31.4496C26.7886 31.7678 26.9128 32.0737 27.1361 32.3004C27.3594 32.527 27.6635 32.6558 27.9816 32.6586L28.7816 32.6645C29.0997 32.6666 29.4057 32.5423 29.6323 32.319C29.859 32.0958 29.9878 31.7917 29.9905 31.4736L30.0145 28.2737C30.0153 28.1676 30.0582 28.0662 30.1337 27.9917C30.2093 27.9173 30.3114 27.8759 30.4174 27.8767C30.5235 27.8775 30.6249 27.9204 30.6994 27.9959C30.7738 28.0715 30.8152 28.1736 30.8144 28.2797L30.7905 31.4795C30.7859 32.0098 30.5712 32.5165 30.1935 32.8887C29.8157 33.2608 29.3058 33.4679 28.7756 33.4645Z"
    fill="#E9EEF2"
  />
  <path
    d="M17.2627 21.778L18.0627 21.784L18.0447 24.1839L17.2447 24.1779L17.2627 21.778Z"
    fill="#DADCDE"
  />
  <path
    d="M17.6595 22.181C17.5534 22.1802 17.452 22.1373 17.3775 22.0617C17.3031 21.9861 17.2617 21.8841 17.2625 21.778L17.2924 17.7781C17.2995 16.8234 17.6857 15.9106 18.3658 15.2405C19.046 14.5704 19.9645 14.198 20.9192 14.2052C21.874 14.2123 22.7868 14.5984 23.4568 15.2786C24.1269 15.9587 24.4993 16.8772 24.4922 17.832L24.4622 21.8319C24.4614 21.9379 24.4185 22.0394 24.343 22.1138C24.2674 22.1883 24.1653 22.2296 24.0593 22.2288C23.9532 22.2281 23.8518 22.1851 23.7773 22.1096C23.7028 22.034 23.6615 21.9319 23.6623 21.8259L23.6922 17.826C23.6977 17.0834 23.4081 16.369 22.8869 15.84C22.3658 15.311 21.6558 15.0107 20.9132 15.0051C20.1707 14.9996 19.4563 15.2892 18.9273 15.8104C18.3982 16.3315 18.0979 17.0415 18.0924 17.7841L18.0624 21.784C18.0616 21.89 18.0187 21.9915 17.9432 22.0659C17.8676 22.1404 17.7655 22.1818 17.6595 22.181Z"
    fill="#E9EEF2"
  />
  <path
    d="M18.8212 27.3898L16.4212 27.3719L16.4452 24.172L17.6511 23.381L18.8451 24.1899L18.8212 27.3898Z"
    fill="#F7B030"
  />
  </svg>