<svg width="440" height="440" viewBox="0 0 440 440" fill="none" xmlns="http://www.w3.org/2000/svg">
<circle cx="220" cy="220" r="220" fill="url(#paint0_linear_122_188)"/>
<circle cx="220" cy="220" r="178" fill="url(#paint1_linear_122_188)"/>
<circle cx="220" cy="220" r="136" fill="url(#paint2_linear_122_188)"/>
<circle cx="220" cy="220" r="83" fill="url(#paint3_linear_122_188)"/>
<g filter="url(#filter0_d_122_188)">
<rect x="190" y="184" width="66" height="66" rx="33" fill="#2A3FCC"/>
<path fill-rule="evenodd" clip-rule="evenodd" d="M223 214.996C227.696 214.996 231.502 218.803 231.502 223.498C231.502 228.194 227.696 232 223 232C218.305 232 214.499 228.194 214.499 223.498C214.499 218.803 218.305 214.996 223 214.996ZM214.359 208.586C214.306 208.524 214.236 208.492 214.155 208.492C214.073 208.492 214.003 208.524 213.951 208.586L210.263 212.93C210.194 213.011 210.179 213.119 210.224 213.216C210.269 213.313 210.36 213.371 210.467 213.371H212.185V219.075C212.185 219.37 212.425 219.611 212.72 219.611H214.363C214.799 218.644 215.395 217.757 216.125 216.987V213.371H217.843C217.949 213.371 218.041 213.313 218.086 213.216C218.13 213.119 218.116 213.011 218.047 212.93L214.359 208.586ZM232.05 202.094C231.998 202.032 231.928 202 231.846 202C231.765 202 231.695 202.032 231.642 202.094L227.954 206.438C227.885 206.519 227.87 206.627 227.915 206.724C227.96 206.821 228.052 206.879 228.158 206.879H229.876V216.987C230.606 217.757 231.202 218.644 231.638 219.611H233.281C233.576 219.611 233.816 219.37 233.816 219.075V206.879H235.534C235.641 206.879 235.732 206.821 235.777 206.724C235.822 206.627 235.807 206.519 235.738 206.438L232.05 202.094ZM223.205 205.34L226.892 209.684C226.961 209.765 226.976 209.873 226.931 209.97C226.886 210.067 226.795 210.125 226.688 210.125H224.971V214.234C224.335 214.1 223.676 214.028 223 214.028C222.325 214.028 221.666 214.1 221.03 214.234V210.125H219.313C219.206 210.125 219.114 210.067 219.069 209.97C219.025 209.873 219.039 209.765 219.108 209.684L222.796 205.34C222.849 205.278 222.919 205.246 223 205.246C223.082 205.246 223.152 205.278 223.205 205.34ZM220.428 227.946L226.453 219.555C226.525 219.451 226.554 219.323 226.532 219.198C226.511 219.073 226.442 218.962 226.339 218.888C226.236 218.814 226.109 218.784 225.984 218.803C225.859 218.822 225.746 218.89 225.671 218.991L219.646 227.383C219.573 227.486 219.545 227.615 219.566 227.739C219.588 227.864 219.657 227.975 219.76 228.049C219.863 228.123 219.99 228.154 220.115 228.134C220.24 228.115 220.353 228.047 220.428 227.946ZM221.815 218.964C221.041 218.191 219.769 218.193 218.997 218.967C218.223 219.741 218.226 221.012 218.999 221.785C219.778 222.563 221.039 222.561 221.817 221.782C222.596 221.003 222.593 219.742 221.815 218.964ZM226.981 225.208C226.212 224.44 224.948 224.442 224.18 225.21C223.412 225.979 223.414 227.243 224.183 228.011C224.952 228.779 226.215 228.777 226.983 228.008C227.752 227.239 227.749 225.976 226.981 225.208ZM226.336 225.856C225.922 225.442 225.243 225.44 224.829 225.855C224.415 226.27 224.413 226.948 224.828 227.363C225.242 227.777 225.921 227.779 226.335 227.364C226.749 226.949 226.751 226.271 226.336 225.856ZM221.166 219.617C220.749 219.2 220.066 219.198 219.649 219.616C219.232 220.032 219.23 220.715 219.648 221.132C220.066 221.55 220.746 221.552 221.165 221.134C221.583 220.715 221.585 220.035 221.166 219.617Z" fill="white"/>
</g>
<defs>
<filter id="filter0_d_122_188" x="106.4" y="104.4" width="237.2" height="237.2" filterUnits="userSpaceOnUse" color-interpolation-filters="sRGB">
<feFlood flood-opacity="0" result="BackgroundImageFix"/>
<feColorMatrix in="SourceAlpha" type="matrix" values="0 0 0 0 0 0 0 0 0 0 0 0 0 0 0 0 0 0 127 0" result="hardAlpha"/>
<feMorphology radius="22" operator="erode" in="SourceAlpha" result="effect1_dropShadow_122_188"/>
<feOffset dx="2" dy="6"/>
<feGaussianBlur stdDeviation="53.8"/>
<feComposite in2="hardAlpha" operator="out"/>
<feColorMatrix type="matrix" values="0 0 0 0 0.375 0 0 0 0 0.375 0 0 0 0 0.375 0 0 0 1 0"/>
<feBlend mode="normal" in2="BackgroundImageFix" result="effect1_dropShadow_122_188"/>
<feBlend mode="normal" in="SourceGraphic" in2="effect1_dropShadow_122_188" result="shape"/>
</filter>
<linearGradient id="paint0_linear_122_188" x1="220" y1="0" x2="220" y2="440" gradientUnits="userSpaceOnUse">
<stop stop-color="#A6B9FF"/>
<stop offset="1" stop-color="white"/>
</linearGradient>
<linearGradient id="paint1_linear_122_188" x1="220" y1="42" x2="220" y2="398" gradientUnits="userSpaceOnUse">
<stop stop-color="#A7BAFF"/>
<stop offset="1" stop-color="white"/>
</linearGradient>
<linearGradient id="paint2_linear_122_188" x1="220" y1="84" x2="220" y2="356" gradientUnits="userSpaceOnUse">
<stop stop-color="#ADBFFF"/>
<stop offset="1" stop-color="white"/>
</linearGradient>
<linearGradient id="paint3_linear_122_188" x1="220" y1="137" x2="220" y2="303" gradientUnits="userSpaceOnUse">
<stop stop-color="#BECCFE"/>
<stop offset="1" stop-color="white"/>
</linearGradient>
</defs>
</svg>
