<svg
  width="50"
  height="50"
  viewBox="0 0 50 50"
  fill="none"
  xmlns="http://www.w3.org/2000/svg">
  <rect
    x="0.575195"
    width="50"
    height="50"
    rx="25"
    transform="rotate(0.547612 0.575195 0)"
    fill="white"
  />
  <path
    d="M32.2525 36.2899C33.6332 36.3002 34.7608 35.1894 34.7712 33.8087C34.7815 32.428 33.6706 31.3004 32.29 31.2901C30.9093 31.2797 29.7817 32.3906 29.7713 33.7713C29.761 35.1519 30.8719 36.2796 32.2525 36.2899Z"
    fill="#455A64"
  />
  <path
    d="M22.2525 36.2149C23.6332 36.2253 24.7608 35.1144 24.7712 33.7337C24.7815 32.3531 23.6706 31.2254 22.29 31.2151C20.9093 31.2048 19.7817 32.3157 19.7713 33.6963C19.761 35.077 20.8719 36.2046 22.2525 36.2149Z"
    fill="#455A64"
  />
  <path
    d="M36.7688 17.4921C36.7223 17.4386 36.6649 17.3956 36.6005 17.366C36.536 17.3364 36.466 17.3208 36.3951 17.3203L18.3956 17.1856C18.1195 17.1835 17.8939 17.4056 17.8918 17.6817C17.8915 17.7154 17.8946 17.7489 17.9011 17.7819L19.8263 27.7966C19.8485 27.9097 19.9091 28.0117 19.9978 28.0852C20.0866 28.1588 20.198 28.1994 20.3133 28.2003C20.3352 28.2019 20.3573 28.202 20.3793 28.2007L35.3938 26.313C35.5035 26.2992 35.6055 26.2494 35.6839 26.1715C35.7623 26.0936 35.8126 25.9918 35.827 25.8822L36.8868 17.8899C36.8968 17.819 36.8914 17.7468 36.8711 17.6782C36.8507 17.6095 36.8158 17.5461 36.7688 17.4921Z"
    fill="#FFC107"
  />
  <path
    d="M22.3279 26.2153C22.2095 26.2144 22.0953 26.1715 22.0056 26.0943C21.916 26.0171 21.8566 25.9106 21.838 25.7937L20.883 19.7864C20.8479 19.5124 21.0416 19.262 21.3155 19.227C21.4419 19.2108 21.5696 19.2435 21.6727 19.3184C21.7758 19.3932 21.8464 19.5046 21.8702 19.6298L22.8252 25.6371C22.8683 25.9097 22.6825 26.1656 22.4099 26.209C22.3828 26.2135 22.3554 26.2156 22.3279 26.2153ZM24.8316 25.7341C24.7064 25.7336 24.5859 25.6863 24.494 25.6013C24.402 25.5164 24.3453 25.4001 24.335 25.2753L23.8761 19.7717C23.8523 19.4966 24.056 19.2543 24.3312 19.2305L24.3352 19.2301C24.6104 19.2073 24.852 19.412 24.8748 19.6871L25.3336 25.1908C25.3564 25.466 25.1518 25.7075 24.8766 25.7304L24.8766 25.7304L24.8316 25.7341ZM27.3352 25.2528C27.0591 25.2507 26.8369 25.0251 26.839 24.749L26.8764 19.7492C26.8784 19.4731 27.104 19.2509 27.3801 19.2529C27.6563 19.255 27.8784 19.4805 27.8764 19.7567L27.839 24.7565C27.8369 25.0327 27.6114 25.2548 27.3352 25.2528ZM29.8389 24.7715L29.7829 24.7711C29.5085 24.74 29.3113 24.4923 29.3424 24.2179L29.343 24.2128L29.8767 19.7167C29.9112 19.4419 30.1598 19.2456 30.435 19.2758C30.7092 19.3083 30.9053 19.5568 30.8729 19.8311L30.3392 24.3273C30.3255 24.45 30.2667 24.5634 30.1743 24.6454C30.0819 24.7274 29.9624 24.7724 29.8389 24.7715ZM32.3426 24.2902C32.2666 24.2896 32.1918 24.2717 32.1238 24.2379C32.0558 24.2041 31.9964 24.1552 31.9501 24.095C31.9038 24.0348 31.8718 23.9649 31.8566 23.8905C31.8414 23.8161 31.8433 23.7392 31.8622 23.6656L32.8921 19.6732C32.9547 19.4043 33.2236 19.237 33.4925 19.2996C33.7614 19.3623 33.9287 19.6311 33.8661 19.9C33.8643 19.9076 33.8624 19.915 33.8603 19.9225L32.8304 23.9149C32.8026 24.0229 32.7395 24.1185 32.6511 24.1865C32.5627 24.2545 32.4541 24.291 32.3426 24.2902Z"
    fill="#FAFAFA"
  />
  <path
    d="M34.2977 30.3051L22.757 30.2187C21.0903 30.2024 19.6649 29.0162 19.3461 27.3801L17.0004 15.1752L14.4105 15.1558C14.1344 15.1538 13.9122 14.9282 13.9142 14.6521C13.9163 14.376 14.1418 14.1538 14.418 14.1558L17.4179 14.1783C17.5331 14.1791 17.6446 14.2198 17.7333 14.2933C17.8221 14.3669 17.8827 14.4688 17.9049 14.5819L20.3286 27.1904C20.5559 28.3592 21.5739 29.2068 22.7645 29.2187L34.3051 29.3051C34.5813 29.3071 34.8035 29.5327 34.8014 29.8088C34.7993 30.0849 34.5738 30.3071 34.2977 30.3051Z"
    fill="#455A64"
  />
</svg>