<svg width="22" height="22" viewBox="0 0 22 22" fill="none" xmlns="http://www.w3.org/2000/svg">
<rect width="22" height="22" rx="11" fill="white"/>
<path d="M10.6697 16.3273L5.13646 10.9849C4.94129 10.7965 4.83105 10.5368 4.83105 10.2655V6C4.83105 5.44772 5.27877 5 5.83106 5H10.496C10.7643 5 11.0214 5.10782 11.2094 5.29923L16.464 10.6485C16.8527 11.0442 16.8451 11.6805 16.4472 12.0668L12.0608 16.3254C11.6736 16.7014 11.0579 16.7022 10.6697 16.3273Z" stroke="black" stroke-width="0.4"/>
<circle cx="7.25363" cy="7.30966" r="0.757734" fill="#2A3FCC" stroke="black" stroke-width="0.4"/>
<rect x="8.5498" y="10.9718" width="1.46477" height="2.02814" rx="0.732385" fill="#2A3FCC"/>
<rect x="10.4648" y="10.5212" width="1.46477" height="2.47884" rx="0.732385" fill="#2A3FCC"/>
<rect x="12.3809" y="8.94385" width="1.46477" height="4.05629" rx="0.732385" fill="#2A3FCC"/>
</svg>
