<svg width="22" height="22" viewBox="0 0 22 22" fill="none" xmlns="http://www.w3.org/2000/svg">
<rect width="22" height="22" rx="11" fill="white"/>
<path d="M10.4338 10.7074C10.8935 10.5558 11.2887 10.2564 11.552 9.86021C11.8154 9.464 11.9306 8.99551 11.878 8.53457C11.8255 8.07362 11.6084 7.64873 11.2638 7.33229C10.9191 7.01586 10.4683 6.82746 9.98812 6.79919C9.50791 6.77093 9.02802 6.90455 8.63022 7.17729C8.23242 7.45003 7.94132 7.84501 7.80652 8.29493C7.67172 8.74485 7.70156 9.22188 7.89096 9.64473C8.08035 10.0676 8.41759 10.4101 8.8452 10.6139L9.10748 10.1209C8.79648 9.97271 8.55122 9.72361 8.41347 9.41608C8.27573 9.10855 8.25402 8.76161 8.35206 8.43439C8.4501 8.10717 8.66181 7.81991 8.95113 7.62155C9.24044 7.4232 9.58945 7.32602 9.9387 7.34657C10.2879 7.36713 10.6158 7.50415 10.8664 7.73428C11.1171 7.96442 11.275 8.27344 11.3132 8.60868C11.3514 8.94392 11.2676 9.28464 11.0761 9.57279C10.8846 9.86095 10.5972 10.0787 10.2629 10.1889L10.4338 10.7074Z" fill="black"/>
<path d="M6.25 8.81812H7.82025V14.471V14.471C6.95302 14.471 6.25 13.768 6.25 12.9008V8.81812Z" fill="#7D69FA"/>
<path d="M13.1592 8.81812H11.5889V14.471V14.471C12.4562 14.471 13.1592 13.768 13.1592 12.9008V8.81812Z" fill="#2A3FCC"/>
<path d="M11.5889 8.81812H9.70457V14.471H11.5889V8.81812Z" fill="#7D69FA"/>
<path d="M9.7041 8.81812H7.81981V14.471H9.7041V8.81812Z" fill="#2A3FCC"/>
<path d="M15.1168 14.279L14.2543 13.4112C14.1668 13.3245 14.0293 13.3121 13.9168 13.3616L13.5543 13.0021C14.2168 12.0848 14.1293 10.7955 13.3043 9.97735C12.8668 9.53107 12.2668 9.29553 11.6418 9.29553C11.0168 9.29553 10.4168 9.54347 9.9793 9.97735C9.0668 10.8947 9.0668 12.3823 9.9793 13.2997C10.4293 13.7459 11.0168 13.9939 11.6418 13.9939C11.8918 13.9939 12.1418 13.9567 12.3668 13.8823C12.6043 13.8079 12.8168 13.6964 13.0168 13.56L13.3793 13.9195C13.3168 14.0311 13.3418 14.1674 13.4293 14.2542L14.2918 15.122C14.4043 15.2335 14.5543 15.2955 14.7043 15.2955C14.8668 15.2955 15.0043 15.2335 15.1168 15.122C15.3543 14.874 15.3543 14.5021 15.1168 14.279ZM9.8168 10.7707C9.8543 10.7088 9.8793 10.6468 9.9168 10.5848C9.9293 10.56 9.9668 10.5476 10.0043 10.56C10.0293 10.5724 10.0418 10.6096 10.0293 10.6468C9.9918 10.7088 9.9668 10.7583 9.9293 10.8203C9.9168 10.8451 9.8918 10.8575 9.8668 10.8575H9.8418C9.8168 10.8451 9.8043 10.8079 9.8168 10.7707ZM10.0668 12.8038C10.0543 12.8162 10.0418 12.8162 10.0293 12.8162C10.0043 12.8162 9.9918 12.8038 9.9793 12.7914C9.6668 12.3327 9.5543 11.7749 9.6668 11.2294C9.6668 11.1922 9.7043 11.1674 9.7418 11.1798C9.7793 11.1798 9.7918 11.217 9.7918 11.2542C9.6918 11.7625 9.7918 12.2955 10.0918 12.717C10.1043 12.7418 10.0918 12.779 10.0668 12.8038ZM11.6418 13.3245C10.7043 13.3245 9.9543 12.5683 9.9543 11.6385C9.9543 10.7088 10.7168 9.95256 11.6418 9.95256C12.5793 9.95256 13.3418 10.7088 13.3418 11.6385C13.3418 12.5683 12.5793 13.3245 11.6418 13.3245ZM14.1043 13.8699C14.0918 13.8823 14.0793 13.8947 14.0543 13.8947C14.0293 13.8947 14.0168 13.8947 14.0043 13.8699L13.9543 13.8203C13.9293 13.7955 13.9293 13.7583 13.9543 13.7335C13.9793 13.7088 14.0168 13.7088 14.0418 13.7335L14.0918 13.7831C14.1293 13.8079 14.1293 13.8451 14.1043 13.8699ZM14.6293 14.403C14.6168 14.4154 14.6043 14.4278 14.5793 14.4278C14.5668 14.4278 14.5418 14.4154 14.5293 14.403L14.2293 14.1054C14.2043 14.0807 14.2043 14.0435 14.2293 14.0187C14.2543 13.9939 14.2918 13.9939 14.3168 14.0187L14.6168 14.3162C14.6543 14.341 14.6543 14.3782 14.6293 14.403Z" fill="black"/>
</svg>
