<svg
  width="50"
  height="50"
  viewBox="0 0 50 50"
  fill="none"
  xmlns="http://www.w3.org/2000/svg">
  <rect
    x="0.477539"
    width="50"
    height="50"
    rx="25"
    transform="rotate(0.547612 0.477539 0)"
    fill="white"
  />
  <path
    d="M27.1803 26.1806C28.4134 25.7841 29.4769 24.9909 30.1895 23.9359C30.9022 22.8809 31.2198 21.6296 31.0884 20.395C30.9569 19.1605 30.3845 18.0192 29.4687 17.1655C28.5529 16.3118 27.3503 15.7987 26.0658 15.7134C24.7814 15.6282 23.4945 15.9761 22.4246 16.698C21.3546 17.4199 20.5677 18.471 20.198 19.6723C19.8282 20.8735 19.8986 22.1506 20.3969 23.286C20.8953 24.4213 21.7908 25.3446 22.931 25.8986L23.6427 24.5847C22.8135 24.1818 22.1622 23.5103 21.7997 22.6846C21.4373 21.8589 21.3861 20.9301 21.655 20.0564C21.9239 19.1827 22.4962 18.4183 23.2744 17.8933C24.0526 17.3683 24.9885 17.1152 25.9226 17.1772C26.8568 17.2392 27.7314 17.6124 28.3975 18.2333C29.0636 18.8541 29.4798 19.6842 29.5754 20.5821C29.671 21.4799 29.44 22.39 28.9217 23.1573C28.4035 23.9245 27.63 24.5014 26.7331 24.7898L27.1803 26.1806Z"
    fill="#626262"
  />
  <path
    d="M16.0234 21.0414L20.2254 21.0728L20.1122 36.1998V36.1998C17.7915 36.1824 15.9243 34.2871 15.9417 31.9664L16.0234 21.0414Z"
    fill="#EA323C"
  />
  <path
    d="M34.5117 21.1798L30.3098 21.1484L30.1966 36.2753V36.2753C32.5173 36.2927 34.4126 34.4255 34.43 32.1048L34.5117 21.1798Z"
    fill="#88B621"
  />
  <path
    d="M30.3105 21.1483L25.2682 21.1106L25.155 36.2375L30.1974 36.2753L30.3105 21.1483Z"
    fill="#F5AE03"
  />
  <path
    d="M25.2676 21.1105L20.2253 21.0728L20.1121 36.1998L25.1544 36.2375L25.2676 21.1105Z"
    fill="#0064D1"
  />
</svg>