<svg width="22" height="22" viewBox="0 0 22 22" fill="none" xmlns="http://www.w3.org/2000/svg">
<rect width="22" height="22" rx="11" fill="white"/>
<g clip-path="url(#clip0_119_164)">
<path d="M13.0557 7.20874C13.1355 7.29214 13.2137 7.37295 13.2715 7.43335C13.3004 7.46356 13.3241 7.48915 13.3408 7.50659C13.349 7.51516 13.3559 7.52148 13.3604 7.52612C13.3626 7.52842 13.3641 7.53078 13.3652 7.53198L13.3672 7.53296V7.53394L13.499 7.67163L13.6895 7.68628H13.6924C13.694 7.68641 13.6963 7.68703 13.6992 7.68726C13.7055 7.68775 13.7148 7.68829 13.7266 7.68921C13.7504 7.69107 13.7851 7.69381 13.8262 7.69702C13.9086 7.70345 14.0193 7.71173 14.1309 7.72046C14.1839 7.72461 14.2373 7.7282 14.2881 7.73218C14.3846 8.42041 14.6274 10.1433 14.8682 11.8562C15.0225 12.9544 15.1765 14.051 15.292 14.8728C15.3436 15.2401 15.3871 15.5526 15.4199 15.7859L12.4668 16.4587L6.55469 15.2937C6.57491 15.1292 6.60054 14.9267 6.62891 14.696C6.70724 14.0589 6.81124 13.2068 6.91699 12.3474L7.35938 8.7644C7.35986 8.76075 7.35989 8.75713 7.36035 8.75366L7.38965 8.7439C7.42583 8.73194 7.64414 8.66059 7.97559 8.55249L8.86328 8.26343L9.64648 8.00757L9.9082 7.92261L10.041 7.87964V7.87866L10.2051 7.82593C10.5929 7.69951 10.9796 7.5739 11.3359 7.45776L11.4492 7.42065L11.7197 7.33276L12.1504 7.19116L12.1514 7.19214L12.5859 7.05054L12.625 7.03784C12.706 7.01148 12.7745 6.98887 12.8281 6.97144C12.8944 7.04076 12.9764 7.12592 13.0557 7.20874Z" stroke="black"/>
<path d="M14.6419 7.25956C14.6007 7.25594 13.7286 7.18793 13.7286 7.18793C13.7286 7.18793 13.1229 6.55526 13.0564 6.48523C13.0315 6.45917 12.998 6.44582 12.9629 6.44006L12.4736 16.9702L15.9796 16.1722C15.9796 16.1722 14.7487 7.41642 14.741 7.35642C14.7331 7.29642 14.6832 7.26321 14.6419 7.25956Z" fill="black"/>
<path d="M11.2827 9.29802L10.8503 10.6511C10.8503 10.6511 10.4715 10.4384 10.0072 10.4384C9.3265 10.4384 9.29225 10.8879 9.29225 11.0012C9.29225 11.6192 10.8233 11.856 10.8233 13.3035C10.8233 14.4424 10.1368 15.1758 9.21112 15.1758C8.10029 15.1758 7.53223 14.4484 7.53223 14.4484L7.82966 13.4144C7.82966 13.4144 8.41358 13.9419 8.90631 13.9419C9.22827 13.9419 9.35923 13.6751 9.35923 13.4803C9.35923 12.6741 8.10311 12.6382 8.10311 11.3135C8.10311 10.1986 8.86366 9.11975 10.3989 9.11975C10.9904 9.11975 11.2827 9.29802 11.2827 9.29802Z" fill="#2A3FCC"/>
</g>
<defs>
<clipPath id="clip0_119_164">
<rect width="10" height="12" fill="white" transform="translate(6 5)"/>
</clipPath>
</defs>
</svg>
