<svg
  width="50"
  height="50"
  viewBox="0 0 50 50"
  fill="none"
  xmlns="http://www.w3.org/2000/svg"
  >
  <rect
    x="0.477539"
    width="50"
    height="50"
    rx="25"
    transform="rotate(0.547612 0.477539 0)"
    fill="white"
  />
  <g clipPath="url(#clip0_99_158)">
    <path
      d="M32.5179 18.6272C32.5038 18.5171 32.408 18.4553 32.3285 18.4478C32.2491 18.4404 30.568 18.2996 30.568 18.2996C30.568 18.2996 29.4108 17.1286 29.2838 16.999C29.1567 16.8695 28.9058 16.9061 28.8082 16.9338C28.7939 16.9379 28.5522 17.01 28.1525 17.1295C27.773 16.0028 27.0941 14.9642 25.8823 14.9526C25.8489 14.9523 25.8144 14.9533 25.78 14.9549C25.4397 14.4959 25.0148 14.2938 24.646 14.2903C21.8234 14.2633 20.4411 17.779 20.0012 19.568C18.9011 19.8974 18.1196 20.1315 18.0198 20.1618C17.4057 20.348 17.3862 20.3671 17.3003 20.9432C17.2356 21.3794 15.5153 33.752 15.5153 33.752L27.9753 36.21L34.7527 34.8115C34.7527 34.8115 32.5318 18.7373 32.5179 18.6272ZM27.4606 17.3363L26.4012 17.6531C26.4023 17.5786 26.4034 17.5054 26.4042 17.4253C26.4108 16.7274 26.3193 16.1645 26.1681 15.7175C26.7917 15.8018 27.2008 16.5162 27.4606 17.3363ZM25.3923 15.8485C25.5617 16.2851 25.6686 16.9104 25.6606 17.7527C25.6602 17.7958 25.6594 17.8352 25.6587 17.875C24.9697 18.0812 24.2211 18.3051 23.4708 18.5297C23.9064 16.9127 24.7012 16.1373 25.3923 15.8485ZM24.5613 15.0467C24.6831 15.0478 24.8054 15.0904 24.9221 15.1723C24.0134 15.5893 23.0335 16.6521 22.6036 18.7891L20.8742 19.3067C21.3695 17.6783 22.5338 15.0273 24.5613 15.0467Z"
      fill="#95BF46"
    />
    <path
      d="M32.3272 18.4478C32.2478 18.4404 30.5668 18.2996 30.5668 18.2996C30.5668 18.2996 29.4096 17.1286 29.2826 16.999C29.235 16.9508 29.1705 16.9257 29.103 16.9145L27.9747 36.2098L34.7514 34.8115C34.7514 34.8115 32.5305 18.7373 32.5167 18.6272C32.5026 18.517 32.4068 18.4552 32.3272 18.4478Z"
      fill="#5E8E3E"
    />
    <path
      d="M25.8123 22.1228L24.9546 24.5955C24.9546 24.5955 24.2277 24.1985 23.332 24.19C22.019 24.1774 21.945 25.0008 21.943 25.2084C21.9322 26.3414 24.8814 26.8037 24.8561 29.4574C24.8361 31.5453 23.499 32.8771 21.7134 32.86C19.5707 32.8395 18.4877 31.4956 18.4877 31.4956L19.0795 29.6055C19.0795 29.6055 20.1966 30.5832 21.1471 30.5923C21.7681 30.5983 22.0254 30.1117 22.0288 29.7545C22.0429 28.2766 19.6206 28.1875 19.6438 25.7591C19.6633 23.7153 21.1493 21.7514 24.1106 21.7797C25.2517 21.7906 25.8123 22.1228 25.8123 22.1228Z"
      fill="white"
    />
  </g>
  <defs>
    <clipPath id="clip0_99_158">
      <rect
        width="19.2901"
        height="22"
        fill="white"
        transform="translate(15.6982 14.1461) rotate(0.547612)"
      />
    </clipPath>
  </defs>
</svg>