<svg width="22" height="22" viewBox="0 0 22 22" fill="none" xmlns="http://www.w3.org/2000/svg">
<rect width="22" height="22" rx="11" fill="white"/>
<path d="M15.3389 6.18152V6.23914C15.3432 6.28484 15.3496 6.33185 15.3574 6.37781C15.4031 6.64602 15.5093 6.89624 15.666 7.10632H15.6406L15.8115 7.27722C16.1104 7.57562 16.3409 7.65239 16.4619 7.69421C16.6027 7.74291 16.7503 7.77016 16.8994 7.77917V8.72449C16.3962 8.70515 15.9082 8.53771 15.4971 8.23718L15.3379 8.12097V10.6542C15.3379 11.7697 14.4534 12.6708 13.3662 12.6708C12.9759 12.6715 12.5938 12.5528 12.2695 12.33C11.7422 11.9683 11.3945 11.3534 11.3945 10.6542C11.3945 9.53967 12.2791 8.63915 13.3672 8.6366C13.4286 8.6366 13.4904 8.64046 13.5518 8.64636V9.59949C13.4909 9.5883 13.4284 9.58192 13.3643 9.58191C12.7833 9.58191 12.3164 10.0629 12.3164 10.6503C12.3163 10.8476 12.3702 11.0415 12.4717 11.2098C12.5731 11.378 12.7184 11.5143 12.8916 11.6034C13.0334 11.6763 13.1941 11.7186 13.3643 11.7186C13.9432 11.7185 14.4093 11.2399 14.4111 10.6542V6.18152H15.3389Z" fill="#2A3FCC" stroke="black" stroke-width="0.2"/>
<mask id="path-3-inside-1_116_80" fill="white">
<path d="M13.7628 13.8697C13.2245 14.6356 12.4748 15.2281 11.6052 15.575C10.7357 15.9218 9.78395 16.0079 8.86629 15.8227C7.94862 15.6375 7.10475 15.1891 6.43775 14.5322C5.77075 13.8753 5.3095 13.0383 5.11033 12.1236C4.91117 11.2089 4.98271 10.2559 5.31623 9.38119C5.64975 8.50645 6.23079 7.74777 6.9884 7.19783C7.74601 6.64789 8.64738 6.33049 9.58241 6.28441C10.5174 6.23832 11.4456 6.46554 12.2537 6.93832L11.3997 8.39779C10.8752 8.09089 10.2726 7.94338 9.66565 7.9733C9.05867 8.00322 8.47354 8.20926 7.98173 8.56626C7.48992 8.92326 7.11273 9.41576 6.89622 9.9836C6.67972 10.5514 6.63328 11.1701 6.76257 11.7639C6.89185 12.3577 7.19128 12.901 7.62427 13.3274C8.05726 13.7538 8.60506 14.0449 9.20077 14.1652C9.79648 14.2854 10.4143 14.2295 10.9788 14.0043C11.5433 13.7792 12.0299 13.3945 12.3794 12.8973L13.7628 13.8697Z"/>
</mask>
<path d="M13.7628 13.8697C13.2245 14.6356 12.4748 15.2281 11.6052 15.575C10.7357 15.9218 9.78395 16.0079 8.86629 15.8227C7.94862 15.6375 7.10475 15.1891 6.43775 14.5322C5.77075 13.8753 5.3095 13.0383 5.11033 12.1236C4.91117 11.2089 4.98271 10.2559 5.31623 9.38119C5.64975 8.50645 6.23079 7.74777 6.9884 7.19783C7.74601 6.64789 8.64738 6.33049 9.58241 6.28441C10.5174 6.23832 11.4456 6.46554 12.2537 6.93832L11.3997 8.39779C10.8752 8.09089 10.2726 7.94338 9.66565 7.9733C9.05867 8.00322 8.47354 8.20926 7.98173 8.56626C7.48992 8.92326 7.11273 9.41576 6.89622 9.9836C6.67972 10.5514 6.63328 11.1701 6.76257 11.7639C6.89185 12.3577 7.19128 12.901 7.62427 13.3274C8.05726 13.7538 8.60506 14.0449 9.20077 14.1652C9.79648 14.2854 10.4143 14.2295 10.9788 14.0043C11.5433 13.7792 12.0299 13.3945 12.3794 12.8973L13.7628 13.8697Z" fill="#2A3FCC" stroke="black" stroke-width="0.4" mask="url(#path-3-inside-1_116_80)"/>
<path d="M9.42676 9.72253C10.1863 9.72263 10.8018 10.339 10.8018 11.0985C10.8017 11.858 10.1862 12.4734 9.42676 12.4735C8.6672 12.4735 8.05088 11.858 8.05078 11.0985C8.05078 10.3389 8.66714 9.72253 9.42676 9.72253Z" fill="#2A3FCC" stroke="black" stroke-width="0.2"/>
</svg>
