<svg
  width="50"
  height="50"
  viewBox="0 0 50 50"
  fill="none"
  xmlns="http://www.w3.org/2000/svg"
  className="rounded-full shadow-[4px_4px_50px_0_rgba(0,0,0,0.25)]">
  <rect
    x="0.575195"
    width="50"
    height="50"
    rx="25"
    transform="rotate(0.547612 0.575195 0)"
    fill="white"
  />
  <path
    d="M31.2335 17.9925C30.4916 17.255 30.0017 16.2727 29.8254 15.1974C29.8021 15.0543 29.7843 14.9086 29.772 14.7657L29.7766 14.2797L25.9913 14.2435L25.8475 29.282C25.8253 31.0338 24.3881 32.4397 22.6353 32.423C22.1196 32.4181 21.6353 32.2899 21.2067 32.0688C20.6827 31.7987 20.2441 31.3881 19.9398 30.8828C19.6356 30.3775 19.4777 29.7974 19.4839 29.2075C19.5007 27.4502 20.9379 26.036 22.6962 26.0528C23.0336 26.0561 23.3568 26.1113 23.6603 26.2103L23.6971 22.3608C23.3821 22.3138 23.0614 22.2888 22.7432 22.2858C18.8974 22.2572 15.7543 25.3439 15.7176 29.1852C15.6945 31.596 16.8976 33.7302 18.7455 34.9973C19.8829 35.7786 21.2278 36.2017 22.6073 36.2122C26.4503 36.2489 29.5934 33.1623 29.6301 29.3182L29.7036 21.6328C31.2228 22.7428 33.0514 23.348 34.9322 23.3634L34.9681 19.5989C34.3894 19.5934 33.817 19.4946 33.2756 19.3054C32.8956 19.1727 32.1764 18.9352 31.2307 17.9925L31.2335 17.9925Z"
    fill="black"
  />
</svg>