<svg
  width="50"
  height="50"
  viewBox="0 0 50 50"
  fill="none"
  xmlns="http://www.w3.org/2000/svg">
  <rect
    x="0.477539"
    width="50"
    height="50"
    rx="25"
    transform="rotate(0.547612 0.477539 0)"
    fill="white"
  />
  <path
    d="M25.2701 21.6441C25.7866 21.6491 26.214 21.3856 26.2744 21.0397L26.8402 15.2889C26.8456 14.7201 26.1824 14.2463 25.3428 14.2383C24.5037 14.2303 23.8329 14.6913 23.8274 15.2601L24.282 21.0207C24.3345 21.3677 24.7574 21.6392 25.272 21.6442L25.2701 21.6441ZM22.1368 23.4125C22.4002 22.969 22.385 22.4676 22.1141 22.2426L17.4073 18.8794C16.9181 18.5896 16.1756 18.9252 15.7488 19.6473C15.3214 20.3682 15.3884 21.1789 15.8776 21.4674L21.1011 23.9571C21.4281 24.0818 21.8771 23.8525 22.1387 23.4095L22.1368 23.4125ZM28.3712 23.4689C28.6255 23.9169 29.0681 24.1548 29.3975 24.0364L34.6682 21.647C35.1648 21.3679 35.2435 20.5585 34.8331 19.8296C34.419 19.0995 33.6817 18.7497 33.1877 19.0301L28.4175 22.3028C28.1442 22.5226 28.1194 23.0236 28.3731 23.4721L28.3712 23.4689ZM25.2014 28.8333C25.7179 28.8382 26.1402 29.1085 26.1939 29.4555L26.6497 35.2155C26.6443 35.7856 25.9721 36.2453 25.1325 36.2373C24.2935 36.2293 23.6315 35.7568 23.637 35.1867L24.2015 29.4365C24.2607 29.0906 24.6887 28.8284 25.2033 28.8333L25.2014 28.8333ZM28.3368 27.0656C28.5996 26.6214 29.0467 26.3939 29.3738 26.5204L34.5979 29.007C35.089 29.2968 35.1522 30.1081 34.7279 30.8297C34.3 31.5492 33.5562 31.8861 33.0676 31.5976L28.3608 28.2369C28.0918 28.0088 28.0765 27.5074 28.3387 27.0644L28.3368 27.0656ZM22.1025 27.0051C22.3574 27.4531 22.3325 27.9541 22.0574 28.1764L17.2872 31.4465C16.7926 31.7256 16.0566 31.3746 15.6437 30.6469C15.2302 29.9175 15.3126 29.1081 15.8073 28.8271L21.0773 26.4408C21.4067 26.3205 21.8513 26.5572 22.1049 27.0064L22.1025 27.0051Z"
    fill="#FDBB30"
  />
</svg>