<svg width="22" height="22" viewBox="0 0 22 22" fill="none" xmlns="http://www.w3.org/2000/svg">
<rect width="22" height="22" rx="11" fill="white"/>
<path d="M6.75879 5.87036H7.08471V6.24073H6.75879V5.87036ZM7.73286 5.87036H8.06064V6.24073H7.73286V5.87036ZM8.70694 5.87036H9.03286V6.24073H8.70694V5.87036ZM11.6514 5.87036H15.0958V6.24073H11.6514V5.87036Z" fill="black"/>
<path d="M5.6463 10.2852V16.9482H16.2093V10.3297C16.434 10.2789 16.6347 10.1531 16.7784 9.973C16.9221 9.79293 17.0003 9.56931 17 9.33892V9.06114L16.2093 6.94447V5.61114C16.2093 5.30373 15.9593 5.05188 15.65 5.05188H6.20556C5.89815 5.05188 5.6463 5.30188 5.6463 5.61114V6.68706H5.63704L5.00556 9.04632L5 9.33892C5 9.76484 5.25926 10.1352 5.6463 10.2852ZM15.8389 16.576H6.01667V10.3537C6.31852 10.3537 6.64444 10.2074 6.8463 9.92225C7.02778 10.1797 7.33704 10.3537 7.67593 10.3537C8.01481 10.3537 8.31667 10.1908 8.50741 9.92225C8.69259 10.1852 9.0037 10.3537 9.33889 10.3537C9.67778 10.3537 9.97963 10.1889 10.1685 9.92225C10.3556 10.1852 10.6667 10.3537 11 10.3537C11.3333 10.3537 11.6352 10.1963 11.8296 9.92225C12.0148 10.1834 12.3259 10.3537 12.6611 10.3537C13.0019 10.3537 13.3037 10.1889 13.4926 9.92225C13.6759 10.1815 13.9852 10.3537 14.3222 10.3537C14.663 10.3537 14.9667 10.1871 15.1537 9.92225C15.3093 10.1426 15.5611 10.3037 15.8389 10.3426V16.576ZM7.03148 9.11114L7.39444 7.05929H8.49444L8.32222 9.09447V9.33892C8.32222 9.68892 8.03704 9.98521 7.67593 9.98521C7.32037 9.98521 7.03148 9.69447 7.03148 9.33892V9.11114ZM14.9685 9.1204V9.33892C14.9685 9.70003 14.6759 9.98521 14.3222 9.98521C13.9667 9.98521 13.6778 9.69447 13.6778 9.33892V9.09447L13.2926 7.05929H14.387L14.9685 9.1204ZM13.3074 9.11114V9.33706C13.3074 9.68706 13.0222 9.98336 12.6611 9.98336C12.4899 9.98287 12.3257 9.91462 12.2047 9.79353C12.0836 9.67243 12.0153 9.50832 12.0148 9.33706V9.0741L11.8148 7.05929H12.9148L13.3074 9.11114ZM11.6444 9.10373V9.33892C11.6444 9.68706 11.3648 9.98521 11 9.98521C10.8287 9.98472 10.6646 9.91648 10.5435 9.79538C10.4224 9.67428 10.3542 9.51017 10.3537 9.33892L10.3407 7.05929H11.4444L11.6444 9.10373ZM9.98148 8.92595L9.98333 9.09447V9.33892C9.98333 9.70188 9.68704 9.98521 9.33889 9.98521C9.16763 9.98472 9.00353 9.91648 8.88243 9.79538C8.76133 9.67428 8.69308 9.51017 8.69259 9.33892V9.11114L8.86667 7.05929H9.97037L9.98148 8.92595ZM16.6296 9.33892C16.6296 9.96484 16.0019 9.97595 15.9833 9.98521C15.6278 9.98521 15.3389 9.69447 15.3389 9.33892V9.09447L14.7722 7.05929H15.8574L16.6296 9.12781V9.33892ZM6.01667 5.61114C6.01667 5.50744 6.10185 5.42225 6.20556 5.42225H15.65C15.7537 5.42225 15.8389 5.50744 15.8389 5.61114V6.68706H6.01667V5.61114ZM5.37037 9.11855L5.92222 7.05929H7.01852L6.66481 9.06114L6.66111 9.33706C6.66111 9.74447 6.28889 10.0574 5.87037 9.96669C5.7275 9.93463 5.59987 9.85473 5.5086 9.74022C5.41734 9.62572 5.36792 9.48349 5.36852 9.33706V9.11855H5.37037Z" fill="black"/>
<path d="M9.24121 11.7255H13.7447L13.0536 14.1443H9.93228" fill="#2A3FCC"/>
<path d="M9.24121 11.7255H13.7447L13.0536 14.1443H9.93228" stroke="black" stroke-width="0.4" stroke-miterlimit="10" stroke-linecap="round" stroke-linejoin="round"/>
<path d="M10.9694 15.5264C10.9694 15.7172 10.8147 15.8719 10.6239 15.8719C10.433 15.8719 10.2783 15.7172 10.2783 15.5264C10.2783 15.3356 10.433 15.1809 10.6239 15.1809C10.8147 15.1809 10.9694 15.3356 10.9694 15.5264Z" stroke="black" stroke-width="0.4" stroke-miterlimit="10" stroke-linecap="round" stroke-linejoin="round"/>
<path d="M12.7086 15.5264C12.7086 15.7172 12.5539 15.8719 12.3631 15.8719C12.1723 15.8719 12.0176 15.7172 12.0176 15.5264C12.0176 15.3356 12.1723 15.1809 12.3631 15.1809C12.5539 15.1809 12.7086 15.3356 12.7086 15.5264Z" stroke="black" stroke-width="0.4" stroke-miterlimit="10" stroke-linecap="round" stroke-linejoin="round"/>
<path d="M13.0536 14.8353H10.1458C9.88893 14.8353 9.72186 14.565 9.83673 14.3353L9.93223 14.1443" stroke="black" stroke-width="0.4" stroke-miterlimit="10" stroke-linecap="round" stroke-linejoin="round"/>
<path d="M8.19336 11.0345H9.04408C9.33826 12.0643 9.93256 14.1443 9.93256 14.1443" stroke="black" stroke-width="0.4" stroke-miterlimit="10" stroke-linecap="round" stroke-linejoin="round"/>
</svg>
