<svg width="75" height="75" viewBox="0 0 75 75" fill="none" xmlns="http://www.w3.org/2000/svg">
<rect width="75" height="75" rx="8" fill="#FFF6DD"/>
<g clip-path="url(#clip0_2013_655)">
<path d="M27.7972 48.5794C25.7875 48.4768 25.8253 45.65 27.7971 45.5519C33.3825 45.5713 48.1145 45.5571 53.8775 45.5611C55.4538 45.5611 56.8023 44.4885 57.1568 42.9528L60.4293 28.7822C60.6167 27.9708 60.4276 27.131 59.9105 26.4783C59.3934 25.8256 58.6194 25.446 57.7867 25.446C55.4683 25.446 35.7888 25.3569 25.709 25.3168L24.1112 19.3881C23.7276 17.9714 22.4347 16.9819 20.967 16.9819H15.8484C15.1037 16.9819 14.5 17.5856 14.5 18.3303C14.5 19.075 15.1037 19.6787 15.8484 19.6787H20.967C21.0899 19.6788 21.2094 19.7192 21.3071 19.7938C21.4048 19.8684 21.4753 19.9729 21.5079 20.0915L27.6443 42.8588C26.5653 42.898 25.5603 43.3369 24.7982 44.1101C23.9975 44.9227 23.5674 45.9984 23.5873 47.139C23.627 49.4202 25.5156 51.2761 27.7972 51.2761H29.7633C29.4622 51.9078 29.3063 52.5989 29.307 53.2987C29.307 55.9011 31.4241 58.0182 34.0265 58.0182C36.6289 58.0182 38.746 55.9011 38.746 53.2987C38.7467 52.5989 38.5907 51.9078 38.2896 51.2761H46.8038C46.5029 51.9076 46.3471 52.5985 46.3478 53.298C46.3478 55.9004 48.465 58.0175 51.0672 58.0175C53.6696 58.0175 55.7868 55.9003 55.7868 53.298C55.7874 52.5717 55.6192 51.8551 55.2956 51.2049C55.8292 51.0252 56.214 50.5219 56.214 49.9278C56.214 49.1831 55.6103 48.5794 54.8656 48.5794H27.7972ZM36.0492 53.2988C36.0492 54.4142 35.1418 55.3216 34.0264 55.3216C32.911 55.3216 32.0037 54.4142 32.0037 53.2988C32.0037 52.1841 32.9101 51.2771 34.0247 51.2762H34.0281C35.1427 51.2771 36.0492 52.1841 36.0492 53.2988ZM51.0673 55.3208C49.952 55.3208 49.0446 54.4134 49.0446 53.2981C49.0446 52.1938 49.9343 51.2939 51.0345 51.2762H51.1002C52.2005 51.2939 53.0902 52.1938 53.0902 53.2981C53.0902 54.4134 52.1827 55.3208 51.0673 55.3208ZM57.7966 28.1527C57.8046 28.1627 57.8034 28.1675 57.8017 28.1752L56.4229 34.1463H51.7537L52.5488 28.1215L57.7759 28.1425C57.7839 28.1427 57.7887 28.1427 57.7966 28.1527ZM43.8953 42.8643V36.843H48.6777L47.8831 42.8643H43.8953ZM37.209 42.8643L36.4079 36.843H41.1986V42.8643H37.209ZM31.0017 42.8643H30.9975C30.6689 42.8642 30.3793 42.6425 30.2938 42.3268L28.8159 36.843H33.6873L34.4885 42.8643H31.0017ZM36.0491 34.1464L35.2382 28.0518L41.1985 28.0758V34.1464H36.0491ZM43.8953 34.1464V28.0867L49.8301 28.1106L49.0336 34.1464H43.8953ZM32.5161 28.0407L33.3285 34.1463H28.089L26.4368 28.0162L32.5161 28.0407ZM53.8775 42.8643H50.6031L51.3978 36.843H55.8L54.5292 42.3459C54.4957 42.4935 54.4129 42.6253 54.2944 42.7196C54.176 42.8138 54.0289 42.8649 53.8775 42.8643Z" fill="#FFB800"/>
</g>
<defs>
<clipPath id="clip0_2013_655">
<rect width="46" height="46" fill="white" transform="translate(14.5 14.5)"/>
</clipPath>
</defs>
</svg>
