<svg width="75" height="75" viewBox="0 0 75 75" fill="none" xmlns="http://www.w3.org/2000/svg">
<rect width="75" height="75" rx="8" fill="#EAEFFF"/>
<g clip-path="url(#clip0_2013_656)">
<path d="M60.4596 29.8469L57.9871 22.7672C57.9379 22.6265 57.8462 22.5045 57.7247 22.4183C57.6032 22.332 57.4578 22.2856 57.3088 22.2856H33.9539C33.6484 22.2856 33.3762 22.4788 33.2755 22.7672L30.803 29.8469C30.7761 29.9233 30.7626 30.0032 30.7626 30.0841V34.2915C30.7626 35.4262 31.299 36.4369 32.13 37.0874V42.0818H29.7312V34.3139C29.7312 33.5251 29.0906 32.8827 28.3027 32.8827H20.5312C19.7424 32.8827 19.1 33.5251 19.1 34.3139V42.0818H15.9312C15.1424 42.0818 14.5 42.7224 14.5 43.5103V51.2827C14.5 52.0715 15.1424 52.7139 15.9312 52.7139H23.7036C23.9632 52.7139 24.2058 52.6438 24.4161 52.5226C24.6322 52.6481 24.8777 52.7141 25.1276 52.7139H58.4147C58.8109 52.7139 59.1326 52.3923 59.1326 51.9961V37.0865C59.9645 36.4369 60.5 35.4253 60.5 34.2906V30.0832C60.5 30.0032 60.4865 29.9233 60.4596 29.8469ZM58.0769 36.0767C58.0536 36.0892 58.0311 36.1027 58.0086 36.118C57.6878 36.3047 57.3233 36.403 56.9521 36.4028C55.7877 36.4028 54.8407 35.4558 54.8407 34.2915V30.8028H59.0634V34.2915C59.0634 35.0417 58.669 35.702 58.0769 36.0767ZM33.2549 36.1171C33.2333 36.1018 33.2109 36.0883 33.1866 36.0758C32.5945 35.7011 32.2001 35.0417 32.2001 34.2906V30.8019H36.4228V34.2906C36.4228 35.4549 35.4758 36.4019 34.3114 36.4019C33.9269 36.4019 33.5657 36.2977 33.2549 36.1171ZM52.0547 23.7222L53.2379 29.3653H49.1303L48.7368 23.7222H52.0547ZM47.2975 23.7222L47.691 29.3653H43.5725L43.9661 23.7222H47.2975ZM42.1323 29.3653H38.0247L39.2079 23.7222H42.5259L42.1323 29.3653ZM37.8594 30.8019H42.0847V34.2906C42.0847 35.4549 41.1378 36.4019 39.9734 36.4019C38.8081 36.4019 37.8594 35.4549 37.8594 34.2906V30.8019ZM43.5204 30.8019H47.7431V34.2906C47.7431 35.4549 46.7961 36.4019 45.6318 36.4019C44.4674 36.4019 43.5204 35.4549 43.5204 34.2906V30.8019ZM49.1797 30.8019H53.405V34.2906C53.405 35.4549 52.4572 36.4019 51.291 36.4019C50.1266 36.4019 49.1797 35.4549 49.1797 34.2906V30.8019ZM58.7696 29.3653H54.7051L53.5218 23.7222H56.7984L58.7696 29.3653ZM34.4651 23.7222H37.7417L36.5584 29.3653H32.4939L34.4651 23.7222ZM28.2811 43.5175H29.7483V45.0988H28.2811V43.5175ZM23.6838 34.3193H25.151V35.9033H23.6838V34.3193ZM20.5312 34.3193H22.2481V36.6211C22.2481 37.0182 22.5698 37.339 22.966 37.339H25.8688C26.2659 37.339 26.5867 37.0173 26.5867 36.6211V34.3193H28.2955V42.0818H25.1276C24.8689 42.0818 24.6263 42.1519 24.4161 42.2732C24.1996 42.1477 23.9538 42.0817 23.7036 42.0818H20.5357L20.5312 34.3193ZM19.0847 43.5175H20.5519V45.0997H19.0847V43.5175ZM15.9366 43.5175H17.6481V45.8175C17.6481 46.2146 17.9698 46.5354 18.366 46.5354H21.2688C21.6659 46.5354 21.9867 46.2137 21.9867 45.8175V43.5175H23.6982V51.2782L15.9357 51.2836V43.5175H15.9366ZM32.8497 51.2773H25.1357V43.5175H26.8445V45.8175C26.8445 46.2146 27.1662 46.5354 27.5624 46.5354H30.4652C30.8623 46.5354 31.1831 46.2137 31.1831 45.8175V43.5175H32.8946L32.9 51.2773H32.8497ZM48.6191 51.2773H42.6471V42.4807H48.6191V51.2773ZM57.696 51.2773H50.0557V41.7629C50.0557 41.3658 49.734 41.045 49.3378 41.045H41.9293C41.5331 41.045 41.2114 41.3667 41.2114 41.7629V51.2773H34.333V43.5103C34.333 42.9632 34.023 42.487 33.5693 42.2471V37.7594C33.8092 37.8106 34.0581 37.8385 34.3132 37.8385C35.4677 37.8385 36.4946 37.2842 37.1433 36.4279C37.792 37.2842 38.8198 37.8385 39.9752 37.8385C41.1297 37.8385 42.1566 37.2842 42.8044 36.4279C43.453 37.2842 44.48 37.8385 45.6336 37.8385C46.7871 37.8385 47.815 37.2842 48.4627 36.4279C49.1114 37.2842 50.1383 37.8385 51.2919 37.8385C52.4473 37.8385 53.4751 37.2842 54.1238 36.4279C54.7725 37.2842 55.7994 37.8385 56.9539 37.8385C57.209 37.8385 57.4579 37.8106 57.6978 37.7594V51.2773H57.696Z" fill="#2A3FCC"/>
</g>
<defs>
<clipPath id="clip0_2013_656">
<rect width="46" height="46" fill="white" transform="translate(14.5 14.5)"/>
</clipPath>
</defs>
</svg>
