<svg width="75" height="75" viewBox="0 0 75 75" fill="none" xmlns="http://www.w3.org/2000/svg">
<rect width="75" height="75" rx="8" fill="#DEFDE4"/>
<path d="M19.5483 45.1439C19.7246 45.2309 19.9218 45.2664 20.1173 45.2462C20.3128 45.226 20.4987 45.151 20.6534 45.0298L26.3055 40.6445L33.3753 44.4728C33.5333 44.5587 33.7167 44.586 33.8929 44.5498C34.0692 44.5137 34.227 44.4164 34.3384 44.2751L41.286 35.4803L48.0665 38.7785C48.2273 38.8566 48.4105 38.8759 48.584 38.8328C48.7575 38.7898 48.9105 38.6873 49.0162 38.5431L54.0304 31.715L54.1202 32.3259C54.1504 32.5302 54.2206 32.7264 54.3267 32.9035C54.4329 33.0806 54.5729 33.2351 54.7388 33.358C54.9047 33.4809 55.0932 33.5699 55.2935 33.6199C55.4939 33.6699 55.7021 33.6799 55.9063 33.6493L56.7957 33.5172C57.2078 33.4553 57.5786 33.2325 57.8266 32.8977C58.0747 32.5629 58.1799 32.1434 58.1191 31.7311L57.2396 25.8176C57.1777 25.4055 56.9549 25.0348 56.6201 24.7867C56.2853 24.5387 55.8657 24.4335 55.4535 24.4942L49.5391 25.3711C49.127 25.433 48.7563 25.6558 48.5082 25.9906C48.2601 26.3254 48.1549 26.7449 48.2157 27.1572L48.3477 28.0466C48.4092 28.4589 48.6319 28.83 48.9668 29.0781C49.3017 29.3263 49.7215 29.4313 50.1338 29.37L50.8059 29.2703L47.3738 33.9422L40.6796 30.6863C40.5226 30.611 40.3447 30.5913 40.175 30.6305C40.0054 30.6697 39.8541 30.7654 39.7461 30.9019L32.8749 39.6024L26.3486 36.0679C26.2183 35.9972 26.0703 35.9659 25.9226 35.9779C25.7749 35.9898 25.6338 36.0445 25.5166 36.1353L19.357 40.9141C19.2305 41.013 19.1283 41.1394 19.0579 41.2837C18.9876 41.428 18.951 41.5864 18.9509 41.7469L18.9581 44.1997C18.9573 44.3967 19.0123 44.59 19.1168 44.7571C19.2212 44.9242 19.3709 45.0583 19.5483 45.1439ZM49.6819 27.8472L49.5498 26.9586C49.5455 26.9294 49.547 26.8997 49.5542 26.871C49.5614 26.8424 49.5741 26.8155 49.5917 26.7918C49.6093 26.7681 49.6315 26.7481 49.6568 26.7329C49.6821 26.7178 49.7102 26.7078 49.7394 26.7035L55.6484 25.8203C55.7073 25.8116 55.7672 25.8265 55.815 25.8619C55.8629 25.8973 55.8947 25.9502 55.9036 26.009L56.7868 31.9297C56.7955 31.9885 56.7806 32.0485 56.7452 32.0963C56.7098 32.1441 56.6569 32.176 56.5981 32.1849L55.7095 32.3169C55.5298 32.3358 55.4741 32.2972 55.4544 32.1274L55.122 29.8974C55.1029 29.7651 55.0449 29.6415 54.9553 29.5423C54.8658 29.443 54.7488 29.3726 54.6191 29.3401C54.4895 29.3075 54.3531 29.3143 54.2273 29.3594C54.1015 29.4046 53.992 29.4862 53.9127 29.5938L48.2175 37.3509L41.4531 34.0608C41.2966 33.9853 41.119 33.9652 40.9495 34.0039C40.7801 34.0426 40.6288 34.1377 40.5206 34.2737L33.5864 43.0515L26.6127 39.278C26.4824 39.2073 26.3343 39.1761 26.1866 39.1883C26.0388 39.2004 25.8978 39.2553 25.7808 39.3463L20.3039 43.595L20.2985 41.8925L26.0422 37.4344L32.6655 41.021C32.8235 41.107 33.0068 41.1344 33.183 41.0984C33.3592 41.0624 33.5171 40.9653 33.6286 40.8242L40.5143 32.1094L47.2238 35.3725C47.3846 35.4506 47.5677 35.4699 47.7413 35.4269C47.9148 35.3838 48.0677 35.2813 48.1734 35.1371L52.8507 28.7672C52.9291 28.6599 52.974 28.5318 52.9799 28.399C52.9857 28.2663 52.9522 28.1347 52.8836 28.0209C52.815 27.9071 52.7143 27.8161 52.5942 27.7593C52.4741 27.7025 52.3398 27.6825 52.2083 27.7016L49.938 28.0395C49.7763 28.0601 49.6972 27.999 49.6819 27.8472ZM28.9109 31.228H30.9773C31.9237 31.2271 32.8311 30.8507 33.5003 30.1815C34.1695 29.5123 34.5459 28.6049 34.5468 27.6585V26.2884C34.5459 25.342 34.1695 24.4346 33.5003 23.7654C32.8311 23.0962 31.9237 22.7199 30.9773 22.7189H28.9109C28.7322 22.7189 28.5608 22.7899 28.4345 22.9163C28.3081 23.0426 28.2371 23.214 28.2371 23.3927V30.5542C28.2371 30.7329 28.3081 30.9043 28.4345 31.0307C28.5608 31.157 28.7322 31.228 28.9109 31.228ZM29.5848 24.0666H30.9773C31.5665 24.067 32.1313 24.3013 32.5479 24.7179C32.9645 25.1344 33.1987 25.6993 33.1992 26.2884V27.6585C33.1987 28.2476 32.9645 28.8125 32.5479 29.2291C32.1313 29.6456 31.5665 29.8799 30.9773 29.8804H29.5848V24.0666ZM26.6954 31.2388C27.0602 31.1669 27.3324 30.6809 27.1922 30.3359L24.2481 23.1025C24.1975 22.9785 24.1111 22.8724 24 22.7977C23.8889 22.723 23.758 22.6831 23.6241 22.6831C23.4902 22.6831 23.3593 22.723 23.2482 22.7977C23.137 22.8724 23.0507 22.9785 23.0001 23.1025L20.0559 30.3359C19.9886 30.5054 19.99 30.6945 20.0598 30.8631C20.1296 31.0316 20.2622 31.1664 20.4297 31.2388C20.5986 31.3015 20.7854 31.2951 20.9496 31.2211C21.1139 31.1472 21.2425 31.0115 21.3075 30.8435L22.0532 29.0107H25.1977L25.9434 30.8435C26.0503 31.1049 26.434 31.29 26.6954 31.2388ZM23.6236 25.1447L24.6488 27.6603H22.5985L23.6236 25.1447Z" fill="#14B22B"/>
<path d="M57.2836 50.9692H55.8694V35.8071C55.8694 35.6284 55.7985 35.457 55.6721 35.3307C55.5457 35.2043 55.3743 35.1333 55.1956 35.1333C55.0169 35.1333 54.8455 35.2043 54.7192 35.3307C54.5928 35.457 54.5218 35.6284 54.5218 35.8071V50.9692H49.1015V40.8707C49.1015 40.692 49.0305 40.5206 48.9042 40.3943C48.7778 40.2679 48.6064 40.1969 48.4277 40.1969C48.249 40.1969 48.0776 40.2679 47.9512 40.3943C47.8249 40.5206 47.7539 40.692 47.7539 40.8707V50.9692H41.9742V38.4755C41.9742 38.2968 41.9032 38.1254 41.7769 37.999C41.6505 37.8727 41.4791 37.8017 41.3004 37.8017C41.1217 37.8017 40.9503 37.8727 40.8239 37.999C40.6976 38.1254 40.6266 38.2968 40.6266 38.4755V50.9692H34.4273V46.5012C34.4273 46.3225 34.3563 46.1511 34.23 46.0248C34.1036 45.8984 33.9322 45.8274 33.7535 45.8274C33.5748 45.8274 33.4034 45.8984 33.277 46.0248C33.1507 46.1511 33.0797 46.3225 33.0797 46.5012V50.9692H27.0602V42.8473C27.0602 42.6686 26.9892 42.4972 26.8628 42.3708C26.7364 42.2445 26.565 42.1735 26.3863 42.1735C26.2076 42.1735 26.0362 42.2445 25.9099 42.3708C25.7835 42.4972 25.7125 42.6686 25.7125 42.8473V50.9692H20.2976V47.6396C20.2976 47.4608 20.2266 47.2895 20.1003 47.1631C19.9739 47.0367 19.8025 46.9657 19.6238 46.9657C19.4451 46.9657 19.2737 47.0367 19.1473 47.1631C19.0209 47.2895 18.95 47.4608 18.95 47.6396V50.9692H17.5367C17.358 50.9692 17.1866 51.0402 17.0602 51.1665C16.9339 51.2929 16.8629 51.4643 16.8629 51.643C16.8629 51.8217 16.9339 51.9931 17.0602 52.1195C17.1866 52.2458 17.358 52.3168 17.5367 52.3168H57.2836C57.4623 52.3168 57.6337 52.2458 57.7601 52.1195C57.8864 51.9931 57.9574 51.8217 57.9574 51.643C57.9574 51.4643 57.8864 51.2929 57.7601 51.1665C57.6337 51.0402 57.4623 50.9692 57.2836 50.9692Z" fill="#14B22B"/>
</svg>
