<svg width="75" height="75" viewBox="0 0 75 75" fill="none" xmlns="http://www.w3.org/2000/svg">
<rect width="75" height="75" rx="8" fill="#FFF0E9"/>
<g clip-path="url(#clip0_2013_658)">
<path d="M55.4688 23.125H15.2188C15.0281 23.125 14.8453 23.0493 14.7105 22.9145C14.5757 22.7797 14.5 22.5969 14.5 22.4062C14.5 22.2156 14.5757 22.0328 14.7105 21.898C14.8453 21.7632 15.0281 21.6875 15.2188 21.6875H55.4688C55.6594 21.6875 55.8422 21.7632 55.977 21.898C56.1118 22.0328 56.1875 22.2156 56.1875 22.4062C56.1875 22.5969 56.1118 22.7797 55.977 22.9145C55.8422 23.0493 55.6594 23.125 55.4688 23.125ZM51.1562 18.0938C51.0141 18.0938 50.8751 18.1359 50.7569 18.2149C50.6387 18.2939 50.5466 18.4061 50.4922 18.5374C50.4378 18.6688 50.4236 18.8133 50.4513 18.9527C50.479 19.0921 50.5475 19.2202 50.648 19.3207C50.7485 19.4213 50.8766 19.4897 51.016 19.5174C51.1555 19.5452 51.3 19.5309 51.4313 19.4765C51.5626 19.4221 51.6749 19.33 51.7539 19.2118C51.8328 19.0936 51.875 18.9547 51.875 18.8125C51.875 18.6219 51.7993 18.4391 51.6645 18.3043C51.5297 18.1695 51.3469 18.0938 51.1562 18.0938ZM48.2812 18.0938C48.1391 18.0938 48.0001 18.1359 47.8819 18.2149C47.7637 18.2939 47.6716 18.4061 47.6172 18.5374C47.5628 18.6688 47.5486 18.8133 47.5763 18.9527C47.604 19.0921 47.6725 19.2202 47.773 19.3207C47.8735 19.4213 48.0016 19.4897 48.141 19.5174C48.2805 19.5452 48.425 19.5309 48.5563 19.4765C48.6876 19.4221 48.7999 19.33 48.8789 19.2118C48.9578 19.0936 49 18.9547 49 18.8125C49 18.6219 48.9243 18.4391 48.7895 18.3043C48.6547 18.1695 48.4719 18.0938 48.2812 18.0938ZM45.4062 18.0938C45.2641 18.0938 45.1251 18.1359 45.0069 18.2149C44.8887 18.2939 44.7966 18.4061 44.7422 18.5374C44.6878 18.6688 44.6736 18.8133 44.7013 18.9527C44.729 19.0921 44.7975 19.2202 44.898 19.3207C44.9985 19.4213 45.1266 19.4897 45.266 19.5174C45.4055 19.5452 45.55 19.5309 45.6813 19.4765C45.8126 19.4221 45.9249 19.33 46.0039 19.2118C46.0828 19.0936 46.125 18.9547 46.125 18.8125C46.125 18.6219 46.0493 18.4391 45.9145 18.3043C45.7797 18.1695 45.5969 18.0938 45.4062 18.0938Z" fill="#FD6900"/>
<path d="M60.3347 34.1866C60.3237 34.0035 60.2431 33.8316 60.1095 33.706C59.9759 33.5804 59.7993 33.5106 59.6159 33.5109C59.5872 33.5109 57.9808 33.5109 56.1803 33.2953V17.0156C56.1803 16.3484 55.9153 15.7086 55.4435 15.2368C54.9717 14.765 54.3319 14.5 53.6647 14.5H17.0156C16.3484 14.5 15.7086 14.765 15.2368 15.2368C14.765 15.7086 14.5 16.3484 14.5 17.0156V52.2344C14.5 52.9016 14.765 53.5414 15.2368 54.0132C15.7086 54.485 16.3484 54.75 17.0156 54.75H41.8125C42.8691 55.5873 43.9687 56.3097 44.9822 56.9566C46.5095 57.9448 48.2381 59.0625 48.2381 59.7812C48.2381 59.9719 48.3139 60.1547 48.4486 60.2895C48.5834 60.4243 48.7662 60.5 48.9569 60.5C49.1475 60.5 49.3303 60.4243 49.4651 60.2895C49.5999 60.1547 49.6756 59.9719 49.6756 59.7812C49.6756 59.0625 51.4078 57.9448 52.9352 56.9566C54.8758 55.6987 57.2081 54.2541 58.6852 52.1481C61.0678 48.8023 60.4245 35.66 60.3347 34.1866ZM15.9375 17.0156C15.9375 16.7297 16.0511 16.4555 16.2533 16.2533C16.4555 16.0511 16.7297 15.9375 17.0156 15.9375H53.7078C53.9937 15.9375 54.268 16.0511 54.4702 16.2533C54.6723 16.4555 54.7859 16.7297 54.7859 17.0156V21.6875H15.9375V17.0156ZM15.9375 52.2344V23.125H54.75V33.0905C54.0447 32.9776 53.3516 32.7983 52.68 32.555C50.8256 31.8363 49.5534 30.0394 49.5391 30.0394C49.4726 29.9448 49.3844 29.8677 49.2818 29.8145C49.1792 29.7613 49.0652 29.7337 48.9497 29.7339C48.8341 29.7337 48.7202 29.7613 48.6176 29.8145C48.515 29.8677 48.4268 29.9448 48.3603 30.0394C48.3603 30.0573 47.0881 31.8363 45.223 32.555C42.8439 33.4786 38.3266 33.5109 38.2798 33.5109C38.0965 33.5106 37.9199 33.5804 37.7863 33.706C37.6527 33.8316 37.5721 34.0035 37.5611 34.1866C37.4712 35.66 36.7417 48.6802 39.1172 52.0259C39.4424 52.4823 39.8029 52.9124 40.1953 53.3125H17.0156C16.7297 53.3125 16.4555 53.1989 16.2533 52.9967C16.0511 52.7945 15.9375 52.5203 15.9375 52.2344ZM57.5567 51.2102C56.2234 53.0897 54.0816 54.5056 52.1445 55.7598C50.8148 56.6187 49.6541 57.3698 48.9497 58.1641C48.2309 57.3698 47.0845 56.6187 45.7548 55.7598C43.8214 54.5056 41.6256 53.0861 40.2923 51.2066C38.6212 48.8491 38.7434 39.2322 38.9627 34.9448C40.375 34.8873 43.6777 34.6933 45.7405 33.9062C46.9723 33.3888 48.0698 32.5973 48.9497 31.5919C49.8303 32.5964 50.9277 33.3878 52.1589 33.9062C54.2253 34.7041 57.5208 34.8981 58.9367 34.9448C59.1595 39.2214 59.2278 48.8419 57.5567 51.1994V51.2102Z" fill="#FD6900"/>
<path d="M47.9937 47.7277C47.8989 47.7278 47.805 47.7091 47.7174 47.6727C47.6298 47.6363 47.5503 47.583 47.4834 47.5157L43.8214 43.8537C43.6973 43.7172 43.6304 43.5381 43.6346 43.3537C43.6388 43.1692 43.7138 42.9935 43.844 42.8628C43.9743 42.7321 44.1498 42.6565 44.3342 42.6516C44.5186 42.6467 44.6979 42.713 44.8348 42.8366L47.9937 45.9919L53.1651 40.8205C53.3021 40.6969 53.4813 40.6306 53.6658 40.6355C53.8502 40.6404 54.0257 40.716 54.156 40.8467C54.2862 40.9774 54.3612 41.1531 54.3654 41.3376C54.3696 41.5221 54.3027 41.7011 54.1786 41.8376L48.5005 47.5157C48.3663 47.6507 48.1841 47.7269 47.9937 47.7277Z" fill="#FD6900"/>
<path d="M27.7969 40.375H24.9219C24.5438 40.365 24.1839 40.2104 23.9165 39.9429C23.649 39.6755 23.4944 39.3156 23.4844 38.9375V36.4219H20.9688C20.5907 36.4119 20.2308 36.2572 19.9633 35.9898C19.6959 35.7223 19.5412 35.3625 19.5312 34.9844V32.1094C19.5412 31.7313 19.6959 31.3714 19.9633 31.104C20.2308 30.8365 20.5907 30.6819 20.9688 30.6719H23.4844V28.1562C23.4944 27.7782 23.649 27.4183 23.9165 27.1508C24.1839 26.8834 24.5438 26.7287 24.9219 26.7188H27.7969C28.175 26.7287 28.5348 26.8834 28.8023 27.1508C29.0697 27.4183 29.2244 27.7782 29.2344 28.1562V30.6719H31.75C32.1281 30.6819 32.488 30.8365 32.7554 31.104C33.0229 31.3714 33.1775 31.7313 33.1875 32.1094V34.9844C33.1775 35.3625 33.0229 35.7223 32.7554 35.9898C32.488 36.2572 32.1281 36.4119 31.75 36.4219H29.2344V38.9375C29.2244 39.3156 29.0697 39.6755 28.8023 39.9429C28.5348 40.2104 28.175 40.365 27.7969 40.375ZM24.9219 38.9375H27.7969V35.7031C27.7969 35.5125 27.8726 35.3297 28.0074 35.1949C28.1422 35.0601 28.325 34.9844 28.5156 34.9844H31.75V32.1094H28.5156C28.325 32.1094 28.1422 32.0337 28.0074 31.8989C27.8726 31.7641 27.7969 31.5812 27.7969 31.3906V28.1562H24.9219C24.9398 28.1562 24.9219 28.1563 24.9219 28.185V31.3906C24.9219 31.5812 24.8461 31.7641 24.7114 31.8989C24.5766 32.0337 24.3937 32.1094 24.2031 32.1094H20.9688C20.9867 32.1094 20.9688 32.1094 20.9688 32.1381V34.9844H24.2031C24.3937 34.9844 24.5766 35.0601 24.7114 35.1949C24.8461 35.3297 24.9219 35.5125 24.9219 35.7031V38.9375ZM32.4688 44.6875H20.25C20.0594 44.6875 19.8766 44.6118 19.7418 44.477C19.607 44.3422 19.5312 44.1594 19.5312 43.9688C19.5312 43.7781 19.607 43.5953 19.7418 43.4605C19.8766 43.3257 20.0594 43.25 20.25 43.25H32.4688C32.6594 43.25 32.8422 43.3257 32.977 43.4605C33.1118 43.5953 33.1875 43.7781 33.1875 43.9688C33.1875 44.1594 33.1118 44.3422 32.977 44.477C32.8422 44.6118 32.6594 44.6875 32.4688 44.6875ZM32.4688 49H20.25C20.0594 49 19.8766 48.9243 19.7418 48.7895C19.607 48.6547 19.5312 48.4719 19.5312 48.2812C19.5312 48.0906 19.607 47.9078 19.7418 47.773C19.8766 47.6382 20.0594 47.5625 20.25 47.5625H32.4688C32.6594 47.5625 32.8422 47.6382 32.977 47.773C33.1118 47.9078 33.1875 48.0906 33.1875 48.2812C33.1875 48.4719 33.1118 48.6547 32.977 48.7895C32.8422 48.9243 32.6594 49 32.4688 49Z" fill="#FD6900"/>
</g>
<defs>
<clipPath id="clip0_2013_658">
<rect width="46" height="46" fill="white" transform="translate(14.5 14.5)"/>
</clipPath>
</defs>
</svg>
