<svg width="32" height="32" viewBox="0 0 32 32" fill="none" xmlns="http://www.w3.org/2000/svg">
<path d="M2.16162 11.2107L2.18931 20.6457C2.18931 20.9891 2.32654 21.2685 2.56901 21.4137C4.70131 22.642 4.46993 22.5417 4.63978 22.5934C4.63362 22.7116 4.64039 22.007 4.63362 25.0833C4.63362 25.3663 4.80778 25.6273 5.10131 25.7928L6.55977 26.679C6.5943 26.7008 6.63282 26.7155 6.6731 26.7223C6.71337 26.7291 6.75459 26.7278 6.79436 26.7185C6.83413 26.7092 6.87164 26.692 6.90472 26.6681C6.9378 26.6441 6.96577 26.6138 6.98701 26.5789C7.00825 26.544 7.02234 26.5053 7.02844 26.4649C7.03454 26.4245 7.03255 26.3833 7.02257 26.3437C7.01259 26.3041 6.99482 26.2669 6.9703 26.2342C6.94579 26.2015 6.91501 26.1741 6.87978 26.1534L5.4127 25.2617C5.30008 25.1977 5.24962 25.1257 5.24962 25.0833L5.25147 23.423L13.2687 28.0827C13.7936 28.3867 14.6133 28.3842 15.1358 28.0827L29.2207 19.951L29.2225 21.6063C29.2225 21.6476 29.1782 21.7202 29.0502 21.7922L14.825 30.0094C14.4909 30.2027 13.9081 30.2027 13.5776 30.0094L10.5296 28.2371C10.4592 28.1982 10.3764 28.1884 10.2989 28.2098C10.2214 28.2312 10.1553 28.2821 10.1149 28.3516C10.0744 28.4211 10.0628 28.5037 10.0824 28.5817C10.1021 28.6596 10.1515 28.7268 10.2201 28.7688L13.2675 30.5411C13.7875 30.8451 14.6065 30.8457 15.1327 30.5424L29.3555 22.327C29.6619 22.1547 29.8379 21.8919 29.8379 21.607L29.8355 19.1682C29.8355 19.1627 29.8379 19.1577 29.8379 19.1528C29.8379 18.8722 29.6656 18.6113 29.3647 18.4359L21.2059 13.695C20.9512 13.5473 20.6256 13.4734 20.2982 13.4697C20.4349 13.2039 20.5198 12.9153 20.5198 12.647L20.5136 10.2223C20.5813 10.1928 20.649 10.1725 20.7173 10.1325C21.5321 9.66235 22.1696 8.55958 22.1665 7.62173L22.1635 6.48573C22.1635 6.48142 22.1665 6.47773 22.1665 6.47342C22.1662 6.4178 22.1507 6.36331 22.1216 6.31589C22.1087 6.29312 22.0847 6.27896 22.0662 6.25927C22.0478 6.24204 22.0355 6.21989 22.0139 6.20696L22.009 6.20266C22.0078 6.20204 22.0059 6.20266 22.0041 6.20142L20.5007 5.32758L20.4945 3.21004C20.4902 2.83589 20.3105 2.56204 20.1112 2.44635L20.1099 2.44512L18.1838 1.32512C17.937 1.18235 17.6213 1.20266 17.3179 1.38112L3.1007 9.59035C2.57454 9.89066 2.16162 10.6014 2.16162 11.2107ZM29.0552 18.9682C29.1782 19.0396 29.2213 19.1116 29.2219 19.1516V19.1528C29.2219 19.1713 29.2096 19.1977 29.1869 19.2267C29.185 19.2291 29.1862 19.2303 29.1838 19.2334C29.1745 19.2439 29.153 19.2568 29.1407 19.2679C29.1142 19.2907 29.0921 19.3134 29.0484 19.3374L14.8275 27.5485C14.4619 27.7608 13.8644 27.7153 13.5752 27.5485C11.5567 26.3731 5.48716 22.855 5.37208 22.7719C5.21331 22.655 5.19916 22.5793 5.40901 22.45L19.5856 14.2667C20.0293 14.007 20.5776 14.042 20.8964 14.2267L29.0552 18.9682ZM20.4096 9.59958C19.9075 9.89004 19.5696 9.69681 19.5678 9.12266L19.5659 8.15219L21.5493 7.00758L21.5512 7.62358C21.553 8.33681 21.0305 9.24142 20.4096 9.59958ZM21.2404 6.46973L19.2576 7.61435L16.7961 6.18542L18.7776 5.03958C18.8392 5.0765 21.3032 6.50542 21.2404 6.46973ZM17.809 11.1017C17.305 11.3922 16.9684 11.2174 16.9665 10.6248L16.9641 9.65496L18.9512 8.50727V9.12389L18.9524 9.13619C18.9487 9.84696 18.4281 10.7442 17.809 11.1017ZM8.37824 11.0439L10.841 12.4747L8.85762 13.6199L6.39485 12.1891L8.37824 11.0439ZM13.4385 10.9743L11.4552 12.119L8.99362 10.6888L10.977 9.54358L13.4385 10.9743ZM16.0404 9.47219L14.0527 10.6193L11.5912 9.1885L13.5789 8.04142L16.0404 9.47219ZM18.5629 7.92327L18.6429 7.97004L16.6552 9.11712L14.1936 7.68635L16.1789 6.53989L18.5629 7.92327ZM11.1493 13.0125L11.1505 13.6285L11.1518 13.6371C11.1499 14.3485 10.6293 15.2476 10.0109 15.6045C9.50131 15.898 9.17085 15.714 9.16901 15.127L9.16654 14.1577L11.1493 13.0125ZM11.7647 12.6562L13.7475 11.5116L13.7493 12.1282C13.7512 12.8408 13.2287 13.746 12.6084 14.1042C12.1112 14.3928 11.7733 14.2273 11.7672 13.6365V13.6267L11.7647 12.6562ZM14.3616 11.1571L16.3493 10.0094L16.3512 10.626C16.353 11.3393 15.8305 12.2439 15.2102 12.6014C14.7105 12.8907 14.3672 12.7245 14.3647 12.1263L14.3616 11.1571ZM8.55116 14.1534L8.55362 15.1288C8.5567 16.1774 9.38131 16.679 10.3185 16.1374C10.8521 15.8297 11.305 15.25 11.5561 14.6248C11.9622 14.9651 12.4601 14.9005 12.9161 14.6371C13.4496 14.3288 13.9025 13.7485 14.1542 13.122C14.5641 13.4667 15.0625 13.3977 15.5179 13.135C16.0515 12.8273 16.5044 12.2476 16.7555 11.6211C17.1641 11.9657 17.6625 11.8968 18.1167 11.6347C18.2478 11.559 18.3721 11.4623 18.4921 11.3577V12.5608L18.4884 12.5657L6.10254 19.7473L6.08101 12.7183L8.55116 14.1534ZM18.9333 4.41681C18.9284 4.41373 18.9222 4.41496 18.9173 4.4125C18.8722 4.38977 18.8222 4.37819 18.7717 4.37873C18.7212 4.37926 18.6715 4.3919 18.6269 4.41558H18.6256L18.6244 4.41619L5.62624 11.9214L5.61701 11.9276C5.57014 11.9546 5.53124 11.9936 5.50423 12.0405C5.47722 12.0874 5.46305 12.1405 5.46316 12.1947L5.48778 20.2808C5.48793 20.3348 5.50229 20.3878 5.52942 20.4345C5.55654 20.4812 5.59548 20.5199 5.64231 20.5468C5.68914 20.5737 5.74222 20.5878 5.79622 20.5876C5.85022 20.5875 5.90323 20.5731 5.94993 20.546L18.889 13.0383C18.9684 12.9707 19.1069 12.7768 19.1069 12.639V10.618C19.2028 10.4599 19.2858 10.2942 19.3549 10.1227C19.5105 10.2543 19.7161 10.3325 19.8989 10.3467L19.9038 12.6482C19.9038 13.0297 19.6256 13.5128 19.2952 13.719L5.05331 21.9448C4.8287 22.0765 4.73085 22.0279 4.73085 21.7651C4.69147 15.9842 4.70624 12.1731 4.75239 12.0236C4.84901 11.7103 5.07793 11.3897 5.33331 11.2445L19.5469 3.03404C19.7813 2.89866 19.8761 2.9725 19.8792 3.21435L19.8841 4.96942L18.9333 4.41681ZM3.40716 10.1245C17.7259 1.8765 17.7352 1.77558 17.8755 1.85742L19.1075 2.57373L5.02439 10.7067C4.56531 10.9719 4.19854 11.5387 4.11054 12.074C4.07731 12.274 4.11301 21.538 4.11301 21.6002L2.88162 20.8839C2.8447 20.8617 2.8047 20.7873 2.8047 20.6445L2.77701 11.21C2.77701 10.8223 3.07054 10.3159 3.40716 10.1245Z" fill="#2A3FCC"/>
<path d="M8.06299 26.8032C7.99261 26.7643 7.90979 26.7545 7.83227 26.7759C7.75475 26.7973 7.68869 26.8482 7.64823 26.9177C7.60777 26.9872 7.59612 27.0698 7.61579 27.1478C7.63546 27.2257 7.68487 27.2929 7.75345 27.3349L9.08884 28.1115C9.12379 28.1329 9.16266 28.1471 9.20318 28.1533C9.24369 28.1595 9.28503 28.1575 9.32477 28.1475C9.36451 28.1375 9.40185 28.1196 9.43459 28.0949C9.46733 28.0703 9.49482 28.0394 9.51544 28.0039C9.53605 27.9685 9.54939 27.9293 9.55466 27.8887C9.55993 27.8481 9.55703 27.8068 9.54612 27.7673C9.53522 27.7278 9.51653 27.6908 9.49116 27.6586C9.46579 27.6265 9.43424 27.5997 9.39838 27.5798L8.06299 26.8032ZM9.29192 21.7429C9.27173 21.7078 9.24478 21.6771 9.21265 21.6525C9.18051 21.6278 9.14381 21.6098 9.10467 21.5995C9.06554 21.5891 9.02473 21.5866 8.98462 21.5921C8.94452 21.5976 8.90589 21.611 8.87099 21.6315L7.96391 22.1589C7.89533 22.2009 7.84592 22.2681 7.82625 22.3461C7.80658 22.424 7.81823 22.5066 7.85869 22.5761C7.89915 22.6456 7.96521 22.6965 8.04273 22.7179C8.12025 22.7393 8.20307 22.7295 8.27345 22.6906L9.18053 22.1632C9.25089 22.1221 9.30206 22.0548 9.32283 21.976C9.34359 21.8972 9.33225 21.8134 9.2913 21.7429H9.29192ZM10.5288 21.3786L11.4365 20.8512C11.4724 20.8314 11.5039 20.8046 11.5293 20.7724C11.5547 20.7402 11.5734 20.7033 11.5843 20.6638C11.5952 20.6243 11.5981 20.583 11.5928 20.5424C11.5875 20.5017 11.5742 20.4625 11.5536 20.4271C11.533 20.3917 11.5055 20.3608 11.4727 20.3361C11.44 20.3115 11.4027 20.2936 11.3629 20.2836C11.3232 20.2736 11.2818 20.2716 11.2413 20.2778C11.2008 20.2839 11.1619 20.2981 11.127 20.3195L10.2199 20.8469C10.1493 20.888 10.0979 20.9554 10.077 21.0343C10.0562 21.1132 10.0675 21.1973 10.1085 21.2678C10.1496 21.3384 10.217 21.3898 10.2959 21.4107C10.3749 21.4316 10.4589 21.4203 10.5295 21.3792L10.5288 21.3786ZM12.7855 20.0672L13.6925 19.5392C13.7284 19.5194 13.7599 19.4926 13.7853 19.4604C13.8107 19.4282 13.8294 19.3913 13.8403 19.3518C13.8512 19.3123 13.8541 19.271 13.8488 19.2304C13.8435 19.1897 13.8302 19.1505 13.8096 19.1151C13.789 19.0797 13.7615 19.0488 13.7287 19.0241C13.696 18.9995 13.6587 18.9816 13.6189 18.9716C13.5792 18.9616 13.5378 18.9596 13.4973 18.9658C13.4568 18.9719 13.4179 18.9861 13.383 19.0075L12.4759 19.5355C12.44 19.5554 12.4085 19.5821 12.3831 19.6143C12.3578 19.6465 12.3391 19.6834 12.3282 19.723C12.3173 19.7625 12.3144 19.8037 12.3196 19.8444C12.3249 19.885 12.3382 19.9242 12.3589 19.9596C12.3795 19.995 12.407 20.026 12.4397 20.0506C12.4724 20.0753 12.5098 20.0931 12.5495 20.1032C12.5893 20.1132 12.6306 20.1152 12.6711 20.109C12.7116 20.1028 12.7505 20.0886 12.7855 20.0672ZM15.0415 18.7552L15.9485 18.2278C15.9835 18.2075 16.0141 18.1805 16.0386 18.1484C16.0631 18.1162 16.0811 18.0795 16.0914 18.0404C16.1017 18.0014 16.1043 17.9606 16.0989 17.9205C16.0935 17.8805 16.0802 17.8419 16.0599 17.8069C16.0396 17.772 16.0126 17.7414 15.9804 17.7168C15.9483 17.6923 15.9116 17.6744 15.8725 17.664C15.8334 17.6537 15.7927 17.6512 15.7526 17.6566C15.7126 17.662 15.6739 17.6752 15.639 17.6955L14.7319 18.2235C14.696 18.2434 14.6645 18.2701 14.6391 18.3023C14.6138 18.3345 14.5951 18.3714 14.5842 18.411C14.5733 18.4505 14.5704 18.4917 14.5756 18.5324C14.5809 18.573 14.5942 18.6122 14.6149 18.6476C14.6355 18.683 14.663 18.714 14.6957 18.7386C14.7284 18.7633 14.7658 18.7811 14.8055 18.7912C14.8453 18.8012 14.8866 18.8032 14.9271 18.797C14.9676 18.7908 15.0065 18.7766 15.0415 18.7552ZM17.2975 17.4438L18.2045 16.9158C18.2404 16.896 18.2719 16.8692 18.2973 16.837C18.3227 16.8049 18.3414 16.7679 18.3523 16.7284C18.3632 16.6889 18.3661 16.6476 18.3608 16.607C18.3555 16.5663 18.3422 16.5272 18.3216 16.4917C18.301 16.4563 18.2735 16.4254 18.2407 16.4007C18.208 16.3761 18.1707 16.3582 18.1309 16.3482C18.0912 16.3382 18.0498 16.3362 18.0093 16.3424C17.9688 16.3485 17.9299 16.3627 17.895 16.3841L16.9879 16.9115C16.953 16.9319 16.9224 16.9589 16.8978 16.991C16.8733 17.0232 16.8554 17.0598 16.845 17.0989C16.8347 17.138 16.8322 17.1788 16.8376 17.2188C16.843 17.2589 16.8562 17.2975 16.8765 17.3325C16.8969 17.3674 16.9239 17.398 16.956 17.4225C16.9882 17.447 17.0248 17.465 17.0639 17.4753C17.103 17.4857 17.1438 17.4882 17.1838 17.4828C17.2239 17.4774 17.2625 17.4642 17.2975 17.4438ZM20.151 15.0721L19.2439 15.6001C19.208 15.62 19.1765 15.6468 19.1511 15.6789C19.1258 15.7111 19.1071 15.7481 19.0962 15.7876C19.0853 15.8271 19.0824 15.8684 19.0876 15.909C19.0929 15.9496 19.1062 15.9888 19.1269 16.0242C19.1475 16.0597 19.175 16.0906 19.2077 16.1153C19.2404 16.1399 19.2778 16.1578 19.3175 16.1678C19.3573 16.1778 19.3986 16.1798 19.4391 16.1736C19.4796 16.1674 19.5185 16.1532 19.5535 16.1318L20.4605 15.6038C20.4964 15.584 20.5279 15.5572 20.5533 15.525C20.5787 15.4929 20.5974 15.4559 20.6083 15.4164C20.6192 15.3769 20.6221 15.3356 20.6168 15.295C20.6115 15.2543 20.5982 15.2152 20.5776 15.1797C20.557 15.1443 20.5295 15.1134 20.4967 15.0887C20.464 15.0641 20.4267 15.0462 20.3869 15.0362C20.3472 15.0262 20.3058 15.0242 20.2653 15.0304C20.2248 15.0365 20.1859 15.0507 20.151 15.0721ZM10.735 22.5817C10.7146 22.5468 10.6876 22.5162 10.6554 22.4917C10.6232 22.4673 10.5866 22.4494 10.5475 22.4391C10.5084 22.4288 10.4677 22.4263 10.4276 22.4318C10.3876 22.4372 10.349 22.4505 10.3141 22.4709L9.40638 22.9977C9.33579 23.0387 9.2844 23.1061 9.26351 23.1851C9.24262 23.264 9.25394 23.348 9.29499 23.4186C9.33604 23.4892 9.40345 23.5406 9.48238 23.5615C9.56132 23.5824 9.64533 23.571 9.71591 23.53L10.6236 23.002C10.694 22.9609 10.7451 22.8935 10.7659 22.8147C10.7867 22.7359 10.7759 22.6521 10.735 22.5817ZM12.9904 21.2697C12.9493 21.1993 12.8819 21.1482 12.8031 21.1274C12.7243 21.1066 12.6405 21.118 12.5701 21.1589L11.6624 21.6863C11.6265 21.7061 11.595 21.7329 11.5696 21.7651C11.5442 21.7973 11.5255 21.8342 11.5146 21.8737C11.5037 21.9132 11.5008 21.9545 11.5061 21.9952C11.5114 22.0358 11.5247 22.075 11.5453 22.1104C11.5659 22.1458 11.5934 22.1768 11.6262 22.2014C11.6589 22.2261 11.6962 22.2439 11.736 22.2539C11.7757 22.264 11.8171 22.2659 11.8576 22.2598C11.8981 22.2536 11.937 22.2394 11.9719 22.218L12.8796 21.69C12.95 21.6489 13.0011 21.5815 13.0219 21.5027C13.0427 21.4239 13.0313 21.3401 12.9904 21.2697ZM15.247 19.9583C15.2267 19.9233 15.1997 19.8927 15.1675 19.8682C15.1354 19.8436 15.0987 19.8257 15.0596 19.8154C15.0205 19.805 14.9798 19.8025 14.9397 19.8079C14.8996 19.8133 14.861 19.8266 14.8261 19.8469L13.9184 20.3743C13.8825 20.3941 13.851 20.4209 13.8256 20.4531C13.8002 20.4853 13.7815 20.5222 13.7706 20.5617C13.7597 20.6012 13.7568 20.6425 13.7621 20.6832C13.7674 20.7238 13.7807 20.763 13.8013 20.7984C13.8219 20.8338 13.8494 20.8648 13.8822 20.8894C13.9149 20.9141 13.9522 20.9319 13.992 20.9419C14.0317 20.952 14.0731 20.9539 14.1136 20.9478C14.1541 20.9416 14.193 20.9274 14.2279 20.906L15.1356 20.3786C15.206 20.3375 15.2571 20.2702 15.2779 20.1914C15.2987 20.1126 15.2873 20.0287 15.2464 19.9583H15.247ZM16.0636 19.4832C16.1047 19.5536 16.1721 19.6048 16.2509 19.6255C16.3297 19.6463 16.4135 19.6349 16.4839 19.594L17.3916 19.0666C17.4275 19.0468 17.459 19.02 17.4844 18.9878C17.5098 18.9556 17.5285 18.9187 17.5394 18.8792C17.5503 18.8397 17.5532 18.7984 17.5479 18.7578C17.5426 18.7171 17.5293 18.6779 17.5087 18.6425C17.488 18.6071 17.4606 18.5761 17.4278 18.5515C17.3951 18.5269 17.3577 18.509 17.318 18.499C17.2783 18.4889 17.2369 18.487 17.1964 18.4931C17.1559 18.4993 17.117 18.5135 17.0821 18.5349L16.1744 19.0623C16.1395 19.0827 16.1089 19.1097 16.0844 19.1419C16.06 19.174 16.0421 19.2107 16.0318 19.2498C16.0215 19.2889 16.019 19.3296 16.0245 19.3697C16.0299 19.4097 16.0432 19.4483 16.0636 19.4832ZM19.3381 17.2229L18.4304 17.7509C18.3945 17.7707 18.363 17.7975 18.3376 17.8297C18.3122 17.8619 18.2935 17.8988 18.2826 17.9383C18.2717 17.9778 18.2688 18.0191 18.2741 18.0598C18.2794 18.1004 18.2927 18.1396 18.3133 18.175C18.3339 18.2104 18.3614 18.2414 18.3942 18.266C18.4269 18.2907 18.4642 18.3085 18.504 18.3186C18.5437 18.3286 18.5851 18.3306 18.6256 18.3244C18.6661 18.3182 18.705 18.304 18.7399 18.2826L19.6476 17.7546C19.6835 17.7348 19.715 17.708 19.7404 17.6758C19.7658 17.6436 19.7845 17.6067 19.7954 17.5672C19.8063 17.5277 19.8092 17.4864 19.8039 17.4458C19.7986 17.4051 19.7853 17.3659 19.7647 17.3305C19.744 17.2951 19.7166 17.2641 19.6838 17.2395C19.6511 17.2149 19.6137 17.197 19.574 17.187C19.5343 17.1769 19.4929 17.175 19.4524 17.1811C19.4119 17.1873 19.373 17.2015 19.3381 17.2229ZM20.5756 16.8592C20.6166 16.9297 20.6839 16.981 20.7627 17.0019C20.8415 17.0228 20.9254 17.0115 20.9959 16.9706L21.9036 16.4432C21.9386 16.4229 21.9692 16.3959 21.9937 16.3637C22.0182 16.3316 22.0361 16.2949 22.0465 16.2558C22.0568 16.2167 22.0594 16.176 22.054 16.1359C22.0486 16.0959 22.0353 16.0573 22.015 16.0223C21.9947 15.9873 21.9677 15.9567 21.9355 15.9322C21.9034 15.9077 21.8667 15.8898 21.8276 15.8794C21.7885 15.8691 21.7478 15.8665 21.7077 15.8719C21.6676 15.8773 21.629 15.8906 21.5941 15.9109L20.6864 16.4389C20.616 16.48 20.5648 16.5474 20.5441 16.6262C20.5233 16.705 20.5347 16.7888 20.5756 16.8592ZM11.7571 23.3091L10.8495 23.8371C10.8136 23.8569 10.782 23.8837 10.7567 23.9159C10.7313 23.9481 10.7126 23.985 10.7017 24.0245C10.6908 24.064 10.6879 24.1053 10.6932 24.1459C10.6984 24.1866 10.7118 24.2257 10.7324 24.2612C10.753 24.2966 10.7805 24.3275 10.8132 24.3522C10.846 24.3768 10.8833 24.3947 10.9231 24.4047C10.9628 24.4147 11.0041 24.4167 11.0447 24.4105C11.0852 24.4044 11.124 24.3902 11.159 24.3688L12.0667 23.8414C12.1016 23.8211 12.1322 23.794 12.1568 23.7619C12.1813 23.7297 12.1992 23.6931 12.2096 23.654C12.2199 23.6149 12.2224 23.5742 12.217 23.5341C12.2116 23.494 12.1984 23.4554 12.1781 23.4205C12.1577 23.3855 12.1307 23.3549 12.0986 23.3304C12.0664 23.3059 12.0298 23.2879 11.9907 23.2776C11.9516 23.2672 11.9108 23.2647 11.8708 23.2701C11.8307 23.2755 11.7921 23.2887 11.7571 23.3091ZM14.0131 21.9977L13.1055 22.5251C13.0705 22.5454 13.0399 22.5724 13.0154 22.6046C12.9909 22.6367 12.9729 22.6734 12.9626 22.7125C12.9522 22.7515 12.9497 22.7923 12.9551 22.8324C12.9605 22.8724 12.9737 22.911 12.9941 22.946C13.0144 22.9809 13.0414 23.0115 13.0736 23.0361C13.1057 23.0606 13.1424 23.0785 13.1815 23.0889C13.2205 23.0992 13.2613 23.1017 13.3014 23.0963C13.3414 23.0909 13.38 23.0777 13.415 23.0574L14.3227 22.5294C14.3586 22.5096 14.3901 22.4828 14.4155 22.4506C14.4408 22.4184 14.4595 22.3815 14.4704 22.342C14.4813 22.3024 14.4842 22.2612 14.479 22.2205C14.4737 22.1799 14.4604 22.1407 14.4397 22.1053C14.4191 22.0699 14.3916 22.0389 14.3589 22.0143C14.3262 21.9896 14.2888 21.9718 14.2491 21.9617C14.2093 21.9517 14.168 21.9497 14.1275 21.9559C14.087 21.9621 14.0481 21.9763 14.0131 21.9977ZM16.5781 21.2174C16.6147 21.198 16.6469 21.1714 16.673 21.1392C16.6991 21.107 16.7184 21.0699 16.7298 21.0301C16.7411 20.9903 16.7444 20.9486 16.7392 20.9075C16.7341 20.8664 16.7208 20.8268 16.7 20.791C16.6792 20.7552 16.6513 20.7239 16.6182 20.6991C16.585 20.6743 16.5472 20.6565 16.507 20.6466C16.4667 20.6368 16.4249 20.6352 16.3841 20.6419C16.3432 20.6486 16.3041 20.6635 16.2691 20.6857L15.3615 21.2137C15.3256 21.2335 15.294 21.2603 15.2687 21.2925C15.2433 21.3247 15.2246 21.3616 15.2137 21.4011C15.2028 21.4406 15.1999 21.4819 15.2052 21.5225C15.2104 21.5632 15.2238 21.6024 15.2444 21.6378C15.265 21.6732 15.2925 21.7041 15.3252 21.7288C15.358 21.7534 15.3953 21.7713 15.4351 21.7813C15.4748 21.7913 15.5161 21.7933 15.5567 21.7872C15.5972 21.781 15.636 21.7668 15.671 21.7454L16.5781 21.2174ZM18.5251 19.3737L17.6175 19.9017C17.5816 19.9215 17.55 19.9483 17.5247 19.9805C17.4993 20.0127 17.4806 20.0496 17.4697 20.0891C17.4588 20.1286 17.4559 20.1699 17.4612 20.2105C17.4664 20.2512 17.4798 20.2904 17.5004 20.3258C17.521 20.3612 17.5485 20.3921 17.5812 20.4168C17.614 20.4414 17.6513 20.4593 17.6911 20.4693C17.7308 20.4793 17.7721 20.4813 17.8127 20.4752C17.8532 20.469 17.892 20.4548 17.927 20.4334L18.8347 19.906C18.9053 19.8649 18.9567 19.7975 18.9776 19.7186C18.9984 19.6397 18.9871 19.5557 18.9461 19.4851C18.905 19.4145 18.8376 19.3631 18.7587 19.3422C18.6797 19.3213 18.5957 19.3326 18.5251 19.3737ZM19.7627 19.01C19.8037 19.0805 19.871 19.1318 19.9498 19.1526C20.0286 19.1735 20.1125 19.1623 20.183 19.1214L21.0907 18.594C21.1266 18.5742 21.1581 18.5474 21.1835 18.5152C21.2088 18.483 21.2275 18.4461 21.2384 18.4066C21.2493 18.3671 21.2522 18.3258 21.247 18.2851C21.2417 18.2445 21.2284 18.2053 21.2077 18.1699C21.1871 18.1345 21.1596 18.1035 21.1269 18.0789C21.0942 18.0542 21.0568 18.0364 21.0171 18.0264C20.9773 18.0163 20.936 18.0143 20.8955 18.0205C20.855 18.0267 20.8161 18.0409 20.7811 18.0623L19.8735 18.5897C19.8031 18.6308 19.7519 18.6981 19.7312 18.7769C19.7104 18.8557 19.7217 18.9395 19.7627 19.01ZM22.0181 17.6986C22.0384 17.7335 22.0655 17.7641 22.0976 17.7886C22.1298 17.813 22.1665 17.8309 22.2056 17.8412C22.2447 17.8515 22.2854 17.854 22.3255 17.8485C22.3655 17.8431 22.4041 17.8298 22.439 17.8094L23.3467 17.282C23.3826 17.2622 23.4141 17.2354 23.4395 17.2032C23.4648 17.171 23.4835 17.1341 23.4944 17.0946C23.5053 17.0551 23.5082 17.0138 23.503 16.9731C23.4977 16.9325 23.4844 16.8933 23.4637 16.8579C23.4431 16.8225 23.4156 16.7915 23.3829 16.7669C23.3502 16.7422 23.3128 16.7244 23.2731 16.7144C23.2333 16.7043 23.192 16.7023 23.1515 16.7085C23.111 16.7147 23.0721 16.7289 23.0371 16.7503L22.1295 17.2783C22.0591 17.3194 22.0079 17.3868 21.9872 17.4655C21.9664 17.5443 21.9771 17.6282 22.0181 17.6986ZM20.2101 20.5343C20.1633 20.5073 20.1102 20.4931 20.0562 20.4931C20.0022 20.4931 19.9492 20.5073 19.9024 20.5343L15.7135 22.9515C15.6668 22.9787 15.6282 23.0175 15.6013 23.0643C15.5744 23.1111 15.5602 23.1641 15.5602 23.218C15.5602 23.2719 15.5744 23.3249 15.6013 23.3717C15.6282 23.4184 15.6668 23.4573 15.7135 23.4845L17.8359 24.7177C17.8826 24.7449 17.9357 24.7593 17.9898 24.7593C18.0438 24.7593 18.0969 24.7449 18.1436 24.7177L22.3319 22.3005C22.3786 22.2734 22.4173 22.2345 22.4442 22.1878C22.4712 22.1411 22.4854 22.0881 22.4854 22.0342C22.4855 21.9802 22.4714 21.9272 22.4446 21.8804C22.4178 21.8336 22.3791 21.7947 22.3325 21.7675L20.2101 20.5343ZM17.991 24.0961L16.4815 23.2192L20.055 21.1558L21.5645 22.0328L17.991 24.0961Z" fill="#2A3FCC"/>
</svg>
