<svg width="32" height="32" viewBox="0 0 32 32" fill="none" xmlns="http://www.w3.org/2000/svg">
<g clip-path="url(#clip0_2012_393)">
<path d="M3.2 2.13333V7.46667H4.26667V2.13333C4.26667 1.54412 4.74412 1.06667 5.33333 1.06667H26.6667C27.2559 1.06667 27.7333 1.54412 27.7333 2.13333H28.8C28.8 0.955187 27.8448 0 26.6667 0H5.33333C4.15519 0 3.2 0.955187 3.2 2.13333ZM2.13333 32H26.6667C27.8448 32 28.8 31.0448 28.8 29.8667V27.7333H27.7333V29.8667C27.7333 30.4559 27.2559 30.9333 26.6667 30.9333C26.0775 30.9333 25.6 30.4559 25.6 29.8667V28.2667C25.6 27.972 25.3613 27.7333 25.0667 27.7333H4.26667V17.0667H3.2V27.7333H0.533333C0.23866 27.7333 0 27.972 0 28.2667V29.8667C0 31.0448 0.955187 32 2.13333 32ZM1.06667 28.8H24.5333V29.8667C24.5328 30.2413 24.6317 30.6094 24.8199 30.9333H2.13333C1.54412 30.9333 1.06667 30.4559 1.06667 29.8667V28.8ZM0.533333 16H11.2C11.4947 16 11.7333 15.7613 11.7333 15.4667V9.06667C11.7333 8.77199 11.4947 8.53333 11.2 8.53333H0.533333C0.23866 8.53333 0 8.77199 0 9.06667V15.4667C0 15.7613 0.23866 16 0.533333 16ZM1.06667 9.6H10.6667V14.9333H1.06667V9.6Z" fill="#2A3FCC"/>
<path d="M3.35608 10.8231L2.28941 11.8898C2.08126 12.0982 2.08126 12.4355 2.28941 12.6439L3.35608 13.7106L4.11022 12.9565L3.42062 12.2669L4.11022 11.5773L3.35608 10.8231ZM8.37688 10.8231L7.62274 11.5773L8.31234 12.2669L7.62274 12.9565L8.37688 13.7106L9.44355 12.6439C9.6517 12.4355 9.6517 12.0982 9.44355 11.8898L8.37688 10.8231ZM4.82675 13.6982L5.89396 10.4978L6.90622 10.8354L5.83849 14.0355L4.82675 13.6982ZM31.4665 3.2002H13.3331C13.0385 3.2002 12.7998 3.43886 12.7998 3.73353V14.4002C12.7998 14.6949 13.0385 14.9335 13.3331 14.9335H31.4665C31.7612 14.9335 31.9998 14.6949 31.9998 14.4002V3.73353C31.9998 3.43886 31.7612 3.2002 31.4665 3.2002ZM30.9331 13.8669H13.8665V12.5687L18.6558 9.69512L23.325 12.7149C23.4038 12.7657 23.4946 12.7948 23.5882 12.7993C23.6819 12.8038 23.775 12.7835 23.8583 12.7405L27.7196 10.7405L30.9331 12.5762V13.8669ZM30.9331 11.3479L27.9998 9.67061C27.9225 9.62636 27.8353 9.6022 27.7462 9.60033C27.6571 9.59847 27.569 9.61896 27.4898 9.65993L23.6462 11.651L18.9582 8.61886C18.8744 8.56473 18.7771 8.53518 18.6773 8.53357C18.5776 8.53197 18.4793 8.55837 18.3938 8.60978L13.8665 11.325V4.26686H30.9331V11.3479Z" fill="#2A3FCC"/>
<path d="M25.3335 9.06683C26.3644 9.06683 27.2002 8.23111 27.2002 7.20015C27.2002 6.16922 26.3644 5.3335 25.3335 5.3335C24.3026 5.3335 23.4668 6.16922 23.4668 7.20018C23.4668 8.23111 24.3025 9.06683 25.3335 9.06683ZM25.3335 6.40016C25.7754 6.40016 26.1335 6.75829 26.1335 7.20018C26.1335 7.64204 25.7754 8.00016 25.3335 8.00016C24.8916 8.00016 24.5335 7.64204 24.5335 7.20015C24.5335 6.75829 24.8916 6.40016 25.3335 6.40016ZM5.3335 17.6002V24.0002C5.3335 24.2948 5.57216 24.5335 5.86683 24.5335H19.2002C19.4948 24.5335 19.7335 24.2948 19.7335 24.0002V17.6002C19.7335 17.3055 19.4948 17.0668 19.2002 17.0668H5.86683C5.57216 17.0668 5.3335 17.3055 5.3335 17.6002ZM6.40016 18.1335H18.6668V23.4668H6.40016V18.1335Z" fill="#2A3FCC"/>
<path d="M7.46683 19.2H9.60016V20.2666H7.46683V19.2ZM10.6668 19.2H15.4668V20.2666H10.6668V19.2ZM16.5335 19.2H17.6002V20.2666H16.5335V19.2ZM7.46683 21.3333H13.8668V22.4H7.46683V21.3333ZM14.9335 21.3333H17.6002V22.4H14.9335V21.3333ZM5.3335 2.1333H6.40016V3.19997H5.3335V2.1333ZM7.46683 2.1333H8.5335V3.19997H7.46683V2.1333ZM9.60016 2.1333H10.6668V3.19997H9.60016V2.1333ZM5.3335 4.26663H11.7335V5.3333H5.3335V4.26663ZM31.4668 19.2H21.3335C21.0388 19.2 20.8002 19.4386 20.8002 19.7333V26.1333C20.8002 26.428 21.0388 26.6666 21.3335 26.6666H31.4668C31.7615 26.6666 32.0002 26.428 32.0002 26.1333V19.7333C32.0002 19.4386 31.7615 19.2 31.4668 19.2ZM30.9335 25.6H21.8668V20.2666H30.9335V25.6Z" fill="#2A3FCC"/>
<path d="M22.9331 21.3333H23.9998V22.4H22.9331V21.3333ZM22.9331 23.4667H23.9998V24.5333H22.9331V23.4667ZM25.0664 21.3333H29.8664V22.4H25.0664V21.3333ZM25.0664 23.4667H29.8664V24.5333H25.0664V23.4667ZM27.7331 16H28.7998V18.1333H27.7331V16Z" fill="#2A3FCC"/>
</g>
<defs>
<clipPath id="clip0_2012_393">
<rect width="32" height="32" fill="white"/>
</clipPath>
</defs>
</svg>
