<svg width="32" height="32" viewBox="0 0 32 32" fill="none" xmlns="http://www.w3.org/2000/svg">
<g clip-path="url(#clip0_2012_394)">
<path d="M3.15626 20.8438C3.03194 20.8438 2.91271 20.8931 2.8248 20.981C2.73689 21.069 2.6875 21.1882 2.6875 21.3125C2.6875 21.4368 2.73689 21.5561 2.8248 21.644C2.91271 21.7319 3.03194 21.7813 3.15626 21.7813H7.25012C7.37444 21.7813 7.49367 21.7319 7.58158 21.644C7.66949 21.5561 7.71888 21.4368 7.71888 21.3125C7.71888 21.1882 7.66949 21.069 7.58158 20.981C7.49367 20.8931 7.37444 20.8438 7.25012 20.8438H3.15626Z" fill="#2A3FCC"/>
<path d="M31.474 24.2737L29.5003 22.3L29.5007 6.43903C29.5007 6.00827 29.1503 5.65776 28.7195 5.65776L24.2076 5.65744C22.4312 3.95715 19.9353 2.95994 17.4531 2.96831C14.8433 2.96831 12.4681 3.99109 10.7066 5.65651L6.34591 5.65607C6.22159 5.65606 6.10229 5.70544 6.01437 5.79334C5.92646 5.88125 5.87706 6.00048 5.87706 6.1248C5.87705 6.24912 5.92643 6.36836 6.01433 6.45627C6.10223 6.54419 6.22146 6.59359 6.34579 6.59359L9.83544 6.59397C9.57603 6.91205 9.33669 7.24597 9.11879 7.59381L0.937899 7.59331V6.59341L4.15823 6.59359C4.41711 6.59359 4.62699 6.38378 4.62699 6.12483C4.62699 5.86589 4.41717 5.65607 4.15823 5.65607L0.781582 5.65588C0.350759 5.65588 0.000312508 6.00633 0.000312508 6.43715L0 23.9362C0 24.367 0.350446 24.7174 0.78127 24.7174L7.13318 24.7179C7.39206 24.7179 7.60194 24.508 7.60194 24.2491C7.60194 23.9902 7.39213 23.7803 7.13318 23.7803L0.937524 23.7799L0.937899 8.53083L8.59972 8.53133C8.29554 9.16039 8.05987 9.82032 7.89676 10.4998H3.18758C3.06326 10.4998 2.94403 10.5491 2.85612 10.6371C2.76821 10.725 2.71882 10.8442 2.71882 10.9685V14.7186C2.71882 14.8429 2.76821 14.9622 2.85612 15.0501C2.94403 15.138 3.06326 15.1874 3.18758 15.1874H7.91995C8.02944 15.6236 8.16898 16.0517 8.33759 16.4687H3.15633C3.03201 16.4687 2.91278 16.518 2.82487 16.606C2.73696 16.6939 2.68757 16.8131 2.68757 16.9374C2.68757 17.0617 2.73696 17.181 2.82487 17.2689C2.91278 17.3568 3.03201 17.4062 3.15633 17.4062H8.77572C9.00816 17.8421 9.27306 18.26 9.56818 18.6562H3.15633C3.03201 18.6562 2.91278 18.7056 2.82487 18.7935C2.73696 18.8814 2.68757 19.0007 2.68757 19.125C2.68757 19.2493 2.73696 19.3685 2.82487 19.4564C2.91278 19.5443 3.03201 19.5937 3.15633 19.5937H10.3618C12.1517 21.4603 14.669 22.6242 17.4531 22.6242C19.1722 22.6242 20.836 22.1796 22.3014 21.3472L23.2387 22.2845C23.3221 22.368 23.4212 22.4342 23.5302 22.4793C23.6393 22.5244 23.7562 22.5475 23.8742 22.5473C24.0795 22.5473 24.2846 22.4771 24.4509 22.3376L25.8949 23.7816L9.32074 23.7804C9.06186 23.7804 8.85198 23.9902 8.85198 24.2492C8.85198 24.5081 9.06179 24.7179 9.32074 24.7179L11.3662 24.7181L10.9552 26.2175L10.1446 26.2173C8.97935 26.2173 8.03139 27.1652 8.03139 28.3305V28.561C8.03139 28.6853 8.08077 28.8045 8.16867 28.8924C8.25656 28.9803 8.37578 29.0297 8.50009 29.0297L21.0002 29.0315H21.0003C21.1246 29.0315 21.2438 28.9821 21.3317 28.8942C21.4196 28.8063 21.469 28.6871 21.469 28.5628V28.3323C21.469 27.1671 20.5211 26.2191 19.3559 26.2191L18.5454 26.2189L18.1341 24.7185L26.8326 24.7191L28.9306 26.8172C29.2704 27.1569 29.722 27.344 30.2023 27.344C30.6827 27.344 31.1344 27.1569 31.4741 26.8172C32.1753 26.116 32.1753 24.975 31.474 24.2737ZM20.5071 28.094L8.9931 28.0923C9.10354 27.5578 9.57781 27.1548 10.1444 27.1548L19.3557 27.1566C19.9224 27.1566 20.3967 27.5596 20.5071 28.094ZM17.5731 26.2188L11.9272 26.2177L12.3383 24.7181L17.1619 24.7185L17.5731 26.2188ZM28.5632 7.59512L25.7917 7.59493C25.5746 7.24711 25.3361 6.91316 25.0774 6.59503L28.5632 6.59528V7.59512ZM3.65634 14.2499V11.4373H7.71957C7.65684 11.8876 7.62531 12.3417 7.62519 12.7963C7.62519 13.2901 7.66219 13.7755 7.73288 14.2499H3.65634ZM8.56272 12.7963C8.56272 7.89413 12.5509 3.9059 17.4531 3.9059C21.8656 3.9059 25.56 7.06498 26.2374 11.4175C26.2772 11.6733 26.5169 11.8487 26.7726 11.8086C26.8334 11.7991 26.8918 11.7778 26.9444 11.7458C26.997 11.7137 27.0427 11.6717 27.079 11.622C27.1153 11.5723 27.1415 11.5159 27.156 11.4561C27.1706 11.3963 27.1732 11.3342 27.1637 11.2733C27.0152 10.3226 26.7271 9.39901 26.3086 8.53252L28.5632 8.5327L28.5628 21.3626L26.9945 19.7942C27.1306 19.6328 27.205 19.4284 27.2046 19.2174C27.2046 18.9773 27.1111 18.7517 26.9414 18.5819L26.0045 17.645C26.713 16.3978 27.1433 15.0019 27.253 13.5443C27.2576 13.4829 27.2501 13.4212 27.2309 13.3627C27.2117 13.3042 27.1811 13.2501 27.141 13.2034C27.1008 13.1568 27.0519 13.1184 26.997 13.0907C26.942 13.0629 26.8821 13.0463 26.8207 13.0416C26.5627 13.0227 26.3376 13.2157 26.3181 13.4739C25.9713 18.0792 22.0773 21.6867 17.4531 21.6867C12.5509 21.6867 8.56272 17.6985 8.56272 12.7963ZM23.1122 20.8321C24.0345 20.1816 24.8385 19.3779 25.4895 18.4559L26.2509 19.2174L23.8742 21.5941L23.1122 20.8321ZM30.8112 26.1543C30.6485 26.3169 30.4323 26.4065 30.2023 26.4065C29.9724 26.4065 29.7561 26.3169 29.5935 26.1543L25.1166 21.6774L26.3342 20.4598L30.8111 24.9366C31.1468 25.2724 31.1468 25.8186 30.8112 26.1543Z" fill="#2A3FCC"/>
<path d="M17.4531 4.84033C13.0662 4.84033 9.49707 8.40942 9.49707 12.7964C9.49707 15.3302 10.721 17.7352 12.7711 19.2296C12.9803 19.3821 13.2735 19.3361 13.426 19.1269C13.5785 18.9177 13.5326 18.6244 13.3234 18.4719C11.5146 17.1533 10.4346 15.0316 10.4346 12.7963C10.4346 8.92631 13.5831 5.77779 17.4531 5.77779C21.3232 5.77779 24.4717 8.92631 24.4717 12.7963C24.4717 16.6664 21.3232 19.8149 17.4531 19.8149C16.6561 19.8149 15.8742 19.6825 15.1294 19.4213C15.0713 19.4009 15.0098 19.3921 14.9483 19.3955C14.8868 19.3989 14.8266 19.4144 14.7712 19.4411C14.7157 19.4677 14.666 19.5051 14.6249 19.551C14.5839 19.5968 14.5523 19.6504 14.5319 19.7085C14.4908 19.8258 14.498 19.9546 14.5518 20.0667C14.6057 20.1787 14.7018 20.2648 14.8191 20.3059C15.6639 20.6022 16.5501 20.7524 17.4531 20.7524C21.8401 20.7524 25.4092 17.1833 25.4092 12.7963C25.4092 8.40936 21.8402 4.84033 17.4531 4.84033Z" fill="#2A3FCC"/>
<path d="M17.6759 11.5853C17.8002 11.5853 17.9194 11.5359 18.0074 11.448C18.0953 11.3601 18.1447 11.2408 18.1447 11.1165C18.1447 10.9922 18.0953 10.873 18.0074 10.7851C17.9194 10.6971 17.8002 10.6478 17.6759 10.6478H16.2604C16.1361 10.6478 16.0169 10.6971 15.9289 10.7851C15.841 10.873 15.7917 10.9922 15.7917 11.1165V14.4758C15.7917 14.6001 15.841 14.7194 15.9289 14.8073C16.0169 14.8952 16.1361 14.9446 16.2604 14.9446H17.6759C17.8002 14.9446 17.9194 14.8952 18.0074 14.8073C18.0953 14.7194 18.1447 14.6001 18.1447 14.4758C18.1447 14.3515 18.0953 14.2322 18.0074 14.1443C17.9194 14.0564 17.8002 14.007 17.6759 14.007H16.7292V13.265H17.5715C17.6958 13.265 17.8151 13.2156 17.903 13.1277C17.9909 13.0397 18.0403 12.9205 18.0403 12.7962C18.0403 12.6719 17.9909 12.5526 17.903 12.4647C17.8151 12.3768 17.6958 12.3274 17.5715 12.3274H16.7292V11.5853H17.6759ZM13.1839 14.0225C12.8595 14.0225 12.5476 13.8922 12.3498 13.674C12.2663 13.5818 12.1497 13.5267 12.0255 13.5205C11.9013 13.5144 11.7798 13.5579 11.6877 13.6414C11.5955 13.7249 11.5404 13.8416 11.5343 13.9657C11.5282 14.0899 11.5716 14.2114 11.6551 14.3035C12.0332 14.7207 12.5904 14.9601 13.1838 14.9601C13.9201 14.9601 14.5387 14.4885 14.6547 13.8389C14.7423 13.3483 14.5219 12.7082 13.6404 12.3831C13.3572 12.28 12.8927 12.1106 12.7161 12.0114C12.6668 11.9845 12.6454 11.9362 12.6524 11.8679C12.6623 11.7733 12.7328 11.654 12.9014 11.6032C13.3549 11.4667 13.7796 11.8 13.793 11.8107C13.8883 11.8897 14.0109 11.9277 14.1341 11.9166C14.2574 11.9054 14.3712 11.846 14.4507 11.7512C14.4904 11.7041 14.5203 11.6496 14.5388 11.5909C14.5574 11.5322 14.5642 11.4705 14.5589 11.4091C14.5536 11.3478 14.5362 11.2881 14.5079 11.2335C14.4795 11.1789 14.4406 11.1304 14.3935 11.0908C14.3607 11.0633 13.5801 10.4196 12.6309 10.7055C12.1287 10.8568 11.7712 11.2752 11.7198 11.7714C11.6736 12.2181 11.8835 12.6255 12.2677 12.8347C12.4608 12.9461 12.9038 13.114 13.3159 13.2627C13.4236 13.3024 13.7718 13.4495 13.7317 13.6742C13.7013 13.8454 13.488 14.0225 13.1839 14.0225ZM23.5151 12.7962C23.5151 11.603 22.5444 10.6323 21.3512 10.6323C20.1581 10.6323 19.1874 11.603 19.1874 12.7962C19.1874 13.9893 20.1581 14.9601 21.3512 14.9601C22.5444 14.9601 23.5151 13.9893 23.5151 12.7962ZM20.1249 12.7962C20.1249 12.12 20.675 11.5698 21.3512 11.5698C22.0274 11.5698 22.5776 12.12 22.5776 12.7962C22.5776 13.4724 22.0274 14.0225 21.3512 14.0225C20.675 14.0225 20.1249 13.4724 20.1249 12.7962Z" fill="#2A3FCC"/>
</g>
<defs>
<clipPath id="clip0_2012_394">
<rect width="32" height="32" fill="white"/>
</clipPath>
</defs>
</svg>
