<svg width="32" height="32" viewBox="0 0 32 32" fill="none" xmlns="http://www.w3.org/2000/svg">
<g clip-path="url(#clip0_2012_395)">
<path fill-rule="evenodd" clip-rule="evenodd" d="M3.13355 7.46202C2.96058 7.50689 2.7826 7.52953 2.60391 7.5294C1.44382 7.5294 0.501953 6.58754 0.501953 5.42744C0.501953 4.26735 1.44382 3.32548 2.60391 3.32548C3.76401 3.32548 4.70587 4.26735 4.70587 5.42744C4.70587 6.09028 4.39836 6.68191 3.91836 7.06729L4.53339 8.25097H6.87089V3.12696C6.87089 1.683 8.05226 0.501953 9.49414 0.501953H22.5041C23.948 0.501953 25.1291 1.68313 25.1291 3.12696V8.25097H27.4666L28.0816 7.06729C27.6016 6.68191 27.2941 6.09028 27.2941 5.42744C27.2941 4.26735 28.236 3.32548 29.3961 3.32548C30.5562 3.32548 31.498 4.26735 31.498 5.42744C31.498 6.58754 30.5562 7.5294 29.3961 7.5294C29.2132 7.5294 29.0357 7.506 28.8664 7.46202L28.1231 8.89273C28.086 8.96407 28.0301 9.02387 27.9613 9.0656C27.8926 9.10734 27.8137 9.12941 27.7333 9.12941H25.1291V14.9647H27.3402C27.5423 14.0151 28.3866 13.302 29.3961 13.302C30.5562 13.302 31.498 14.2438 31.498 15.4039C31.498 16.564 30.5562 17.5059 29.3961 17.5059C28.3866 17.5059 27.5423 16.7927 27.3402 15.8431H25.1291V21.6784H27.7333C27.8137 21.6784 27.8926 21.7005 27.9613 21.7422C28.0301 21.784 28.086 21.8438 28.1231 21.9151L28.8809 23.3735C29.0493 23.3311 29.2224 23.3097 29.3961 23.3098C30.5562 23.3098 31.498 24.2517 31.498 25.4118C31.498 26.5719 30.5562 27.5137 29.3961 27.5137C28.236 27.5137 27.2941 26.5719 27.2941 25.4118C27.2941 24.7436 27.6065 24.1478 28.0932 23.7627L27.4666 22.5569H25.1291V28.873C25.1291 30.3169 23.948 31.498 22.5041 31.498H9.49414C8.05226 31.498 6.87089 30.317 6.87089 28.873V22.5569H4.53339L3.90682 23.7627C4.39347 24.1478 4.70587 24.7436 4.70587 25.4118C4.70587 26.5719 3.76401 27.5137 2.60391 27.5137C1.44382 27.5137 0.501953 26.5719 0.501953 25.4118C0.501953 24.2517 1.44382 23.3098 2.60391 23.3098C2.78167 23.3098 2.95422 23.3319 3.11911 23.3735L3.87689 21.9151C3.91397 21.8438 3.96993 21.784 4.03866 21.7422C4.10739 21.7005 4.18625 21.6784 4.26666 21.6784H6.87089V15.8431H4.65982C4.45766 16.7927 3.61342 17.5059 2.60391 17.5059C1.44382 17.5059 0.501953 16.564 0.501953 15.4039C0.501953 14.2438 1.44382 13.302 2.60391 13.302C3.61342 13.302 4.45766 14.0151 4.65982 14.9647H6.87089V9.12941H4.26666C4.18625 9.12941 4.10739 9.10734 4.03866 9.0656C3.96993 9.02387 3.91397 8.96407 3.87689 8.89273L3.13355 7.46202ZM24.2507 28.873V3.12696C24.2507 2.16627 23.4648 1.38038 22.5041 1.38038H9.49414C8.53496 1.38038 7.74933 2.16639 7.74933 3.12696V28.873C7.74933 29.8336 8.53496 30.6196 9.49414 30.6196H22.5041C23.4648 30.6196 24.2507 29.8337 24.2507 28.873ZM28.1725 15.4039C28.1725 16.0792 28.7208 16.6274 29.3961 16.6274C30.0713 16.6274 30.6196 16.0792 30.6196 15.4039C30.6196 14.7287 30.0713 14.1804 29.3961 14.1804C28.7208 14.1804 28.1725 14.7287 28.1725 15.4039ZM3.82744 15.4039C3.82744 14.7287 3.27918 14.1804 2.60391 14.1804C1.92865 14.1804 1.38038 14.7287 1.38038 15.4039C1.38038 16.0792 1.92865 16.6274 2.60391 16.6274C3.27918 16.6274 3.82744 16.0792 3.82744 15.4039ZM22.0823 16.9215C21.1913 16.9215 20.7439 18.0012 21.3741 18.6314C21.7122 18.9695 21.7122 19.5196 21.3741 19.8576L20.4537 20.778C20.1156 21.1161 19.5656 21.1161 19.2275 20.778C18.5973 20.1478 17.5175 20.5952 17.5175 21.4862C17.5175 21.9664 17.1294 22.3529 16.6508 22.3529H15.3491C14.8706 22.3529 14.4824 21.9664 14.4824 21.4862C14.4824 20.5941 13.4032 20.1473 12.7725 20.778C12.4342 21.1164 11.8854 21.1164 11.5472 20.7782L10.6259 19.8576C10.2878 19.5196 10.2878 18.9695 10.6259 18.6314C11.2561 18.0012 10.8092 16.9215 9.91767 16.9215C9.43911 16.9215 9.05097 16.5333 9.05097 16.0548V14.7531C9.05097 14.2745 9.43911 13.8864 9.91767 13.8864C10.8092 13.8864 11.2561 12.8066 10.6259 12.1764C10.2876 11.8381 10.2876 11.2893 10.6259 10.951L11.547 10.0298C11.8854 9.69148 12.4342 9.69148 12.7725 10.0298C13.4027 10.66 14.4824 10.2131 14.4824 9.32159C14.4824 8.84304 14.8706 8.45489 15.3491 8.45489H16.6508C17.1294 8.45489 17.5175 8.84304 17.5175 9.32159C17.5175 10.2131 18.5973 10.66 19.2275 10.0298C19.5656 9.69173 20.1156 9.69173 20.4537 10.0298L21.3741 10.951C21.7124 11.2893 21.7124 11.8381 21.3741 12.1764C20.7439 12.8066 21.1913 13.8864 22.0823 13.8864C22.5624 13.8864 22.949 14.2745 22.949 14.7531V16.0548C22.949 16.5333 22.5624 16.9215 22.0823 16.9215ZM9.9294 14.7647V16.0431C11.5913 16.0525 12.4233 18.0633 11.255 19.2445L12.1598 20.1485C13.342 18.9797 15.3514 19.8118 15.3608 21.4745H16.6392C16.6486 19.8136 18.6594 18.9806 19.8406 20.1489L20.745 19.2445C19.5767 18.0633 20.4097 16.0525 22.0706 16.0431V14.7647C20.4098 14.7553 19.5768 12.745 20.7446 11.5637L19.8406 10.6589C18.6594 11.8273 16.6486 10.9952 16.6392 9.33333H15.3608C15.3514 10.995 13.341 11.8271 12.1598 10.6593L11.2554 11.5637C12.4232 12.745 11.5911 14.7553 9.9294 14.7647ZM16.0004 18.9713C14.0353 18.9713 12.4333 17.3685 12.4333 15.4043C12.4333 13.4392 14.0353 11.8372 16.0004 11.8372C17.9645 11.8372 19.5674 13.4392 19.5674 15.4043C19.5674 17.3685 17.9645 18.9713 16.0004 18.9713ZM16.0004 18.0929C17.4808 18.0929 18.689 16.8848 18.689 15.4043C18.689 13.9232 17.4808 12.7157 16.0004 12.7157C14.5193 12.7157 13.3117 13.9232 13.3117 15.4043C13.3117 16.8848 14.5193 18.0929 16.0004 18.0929ZM14.8119 28.4656C14.5695 28.4656 14.3727 28.2689 14.3727 28.0264C14.3727 27.784 14.5695 27.5872 14.8119 27.5872H17.1881C17.4305 27.5872 17.6273 27.784 17.6273 28.0264C17.6273 28.2689 17.4305 28.4656 17.1881 28.4656H14.8119ZM2.60391 24.1882C1.92865 24.1882 1.38038 24.7365 1.38038 25.4118C1.38038 26.087 1.92865 26.6353 2.60391 26.6353C3.27918 26.6353 3.82744 26.087 3.82744 25.4118C3.82744 24.7365 3.27918 24.1882 2.60391 24.1882ZM29.3961 4.20391C28.7208 4.20391 28.1725 4.75218 28.1725 5.42744C28.1725 6.10271 28.7208 6.65097 29.3961 6.65097C30.0713 6.65097 30.6196 6.10271 30.6196 5.42744C30.6196 4.75218 30.0713 4.20391 29.3961 4.20391ZM29.3961 24.1882C28.7208 24.1882 28.1725 24.7365 28.1725 25.4118C28.1725 26.087 28.7208 26.6353 29.3961 26.6353C30.0713 26.6353 30.6196 26.087 30.6196 25.4118C30.6196 24.7365 30.0713 24.1882 29.3961 24.1882ZM2.60391 4.20391C1.92865 4.20391 1.38038 4.75218 1.38038 5.42744C1.38038 6.10271 1.92865 6.65097 2.60391 6.65097C3.27918 6.65097 3.82744 6.10271 3.82744 5.42744C3.82744 4.75218 3.27918 4.20391 2.60391 4.20391Z" fill="#2A3FCC"/>
</g>
<defs>
<clipPath id="clip0_2012_395">
<rect width="32" height="32" fill="white"/>
</clipPath>
</defs>
</svg>
