<svg width="32" height="32" viewBox="0 0 32 32" fill="none" xmlns="http://www.w3.org/2000/svg">
<path d="M27.0544 21.3819C26.2787 21.091 25.4059 21.188 24.6302 21.6728L19.9756 24.4849C19.7817 24.3395 19.5877 24.194 19.3938 24.1455L12.3635 21.6243C11.8302 21.4304 11.2484 21.4304 10.7635 21.6728C10.7635 21.6728 10.715 21.6728 10.715 21.7213L7.9029 23.4183V23.2728C7.9029 22.7395 7.46653 22.3031 6.9332 22.3031H4.60593C4.07259 22.3031 3.63623 22.7395 3.63623 23.2728V30.5455C3.63623 31.0789 4.07259 31.5152 4.60593 31.5152H6.88472C7.41805 31.5152 7.85441 31.0789 7.85441 30.5455V30.3031C8.92108 29.7213 9.35744 29.188 10.0847 29.2849L17.8423 30.9819C18.4726 31.1758 19.1514 31.0304 19.7332 30.6425L27.6362 24.388C28.7029 23.6607 28.6059 21.9637 27.0544 21.3819ZM4.60593 30.5455V23.2728H6.88472V30.5455H4.60593ZM27.0544 23.6122C19.0059 29.7213 19.1999 30.3516 18.0847 30.0122L10.2787 28.3152H10.2302C9.11502 28.1213 8.33926 28.897 7.85441 29.1395V24.4849L11.1514 22.4971C11.4423 22.4001 11.7332 22.4001 12.0241 22.4971L19.0544 25.0183C19.6847 25.2607 19.9271 26.0364 19.5393 26.5698C19.2484 26.9577 18.7635 27.1031 18.2787 26.9092L14.109 25.3092C13.8665 25.2122 13.5756 25.3577 13.4787 25.6001C13.3817 25.8425 13.5271 26.1334 13.7696 26.2304L17.9393 27.8304C18.812 28.2183 19.7817 27.9274 20.315 27.2001C20.7029 26.6667 20.8484 26.0364 20.5574 25.3092L25.1635 22.5455C25.6484 22.2546 26.2302 22.1577 26.7635 22.3516C27.4908 22.594 27.5393 23.2728 27.0544 23.6122Z" fill="#2A3FCC"/>
<path d="M15.1757 16.5334C15.6121 16.8243 15.903 17.3092 16 17.794C15.5636 18.0365 15.3212 18.5213 15.3212 19.0062C15.3212 19.6849 15.8061 20.2668 16.4848 20.4122L16.6788 21.9637C16.7273 22.2062 16.9212 22.4001 17.1636 22.4001H20.9454C21.1879 22.4001 21.3818 22.2062 21.4303 21.9637L21.6242 20.3637C22.2061 20.1698 22.6909 19.6365 22.6909 19.0062C22.6909 18.4728 22.4 18.0365 22.0121 17.794C22.0606 17.3092 22.3515 16.8243 22.8364 16.4849C24.6303 15.2243 25.7454 13.188 25.7454 11.0062C25.7454 7.22434 22.5939 4.16979 18.7636 4.36373C15.3212 4.50919 12.4606 7.46676 12.4121 10.9092C12.2667 13.188 13.3333 15.2728 15.1757 16.5334ZM17.5515 21.4789L17.4545 20.5092H20.6061L20.5091 21.4789H17.5515ZM21.1394 19.5395H16.7273C16.4848 19.5395 16.2424 19.3456 16.2424 19.0546C16.2424 18.8122 16.4364 18.5698 16.7273 18.5698H21.1394C21.3818 18.5698 21.6242 18.7637 21.6242 19.0546C21.6242 19.2971 21.4303 19.5395 21.1394 19.5395ZM18.6667 5.38191C21.9151 5.23646 24.6303 7.85464 24.6303 11.0546C24.6303 12.9456 23.7091 14.691 22.1576 15.7577C21.4788 16.194 21.0424 16.8728 20.9454 17.6486H16.9697C16.8727 16.9213 16.4364 16.2425 15.7576 15.7577C14.2061 14.691 13.2848 12.8971 13.2848 11.0062C13.3333 8.04858 15.7576 5.52737 18.6667 5.38191Z" fill="#2A3FCC"/>
<path d="M18.8121 7.80608C20.6546 7.70911 22.2061 9.21214 22.2061 11.0546C22.2061 11.3455 22.4 11.5394 22.6909 11.5394C22.9818 11.5394 23.1758 11.3455 23.1758 11.0546C23.1758 8.6788 21.1879 6.73941 18.7636 6.83638C18.4727 6.83638 18.2788 7.0788 18.2788 7.32123C18.2788 7.61214 18.5212 7.80608 18.8121 7.80608ZM18.9576 3.34547C19.2485 3.34547 19.4424 3.15153 19.4424 2.86062V0.969712C19.4424 0.678803 19.2485 0.484863 18.9576 0.484863C18.6667 0.484863 18.4727 0.678803 18.4727 0.969712V2.86062C18.4727 3.15153 18.6667 3.34547 18.9576 3.34547ZM15.5152 3.58789C15.6121 3.78183 15.7576 3.8788 15.9515 3.8788C16 3.8788 16.097 3.8788 16.1455 3.83032C16.3879 3.73335 16.5333 3.44244 16.3879 3.20001L15.6606 1.45456C15.5636 1.21214 15.2727 1.06668 15.0303 1.21214C14.7879 1.30911 14.6424 1.60001 14.7879 1.84244L15.5152 3.58789ZM13.0909 5.43032C13.2849 5.62426 13.5758 5.62426 13.7697 5.43032C13.9636 5.23638 13.9636 4.94547 13.7697 4.75153L12.4121 3.39395C12.2182 3.20001 11.9273 3.20001 11.7333 3.39395C11.5394 3.58789 11.5394 3.8788 11.7333 4.07274L13.0909 5.43032ZM24.7758 5.57577L26.1333 4.2182C26.3273 4.02426 26.3273 3.73335 26.1333 3.53941C25.9394 3.34547 25.6485 3.34547 25.4546 3.53941L24.097 4.8485C23.903 5.04244 23.903 5.33335 24.097 5.52729C24.2424 5.72123 24.5818 5.72123 24.7758 5.57577ZM21.7212 3.92729C21.7697 3.97577 21.8667 3.97577 21.9152 3.97577C22.1091 3.97577 22.303 3.8788 22.3515 3.68486L23.0788 1.93941C23.1758 1.69698 23.0788 1.40608 22.8364 1.30911C22.594 1.21214 22.303 1.30911 22.2061 1.55153L21.4788 3.29698C21.3818 3.53941 21.4788 3.83032 21.7212 3.92729Z" fill="#2A3FCC"/>
</svg>
