<svg width="32" height="32" viewBox="0 0 32 32" fill="none" xmlns="http://www.w3.org/2000/svg">
<path d="M8.97844 23.3753C8.95572 23.2906 8.91109 23.2133 8.84904 23.1512C8.78699 23.0892 8.7097 23.0446 8.62494 23.0218L5.83644 22.2748C5.75165 22.2521 5.66237 22.2521 5.57758 22.2749C5.4928 22.2976 5.41549 22.3423 5.35344 22.4043L3.31244 24.4458C3.25044 24.5078 3.20584 24.5851 3.18311 24.6698C3.16038 24.7544 3.16032 24.8436 3.18294 24.9283L3.92994 27.7168C3.95266 27.8016 3.99728 27.8789 4.05933 27.9409C4.12139 28.003 4.19867 28.0476 4.28344 28.0703L7.07194 28.8173C7.114 28.8287 7.15737 28.8344 7.20094 28.8343C7.33353 28.8343 7.46069 28.7816 7.55444 28.6878L9.59594 26.6468C9.65802 26.5848 9.70267 26.5075 9.7254 26.4227C9.74814 26.3379 9.74815 26.2486 9.72544 26.1638L8.97844 23.3753ZM7.05194 27.7753L4.82094 27.1753L4.22344 24.9503L5.85644 23.3173L8.08694 23.9173L8.68694 26.1478L7.05194 27.7753Z" fill="#2A3FCC"/>
<path d="M30.8498 23.7801L28.0198 20.9501C27.9732 20.9035 27.9178 20.8667 27.8569 20.8418C27.7959 20.8169 27.7306 20.8045 27.6648 20.8051C27.5997 20.8045 27.5351 20.817 27.475 20.8419C27.4148 20.8668 27.3603 20.9036 27.3148 20.9501L26.9748 21.2901C26.3757 20.5998 26.0008 19.7435 25.8998 18.8351L25.5398 15.6251C25.4275 14.6091 24.9746 13.661 24.2548 12.9351L24.1348 12.8151L24.7798 12.1651C24.8253 12.1172 24.8805 12.0795 24.9417 12.0545C25.0029 12.0295 25.0687 12.0178 25.1348 12.0201C26.0564 12.0773 26.9776 11.9011 27.8131 11.5078C28.6486 11.1146 29.3714 10.517 29.9147 9.77035C30.458 9.02368 30.8042 8.15206 30.9213 7.23611C31.0385 6.32015 30.9227 5.38946 30.5848 4.53011C30.5549 4.45233 30.5062 4.38323 30.4429 4.32909C30.3796 4.27495 30.3037 4.23748 30.2223 4.22009C30.1408 4.20271 30.0563 4.20595 29.9764 4.22953C29.8965 4.25311 29.8237 4.29627 29.7648 4.35511L26.7048 7.42011L24.8448 7.15511L24.5798 5.29511L27.6448 2.23511C27.7035 2.17662 27.7467 2.10431 27.7703 2.02482C27.7939 1.94533 27.7971 1.86119 27.7798 1.78011C27.7621 1.69845 27.7246 1.62242 27.6705 1.55874C27.6164 1.49507 27.5475 1.44573 27.4698 1.41511C26.6104 1.07717 25.6797 0.961406 24.7638 1.07853C23.8478 1.19565 22.9762 1.54188 22.2295 2.08518C21.4829 2.62848 20.8853 3.35131 20.492 4.1868C20.0988 5.0223 19.9226 5.94347 19.9798 6.86511C19.9809 6.93101 19.9686 6.99646 19.9437 7.05748C19.9188 7.1185 19.8817 7.17383 19.8348 7.22011L17.7698 9.28511L16.3548 7.87011C16.0862 7.59863 15.7453 7.41013 15.3726 7.32707C14.9999 7.24401 14.6112 7.26991 14.2528 7.40167C13.8944 7.53343 13.5814 7.7655 13.3513 8.07019C13.1212 8.37488 12.9835 8.73935 12.9548 9.12011C12.5856 9.0233 12.1963 9.03508 11.8336 9.15402C11.4709 9.27296 11.1503 9.49401 10.9101 9.79066C10.6699 10.0873 10.5205 10.4469 10.4796 10.8264C10.4387 11.2059 10.5082 11.5891 10.6798 11.9301C10.2847 11.9969 9.91987 12.1837 9.63477 12.4651C9.38884 12.7123 9.21226 13.0198 9.12275 13.3568C9.03323 13.6938 9.03393 14.0485 9.12477 14.3851C8.74433 14.411 8.37946 14.5462 8.07402 14.7745C7.76858 15.0027 7.53558 15.3144 7.40302 15.6719C7.27046 16.0294 7.24399 16.4177 7.3268 16.7899C7.4096 17.1621 7.59814 17.5025 7.86977 17.7701L8.57477 18.4751L7.13977 19.9101C7.09335 19.9583 7.03729 19.9961 6.97525 20.0211C6.91321 20.046 6.8466 20.0576 6.77977 20.0551C6.66977 20.0501 6.56477 20.0501 6.44977 20.0451C5.7275 20.0448 5.01223 20.1867 4.34482 20.4628C3.6774 20.7389 3.0709 21.1438 2.55995 21.6543C1.52803 22.6852 0.947929 24.0839 0.947266 25.5426C0.946603 27.0013 1.52543 28.4005 2.55641 29.4324C3.58739 30.4643 4.98608 31.0444 6.44477 31.0451H6.45977C7.18173 31.0448 7.89656 30.9024 8.56346 30.6258C9.23035 30.3493 9.83623 29.944 10.3465 29.4333C10.8568 28.9226 11.2614 28.3163 11.5374 27.6492C11.8133 26.982 11.9552 26.2671 11.9548 25.5451C11.9548 25.4351 11.9498 25.3251 11.9448 25.2201C11.9415 25.1532 11.9528 25.0864 11.9779 25.0242C12.0029 24.9621 12.0411 24.9061 12.0898 24.8601L13.5248 23.4251L19.1848 29.0801L18.8298 29.4351C18.7825 29.4814 18.7449 29.5366 18.7192 29.5976C18.6934 29.6585 18.68 29.724 18.6798 29.7901C18.68 29.8555 18.6935 29.9202 18.7192 29.9803C18.745 30.0405 18.7826 30.0948 18.8298 30.1401L19.5348 30.8501C19.6298 30.9426 19.7571 30.9946 19.8898 30.9951C20.0222 30.9937 20.1492 30.9418 20.2448 30.8501C20.3384 30.7557 20.391 30.6281 20.391 30.4951C20.391 30.3621 20.3384 30.2345 20.2448 30.1401L19.8898 29.7901L27.6648 22.0101L30.1398 24.4851C30.2342 24.5788 30.3618 24.6313 30.4948 24.6313C30.6278 24.6313 30.7554 24.5788 30.8498 24.4851C30.9429 24.3914 30.9952 24.2647 30.9952 24.1326C30.9952 24.0005 30.9429 23.8738 30.8498 23.7801ZM20.5398 7.92511C20.6877 7.78008 20.8031 7.60517 20.8781 7.41203C20.9531 7.2189 20.9861 7.01199 20.9748 6.80511C20.9336 6.11877 21.0504 5.43215 21.3161 4.798C21.5818 4.16386 21.9894 3.59909 22.5076 3.14711C23.0257 2.69514 23.6406 2.36799 24.3049 2.19081C24.9692 2.01364 25.6654 1.99116 26.3398 2.12511L23.6998 4.76511C23.6444 4.81992 23.6025 4.88682 23.5773 4.96057C23.5522 5.03431 23.5444 5.11288 23.5548 5.19011L23.9098 7.66511C23.925 7.77244 23.9746 7.87194 24.0513 7.94859C24.1279 8.02525 24.2274 8.07491 24.3348 8.09011L26.8098 8.44511C26.887 8.45543 26.9656 8.44771 27.0393 8.42255C27.113 8.3974 27.18 8.35548 27.2348 8.30011L29.8748 5.66011C30.0087 6.3345 29.9862 7.03062 29.8091 7.69497C29.6319 8.35931 29.3047 8.97419 28.8528 9.49232C28.4008 10.0105 27.836 10.418 27.2019 10.6838C26.5677 10.9495 25.8811 11.0663 25.1948 11.0251C24.9879 11.0142 24.7811 11.0474 24.5881 11.1224C24.395 11.1974 24.22 11.3125 24.0748 11.4601L23.4248 12.1101L22.0098 10.6951C21.6285 10.3314 21.1217 10.1284 20.5948 10.1284C20.0678 10.1284 19.5611 10.3314 19.1798 10.6951L18.4748 9.99011L20.5398 7.92511ZM14.2298 8.57511C14.4211 8.39448 14.6742 8.29386 14.9373 8.29386C15.2004 8.29386 15.4535 8.39448 15.6448 8.57511L18.4748 11.4051L17.0598 12.8201L14.2298 9.99011C14.0436 9.8017 13.9391 9.54749 13.9391 9.28261C13.9391 9.01772 14.0436 8.76351 14.2298 8.57511ZM11.7548 10.3451C11.9449 10.1622 12.1985 10.06 12.4623 10.06C12.7261 10.06 12.9796 10.1622 13.1698 10.3451L16.3548 13.5251L16.4148 13.6001C16.3209 13.7978 16.2723 14.0138 16.2723 14.2326C16.2723 14.4514 16.3209 14.6675 16.4148 14.8651L16.3548 14.9401C16.1635 15.1207 15.9104 15.2214 15.6473 15.2214C15.3842 15.2214 15.1311 15.1207 14.9398 14.9401L13.6998 13.7001L11.7548 11.7551C11.6621 11.6626 11.5885 11.5527 11.5383 11.4317C11.4882 11.3108 11.4623 11.1811 11.4623 11.0501C11.4623 10.9191 11.4882 10.7895 11.5383 10.6685C11.5885 10.5475 11.6621 10.4376 11.7548 10.3451ZM10.3448 13.1701C10.5321 12.9839 10.7856 12.8793 11.0498 12.8793C11.314 12.8793 11.5674 12.9839 11.7548 13.1701L12.9948 14.4101L14.2298 15.6451H14.2348L14.9398 16.3551C15.0327 16.448 15.1064 16.5583 15.1567 16.6797C15.2069 16.8011 15.2328 16.9312 15.2328 17.0626C15.2328 17.194 15.2069 17.3241 15.1567 17.4455C15.1064 17.5669 15.0327 17.6772 14.9398 17.7701C14.8469 17.863 14.7366 17.9367 14.6152 17.987C14.4938 18.0373 14.3637 18.0632 14.2323 18.0632C14.1009 18.0632 13.9708 18.0373 13.8494 17.987C13.728 17.9367 13.6177 17.863 13.5248 17.7701L10.6948 14.9401L10.3448 14.5851C10.2518 14.4922 10.178 14.3819 10.1277 14.2605C10.0774 14.1391 10.0515 14.009 10.0515 13.8776C10.0515 13.7462 10.0774 13.6161 10.1277 13.4947C10.178 13.3733 10.2518 13.263 10.3448 13.1701ZM8.27977 16.3551C8.27936 16.2231 8.30523 16.0923 8.35588 15.9704C8.40653 15.8485 8.48094 15.738 8.57477 15.6451C8.76274 15.4599 9.01586 15.3558 9.27977 15.3551C9.41145 15.3538 9.54208 15.3788 9.66399 15.4286C9.7859 15.4784 9.89666 15.552 9.98977 15.6451L12.8198 18.4751L13.1698 18.8301C13.3574 19.0177 13.4628 19.2722 13.4628 19.5376C13.4628 19.803 13.3574 20.0575 13.1698 20.2451C12.9821 20.4327 12.7276 20.5382 12.4623 20.5382C12.1969 20.5382 11.9424 20.4327 11.7548 20.2451L8.57477 17.0601C8.4814 16.968 8.40725 16.8582 8.35661 16.7372C8.30597 16.6162 8.27985 16.4863 8.27977 16.3551ZM19.8898 28.3751L14.2298 22.7201L19.5348 17.4151C19.6284 17.3207 19.681 17.1931 19.681 17.0601C19.681 16.9271 19.6284 16.7995 19.5348 16.7051C19.4411 16.612 19.3144 16.5597 19.1823 16.5597C19.0502 16.5597 18.9234 16.612 18.8298 16.7051L11.3798 24.1551C11.2324 24.3006 11.1174 24.4755 11.0424 24.6686C10.9675 24.8616 10.9342 25.0683 10.9448 25.2751C10.9498 25.3651 10.9548 25.4551 10.9548 25.5451C10.9548 26.7377 10.4813 27.8815 9.63852 28.7253C8.79568 29.5691 7.65237 30.0438 6.45977 30.0451H6.44477C5.25129 30.0444 4.10696 29.5697 3.26352 28.7253C2.42007 27.8809 1.9466 26.7361 1.94727 25.5426C1.94793 24.3491 2.42267 23.2048 3.26705 22.3614C4.11144 21.5179 5.25629 21.0444 6.44977 21.0451C6.52477 21.0451 6.63477 21.0501 6.72477 21.0551C6.93145 21.0645 7.13782 21.0307 7.33067 20.9558C7.52353 20.8809 7.69863 20.7666 7.84477 20.6201L9.27977 19.1801L11.0498 20.9501C11.3585 21.2609 11.761 21.4614 12.195 21.5205C12.6291 21.5797 13.0705 21.4943 13.4512 21.2775C13.8318 21.0607 14.1305 20.7246 14.3011 20.3211C14.4716 19.9176 14.5045 19.4692 14.3948 19.0451C14.7181 19.0213 15.0307 18.9185 15.305 18.7456C15.5793 18.5727 15.8069 18.3351 15.9679 18.0537C16.1288 17.7722 16.2182 17.4556 16.2281 17.1315C16.2381 16.8074 16.1682 16.4859 16.0248 16.1951C16.4178 16.1217 16.779 15.9297 17.0598 15.6451C17.0748 15.6351 17.0798 15.6201 17.0948 15.6101C17.5761 15.9274 18.152 16.0693 18.7257 16.012C19.2994 15.9546 19.8358 15.7015 20.2448 15.2951C20.3393 15.2036 20.4657 15.1525 20.5973 15.1525C20.7288 15.1525 20.8552 15.2036 20.9498 15.2951C20.9963 15.3407 21.0331 15.3952 21.058 15.4553C21.0829 15.5155 21.0954 15.58 21.0948 15.6451C21.0954 15.7109 21.0829 15.7763 21.058 15.8372C21.0331 15.8982 20.9963 15.9536 20.9498 16.0001L20.5948 16.3551C19.9392 17.0119 19.571 17.9021 19.571 18.8301C19.571 19.7581 19.9392 20.6483 20.5948 21.3051L20.9498 21.6551C20.9954 21.7026 21.0501 21.7403 21.1107 21.7661C21.1713 21.7919 21.2364 21.8052 21.3023 21.8052C21.3681 21.8052 21.4333 21.7919 21.4938 21.7661C21.5544 21.7403 21.6091 21.7026 21.6548 21.6551C21.7479 21.5614 21.8002 21.4347 21.8002 21.3026C21.8002 21.1705 21.7479 21.0438 21.6548 20.9501L21.3048 20.5951C20.8361 20.1263 20.5728 19.4905 20.5728 18.8276C20.5728 18.1647 20.8361 17.5289 21.3048 17.0601L21.6548 16.7051C21.7942 16.566 21.9049 16.4008 21.9803 16.2189C22.0558 16.037 22.0947 15.842 22.0947 15.6451C22.0947 15.4482 22.0558 15.2532 21.9803 15.0713C21.9049 14.8894 21.7942 14.7242 21.6548 14.5851C21.3689 14.313 20.9894 14.1613 20.5948 14.1613C20.2001 14.1613 19.8206 14.313 19.5348 14.5851C19.2535 14.866 18.8723 15.0238 18.4748 15.0238C18.0773 15.0238 17.696 14.866 17.4148 14.5851C17.3216 14.4914 17.2694 14.3647 17.2694 14.2326C17.2694 14.1005 17.3216 13.9738 17.4148 13.8801L19.8898 11.4051C20.0799 11.2222 20.3335 11.12 20.5973 11.12C20.8611 11.12 21.1146 11.2222 21.3048 11.4051L23.5448 13.6401C24.1043 14.2066 24.4581 14.9441 24.5498 15.7351L24.9098 18.9451C25.0358 20.0773 25.5091 21.1427 26.2648 21.9951L19.8898 28.3751Z" fill="#2A3FCC"/>
</svg>
