<svg width="88" height="89" viewBox="0 0 88 89" fill="none" xmlns="http://www.w3.org/2000/svg">
<rect y="0.5" width="88" height="88" rx="44" fill="#FFF6DD"/>
<path d="M66.0322 44.9883H68.4141V44.0117H66.0322C65.9066 38.3374 63.5965 32.9303 59.5831 28.9169C55.5697 24.9035 50.1626 22.5934 44.4883 22.4678V20.0859H43.5117V22.4678C37.8374 22.5934 32.4303 24.9035 28.4169 28.9169C24.4035 32.9303 22.0934 38.3374 21.9678 44.0117H19.5859V44.9883H21.9678C22.0934 50.6626 24.4035 56.0697 28.4169 60.0831C32.4303 64.0965 37.8374 66.4066 43.5117 66.5322V68.9141H44.4883V66.5322C50.1626 66.4066 55.5697 64.0965 59.5831 60.0831C63.5965 56.0697 65.9066 50.6626 66.0322 44.9883ZM65.0557 44.0117H63.251C62.9941 33.7803 54.7188 25.5049 44.4883 25.249V23.4443C55.7188 23.6992 64.8008 32.7812 65.0557 44.0117ZM57.1504 44.9883H62.2734C62.0186 54.6807 54.1816 62.5176 44.4883 62.7734V57.6504H43.5117V62.7734C33.8193 62.5186 25.9814 54.6816 25.7266 44.9883H30.8496V44.0117H25.7266C25.9814 34.3193 33.8184 26.4824 43.5117 26.2266V31.3496H44.4883V26.2266C54.1807 26.4814 62.0176 34.3184 62.2734 44.0117H57.1504V44.9883ZM43.5117 23.4443V25.249C33.2803 25.5059 25.0049 33.7812 24.749 44.0117H22.9443C23.1992 32.7861 32.2812 23.6992 43.5117 23.4443ZM22.9443 44.9883H24.749C25.0059 55.2197 33.2812 63.4951 43.5117 63.751V65.5557C32.2861 65.3008 23.1992 56.2188 22.9443 44.9883ZM44.4883 65.5557V63.751C54.7197 63.4941 62.9951 55.2188 63.251 44.9883H65.0557C64.8008 56.2188 55.7188 65.3008 44.4883 65.5557Z" fill="#FFB800"/>
<path d="M52.9385 41.4219C52.7599 41.4222 52.5853 41.3695 52.4367 41.2704C52.2881 41.1713 52.1724 41.0303 52.104 40.8654C52.0357 40.7004 52.0179 40.5188 52.053 40.3437C52.088 40.1686 52.1743 40.0078 52.3008 39.8818C52.6524 39.5291 52.8499 39.0513 52.8499 38.5532C52.8499 38.0551 52.6524 37.5774 52.3008 37.2246L50.9277 35.8516C50.575 35.4999 50.0972 35.3024 49.5991 35.3024C49.101 35.3024 48.6233 35.4999 48.2705 35.8516C48.1439 35.9759 47.9835 36.0601 47.8092 36.0938C47.635 36.1275 47.4547 36.1092 47.2909 36.0411C47.127 35.9729 46.9869 35.8581 46.8879 35.7108C46.7889 35.5635 46.7355 35.3903 46.7344 35.2129C46.7339 34.7147 46.5357 34.2371 46.1835 33.8849C45.8312 33.5326 45.3536 33.3345 44.8555 33.334H42.9092C42.411 33.3345 41.9334 33.5326 41.5812 33.8849C41.2289 34.2371 41.0308 34.7147 41.0303 35.2129C41.0301 35.3913 40.977 35.5657 40.8778 35.714C40.7786 35.8623 40.6376 35.9779 40.4728 36.0463C40.308 36.1146 40.1266 36.1325 39.9515 36.0979C39.7765 36.0632 39.6156 35.9775 39.4893 35.8516C39.3148 35.677 39.1077 35.5385 38.8798 35.444C38.6518 35.3495 38.4074 35.3008 38.1606 35.3008C37.9139 35.3008 37.6695 35.3495 37.4415 35.444C37.2136 35.5385 37.0064 35.677 36.832 35.8516L35.459 37.2246C35.1073 37.5774 34.9099 38.0551 34.9099 38.5532C34.9099 39.0513 35.1073 39.5291 35.459 39.8818C35.5856 40.0079 35.6718 40.1687 35.7068 40.3439C35.7418 40.5191 35.724 40.7008 35.6555 40.8658C35.5871 41.0308 35.4712 41.1718 35.3225 41.2708C35.1737 41.3698 34.999 41.4224 34.8203 41.4219C34.3222 41.4224 33.8445 41.6205 33.4923 41.9728C33.14 42.325 32.9419 42.8026 32.9414 43.3008V45.2432C32.9422 45.7412 33.1404 46.2187 33.4926 46.5709C33.8448 46.9231 34.3222 47.1213 34.8203 47.1221C34.9989 47.1217 35.1735 47.1745 35.3221 47.2735C35.4707 47.3726 35.5864 47.5136 35.6548 47.6786C35.7231 47.8436 35.7408 48.0251 35.7058 48.2002C35.6708 48.3753 35.5845 48.5361 35.458 48.6621C35.1063 49.0149 34.9089 49.4926 34.9089 49.9907C34.9089 50.4888 35.1063 50.9666 35.458 51.3193L36.8311 52.6924C37.1838 53.044 37.6616 53.2415 38.1597 53.2415C38.6578 53.2415 39.1355 53.044 39.4883 52.6924C39.6146 52.5665 39.7754 52.4808 39.9503 52.4461C40.1253 52.4114 40.3066 52.4293 40.4714 52.4975C40.6362 52.5657 40.7771 52.6812 40.8764 52.8293C40.9757 52.9775 41.0289 53.1517 41.0293 53.3301C41.0298 53.8282 41.2279 54.3058 41.5802 54.6581C41.9324 55.0103 42.41 55.2085 42.9082 55.209H44.8496C45.0968 55.2095 45.3416 55.1613 45.5701 55.0671C45.7987 54.973 46.0064 54.8347 46.1814 54.6602C46.3565 54.4857 46.4954 54.2784 46.5903 54.0502C46.6852 53.8219 46.7341 53.5772 46.7344 53.3301C46.7348 53.1517 46.788 52.9775 46.8873 52.8293C46.9866 52.6812 47.1275 52.5657 47.2923 52.4975C47.4571 52.4293 47.6384 52.4114 47.8133 52.4461C47.9883 52.4808 48.1491 52.5665 48.2754 52.6924C48.6281 53.044 49.1059 53.2415 49.604 53.2415C50.1021 53.2415 50.5799 53.044 50.9326 52.6924L52.3008 51.3193C52.6529 50.9668 52.8507 50.489 52.8507 49.9907C52.8507 49.4925 52.6529 49.0146 52.3008 48.6621C52.1743 48.5361 52.088 48.3753 52.053 48.2002C52.0179 48.0251 52.0357 47.8436 52.104 47.6786C52.1724 47.5136 52.2881 47.3726 52.4367 47.2735C52.5853 47.1745 52.7599 47.1217 52.9385 47.1221C53.4366 47.1213 53.914 46.9231 54.2662 46.5709C54.6184 46.2187 54.8166 45.7412 54.8174 45.2432V43.3008C54.8169 42.8026 54.6187 42.325 54.2665 41.9728C53.9142 41.6205 53.4366 41.4224 52.9385 41.4219ZM53.8408 45.2432C53.8406 45.4824 53.7454 45.7118 53.5762 45.8809C53.4071 46.0501 53.1777 46.1452 52.9385 46.1455C52.5668 46.1452 52.2034 46.2552 51.8943 46.4616C51.5851 46.668 51.3442 46.9615 51.202 47.3049C51.0598 47.6483 51.0227 48.0262 51.0954 48.3907C51.1681 48.7552 51.3473 49.09 51.6104 49.3525C51.7792 49.522 51.874 49.7515 51.874 49.9907C51.874 50.2299 51.7792 50.4594 51.6104 50.6289L50.2373 52.002C50.0678 52.1708 49.8383 52.2656 49.5991 52.2656C49.3599 52.2656 49.1304 52.1708 48.9609 52.002C48.698 51.7407 48.3636 51.5631 47.9999 51.4914C47.6362 51.4198 47.2595 51.4573 46.9171 51.5993C46.5747 51.7412 46.2819 51.9813 46.0756 52.2893C45.8693 52.5973 45.7588 52.9594 45.7578 53.3301C45.7578 53.5694 45.6627 53.7989 45.4935 53.9681C45.3243 54.1374 45.0948 54.2324 44.8555 54.2324H42.9092C42.7907 54.2324 42.6733 54.2091 42.5639 54.1637C42.4544 54.1184 42.3549 54.0519 42.2711 53.9681C42.1873 53.8843 42.1209 53.7849 42.0755 53.6754C42.0302 53.5659 42.0068 53.4486 42.0068 53.3301C42.0108 52.9576 41.9022 52.5926 41.6951 52.283C41.4881 51.9733 41.1924 51.7334 40.8467 51.5947C40.6154 51.4975 40.3671 51.4471 40.1162 51.4463C39.8708 51.4472 39.628 51.4968 39.4018 51.5921C39.1757 51.6875 38.9708 51.8268 38.7988 52.002C38.6295 52.1707 38.4002 52.2655 38.1611 52.2655C37.9221 52.2655 37.6928 52.1707 37.5234 52.002L36.1504 50.6289C36.0664 50.5452 35.9998 50.4457 35.9544 50.3362C35.909 50.2267 35.8856 50.1093 35.8856 49.9907C35.8856 49.8722 35.909 49.7548 35.9544 49.6452C35.9998 49.5357 36.0664 49.4363 36.1504 49.3525C36.4131 49.0897 36.5919 48.7548 36.6643 48.3902C36.7367 48.0257 36.6993 47.6479 36.5569 47.3046C36.4145 46.9613 36.1735 46.668 35.8644 46.4616C35.5553 46.2553 35.192 46.1453 34.8203 46.1455C34.5812 46.145 34.3519 46.0498 34.1828 45.8806C34.0137 45.7115 33.9185 45.4823 33.918 45.2432V43.3008C33.9185 43.0616 34.0137 42.8324 34.1828 42.6633C34.3519 42.4942 34.5812 42.399 34.8203 42.3984C35.1919 42.3984 35.5551 42.2883 35.8641 42.0819C36.173 41.8755 36.4139 41.5821 36.5561 41.2389C36.6984 40.8956 36.7357 40.5179 36.6633 40.1535C36.5909 39.789 36.4121 39.4542 36.1494 39.1914C36.0656 39.1076 35.9991 39.0081 35.9537 38.8986C35.9083 38.7891 35.885 38.6718 35.885 38.5532C35.885 38.4347 35.9083 38.3173 35.9537 38.2078C35.9991 38.0983 36.0656 37.9988 36.1494 37.915L37.5225 36.542C37.6061 36.4581 37.7055 36.3915 37.8149 36.3461C37.9244 36.3006 38.0417 36.2772 38.1602 36.2772C38.2786 36.2772 38.396 36.3006 38.5054 36.3461C38.6148 36.3915 38.7142 36.4581 38.7979 36.542C39.0606 36.805 39.3955 36.9841 39.7601 37.0567C40.1247 37.1293 40.5027 37.092 40.8461 36.9497C41.1896 36.8075 41.4831 36.5665 41.6895 36.2573C41.896 35.9481 42.0061 35.5847 42.0059 35.2129C42.0061 34.9737 42.1013 34.7443 42.2704 34.5751C42.4396 34.406 42.669 34.3108 42.9082 34.3105H44.8496C44.9686 34.3099 45.0865 34.3328 45.1966 34.3778C45.3067 34.4229 45.4068 34.4892 45.4912 34.573C45.5756 34.6569 45.6425 34.7566 45.6883 34.8664C45.7341 34.9762 45.7577 35.0939 45.7578 35.2129C45.7576 35.5847 45.8677 35.9481 46.0741 36.2573C46.2806 36.5665 46.5741 36.8075 46.9176 36.9497C47.261 37.092 47.639 37.1293 48.0036 37.0567C48.3682 36.9841 48.703 36.805 48.9658 36.542C49.0496 36.458 49.149 36.3914 49.2585 36.346C49.368 36.3006 49.4854 36.2772 49.604 36.2772C49.7226 36.2772 49.84 36.3006 49.9495 36.346C50.059 36.3914 50.1585 36.458 50.2422 36.542L51.6152 37.915C51.7841 38.0845 51.8788 38.314 51.8788 38.5532C51.8788 38.7924 51.7841 39.0219 51.6152 39.1914C51.3522 39.454 51.173 39.7887 51.1003 40.1532C51.0276 40.5177 51.0647 40.8956 51.2069 41.239C51.3491 41.5824 51.59 41.8759 51.8991 42.0823C52.2083 42.2887 52.5717 42.3987 52.9434 42.3984C53.1826 42.3987 53.412 42.4938 53.5811 42.663C53.7503 42.8322 53.8454 43.0615 53.8457 43.3008L53.8408 45.2432Z" fill="#FFB800"/>
<path d="M43.8799 37.4902C42.5387 37.4902 41.2276 37.8879 40.1124 38.6331C38.9973 39.3782 38.1281 40.4373 37.6148 41.6764C37.1016 42.9155 36.9673 44.279 37.2289 45.5944C37.4906 46.9099 38.1364 48.1182 39.0848 49.0666C40.0332 50.0149 41.2415 50.6608 42.5569 50.9224C43.8724 51.1841 45.2358 51.0498 46.475 50.5365C47.7141 50.0233 48.7732 49.1541 49.5183 48.0389C50.2634 46.9238 50.6611 45.6127 50.6611 44.2715C50.6591 42.4736 49.944 40.75 48.6727 39.4787C47.4014 38.2074 45.6778 37.4923 43.8799 37.4902ZM43.8799 50.0762C42.7318 50.0762 41.6095 49.7357 40.655 49.0979C39.7004 48.4601 38.9564 47.5535 38.5171 46.4928C38.0777 45.4322 37.9628 44.265 38.1867 43.139C38.4107 42.013 38.9636 40.9788 39.7754 40.167C40.5872 39.3552 41.6214 38.8023 42.7474 38.5783C43.8734 38.3544 45.0406 38.4693 46.1012 38.9087C47.1619 39.348 48.0685 40.092 48.7063 41.0466C49.3441 42.0011 49.6846 43.1234 49.6846 44.2715C49.6828 45.8104 49.0706 47.2858 47.9824 48.374C46.8942 49.4622 45.4188 50.0744 43.8799 50.0762Z" fill="#FFB800"/>
<path d="M42.6797 46.5215L40.418 44.6289L39.792 45.3779L42.8027 47.8965L48.0293 41.6475L47.2803 41.0215L42.6797 46.5215Z" fill="#FFB800"/>
</svg>
