<svg width="88" height="88" viewBox="0 0 88 88" fill="none" xmlns="http://www.w3.org/2000/svg">
<rect width="88" height="88" rx="44" fill="#DEFDE4"/>
<path d="M32.9091 28.9476C31.384 29.5237 30.2912 30.9865 30.2912 32.7104C30.2912 33.3743 30.4682 33.9922 30.7536 34.5454C29.544 35.0104 28.6785 36.1768 28.6785 37.5491C28.6785 38.9217 29.544 40.0876 30.7536 40.553C30.4682 41.1064 30.2913 41.7242 30.2913 42.3877C30.2913 44.112 31.3841 45.5748 32.9091 46.1505C32.7882 46.4883 32.7106 46.8475 32.7106 47.2263C32.7106 49.0053 34.1573 50.4521 35.9363 50.4521C36.338 50.4521 36.7188 50.369 37.0736 50.235C37.5961 51.3136 38.692 52.0649 39.9686 52.0649C41.7476 52.0649 43.1943 50.6182 43.1943 48.8392V26.259C43.1943 24.4803 41.7476 23.0332 39.9686 23.0332C38.692 23.0332 37.5961 23.7849 37.0736 24.863C36.7187 24.7291 36.338 24.6461 35.9364 24.6461C34.1573 24.6461 32.7107 26.0931 32.7107 27.8718C32.7107 28.2511 32.7883 28.6097 32.9091 28.9476ZM35.9363 26.259C36.8259 26.259 37.5492 26.9823 37.5492 27.8718H39.162C39.162 27.0968 38.8759 26.3936 38.4187 25.8372C38.6057 25.1536 39.226 24.6461 39.9686 24.6461C40.8581 24.6461 41.5815 25.3695 41.5815 26.259V48.8392C41.5815 49.7287 40.8581 50.4521 39.9686 50.4521C39.226 50.4521 38.6057 49.9449 38.4187 49.2609C38.8759 48.7044 39.1621 48.0016 39.1621 47.2263H37.5493C37.5493 48.1158 36.8259 48.8392 35.9364 48.8392C35.0469 48.8392 34.3235 48.1158 34.3235 47.2263C34.3235 46.3368 35.0469 45.6134 35.9364 45.6134V44.0006C35.1508 44.0006 34.4397 44.2943 33.8801 44.7621C32.7575 44.553 31.9042 43.5701 31.9042 42.3877C31.9042 41.054 32.9899 39.9684 34.3235 39.9684C35.6576 39.9684 36.7428 41.054 36.7428 42.3877H38.3557C38.3557 40.1644 36.5472 38.3555 34.3235 38.3555C33.4123 38.3555 32.5799 38.6709 31.9042 39.1831V39.1619C31.0147 39.1619 30.2913 38.4386 30.2913 37.5491C30.2913 36.6596 31.0147 35.9362 31.9042 35.9362V35.9153C32.5799 36.4276 33.4123 36.7426 34.3235 36.7426C36.5472 36.7426 38.3557 34.934 38.3557 32.7104H36.7428C36.7428 34.0445 35.6576 35.1298 34.3235 35.1298C32.9899 35.1298 31.9042 34.0445 31.9042 32.7104C31.9042 31.5283 32.7575 30.5455 33.8801 30.3364C34.4397 30.8041 35.1508 31.0975 35.9364 31.0975V29.4846C35.0469 29.4846 34.3235 28.7613 34.3235 27.8717C34.3235 26.9823 35.0469 26.2589 35.9364 26.2589L35.9363 26.259ZM52.0651 24.6461C51.6635 24.6461 51.2831 24.7291 50.9284 24.863C50.4054 23.7849 49.3095 23.0332 48.033 23.0332C46.2539 23.0332 44.8072 24.4803 44.8072 26.259V48.8392C44.8072 50.6182 46.2539 52.0649 48.033 52.0649C49.3095 52.0649 50.4054 51.3136 50.9284 50.235C51.2832 50.369 51.6635 50.4521 52.0651 50.4521C53.8441 50.4521 55.2909 49.0053 55.2909 47.2263C55.2909 46.8475 55.2137 46.4884 55.0924 46.1505C56.6176 45.5748 57.7102 44.112 57.7102 42.3877C57.7102 41.7242 57.5338 41.1064 57.2483 40.553C58.458 40.0876 59.3231 38.9217 59.3231 37.5491C59.3231 36.1768 58.458 35.0104 57.2483 34.5454C57.5338 33.9922 57.7102 33.3743 57.7102 32.7104C57.7102 30.9865 56.6175 29.5237 55.0924 28.9476C55.2137 28.6097 55.2909 28.2511 55.2909 27.8718C55.2909 26.0931 53.8441 24.6461 52.0651 24.6461ZM56.0973 32.7104C56.0973 34.0445 55.0121 35.1298 53.678 35.1298C52.3444 35.1298 51.2587 34.0445 51.2587 32.7104H49.6458C49.6458 34.934 51.4548 36.7426 53.678 36.7426C54.5892 36.7426 55.4216 36.4276 56.0973 35.9153V35.9362C56.9868 35.9362 57.7102 36.6596 57.7102 37.5491C57.7102 38.4386 56.9868 39.1619 56.0973 39.1619V39.1831C55.4216 38.6709 54.5892 38.3555 53.678 38.3555C51.4548 38.3555 49.6458 40.1644 49.6458 42.3877H51.2587C51.2587 41.054 52.3444 39.9684 53.678 39.9684C55.0121 39.9684 56.0973 41.054 56.0973 42.3877C56.0973 43.5701 55.244 44.553 54.1218 44.762C53.5619 44.2943 52.8506 44.0006 52.0651 44.0006V45.6134C52.9546 45.6134 53.678 46.3368 53.678 47.2263C53.678 48.1158 52.9546 48.8392 52.0651 48.8392C51.1756 48.8392 50.4523 48.1158 50.4523 47.2263H48.8394C48.8394 48.0016 49.1257 48.7045 49.5828 49.2609C49.3957 49.9449 48.7756 50.4521 48.033 50.4521C47.1435 50.4521 46.4201 49.7287 46.4201 48.8392V26.259C46.4201 25.3695 47.1435 24.6461 48.033 24.6461C48.7756 24.6461 49.3958 25.1536 49.5828 25.8372C49.1257 26.3936 48.8394 27.0968 48.8394 27.8718H50.4523C50.4523 26.9823 51.1756 26.259 52.0651 26.259C52.9546 26.259 53.678 26.9823 53.678 27.8718C53.678 28.7613 52.9546 29.4847 52.0651 29.4847V31.0976C52.8507 31.0976 53.5619 30.8042 54.1218 30.3364C55.244 30.5455 56.0973 31.5284 56.0973 32.7104Z" fill="#14B22B"/>
<path d="M56.6992 24.0299C52.931 20.488 47.9955 18.7122 42.8158 19.0381L42.9158 20.6475C47.6486 20.3534 52.1533 21.9717 55.5951 25.2049C59.0386 28.4409 60.9355 32.8255 60.9355 37.5488C60.9355 43.2407 58.0983 48.5188 53.3459 51.6681C51.7068 52.7549 50.4663 54.3052 49.702 56.0969H38.2651C37.4902 54.2922 36.2451 52.731 34.6031 51.6342C29.7054 48.3609 26.8911 42.8942 27.0743 37.0085L25.4622 36.9585C25.2613 43.4037 28.3442 49.3913 33.7073 52.9746C34.8918 53.7666 35.8375 54.8446 36.4967 56.0969H34.3231V57.7097H37.1401C37.2965 58.2322 37.4217 58.7678 37.4851 59.3226H35.936V60.9355H37.5489V63.3548C37.5489 63.801 37.9104 64.1612 38.3553 64.1612H39.1618C39.1618 66.8297 41.3318 68.9999 44.0004 68.9999C46.669 68.9999 48.839 66.8297 48.839 64.1612H49.6454C50.0908 64.1612 50.4519 63.801 50.4519 63.3548V60.9355H52.0648V59.3226H50.5085C50.5657 58.7686 50.6795 58.2315 50.8326 57.7097H53.6776V56.0969H51.469C52.1187 54.8585 53.059 53.7937 54.2376 53.0132C59.4411 49.5623 62.5484 43.7818 62.5484 37.5488C62.5484 32.4507 60.4161 27.5227 56.6992 24.0299ZM44.0003 67.387C42.2212 67.387 40.7745 65.9402 40.7745 64.1612H47.226C47.226 65.9402 45.7793 67.387 44.0003 67.387ZM48.8389 62.5484H39.1617V60.9355H48.8389V62.5484ZM48.8964 59.3226H39.0971C39.0431 58.7737 38.956 58.2342 38.8238 57.7097H49.1472C49.0188 58.2334 48.9444 58.7752 48.8964 59.3226ZM24.6458 24.6458C26.4248 24.6458 27.8715 26.0929 27.8715 27.8716C27.8715 28.3177 28.233 28.678 28.678 28.678C29.1233 28.678 29.4844 28.3177 29.4844 27.8716C29.4844 26.0929 30.9311 24.6458 32.7102 24.6458C33.1555 24.6458 33.5166 24.2855 33.5166 23.8394C33.5166 23.3936 33.1555 23.0329 32.7102 23.0329C30.9311 23.0329 29.4844 21.5862 29.4844 19.8072C29.4844 19.5933 29.3994 19.3882 29.2482 19.237C29.097 19.0857 28.8919 19.0008 28.678 19.0008C28.4641 19.0008 28.259 19.0857 28.1077 19.237C27.9565 19.3882 27.8715 19.5933 27.8715 19.8072C27.8715 21.5862 26.4248 23.0329 24.6458 23.0329C24.4319 23.0329 24.2268 23.1179 24.0756 23.2691C23.9243 23.4204 23.8394 23.6255 23.8394 23.8394C23.8394 24.2855 24.2008 24.6458 24.6458 24.6458ZM28.678 22.4789C29.0367 23.0182 29.4992 23.4807 30.0384 23.8394C29.4993 24.1982 29.0368 24.6607 28.678 25.1998C28.3193 24.6606 27.8568 24.1981 27.3175 23.8394C27.8569 23.4808 28.3194 23.0183 28.678 22.4789ZM27.8715 32.7102C28.3169 32.7102 28.678 32.3499 28.678 31.9038C28.678 31.458 28.3169 31.0973 27.8715 31.0973C26.0924 31.0973 24.6458 29.6506 24.6458 27.8716C24.6458 27.6577 24.5608 27.4526 24.4096 27.3013C24.2584 27.1501 24.0532 27.0651 23.8394 27.0651C23.6255 27.0651 23.4204 27.1501 23.2691 27.3013C23.1179 27.4526 23.0329 27.6577 23.0329 27.8716C23.0329 29.6506 21.5862 31.0973 19.8072 31.0973C19.5933 31.0973 19.3882 31.1823 19.2369 31.3335C19.0857 31.4848 19.0007 31.6899 19.0007 31.9038C19.0007 32.3499 19.3622 32.7102 19.8072 32.7102C21.5862 32.7102 23.0329 34.1572 23.0329 35.9359C23.0329 36.3821 23.3944 36.7424 23.8394 36.7424C24.2847 36.7424 24.6458 36.3821 24.6458 35.9359C24.6458 34.1572 26.0924 32.7102 27.8715 32.7102ZM23.8394 33.2642C23.4806 32.7249 23.0182 32.2625 22.4789 31.9038C23.0181 31.5449 23.4805 31.0825 23.8394 30.5433C24.1983 31.0824 24.6607 31.5448 25.1998 31.9038C24.6606 32.2626 24.1982 32.725 23.8394 33.2642Z" fill="#14B22B"/>
</svg>
