<svg width="75" height="75" viewBox="0 0 75 75" fill="none" xmlns="http://www.w3.org/2000/svg">
<path d="M46.7663 25.7737C46.8514 25.622 46.9933 25.5101 47.1608 25.4628C47.3283 25.4154 47.5078 25.4364 47.6598 25.5211C53.985 29.0572 57.9138 35.7509 57.9138 42.9905C57.9138 43.4094 57.9006 43.8327 57.8744 44.2483C57.864 44.4148 57.7906 44.5711 57.6691 44.6855C57.5476 44.7999 57.3872 44.8637 57.2203 44.8641C57.2072 44.8641 57.193 44.8641 57.1788 44.863C57.005 44.8521 56.8427 44.7728 56.7275 44.6424C56.6122 44.5119 56.5534 44.3411 56.5641 44.1673C56.5881 43.7791 56.6002 43.3831 56.6002 42.9916C56.6002 36.2278 52.9284 29.9727 47.0189 26.6684C46.7017 26.4902 46.5891 26.0898 46.7663 25.7737ZM18.8341 46.8678C18.8702 46.8678 18.9062 46.8645 18.9434 46.8591C19.0284 46.8448 19.1098 46.814 19.1828 46.7683C19.2559 46.7226 19.3192 46.6629 19.3692 46.5927C19.4192 46.5225 19.4548 46.4432 19.4741 46.3592C19.4934 46.2752 19.4959 46.1882 19.4816 46.1033C19.3109 45.0828 19.2234 44.035 19.2234 42.9905C19.2234 36.2267 22.8952 29.9716 28.8047 26.6673C28.9544 26.5812 29.0642 26.4395 29.1101 26.2729C29.1561 26.1064 29.1346 25.9285 29.0503 25.7777C28.966 25.6269 28.8256 25.5154 28.6597 25.4674C28.4938 25.4194 28.3156 25.4387 28.1637 25.5211C21.8397 29.0572 17.9109 35.7509 17.9109 42.9905C17.9109 44.1072 18.0039 45.2283 18.1866 46.3198C18.2126 46.4728 18.2918 46.6117 18.4103 46.712C18.5288 46.8122 18.6789 46.8674 18.8341 46.8678ZM48.91 58.1017C45.6998 60.4423 41.8969 61.6794 37.9123 61.6794C35.6319 61.6794 33.405 61.2736 31.2919 60.473C30.9528 60.345 30.5744 60.5156 30.4453 60.8536C30.3173 61.1927 30.488 61.5711 30.8259 61.7002C33.0878 62.5566 35.4711 62.9919 37.9113 62.9919C42.1769 62.9919 46.2467 61.6673 49.6822 59.1627C49.9753 58.9494 50.0398 58.5381 49.8255 58.2461C49.7751 58.1762 49.7113 58.117 49.6379 58.0718C49.5645 58.0267 49.4829 57.9966 49.3978 57.9831C49.3127 57.9697 49.2258 57.9733 49.142 57.9936C49.0583 58.014 48.9795 58.0507 48.91 58.1017ZM30.1303 38.2414V35.7378C30.1303 35.3758 30.4245 35.0816 30.7866 35.0816H45.037C45.3991 35.0816 45.6933 35.3758 45.6933 35.7378V38.2414C45.6933 38.6034 45.3991 38.8977 45.037 38.8977H44.8358V47.4727C44.8358 47.8347 44.5416 48.1289 44.1795 48.1289H31.6441C31.282 48.1289 30.9878 47.8347 30.9878 47.4727V38.8977H30.7866C30.4245 38.8977 30.1303 38.6045 30.1303 38.2414ZM43.5244 38.8977H40.2377V42.0761C40.2378 42.1912 40.2075 42.3043 40.1501 42.4041C40.0926 42.5038 40.0099 42.5867 39.9102 42.6443C39.8106 42.702 39.6975 42.7324 39.5824 42.7325C39.4672 42.7325 39.3541 42.7023 39.2544 42.6448L37.9123 41.8748L36.5703 42.6448C36.3669 42.7608 36.1175 42.7608 35.9152 42.6437C35.7128 42.5267 35.5881 42.3102 35.5881 42.0761V38.8977H32.3014V46.8164H43.5255V38.8977H43.5244ZM36.8995 38.8977V40.943L37.5853 40.5492C37.6847 40.4922 37.7972 40.4623 37.9118 40.4623C38.0264 40.4623 38.1389 40.4922 38.2383 40.5492L38.9241 40.943V38.8977H36.8995ZM38.9252 37.5852V36.3941H36.8995V37.5852H38.9252ZM44.3808 36.3941H40.2366V37.5852H44.3808V36.3941ZM31.4428 37.5852H35.587V36.3941H31.4428V37.5852ZM30.7012 28.1362V27.3312C30.7012 24.1255 32.8045 21.4031 35.703 20.468C34.3248 19.6925 33.3919 18.217 33.3919 16.5272C33.3919 14.0356 35.4197 12.0078 37.9113 12.0078C40.4028 12.0078 42.4306 14.0356 42.4306 16.5272C42.4306 18.217 41.4977 19.6925 40.1195 20.468C43.018 21.4031 45.1212 24.1255 45.1212 27.3312V28.1362C45.1212 28.4983 44.827 28.7925 44.465 28.7925H31.3575C30.9955 28.7925 30.7012 28.4994 30.7012 28.1362ZM37.9123 19.7341C39.6809 19.7341 41.1192 18.2958 41.1192 16.5272C41.1192 14.7586 39.6809 13.3203 37.9123 13.3203C36.1437 13.3203 34.7055 14.7586 34.7055 16.5272C34.7055 18.2958 36.1437 19.7341 37.9123 19.7341ZM32.0137 27.48H43.8098V27.3312C43.8098 24.0795 41.1641 21.4337 37.9123 21.4337C34.6606 21.4337 32.0148 24.0795 32.0148 27.3312V27.48H32.0137ZM29.9509 58.7886H28.8692C28.587 59.7259 27.7164 60.4106 26.6872 60.4106C25.658 60.4106 24.7884 59.7259 24.5052 58.7886H17.1234C16.8412 59.7259 15.9706 60.4106 14.9414 60.4106C13.9122 60.4106 13.0427 59.7259 12.7594 58.7886H11.7969C11.4348 58.7886 11.1406 58.4944 11.1406 58.1323V49.1647C11.1406 48.8027 11.4348 48.5084 11.7969 48.5084H23.4245C23.7866 48.5084 24.0808 48.8027 24.0808 49.1647V49.8942H27.6716C28.1791 49.8942 28.6384 50.1316 28.9316 50.5461L30.1588 52.2775C30.4606 52.703 30.6072 53.1634 30.6072 53.6852V58.1334C30.6072 58.4955 30.313 58.7886 29.9509 58.7886ZM15.9072 58.1323C15.9072 57.5997 15.4741 57.1666 14.9414 57.1666C14.4088 57.1666 13.9756 57.5997 13.9756 58.1323C13.9756 58.665 14.4088 59.0981 14.9414 59.0981C15.4741 59.0981 15.9072 58.6661 15.9072 58.1323ZM22.7683 49.8209H12.4531V57.4761H12.7594C13.0416 56.5387 13.9122 55.8541 14.9414 55.8541C15.9706 55.8541 16.8402 56.5387 17.1234 57.4761H22.7683V49.8209ZM27.6541 58.1323C27.6541 57.5997 27.2209 57.1666 26.6883 57.1666C26.1556 57.1666 25.7225 57.5997 25.7225 58.1323C25.7225 58.665 26.1556 59.0981 26.6883 59.0981C27.2209 59.0981 27.6541 58.6661 27.6541 58.1323ZM29.2947 53.6841C29.2947 53.4369 29.2312 53.2378 29.088 53.0355L27.8608 51.3041C27.8116 51.2352 27.7558 51.2056 27.6716 51.2056H24.0808V57.475H24.5062C24.7884 56.5377 25.6591 55.853 26.6883 55.853C27.7175 55.853 28.587 56.5377 28.8703 57.475H29.2958V53.6841H29.2947ZM63.8594 47.1598V51.1258C63.8594 51.8684 63.4788 52.5247 62.9034 52.9097V60.3395C62.9034 60.7016 62.6092 60.9958 62.2472 60.9958H52.2492C51.8872 60.9958 51.593 60.7016 51.593 60.3395V52.9097C51.0177 52.5247 50.637 51.8695 50.637 51.1258V47.1598C50.637 46.7978 50.9312 46.5036 51.2933 46.5036H63.2031C63.5652 46.5036 63.8594 46.7978 63.8594 47.1598ZM62.5469 47.8161H60.8822V51.1258C60.8822 51.5852 61.2552 51.9581 61.7145 51.9581C62.1739 51.9581 62.5469 51.5852 62.5469 51.1258V47.8161ZM54.9278 51.1258C54.9278 51.5852 55.3008 51.9581 55.7602 51.9581C56.2195 51.9581 56.5925 51.5852 56.5925 51.1258V47.8161H54.9278V51.1258ZM57.905 51.1258C57.905 51.5852 58.2791 51.9581 58.7373 51.9581C59.1956 51.9581 59.5686 51.5862 59.5697 51.128V47.8161H57.905V51.1258ZM51.9506 51.1258C51.9506 51.5852 52.3236 51.9581 52.783 51.9581C53.2423 51.9581 53.6153 51.5852 53.6153 51.1258V47.8161H51.9506V51.1258ZM58.7067 56.3845H55.7897V59.6833H58.7067V56.3845ZM61.5909 59.6833V53.2652C61.0792 53.2365 60.5948 53.0249 60.2259 52.6691C59.8398 53.042 59.3148 53.2706 58.7373 53.2706C58.1598 53.2706 57.6348 53.0409 57.2487 52.6691C56.8627 53.042 56.3377 53.2706 55.7602 53.2706C55.1827 53.2706 54.6577 53.0409 54.2716 52.6691C53.9027 53.0249 53.4183 53.2365 52.9066 53.2652V59.6833H54.4783V55.7283C54.4783 55.3662 54.7725 55.072 55.1345 55.072H59.3641C59.7261 55.072 60.0203 55.3662 60.0203 55.7283V59.6833H61.5909Z" fill="#FFB800"/>
</svg>
