<svg width="75" height="75" viewBox="0 0 75 75" fill="none" xmlns="http://www.w3.org/2000/svg">
<path d="M56.246 56.2844L49.385 23.2587C49.1914 22.3273 48.6548 21.582 47.8332 21.1031L38.0351 15.3923C36.8151 14.6812 35.3222 14.0052 33.4968 14.3842C33.3646 14.4119 33.2336 14.4449 33.104 14.483C32.7914 14.0599 32.4478 13.6605 32.0761 13.2882C30.4847 11.697 28.4942 10.6835 26.471 10.4342C24.367 10.1752 22.4764 10.7646 21.1468 12.0942C19.8171 13.4237 19.2276 15.3146 19.4868 17.4183C19.7153 19.2727 20.5874 21.0986 21.9562 22.6157L19.7796 24.5735C19.064 25.2173 18.6857 26.0664 18.6857 27.0292L18.6855 61.3223C18.6855 63.1437 20.1672 64.6254 21.9886 64.6254L43.3138 64.6255C45.0345 64.6255 46.4514 63.3027 46.6026 61.6207L53.7147 60.1432C55.4765 59.7772 56.6119 58.0462 56.246 56.2844ZM21.2237 17.2044C21.0319 15.6472 21.4441 14.2718 22.3843 13.3315C23.3245 12.3915 24.6992 11.9792 26.257 12.1711C27.8948 12.3729 29.5219 13.209 30.8384 14.5257C31.018 14.7057 31.19 14.8931 31.3539 15.0876C30.1186 15.4051 29.1559 16.1395 28.3521 16.8626L23.257 21.4457C22.1265 20.1942 21.4084 18.7043 21.2237 17.2044ZM44.8668 61.3226C44.8668 62.1789 44.1701 62.8756 43.3138 62.8756L21.9886 62.8755C21.1323 62.8755 20.4355 62.1787 20.4355 61.3225L20.4357 27.0293C20.4357 26.5636 20.6039 26.186 20.95 25.8747L29.5223 18.1637C30.6132 17.1826 31.4722 16.7411 32.4259 16.682C33.0126 17.8158 33.2896 19.0054 33.2366 20.1C32.1439 19.9188 30.9824 20.2477 30.1413 21.0889C28.7575 22.4728 28.7575 24.7246 30.1414 26.1087C30.8334 26.8007 31.7424 27.1467 32.6513 27.1467C33.5604 27.1467 34.4692 26.8006 35.1611 26.1087C35.8316 25.4384 36.2009 24.547 36.2009 23.5988C36.2009 22.6507 35.8316 21.7593 35.1613 21.0889C35.0801 21.0079 34.9951 20.9309 34.9065 20.8581C35.074 19.6978 34.947 18.4489 34.5389 17.2218C34.9289 17.4532 35.3353 17.7635 35.7803 18.1638L44.3526 25.8749C44.6988 26.1863 44.867 26.564 44.867 27.0296L44.8668 61.3226ZM34.4508 23.5987C34.4508 24.0795 34.2636 24.5312 33.9237 24.8713C33.757 25.0389 33.5587 25.1718 33.3402 25.2623C33.1218 25.3527 32.8876 25.399 32.6512 25.3983C32.384 25.3983 32.1265 25.3385 31.8914 25.2287C32.3996 24.9637 32.8645 24.6227 33.2699 24.2174C33.6754 23.8115 34.016 23.3457 34.2799 22.8362C34.3923 23.0747 34.4506 23.3351 34.4508 23.5987ZM31.3785 22.3263C31.5677 22.137 31.7968 21.9923 32.0492 21.903C32.3015 21.8137 32.5706 21.7819 32.8368 21.8101C32.6408 22.2423 32.3746 22.6378 32.0325 22.9801C31.6957 23.3169 31.3032 23.5852 30.8624 23.7836C30.8091 23.2633 30.9808 22.7241 31.3785 22.3263ZM53.3588 58.4297L46.6166 59.8305L46.6168 27.0293C46.6168 26.0666 46.2384 25.2175 45.5228 24.5738L36.9504 16.8627C36.8791 16.7986 36.8072 16.7351 36.7347 16.6723C36.8706 16.7438 37.0095 16.8203 37.1537 16.9043L46.9519 22.6152C47.3439 22.8436 47.5791 23.1705 47.6715 23.6148L54.5324 56.6404C54.7022 57.4574 54.1758 58.2601 53.3588 58.4297ZM34.3168 32.9215C31.6662 32.9215 29.5097 35.0779 29.5097 37.7285C29.5097 40.0802 31.2077 42.0416 33.4418 42.4543V48.9818H27.0534C26.8213 48.9818 26.5988 49.074 26.4347 49.2381C26.2706 49.4022 26.1784 49.6247 26.1784 49.8568C26.1784 50.0888 26.2706 50.3114 26.4347 50.4755C26.5988 50.6396 26.8213 50.7318 27.0534 50.7318H33.4418V54.1364H27.0534C26.8213 54.1364 26.5988 54.2286 26.4347 54.3927C26.2706 54.5568 26.1784 54.7793 26.1784 55.0114C26.1784 55.2435 26.2706 55.466 26.4347 55.6301C26.5988 55.7942 26.8213 55.8864 27.0534 55.8864H34.3168C34.5488 55.8864 34.7714 55.7942 34.9355 55.6301C35.0996 55.466 35.1918 55.2435 35.1918 55.0114V42.4543C37.4259 42.0415 39.1238 40.0802 39.1238 37.7285C39.1239 35.0778 36.9675 32.9215 34.3168 32.9215ZM34.3168 40.7855C32.6311 40.7855 31.2597 39.4142 31.2597 37.7285C31.2597 36.0428 32.6311 34.6715 34.3168 34.6715C36.0025 34.6715 37.3738 36.0428 37.3738 37.7285C37.3738 39.4142 36.0026 40.7855 34.3168 40.7855Z" fill="#2A3FCC"/>
</svg>
