<svg width="75" height="75" viewBox="0 0 75 75" fill="none" xmlns="http://www.w3.org/2000/svg">
<g clip-path="url(#clip0_2008_868)">
<path d="M63.9556 51.5326L53.5346 32.3211L50.5053 26.7297C50.4409 26.6108 50.346 26.511 50.2303 26.4407C50.1147 26.3704 49.9825 26.3321 49.8472 26.3296L43.8336 26.22V22.57C43.8336 15.3939 37.9955 9.55566 30.8194 9.55566C23.6433 9.55566 17.8051 15.3939 17.8051 22.57V28.4056H11.236C11.0333 28.4056 10.8389 28.4861 10.6955 28.6294C10.5522 28.7728 10.4717 28.9672 10.4717 29.1699V63.132C10.4717 63.3347 10.5522 63.5291 10.6955 63.6725C10.8389 63.8158 11.0333 63.8963 11.236 63.8963H43.5325C44.1077 64.5301 44.8478 64.9974 45.692 65.2477C46.1329 65.3789 46.5905 65.4458 47.0505 65.4463C47.8291 65.4463 48.5989 65.2526 49.3002 64.8715L62.049 57.9587C64.3472 56.7099 65.2024 53.8268 63.9556 51.5326ZM19.3336 22.57C19.3336 16.2367 24.4861 11.0843 30.8193 11.0843C37.1524 11.0843 42.3049 16.2367 42.3049 22.57V26.1916L41.7788 26.1818C40.7775 23.1546 39.1984 20.874 37.5942 19.9103C36.5293 17.2095 33.8949 15.2924 30.8193 15.2924C26.8064 15.2924 23.5417 18.5571 23.5417 22.57V28.4056H19.3336V22.57ZM40.2743 32.0048L40.2747 32.0046C40.6199 31.8171 40.9985 31.6989 41.389 31.6566C41.4361 32.5424 41.3578 33.2569 41.1459 33.7324C41.0676 33.9168 41.0648 34.1247 41.1382 34.3111C41.2116 34.4976 41.3553 34.6478 41.5384 34.7294C41.7215 34.811 41.9292 34.8174 42.117 34.7472C42.3047 34.6771 42.4574 34.5361 42.5422 34.3545C42.8473 33.6698 42.9517 32.8115 42.9313 31.8927C43.5297 32.153 44.0493 32.6059 44.3839 33.2223C45.1804 34.6919 44.6328 36.5355 43.1628 37.3322C42.4516 37.7183 41.6322 37.8041 40.8556 37.5734C40.0801 37.3432 39.4413 36.825 39.0567 36.1143C38.2598 34.6441 38.806 32.8005 40.2743 32.0048ZM35.0613 28.4057H25.0703V22.5701C25.0703 19.4001 27.6493 16.8211 30.8194 16.8211C32.8326 16.8211 34.6065 17.8609 35.6345 19.4307C35.507 19.4486 35.3812 19.4772 35.2586 19.5163C32.9699 20.2598 32.2323 22.3473 33.0665 25.721C33.1151 25.9177 33.24 26.0871 33.4135 26.1919C33.5871 26.2966 33.7951 26.3281 33.9919 26.2794C34.1887 26.2308 34.3581 26.1059 34.4628 25.9324C34.5675 25.7588 34.599 25.5508 34.5504 25.354C33.7388 22.0719 34.755 21.2871 35.7304 20.9703C35.9062 20.9136 36.1176 20.9263 36.3528 21.0035C36.4978 21.5131 36.5714 22.0403 36.5716 22.5701V26.1809C36.4532 26.2439 36.3534 26.3369 36.2823 26.4507L35.0613 28.4057ZM38.0954 22.3905C38.8198 23.2657 39.5573 24.528 40.1503 26.1514L38.1 26.113V22.57C38.1 22.5098 38.097 22.4503 38.0954 22.3905ZM12.0003 29.9343H34.1065L29.651 37.0684C27.3897 37.6314 25.7665 39.6942 25.7665 42.042C25.7665 44.611 27.6635 46.7447 30.1293 47.115V54.917C30.1293 55.1197 30.2098 55.3141 30.3532 55.4574C30.4965 55.6008 30.6909 55.6813 30.8936 55.6813C31.0963 55.6813 31.2907 55.6008 31.4341 55.4574C31.5774 55.3141 31.6579 55.1197 31.6579 54.917V47.1159C32.4331 47.0022 33.1711 46.7096 33.8136 46.2614L42.5487 62.3677H12.0003V29.9343ZM30.8936 45.6436C28.9093 45.6436 27.2951 44.0279 27.2951 42.042C27.2951 40.5116 28.2771 39.1534 29.6876 38.6513L32.4528 43.7523L33.078 44.905C32.4543 45.3844 31.6964 45.6436 30.8936 45.6436ZM61.3198 56.6152L48.571 63.5281C47.8194 63.9366 46.9513 64.0268 46.1265 63.7821C45.3025 63.5378 44.6247 62.9897 44.2177 62.2386L34.7909 44.8572C34.7599 44.7394 34.701 44.6308 34.6192 44.5406L33.7964 43.0236L30.9794 37.8269L36.1188 29.5978L36.1212 29.5939L37.3492 27.6277L40.6457 27.6894C40.8963 28.5599 41.0863 29.3844 41.2134 30.1383C40.6288 30.2027 40.0623 30.3803 39.5455 30.6612C37.3367 31.8586 36.5144 34.6316 37.7125 36.8423C38.2914 37.912 39.2531 38.6922 40.4204 39.0388C40.8437 39.1651 41.2831 39.2294 41.7248 39.2298C42.4738 39.2298 43.2153 39.0431 43.8914 38.676C44.9629 38.0953 45.7438 37.1327 46.0905 35.9656C46.4371 34.7984 46.3084 33.5656 45.7274 32.4937C45.0862 31.3125 43.9951 30.5283 42.7811 30.2369C42.6508 29.3644 42.4519 28.4966 42.2414 27.7194L43.3678 27.7404L49.3735 27.8498L52.1907 33.0496L62.6123 52.262C63.4569 53.8162 62.8768 55.7692 61.3198 56.6152ZM52.3431 43.7465L48.7538 57.6209C48.703 57.8171 48.5763 57.9851 48.4017 58.088C48.227 58.1909 48.0187 58.2202 47.8225 58.1695C47.6262 58.1187 47.4582 57.992 47.3553 57.8174C47.2525 57.6427 47.2232 57.4344 47.274 57.2381L50.8632 43.3637C50.9141 43.1675 51.0407 42.9995 51.2154 42.8967C51.39 42.7939 51.5983 42.7646 51.7945 42.8153C51.8917 42.8404 51.983 42.8844 52.0632 42.9448C52.1433 43.0052 52.2108 43.0808 52.2617 43.1673C52.3127 43.2537 52.3461 43.3494 52.36 43.4488C52.374 43.5482 52.3682 43.6493 52.3431 43.7465ZM47.221 47.6373C46.8161 46.9496 46.1671 46.46 45.3934 46.2592L45.3916 46.2586C43.7969 45.8486 42.162 46.8119 41.7476 48.4077C41.3363 50.0027 42.2998 51.6375 43.8966 52.0522C44.1453 52.1163 44.3972 52.148 44.6475 52.148C45.1748 52.148 45.6949 52.0073 46.1614 51.7323C46.8501 51.3263 47.3391 50.6765 47.5377 49.9044C47.7386 49.1307 47.6261 48.3256 47.221 47.6373ZM46.0577 49.5221C46.0104 49.7081 45.9265 49.8829 45.8111 50.0363C45.6956 50.1896 45.5508 50.3186 45.3852 50.4155C45.2204 50.5134 45.0378 50.5777 44.848 50.6046C44.6582 50.6315 44.465 50.6206 44.2795 50.5725C43.4983 50.3695 43.0265 49.5697 43.2274 48.7907C43.3986 48.1317 43.9954 47.6928 44.6469 47.6928C44.901 47.6926 45.1507 47.759 45.3712 47.8852C45.5917 48.0115 45.7753 48.1933 45.9037 48.4126C46.1016 48.7487 46.1564 49.1422 46.0577 49.5221ZM55.7219 48.9326L55.72 48.9321C54.1256 48.5225 52.491 49.4841 52.0759 51.0786C51.6647 52.6769 52.6274 54.3116 54.2205 54.7222C54.4709 54.7873 54.7246 54.8194 54.9767 54.8194C55.5034 54.8194 56.0229 54.679 56.4889 54.4046C57.1779 53.9989 57.6671 53.3496 57.8661 52.5781C58.2805 50.9827 57.3186 49.3474 55.7219 48.9326ZM56.3863 52.1951C56.3388 52.381 56.2549 52.5555 56.1394 52.7087C56.0239 52.8619 55.8791 52.9907 55.7134 53.0875C55.5479 53.1856 55.3646 53.2498 55.174 53.2764C54.9835 53.303 54.7895 53.2915 54.6035 53.2424C53.8249 53.0419 53.3551 52.2419 53.5558 51.4616C53.727 50.804 54.3235 50.3662 54.9748 50.3662C55.0949 50.3662 55.217 50.3811 55.3385 50.4123C56.1188 50.6155 56.5891 51.4145 56.3863 52.1951Z" fill="#14B22B"/>
</g>
<defs>
<clipPath id="clip0_2008_868">
<rect width="56" height="56" fill="white" transform="translate(9.5 9.5)"/>
</clipPath>
</defs>
</svg>
