<svg width="75" height="75" viewBox="0 0 75 75" fill="none" xmlns="http://www.w3.org/2000/svg">
<path d="M30.9803 43.1001C25.8255 43.1001 21.647 47.2786 21.647 52.4334C21.647 57.5882 25.8255 61.7668 30.9803 61.7668C36.1351 61.7668 40.3136 57.5882 40.3136 52.4334C40.3082 47.281 36.1328 43.1056 30.9803 43.1001ZM30.9803 59.9001C26.8564 59.9001 23.5136 56.5574 23.5136 52.4334C23.5136 48.3095 26.8564 44.9668 30.9803 44.9668C35.1042 44.9668 38.447 48.3095 38.447 52.4334C38.4423 56.555 35.1019 59.8954 30.9803 59.9001Z" fill="#FD6900"/>
<path d="M30.9804 49.6335C32.1202 49.6335 32.8471 50.1858 32.8471 50.5668H34.7137C34.7137 49.2407 33.5389 48.1665 31.9137 47.8602V46.8335H30.0471V47.8602C28.4219 48.1642 27.2471 49.2388 27.2471 50.5668C27.2471 52.1377 28.8868 53.3668 30.9804 53.3668C32.1202 53.3668 32.8471 53.9191 32.8471 54.3002C32.8471 54.6812 32.1202 55.2335 30.9804 55.2335C29.8406 55.2335 29.1137 54.6812 29.1137 54.3002H27.2471C27.2471 55.6263 28.4219 56.7005 30.0471 57.0068V58.0335H31.9137V57.0068C33.5389 56.7028 34.7137 55.6282 34.7137 54.3002C34.7137 52.7292 33.074 51.5002 30.9804 51.5002C29.8406 51.5002 29.1137 50.9479 29.1137 50.5668C29.1137 50.1858 29.8406 49.6335 30.9804 49.6335Z" fill="#FD6900"/>
<path d="M57.1137 63.6333H17.9137V41.2333H32.847C34.3933 41.2333 35.647 39.9796 35.647 38.4333V15.1H45.9137V26.3H57.1137V39.3667H58.9803V24.9801L47.2334 13.2333H35.647V12.3C35.647 10.7537 34.3933 9.5 32.847 9.5H12.3137C10.7674 9.5 9.51367 10.7537 9.51367 12.3V38.4333C9.51367 39.9796 10.7674 41.2333 12.3137 41.2333H16.047V65.5H58.9803V52.4333H57.1137V63.6333ZM47.7803 16.4197L55.7939 24.4333H47.7803V16.4197ZM11.3803 38.4333V12.3C11.3803 12.0525 11.4787 11.8151 11.6537 11.64C11.8287 11.465 12.0661 11.3667 12.3137 11.3667H32.847C33.0945 11.3667 33.3319 11.465 33.507 11.64C33.682 11.8151 33.7803 12.0525 33.7803 12.3V38.4333C33.7803 38.6809 33.682 38.9183 33.507 39.0933C33.3319 39.2683 33.0945 39.3667 32.847 39.3667H12.3137C12.0661 39.3667 11.8287 39.2683 11.6537 39.0933C11.4787 38.9183 11.3803 38.6809 11.3803 38.4333Z" fill="#FD6900"/>
<path d="M39.3804 32.8331H41.2471V34.6998H39.3804V32.8331ZM43.1137 32.8331H54.3137V34.6998H43.1137V32.8331ZM39.3804 29.0998H41.2471V30.9665H39.3804V29.0998ZM43.1137 29.0998H54.3137V30.9665H43.1137V29.0998ZM39.3804 36.5665H41.2471V38.4331H39.3804V36.5665ZM43.1137 36.5665H54.3137V38.4331H43.1137V36.5665ZM39.3804 40.2998H41.2471V42.1665H39.3804V40.2998ZM43.1137 40.2998H54.3137V42.1665H43.1137V40.2998ZM32.8471 12.2998H12.3137V18.8331H32.8471V12.2998ZM30.9804 16.9665H14.1804V14.1665H30.9804V16.9665ZM16.9804 19.7665H15.1137C14.0829 19.7665 13.2471 20.6023 13.2471 21.6331V23.4998C13.2471 24.5307 14.0829 25.3665 15.1137 25.3665H16.9804C18.0113 25.3665 18.8471 24.5307 18.8471 23.4998V21.6331C18.8471 20.6023 18.0113 19.7665 16.9804 19.7665ZM15.1137 23.4998V21.6331H16.9804V23.4998H15.1137ZM23.5137 19.7665H21.6471C20.6162 19.7665 19.7804 20.6023 19.7804 21.6331V23.4998C19.7804 24.5307 20.6162 25.3665 21.6471 25.3665H23.5137C24.5446 25.3665 25.3804 24.5307 25.3804 23.4998V21.6331C25.3804 20.6023 24.5446 19.7665 23.5137 19.7665ZM21.6471 23.4998V21.6331H23.5137V23.4998H21.6471ZM30.0471 19.7665H28.1804C27.1495 19.7665 26.3137 20.6023 26.3137 21.6331V23.4998C26.3137 24.5307 27.1495 25.3665 28.1804 25.3665H30.0471C31.0779 25.3665 31.9137 24.5307 31.9137 23.4998V21.6331C31.9137 20.6023 31.0779 19.7665 30.0471 19.7665ZM28.1804 23.4998V21.6331H30.0471V23.4998H28.1804ZM16.9804 26.2998H15.1137C14.0829 26.2998 13.2471 27.1356 13.2471 28.1665V30.0331C13.2471 31.064 14.0829 31.8998 15.1137 31.8998H16.9804C18.0113 31.8998 18.8471 31.064 18.8471 30.0331V28.1665C18.8471 27.1356 18.0113 26.2998 16.9804 26.2998ZM15.1137 30.0331V28.1665H16.9804V30.0331H15.1137ZM23.5137 26.2998H21.6471C20.6162 26.2998 19.7804 27.1356 19.7804 28.1665V30.0331C19.7804 31.064 20.6162 31.8998 21.6471 31.8998H23.5137C24.5446 31.8998 25.3804 31.064 25.3804 30.0331V28.1665C25.3804 27.1356 24.5446 26.2998 23.5137 26.2998ZM21.6471 30.0331V28.1665H23.5137V30.0331H21.6471ZM30.0471 26.2998H28.1804C27.1495 26.2998 26.3137 27.1356 26.3137 28.1665V30.0331C26.3137 31.064 27.1495 31.8998 28.1804 31.8998H30.0471C31.0779 31.8998 31.9137 31.064 31.9137 30.0331V28.1665C31.9137 27.1356 31.0779 26.2998 30.0471 26.2998ZM28.1804 30.0331V28.1665H30.0471V30.0331H28.1804ZM16.9804 32.8331H15.1137C14.0829 32.8331 13.2471 33.6689 13.2471 34.6998V36.5665C13.2471 37.5973 14.0829 38.4331 15.1137 38.4331H16.9804C18.0113 38.4331 18.8471 37.5973 18.8471 36.5665V34.6998C18.8471 33.6689 18.0113 32.8331 16.9804 32.8331ZM15.1137 36.5665V34.6998H16.9804V36.5665H15.1137ZM23.5137 32.8331H21.6471C20.6162 32.8331 19.7804 33.6689 19.7804 34.6998V36.5665C19.7804 37.5973 20.6162 38.4331 21.6471 38.4331H23.5137C24.5446 38.4331 25.3804 37.5973 25.3804 36.5665V34.6998C25.3804 33.6689 24.5446 32.8331 23.5137 32.8331ZM21.6471 36.5665V34.6998H23.5137V36.5665H21.6471ZM30.0471 32.8331H28.1804C27.1495 32.8331 26.3137 33.6689 26.3137 34.6998V36.5665C26.3137 37.5973 27.1495 38.4331 28.1804 38.4331H30.0471C31.0779 38.4331 31.9137 37.5973 31.9137 36.5665V34.6998C31.9137 33.6689 31.0779 32.8331 30.0471 32.8331ZM28.1804 36.5665V34.6998H30.0471V36.5665H28.1804ZM64.666 39.2808C63.5582 38.223 61.815 38.223 60.7072 39.2808L44.7069 55.2805C44.6294 55.3589 44.5662 55.4502 44.5201 55.5504L42.267 60.443C42.1875 60.6162 42.163 60.8096 42.1967 60.9971C42.2304 61.1847 42.3208 61.3574 42.4556 61.4921C42.5903 61.6269 42.763 61.7173 42.9506 61.7511C43.1382 61.7848 43.3316 61.7603 43.5048 61.6808L48.3974 59.4277C48.4977 59.3818 48.589 59.3186 48.6673 59.2409L64.666 43.2406C65.7598 42.1473 65.7598 40.3741 64.666 39.2808ZM47.4642 57.8017L45.0189 58.9282L46.1453 56.4828L58.0749 44.5522L59.3948 45.872L47.4642 57.8017ZM60.7173 44.5481L59.3975 43.2287L60.051 42.5753L61.3708 43.895L60.7173 44.5481ZM63.3496 41.9162L62.6897 42.5762L61.3698 41.2564L62.0308 40.5965C62.2083 40.4267 62.4445 40.332 62.6902 40.332C62.9358 40.332 63.172 40.4267 63.3496 40.5965C63.5244 40.7716 63.6226 41.0089 63.6226 41.2564C63.6226 41.5038 63.5244 41.7411 63.3496 41.9162Z" fill="#FD6900"/>
</svg>
