<svg width="357" height="369" viewBox="0 0 357 369" fill="none" xmlns="http://www.w3.org/2000/svg">
<path d="M164.218 62.5722C164.218 62.5722 116.179 64.8678 90.7306 119.389C65.282 173.909 39.0065 156.892 23.4887 206.073C7.97095 255.254 39.2625 311.181 60.2379 317.241C81.2132 323.3 320.801 317.241 320.801 317.241C320.801 317.241 352.457 293.749 354.939 232.732C357.422 171.714 310.249 151.335 290.697 142.661C271.146 133.985 241.016 61.2249 164.218 62.5722Z" fill="#F3F5F4"/>
<path d="M233.048 211.68C288.386 171.266 299.117 150.515 326.43 146.656C392.958 137.259 344.214 323.915 191.871 363.801C119.49 382.752 29.8303 331.064 17.0077 290.905C4.61136 252.079 37.9865 237.515 87.2681 258.339C136.551 279.163 204.853 232.271 233.048 211.68Z" stroke="#BBBFBD" stroke-miterlimit="10"/>
<path d="M297.994 171.758C301.135 168.031 300.898 162.247 297.465 158.837C294.031 155.428 288.702 155.685 285.561 159.412C282.419 163.138 282.656 168.923 286.09 172.332C289.523 175.742 294.853 175.485 297.994 171.758Z" fill="#D9D9D9"/>
<path d="M294.343 351.76C297.633 348.189 297.633 342.398 294.343 338.827C291.052 335.255 285.717 335.255 282.427 338.827C279.136 342.398 279.136 348.189 282.427 351.76C285.717 355.332 291.052 355.332 294.343 351.76Z" stroke="#BBBFBD" stroke-miterlimit="10"/>
<path d="M178.645 146.404C183.298 146.404 187.07 142.31 187.07 137.259C187.07 132.208 183.298 128.113 178.645 128.113C173.991 128.113 170.219 132.208 170.219 137.259C170.219 142.31 173.991 146.404 178.645 146.404Z" stroke="#BBBFBD" stroke-miterlimit="10"/>
<path d="M154.803 173.796L146.256 186.709H162.498L154.803 173.796Z" stroke="#BBBFBD" stroke-miterlimit="10" stroke-linecap="round" stroke-linejoin="round"/>
<path d="M114.64 337.834L109.268 349.062H125.509L114.64 337.834Z" fill="#D9D9D9"/>
<path d="M34.9806 199.778C37.0206 190.401 31.6706 181.004 23.0311 178.789C14.3915 176.575 5.73389 182.382 3.69384 191.76C1.65379 201.137 7.00378 210.534 15.6434 212.749C24.283 214.963 32.9405 209.156 34.9806 199.778Z" stroke="#BBBFBD" stroke-miterlimit="10" stroke-linecap="round" stroke-linejoin="round"/>
<path d="M17.5005 202.923C17.3342 202.056 17.2511 201.284 17.2511 200.607C17.2511 199.503 17.4055 198.607 17.7142 197.918C18.0229 197.217 18.4147 196.647 18.8897 196.208C19.3646 195.757 19.8514 195.347 20.3501 194.979C21.015 194.492 21.6028 193.976 22.1133 193.43C22.6239 192.872 22.8792 192.07 22.8792 191.025C22.8792 190.004 22.5764 189.232 21.9709 188.71C21.3653 188.188 20.5876 187.926 19.6377 187.926C18.5216 187.926 17.5955 188.223 16.8593 188.817C16.1231 189.411 15.6007 190.004 15.292 190.598L12.7629 187.143C13.3685 186.395 14.2709 185.682 15.4701 185.005C16.6812 184.317 18.106 183.972 19.7446 183.972C22.3805 183.972 24.3337 184.548 25.6042 185.7C26.8746 186.852 27.5099 188.473 27.5099 190.562C27.5099 191.477 27.3674 192.242 27.0824 192.86C26.8093 193.465 26.4472 193.994 25.996 194.445C25.5448 194.884 25.0639 195.312 24.5534 195.727C24.0072 196.167 23.4788 196.642 22.9682 197.152C22.4577 197.663 22.0362 198.292 21.7037 199.04C21.3712 199.776 21.205 200.714 21.205 201.854V202.923H17.5005ZM17.4649 211.65V206.342H21.49V211.65H17.4649Z" fill="#2A3FCC"/>
<path d="M196.233 80.5473C202.51 73.7339 202.51 62.687 196.233 55.8736C189.956 49.0601 179.778 49.0601 173.501 55.8736C167.224 62.687 167.224 73.7339 173.501 80.5473C179.778 87.3608 189.956 87.3608 196.233 80.5473Z" fill="#2A3FCC"/>
<path d="M183.026 75.3774C182.86 74.5107 182.777 73.7389 182.777 73.0621C182.777 71.9579 182.931 71.0614 183.24 70.3727C183.548 69.6722 183.94 69.1023 184.415 68.663C184.89 68.2118 185.377 67.8021 185.876 67.434C186.54 66.9472 187.128 66.4307 187.639 65.8846C188.149 65.3265 188.405 64.525 188.405 63.4802C188.405 62.459 188.102 61.6873 187.496 61.1648C186.891 60.6424 186.113 60.3812 185.163 60.3812C184.047 60.3812 183.121 60.678 182.385 61.2717C181.649 61.8654 181.126 62.459 180.817 63.0527L178.288 59.5975C178.894 58.8495 179.796 58.1371 180.995 57.4603C182.207 56.7716 183.631 56.4273 185.27 56.4273C187.906 56.4273 189.859 57.0032 191.13 58.1549C192.4 59.3066 193.035 60.9274 193.035 63.0171C193.035 63.9314 192.893 64.6972 192.608 65.3146C192.335 65.9202 191.973 66.4485 191.521 66.8997C191.07 67.3391 190.589 67.7665 190.079 68.1821C189.533 68.6214 189.004 69.0963 188.494 69.6069C187.983 70.1175 187.562 70.7468 187.229 71.4948C186.897 72.231 186.73 73.169 186.73 74.3088V75.3774H183.026ZM182.99 84.1045V78.797H187.015V84.1045H182.99Z" fill="white"/>
<path d="M69.0249 205.056C70.0479 200.332 67.3487 195.602 62.996 194.491C58.6433 193.381 54.2855 196.311 53.2625 201.035C52.2395 205.76 54.9387 210.49 59.2914 211.6C63.6441 212.711 68.0019 209.781 69.0249 205.056Z" fill="#D9D9D9"/>
<path d="M347.922 46.0077H275.476C271.34 46.0077 267.988 49.646 267.988 54.1347V101.461C267.988 105.95 271.34 109.588 275.476 109.588H290.222L287.298 117.789C286.451 120.164 288.985 122.268 290.875 120.76L304.879 109.587H347.923C352.058 109.587 355.41 105.949 355.41 101.46V54.1338C355.409 49.646 352.056 46.0077 347.922 46.0077Z" fill="#2A3FCC"/>
<path d="M276.537 59.2745H345.836" stroke="white" stroke-miterlimit="10" stroke-linecap="round" stroke-linejoin="round"/>
<path d="M276.537 66.106H345.836" stroke="white" stroke-miterlimit="10" stroke-linecap="round" stroke-linejoin="round"/>
<path d="M276.537 72.9386H345.836" stroke="white" stroke-miterlimit="10" stroke-linecap="round" stroke-linejoin="round"/>
<path d="M276.537 79.7708H345.836" stroke="white" stroke-miterlimit="10" stroke-linecap="round" stroke-linejoin="round"/>
<path d="M276.537 86.6033H345.836" stroke="white" stroke-miterlimit="10" stroke-linecap="round" stroke-linejoin="round"/>
<path d="M276.537 93.4357H345.836" stroke="white" stroke-miterlimit="10" stroke-linecap="round" stroke-linejoin="round"/>
<path d="M121.405 196.454C121.405 196.454 120.668 189.732 119.71 186.531C118.751 183.33 114.696 177.248 114.696 177.248C114.696 177.248 113.075 181.01 115.434 184.13C115.434 184.13 115.287 189.091 115.508 190.851C115.508 190.851 107.843 183.746 106.369 183.025C105.434 182.216 104.293 181.228 102.9 180.023C97.8138 175.622 94.4227 176.982 94.8642 177.303C95.1688 177.523 100.986 182.629 104.587 185.795L104.116 186.527C103.022 185.58 101.28 184.07 98.6977 181.836C93.6111 177.435 90.2191 178.795 90.6615 179.116C91.0316 179.383 99.5468 186.87 102.324 189.312L101.504 190.586C100.427 189.654 98.6356 188.101 95.8953 185.731C90.8087 181.33 87.4176 182.69 87.8591 183.011C88.2377 183.285 97.1596 191.13 99.711 193.374L98.8424 194.725C97.8955 193.792 95.2649 191.256 92.7254 189.332C89.5555 186.931 87.2695 188.052 87.2695 188.052C87.2695 188.052 87.2695 188.052 88.6699 189.412C90.0702 190.772 97.3688 197.014 97.3688 197.014C97.3688 197.014 108.512 207.817 111.308 208.857L114.035 211.681L124.068 199.894L121.405 196.454Z" fill="#FF996A"/>
<path d="M201.622 271.071C195.64 280.435 187.271 286.218 176.146 283.761C146.354 277.188 111.176 214.417 111.176 214.417L112.946 212.338L126.076 196.919L171.772 241.991L186.041 219.569L199.98 197.674L206.869 186.854C206.869 186.854 210.903 193.778 213.442 215.787C215.026 229.58 211.68 255.363 201.622 271.071Z" fill="#D3AA7D"/>
<path d="M201.622 271.071C195.64 280.435 187.272 286.218 176.146 283.761C146.354 277.188 111.176 214.417 111.176 214.417L112.946 212.338L114.038 211.679C114.038 211.679 155.958 274.275 173.624 264.964C184.547 259.207 186.301 236.259 186.042 219.568L199.981 197.673L201.622 271.071Z" fill="#C1966B"/>
<path d="M313.525 264.964L310.81 316.848H300.283L304.421 264.964H313.525Z" fill="#2A3FCC"/>
<path d="M249.095 264.964L246.38 316.848H235.854L239.992 264.964H249.095Z" fill="#2A3FCC"/>
<path d="M314.602 273.945H231.201C222.912 273.945 216.191 266.651 216.191 257.653V207.016C216.191 198.018 222.912 190.724 231.201 190.724H314.602C322.891 190.724 329.611 198.018 329.611 207.016V257.653C329.611 266.651 322.891 273.945 314.602 273.945Z" fill="#2A3FCC"/>
<path d="M307.568 273.945H224.168C215.878 273.945 209.158 266.651 209.158 257.653V207.016C209.158 198.018 215.878 190.724 224.168 190.724H307.568C315.858 190.724 322.578 198.018 322.578 207.016V257.653C322.577 266.651 315.857 273.945 307.568 273.945Z" fill="#988AF2"/>
<path d="M244.704 167.363C244.704 167.363 261.152 164.496 283.281 189.344L288.386 316.848H195.902C195.902 316.848 185.803 230.829 197.575 200.239C209.346 169.648 230.488 165.996 244.704 167.363Z" fill="#FFD294"/>
<path d="M212.44 98.2127L216.5 92.1781L251.118 104.759L250.818 118.872H253.104C257.747 118.872 261.511 122.958 261.511 127.998C261.511 133.038 257.748 137.123 253.104 137.123H250.429L250.022 156.279V173.113L224.959 176.854L224.344 165.595L224.019 159.679L220.382 157.795C209.973 152.403 203.342 140.997 203.342 128.476C203.342 117.593 206.53 106.996 212.44 98.2127Z" fill="#FF996A"/>
<path d="M224.02 159.679L224.345 165.594C225.266 165.475 226.231 165.32 227.232 165.122C242.711 162.059 248.771 146.873 248.143 139.048C248.143 139.048 242.924 157.866 224.02 159.679Z" fill="#D37A57"/>
<path d="M253.363 125.383C252.715 125.916 252.118 126.621 251.904 127.502C251.904 127.502 253.197 127.969 253.314 129.543C253.431 131.115 251.904 131.796 251.904 131.796C251.904 131.796 253.079 133.921 255.038 132.774C256.996 131.626 256.671 127.619 254.725 126.78C254.725 126.78 257.819 126.397 258.954 127.63C258.954 127.63 259.213 126.394 257.92 125.3C256.587 124.171 254.71 124.276 253.363 125.383Z" fill="#D37A57"/>
<path d="M212.44 98.2127C212.44 98.2127 217.127 106.97 223.185 109.804C229.242 112.638 235.716 108.513 241.774 112.276C247.831 116.039 243.967 123.092 245.325 126.481C246.682 129.869 248.188 130.322 248.188 130.322C248.188 130.322 249.003 120.687 250.819 118.873C250.819 118.873 256.258 118.824 257.951 120.544C257.951 120.544 260.99 113.886 261.512 108.671C262.034 103.457 256.708 101.757 256.708 101.757C256.708 101.757 255.455 89.2878 241.356 84.6402C227.257 79.9926 216.501 87.3606 210.861 84.6402C205.222 81.9198 200.105 86.0013 199.791 92.179C199.478 98.3558 203.343 100.624 203.343 100.624C203.343 100.624 200.732 103.013 201.776 106.692C202.821 110.372 206.098 111.222 206.098 111.222C206.098 111.222 209.955 101.891 212.44 98.2127Z" fill="#3F2D1F"/>
<path d="M215.248 143.029L229.603 142.264C229.603 142.264 226.28 147.875 221.55 147.822C217.194 147.772 215.248 143.029 215.248 143.029Z" fill="white"/>
<path d="M231.746 117.653C231.566 117.653 231.384 117.587 231.233 117.452C228.203 114.743 225.224 117.044 225.193 117.069C224.833 117.356 224.327 117.269 224.064 116.878C223.801 116.486 223.879 115.938 224.24 115.652C225.618 114.559 229.069 113.244 232.261 116.098C232.605 116.406 232.655 116.959 232.37 117.333C232.211 117.544 231.98 117.653 231.746 117.653Z" fill="#3F2D1F"/>
<path d="M213.894 117.653C213.713 117.653 213.532 117.587 213.381 117.452C210.352 114.743 207.372 117.044 207.342 117.069C206.981 117.356 206.475 117.269 206.212 116.878C205.949 116.486 206.027 115.938 206.388 115.652C207.767 114.559 211.218 113.244 214.409 116.098C214.755 116.406 214.803 116.959 214.519 117.333C214.36 117.544 214.128 117.653 213.894 117.653Z" fill="#3F2D1F"/>
<path d="M254.618 168.694L250.075 162.28L232.031 169.181L229.11 174.684L227.133 169.741L224.393 166.493L221.549 172.446C221.549 172.446 221.635 178.415 228.595 180C235.554 181.586 250.762 175.43 254.618 168.694Z" fill="#9C897A"/>
<path d="M257.949 120.543C257.949 120.543 255.144 119.38 252.481 122.038C249.818 124.695 250.72 127.307 250.72 127.307C250.72 127.307 251.95 124.158 254.587 124.502C257.223 124.845 259.141 132.576 255.618 134.022C252.095 135.467 247.599 133.265 247.756 127.307C247.913 121.35 249.926 117.98 253.244 117.468C256.562 116.954 257.875 119.98 257.949 120.543Z" fill="#77A58A"/>
<path d="M233.04 150.488C232.699 150.488 232.397 150.226 232.329 149.851C232.255 149.424 232.511 149.012 232.904 148.93C246.551 146.081 251.174 132.132 251.22 131.991C251.351 131.582 251.761 131.365 252.141 131.508C252.519 131.65 252.719 132.097 252.588 132.507C252.539 132.656 247.663 147.45 233.177 150.473C233.132 150.483 233.086 150.488 233.04 150.488Z" fill="#77A58A"/>
<path d="M229.998 149.972C229.998 151.802 231.365 153.286 233.052 153.286C234.739 153.286 236.106 151.802 236.106 149.972C236.106 148.141 234.738 146.656 233.052 146.656C231.366 146.656 229.998 148.14 229.998 149.972Z" fill="#2A3FCC"/>
<path d="M254.241 125.93C254.241 125.93 253.855 129.592 254.596 131.551C255.337 133.51 256.497 132.496 256.723 130.117C256.947 127.738 254.757 124.402 254.241 125.93Z" fill="#2A3FCC"/>
<path d="M225.207 124.701C225.207 124.701 225.213 128.119 229.334 128.686C233.456 129.253 234.206 124.701 234.206 124.701C234.206 124.701 231.866 122.32 228.84 122.25C225.814 122.178 225.207 124.701 225.207 124.701Z" fill="white"/>
<path d="M206.375 124.701C206.375 124.701 206.38 128.119 210.414 128.686C214.446 129.253 214.986 124.705 214.986 124.705C214.986 124.705 212.89 122.32 209.929 122.25C206.969 122.178 206.375 124.701 206.375 124.701Z" fill="white"/>
<path d="M214.985 124.705C214.985 124.705 212.825 122.129 210.514 121.667C208.202 121.204 206.616 122.426 206.375 124.705C206.375 124.705 206.834 122.823 209.145 122.592C211.457 122.36 214.985 124.705 214.985 124.705Z" fill="#3F2D1F"/>
<path d="M234.206 124.701C234.206 124.701 231.949 122.009 229.533 121.526C227.117 121.043 225.459 122.319 225.207 124.701C225.207 124.701 225.686 122.734 228.102 122.492C230.518 122.251 234.206 124.701 234.206 124.701Z" fill="#3F2D1F"/>
<path d="M218.946 124.799L217.046 137.253C217.046 137.253 215.533 137.38 213.438 136.454C213.438 136.454 218.403 126.198 218.946 124.799Z" fill="#D37A57"/>
<path d="M162.388 316.848C162.388 316.848 162.079 306.903 172.397 303.787C182.716 300.671 195.285 309.782 197.302 316.848H162.388Z" fill="#2A3FCC"/>
<path d="M229.164 129.127C230.591 129.127 231.749 127.537 231.749 125.576C231.749 123.616 230.591 122.026 229.164 122.026C227.736 122.026 226.578 123.616 226.578 125.576C226.578 127.537 227.736 129.127 229.164 129.127Z" fill="#3F2D1F"/>
<path d="M213.619 125.687C213.619 127.587 212.491 129.127 211.098 129.127C209.705 129.127 208.576 127.587 208.576 125.687C208.576 123.788 209.705 122.248 211.098 122.248C212.491 122.248 213.619 123.787 213.619 125.687Z" fill="#3F2D1F"/>
<path d="M240.595 134.456C240.595 136.005 238.907 137.26 236.823 137.26C234.74 137.26 233.051 136.005 233.051 134.456C233.051 132.909 234.74 131.654 236.823 131.654C238.907 131.653 240.595 132.908 240.595 134.456Z" fill="#D37A57"/>
<path d="M209.791 133.113C209.791 134.66 208.102 135.915 206.018 135.915C203.935 135.915 202.246 134.66 202.246 133.113C202.246 131.564 203.935 130.309 206.018 130.309C208.102 130.309 209.791 131.564 209.791 133.113Z" fill="#D37A57"/>
<path d="M308.698 285.191C306.086 293.72 301.308 300.17 295.649 304.734C291.792 307.832 287.532 310.052 283.279 311.447C265.524 317.292 199.77 316.844 199.77 316.844L202.244 295.283L275.873 277.319C275.873 277.319 266.349 244.526 266.769 218.032C267.149 193.373 273.924 183.21 281.556 188.011C282.13 188.38 282.704 188.818 283.278 189.345C283.278 189.345 294.904 208.15 306.902 246.771C311.81 262.568 311.721 275.275 308.698 285.191Z" fill="#E5BC89"/>
<path d="M194.766 298.146L179.146 295.056C179.146 295.056 176.275 294.522 173.404 295.871C170.533 297.218 167.274 303.787 167.274 303.787C167.274 303.787 169.912 303.83 171.696 302.082C173.481 300.334 173.714 298.819 173.714 298.819L179.446 299.304L179.548 300.747C177.634 301.202 172.184 302.551 169.524 303.788C166.266 305.304 164.559 309.935 164.559 309.935C164.559 309.935 168.826 309.262 170.998 306.399L179.871 305.306L179.935 306.206C178.106 306.34 174.84 306.785 171.775 308.252C167.197 310.441 165.801 313.389 165.801 313.389C165.801 313.389 170.379 313.389 173.598 310.694L175.766 310.499C173.623 311.99 171.775 315.579 171.775 315.579C171.775 315.579 172.705 315.832 174.801 314.821C176.895 313.811 177.439 312.658 177.439 312.658L183.544 313.154C186.714 313.646 191.51 314.129 194.25 313.137L200.088 314.112L201.92 298.15H194.766V298.146Z" fill="#FF996A"/>
<path d="M324.807 327.282H31.0802C28.4258 327.282 26.2734 324.946 26.2734 322.065C26.2734 319.183 28.4258 316.847 31.0802 316.847H324.807C327.462 316.847 329.614 319.183 329.614 322.065C329.613 324.947 327.462 327.282 324.807 327.282Z" fill="#2A3FCC"/>
<path d="M212.211 327.282H29.1575C27.5649 327.282 26.2734 324.946 26.2734 322.065C26.2734 319.183 27.5649 316.847 29.1575 316.847H120.684H212.211C213.804 316.847 215.095 319.183 215.095 322.065C215.095 324.947 213.804 327.282 212.211 327.282Z" fill="#988AF2"/>
<path d="M156.856 296.741H55.701C52.2895 296.741 49.3365 294.164 48.6023 290.548L35.5271 226.093C34.8856 222.932 37.1035 219.938 40.0854 219.938H142.381C145.405 219.938 148.021 222.22 148.671 225.425L161.788 290.081C162.481 293.501 160.082 296.741 156.856 296.741Z" fill="#988AF2"/>
<path d="M72.289 285.823C71.4442 290.442 66.4783 293.264 61.1969 292.125C55.9154 290.988 52.3192 286.321 53.164 281.702C54.0088 277.083 58.9747 274.262 64.2562 275.399C69.5376 276.538 73.1338 281.204 72.289 285.823Z" fill="#2A3FCC"/>
<path d="M161.784 290.081L148.668 225.424C148.018 222.219 145.401 219.937 142.377 219.937H136.48C139.504 219.937 142.121 222.219 142.771 225.424L155.887 290.081C156.581 293.501 154.182 296.74 150.955 296.74H156.852C160.079 296.74 162.478 293.501 161.784 290.081Z" fill="#2A3FCC"/>
<path d="M144.283 314.258C144.283 315.688 143.218 316.843 141.901 316.843H57.9286C56.5819 316.843 55.3576 316.246 54.4745 315.287C53.5838 314.329 53.041 313.008 53.041 311.538C53.041 310.493 53.3303 309.471 53.8662 308.599L74.6493 274.801C75.2432 273.85 76.2283 273.276 77.285 273.276H113.622C114.926 273.276 115.744 274.809 115.085 276.035L97.5389 308.937C96.8872 310.155 97.698 311.672 98.9869 311.672H141.9C142.559 311.672 143.153 311.963 143.587 312.435C144.015 312.899 144.283 313.543 144.283 314.258Z" fill="#2A3FCC"/>
<path d="M119.352 257.889H67.8345C67.2347 257.889 66.748 257.361 66.748 256.71C66.748 256.059 67.2347 255.531 67.8345 255.531H119.352C119.952 255.531 120.438 256.059 120.438 256.71C120.438 257.362 119.952 257.889 119.352 257.889Z" fill="#2A3FCC"/>
<path d="M121.831 264.964H70.313C69.7132 264.964 69.2266 264.436 69.2266 263.785C69.2266 263.134 69.7132 262.605 70.313 262.605H121.83C122.43 262.605 122.917 263.134 122.917 263.785C122.917 264.437 122.431 264.964 121.831 264.964Z" fill="#2A3FCC"/>
<path d="M36.5935 223.755H145.687C146.575 223.755 147.427 223.933 148.214 224.251C147.232 221.677 144.904 219.938 142.265 219.938H39.9693C37.6986 219.938 35.8754 221.674 35.416 223.898C35.792 223.806 36.186 223.755 36.5935 223.755Z" fill="#2A3FCC"/>
<path d="M148.672 285.823C147.827 290.442 142.861 293.264 137.58 292.125C132.298 290.988 128.702 286.321 129.547 281.702C130.392 277.083 135.357 274.262 140.639 275.399C145.92 276.538 149.516 281.204 148.672 285.823Z" fill="#2A3FCC"/>
<path d="M144.275 314.446C144.184 315.823 143.043 316.844 141.771 316.844H93.9823C92.0528 316.844 90.4883 315.146 90.4883 313.053C90.4883 312.336 90.6754 311.634 91.0277 311.029L112.983 273.277H113.62C114.924 273.277 115.742 274.81 115.083 276.036L97.5368 308.938C96.8851 310.156 97.6959 311.673 98.9848 311.673H141.898C142.557 311.673 143.151 311.964 143.585 312.436C144.05 312.938 144.326 313.657 144.275 314.446Z" fill="#527A62"/>
<path d="M283.279 311.447C265.524 317.291 199.77 316.843 199.77 316.843L284.727 292.306C293.61 289.74 299.268 280.305 297.823 270.451C294.089 244.976 286.862 199.267 281.556 188.01C282.13 188.379 282.704 188.817 283.278 189.344C283.278 189.344 294.904 208.149 306.902 246.77C318.901 285.401 301.042 305.611 283.279 311.447Z" fill="#D3AA7D"/>
<path d="M278.268 278.223C278.268 278.223 290.415 278.038 300.281 287.815" stroke="#9C897A" stroke-miterlimit="10" stroke-linecap="round" stroke-linejoin="round"/>
<path d="M252.85 170.995C252.85 170.995 268.834 176.895 276.706 187.01" stroke="#E5BC89" stroke-miterlimit="10" stroke-linecap="round" stroke-linejoin="round"/>
<path d="M173.283 244.938C173.283 244.938 182.111 257.349 183.24 271.641" stroke="#9C897A" stroke-miterlimit="10" stroke-linecap="round" stroke-linejoin="round"/>
<path d="M218.94 172.537C218.94 172.537 215.584 182.758 229.601 184.012C243.618 185.266 258.982 170.34 258.982 170.34" stroke="#E5BC89" stroke-miterlimit="10" stroke-linecap="round" stroke-linejoin="round"/>
<path d="M199.77 298.146L196.488 313.508L200.087 314.109L201.919 298.146H199.77Z" fill="#D37A57"/>
<path d="M228.595 180C228.595 180 224.439 192.854 221.549 226.098" stroke="#E5BC89" stroke-miterlimit="10" stroke-linecap="round" stroke-linejoin="round"/>
<path d="M255.437 101.898C255.437 101.898 248.889 100.216 242.965 102.689" stroke="#543E2F" stroke-miterlimit="10" stroke-linecap="round" stroke-linejoin="round"/>
<path d="M212.44 98.2128C212.44 98.2128 211.78 108.62 223.91 110.106" stroke="#543E2F" stroke-miterlimit="10" stroke-linecap="round" stroke-linejoin="round"/>
<path d="M256.52 95.0381C256.52 95.0381 257.931 99.1741 256.709 101.756" stroke="#543E2F" stroke-miterlimit="10" stroke-linecap="round" stroke-linejoin="round"/>
<path d="M201.583 90.8169C201.583 90.8169 201.036 97.2079 207.052 99.7215" stroke="#543E2F" stroke-miterlimit="10" stroke-linecap="round" stroke-linejoin="round"/>
<path d="M203.771 102.69C203.771 102.69 202.654 107.473 206.813 109.533" stroke="#543E2F" stroke-miterlimit="10" stroke-linecap="round" stroke-linejoin="round"/>
<path d="M223.186 86.3642C223.186 86.3642 230.944 82.6715 241.963 88.0458C251.902 92.8938 252.85 98.9293 252.85 98.9293" stroke="#543E2F" stroke-miterlimit="10" stroke-linecap="round" stroke-linejoin="round"/>
<path d="M256.52 104.47C256.52 104.47 258.707 105.591 258.707 108.955C258.707 112.319 257.207 115.748 257.207 115.748" stroke="#543E2F" stroke-miterlimit="10" stroke-linecap="round" stroke-linejoin="round"/>
<path d="M220.088 103.283C220.088 103.283 221.635 107.735 230.66 108.23C239.685 108.725 242.602 108.725 245.063 111.89C247.525 115.057 246.705 118.52 246.705 118.52" stroke="#543E2F" stroke-miterlimit="10" stroke-linecap="round" stroke-linejoin="round"/>
<path d="M216.708 0H134.573C129.817 0 125.961 4.18588 125.961 9.34875V24.6129C125.961 29.7758 129.817 33.9608 134.573 33.9608H145.452L142.921 43.448C142.449 45.2145 144.243 46.6745 145.673 45.6892L162.705 33.9608H216.708C221.465 33.9608 225.321 29.7758 225.321 24.6129V9.34875C225.321 4.18588 221.465 0 216.708 0Z" fill="#D9D9D9"/>
<path d="M137.133 9.13733H214.632" stroke="white" stroke-miterlimit="10" stroke-linecap="round" stroke-linejoin="round"/>
<path d="M137.133 16.2744H214.632" stroke="white" stroke-miterlimit="10" stroke-linecap="round" stroke-linejoin="round"/>
<path d="M137.133 23.4116H214.632" stroke="white" stroke-miterlimit="10" stroke-linecap="round" stroke-linejoin="round"/>
</svg>
