<svg width="40" height="29" viewBox="0 0 40 29" fill="none" xmlns="http://www.w3.org/2000/svg">
<path d="M3.75098 3.53711C5.50001 1.96838 7.85899 1.19317 10.2305 1.43066V1.43164C14.4651 1.86808 17.791 5.71529 17.707 10.2578C17.5854 16.5179 15.3382 20.5473 12.7109 23.1543C10.0596 25.7852 6.96144 27.0237 5.09277 27.5703L5.06445 27.5791L5.03711 27.5889C5.01029 27.5984 4.95789 27.6103 4.81348 27.6104C4.47962 27.6104 4.18882 27.4574 4.00391 27.167L4.00098 27.1631L3.92578 27.0215C3.77955 26.6828 3.83808 26.2862 4.09766 25.9912C6.01298 23.8141 7.46612 21.5308 8.39551 19.1934L8.84375 18.0674L7.65332 17.8418C3.78789 17.1066 1.00017 13.6732 1 9.74414L1.01172 9.30664C1.06548 8.28744 1.30505 7.28487 1.71973 6.34961C2.19361 5.28096 2.88505 4.32244 3.75098 3.53711ZM25.0439 3.53711C26.7935 1.9678 29.1527 1.19348 31.5098 1.43066V1.43164C35.7131 1.8685 39 5.62166 39 10.0908V10.2578C38.8784 16.5179 36.6312 20.5473 34.0039 23.1543C31.3525 25.7852 28.2543 27.0237 26.3857 27.5703L26.3574 27.5791L26.3301 27.5889C26.3032 27.5984 26.2505 27.6104 26.1064 27.6104C25.7726 27.6103 25.4817 27.4575 25.2969 27.167L25.2949 27.1631L25.2188 27.0215C25.0726 26.6829 25.1312 26.2861 25.3906 25.9912C27.306 23.814 28.7601 21.5309 29.6895 19.1934L30.1367 18.0674L28.9473 17.8418C25.0818 17.1066 22.2931 13.6733 22.293 9.74414L22.3047 9.30664C22.3584 8.28742 22.598 7.28489 23.0127 6.34961C23.4866 5.28096 24.179 4.32337 25.0449 3.53809L25.0439 3.53711Z" stroke="#2A3FCC" stroke-width="2"/>
</svg>
