<svg width="43" height="43" viewBox="0 0 43 43" fill="none" xmlns="http://www.w3.org/2000/svg">
<path d="M41.3853 15.5127L28.4733 13.5374L22.6858 1.19144C22.2535 0.26952 20.7432 0.26952 20.311 1.19144L14.5252 13.5374L1.61325 15.5127C1.37485 15.5494 1.15115 15.6512 0.966716 15.8068C0.782281 15.9625 0.64424 16.166 0.56775 16.3951C0.49126 16.6242 0.47928 16.87 0.533123 17.1055C0.586967 17.3409 0.704553 17.557 0.872971 17.7299L10.2533 27.3592L8.03599 40.9724C7.9964 41.2159 8.02601 41.4656 8.12143 41.693C8.21684 41.9204 8.37423 42.1163 8.57558 42.2584C8.77694 42.4004 9.01414 42.4829 9.26007 42.4963C9.506 42.5097 9.75074 42.4536 9.96632 42.3343L21.4993 35.9509L33.0322 42.336C33.2478 42.4553 33.4925 42.5115 33.7384 42.4981C33.9844 42.4846 34.2216 42.4022 34.4229 42.2601C34.6243 42.1181 34.7817 41.9221 34.8771 41.6947C34.9725 41.4673 35.0021 41.2176 34.9625 40.9742L32.7452 27.361L42.1255 17.7316C42.2945 17.5588 42.4125 17.3426 42.4666 17.1069C42.5207 16.8712 42.5089 16.6251 42.4324 16.3957C42.3558 16.1663 42.2176 15.9625 42.0328 15.8067C41.8481 15.6509 41.624 15.5492 41.3853 15.5127Z" fill="#FD9A00"/>
</svg>
