<svg width="74" height="60" viewBox="0 0 74 60" fill="none" xmlns="http://www.w3.org/2000/svg">
<path d="M63.1783 0.5V0.924805L63.1803 0.948242C63.2063 1.22454 63.2427 1.50661 63.2897 1.78418V1.78516C63.5781 3.47965 64.2602 5.05825 65.278 6.35938H65.1754L66.0299 7.21289C67.6121 8.7927 68.8735 9.34246 69.653 9.62402L69.9576 9.73047C70.8404 10.0357 71.7641 10.2112 72.6998 10.2578V16.2441C69.5662 16.1475 66.5262 15.1033 63.9684 13.2334L63.1725 12.6523V27.8906C63.1725 34.7539 57.7313 40.2996 51.0367 40.2998H51.0358C48.632 40.3046 46.2805 39.5749 44.2838 38.2031L43.9821 37.9902C40.9058 35.7404 38.9 32.0584 38.9 27.8906C38.9001 21.0333 44.3411 15.4868 51.0416 15.4717C51.4521 15.4717 51.8653 15.4924 52.275 15.5352V21.585C51.8703 21.5018 51.4509 21.458 51.0211 21.458C47.5407 21.4582 44.7419 24.3408 44.7418 27.8652L44.7448 28.0869C44.7815 29.1943 45.1 30.2748 45.6705 31.2217C46.2793 32.2319 47.1519 33.0514 48.192 33.5859C49.042 34.023 50.0018 34.2724 51.0211 34.2725C54.4903 34.2725 57.2905 31.4072 57.3014 27.8926V0.5H63.1783Z" fill="#5A40FF" stroke="black"/>
<mask id="path-2-inside-1_2001_69" fill="white">
<path d="M53.4532 47.5056C50.1695 52.1777 45.5962 55.7923 40.292 57.9079C34.9877 60.0236 29.1821 60.5486 23.5844 59.419C17.9866 58.2894 12.839 55.554 8.77028 51.5469C4.70159 47.5398 1.88794 42.4345 0.673036 36.8547C-0.54187 31.2748 -0.105444 25.4619 1.929 20.126C3.96345 14.79 7.50785 10.1621 12.1293 6.80749C16.7507 3.45285 22.249 1.51672 27.9527 1.2356C33.6564 0.954475 39.3185 2.34053 44.2474 5.22445L39.0383 14.1272C35.8387 12.2551 32.1631 11.3553 28.4605 11.5378C24.7579 11.7203 21.1886 12.9772 18.1886 15.1549C15.1885 17.3326 12.8877 20.3368 11.567 23.8007C10.2463 27.2645 9.96299 31.038 10.7517 34.6603C11.5403 38.2825 13.3668 41.5966 16.008 44.1978C18.6493 46.7991 21.9909 48.5748 25.6247 49.3081C29.2586 50.0414 33.0273 49.7005 36.4706 48.3271C39.9139 46.9538 42.8827 44.6073 45.0144 41.5744L53.4532 47.5056Z"/>
</mask>
<path d="M53.4532 47.5056C50.1695 52.1777 45.5962 55.7923 40.292 57.9079C34.9877 60.0236 29.1821 60.5486 23.5844 59.419C17.9866 58.2894 12.839 55.554 8.77028 51.5469C4.70159 47.5398 1.88794 42.4345 0.673036 36.8547C-0.54187 31.2748 -0.105444 25.4619 1.929 20.126C3.96345 14.79 7.50785 10.1621 12.1293 6.80749C16.7507 3.45285 22.249 1.51672 27.9527 1.2356C33.6564 0.954475 39.3185 2.34053 44.2474 5.22445L39.0383 14.1272C35.8387 12.2551 32.1631 11.3553 28.4605 11.5378C24.7579 11.7203 21.1886 12.9772 18.1886 15.1549C15.1885 17.3326 12.8877 20.3368 11.567 23.8007C10.2463 27.2645 9.96299 31.038 10.7517 34.6603C11.5403 38.2825 13.3668 41.5966 16.008 44.1978C18.6493 46.7991 21.9909 48.5748 25.6247 49.3081C29.2586 50.0414 33.0273 49.7005 36.4706 48.3271C39.9139 46.9538 42.8827 44.6073 45.0144 41.5744L53.4532 47.5056Z" fill="#5A40FF" stroke="black" stroke-width="2" mask="url(#path-2-inside-1_2001_69)"/>
<circle cx="27" cy="30.6001" r="8.5" fill="#5A40FF" stroke="black"/>
</svg>
