<svg width="63" height="61" viewBox="0 0 63 61" fill="none" xmlns="http://www.w3.org/2000/svg">
<path d="M29.4579 30.8225V59.7216" stroke="black" stroke-width="1.2"/>
<path d="M49.5065 30.7448L21.5154 30.1228C18.9012 30.0647 16.6838 32.0305 16.4282 34.6328L14.4769 54.5005C14.1881 57.4409 16.4984 59.9892 19.453 59.9892H55.9283C59.3526 59.9892 61.7637 56.6246 60.663 53.382L54.13 34.1364C53.4546 32.1466 51.6072 30.7915 49.5065 30.7448Z" fill="url(#paint0_linear_2001_36)" stroke="black" stroke-width="1.2"/>
<path d="M41.7668 30.5552C45.1562 40.7234 51.1323 60.5246 45.7806 59.9894" stroke="black" stroke-width="1.2"/>
<path d="M19.2799 0C11.335 0 4.87122 6.46378 4.87122 14.4088V21.4641C4.87122 21.9446 5.2611 22.3342 5.74156 22.3342H10.5719C10.8026 22.3341 11.0239 22.2425 11.1871 22.0793C11.3502 21.9161 11.4419 21.6949 11.4419 21.4641V14.4088C11.4419 10.087 14.958 6.57083 19.2798 6.57083C23.6017 6.57083 27.1177 10.087 27.1177 14.4088V21.4641C27.1177 21.9446 27.5077 22.3342 27.9883 22.3342H32.8186C33.0494 22.3341 33.2706 22.2425 33.4338 22.0793C33.5969 21.9161 33.6886 21.6949 33.6887 21.4641V14.4088C33.6888 6.46378 27.225 0 19.2799 0ZM31.9487 20.5941H28.8581V14.4088C28.8581 9.12747 24.5614 4.83075 19.2801 4.83075C13.9989 4.83075 9.70216 9.12747 9.70216 14.4088V20.5941H6.6116V14.4088C6.6116 7.42327 12.2946 1.74018 19.28 1.74018C26.2656 1.74018 31.9487 7.42327 31.9487 14.4088V20.5941Z" fill="#5A40FF"/>
<rect y="20.5942" width="38.5601" height="30.8685" rx="4" fill="white"/>
<path d="M34.8224 20.5942H3.73787C1.67686 20.5942 0 22.2711 0 24.3321V47.7249C0 49.7859 1.67686 51.4627 3.73787 51.4627H34.8224C36.8834 51.4627 38.5601 49.7859 38.5601 47.7248V24.3321C38.5601 22.2711 36.8834 20.5942 34.8224 20.5942ZM36.8201 47.7248C36.8201 48.8264 35.9239 49.7226 34.8224 49.7226H3.73787C2.63625 49.7226 1.74008 48.8264 1.74008 47.7248V24.3321C1.74008 23.2305 2.63625 22.3343 3.73787 22.3343H34.8224C35.9239 22.3343 36.8201 23.2305 36.8201 24.3321V47.7248Z" fill="black"/>
<path d="M22.206 37.1678C23.2224 36.3114 23.814 35.0593 23.814 33.7137C23.814 31.2137 21.78 29.1797 19.2799 29.1797C16.7798 29.1797 14.7458 31.2137 14.7458 33.7137C14.7458 35.0593 15.3373 36.3114 16.354 37.168L15.3759 41.828C15.3494 41.9547 15.3514 42.0857 15.3819 42.2115C15.4123 42.3373 15.4705 42.4547 15.5521 42.5551C15.6336 42.6556 15.7366 42.7367 15.8534 42.7923C15.9702 42.848 16.098 42.8769 16.2274 42.877H22.3324C22.4618 42.877 22.5896 42.8481 22.7065 42.7925C22.8233 42.7368 22.9263 42.6558 23.0078 42.5554C23.0894 42.4549 23.1475 42.3375 23.178 42.2117C23.2084 42.0859 23.2104 41.9549 23.1837 41.8282L22.206 37.1678ZM20.7727 36.0661C20.6235 36.1611 20.5067 36.2994 20.4381 36.4625C20.3694 36.6256 20.3521 36.8057 20.3884 36.9789L21.2608 41.1367H17.2991L18.1718 36.9792C18.2081 36.806 18.1908 36.6259 18.1222 36.4628C18.0535 36.2997 17.9367 36.1614 17.7874 36.0664C16.9724 35.5478 16.486 34.6682 16.486 33.7138C16.486 32.1733 17.7393 30.92 19.2799 30.92C20.8205 30.92 22.0738 32.1733 22.0738 33.7138C22.074 34.6684 21.5875 35.5478 20.7727 36.0661Z" fill="#5A40FF"/>
<defs>
<linearGradient id="paint0_linear_2001_36" x1="38.4218" y1="30.0198" x2="38.4218" y2="59.9892" gradientUnits="userSpaceOnUse">
<stop offset="0.538541" stop-color="white"/>
<stop offset="1" stop-color="#5A40FF"/>
</linearGradient>
</defs>
</svg>
