<svg width="83" height="61" viewBox="0 0 83 61" fill="none" xmlns="http://www.w3.org/2000/svg">
<path d="M30.5314 32.5315C33.8864 31.4251 36.7706 29.24 38.6926 26.3484C40.6145 23.4567 41.4553 20.0376 41.0716 16.6734C40.6879 13.3093 39.1036 10.2083 36.5885 7.89888C34.0735 5.58945 30.7833 4.21446 27.2786 4.00818C23.7739 3.8019 20.2715 4.77711 17.3682 6.76763C14.4649 8.75815 12.3404 11.6408 11.3566 14.9245C10.3728 18.2081 10.5906 21.6896 11.9728 24.7757C13.3551 27.8618 15.8164 30.3616 18.9372 31.8491L20.8514 28.2513C18.5817 27.1695 16.7916 25.3514 15.7863 23.107C14.781 20.8625 14.6226 18.3305 15.3381 15.9423C16.0537 13.5542 17.5988 11.4577 19.7103 10.01C21.8218 8.56234 24.369 7.85309 26.9179 8.00311C29.4668 8.15313 31.8597 9.15314 33.6889 10.8327C35.518 12.5123 36.6703 14.7676 36.9493 17.2143C37.2284 19.661 36.6169 22.1477 35.2191 24.2507C33.8213 26.3537 31.7237 27.943 29.2837 28.7476L30.5314 32.5315Z" fill="black"/>
<path d="M0 18.7435H11.4601V60V60C5.13087 60 0 54.8691 0 48.5399V18.7435Z" fill="#7D69FA"/>
<path d="M50.4246 18.7435H38.9644V60V60C45.2937 60 50.4246 54.8691 50.4246 48.5399V18.7435Z" fill="#5A40FF"/>
<path d="M38.9644 18.7435H25.2123V60H38.9644V18.7435Z" fill="#7D69FA"/>
<path d="M25.2123 18.7435H11.4602V60H25.2123V18.7435Z" fill="#5A40FF"/>
<path d="M78.3654 52.0031L73.0467 46.6519C72.5071 46.1168 71.6592 46.0403 70.9654 46.3461L68.73 44.1292C72.8154 38.4721 72.2758 30.5217 67.1883 25.4763C64.4904 22.7242 60.7904 21.2717 56.9363 21.2717C53.0821 21.2717 49.3821 22.8007 46.6842 25.4763C41.0571 31.1333 41.0571 40.3069 46.6842 45.9639C49.4592 48.7159 53.0821 50.2449 56.9363 50.2449C58.4779 50.2449 60.0196 50.0155 61.4071 49.5569C62.8717 49.0982 64.1821 48.4102 65.4154 47.5692L67.6508 49.7862C67.2654 50.4742 67.4196 51.3151 67.9592 51.8502L73.2779 57.2015C73.9717 57.8895 74.8967 58.2717 75.8217 58.2717C76.8238 58.2717 77.6717 57.8895 78.3654 57.2015C79.83 55.6726 79.83 53.3792 78.3654 52.0031ZM45.6821 30.3688C45.9133 29.9866 46.0675 29.6044 46.2988 29.2221C46.3758 29.0692 46.6071 28.9928 46.8383 29.0692C46.9925 29.1457 47.0696 29.375 46.9925 29.6044C46.7613 29.9866 46.6071 30.2924 46.3758 30.6746C46.2988 30.8275 46.1446 30.904 45.9904 30.904H45.8363C45.6821 30.8275 45.605 30.5982 45.6821 30.3688ZM47.2238 42.906C47.1467 42.9825 47.0696 42.9825 46.9925 42.9825C46.8383 42.9825 46.7613 42.906 46.6842 42.8296C44.7571 40.0011 44.0633 36.561 44.7571 33.1973C44.7571 32.968 44.9883 32.8151 45.2196 32.8916C45.4508 32.8916 45.5279 33.1209 45.5279 33.3502C44.9113 36.4845 45.5279 39.7717 47.3779 42.3709C47.455 42.5238 47.3779 42.7531 47.2238 42.906ZM56.9363 46.1168C51.155 46.1168 46.53 41.4535 46.53 35.7201C46.53 29.9866 51.2321 25.3234 56.9363 25.3234C62.7175 25.3234 67.4196 29.9866 67.4196 35.7201C67.4196 41.4535 62.7175 46.1168 56.9363 46.1168ZM72.1217 49.4804C72.0446 49.5569 71.9675 49.6333 71.8133 49.6333C71.6592 49.6333 71.5821 49.6333 71.505 49.4804L71.1967 49.1746C71.0425 49.0217 71.0425 48.7924 71.1967 48.6395C71.3508 48.4866 71.5821 48.4866 71.7363 48.6395L72.0446 48.9453C72.2758 49.0982 72.2758 49.3275 72.1217 49.4804ZM75.3592 52.7676C75.2821 52.844 75.205 52.9205 75.0508 52.9205C74.9738 52.9205 74.8196 52.844 74.7425 52.7676L72.8925 50.9329C72.7383 50.78 72.7383 50.5507 72.8925 50.3978C73.0467 50.2449 73.2779 50.2449 73.4321 50.3978L75.2821 52.2325C75.5133 52.3854 75.5133 52.6147 75.3592 52.7676Z" fill="black"/>
</svg>
