<svg width="53" height="60" viewBox="0 0 53 60" fill="none" xmlns="http://www.w3.org/2000/svg">
<g clip-path="url(#clip0_2001_163)">
<path d="M24.5847 0.660156C25.4168 0.660156 26.4515 1.10603 27.3201 2.24609L27.4812 2.45703L27.7459 2.44238C27.8351 2.43734 27.9198 2.4336 27.9988 2.43359C30.9771 2.43359 32.7583 4.94104 33.8211 7.97656L33.9802 8.43066L34.4402 8.29004C34.9877 8.12187 35.427 7.98672 35.7341 7.89258C35.8877 7.84552 36.0081 7.80805 36.0925 7.78223C36.1348 7.76932 36.1685 7.75916 36.1922 7.75195C36.2036 7.74848 36.2128 7.74617 36.2195 7.74414C36.2266 7.74199 36.2299 7.74131 36.2302 7.74121C36.3242 7.71379 36.5099 7.67711 36.697 7.68262C36.846 7.68702 36.9431 7.71568 37.0007 7.74805L37.0457 7.78125C37.2231 7.95762 38.115 8.83715 38.9607 9.6709C39.3838 10.088 39.796 10.494 40.1023 10.7959C40.2554 10.9467 40.382 11.072 40.4705 11.1592C40.5147 11.2028 40.5494 11.2375 40.573 11.2607C40.5848 11.2724 40.5943 11.2811 40.6004 11.2871C40.6033 11.29 40.6057 11.2924 40.6072 11.2939L40.6091 11.2949V11.2959L40.74 11.4248L40.9236 11.4385H40.9275C40.9297 11.4386 40.9331 11.4391 40.9373 11.4395C40.9459 11.4401 40.9587 11.4412 40.9754 11.4424C41.0093 11.4449 41.0594 11.4485 41.1228 11.4531C41.2496 11.4625 41.4309 11.4761 41.6492 11.4922C42.0859 11.5244 42.6711 11.5667 43.2625 11.6104L45.7595 11.7959C45.7614 11.7961 45.7701 11.7979 45.782 11.8027C45.7936 11.8075 45.8041 11.8136 45.8123 11.8203C45.8202 11.8268 45.824 11.8326 45.8259 11.8359C45.8275 11.8385 45.8297 11.8425 45.8308 11.8506C45.8558 12.0308 47.4962 23.0429 49.1297 34.0078C49.9477 39.4989 50.7645 44.9809 51.3767 49.0898C51.6828 51.144 51.9375 52.8551 52.116 54.0527C52.2052 54.6516 52.2752 55.1226 52.323 55.4434C52.3243 55.4523 52.3256 55.4611 52.3269 55.4697L34.2986 59.3408L0.567154 53.0674C0.59875 52.8249 0.642716 52.4934 0.69606 52.084C0.816728 51.1579 0.98944 49.8331 1.19704 48.2402C1.61227 45.0541 2.16772 40.7929 2.72829 36.4951L5.07301 18.5645C5.12922 18.1641 5.17029 17.897 5.2234 17.6973C5.27393 17.5074 5.32552 17.4205 5.3777 17.3633C5.43363 17.3021 5.52988 17.2318 5.74391 17.1416C5.96219 17.0497 6.25666 16.9551 6.68336 16.8223C6.95636 16.7371 9.09543 16.0793 12.1091 15.1523L12.3826 15.0684L12.449 14.79C13.022 12.3778 14.2207 8.81238 16.2156 5.86328C18.2116 2.91275 20.9437 0.660327 24.5847 0.660156ZM24.3718 1.72461C21.3445 1.72474 19.0382 3.70099 17.3572 6.12695C15.6706 8.56105 14.5406 11.5468 13.8748 13.7969L13.6101 14.6904L14.5007 14.417L19.239 12.96L19.5261 12.8721L19.5828 12.5771C20.6856 6.85343 23.2733 4.08862 25.5789 3.01172L26.3728 2.64062L25.6492 2.14551C25.2574 1.87786 24.823 1.72461 24.3718 1.72461ZM26.4802 3.92969C24.4131 4.81009 22.1671 7.09416 20.9841 11.626L20.7576 12.4932L21.615 12.2305C23.6705 11.5984 25.7206 10.9681 27.6082 10.3877L27.9578 10.2803L27.9617 9.91406C27.9627 9.80585 27.9636 9.69624 27.9636 9.57617C27.9636 7.23975 27.6488 5.46872 27.1404 4.2041L26.95 3.73047L26.4802 3.92969ZM28.3328 4.17871C28.7378 5.33122 28.9978 6.80644 28.9978 8.66406C28.9978 8.88085 28.9969 9.07919 28.9959 9.28223L28.992 9.96289L29.6423 9.7627L32.5447 8.87109L33.032 8.72168L32.8728 8.2373C32.4968 7.09716 32.0065 5.99817 31.3689 5.14746C30.7309 4.29623 29.9075 3.64634 28.866 3.5166L28.0652 3.41699L28.3328 4.17871Z" stroke="black"/>
<path d="M45.801 11.2979C45.5826 11.2798 40.9605 10.9398 40.9605 10.9398C40.9605 10.9398 37.7504 7.7764 37.3981 7.42626C37.2662 7.29599 37.0884 7.22921 36.9025 7.20044L34.3093 59.8511L52.8909 55.8611C52.8909 55.8611 46.3672 12.0822 46.3262 11.7822C46.2846 11.4822 46.0199 11.3162 45.801 11.2979Z" fill="black"/>
<path d="M27.9992 21.49L25.7078 28.2556C25.7078 28.2556 23.7002 27.1921 21.2392 27.1921C17.6315 27.1921 17.4499 29.4394 17.4499 30.0057C17.4499 33.0957 25.5647 34.2797 25.5647 41.5175C25.5647 47.2119 21.9261 50.8787 17.02 50.8787C11.1326 50.8787 8.12181 47.2417 8.12181 47.2417L9.6982 42.0719C9.6982 42.0719 12.793 44.7092 15.4044 44.7092C17.1108 44.7092 17.8049 43.3756 17.8049 42.4012C17.8049 38.3705 11.1475 38.1908 11.1475 31.5675C11.1475 25.9931 15.1784 20.5986 23.3151 20.5986C26.4503 20.5986 27.9992 21.49 27.9992 21.49Z" fill="#5A40FF"/>
</g>
<defs>
<clipPath id="clip0_2001_163">
<rect width="53" height="60" fill="white"/>
</clipPath>
</defs>
</svg>
