<svg width="66" height="61" viewBox="0 0 66 61" fill="none" xmlns="http://www.w3.org/2000/svg">
<path d="M10.0375 16.4168V1.46143C10.0375 0.909141 10.4853 0.461426 11.0375 0.461426H26.1145C26.6667 0.461426 27.1145 0.909142 27.1145 1.46143V16.4824C27.1145 17.3026 26.1815 17.774 25.5213 17.2875L18.9547 12.449C18.5942 12.1834 18.1011 12.1898 17.7476 12.4647L11.6515 17.2061C10.9946 17.717 10.0375 17.2489 10.0375 16.4168Z" fill="#5A40FF"/>
<rect x="0.749939" y="0.75" width="56.0219" height="48.1061" rx="3.25" stroke="black" stroke-width="1.5"/>
<line x1="38.2183" y1="1.58325" x2="38.2183" y2="48.5507" stroke="black" stroke-width="1.5"/>
<path d="M43.4057 40.6873H64.3816L61.1628 51.9531H46.6245" fill="#5A40FF"/>
<path d="M43.4057 40.6873H64.3816L61.1628 51.9531H46.6245" stroke="black" stroke-width="1.5" stroke-miterlimit="10" stroke-linecap="round" stroke-linejoin="round"/>
<path d="M51.4528 58.3906C51.4528 59.2794 50.7322 60 49.8433 60C48.9545 60 48.2339 59.2794 48.2339 58.3906C48.2339 57.5018 48.9545 56.7812 49.8433 56.7812C50.7322 56.7812 51.4528 57.5018 51.4528 58.3906Z" stroke="black" stroke-width="1.5" stroke-miterlimit="10" stroke-linecap="round" stroke-linejoin="round"/>
<path d="M59.5533 58.3906C59.5533 59.2794 58.8328 60 57.9439 60C57.0551 60 56.3345 59.2794 56.3345 58.3906C56.3345 57.5018 57.0551 56.7812 57.9439 56.7812C58.8328 56.7812 59.5533 57.5018 59.5533 58.3906Z" stroke="black" stroke-width="1.5" stroke-miterlimit="10" stroke-linecap="round" stroke-linejoin="round"/>
<path d="M61.1628 55.1719H47.6192C46.4228 55.1719 45.6446 53.9128 46.1797 52.8427L46.6245 51.9531" stroke="black" stroke-width="1.5" stroke-miterlimit="10" stroke-linecap="round" stroke-linejoin="round"/>
<path d="M38.5238 37.4685H42.4862C43.8564 42.265 46.6245 51.9531 46.6245 51.9531" stroke="black" stroke-width="1.5" stroke-miterlimit="10" stroke-linecap="round" stroke-linejoin="round"/>
</svg>
