<svg width="60" height="60" viewBox="0 0 60 60" fill="none" xmlns="http://www.w3.org/2000/svg">
<path fill-rule="evenodd" clip-rule="evenodd" d="M44.298 11.1845C44.3168 11.5583 44.6285 11.8489 44.9965 11.8489C45.0105 11.8489 45.0199 11.8478 45.0352 11.8478L49.6336 11.5946C49.9922 11.5747 50.2793 11.2888 50.2992 10.9313L50.5523 6.33408C50.5711 5.94619 50.2746 5.61455 49.8867 5.59346C49.4941 5.57119 49.1695 5.86885 49.1449 6.25674L48.9773 9.3376C43.7812 4.67236 37.1297 2.12354 30.1289 2.12354C29.9953 2.12354 29.8559 2.12471 29.7223 2.12588C22.3301 2.23018 15.382 5.16689 10.152 10.3958C5.58281 14.9626 2.78789 20.761 2.06016 27.1653C1.35703 33.3798 2.74922 39.7267 5.97891 45.0376C6.04218 45.1406 6.13075 45.2256 6.23618 45.2847C6.34161 45.3438 6.4604 45.3749 6.58125 45.3751C6.70547 45.3751 6.83437 45.3423 6.94922 45.2731C7.27969 45.0704 7.38516 44.638 7.18359 44.3063C0.730078 33.7103 2.3625 20.1751 11.148 11.3896C21.2824 1.25166 37.2832 0.82627 47.9203 10.281L44.959 10.4438C44.5699 10.4649 44.2734 10.7966 44.298 11.1845ZM53.059 16.4251C59.509 27.0212 57.8824 40.5563 49.0969 49.3419C38.9625 59.4763 22.957 59.904 12.3246 50.4505L15.2859 50.2876C15.3781 50.2828 15.4683 50.2597 15.5515 50.2198C15.6346 50.1799 15.709 50.1238 15.7704 50.055C15.8317 49.9861 15.8788 49.9057 15.9089 49.8185C15.939 49.7313 15.9515 49.639 15.9457 49.547C15.927 49.1603 15.5918 48.8638 15.2039 48.8837L10.6102 49.1368C10.2516 49.1567 9.96445 49.4427 9.94453 49.8001L9.69141 54.3974C9.67266 54.7853 9.96914 55.1169 10.357 55.138C10.3711 55.1392 10.3805 55.1392 10.3957 55.1392C10.7637 55.1392 11.0754 54.8497 11.0988 54.4747L11.2664 51.3938C16.4578 56.0591 23.1141 58.6079 30.1148 58.6079C30.2531 58.6079 30.3926 58.6067 30.5309 58.6044C37.9184 58.4978 44.8664 55.561 50.0918 50.3356C54.6563 45.7688 57.4559 39.9704 58.1836 33.5661C58.8867 27.3517 57.4945 21.0048 54.2602 15.6938C54.0598 15.3622 53.6238 15.2567 53.2934 15.4583C52.9629 15.661 52.8574 16.0935 53.059 16.4251Z" fill="black"/>
<path fill-rule="evenodd" clip-rule="evenodd" d="M27.259 26.3661C30.5895 26.3661 33.3024 23.6567 33.3024 20.3262C33.3024 16.9958 30.5895 14.2864 27.259 14.2864C23.9285 14.2864 21.2203 16.9958 21.2203 20.3262C21.2203 23.6567 23.9285 26.3661 27.259 26.3661ZM32.6754 30.5204C31.0195 31.4028 29.1539 31.868 27.259 31.868C25.3688 31.868 23.5031 31.4028 21.8426 30.5204C19.9336 31.1485 18.225 32.1118 16.8856 33.3176C15.4641 34.5961 14.7469 36.2145 14.7469 38.127V41.7809C17.9953 43.6583 22.5317 44.7293 27.259 44.7293C29.4645 44.7293 31.5938 44.5067 33.6129 44.0672C33.0842 43.0607 32.8083 41.9406 32.809 40.8036C32.809 37.4719 35.134 34.6747 38.25 33.9446C38.0589 33.7216 37.8525 33.5121 37.6324 33.3176C36.2977 32.1118 34.5844 31.1485 32.6754 30.5204Z" fill="#5A40FF"/>
<path fill-rule="evenodd" clip-rule="evenodd" d="M39.8566 35.1633C36.7465 35.1633 34.2152 37.6934 34.2152 40.8036C34.2152 43.9149 36.7465 46.445 39.8566 46.445C42.9668 46.445 45.4981 43.9149 45.4981 40.8036C45.4992 37.6934 42.968 35.1633 39.8566 35.1633ZM36.9961 40.2446C37.2738 39.9704 37.7191 39.9704 37.991 40.2446L39.1102 41.3637L41.7223 38.7528C41.9953 38.4774 42.4453 38.4774 42.7172 38.7528C42.8484 38.8849 42.922 39.0635 42.922 39.2497C42.922 39.4358 42.8484 39.6144 42.7172 39.7465L39.607 42.8555C39.5417 42.9211 39.4641 42.973 39.3786 43.0084C39.2932 43.0438 39.2015 43.062 39.109 43.0618C38.932 43.0618 38.7504 42.9926 38.6109 42.8555L36.9938 41.2395C36.7231 40.9641 36.7231 40.5188 36.9961 40.2446Z" fill="black"/>
</svg>
