<svg width="32" height="33" viewBox="0 0 32 33" fill="none" xmlns="http://www.w3.org/2000/svg">
<g clip-path="url(#clip0_2002_598)">
<path d="M11.4134 5.41998C9.95746 6.02263 8.63451 6.90611 7.52002 8.01998" stroke="#2A3FCC" stroke-width="3" stroke-linecap="round" stroke-linejoin="round"/>
<path d="M4.92 11.9133C4.31541 13.3671 4.0028 14.9256 4 16.5" stroke="#2A3FCC" stroke-width="3" stroke-linecap="round" stroke-linejoin="round"/>
<path d="M4.91992 21.0867C5.52257 22.5426 6.40605 23.8655 7.51992 24.98" stroke="#2A3FCC" stroke-width="3" stroke-linecap="round" stroke-linejoin="round"/>
<path d="M11.4136 27.58C12.8673 28.1846 14.4258 28.4972 16.0002 28.5" stroke="#2A3FCC" stroke-width="3" stroke-linecap="round" stroke-linejoin="round"/>
<path d="M20.5864 27.58C22.0423 26.9773 23.3653 26.0939 24.4798 24.98" stroke="#2A3FCC" stroke-width="3" stroke-linecap="round" stroke-linejoin="round"/>
<path d="M27.0801 21.0867C27.6847 19.6329 27.9973 18.0744 28.0001 16.5" stroke="#2A3FCC" stroke-width="3" stroke-linecap="round" stroke-linejoin="round"/>
<path d="M27.08 11.9134C26.4773 10.4575 25.5939 9.13451 24.48 8.02002" stroke="#2A3FCC" stroke-width="3" stroke-linecap="round" stroke-linejoin="round"/>
<path d="M20.5867 5.42C19.1329 4.81541 17.5744 4.5028 16 4.5" stroke="#2A3FCC" stroke-width="3" stroke-linecap="round" stroke-linejoin="round"/>
<path d="M18.6668 19.1666L13.3335 13.8333" stroke="#2A3FCC" stroke-width="3" stroke-linecap="round" stroke-linejoin="round"/>
<path d="M13.3335 19.1666L18.6668 13.8333" stroke="#2A3FCC" stroke-width="3" stroke-linecap="round" stroke-linejoin="round"/>
</g>
<defs>
<clipPath id="clip0_2002_598">
<rect width="32" height="32" fill="white" transform="translate(0 0.5)"/>
</clipPath>
</defs>
</svg>
