<svg width="32" height="28" viewBox="0 0 32 28" fill="none" xmlns="http://www.w3.org/2000/svg">
<path d="M12.0539 27.9998C18.7111 27.9998 24.1078 22.6031 24.1078 15.946C24.1078 9.28879 18.7111 3.89209 12.0539 3.89209C5.39671 3.89209 0 9.28879 0 15.946C0 22.6031 5.39671 27.9998 12.0539 27.9998Z" fill="white"/>
<path d="M12.1902 25.2629L12.0373 25.0024C9.70195 21.0233 3.49596 12.5792 3.43327 12.4944L3.34375 12.3728L5.4581 10.2832L12.151 14.9567C16.365 9.48837 20.2963 5.73249 22.8608 3.53921C25.666 1.13997 27.4921 0.0354407 27.5105 0.0248563L27.552 0H31.1386L30.796 0.305103C21.9851 8.15296 12.435 24.8328 12.3398 25.0004L12.1902 25.2629Z" fill="#5A40FF"/>
</svg>
