<svg width="63" height="62" viewBox="0 0 63 62" fill="none" xmlns="http://www.w3.org/2000/svg">
<path d="M9.32816 8.87219C6.51745 12.4146 4.83997 16.8943 4.83997 21.7659H25.6059V42.5331C30.487 42.5331 34.9754 40.8483 38.5202 38.0292" stroke="#2A3FCC" stroke-width="2" stroke-miterlimit="10" stroke-linecap="round" stroke-linejoin="round"/>
<path d="M11.793 6.261C15.4624 2.98828 20.3024 0.999979 25.6059 0.999979C37.0749 0.999979 46.3718 10.2981 46.3718 21.7659C46.3718 23.2354 46.2193 24.6698 45.928 26.0533" stroke="#2A3FCC" stroke-width="2" stroke-miterlimit="10" stroke-linecap="round" stroke-linejoin="round"/>
<path d="M33.469 49.7542H27.4618C26.445 49.7542 25.6205 50.5786 25.6205 51.5955V61H35.3102V51.5955C35.3102 50.5786 34.4859 49.7542 33.469 49.7542Z" stroke="#2A3FCC" stroke-width="2" stroke-miterlimit="10" stroke-linecap="round" stroke-linejoin="round"/>
<path d="M48.2089 54.1896V60.9999H38.5203V27.8941C38.5203 26.877 39.3438 26.0534 40.3609 26.0534H46.3681C47.3853 26.0534 48.2089 26.877 48.2089 27.8941V50.5613" stroke="#2A3FCC" stroke-width="2" stroke-miterlimit="10" stroke-linecap="round" stroke-linejoin="round"/>
<path d="M59.2674 39.7816H53.2603C52.2434 39.7816 51.4191 40.606 51.4191 41.6229V61H61.1088V41.6229C61.1088 40.606 60.2843 39.7816 59.2674 39.7816Z" stroke="#2A3FCC" stroke-width="2" stroke-miterlimit="10" stroke-linecap="round" stroke-linejoin="round"/>
<path d="M21.7659 46.3726V25.6054H1C1 37.0745 10.2969 46.3726 21.7659 46.3726Z" stroke="#2A3FCC" stroke-width="2" stroke-miterlimit="10" stroke-linecap="round" stroke-linejoin="round"/>
<path d="M17.3047 42.1149L12.5725 52.3759H2.23315" stroke="#2A3FCC" stroke-width="2" stroke-miterlimit="10" stroke-linecap="round" stroke-linejoin="round"/>
<path d="M2.23303 48.4708H9.76888" stroke="#2A3FCC" stroke-width="2" stroke-miterlimit="10" stroke-linecap="round" stroke-linejoin="round"/>
<path d="M38.3024 16.5477L44.3218 5.82104H57.122" stroke="#2A3FCC" stroke-width="2" stroke-miterlimit="10" stroke-linecap="round" stroke-linejoin="round"/>
<path d="M57.122 2.20935H48.1855" stroke="#2A3FCC" stroke-width="2" stroke-miterlimit="10" stroke-linecap="round" stroke-linejoin="round"/>
<path d="M59.2945 21.3787H52.7043" stroke="#2A3FCC" stroke-width="2" stroke-miterlimit="10" stroke-linecap="round" stroke-linejoin="round"/>
<path d="M59.2945 25.288H52.7043" stroke="#2A3FCC" stroke-width="2" stroke-miterlimit="10" stroke-linecap="round" stroke-linejoin="round"/>
<path d="M59.2945 29.1973H52.7043" stroke="#2A3FCC" stroke-width="2" stroke-miterlimit="10" stroke-linecap="round" stroke-linejoin="round"/>
</svg>
