<svg width="61" height="60" viewBox="0 0 61 60" fill="none" xmlns="http://www.w3.org/2000/svg">
<g clip-path="url(#clip0_2006_626)">
<path d="M29.9629 29.5382C33.8916 27.2895 36.576 23.1026 36.576 18.2608C36.576 11.0686 30.7246 5.21729 23.5324 5.21729C16.3403 5.21729 10.4889 11.0686 10.4889 18.2608C10.4889 23.1026 13.1733 27.2895 17.102 29.5382C7.2751 32.1182 0.0541992 40.4269 0.0541992 50.2747V53.4782C0.0541992 54.1982 0.638587 54.7825 1.35859 54.7825C2.07859 54.7825 2.66297 54.1982 2.66297 53.4782V50.2747C2.66285 39.8165 12.0255 31.3043 23.5324 31.3043C35.0394 31.3043 44.402 39.8165 44.402 50.2747V53.4782C44.402 54.1982 44.9864 54.7825 45.7064 54.7825C46.4264 54.7825 47.0108 54.1982 47.0108 53.4782V50.2747C47.0107 40.4269 39.7898 32.1156 29.9629 29.5382ZM13.0977 18.2608C13.0977 12.5061 17.7777 7.82606 23.5324 7.82606C29.2872 7.82606 33.9672 12.5061 33.9672 18.2608C33.9672 24.0155 29.2872 28.6955 23.5324 28.6955C17.7777 28.6955 13.0977 24.0157 13.0977 18.2608Z" fill="#14B22B"/>
<path d="M47.5272 29.5722C50.355 27.7017 52.2281 24.5034 52.2281 20.8696C52.2281 15.1148 47.5481 10.4348 41.7934 10.4348C41.0734 10.4348 40.489 11.0192 40.489 11.7392C40.489 12.4592 41.0734 13.0436 41.7934 13.0436C46.1081 13.0436 49.6195 16.5549 49.6195 20.8697C49.6195 25.1844 46.1081 28.6958 41.7934 28.6958C41.0734 28.6958 40.489 29.2801 40.489 30.0001C40.489 30.7201 41.0733 31.3043 41.7933 31.3043C50.4254 31.3043 57.4454 37.7921 57.4454 45.7695V48.2607C57.4454 48.9807 58.0298 49.5651 58.7498 49.5651C59.4698 49.5651 60.0542 48.9807 60.0542 48.2607V45.7695C60.0542 38.2304 54.7951 31.8261 47.5272 29.5722Z" fill="#14B22B"/>
</g>
<defs>
<clipPath id="clip0_2006_626">
<rect width="60" height="60" fill="white" transform="translate(0.0541992)"/>
</clipPath>
</defs>
</svg>
