<svg width="61" height="60" viewBox="0 0 61 60" fill="none" xmlns="http://www.w3.org/2000/svg">
<g clip-path="url(#clip0_2006_627)">
<path d="M30.2829 25.6181V9.78932C30.2829 9.62476 30.2396 9.4631 30.1573 9.32058C30.0751 9.17807 29.9567 9.05973 29.8142 8.97745L16.1061 1.06307C15.9636 0.98073 15.8019 0.937378 15.6373 0.937378C15.4727 0.937378 15.3111 0.98073 15.1686 1.06307L1.46045 8.97745C1.31793 9.05972 1.19957 9.17806 1.11729 9.32057C1.03501 9.46309 0.991692 9.62476 0.991699 9.78932V25.6181C0.991703 25.7826 1.03502 25.9443 1.11731 26.0868C1.19959 26.2293 1.31793 26.3477 1.46045 26.4299L15.1686 34.3442C15.3111 34.4266 15.4727 34.47 15.6373 34.47C15.8019 34.47 15.9636 34.4266 16.1061 34.3442L29.8142 26.4299C29.9567 26.3477 30.0751 26.2293 30.1574 26.0868C30.2396 25.9443 30.283 25.7826 30.2829 25.6181ZM15.6373 2.95741L27.4704 9.78932L24.4791 11.5163L12.6459 4.68463L15.6373 2.95741ZM15.6373 16.6212L3.8042 9.78944L6.79564 8.06221L18.6288 14.8941L15.6373 16.6212ZM20.5037 13.8117L8.67064 6.97975L10.771 5.76709L22.6042 12.5989L20.5037 13.8117ZM23.5415 14.2226V18.2907L21.4412 19.5033V15.4354L23.5415 14.2226ZM2.8667 11.4131L14.6998 18.245V31.9087L2.8667 25.0768V11.4131ZM16.5748 31.9087V18.245L19.5662 16.5179V21.1271C19.5662 21.2917 19.6095 21.4533 19.6918 21.5958C19.774 21.7383 19.8924 21.8567 20.0349 21.939C20.1774 22.0213 20.3391 22.0646 20.5037 22.0646C20.6682 22.0646 20.8299 22.0212 20.9724 21.939L24.9478 19.6439C25.0903 19.5616 25.2086 19.4432 25.2909 19.3007C25.3732 19.1582 25.4165 18.9965 25.4165 18.832V13.1402L28.4078 11.4131V25.0768L16.5748 31.9087ZM58.6479 33.5701L44.9398 25.6557C44.7973 25.5733 44.6357 25.53 44.4711 25.53C44.3065 25.53 44.1448 25.5733 44.0023 25.6557L30.2942 33.5701C30.1517 33.6523 30.0333 33.7707 29.951 33.9132C29.8688 34.0557 29.8254 34.2174 29.8254 34.3819V50.2107C29.8255 50.3752 29.8688 50.5369 29.9511 50.6794C30.0333 50.8219 30.1517 50.9403 30.2942 51.0226L44.0023 58.9368C44.1448 59.0192 44.3065 59.0626 44.4711 59.0626C44.6357 59.0626 44.7973 59.0192 44.9398 58.9368L58.6479 51.0226C58.7905 50.9403 58.9088 50.8219 58.9911 50.6794C59.0734 50.5369 59.1167 50.3753 59.1167 50.2107V34.3819C59.1167 34.2174 59.0734 34.0557 58.9911 33.9132C58.9088 33.7707 58.7905 33.6523 58.6479 33.5701ZM44.4711 27.55L56.3042 34.3819L53.3129 36.1089L41.4796 29.2771L44.4711 27.55ZM44.4711 41.2137L32.6379 34.3819L35.6294 32.6547L47.4625 39.4866L44.4711 41.2137ZM49.3375 38.4042L37.5044 31.5722L39.6047 30.3596L51.438 37.1914L49.3375 38.4042ZM50.275 40.0279L52.3754 38.8153V42.8833L50.275 44.096V40.0279ZM31.7004 36.0057L43.5336 42.8376V56.5013L31.7004 49.6695V36.0057ZM45.4086 56.5012V42.8375L48.3999 41.1104V45.7196C48.3999 45.8842 48.4432 46.0458 48.5255 46.1883C48.6078 46.3309 48.7261 46.4492 48.8687 46.5315C49.0112 46.6138 49.1728 46.6571 49.3374 46.6571C49.502 46.6571 49.6636 46.6138 49.8062 46.5315L53.7815 44.2364C53.924 44.1541 54.0424 44.0357 54.1247 43.8932C54.2069 43.7507 54.2503 43.589 54.2503 43.4245V37.7327L57.2417 36.0057V49.6694L45.4086 56.5012ZM39.5145 17.975C39.6426 18.0916 39.8005 18.1705 39.9707 18.2028C40.1409 18.2352 40.3168 18.2198 40.4787 18.1583C40.6407 18.0968 40.7824 17.9916 40.8883 17.8544C40.9941 17.7173 41.0599 17.5535 41.0783 17.3812L41.2441 15.824C44.3947 16.4906 50.5553 19.0537 51.3023 24.1587C51.3348 24.3816 51.4465 24.5852 51.6169 24.7325C51.7874 24.8797 52.0051 24.9607 52.2303 24.9605C52.4038 24.9605 52.5739 24.9122 52.7217 24.8212C52.8694 24.7302 52.989 24.6 53.0671 24.445C54.419 21.7624 54.2511 18.4928 52.6062 15.4746C50.5756 11.7483 46.6674 9.14889 42.035 8.39772L42.1987 6.85998C42.2176 6.68261 42.1856 6.50351 42.1063 6.34373C42.027 6.18394 41.9037 6.0501 41.751 5.95794C41.5983 5.86577 41.4224 5.81909 41.2441 5.8234C41.0658 5.82771 40.8924 5.88282 40.7443 5.98225L33.4485 10.8755C33.2092 11.0358 33.0571 11.2974 33.0358 11.5846C33.0145 11.8719 33.1264 12.153 33.3392 12.3471L39.5145 17.975ZM40.1215 8.65741L40.0737 9.10612C40.0474 9.35336 40.1204 9.60093 40.2766 9.79437C40.4328 9.98781 40.6595 10.1113 40.9067 10.1376C45.331 10.6087 49.0891 12.9392 50.9597 16.3717C51.7598 17.8397 52.1399 19.3665 52.0919 20.8094C51.164 19.169 49.6918 17.6975 47.7258 16.4642C45.0485 14.7843 42.1686 13.9829 40.5161 13.8069C40.2689 13.7805 40.0213 13.8535 39.8279 14.0097C39.6344 14.1659 39.511 14.3926 39.4846 14.6398L39.4099 15.3425L35.486 11.7664L40.1215 8.65741ZM20.5939 42.0249C20.4658 41.9082 20.3079 41.8293 20.1377 41.7969C19.9675 41.7646 19.7916 41.78 19.6296 41.8415C19.4677 41.903 19.3259 42.0082 19.2201 42.1454C19.1142 42.2826 19.0485 42.4464 19.0301 42.6187L18.8643 44.1759C15.7137 43.5093 9.55318 40.9462 8.80611 35.8412C8.77728 35.644 8.68636 35.4611 8.54654 35.3191C8.40672 35.1771 8.22528 35.0834 8.02857 35.0515C7.83186 35.0195 7.63006 35.0511 7.4525 35.1416C7.27495 35.2322 7.13089 35.377 7.04127 35.555C5.68939 38.2376 5.85732 41.5072 7.50217 44.5253C9.53279 48.2517 13.441 50.8511 18.0735 51.6024L17.9098 53.14C17.8909 53.3174 17.923 53.4964 18.0023 53.6562C18.0816 53.816 18.2049 53.9498 18.3576 54.0419C18.5103 54.1341 18.6861 54.1808 18.8644 54.1765C19.0427 54.1722 19.2161 54.1171 19.3642 54.0178L26.66 49.1245C26.8993 48.9642 27.0514 48.7026 27.0727 48.4154C27.094 48.1281 26.9821 47.847 26.7693 47.653L20.5939 42.0249ZM19.9869 51.3425L20.0347 50.8939C20.061 50.6467 19.988 50.3991 19.8318 50.2056C19.6756 50.0122 19.4489 49.8887 19.2017 49.8624C14.7774 49.3912 11.0193 47.0607 9.14865 43.6281C8.34861 42.1601 7.96846 40.6334 8.0165 39.1905C8.94439 40.8309 10.4166 42.3024 12.3826 43.5357C15.0601 45.2156 17.9398 46.017 19.5923 46.193C20.1073 46.2467 20.5689 45.8749 20.6238 45.3601L20.6985 44.6574L24.6224 48.2335L19.9869 51.3425Z" fill="#FD6900"/>
</g>
<defs>
<clipPath id="clip0_2006_627">
<rect width="60" height="60" fill="white" transform="translate(0.0541992)"/>
</clipPath>
</defs>
</svg>
