<svg width="61" height="60" viewBox="0 0 61 60" fill="none" xmlns="http://www.w3.org/2000/svg">
<g clip-path="url(#clip0_2006_625)">
<path d="M57.6786 13.2388L30.4363 0.0873603C30.3171 0.029862 30.1865 0 30.0542 0C29.9219 0 29.7912 0.029862 29.6721 0.0873603L2.42962 13.2388C2.28077 13.3107 2.15521 13.4231 2.06734 13.5631C1.97947 13.7031 1.93286 13.865 1.93286 14.0303V45.9697C1.93286 46.135 1.97947 46.2969 2.06734 46.4369C2.15521 46.5769 2.28077 46.6893 2.42962 46.7612L29.672 59.9126C29.7911 59.9701 29.9218 60 30.0541 60C30.1864 60 30.3171 59.9701 30.4363 59.9126L57.6786 46.7612C57.8275 46.6893 57.953 46.5769 58.0409 46.4369C58.1288 46.2969 58.1754 46.135 58.1754 45.9697V14.0304C58.1754 13.8651 58.1287 13.7032 58.0409 13.5632C57.953 13.4232 57.8275 13.3107 57.6786 13.2388ZM30.0541 1.8549L55.2749 14.0303L47.9639 17.5598C47.9176 17.5236 47.8677 17.4922 47.815 17.466L22.7656 5.37345L30.0541 1.8549ZM20.7807 6.3672L45.9648 18.5249L40.8068 21.0151L15.6331 8.86224L20.7807 6.3672ZM46.554 20.1923V29.3969L41.7361 31.7228V22.5182L46.554 20.1923ZM56.4175 45.4182L30.933 57.7208V27.7334L37.0119 24.7988C37.1158 24.7486 37.2089 24.6785 37.2857 24.5923C37.3625 24.5062 37.4216 24.4057 37.4596 24.2968C37.4976 24.1878 37.5138 24.0724 37.5072 23.9571C37.5006 23.8419 37.4714 23.7291 37.4212 23.6252C37.371 23.5212 37.3009 23.4282 37.2147 23.3514C37.1286 23.2746 37.0282 23.2154 36.9192 23.1774C36.8102 23.1394 36.6948 23.1233 36.5796 23.1298C36.4643 23.1364 36.3515 23.1657 36.2476 23.2158L30.0541 26.2059L27.6171 25.0293C27.5131 24.9791 27.4003 24.9499 27.2851 24.9432C27.1699 24.9366 27.0544 24.9528 26.9455 24.9908C26.8365 25.0288 26.736 25.0879 26.6499 25.1648C26.5638 25.2416 26.4936 25.3347 26.4434 25.4386C26.3933 25.5426 26.364 25.6554 26.3575 25.7706C26.3509 25.8859 26.367 26.0013 26.405 26.1102C26.4431 26.2192 26.5022 26.3197 26.579 26.4058C26.6558 26.4919 26.7488 26.5621 26.8528 26.6123L29.1752 27.7334V57.7208L3.69067 45.4179V15.4306L23.0969 24.7992C23.2158 24.8568 23.3462 24.8868 23.4784 24.8868C23.6775 24.8871 23.8709 24.8196 24.0267 24.6956C24.1826 24.5716 24.2917 24.3983 24.3362 24.2042C24.3806 24.01 24.3579 23.8065 24.2715 23.627C24.1852 23.4475 24.0405 23.3027 23.8611 23.2162L4.83337 14.0303L13.5644 9.81533L39.9661 22.561C39.9699 22.5664 39.9743 22.5712 39.9783 22.5765V33.1232C39.9783 33.272 40.0161 33.4183 40.0881 33.5485C40.1602 33.6786 40.264 33.7884 40.39 33.8675C40.516 33.9466 40.66 33.9924 40.8086 34.0006C40.9571 34.0089 41.1053 33.9793 41.2393 33.9147L47.815 30.7402C47.9639 30.6684 48.0895 30.556 48.1773 30.416C48.2652 30.276 48.3118 30.114 48.3118 29.9487V19.3438L56.4175 15.4307V45.4182Z" fill="#FFB800"/>
<path d="M10.944 42.0093L6.94612 40.0794C6.7362 39.978 6.49462 39.9642 6.27453 40.041C6.05443 40.1177 5.87384 40.2788 5.77249 40.4887C5.67113 40.6986 5.65732 40.9402 5.73409 41.1603C5.81085 41.3804 5.97191 41.561 6.18182 41.6623L10.1797 43.5923C10.2986 43.65 10.429 43.6799 10.5611 43.68C10.7265 43.6801 10.8886 43.6335 11.0287 43.5455C11.1688 43.4576 11.2813 43.332 11.3532 43.183C11.4034 43.079 11.4326 42.9662 11.4392 42.851C11.4458 42.7358 11.4297 42.6204 11.3917 42.5114C11.3537 42.4024 11.2946 42.302 11.2178 42.2158C11.1409 42.1297 11.0479 42.0595 10.944 42.0093ZM14.6233 39.6144L6.95163 35.9108C6.74221 35.8133 6.50281 35.8021 6.28522 35.8797C6.06764 35.9573 5.88935 36.1175 5.78892 36.3255C5.68849 36.5336 5.674 36.7728 5.74858 36.9914C5.82316 37.2101 5.98082 37.3906 6.18745 37.4939L13.8591 41.1975C13.978 41.2551 14.1084 41.285 14.2406 41.2851C14.4398 41.2854 14.6332 41.218 14.7891 41.094C14.945 40.97 15.0541 40.7967 15.0986 40.6025C15.1431 40.4083 15.1203 40.2047 15.0339 40.0252C14.9476 39.8457 14.8028 39.7008 14.6233 39.6144Z" fill="#FFB800"/>
</g>
<defs>
<clipPath id="clip0_2006_625">
<rect width="60" height="60" fill="white" transform="translate(0.0541992)"/>
</clipPath>
</defs>
</svg>
