<svg width="32" height="32" viewBox="0 0 32 32" fill="none" xmlns="http://www.w3.org/2000/svg">
<path d="M30.6875 13.9475H27.4775C27.9175 13.6525 28.2387 13.1938 28.3531 12.6588H30.4694C30.6763 12.6588 30.8444 12.4906 30.8444 12.2838V10.1281C30.8444 9.92125 30.6763 9.75313 30.4694 9.75313H29.8825V6.8125C29.8825 5.11125 28.4981 3.72688 26.7969 3.72688H24.8169V3.09625C24.8169 2.88938 24.6488 2.72125 24.4419 2.72125H15.1056C14.8988 2.72125 14.7306 2.88938 14.7306 3.09625V12.2844C14.7306 12.4913 14.8988 12.6594 15.1056 12.6594H17.2219C17.3362 13.1944 17.6575 13.6531 18.0975 13.9481H13.8931V9.75688C13.8931 9.55 13.725 9.38188 13.5181 9.38188H11.56V5.18938C11.56 4.9825 11.3919 4.81438 11.185 4.81438H6.51937C6.3125 4.81438 6.14437 4.9825 6.14437 5.18938V9.38063H4.18687C3.98 9.38063 3.81188 9.54875 3.81188 9.75563V13.9469H1.3125C1.10563 13.9469 0.9375 14.115 0.9375 14.3219C0.9375 14.5288 1.10563 14.6969 1.3125 14.6969H30.6875C30.8944 14.6969 31.0625 14.5288 31.0625 14.3219C31.0625 14.115 30.8944 13.9475 30.6875 13.9475ZM26.3281 13.5469C25.5994 13.5469 25.0069 12.9544 25.0069 12.2256C25.0069 11.4969 25.5994 10.9044 26.3281 10.9044C27.0569 10.9044 27.6494 11.4969 27.6494 12.2256C27.6494 12.9538 27.0569 13.5469 26.3281 13.5469ZM24.2812 11.9088H21.295C21.205 11.3244 20.8694 10.8194 20.3975 10.5031H25.1787C24.7062 10.8194 24.3713 11.3244 24.2812 11.9088ZM30.095 11.9088H28.375C28.285 11.3244 27.9494 10.8194 27.4775 10.5031H30.0944V11.9088H30.095ZM29.1331 6.8125V7.06125H26.5287V4.47688H26.7975C28.0856 4.47688 29.1331 5.52438 29.1331 6.8125ZM25.7787 4.47688V7.43625C25.7787 7.64313 25.9469 7.81125 26.1537 7.81125H29.1331V9.75375H24.8175V4.47688H25.7787ZM24.0675 3.47125V9.75375H15.4806V3.47125H24.0675ZM17.2 11.9088H15.4806V10.5031H18.0975C17.6256 10.8194 17.29 11.3244 17.2 11.9088ZM19.2475 10.9038C19.9762 10.9038 20.5688 11.4963 20.5688 12.225C20.5688 12.9538 19.9762 13.5463 19.2475 13.5463C18.5187 13.5463 17.9263 12.9538 17.9263 12.225C17.9263 11.4963 18.5187 10.9038 19.2475 10.9038ZM21.2725 12.6588H24.3025C24.4169 13.1938 24.7381 13.6525 25.1781 13.9475H20.3962C20.8369 13.6525 21.1581 13.1938 21.2725 12.6588ZM13.1431 13.9475H9.2275V10.1313H9.94312V12.1631C9.94312 12.3094 10.0281 12.4425 10.1606 12.5038C10.2106 12.5269 10.2644 12.5381 10.3175 12.5381C10.405 12.5381 10.4919 12.5075 10.5606 12.4488L11.1844 11.9169L11.8081 12.4488C11.8627 12.4952 11.9294 12.5251 12.0004 12.5349C12.0714 12.5446 12.1437 12.5338 12.2087 12.5038C12.2737 12.4736 12.3287 12.4256 12.3673 12.3652C12.4058 12.3049 12.4263 12.2347 12.4263 12.1631V10.1313H13.1419V13.9475H13.1431ZM10.6931 10.1306H11.6775V11.3506L11.4288 11.1388C11.3609 11.081 11.2747 11.0492 11.1856 11.0492C11.0965 11.0492 11.0103 11.081 10.9425 11.1388L10.6938 11.3506V10.1306H10.6931ZM8.36 5.56438H9.34437V6.78438L9.09562 6.5725C9.0278 6.51471 8.94161 6.48297 8.8525 6.48297C8.76339 6.48297 8.6772 6.51471 8.60938 6.5725L8.36063 6.78438V5.56438H8.36ZM6.89437 5.56438H7.61V7.59625C7.61 7.7425 7.695 7.87563 7.8275 7.93688C7.8775 7.96 7.93125 7.97125 7.98438 7.97125C8.07187 7.97125 8.15875 7.94063 8.2275 7.88188L8.85125 7.35L9.475 7.88188C9.52955 7.92836 9.59627 7.95825 9.66726 7.96799C9.73826 7.97774 9.81057 7.96694 9.87562 7.93688C9.94059 7.90676 9.99559 7.85869 10.0341 7.79833C10.0727 7.73798 10.0931 7.66786 10.0931 7.59625V5.56438H10.8088V9.38063H6.8925V5.56438H6.89437ZM6.0275 10.1306H7.01188V11.3506L6.76312 11.1388C6.6953 11.081 6.60911 11.0492 6.52 11.0492C6.43089 11.0492 6.3447 11.081 6.27688 11.1388L6.02812 11.3506V10.1306H6.0275ZM4.56187 10.1306H5.2775V12.1625C5.2775 12.3088 5.3625 12.4419 5.495 12.5031C5.62812 12.5644 5.78438 12.5431 5.89563 12.4481L6.51937 11.9163L7.14313 12.4481C7.19765 12.4944 7.26425 12.5242 7.33511 12.5339C7.40597 12.5437 7.47813 12.533 7.54313 12.5031C7.60809 12.473 7.66309 12.4249 7.70163 12.3646C7.74017 12.3042 7.76064 12.2341 7.76062 12.1625V10.1306H8.47625V13.9469H4.56187V10.1306ZM23.5175 15.6825C23.4525 15.5288 23.3319 15.41 23.1769 15.3469C23.0219 15.2838 22.8519 15.285 22.6987 15.35L21.4937 15.8594C21.1762 15.9938 21.0275 16.3606 21.1612 16.6781L21.1894 16.745C20.1769 17.08 19.2344 16.8569 18.32 16.64C17.4281 16.4288 16.5856 16.2288 15.8169 16.6194C15.805 16.6256 15.7931 16.6325 15.7812 16.64C15.4075 16.8838 15.0962 17.1275 14.8281 17.3513C14.5 17.1894 14.0775 17.2281 13.6369 17.2694C12.9825 17.3306 12.25 17.3981 11.5275 16.9494L11.5419 16.925C11.72 16.63 11.625 16.245 11.33 16.0669L10.21 15.3906C9.915 15.2125 9.53 15.3075 9.35188 15.6025L5.98812 21.1731C5.90187 21.3156 5.87625 21.4838 5.91625 21.6463C5.95625 21.8088 6.05688 21.945 6.19938 22.0313L7.31938 22.7075C7.42 22.7681 7.53125 22.7975 7.64125 22.7975C7.85313 22.7975 8.06 22.69 8.1775 22.4956L8.37625 22.1663C8.97125 22.3081 9.37562 22.5919 9.5525 22.7763L9.095 23.2969C8.86188 23.5625 8.74563 23.9038 8.76875 24.2581C8.79188 24.6125 8.95062 24.9363 9.21562 25.1694C9.4569 25.3822 9.76768 25.4993 10.0894 25.4988C10.1187 25.4988 10.1481 25.4981 10.1775 25.4963C10.1937 25.495 10.21 25.4925 10.2262 25.4906C10.2506 25.8431 10.4087 26.1644 10.6725 26.3969C10.9138 26.6097 11.2246 26.7268 11.5463 26.7263C11.5756 26.7263 11.605 26.7256 11.6344 26.7238C11.6419 26.7231 11.6488 26.7219 11.6556 26.7213C11.6563 26.7288 11.6556 26.7356 11.6562 26.7425C11.6794 27.0969 11.8381 27.4206 12.1031 27.6538C12.3443 27.8666 12.6552 27.9838 12.9769 27.9831C13.0063 27.9831 13.0356 27.9825 13.065 27.9806C13.075 27.98 13.0844 27.9781 13.0944 27.9775C13.1131 28.3213 13.2637 28.6575 13.5425 28.9025C13.7944 29.1238 14.1062 29.2319 14.4175 29.2319C14.6969 29.2319 14.975 29.1444 15.2075 28.9719C15.465 29.1788 15.7719 29.28 16.0737 29.28C16.4419 29.28 16.8031 29.1294 17.0613 28.8356C17.2281 28.6456 17.3294 28.4206 17.37 28.1881C17.4975 28.2281 17.6313 28.25 17.7681 28.25C17.7975 28.25 17.8269 28.2494 17.8563 28.2475C18.2106 28.2244 18.5344 28.0656 18.7675 27.8006C18.9331 27.6119 19.0388 27.3844 19.0781 27.1413C19.2013 27.1775 19.3275 27.1963 19.4544 27.1963C19.8231 27.1963 20.19 27.0438 20.4519 26.7456C20.635 26.5375 20.7406 26.2869 20.7712 26.0306C20.8619 26.05 20.9538 26.0606 21.0456 26.0606C21.4144 26.0606 21.7813 25.9081 22.0431 25.61C22.4419 25.1563 22.4737 24.5044 22.1631 24.0188C22.7275 23.6969 22.9231 23.3838 23.0863 23.1219C23.2163 22.9138 23.3181 22.7513 23.6581 22.5913L23.6925 22.6731C23.7931 22.9113 24.025 23.0544 24.2687 23.0544C24.35 23.0544 24.4319 23.0388 24.5112 23.005L25.7162 22.4956C26.0337 22.3613 26.1825 21.9944 26.0487 21.6769L23.5175 15.6825ZM7.60187 22.0013L6.69625 21.4544L9.93062 16.0981L10.8369 16.645L7.60187 22.0013ZM10.13 24.7475C9.97563 24.7581 9.82687 24.7075 9.71187 24.6063C9.59687 24.505 9.52812 24.3644 9.51812 24.21C9.50812 24.0556 9.55813 23.9069 9.65938 23.7919L10.6706 22.6406C10.7206 22.5838 10.7814 22.5374 10.8494 22.5041C10.9174 22.4709 10.9913 22.4514 11.0669 22.4469C11.08 22.4463 11.0925 22.4456 11.1056 22.4456C11.2463 22.4456 11.38 22.4956 11.485 22.5881C11.6 22.6894 11.6688 22.83 11.6788 22.9844C11.6888 23.1388 11.6388 23.2875 11.5375 23.4025L10.5262 24.5538C10.4256 24.6688 10.285 24.7375 10.13 24.7475ZM11.5869 25.9744C11.4325 25.985 11.2837 25.9344 11.1687 25.8331C11.0537 25.7319 10.985 25.5913 10.975 25.4369C10.965 25.2825 11.015 25.1344 11.1156 25.0194L12.1012 23.8975C12.11 23.8875 12.1175 23.8763 12.1263 23.8663L12.1275 23.8675C12.2287 23.7525 12.3694 23.6838 12.5238 23.6738C12.6781 23.6638 12.8269 23.7138 12.9419 23.815C13.0569 23.9163 13.1256 24.0569 13.1356 24.2113C13.1456 24.3656 13.0956 24.5144 12.9944 24.6294L12.6806 24.9863V24.9869L11.9831 25.7806C11.9333 25.8377 11.8726 25.8842 11.8046 25.9175C11.7365 25.9508 11.6625 25.9701 11.5869 25.9744ZM13.0175 27.2319C12.8637 27.2419 12.7144 27.1919 12.5994 27.0906C12.4844 26.9894 12.4156 26.8488 12.4056 26.6944C12.3956 26.54 12.4456 26.3919 12.5469 26.2769L13.2444 25.4831C13.4544 25.2438 13.82 25.2206 14.0588 25.4306C14.1738 25.5319 14.2425 25.6725 14.2525 25.8269C14.2625 25.9813 14.2125 26.13 14.1112 26.245L13.4137 27.0388C13.3124 27.153 13.1699 27.2224 13.0175 27.2319ZM14.0381 28.3381C13.7994 28.1281 13.7756 27.7631 13.9856 27.5238L14.0506 27.45L14.0938 27.4013C14.148 27.3397 14.2147 27.2904 14.2895 27.2566C14.3643 27.2229 14.4454 27.2055 14.5275 27.2056C14.6631 27.2056 14.7987 27.2531 14.9081 27.3488C15.0231 27.45 15.0919 27.5906 15.1019 27.745C15.1119 27.8994 15.0619 28.0481 14.9606 28.1631L14.8531 28.2856C14.6425 28.5244 14.2769 28.5481 14.0381 28.3381ZM21.4819 25.1138C21.2719 25.3525 20.9062 25.3763 20.6675 25.1663L17.9981 22.8206C17.8425 22.6838 17.6056 22.6994 17.4688 22.855C17.3319 23.0106 17.3475 23.2475 17.5031 23.3844L19.8381 25.4363C20.0769 25.6463 20.1 26.0113 19.89 26.25C19.68 26.4888 19.3144 26.5125 19.0756 26.3025L16.6669 24.1856C16.5113 24.0488 16.2744 24.0644 16.1375 24.22C16.0006 24.3756 16.0162 24.6125 16.1719 24.7494L18.1537 26.4906C18.2687 26.5919 18.3375 26.7325 18.3475 26.8869C18.3575 27.0413 18.3075 27.19 18.2062 27.305C17.9962 27.5438 17.6312 27.5675 17.3919 27.3575L16.1344 26.2525C15.9787 26.1156 15.7419 26.1313 15.605 26.2869C15.4681 26.4425 15.4837 26.6794 15.6394 26.8163L16.4475 27.5263C16.6869 27.7363 16.71 28.1019 16.5 28.3406C16.3012 28.5669 15.955 28.5913 15.6994 28.4019C15.8125 28.1875 15.8663 27.9456 15.8506 27.6969C15.8275 27.3425 15.6688 27.0188 15.4038 26.7856C15.2437 26.6451 15.052 26.5454 14.845 26.495C14.9631 26.2775 15.0187 26.0313 15.0025 25.7775C14.9794 25.4231 14.8206 25.0994 14.555 24.8663C14.3584 24.6933 14.1147 24.5828 13.855 24.5488C13.8837 24.4244 13.8944 24.295 13.8856 24.1638C13.8625 23.8094 13.7038 23.4856 13.4388 23.2525C13.1731 23.0194 12.8325 22.9031 12.4775 22.9263C12.4612 22.9275 12.445 22.93 12.4288 22.9319C12.4044 22.5794 12.2463 22.2581 11.9819 22.0256C11.7163 21.7925 11.375 21.6763 11.0206 21.6994C10.6663 21.7225 10.3425 21.8813 10.1094 22.1463L10.0506 22.2125C9.76687 21.9306 9.32437 21.6631 8.78312 21.4981L11.1419 17.5913C11.755 17.9706 12.3688 18.0638 12.9163 18.0638C13.2013 18.0638 13.4681 18.0388 13.7081 18.0163C13.8394 18.0038 13.9725 17.9919 14.0931 17.9863C14.0375 18.0325 13.9825 18.0769 13.93 18.1175C12.87 18.9219 13.0063 19.8263 13.1163 20.5531C13.1988 21.1013 13.2706 21.575 12.9513 22.0713C12.8888 22.1681 12.8744 22.2888 12.9125 22.3981C12.9506 22.5075 13.0369 22.5925 13.1462 22.6294C13.6881 22.8125 14.3012 22.685 14.8287 22.2788C15.4231 21.8213 15.78 21.1163 15.7369 20.4825C15.7219 20.2638 15.8481 19.9244 16.0331 19.815C16.0706 19.7925 16.1694 19.7344 16.38 19.8619L21.43 24.2994C21.6681 24.51 21.6919 24.875 21.4819 25.1138ZM22.4519 22.7244C22.3013 22.9663 22.1562 23.1963 21.6125 23.4625L16.8512 19.2788C16.8369 19.2663 16.8219 19.255 16.8062 19.245C16.2712 18.9013 15.8525 19.0506 15.6506 19.17C15.1794 19.4488 14.9569 20.0806 14.9875 20.5338C15.0131 20.9119 14.7587 21.3856 14.37 21.685C14.1962 21.8188 14.0125 21.9056 13.8337 21.9419C14.0019 21.4063 13.9256 20.9006 13.8562 20.4413C13.7519 19.75 13.6763 19.2506 14.3819 18.715C14.5506 18.5869 14.725 18.4338 14.91 18.2719C15.2544 17.97 15.6437 17.6288 16.1737 17.2806C16.695 17.0269 17.3688 17.1863 18.1469 17.3713C19.0888 17.5944 20.2412 17.8675 21.4819 17.4388L23.3681 21.9006C22.8044 22.16 22.6188 22.4569 22.4519 22.7244ZM24.3369 22.2656L21.9006 16.5025L22.8756 16.0906L25.3119 21.8538L24.3369 22.2656Z" fill="#2A3FCC"/>
</svg>
