<svg width="32" height="32" viewBox="0 0 32 32" fill="none" xmlns="http://www.w3.org/2000/svg">
<g clip-path="url(#clip0_153_313)">
<path d="M30.0835 2.53613H22.5344L23.1169 1.71244C23.2282 1.55606 23.2941 1.37201 23.3075 1.18055C23.3208 0.9891 23.281 0.797678 23.1925 0.627379C23.1046 0.456793 22.9713 0.313791 22.8073 0.214123C22.6432 0.114455 22.4549 0.0619891 22.263 0.0625038H18.6921C18.5002 0.0619852 18.3119 0.114444 18.1479 0.214101C17.9839 0.313759 17.8506 0.456748 17.7627 0.627316C17.6742 0.797606 17.6344 0.989028 17.6477 1.18048C17.661 1.37194 17.727 1.556 17.8382 1.71238L18.4208 2.53607H10.8717C9.96555 2.53607 9.2283 3.27325 9.2283 4.17938V15.1607C5.92586 15.4166 3.31698 18.1856 3.31698 21.5526C3.31698 23.8004 4.51773 25.9121 6.45073 27.0639C6.67386 27.1968 6.79186 27.4044 6.79186 27.6641V29.1055C6.79186 29.653 7.12911 30.1228 7.60655 30.3193C7.6488 31.2187 8.39355 31.9375 9.30317 31.9375H10.1534C11.063 31.9375 11.8079 31.2188 11.8501 30.3193C12.3275 30.1228 12.6648 29.653 12.6648 29.1055V28.7775H30.0835C30.9897 28.7775 31.7269 28.0403 31.7269 27.1341V4.17944C31.7269 3.27332 30.9897 2.53613 30.0835 2.53613ZM28.8638 23.1781H26.6275C26.4949 23.1781 26.3677 23.2308 26.2739 23.3246C26.1802 23.4183 26.1275 23.5455 26.1275 23.6781V25.9145H14.4227C14.8636 25.4375 15.2303 24.8968 15.5104 24.3107C15.6123 24.293 15.7062 24.244 15.7789 24.1705L17.6318 22.3003C17.678 22.2536 17.7146 22.1983 17.7394 22.1375C17.7643 22.0768 17.7769 22.0117 17.7766 21.946C17.7762 21.8804 17.763 21.8154 17.7376 21.7549C17.7122 21.6943 17.6751 21.6394 17.6284 21.5932C17.5818 21.547 17.5265 21.5104 17.4657 21.4856C17.4049 21.4607 17.3399 21.4481 17.2742 21.4484C17.2085 21.4487 17.1436 21.4619 17.083 21.4874C17.0225 21.5128 16.9676 21.5499 16.9214 21.5965L16.0747 22.4511C16.1176 22.1536 16.1393 21.8533 16.1395 21.5527C16.1395 20.8846 16.0367 20.2401 15.8462 19.6341L17.6318 17.8317C17.678 17.785 17.7146 17.7298 17.7394 17.669C17.7643 17.6082 17.7769 17.5431 17.7766 17.4775C17.7762 17.4118 17.763 17.3469 17.7376 17.2863C17.7122 17.2258 17.6751 17.1708 17.6284 17.1246C17.5818 17.0784 17.5265 17.0418 17.4657 17.017C17.4049 16.9922 17.3399 16.9795 17.2742 16.9798C17.2085 16.9801 17.1436 16.9934 17.083 17.0188C17.0225 17.0442 16.9676 17.0813 16.9214 17.1279L15.4335 18.6298C14.7266 17.2555 13.5376 16.1683 12.0914 15.5929V5.39913H16.2588C16.4345 5.83925 16.8575 6.1325 17.3469 6.1325H23.6084C24.0977 6.1325 24.5207 5.83925 24.6964 5.39913H28.8639L28.8638 23.1781ZM28.1567 24.1781L27.1275 25.2074V24.1781H28.1567ZM19.3869 3.53607C19.4785 3.53607 19.5684 3.51086 19.6468 3.46321C19.7251 3.41556 19.7888 3.34729 19.8309 3.26587C19.873 3.18446 19.892 3.09302 19.8857 3.00157C19.8793 2.91011 19.848 2.82216 19.795 2.74732L18.6546 1.135C18.6488 1.12682 18.638 1.1115 18.6507 1.087C18.6634 1.0625 18.6821 1.0625 18.6921 1.0625H22.263C22.273 1.0625 22.2918 1.0625 22.3044 1.087C22.3171 1.1115 22.3063 1.12675 22.3005 1.135L21.1602 2.74738C21.1072 2.82222 21.0759 2.91018 21.0696 3.00163C21.0632 3.09309 21.0822 3.18452 21.1243 3.26594C21.1664 3.34735 21.2301 3.41562 21.3085 3.46327C21.3868 3.51092 21.4767 3.53613 21.5684 3.53613H24.0931L23.7777 4.99594C23.7597 5.07894 23.6932 5.13257 23.6084 5.13257H17.3468C17.2619 5.13257 17.1954 5.07894 17.1774 4.99588L16.862 3.53613L19.3869 3.53607ZM10.8717 3.53613H15.839L16.0255 4.39919H11.5914C11.4588 4.39919 11.3316 4.45187 11.2378 4.54564C11.144 4.63941 11.0914 4.76658 11.0914 4.89919V15.2877C10.8069 15.2257 10.5185 15.1833 10.2283 15.1608V4.17944C10.2283 3.82469 10.5169 3.53613 10.8717 3.53613ZM6.96255 26.2049C5.33073 25.2326 4.31698 23.4499 4.31698 21.5526C4.31698 18.5689 6.74448 16.1414 9.7283 16.1414C12.712 16.1414 15.1395 18.5689 15.1395 21.5526C15.1395 23.45 14.1259 25.2326 12.494 26.2049C11.967 26.5189 11.6647 27.0508 11.6647 27.6642V28.0118H10.9102V23.8538C12.1884 23.555 13.0776 22.7801 13.0776 21.8483C13.0776 20.975 12.3672 20.2645 11.4939 20.2645C10.6206 20.2645 9.91017 20.975 9.91017 21.8483V22.9821C9.78897 22.987 9.66762 22.987 9.54642 22.9821V21.8483C9.54642 20.975 8.83598 20.2645 7.96267 20.2645C7.08936 20.2645 6.37892 20.975 6.37892 21.8483C6.37892 22.7801 7.26817 23.555 8.54642 23.8538V28.0118H7.79186V27.6642C7.79186 27.0508 7.48961 26.5189 6.96255 26.2049ZM11.3521 29.4181H8.10442C8.02154 29.418 7.94208 29.385 7.88348 29.3264C7.82487 29.2678 7.7919 29.1884 7.7918 29.1055V29.0118H11.6647V29.1055C11.6646 29.1884 11.6317 29.2678 11.5731 29.3264C11.5144 29.385 11.435 29.418 11.3521 29.4181ZM8.54642 22.8179C7.83611 22.6017 7.37892 22.2105 7.37892 21.8483C7.37892 21.5264 7.64073 21.2645 7.96267 21.2645C8.28461 21.2645 8.54642 21.5264 8.54642 21.8483V22.8179ZM9.91017 28.0118H9.54642V23.9829C9.6668 23.9868 9.78986 23.9868 9.91017 23.9829V28.0118ZM10.9102 22.8179V21.8483C10.9102 21.5264 11.172 21.2645 11.4939 21.2645C11.8157 21.2645 12.0776 21.5264 12.0776 21.8483C12.0776 22.2104 11.6204 22.6016 10.9102 22.8179ZM10.1534 30.9375H9.30317C8.98005 30.9375 8.70811 30.7166 8.62867 30.4181H10.8279C10.7484 30.7166 10.4765 30.9375 10.1534 30.9375ZM30.7269 27.1341C30.7269 27.4889 30.4383 27.7775 30.0835 27.7775H12.6648V27.6641C12.6648 27.4044 12.7828 27.1969 13.0059 27.0639C13.0861 27.0158 13.1652 26.966 13.2431 26.9144H26.6275C26.7601 26.9144 26.8873 26.8618 26.981 26.768L29.7174 24.0316C29.7638 23.9852 29.8006 23.9301 29.8257 23.8694C29.8509 23.8087 29.8638 23.7437 29.8638 23.6781V4.89913C29.8638 4.76652 29.8111 4.63934 29.7174 4.54558C29.6236 4.45181 29.4964 4.39913 29.3638 4.39913H24.9297L25.1162 3.53607H30.0835C30.4383 3.53607 30.7269 3.82463 30.7269 4.17938V27.1341ZM27.065 21.9037C27.065 22.0363 27.0123 22.1635 26.9185 22.2572C26.8248 22.351 26.6976 22.4037 26.565 22.4037H19.5962C19.4636 22.4037 19.3364 22.351 19.2426 22.2572C19.1489 22.1635 19.0962 22.0363 19.0962 21.9037C19.0962 21.7711 19.1489 21.6439 19.2426 21.5501C19.3364 21.4564 19.4636 21.4037 19.5962 21.4037H26.565C26.6976 21.4037 26.8248 21.4564 26.9185 21.5501C27.0123 21.6439 27.065 21.7711 27.065 21.9037ZM23.5806 23.8632C23.5806 23.9958 23.5279 24.123 23.4342 24.2167C23.3404 24.3105 23.2132 24.3632 23.0806 24.3632H19.5962C19.4636 24.3632 19.3364 24.3105 19.2426 24.2167C19.1489 24.123 19.0962 23.9958 19.0962 23.8632C19.0962 23.7306 19.1489 23.6034 19.2426 23.5096C19.3364 23.4159 19.4636 23.3632 19.5962 23.3632H23.0806C23.2132 23.3632 23.3404 23.4159 23.4342 23.5096C23.5279 23.6034 23.5806 23.7306 23.5806 23.8632ZM19.0962 19.3946C19.0962 19.262 19.1489 19.1348 19.2426 19.0411C19.3364 18.9473 19.4636 18.8946 19.5962 18.8946H24.234C24.3667 18.8946 24.4938 18.9473 24.5876 19.0411C24.6814 19.1348 24.734 19.262 24.734 19.3946C24.734 19.5272 24.6814 19.6544 24.5876 19.7482C24.4938 19.842 24.3667 19.8946 24.234 19.8946H19.5962C19.4636 19.8946 19.3364 19.842 19.2426 19.7482C19.1489 19.6544 19.0962 19.5272 19.0962 19.3946ZM27.065 17.4351C27.065 17.5677 27.0123 17.6949 26.9185 17.7887C26.8248 17.8825 26.6976 17.9351 26.565 17.9351H19.5962C19.4636 17.9351 19.3364 17.8825 19.2426 17.7887C19.1489 17.6949 19.0962 17.5677 19.0962 17.4351C19.0962 17.3025 19.1489 17.1753 19.2426 17.0816C19.3364 16.9878 19.4636 16.9351 19.5962 16.9351H26.565C26.6976 16.9351 26.8248 16.9878 26.9185 17.0816C27.0123 17.1753 27.065 17.3025 27.065 17.4351ZM19.0962 14.9261C19.0962 14.7935 19.1489 14.6663 19.2426 14.5725C19.3364 14.4787 19.4636 14.4261 19.5962 14.4261H24.234C24.3667 14.4261 24.4938 14.4787 24.5876 14.5725C24.6814 14.6663 24.734 14.7935 24.734 14.9261C24.734 15.0587 24.6814 15.1859 24.5876 15.2796C24.4938 15.3734 24.3667 15.4261 24.234 15.4261H19.5962C19.4636 15.4261 19.3364 15.3734 19.2426 15.2796C19.1489 15.1859 19.0962 15.0587 19.0962 14.9261ZM27.065 12.9666C27.065 13.0992 27.0123 13.2264 26.9185 13.3201C26.8248 13.4139 26.6976 13.4666 26.565 13.4666H19.5962C19.4636 13.4666 19.3364 13.4139 19.2426 13.3201C19.1489 13.2264 19.0962 13.0992 19.0962 12.9666C19.0962 12.834 19.1489 12.7068 19.2426 12.613C19.3364 12.5192 19.4636 12.4666 19.5962 12.4666H26.565C26.6976 12.4666 26.8248 12.5192 26.9185 12.613C27.0123 12.7068 27.065 12.834 27.065 12.9666ZM26.565 7.998C26.6976 7.998 26.8248 8.05068 26.9185 8.14445C27.0123 8.23822 27.065 8.3654 27.065 8.498C27.065 8.63061 27.0123 8.75779 26.9185 8.85156C26.8248 8.94533 26.6976 8.99801 26.565 8.99801H19.5962C19.4636 8.99801 19.3364 8.94533 19.2426 8.85156C19.1489 8.75779 19.0962 8.63061 19.0962 8.498C19.0962 8.3654 19.1489 8.23822 19.2426 8.14445C19.3364 8.05068 19.4636 7.998 19.5962 7.998H26.565ZM19.0962 10.4574C19.0962 10.3248 19.1489 10.1977 19.2426 10.1039C19.3364 10.0101 19.4636 9.95744 19.5962 9.95744H24.234C24.3667 9.95744 24.4938 10.0101 24.5876 10.1039C24.6814 10.1977 24.734 10.3248 24.734 10.4574C24.734 10.5901 24.6814 10.7172 24.5876 10.811C24.4938 10.9048 24.3667 10.9574 24.234 10.9574H19.5962C19.4636 10.9574 19.3364 10.9048 19.2426 10.811C19.1489 10.7172 19.0962 10.5901 19.0962 10.4574ZM17.6284 12.6559C17.7226 12.7493 17.7759 12.8762 17.7765 13.0088C17.7772 13.1414 17.7251 13.2688 17.6318 13.363L15.7789 15.2333C15.7325 15.2803 15.6772 15.3176 15.6162 15.343C15.5552 15.3684 15.4897 15.3815 15.4237 15.3814C15.2933 15.3815 15.168 15.3306 15.0747 15.2394L14.0411 14.2319C13.9941 14.1861 13.9566 14.1315 13.9307 14.0711C13.9047 14.0108 13.891 13.946 13.8901 13.8803C13.8893 13.8147 13.9014 13.7495 13.9257 13.6885C13.9501 13.6275 13.9862 13.572 14.032 13.5249C14.0779 13.4779 14.1325 13.4404 14.1928 13.4145C14.2532 13.3886 14.318 13.3748 14.3837 13.374C14.4493 13.3731 14.5145 13.3852 14.5755 13.4096C14.6364 13.4339 14.692 13.47 14.739 13.5159L15.4174 14.1772L16.9212 12.6593C16.9674 12.6126 17.0224 12.5755 17.083 12.5501C17.1435 12.5247 17.2085 12.5114 17.2741 12.5111C17.3398 12.5108 17.4049 12.5234 17.4657 12.5483C17.5265 12.5731 17.5818 12.6097 17.6284 12.6559ZM17.6284 8.18738C17.7226 8.2807 17.7759 8.40761 17.7765 8.54021C17.7772 8.67281 17.7251 8.80023 17.6318 8.89444L15.7789 10.7647C15.7325 10.8117 15.6772 10.849 15.6162 10.8744C15.5552 10.8998 15.4897 10.9129 15.4237 10.9128C15.2933 10.913 15.168 10.862 15.0747 10.7709L14.0411 9.76338C13.948 9.67043 13.8952 9.54451 13.8943 9.41292C13.8934 9.28133 13.9444 9.15469 14.0362 9.06045C14.1281 8.96622 14.2534 8.91199 14.3849 8.90953C14.5165 8.90707 14.6437 8.95658 14.739 9.04732L15.4174 9.70863L16.9212 8.19069C16.9674 8.14403 17.0224 8.10693 17.083 8.08152C17.1435 8.0561 17.2085 8.04285 17.2741 8.04255C17.3398 8.04224 17.4049 8.05487 17.4657 8.07972C17.5265 8.10457 17.5818 8.14116 17.6284 8.18738ZM4.81692 13.9989C4.75062 13.8841 4.73265 13.7476 4.76697 13.6195C4.80129 13.4915 4.88509 13.3822 4.99992 13.3159C5.05678 13.2831 5.11955 13.2618 5.18465 13.2532C5.24975 13.2446 5.3159 13.249 5.37933 13.266C5.44275 13.283 5.50221 13.3123 5.5543 13.3523C5.60639 13.3922 5.6501 13.4421 5.68292 13.4989L6.44948 14.8266C6.49336 14.9025 6.51648 14.9887 6.51651 15.0765C6.51654 15.1642 6.49348 15.2504 6.44966 15.3264C6.40583 15.4024 6.34278 15.4655 6.26683 15.5095C6.19089 15.5534 6.10472 15.5765 6.01698 15.5766C5.92912 15.5767 5.84279 15.5537 5.76668 15.5098C5.69058 15.4659 5.62739 15.4027 5.58348 15.3266L4.81692 13.9989ZM1.53842 16.7774C1.57125 16.7205 1.61497 16.6707 1.66706 16.6307C1.71916 16.5907 1.77862 16.5614 1.84205 16.5444C1.90548 16.5274 1.97163 16.5231 2.03674 16.5317C2.10184 16.5402 2.16462 16.5615 2.22148 16.5944L3.54911 17.3609C3.60643 17.3935 3.65674 17.4371 3.69714 17.4892C3.73754 17.5413 3.76724 17.6009 3.78451 17.6645C3.80179 17.7282 3.80631 17.7946 3.79781 17.86C3.78931 17.9254 3.76796 17.9884 3.73499 18.0455C3.70202 18.1026 3.65808 18.1527 3.6057 18.1927C3.55332 18.2328 3.49353 18.2621 3.42978 18.2789C3.36603 18.2958 3.29958 18.2999 3.23425 18.2909C3.16891 18.282 3.10599 18.2602 3.04911 18.2269L1.72148 17.4604C1.66462 17.4276 1.61477 17.3838 1.5748 17.3318C1.53482 17.2797 1.5055 17.2202 1.4885 17.1568C1.4715 17.0934 1.46716 17.0272 1.47573 16.9621C1.48429 16.897 1.5056 16.8342 1.53842 16.7774ZM2.30455 22.0058H0.771484C0.638876 22.0058 0.511699 21.9531 0.417931 21.8594C0.324163 21.7656 0.271484 21.6384 0.271484 21.5058C0.271484 21.3732 0.324163 21.246 0.417931 21.1523C0.511699 21.0585 0.638876 21.0058 0.771484 21.0058H2.30448C2.37015 21.0058 2.43516 21.0187 2.49583 21.0439C2.55649 21.069 2.61161 21.1058 2.65805 21.1522C2.70448 21.1987 2.74131 21.2538 2.76644 21.3144C2.79157 21.3751 2.80451 21.4401 2.80452 21.5058C2.80452 21.5714 2.79159 21.6365 2.76647 21.6971C2.74134 21.7578 2.70452 21.8129 2.65809 21.8594C2.61166 21.9058 2.55655 21.9426 2.49589 21.9677C2.43523 21.9929 2.37021 22.0058 2.30455 22.0058ZM3.73211 24.9677C3.79841 25.0825 3.81638 25.219 3.78206 25.3471C3.74774 25.4752 3.66395 25.5844 3.54911 25.6507L2.22148 26.4172C2.16463 26.45 2.10185 26.4714 2.03675 26.48C1.97165 26.4885 1.90549 26.4842 1.84206 26.4672C1.77864 26.4502 1.71918 26.4209 1.66709 26.3809C1.615 26.3409 1.5713 26.2911 1.53848 26.2342C1.47218 26.1194 1.45422 25.9829 1.48853 25.8548C1.52285 25.7267 1.60665 25.6175 1.72148 25.5512L3.04911 24.7847C3.10597 24.7519 3.16874 24.7305 3.23384 24.722C3.29894 24.7134 3.36509 24.7177 3.42852 24.7347C3.49194 24.7517 3.5514 24.781 3.60349 24.821C3.65558 24.861 3.69928 24.9108 3.73211 24.9677Z" fill="#2A3FCC"/>
</g>
<defs>
<clipPath id="clip0_153_313">
<rect width="32" height="32" fill="white"/>
</clipPath>
</defs>
</svg>
