<svg width="35" height="34" viewBox="0 0 35 34" fill="none" xmlns="http://www.w3.org/2000/svg">
<path d="M5.57245 5.19847C4.02935 7.08777 3.1084 9.47696 3.1084 12.0751H14.509V23.1509C17.1888 23.1509 19.6529 22.2524 21.599 20.7488" stroke="#2A3FCC" stroke-width="1.2" stroke-miterlimit="10" stroke-linecap="round" stroke-linejoin="round"/>
<path d="M6.92578 3.80591C8.94031 2.06046 11.5975 1.00003 14.5091 1.00003C20.8057 1.00003 25.9098 5.95901 25.9098 12.0752C25.9098 12.8589 25.826 13.6239 25.6661 14.3618" stroke="#2A3FCC" stroke-width="1.2" stroke-miterlimit="10" stroke-linecap="round" stroke-linejoin="round"/>
<path d="M18.8255 27.0023H15.5275C14.9692 27.0023 14.5166 27.4419 14.5166 27.9842V33H19.8363V27.9842C19.8363 27.4419 19.3837 27.0023 18.8255 27.0023Z" stroke="#2A3FCC" stroke-width="1.2" stroke-miterlimit="10" stroke-linecap="round" stroke-linejoin="round"/>
<path d="M26.9177 29.3678V32.9999H21.5986V15.3435C21.5986 14.8011 22.0507 14.3618 22.6092 14.3618H25.9072C26.4656 14.3618 26.9177 14.8011 26.9177 15.3435V27.4327" stroke="#2A3FCC" stroke-width="1.2" stroke-miterlimit="10" stroke-linecap="round" stroke-linejoin="round"/>
<path d="M32.9895 21.6835H29.6915C29.1332 21.6835 28.6807 22.1232 28.6807 22.6655V33H34.0004V22.6655C34.0004 22.1232 33.5477 21.6835 32.9895 21.6835Z" stroke="#2A3FCC" stroke-width="1.2" stroke-miterlimit="10" stroke-linecap="round" stroke-linejoin="round"/>
<path d="M12.4006 25.1987V14.1229H1C1 20.2397 6.10405 25.1987 12.4006 25.1987Z" stroke="#2A3FCC" stroke-width="1.2" stroke-miterlimit="10" stroke-linecap="round" stroke-linejoin="round"/>
<path d="M9.95114 22.9279L7.3531 28.4005H1.67676" stroke="#2A3FCC" stroke-width="1.2" stroke-miterlimit="10" stroke-linecap="round" stroke-linejoin="round"/>
<path d="M1.67676 26.3177H5.81398" stroke="#2A3FCC" stroke-width="1.2" stroke-miterlimit="10" stroke-linecap="round" stroke-linejoin="round"/>
<path d="M21.4795 9.29211L24.7842 3.57122H31.8116" stroke="#2A3FCC" stroke-width="1.2" stroke-miterlimit="10" stroke-linecap="round" stroke-linejoin="round"/>
<path d="M31.8115 1.64496H26.9053" stroke="#2A3FCC" stroke-width="1.2" stroke-miterlimit="10" stroke-linecap="round" stroke-linejoin="round"/>
<path d="M33.0038 11.8686H29.3857" stroke="#2A3FCC" stroke-width="1.2" stroke-miterlimit="10" stroke-linecap="round" stroke-linejoin="round"/>
<path d="M33.0038 13.9536H29.3857" stroke="#2A3FCC" stroke-width="1.2" stroke-miterlimit="10" stroke-linecap="round" stroke-linejoin="round"/>
<path d="M33.0038 16.0386H29.3857" stroke="#2A3FCC" stroke-width="1.2" stroke-miterlimit="10" stroke-linecap="round" stroke-linejoin="round"/>
</svg>
