<svg width="443" height="398" viewBox="0 0 443 398" fill="none" xmlns="http://www.w3.org/2000/svg">
<path d="M11.8166 244.393C11.7584 244.331 11.7061 244.259 11.6524 244.19C11.4866 243.983 11.3284 243.765 11.2059 243.505C11.2029 243.499 11.2014 243.493 11.1985 243.489C11.0536 243.178 10.9401 242.83 10.861 242.446C10.8595 242.436 10.8565 242.424 10.855 242.413C10.7774 242.024 10.7341 241.601 10.7341 241.143L10.5206 166.141L6.59961 163.879L6.81312 238.881C6.81312 238.887 6.81312 238.891 6.81312 238.897C6.81312 238.993 6.81611 239.088 6.82059 239.181C6.82507 239.275 6.83104 239.367 6.83851 239.459C6.84597 239.554 6.85643 239.65 6.86837 239.742C6.88032 239.838 6.89525 239.932 6.91018 240.024C6.91765 240.068 6.9266 240.108 6.93556 240.15C6.93855 240.162 6.94004 240.172 6.94302 240.184C6.95198 240.228 6.95945 240.271 6.9684 240.313C6.9923 240.416 7.01917 240.516 7.04754 240.614C7.0789 240.722 7.11324 240.825 7.15206 240.925C7.19088 241.029 7.23418 241.128 7.28047 241.225C7.28346 241.231 7.28496 241.237 7.28794 241.241C7.29093 241.247 7.29242 241.255 7.2954 241.261C7.36409 241.404 7.43875 241.539 7.51938 241.664C7.58209 241.762 7.66271 241.839 7.73289 241.927C7.78814 241.995 7.8389 242.067 7.89863 242.13C8.09572 242.337 8.30776 242.522 8.54815 242.661L12.4691 244.923C12.2242 244.786 12.0122 244.601 11.8166 244.393Z" fill="#209AEE"/>
<path d="M121.531 95.8847C121.911 95.7578 122.275 95.6801 122.624 95.6488C122.632 95.6488 122.641 95.6473 122.648 95.6473C122.998 95.6174 123.331 95.6353 123.643 95.6981C123.647 95.6996 123.652 95.701 123.656 95.7025C123.968 95.7667 124.259 95.8757 124.525 96.0295L120.604 93.7674H120.603C120.45 93.6793 120.292 93.6062 120.125 93.5479C119.999 93.5031 119.869 93.4688 119.737 93.4419C119.731 93.4404 119.726 93.4389 119.722 93.4374C119.719 93.4359 119.714 93.436 119.711 93.4345C119.601 93.4121 119.487 93.3956 119.371 93.3852C119.271 93.3762 119.169 93.3717 119.065 93.3703C118.974 93.3703 118.881 93.3732 118.787 93.3792C118.768 93.3807 118.748 93.3837 118.729 93.3852C118.72 93.3867 118.712 93.3867 118.703 93.3882C118.644 93.3941 118.585 93.3986 118.526 93.4061C118.441 93.4165 118.354 93.4315 118.267 93.4479C118.188 93.4628 118.108 93.4807 118.025 93.5016C117.945 93.5211 117.864 93.5435 117.782 93.5688C117.725 93.5853 117.669 93.6047 117.613 93.6241C117.607 93.6256 117.601 93.6286 117.597 93.6301C117.58 93.636 117.564 93.6405 117.548 93.6465C117.469 93.6734 117.389 93.7032 117.31 93.7361C117.233 93.7674 117.153 93.8003 117.074 93.8346C116.995 93.8705 116.916 93.9063 116.835 93.9466C116.756 93.9854 116.676 94.0272 116.595 94.0705C116.532 94.1034 116.471 94.1392 116.408 94.1751L12.4951 153.729L16.4146 155.991L120.328 96.4357C120.735 96.2027 121.133 96.0221 121.518 95.8922C121.521 95.8877 121.525 95.8862 121.531 95.8847Z" fill="#70DEEE"/>
<path d="M12.2556 160.339C12.5154 159.895 12.7961 159.464 13.0993 159.053C13.1037 159.047 13.1082 159.041 13.1112 159.035C13.4218 158.617 13.7532 158.219 14.1026 157.848C14.1086 157.842 14.1146 157.836 14.1206 157.83C14.8253 157.087 15.5988 156.454 16.411 155.988L12.4916 153.726C11.9421 154.041 11.421 154.453 10.9178 154.902L10.8969 154.89C10.8103 154.968 10.7237 155.049 10.6371 155.129C10.5535 155.21 10.4698 155.291 10.3877 155.374C10.325 155.438 10.2623 155.504 10.1996 155.57C10.1936 155.576 10.1891 155.58 10.1832 155.586C10.1712 155.6 10.1578 155.612 10.1458 155.625C10.0682 155.707 9.99205 155.792 9.91739 155.877C9.84124 155.964 9.76509 156.052 9.68894 156.142C9.6113 156.234 9.53515 156.327 9.46049 156.422C9.3709 156.534 9.2843 156.648 9.19919 156.764C9.1962 156.767 9.19471 156.772 9.19173 156.775C9.18725 156.781 9.18426 156.787 9.17978 156.793C9.05883 156.955 8.94087 157.121 8.8274 157.29C8.6751 157.515 8.53026 157.745 8.3914 157.98C8.37199 158.013 8.35556 158.045 8.33615 158.078C8.32122 158.105 8.30629 158.131 8.29136 158.157C8.22417 158.274 8.15698 158.389 8.09427 158.507C8.03007 158.625 7.96885 158.744 7.90912 158.864C7.85686 158.967 7.80758 159.07 7.75831 159.173L7.77324 159.18C7.0416 160.73 6.59516 162.371 6.59964 163.882L10.5206 166.144C10.5146 164.296 11.1641 162.246 12.2138 160.419C12.2258 160.391 12.2407 160.364 12.2556 160.339Z" fill="#209AEE"/>
<path d="M16.411 155.988C13.144 157.86 10.5072 162.414 10.5176 166.141L10.7311 241.143C10.7416 244.87 13.3964 246.391 16.6633 244.519L120.577 184.965C123.844 183.093 126.48 178.539 126.47 174.812L126.256 99.8101C126.246 96.0833 123.591 94.5617 120.324 96.4341L16.411 155.988Z" fill="#70B8EE"/>
<path d="M100.107 170.129L100.131 178.394L115.242 169.734L115.218 161.469L100.107 170.129Z" fill="#FFFDFF"/>
<path d="M71.0029 186.809L71.0268 195.074L83.1899 188.102L83.1675 179.838L71.0029 186.809Z" fill="#FFFDFF"/>
<path d="M10.541 177.883L10.6037 200.022L126.343 133.689L126.28 111.551L10.541 177.883Z" fill="#272B36"/>
<path d="M85.2979 178.616L85.3202 186.881L97.4848 179.909L97.4609 171.646L85.2979 178.616Z" fill="#FFFDFF"/>
<path d="M30.1388 208.646C29.0384 209.278 28.1708 210.789 28.1738 212.024L28.1918 218.201C28.1947 219.457 29.0682 219.97 30.1687 219.34L40.7699 213.265C41.8524 212.643 42.7379 211.122 42.7349 209.866L42.717 203.689C42.714 202.454 41.8226 201.95 40.7401 202.571L30.1388 208.646Z" fill="#F9FF2F"/>
<path d="M431.317 250.342C436.073 253.088 436.098 257.533 431.372 260.279L199.379 395.099C194.665 397.839 186.98 397.845 182.223 395.099L27.5701 305.811C22.8249 303.071 22.81 298.62 27.5253 295.88L259.518 161.06C264.244 158.314 271.917 158.314 276.664 161.054L431.317 250.342Z" fill="#2A3FCC"/>
<path d="M428.231 225.443L428.171 239.161C428.122 239.191 428.073 239.22 428.023 239.25L428.083 225.531C428.132 225.502 428.182 225.472 428.231 225.443Z" fill="#B1B1B8"/>
<mask id="mask0_152_21" style="mask-type:luminance" maskUnits="userSpaceOnUse" x="20" y="266" width="5" height="19">
<path d="M20.6514 279.787L20.7111 266.068C20.7066 267.875 21.8952 269.684 24.2812 271.062L24.2215 284.781C21.8354 283.403 20.6454 281.593 20.6514 279.787Z" fill="white"/>
</mask>
<g mask="url(#mask0_152_21)">
<path d="M24.2812 271.062L24.2215 284.781C21.8354 283.405 20.6469 281.595 20.6514 279.787L20.7111 266.068C20.7066 267.876 21.8952 269.684 24.2812 271.062Z" fill="#808085"/>
</g>
<path d="M431.581 220.954C431.569 221.08 431.561 221.207 431.538 221.332C431.518 221.436 431.487 221.54 431.46 221.643C431.429 221.763 431.399 221.884 431.355 222.005C431.321 222.104 431.273 222.201 431.231 222.299C431.176 222.426 431.121 222.553 431.054 222.679C431.004 222.768 430.946 222.858 430.892 222.946C430.804 223.089 430.712 223.231 430.607 223.37C430.546 223.452 430.479 223.533 430.412 223.613C430.256 223.802 430.083 223.985 429.897 224.167C429.829 224.233 429.767 224.3 429.695 224.365C429.579 224.471 429.447 224.572 429.32 224.675C429.21 224.765 429.102 224.854 428.983 224.941C428.845 225.041 428.693 225.136 428.544 225.234C428.391 225.332 428.248 225.434 428.084 225.529L196.091 360.349L196.031 374.068L428.024 239.248C428.076 239.217 428.121 239.184 428.172 239.153V239.16C428.282 239.093 428.378 239.021 428.483 238.952C428.632 238.855 428.784 238.76 428.922 238.66C429.041 238.573 429.149 238.482 429.26 238.393C429.387 238.291 429.517 238.189 429.634 238.083C429.658 238.063 429.686 238.042 429.71 238.021C429.758 237.976 429.791 237.93 429.837 237.885C430.023 237.704 430.195 237.521 430.35 237.332C430.385 237.291 430.431 237.253 430.464 237.211C430.495 237.171 430.516 237.129 430.546 237.089C430.651 236.949 430.745 236.807 430.833 236.663C430.87 236.604 430.918 236.547 430.952 236.487C430.969 236.457 430.979 236.428 430.994 236.398C431.061 236.272 431.116 236.145 431.172 236.018C431.203 235.945 431.246 235.874 431.275 235.799C431.284 235.774 431.287 235.75 431.296 235.724C431.339 235.605 431.367 235.484 431.4 235.361C431.421 235.279 431.454 235.199 431.47 235.117C431.475 235.094 431.473 235.073 431.478 235.051C431.502 234.925 431.509 234.799 431.521 234.672C431.529 234.588 431.548 234.504 431.549 234.421C431.551 234.385 431.551 234.349 431.551 234.315L431.611 220.596C431.611 220.717 431.591 220.835 431.581 220.954Z" fill="black"/>
<path d="M196.09 360.35L196.03 374.069C191.315 376.809 183.631 376.815 178.874 374.069L178.934 360.35C183.689 363.096 191.375 363.09 196.09 360.35Z" fill="#BEBEC5"/>
<path d="M193.433 361.518C192.696 361.757 191.926 361.946 191.135 362.09C190.625 362.181 190.107 362.254 189.586 362.306C189.14 362.351 188.69 362.381 188.239 362.396L188.18 376.115C188.631 376.1 189.08 376.07 189.526 376.025C190.049 375.973 190.567 375.901 191.076 375.809C191.868 375.665 192.638 375.476 193.373 375.237C194.325 374.928 195.221 374.54 196.029 374.069L196.089 360.35C195.28 360.821 194.385 361.209 193.433 361.518Z" fill="#2E2E2E"/>
<path d="M186.996 362.402C186.596 362.391 186.197 362.371 185.8 362.338C185.405 362.305 185.01 362.262 184.621 362.206C184.216 362.148 183.814 362.079 183.419 361.997C182.99 361.908 182.568 361.805 182.154 361.687C181.648 361.542 181.157 361.376 180.682 361.189C180.067 360.946 179.48 360.667 178.933 360.35L24.2804 271.062L24.2207 284.781L178.874 374.069C179.422 374.386 180.007 374.665 180.622 374.908C181.097 375.095 181.588 375.261 182.094 375.406C182.508 375.524 182.931 375.627 183.359 375.716C183.755 375.798 184.156 375.868 184.561 375.925C184.951 375.98 185.345 376.024 185.741 376.057C186.138 376.089 186.536 376.11 186.937 376.121C187.352 376.131 187.767 376.13 188.18 376.115L188.24 362.396C187.827 362.409 187.411 362.412 186.996 362.402Z" fill="black"/>
<path d="M428.027 215.594C432.784 218.34 432.808 222.785 428.082 225.531L196.089 360.35C191.374 363.09 183.69 363.096 178.933 360.35L24.2801 271.062C19.5349 268.322 19.52 263.871 24.2353 261.132L256.228 126.312C260.954 123.566 268.627 123.566 273.372 126.306L428.027 215.594Z" fill="#F6F6FF"/>
<path d="M141.186 307.641C144.227 309.397 144.244 312.271 141.222 314.027C138.2 315.783 133.238 315.783 130.196 314.027L105.618 299.837C102.576 298.081 102.56 295.206 105.582 293.45C108.604 291.694 113.566 291.694 116.607 293.45L141.186 307.641Z" fill="#ACAAA5"/>
<path d="M228.893 320.746L209.352 332.102L69.2471 251.211L88.7862 239.856L228.893 320.746Z" fill="#49758A"/>
<path d="M391.297 226.365L371.758 237.721L231.651 156.83L251.192 145.475L391.297 226.365Z" fill="#49758A"/>
<path d="M251.193 145.475L231.652 156.83L371.759 237.721L228.893 320.746L88.7862 239.856L69.2471 251.211L209.352 332.102L69.2471 251.211L251.193 145.475Z" fill="#36CCFF"/>
<path d="M353.438 154.883L359.265 151.498L369.116 145.475L363.29 148.861L353.438 154.883Z" fill="#2E4752"/>
<path d="M411.136 132.984C411.101 132.716 411.053 132.445 410.997 132.172C410.949 131.948 410.894 131.724 410.833 131.5C410.777 131.302 410.716 131.102 410.65 130.903L404.824 134.289C404.89 134.488 404.951 134.688 405.006 134.887C405.069 135.111 405.123 135.335 405.171 135.559C405.229 135.83 405.275 136.102 405.309 136.371C405.36 136.758 405.386 137.141 405.384 137.515L405.302 166.372C405.296 168.218 404.643 169.517 403.591 170.129L409.419 166.743C409.944 166.437 410.371 165.959 410.667 165.327C410.962 164.696 411.127 163.909 411.13 162.986L411.212 134.128C411.212 133.753 411.186 133.371 411.136 132.984Z" fill="#FFDC27"/>
<path d="M410.45 130.349C410.383 130.173 410.311 129.998 410.235 129.824C410.162 129.653 410.083 129.483 410.002 129.314C409.922 129.147 409.836 128.98 409.75 128.816C409.662 128.65 409.569 128.484 409.475 128.321C409.377 128.154 409.277 127.988 409.172 127.826C409.061 127.654 408.95 127.485 408.833 127.318C408.706 127.137 408.576 126.961 408.442 126.788C408.288 126.589 408.13 126.397 407.966 126.209C407.759 125.971 407.546 125.743 407.325 125.526C406.732 124.942 406.095 124.444 405.43 124.053L405.442 124.045L342.317 87.6066C342.039 87.4469 341.766 87.311 341.499 87.199C341.409 87.1617 341.325 87.1408 341.237 87.1094C341.169 87.084 341.1 87.0601 341.031 87.0392C340.958 87.0153 340.882 86.9825 340.809 86.9631C340.634 86.9153 340.462 86.8795 340.294 86.8526C340.217 86.8406 340.144 86.8377 340.071 86.8302C340.043 86.8272 340.013 86.8242 339.985 86.8212C339.943 86.8183 339.898 86.8108 339.856 86.8093C339.725 86.8033 339.595 86.8048 339.468 86.8123C339.347 86.8198 339.229 86.8332 339.114 86.8541C339.089 86.8586 339.066 86.866 339.042 86.8705C339.026 86.8735 339.011 86.878 338.995 86.881C338.924 86.8959 338.853 86.9093 338.786 86.9288C338.68 86.9601 338.577 86.9959 338.475 87.0378C338.373 87.0796 338.275 87.1288 338.181 87.1811C338.17 87.1871 338.16 87.193 338.148 87.199L332.32 90.5854C332.579 90.4346 332.864 90.3301 333.165 90.2659C333.182 90.2629 333.197 90.2584 333.213 90.2555C333.509 90.1972 333.825 90.1823 334.155 90.2077C334.184 90.2092 334.212 90.2136 334.242 90.2166C334.55 90.2465 334.872 90.3197 335.204 90.4257C335.271 90.4466 335.339 90.4705 335.408 90.4958C335.759 90.6228 336.119 90.7796 336.489 90.9931L399.556 127.39L399.543 127.397C400.228 127.793 400.887 128.309 401.497 128.911C401.717 129.128 401.93 129.356 402.138 129.594C402.301 129.78 402.46 129.974 402.614 130.173C402.749 130.346 402.878 130.522 403.005 130.703C403.122 130.869 403.235 131.039 403.346 131.209C403.45 131.372 403.55 131.538 403.649 131.706C403.744 131.869 403.836 132.033 403.924 132.201C404.012 132.365 404.095 132.532 404.176 132.699C404.258 132.868 404.336 133.038 404.409 133.208C404.485 133.383 404.557 133.558 404.624 133.734C404.694 133.918 404.761 134.103 404.822 134.288L410.649 130.902C410.588 130.718 410.522 130.534 410.45 130.349Z" fill="#FFF865"/>
<path d="M336.489 90.9946C333.256 89.1282 330.621 90.6288 330.611 94.3437L330.528 123.2C330.518 126.915 333.135 131.45 336.368 133.316L353.47 143.19L353.438 154.881L363.289 148.858L399.422 169.719C402.654 171.585 405.29 170.085 405.3 166.37L405.382 137.512C405.393 133.797 402.775 129.262 399.543 127.396L336.489 90.9946Z" fill="#FFA000"/>
<path d="M355.303 125.323C355.889 126.406 356.18 127.499 356.177 128.625C356.171 130.606 355.52 131.696 354.245 131.907C352.949 132.127 351.105 131.538 348.714 130.157C348.401 129.976 348.068 129.761 347.655 129.501C347.264 129.252 346.852 128.992 346.421 128.675C345.989 128.359 345.579 128.054 345.147 127.715C344.736 127.388 344.344 127.027 344.012 126.676C343.054 125.716 342.565 124.69 342.568 123.655L342.609 109.627C342.61 109.223 342.709 108.941 342.925 108.841C343.122 108.729 343.397 108.706 343.749 108.752C344.338 108.867 345.083 109.117 345.965 109.512C346.848 109.91 347.769 110.396 348.71 110.938C350.943 112.228 352.647 113.641 353.859 115.197C355.052 116.742 355.656 118.422 355.651 120.223C355.648 121.123 355.411 121.776 354.958 122.168C354.506 122.561 353.897 122.683 353.132 122.534C353.994 123.305 354.718 124.241 355.303 125.323ZM350.804 126.831C351.257 126.754 351.493 126.371 351.494 125.674C351.496 125.022 351.302 124.435 350.93 123.95C350.539 123.43 349.952 122.957 349.168 122.504L347.031 121.271L347.021 124.941C347.255 125.144 347.569 125.393 347.962 125.641C348.333 125.879 348.707 126.116 349.059 126.321C349.746 126.715 350.334 126.897 350.804 126.831ZM347.052 114.065L347.042 117.601L348.943 118.698C349.688 119.128 350.236 119.288 350.589 119.176C350.924 119.054 351.102 118.682 351.103 118.052C351.105 117.511 350.91 116.971 350.519 116.429C350.128 115.887 349.541 115.391 348.757 114.938C348.483 114.78 348.189 114.61 347.856 114.441C347.503 114.258 347.249 114.134 347.052 114.065Z" fill="#FFFDFF"/>
<path d="M370.363 123.666C370.775 123.903 371.127 124.153 371.42 124.39C371.734 124.638 371.987 124.92 372.202 125.225C372.398 125.517 372.553 125.856 372.671 126.24C372.768 126.612 372.827 127.073 372.825 127.591L372.8 136.846C372.797 137.927 372.617 138.793 372.301 139.513C371.965 140.22 371.513 140.704 370.903 140.983C370.275 141.252 369.548 141.328 368.665 141.156C367.802 140.997 366.821 140.611 365.724 139.977C364.626 139.344 363.627 138.587 362.766 137.751C361.885 136.904 361.161 135.99 360.556 135.009C359.93 134.016 359.482 133.013 359.151 131.921C358.84 130.839 358.687 129.78 358.689 128.701L358.722 117.217C358.899 117.296 359.212 117.41 359.624 117.58C360.056 117.761 360.447 117.943 360.84 118.168C361.231 118.395 361.585 118.643 361.897 118.891C362.191 119.128 362.445 119.41 362.66 119.715C362.875 120.02 363.032 120.357 363.129 120.73C363.226 121.102 363.284 121.564 363.282 122.082L363.257 131.245C363.254 132.19 363.487 133.092 363.936 133.892C364.405 134.705 364.992 135.314 365.737 135.744C366.482 136.174 367.07 136.243 367.542 135.974C367.995 135.693 368.213 135.053 368.214 134.107L368.247 122.715C368.443 122.806 368.756 122.919 369.168 123.09C369.579 123.258 369.99 123.451 370.363 123.666Z" fill="#FFFDFF"/>
<path d="M386.802 133.338C387.41 133.689 387.919 134.187 388.349 134.796C388.779 135.405 388.993 136.092 388.991 136.835C388.991 137.083 388.951 137.353 388.851 137.634C388.772 137.927 388.575 138.331 388.258 138.826C387.943 139.342 387.47 140.017 386.879 140.849C386.268 141.669 385.441 142.747 384.416 144.05L384.398 150.153C384.203 150.106 383.909 149.982 383.516 149.824C383.104 149.654 382.713 149.451 382.339 149.236C381.536 148.771 380.928 148.264 380.539 147.722C380.128 147.192 379.934 146.403 379.937 145.412L379.949 141.36C379.52 140.368 379.052 139.286 378.545 138.091C378.038 136.897 377.551 135.69 377.064 134.461C376.577 133.232 376.129 132.05 375.72 130.911C375.292 129.738 374.962 128.713 374.708 127.8C374.925 127.565 375.24 127.43 375.632 127.342C376.025 127.275 376.516 127.4 377.084 127.729C377.769 128.124 378.318 128.599 378.748 129.186C379.159 129.739 379.568 130.584 379.958 131.689L382.099 137.931L382.256 138.022C382.513 137.561 382.729 137.124 382.907 136.707C383.084 136.29 383.262 135.898 383.44 135.481C383.618 135.065 383.795 134.649 383.994 134.198C384.191 133.771 384.409 133.265 384.666 132.692C384.979 132.693 385.314 132.728 385.705 132.864C386.077 132.988 386.45 133.134 386.802 133.338Z" fill="#FFFDFF"/>
<g opacity="0.22">
<path d="M226.057 230.636L153.401 272.54L120.884 253.319L193.54 211.414L226.057 230.636Z" fill="#406EEE"/>
</g>
<path d="M162.423 119.319C166.817 116.783 170.506 116.365 173.391 118.068C180.395 122.201 180.294 137.265 180.285 137.909L179.135 138.55C179.146 138.39 179.247 123.385 172.582 119.458C169.914 117.89 166.502 118.289 162.426 120.642L161.666 121.081C157.589 123.435 154.186 126.972 151.547 131.603C144.916 143.207 145.102 158.045 145.113 158.193L143.973 158.874C143.961 158.242 143.764 143.35 150.722 131.157C153.588 126.136 157.268 122.297 161.661 119.76L162.423 119.319Z" fill="#FFFDFF"/>
<path d="M149.96 174.167L210.22 139.148L209.967 227.957L149.709 262.976L149.96 174.167Z" fill="#E88626"/>
<path d="M131.021 163.233L191.28 128.214L197.862 135.302L210.22 139.148L149.96 174.167L144.266 167.058L131.021 163.233Z" fill="#AEA062"/>
<path d="M149.96 174.167L149.709 262.976L141.049 254.288L130.769 252.04L131.021 163.233L143.996 166.656L149.96 174.167Z" fill="#C6541C"/>
<path d="M210.221 139.148L197.862 135.302L191.28 128.214V150.156L210.221 139.148Z" fill="#9B7449"/>
<path d="M184.933 129.235C189.328 126.699 193.017 126.28 195.902 127.984C202.906 132.117 202.805 147.181 202.796 147.823L201.646 148.464C201.656 148.304 201.757 133.3 195.093 129.373C192.424 127.805 189.013 128.204 184.936 130.557L184.176 130.996C180.1 133.349 176.697 136.886 174.057 141.518C167.426 153.121 167.613 167.96 167.623 168.108L166.484 168.789C166.472 168.157 166.275 153.264 173.233 141.071C176.098 136.05 179.779 132.211 184.173 129.674L184.933 129.235Z" fill="#FFFDFF"/>
<g opacity="0.22">
<path d="M331.489 189.524L287.569 215.046L243.365 189.524L287.283 164.002L331.489 189.524Z" fill="#406EEE"/>
</g>
<path d="M328.316 136.523L328.283 184.934L288.105 208.282L288.138 159.872L328.316 136.523Z" fill="#C43605"/>
<path d="M328.316 136.523L328.283 149.245L288.105 172.593L288.138 159.872L328.316 136.523Z" fill="#BEBEC5"/>
<path d="M288.137 159.872L288.105 208.282L247.663 184.934L247.697 136.523L288.137 159.872Z" fill="#991E05"/>
<path d="M288.137 159.872L288.105 172.593L247.663 149.245L247.697 136.523L288.137 159.872Z" fill="#848489"/>
<path d="M328.316 136.523L288.138 159.871L247.698 136.523L287.876 113.175L328.316 136.523Z" fill="#F6F6FF"/>
<path d="M313.202 127.841L304.272 122.58L288.636 131.668L272.283 122.243L263.324 127.376L279.702 136.859L264.093 145.93L273.025 151.189L288.709 142.075L303.805 150.816L312.735 145.557L297.663 136.871L313.202 127.841Z" fill="#991E05"/>
<g opacity="0.22">
<path d="M282.935 272.614L239.016 298.137L194.812 272.615L238.729 247.093L282.935 272.614Z" fill="#406EEE"/>
</g>
<path d="M279.762 219.615L279.729 268.025L239.552 291.373L239.585 242.963L279.762 219.615Z" fill="#CCAC5F"/>
<path d="M270.249 243.312L270.234 254.711L251.478 265.611L251.492 254.212L270.249 243.312Z" fill="#FFFDFF"/>
<path d="M239.585 242.963L239.552 291.373L199.11 268.025L199.145 219.615L239.585 242.963Z" fill="#AF8842"/>
<path d="M279.763 219.615L239.586 242.963L199.146 219.615L239.323 196.267L279.763 219.615Z" fill="#E4C26D"/>
<path d="M264.648 210.932L224.47 234.28L215.539 229.022L255.718 205.672L264.648 210.932Z" fill="#FFFDFF"/>
<path d="M270.875 103.183L223.246 130.861L139.064 82.2598L186.694 54.5801L270.875 103.183Z" fill="#2A3FCC"/>
<path d="M271.412 81.7432L271.374 95.1784L223.743 122.858L223.782 109.423L271.412 81.7432Z" fill="#AAE335"/>
<path d="M223.782 109.423L223.743 122.858L139.562 74.2551L139.6 60.8214L223.782 109.423Z" fill="#7BB227"/>
<path d="M188.415 88.955L188.376 102.39L175.258 94.8454L175.295 81.4102L188.415 88.955Z" fill="#506446"/>
<path d="M271.412 81.7432L223.782 109.423L139.601 60.8214L187.23 33.1417L271.412 81.7432Z" fill="#CFFF71"/>
<path d="M237.096 85.7747C240.559 87.774 241.743 90.3347 239.747 91.4964C237.759 92.6506 233.334 91.9727 229.871 89.9749C226.419 87.9815 225.235 85.4193 227.221 84.2651C229.217 83.1035 233.644 83.7813 237.096 85.7747Z" fill="#FFFF99"/>
<path d="M180.139 52.8899C183.592 54.8832 184.776 57.4454 182.779 58.6056C180.792 59.7598 176.366 59.0819 172.914 57.0886C169.452 55.0892 168.268 52.5285 170.253 51.3728C172.25 50.2127 176.677 50.8906 180.139 52.8899Z" fill="#FFFF99"/>
<path d="M226.289 70.0456C226.308 63.3158 216.905 57.8338 205.287 57.8013C193.668 57.7687 184.235 63.198 184.216 69.9278C184.197 76.6577 193.6 82.1397 205.218 82.1722C216.837 82.2047 226.27 76.7755 226.289 70.0456Z" fill="#FFFF99"/>
<path d="M236.224 61.3932L188.432 89.1148L175.32 81.4281L223.013 53.7454L236.224 61.3932Z" fill="#637E4E"/>
<path d="M365.46 281.834L250.764 348.054L315.658 385.766L430.355 319.547L365.46 281.834Z" fill="#2A3FCC"/>
<path d="M183.853 279.136L183.863 275.204L197.622 267.207L197.61 271.14L183.853 279.136Z" fill="#FFFDFF"/>
<path d="M190.701 267.15L190.713 263.219L221.234 259.087L221.222 263.02L190.701 267.15Z" fill="#FFFDFF"/>
<path d="M221.223 263.02L214.201 280.718L207.281 276.723L193.522 284.718L183.853 279.136L197.61 271.14L190.702 267.15L221.223 263.02Z" fill="#C8C5C0"/>
<path d="M254.746 334.117L319.641 371.831L434.337 305.61L369.441 267.898L254.746 334.117Z" fill="#9CE251"/>
<path d="M301.497 339.609C296.78 342.333 295.166 345.824 297.887 347.403C300.594 348.976 306.625 348.053 311.343 345.329C316.046 342.613 317.66 339.122 314.953 337.55C312.233 335.97 306.201 336.893 301.497 339.609Z" fill="#FFFF99"/>
<path d="M379.101 294.805C374.397 297.521 372.783 301.01 375.504 302.591C378.211 304.165 384.241 303.241 388.945 300.525C393.662 297.801 395.276 294.31 392.569 292.738C389.85 291.157 383.817 292.081 379.101 294.805Z" fill="#FFFF99"/>
<path d="M324.667 306.372C313.43 312.86 313.37 323.362 324.536 329.85C335.687 336.33 353.833 336.338 365.07 329.85C376.294 323.37 376.352 312.852 365.201 306.372C354.036 299.884 335.891 299.892 324.667 306.372Z" fill="#FFFF99"/>
<path d="M271.394 12.2139L276.336 9.34108C281.492 6.34435 288.632 6.76691 296.513 11.3165L291.57 14.1893C283.69 9.63971 276.549 9.21714 271.394 12.2139Z" fill="#FFDC27"/>
<mask id="mask1_152_21" style="mask-type:luminance" maskUnits="userSpaceOnUse" x="271" y="7" width="26" height="8">
<path d="M271.394 12.2139L276.336 9.34108C281.492 6.34435 288.632 6.76691 296.513 11.3165L291.57 14.1893C283.69 9.63971 276.549 9.21714 271.394 12.2139Z" fill="white"/>
</mask>
<g mask="url(#mask1_152_21)">
<path d="M271.394 12.2139L276.336 9.34107C277.063 8.91851 277.829 8.56464 278.632 8.27945L273.69 11.1522C272.887 11.4374 272.121 11.7913 271.394 12.2139Z" fill="#FFDC27"/>
<path d="M273.689 11.1522L278.632 8.27944C279.269 8.05248 279.931 7.87031 280.613 7.73444L275.671 10.6072C274.988 10.7431 274.327 10.9253 273.689 11.1522Z" fill="#FFDC27"/>
<path d="M275.672 10.6072L280.614 7.73444C281.147 7.62843 281.691 7.54781 282.249 7.49704L277.307 10.3698C276.748 10.4206 276.203 10.4997 275.672 10.6072Z" fill="#FFDC27"/>
<path d="M277.305 10.3698L282.247 7.49702C282.728 7.45223 283.219 7.42984 283.716 7.42685L278.774 10.2996C278.277 10.3026 277.787 10.325 277.305 10.3698Z" fill="#FFDC27"/>
<path d="M278.775 10.2997L283.718 7.42687C284.155 7.42538 284.6 7.43881 285.05 7.47017L280.107 10.343C279.656 10.3131 279.213 10.2982 278.775 10.2997Z" fill="#FFDC27"/>
<path d="M280.107 10.3445L285.05 7.47168C285.465 7.50005 285.886 7.54335 286.311 7.60009L281.369 10.4729C280.944 10.4161 280.523 10.3728 280.107 10.3445Z" fill="#FFDC27"/>
<path d="M281.368 10.4729L286.31 7.6001C286.72 7.65534 287.133 7.72403 287.551 7.80466L282.609 10.6774C282.191 10.5953 281.777 10.5281 281.368 10.4729Z" fill="#FFDC27"/>
<path d="M282.609 10.6774L287.552 7.80466C287.935 7.87931 288.324 7.96591 288.713 8.06296L283.771 10.9358C283.381 10.8387 282.993 10.7521 282.609 10.6774Z" fill="#FFDC27"/>
<path d="M283.771 10.9358L288.714 8.06296C289.1 8.16001 289.492 8.26752 289.886 8.38548L284.944 11.2583C284.551 11.1403 284.16 11.0328 283.771 10.9358Z" fill="#FFDC27"/>
<path d="M284.943 11.2597L289.886 8.38693C290.262 8.50041 290.64 8.62434 291.02 8.75872L286.078 11.6315C285.697 11.4956 285.32 11.3717 284.943 11.2597Z" fill="#FFDC27"/>
<path d="M286.08 11.63L291.022 8.75726C291.402 8.89015 291.782 9.03348 292.168 9.18728L287.225 12.0601C286.84 11.9078 286.458 11.7629 286.08 11.63Z" fill="#FFDC27"/>
<path d="M287.223 12.0616L292.165 9.18878C292.541 9.33959 292.919 9.49935 293.3 9.66957L288.357 12.5424C287.977 12.3721 287.599 12.2109 287.223 12.0616Z" fill="#FFDC27"/>
<path d="M288.358 12.5423L293.301 9.66956C293.681 9.83977 294.064 10.0204 294.449 10.2101L289.507 13.0829C289.121 12.8932 288.739 12.7126 288.358 12.5423Z" fill="#FFDC27"/>
<path d="M289.506 13.0829L294.448 10.2101C294.833 10.4012 295.22 10.6013 295.61 10.8118L290.668 13.6846C290.278 13.4741 289.891 13.274 289.506 13.0829Z" fill="#FFDC27"/>
<path d="M290.668 13.6846L295.61 10.8118C295.91 10.9746 296.21 11.1418 296.512 11.3165L291.57 14.1893C291.268 14.0161 290.968 13.8474 290.668 13.6846Z" fill="#FFDC27"/>
</g>
<path d="M316.505 78.4598L311.563 81.3326C316.653 78.3747 319.809 72.0856 319.835 63.1447C319.886 45.1524 307.228 23.2302 291.571 14.1893L296.514 11.3165C312.172 20.3559 324.828 42.2796 324.777 60.2719C324.752 69.2128 321.595 75.5019 316.505 78.4598Z" fill="#FFDC27"/>
<mask id="mask2_152_21" style="mask-type:luminance" maskUnits="userSpaceOnUse" x="291" y="11" width="34" height="71">
<path d="M316.505 78.4598L311.563 81.3326C316.653 78.3747 319.809 72.0856 319.835 63.1447C319.886 45.1524 307.228 23.2302 291.571 14.1893L296.514 11.3165C312.172 20.3559 324.828 42.2796 324.777 60.2719C324.752 69.2128 321.595 75.5019 316.505 78.4598Z" fill="white"/>
</mask>
<g mask="url(#mask2_152_21)">
<path d="M291.569 14.1893L296.512 11.3165C296.604 11.3703 296.697 11.424 296.791 11.4793L291.849 14.352C291.754 14.2968 291.662 14.243 291.569 14.1893Z" fill="#FFDC27"/>
<path d="M291.848 14.352L296.79 11.4792C297.192 11.7152 297.592 11.9615 297.989 12.2139L293.047 15.0867C292.648 14.8328 292.249 14.588 291.848 14.352Z" fill="#FFDC27"/>
<path d="M293.048 15.0866L297.99 12.2138C298.393 12.4707 298.795 12.7364 299.194 13.0097L294.251 15.8825C293.853 15.6092 293.451 15.3435 293.048 15.0866Z" fill="#FFDC27"/>
<path d="M294.251 15.8825L299.193 13.0097C299.607 13.2934 300.017 13.5846 300.425 13.8862L295.483 16.759C295.075 16.4574 294.665 16.1647 294.251 15.8825Z" fill="#FFDC27"/>
<path d="M295.484 16.7575L300.427 13.8847C300.845 14.1923 301.26 14.5088 301.67 14.8343L296.728 17.7071C296.316 17.3816 295.901 17.0666 295.484 16.7575Z" fill="#FFDC27"/>
<path d="M296.729 17.7071L301.671 14.8343C302.095 15.1688 302.514 15.5122 302.932 15.8645L297.99 18.7373C297.572 18.385 297.153 18.0415 296.729 17.7071Z" fill="#FFDC27"/>
<path d="M297.988 18.7374L302.931 15.8646C303.355 16.2229 303.774 16.5887 304.191 16.965L299.248 19.8378C298.833 19.4615 298.412 19.0942 297.988 18.7374Z" fill="#FFDC27"/>
<path d="M299.25 19.8363L304.192 16.9635C304.612 17.3413 305.027 17.728 305.439 18.1222L300.497 20.995C300.085 20.6008 299.67 20.2141 299.25 19.8363Z" fill="#FFDC27"/>
<path d="M300.495 20.995L305.437 18.1222C305.841 18.5089 306.239 18.9031 306.633 19.3048L301.691 22.1776C301.297 21.7759 300.898 21.3817 300.495 20.995Z" fill="#FFDC27"/>
<path d="M301.692 22.1776L306.635 19.3048C307.026 19.7034 307.413 20.1081 307.795 20.5217L302.853 23.3945C302.47 22.9824 302.084 22.5762 301.692 22.1776Z" fill="#FFDC27"/>
<path d="M302.853 23.3945L307.795 20.5217C308.167 20.9233 308.534 21.3309 308.898 21.7445L303.956 24.6173C303.592 24.2023 303.224 23.7946 302.853 23.3945Z" fill="#FFDC27"/>
<path d="M303.955 24.6174L308.897 21.7446C309.268 22.1656 309.632 22.5927 309.993 23.0272L305.051 25.9C304.691 25.4655 304.325 25.0384 303.955 24.6174Z" fill="#FFDC27"/>
<path d="M305.052 25.8999L309.994 23.0271C310.363 23.4721 310.729 23.9215 311.087 24.3784L306.145 27.2512C305.786 26.7943 305.422 26.3434 305.052 25.8999Z" fill="#FFDC27"/>
<path d="M306.146 27.2512L311.088 24.3784C311.515 24.9219 311.936 25.4729 312.348 26.0328L307.406 28.9056C306.992 28.3457 306.573 27.7947 306.146 27.2512Z" fill="#FFDC27"/>
<path d="M307.406 28.9056L312.349 26.0328C312.965 26.869 313.564 27.723 314.145 28.592L309.202 31.4648C308.622 30.5958 308.023 29.7417 307.406 28.9056Z" fill="#FFDC27"/>
<path d="M309.2 31.4634L314.142 28.5906C314.874 29.685 315.576 30.8034 316.245 31.9412L311.303 34.814C310.634 33.6777 309.932 32.5593 309.2 31.4634Z" fill="#FFDC27"/>
<path d="M311.304 34.8154L316.246 31.9427C316.73 32.7639 317.196 33.5956 317.644 34.4347L312.701 37.3075C312.253 36.4668 311.786 35.6367 311.304 34.8154Z" fill="#FFDC27"/>
<path d="M312.702 37.3075L317.644 34.4347C317.946 34.9991 318.239 35.5665 318.524 36.1369L313.582 39.0097C313.296 38.4393 313.004 37.8704 312.702 37.3075Z" fill="#FFDC27"/>
<path d="M313.582 39.0097L318.524 36.1369C318.772 36.6341 319.014 37.1328 319.248 37.6345L314.306 40.5073C314.072 40.0056 313.83 39.5069 313.582 39.0097Z" fill="#FFDC27"/>
<path d="M314.305 40.5058L319.247 37.633C319.46 38.0869 319.668 38.5438 319.871 39.0022L314.929 41.875C314.726 41.4181 314.518 40.9612 314.305 40.5058Z" fill="#FFDC27"/>
<path d="M314.929 41.875L319.871 39.0022C320.07 39.4516 320.262 39.9026 320.45 40.3535L315.508 43.2263C315.32 42.7754 315.127 42.3244 314.929 41.875Z" fill="#FFDC27"/>
<path d="M315.51 43.2278L320.452 40.355C320.643 40.8134 320.827 41.2718 321.006 41.7332L316.064 44.6059C315.885 44.1446 315.699 43.6847 315.51 43.2278Z" fill="#FFDC27"/>
<path d="M316.063 44.6044L321.006 41.7316C321.185 42.193 321.36 42.6559 321.527 43.1203L316.585 45.993C316.417 45.5302 316.243 45.0673 316.063 44.6044Z" fill="#FFDC27"/>
<path d="M316.584 45.9931L321.526 43.1203C321.701 43.6011 321.868 44.0834 322.029 44.5656L317.087 47.4384C316.927 46.9562 316.759 46.4754 316.584 45.9931Z" fill="#FFDC27"/>
<path d="M317.089 47.4384L322.031 44.5656C322.194 45.0539 322.352 45.5421 322.501 46.0319L317.559 48.9047C317.408 48.4164 317.252 47.9267 317.089 47.4384Z" fill="#FFDC27"/>
<path d="M317.56 48.9047L322.502 46.0319C322.656 46.5306 322.8 47.0308 322.939 47.5295L317.997 50.4023C317.858 49.9036 317.712 49.4049 317.56 48.9047Z" fill="#FFDC27"/>
<path d="M317.997 50.4038L322.939 47.531C323.078 48.0327 323.21 48.5344 323.335 49.0361L318.393 51.9089C318.267 51.4072 318.136 50.9055 317.997 50.4038Z" fill="#FFDC27"/>
<path d="M318.391 51.9074L323.333 49.0346C323.455 49.5303 323.572 50.0246 323.679 50.5203L318.737 53.3931C318.63 52.8988 318.515 52.4031 318.391 51.9074Z" fill="#FFDC27"/>
<path d="M318.737 53.3931L323.68 50.5203C323.787 51.0145 323.887 51.5072 323.98 52L319.037 54.8727C318.945 54.38 318.845 53.8873 318.737 53.3931Z" fill="#FFDC27"/>
<path d="M319.038 54.8712L323.98 51.9985C324.07 52.4763 324.154 52.9541 324.228 53.4319L319.286 56.3047C319.211 55.8283 319.128 55.3505 319.038 54.8712Z" fill="#FFDC27"/>
<path d="M319.284 56.3046L324.226 53.4319C324.301 53.9082 324.37 54.383 324.43 54.8563L319.487 57.7291C319.428 57.2558 319.359 56.781 319.284 56.3046Z" fill="#FFDC27"/>
<path d="M319.488 57.7291L324.431 54.8563C324.489 55.3207 324.541 55.7836 324.584 56.2449L319.642 59.1177C319.599 58.6563 319.547 58.1935 319.488 57.7291Z" fill="#FFDC27"/>
<path d="M319.642 59.1177L324.584 56.2449C324.629 56.7063 324.665 57.1662 324.694 57.6231L319.752 60.4959C319.722 60.0375 319.686 59.5776 319.642 59.1177Z" fill="#FFDC27"/>
<path d="M319.753 60.4959L324.695 57.6231C324.724 58.0815 324.746 58.5399 324.759 58.9938L319.817 61.8666C319.804 61.4112 319.781 60.9543 319.753 60.4959Z" fill="#FFDC27"/>
<path d="M319.816 61.8666L324.759 58.9938C324.771 59.4223 324.777 59.8479 324.777 60.2719C324.777 60.2988 324.777 60.3257 324.777 60.354L319.834 63.2268C319.834 63.2 319.834 63.1731 319.834 63.1447C319.834 62.7207 319.828 62.2951 319.816 61.8666Z" fill="#FFDC27"/>
<path d="M319.834 63.2268L324.776 60.354C324.774 60.8184 324.762 61.2753 324.743 61.7247L319.801 64.5975C319.82 64.1466 319.832 63.6897 319.834 63.2268Z" fill="#FFDC27"/>
<path d="M319.801 64.5975L324.743 61.7247C324.724 62.1787 324.697 62.6236 324.661 63.0626L319.719 65.9354C319.753 65.4964 319.781 65.05 319.801 64.5975Z" fill="#FFDC27"/>
<path d="M319.718 65.9354L324.66 63.0626C324.623 63.5255 324.575 63.9809 324.518 64.4273L319.576 67.3001C319.633 66.8537 319.681 66.3983 319.718 65.9354Z" fill="#FFDC27"/>
<path d="M319.578 67.3001L324.52 64.4273C324.462 64.8887 324.395 65.3396 324.317 65.7816L319.375 68.6544C319.453 68.2124 319.52 67.76 319.578 67.3001Z" fill="#FFDC27"/>
<path d="M319.374 68.6544L324.317 65.7816C324.235 66.2549 324.142 66.7178 324.039 67.1687L319.097 70.0415C319.2 69.5906 319.292 69.1277 319.374 68.6544Z" fill="#FFDC27"/>
<path d="M319.096 70.0415L324.039 67.1687C323.925 67.6644 323.8 68.1467 323.661 68.6171L318.719 71.4899C318.856 71.021 318.983 70.5372 319.096 70.0415Z" fill="#FFDC27"/>
<path d="M318.718 71.4899L323.661 68.6171C323.51 69.1307 323.344 69.6279 323.165 70.1102L318.223 72.983C318.402 72.5007 318.568 72.0035 318.718 71.4899Z" fill="#FFDC27"/>
<path d="M318.224 72.983L323.167 70.1102C322.959 70.6686 322.732 71.2062 322.487 71.7228L317.545 74.5956C317.79 74.0789 318.017 73.5414 318.224 72.983Z" fill="#FFDC27"/>
<path d="M317.543 74.5941L322.486 71.7213C322.16 72.4066 321.803 73.0531 321.415 73.6608L316.473 76.5336C316.861 75.9259 317.218 75.2794 317.543 74.5941Z" fill="#FFDC27"/>
<path d="M316.473 76.5336L321.415 73.6609C320.103 75.7199 318.444 77.331 316.503 78.4583L311.561 81.3311C313.502 80.2038 315.162 78.5927 316.473 76.5336Z" fill="#FFDC27"/>
</g>
<path d="M311.569 81.3122C322.625 74.8869 322.594 54.2048 311.501 35.1176C300.407 16.0305 282.452 5.76602 271.397 12.1914C260.341 18.6168 260.372 39.2988 271.465 58.386C282.559 77.4732 300.514 87.7376 311.569 81.3122Z" fill="#FFA000"/>
<path d="M291.599 30.9841C292.288 31.3827 292.842 32.3398 292.839 33.1282L292.804 45.6467L297.729 43.6459C297.965 43.5503 298.254 43.604 298.54 43.7698C298.891 43.9728 299.239 44.3431 299.485 44.815C299.932 45.675 299.866 46.5395 299.345 46.7546L292.359 49.59C292.13 49.6841 291.839 49.6348 291.548 49.4676C291.373 49.3675 291.194 49.2227 291.028 49.0391C290.591 48.5493 290.31 47.8819 290.312 47.3219L290.356 31.6963C290.356 30.9064 290.913 30.5884 291.599 30.9841Z" fill="#2A3FCC"/>
<path d="M291.903 24.4456C302.622 30.6347 311.281 45.6303 311.245 57.9426C311.211 70.255 302.495 75.2212 291.776 69.0322C281.061 62.8461 272.403 47.8491 272.439 35.5367C272.474 23.2258 281.188 18.2596 291.903 24.4456ZM299.343 46.7516C299.865 46.5366 299.93 45.6736 299.484 44.812C299.237 44.3402 298.889 43.9699 298.539 43.7668C298.252 43.6011 297.964 43.5488 297.728 43.6429L292.802 45.6437L292.838 33.1252C292.839 32.3384 292.287 31.3798 291.597 30.9811C290.912 30.5854 290.355 30.9035 290.353 31.6903L290.308 47.316C290.307 47.8774 290.588 48.5434 291.025 49.0331C291.191 49.2168 291.37 49.3616 291.545 49.4616C291.836 49.6304 292.127 49.6796 292.356 49.5841L299.343 46.7516Z" fill="#F6F6FF"/>
<path d="M110.562 78.294C110.562 83.8604 106.049 88.3727 100.483 88.3727C94.9166 88.3727 90.4043 83.8604 90.4043 78.294C90.4043 72.7276 94.9166 68.2153 100.483 68.2153C106.051 68.2153 110.562 72.7276 110.562 78.294Z" fill="#2A3FCC"/>
<path d="M442.084 280.099C442.084 282.882 439.827 285.138 437.044 285.138C434.261 285.138 432.005 282.882 432.005 280.099C432.005 277.316 434.261 275.059 437.044 275.059C439.827 275.059 442.084 277.316 442.084 280.099Z" fill="#2A3FCC"/>
<path d="M423.981 186.591C426.764 186.591 429.02 184.335 429.02 181.552C429.02 178.769 426.764 176.512 423.981 176.512C421.198 176.512 418.941 178.769 418.941 181.552C418.941 184.335 421.198 186.591 423.981 186.591Z" fill="#2A3FCC"/>
<path d="M44.7232 110.044C46.4624 110.044 47.8723 108.634 47.8723 106.895C47.8723 105.156 46.4624 103.746 44.7232 103.746C42.9841 103.746 41.5742 105.156 41.5742 106.895C41.5742 108.634 42.9841 110.044 44.7232 110.044Z" fill="#2A3FCC"/>
<path d="M236.007 27.5961C236.007 29.3356 234.597 30.7451 232.858 30.7451C231.118 30.7451 229.709 29.3356 229.709 27.5961C229.709 25.8566 231.118 24.4471 232.858 24.4471C234.597 24.4471 236.007 25.8566 236.007 27.5961Z" fill="#2A3FCC"/>
<path d="M349.323 70.9194C354.194 70.9194 358.142 66.9713 358.142 62.101C358.142 57.2307 354.194 53.2825 349.323 53.2825C344.453 53.2825 340.505 57.2307 340.505 62.101C340.505 66.9713 344.453 70.9194 349.323 70.9194Z" fill="#2A3FCC"/>
<path d="M4.40923 266.52C6.84438 266.52 8.81847 264.546 8.81847 262.111C8.81847 259.676 6.84438 257.702 4.40923 257.702C1.97408 257.702 0 259.676 0 262.111C0 264.546 1.97408 266.52 4.40923 266.52Z" fill="#2A3FCC"/>
<path d="M143.271 109.881C145.706 109.881 147.68 107.907 147.68 105.472C147.68 103.037 145.706 101.063 143.271 101.063C140.835 101.063 138.861 103.037 138.861 105.472C138.861 107.907 140.835 109.881 143.271 109.881Z" fill="#2A3FCC"/>
<path d="M90.1593 365.278C90.1593 368.93 87.1984 371.892 83.5462 371.892C79.894 371.892 76.9316 368.931 76.9316 365.278C76.9316 361.625 79.8925 358.664 83.5462 358.664C87.1984 358.664 90.1593 361.625 90.1593 365.278Z" fill="#2A3FCC"/>
<path d="M371.721 85.14C375.374 85.14 378.336 82.1786 378.336 78.5254C378.336 74.8723 375.374 71.9109 371.721 71.9109C368.068 71.9109 365.106 74.8723 365.106 78.5254C365.106 82.1786 368.068 85.14 371.721 85.14Z" fill="#2A3FCC"/>
<path d="M268.694 390.727C273.717 390.727 277.789 386.655 277.789 381.632C277.789 376.609 273.717 372.537 268.694 372.537C263.671 372.537 259.6 376.609 259.6 381.632C259.6 386.655 263.671 390.727 268.694 390.727Z" fill="#2A3FCC"/>
<path d="M243.023 387.893C243.023 391.031 240.479 393.577 237.339 393.577C234.2 393.577 231.654 391.033 231.654 387.893C231.654 384.753 234.199 382.21 237.339 382.21C240.477 382.21 243.023 384.754 243.023 387.893Z" fill="#2A3FCC"/>
<path d="M394.405 21.0652L405.138 33.4537L422.715 59.4104L406.523 71.7272L400.573 61.7576L400.442 108.094L382.514 97.7436L369.376 90.1585L351.447 79.8081L351.579 33.4716L346.193 35.5142L330.124 4.58094L347.191 0L357.959 0.0253921L365.129 4.16436C365.128 4.83328 365.092 17.5458 375.842 23.7528L376.447 24.1022C387.198 30.3092 387.233 17.5966 387.235 16.9277L394.405 21.0652Z" fill="#343434"/>
</svg>
