<svg width="60" height="60" viewBox="0 0 60 60" fill="none" xmlns="http://www.w3.org/2000/svg">
<rect width="60" height="60" rx="30" fill="#FFF6DD"/>
<path fill-rule="evenodd" clip-rule="evenodd" d="M34.9668 37.9105C33.5625 38.9845 31.8071 39.6224 29.9025 39.6224C25.2937 39.6224 21.5583 35.8869 21.5583 31.2782C21.5583 26.6694 25.2937 22.9339 29.9025 22.9339C34.5112 22.9339 38.2466 26.6694 38.2466 31.2782C38.2466 32.9045 37.7816 34.4219 36.9771 35.705L38.8187 37.4931C39.271 37.2554 39.8478 37.3208 40.2329 37.6937L40.2333 37.694L44.5399 41.8735C45.0188 42.3372 45.0322 43.1088 44.5646 43.5915L44.5643 43.5919L43.0101 45.1929L43.0096 45.1934C42.5463 45.6715 41.7757 45.6845 41.2935 45.2213L41.2916 45.2195L36.9874 41.0402C36.5998 40.6666 36.5165 40.092 36.7413 39.6325L34.9668 37.9105ZM36.3865 36.5309C36.1815 36.7836 35.962 37.0242 35.7291 37.2514L37.3982 38.8711L38.0768 38.172L36.3865 36.5309ZM29.9025 23.9379C25.8482 23.9379 22.5622 27.2239 22.5622 31.2782C22.5622 35.3324 25.8482 38.6185 29.9025 38.6185C33.9568 38.6185 37.2427 35.3324 37.2427 31.2782C37.2427 27.2239 33.9568 23.9379 29.9025 23.9379ZM29.9025 24.7629C33.5009 24.7629 36.4177 27.6798 36.4177 31.2782C36.4177 34.8765 33.5009 37.7934 29.9025 37.7934C26.3041 37.7934 23.3872 34.8765 23.3872 31.2782C23.3872 27.6798 26.3041 24.7629 29.9025 24.7629ZM29.9025 25.7668C26.8585 25.7668 24.3911 28.2343 24.3911 31.2782C24.3911 34.3221 26.8585 36.7895 29.9025 36.7895C32.9464 36.7895 35.4138 34.3221 35.4138 31.2782C35.4138 28.2343 32.9464 25.7668 29.9025 25.7668ZM29.9033 33.326C30.5934 33.326 31.1536 33.8861 31.1536 34.5762C31.1536 35.2662 30.5934 35.8264 29.9033 35.8264C29.2107 35.8264 28.6514 35.2659 28.6514 34.5762C28.6514 33.8864 29.2107 33.326 29.9033 33.326ZM29.9033 34.3299C29.7665 34.3299 29.6553 34.4399 29.6553 34.5762C29.6553 34.7125 29.7665 34.8225 29.9033 34.8225C29.9686 34.8224 30.0313 34.7965 30.0775 34.7503C30.1236 34.7041 30.1496 34.6415 30.1496 34.5762C30.1496 34.5109 30.1236 34.4482 30.0775 34.402C30.0313 34.3559 29.9686 34.3299 29.9033 34.3299ZM29.9033 32.9941C29.3188 32.9941 28.8377 32.5281 28.8176 31.947L28.669 27.8538L28.6689 27.8526C28.6593 27.549 28.7611 27.2835 28.9733 27.0616L28.9746 27.0603C29.1864 26.842 29.4498 26.73 29.7547 26.73H30.0502C30.3534 26.73 30.6156 26.8406 30.8321 27.0603L30.8346 27.063C31.0464 27.2844 31.1482 27.5511 31.1359 27.8559L30.989 31.9475L30.989 31.9482C30.9665 32.5292 30.4876 32.9941 29.9033 32.9941ZM29.9033 31.9902C29.948 31.9902 29.984 31.954 29.9858 31.9096L30.1327 27.8172L30.1328 27.8156C30.1337 27.7941 30.1259 27.7755 30.1112 27.7592C30.095 27.743 30.0731 27.7339 30.0502 27.7339H29.7547C29.732 27.7339 29.7124 27.7422 29.6954 27.7591C29.6799 27.7757 29.6716 27.7977 29.6723 27.8204L29.8209 31.9114V31.9121C29.8224 31.9559 29.8594 31.9902 29.9033 31.9902ZM42.2893 44.4941L43.8435 42.893C43.9247 42.8092 43.9247 42.6753 43.8415 42.5947L43.8411 42.5943L39.5345 38.4149C39.4514 38.3344 39.3167 38.3359 39.2361 38.4191L39.2357 38.4195L37.6811 40.0209L37.6801 40.0219C37.5997 40.1043 37.6012 40.2377 37.6843 40.3175L37.6862 40.3194L41.9903 44.4986C42.0746 44.5782 42.2083 44.5777 42.2889 44.4945L42.2893 44.4941ZM29.9025 14.4395C30.8413 14.4395 31.6034 15.2016 31.6034 16.1404C31.6034 17.0792 30.8413 17.8414 29.9025 17.8414C28.9637 17.8414 28.2015 17.0792 28.2015 16.1404C28.2015 15.2016 28.9637 14.4395 29.9025 14.4395ZM29.9025 15.4434C29.5177 15.4434 29.2054 15.7557 29.2054 16.1404C29.2054 16.5252 29.5177 16.8375 29.9025 16.8375C30.2872 16.8375 30.5995 16.5252 30.5995 16.1404C30.5995 15.7557 30.2872 15.4434 29.9025 15.4434ZM29.4059 18.9668C29.4059 18.6897 29.6309 18.4648 29.9079 18.4648C30.185 18.4648 30.4098 18.6897 30.4098 18.9668V21.8712C30.4098 22.1483 30.185 22.3731 29.9079 22.3731C29.6309 22.3731 29.4059 22.1483 29.4059 21.8712V18.9668ZM15.3197 22.8588C15.7891 22.0458 16.8302 21.7668 17.6433 22.2362C18.4563 22.7056 18.7353 23.7467 18.2659 24.5598C17.7965 25.3728 16.7553 25.6518 15.9423 25.1824C15.1293 24.713 14.8503 23.6718 15.3197 22.8588ZM16.1891 23.3608C15.9968 23.694 16.1111 24.1206 16.4443 24.313C16.7775 24.5053 17.2041 24.391 17.3964 24.0578C17.5888 23.7247 17.4745 23.298 17.1413 23.1056C16.8082 22.9133 16.3815 23.0276 16.1891 23.3608ZM18.9922 25.5525C18.877 25.4859 18.7929 25.3762 18.7584 25.2477C18.724 25.1191 18.742 24.9821 18.8085 24.8668C18.8751 24.7516 18.9847 24.6675 19.1133 24.633C19.2418 24.5986 19.3788 24.6165 19.4941 24.683L22.0095 26.1353C22.1247 26.2019 22.2088 26.3115 22.2433 26.4401C22.2777 26.5687 22.2597 26.7056 22.1932 26.8209C22.1266 26.9362 22.0169 27.0203 21.8884 27.0547C21.7598 27.0892 21.6228 27.0712 21.5075 27.0047L18.9922 25.5525ZM15.3197 39.6976C14.8503 38.8845 15.1293 37.8434 15.9423 37.374C16.7553 36.9046 17.7965 37.1835 18.2659 37.9965C18.7353 38.8096 18.4563 39.8507 17.6433 40.3201C16.8302 40.7895 15.7891 40.5105 15.3197 39.6976ZM16.1891 39.1956C16.3815 39.5288 16.8082 39.6431 17.1413 39.4507C17.4745 39.2583 17.5888 38.8317 17.3964 38.4985C17.2041 38.1653 16.7775 38.051 16.4443 38.2434C16.1111 38.4358 15.9968 38.8624 16.1891 39.1956ZM19.4887 37.8639C19.3734 37.9304 19.2365 37.9484 19.1079 37.9139C18.9793 37.8795 18.8697 37.7954 18.8031 37.6802C18.7366 37.5649 18.7185 37.4279 18.753 37.2993C18.7874 37.1707 18.8715 37.061 18.9868 36.9944L21.5021 35.5423C21.742 35.4037 22.0492 35.486 22.1878 35.726C22.3263 35.9659 22.2439 36.2732 22.0041 36.4117L19.4887 37.8639Z" fill="#FFB800"/>
</svg>
