<svg width="60" height="60" viewBox="0 0 60 60" fill="none" xmlns="http://www.w3.org/2000/svg">
<rect width="60" height="60" rx="30" fill="#EAEFFF"/>
<path d="M29.3706 23.6587C29.3706 23.787 29.3197 23.9101 29.2289 24.0008C29.1382 24.0915 29.0152 24.1425 28.8869 24.1425H18.4506C18.3223 24.1425 18.1993 24.0915 18.1086 24.0008C18.0178 23.9101 17.9669 23.787 17.9669 23.6587C17.9669 23.5304 18.0178 23.4074 18.1086 23.3167C18.1993 23.226 18.3223 23.175 18.4506 23.175H28.8869C29.0152 23.175 29.1382 23.226 29.2289 23.3167C29.3197 23.4074 29.3706 23.5304 29.3706 23.6587ZM28.8869 26.7362H18.4506C18.3871 26.7362 18.3242 26.7488 18.2655 26.7731C18.2068 26.7974 18.1535 26.833 18.1086 26.8779C18.0636 26.9228 18.028 26.9762 18.0037 27.0349C17.9794 27.0936 17.9669 27.1565 17.9669 27.22C17.9669 27.3483 18.0178 27.4713 18.1086 27.5621C18.1993 27.6528 18.3223 27.7037 18.4506 27.7037H28.8869C29.0152 27.7037 29.1382 27.6528 29.2289 27.5621C29.3197 27.4713 29.3706 27.3483 29.3706 27.22C29.3706 26.9525 29.1544 26.7362 28.8869 26.7362ZM28.8869 30.2969H18.4506C18.3223 30.2969 18.1993 30.3478 18.1086 30.4386C18.0178 30.5293 17.9669 30.6523 17.9669 30.7806C17.9669 30.9089 18.0178 31.032 18.1086 31.1227C18.1993 31.2134 18.3223 31.2644 18.4506 31.2644H28.8869C29.1544 31.2644 29.3706 31.0475 29.3706 30.7806C29.3706 30.5137 29.1544 30.2969 28.8869 30.2969ZM28.8869 33.8575H18.4506C18.3223 33.8575 18.1993 33.9085 18.1086 33.9992C18.0178 34.0899 17.9669 34.2129 17.9669 34.3412C17.9669 34.4695 18.0178 34.5926 18.1086 34.6833C18.1993 34.774 18.3223 34.825 18.4506 34.825H28.8869C29.1544 34.825 29.3706 34.6081 29.3706 34.3412C29.3706 34.0744 29.1544 33.8575 28.8869 33.8575ZM28.8869 37.4181H18.4506C18.3223 37.4181 18.1993 37.4691 18.1086 37.5598C18.0178 37.6505 17.9669 37.7736 17.9669 37.9019C17.9669 38.0302 18.0178 38.1532 18.1086 38.2439C18.1993 38.3346 18.3223 38.3856 18.4506 38.3856H28.8869C29.1544 38.3856 29.3706 38.1687 29.3706 37.9019C29.3706 37.635 29.1544 37.4181 28.8869 37.4181ZM45 28.4869V37.1181C45 37.9206 44.3469 38.5737 43.5444 38.5737H41.5244C40.7656 38.5737 40.1412 37.99 40.0756 37.2475L37.9331 37.8725C37.695 37.9419 37.4781 37.9731 37.2294 37.9731H35.1038V42.5669C35.1038 43.3281 34.4844 43.9475 33.7231 43.9475H19.1469C18.3856 43.9475 17.7662 43.3281 17.7662 42.5669V41.1812H16.3806C15.6194 41.1812 15 40.5619 15 39.8006V20.8637C15 20.7356 15.0513 20.6125 15.1419 20.5219L19.4688 16.1944C19.5596 16.1035 19.6828 16.0525 19.8113 16.0525H30.9575C31.7188 16.0525 32.3381 16.6719 32.3381 17.4331V18.8187H33.7231C34.4844 18.8187 35.1038 19.4381 35.1038 20.1994V26.6881H36.9762C37.435 26.6881 37.8344 26.795 38.2319 27.0244L40.1194 28.1137C40.2844 27.4912 40.8513 27.0312 41.5244 27.0312H43.5444C44.3469 27.0312 45 27.6844 45 28.4869ZM32.3375 19.7862V26.6881H34.1356V20.1994C34.1356 19.9719 33.9506 19.7862 33.7225 19.7862H32.3375ZM26.0562 19.8119L26.9144 19.0762C27.002 19.0009 27.1138 18.9595 27.2294 18.9595C27.345 18.9595 27.4567 19.0009 27.5444 19.0762L28.4025 19.8119V17.02H26.0562V19.8119ZM16.6519 20.38H19.3269V17.705L16.6519 20.38ZM16.3806 40.2137H30.9569C31.1844 40.2137 31.37 40.0287 31.37 39.8006V31.0731C30.5375 30.7344 29.9494 29.9175 29.9494 28.965C29.9494 28.0125 30.5381 27.1956 31.37 26.8569V17.4331C31.37 17.2056 31.185 17.02 30.9569 17.02H29.3706V20.8631C29.3706 21.0519 29.2606 21.2237 29.0887 21.3025C29.0047 21.3412 28.9114 21.355 28.8198 21.3423C28.7282 21.3295 28.6421 21.2908 28.5719 21.2306L27.23 20.08L25.8875 21.2312C25.7998 21.3064 25.688 21.3477 25.5725 21.3475C25.5038 21.3475 25.435 21.3331 25.3706 21.3031C25.2865 21.2645 25.2152 21.2026 25.1653 21.1248C25.1153 21.0469 25.0887 20.9563 25.0887 20.8637V17.02H20.295V20.8631C20.295 20.9914 20.244 21.1145 20.1533 21.2052C20.0626 21.2959 19.9395 21.3469 19.8113 21.3469H15.9675V39.8C15.9675 40.0281 16.1531 40.2137 16.3806 40.2137ZM34.1356 37.4894V31.2412H32.3375V39.8006C32.3375 40.5619 31.7181 41.1812 30.9569 41.1812H18.7337V42.5669C18.7337 42.7944 18.9187 42.98 19.1469 42.98H33.7231C33.9506 42.98 34.1362 42.795 34.1362 42.5669V37.4894H34.1356ZM40.0688 36.2412V29.2025L37.7475 27.8625C37.4994 27.7194 37.2612 27.6556 36.9756 27.6556H32.2256C31.5037 27.6556 30.9169 28.2431 30.9169 28.9644C30.9169 29.6862 31.5044 30.2731 32.2256 30.2731H37.065C37.1933 30.2731 37.3163 30.3241 37.4071 30.4148C37.4978 30.5055 37.5487 30.6286 37.5487 30.7569C37.5487 30.8852 37.4978 31.0082 37.4071 31.0989C37.3163 31.1896 37.1933 31.2406 37.065 31.2406H35.1031V37.0044H37.2288C37.3856 37.0044 37.5106 36.9862 37.6612 36.9425L40.0688 36.2412ZM44.0325 28.4869C44.0325 28.2181 43.8137 27.9994 43.5444 27.9994H41.5244C41.2556 27.9994 41.0369 28.2181 41.0369 28.4869V37.1181C41.0369 37.3869 41.2556 37.6056 41.5244 37.6056H43.5444C43.8131 37.6056 44.0325 37.3869 44.0325 37.1181V28.4869Z" fill="#2A3FCC"/>
</svg>
