<svg width="60" height="60" viewBox="0 0 60 60" fill="none" xmlns="http://www.w3.org/2000/svg">
<rect width="60" height="60" rx="30" fill="#DEFDE4"/>
<path fill-rule="evenodd" clip-rule="evenodd" d="M43.0817 43.2673H36.8066V41.872H43.0817V43.2673ZM38.5558 40.4363C38.5522 40.3923 38.5449 40.349 38.5269 40.3079C37.8489 38.6187 37.7083 36.6604 38.0978 34.3214C38.1119 34.2386 38.1012 34.1535 38.0672 34.0767C38.0332 33.9999 37.9774 33.9349 37.9066 33.8897L35.2343 32.1939C34.7407 31.8802 34.8797 31.1314 35.4399 31.0064C35.613 30.9682 35.7861 30.9984 35.9339 31.0911L39.1508 33.1337C39.4366 33.3136 39.8108 33.107 39.8108 32.7716V26.2727C41.1163 27.9334 41.4697 31.001 41.7871 33.7515C41.9458 35.1046 42.0937 36.3831 42.3425 37.474C42.393 37.7228 42.4435 39.6923 42.3353 41.0162H38.5991L38.5558 40.4363ZM22.7238 39.1398H37.2755C36.9689 37.7427 36.9473 36.1974 37.2106 34.4617L34.7763 32.9167C34.0731 32.4713 33.8639 31.5365 34.3111 30.834C34.7541 30.1331 35.6899 29.9227 36.392 30.3684L38.9525 31.9934V20.382H37.0195C36.0746 20.382 35.3029 19.6124 35.3029 18.6665V16.7317H21.9088C21.4327 16.7317 21.0468 17.1175 21.0468 17.5914V31.9935L23.611 30.3685C23.95 30.1532 24.3539 30.0832 24.747 30.1715C26.0626 30.466 26.3518 32.2017 25.2267 32.9167L22.7924 34.4617C23.0556 36.1974 23.034 37.7427 22.7238 39.1398ZM17.6677 41.0162C17.5559 39.6923 17.6064 37.7229 17.6605 37.474C17.9093 36.3831 18.0571 35.1046 18.2123 33.7515C18.5296 31.0009 18.8866 27.9333 20.1922 26.2727V32.7717C20.1922 33.1054 20.5654 33.3144 20.8486 33.1338L24.069 31.0912C24.5424 30.789 25.1828 31.2003 25.0535 31.7847C25.0174 31.956 24.9129 32.101 24.7686 32.194L22.0963 33.8898C21.952 33.9817 21.8763 34.152 21.9015 34.3214C22.2946 36.6605 22.154 38.6188 21.476 40.308C21.4581 40.3487 21.4472 40.3921 21.4436 40.4364L21.4039 41.0163H17.6677V41.0162ZM23.1926 43.2673H16.9212V41.872H23.1927V43.2673H23.1926ZM36.1575 17.3376L38.3466 19.5259H37.0194C36.5434 19.5259 36.1575 19.1408 36.1575 18.6665V17.3376H36.1575ZM43.1935 41.0224C43.2981 39.6574 43.2584 37.6446 43.1755 37.2847C42.3366 33.6215 42.6516 27.3786 39.8107 25.0522V19.9539C39.8107 19.8407 39.7639 19.7318 39.6845 19.6514L36.0349 16.0032C35.9952 15.9631 35.948 15.9314 35.896 15.9097C35.844 15.8881 35.7883 15.8769 35.7319 15.877H21.9088C20.9639 15.877 20.1922 16.6451 20.1922 17.5914V25.0523C17.354 27.3763 17.6594 33.6241 16.8274 37.2847C16.7444 37.6446 16.7047 39.6573 16.8093 41.0224C16.391 41.0714 16.0664 41.4281 16.0664 41.8601V43.2793C16.0664 43.7445 16.4451 44.1235 16.9103 44.1235H23.207C23.6722 44.1235 24.0509 43.7445 24.0509 43.2793V41.8601C24.0509 41.3945 23.6722 41.0162 23.207 41.0162H22.2621L22.2946 40.5647C22.3667 40.3783 22.4316 40.1882 22.4966 39.996H37.5063C37.5679 40.1875 37.6352 40.3772 37.7082 40.5647L37.7406 41.0162H36.7958C36.3305 41.0162 35.9519 41.3945 35.9519 41.8601V43.2793C35.9519 43.7445 36.3305 44.1235 36.7958 44.1235H43.0925C43.5577 44.1235 43.9364 43.7445 43.9364 43.2793V41.8601C43.9364 41.4281 43.6119 41.0714 43.1935 41.0224ZM31.5125 28.6106L32.2265 29.4037C32.3846 29.5814 32.6532 29.5934 32.8288 29.4376L34.6067 27.8512C34.7834 27.6935 34.8014 27.4231 34.6427 27.2467C34.4841 27.0704 34.2136 27.0545 34.0368 27.2121L32.5763 28.5148L32.1508 28.0391C32.0747 27.9545 31.9682 27.9036 31.8546 27.8974C31.741 27.8913 31.6296 27.9304 31.5449 28.0062C31.3719 28.1646 31.3538 28.435 31.5125 28.6106ZM34.7439 36.8476C34.7438 36.7913 34.7327 36.7356 34.7111 36.6836C34.6896 36.6316 34.6579 36.5843 34.6181 36.5446C34.5782 36.5048 34.5309 36.4733 34.4788 36.4518C34.4268 36.4304 34.371 36.4194 34.3147 36.4195H25.6846C25.4502 36.4195 25.2591 36.6114 25.2591 36.8476C25.2591 37.0839 25.4503 37.2754 25.6846 37.2754H34.3147C34.5527 37.2754 34.7439 37.0839 34.7439 36.8476ZM31.5125 24.696C31.3538 24.5203 31.3718 24.2499 31.5449 24.0915C31.6298 24.0158 31.7412 23.9768 31.8547 23.9831C31.9683 23.9893 32.0747 24.0402 32.1508 24.1247L32.5764 24.6L34.0369 23.2974C34.2136 23.1401 34.4841 23.1557 34.6428 23.332C34.8015 23.5084 34.7835 23.7788 34.6068 23.9364L32.8288 25.5235C32.6532 25.6784 32.3847 25.6672 32.2266 25.4896L31.5125 24.696ZM25.2951 34.2795C25.2951 34.2232 25.3063 34.1675 25.3278 34.1155C25.3494 34.0634 25.381 34.0162 25.4209 33.9764C25.4608 33.9367 25.5081 33.9052 25.5601 33.8837C25.6122 33.8623 25.668 33.8513 25.7243 33.8514H33.8278C33.9413 33.8514 34.0502 33.8965 34.1305 33.9768C34.2107 34.0571 34.2559 34.166 34.2559 34.2795C34.2559 34.3931 34.2107 34.5019 34.1305 34.5822C34.0502 34.6625 33.9413 34.7076 33.8278 34.7076H25.7243C25.668 34.7077 25.6122 34.6968 25.5601 34.6753C25.5081 34.6538 25.4608 34.6223 25.4209 34.5826C25.3811 34.5428 25.3494 34.4956 25.3278 34.4436C25.3063 34.3916 25.2952 34.3358 25.2951 34.2795ZM31.5125 20.782C31.3538 20.6056 31.3718 20.3351 31.5449 20.1769C31.6298 20.1012 31.7412 20.0622 31.8547 20.0684C31.9683 20.0746 32.0747 20.1255 32.1508 20.21L32.5764 20.686L34.0369 19.3831C34.2136 19.2258 34.4841 19.241 34.6428 19.4173C34.8015 19.5936 34.7835 19.8649 34.6068 20.0217L32.8288 21.6089C32.6532 21.7636 32.3847 21.7525 32.2266 21.5749L31.5125 20.782ZM29.7382 28.69H24.2709V25.8893C24.2709 24.3822 25.4971 23.1557 27.0045 23.1557C28.512 23.1557 29.7382 24.3822 29.7382 25.8893V28.69ZM25.6269 20.9212C25.6269 20.1609 26.2436 19.5425 27.0046 19.5425C27.7655 19.5425 28.3822 20.161 28.3822 20.9212C28.3822 21.681 27.7655 22.2992 27.0046 22.2999C26.2436 22.2992 25.6269 21.681 25.6269 20.9212ZM30.5929 29.1181C30.5929 29.3547 30.4018 29.5462 30.1673 29.5462H23.8418C23.6073 29.5462 23.4162 29.3547 23.4162 29.1181V25.8893C23.4162 24.4295 24.2889 23.1719 25.544 22.6108C25.0715 22.2011 24.7686 21.5956 24.7686 20.9212C24.7686 19.6892 25.7712 18.6863 27.0046 18.6863C28.2379 18.6863 29.2406 19.6892 29.2406 20.9212C29.2406 21.5955 28.9376 22.201 28.4652 22.6115C29.7166 23.1719 30.5929 24.4295 30.5929 25.8893V29.1181H30.5929Z" fill="#0D6708"/>
</svg>
