<svg width="60" height="60" viewBox="0 0 60 60" fill="none" xmlns="http://www.w3.org/2000/svg">
<rect width="60" height="60" rx="30" fill="#FFF0E9"/>
<g clip-path="url(#clip0_2023_416)">
<path d="M44.0835 16.5361H36.5344L37.1169 15.7124C37.2282 15.5561 37.2941 15.372 37.3075 15.1806C37.3208 14.9891 37.281 14.7977 37.1925 14.6274C37.1046 14.4568 36.9713 14.3138 36.8073 14.2141C36.6432 14.1145 36.4549 14.062 36.263 14.0625H32.6921C32.5002 14.062 32.3119 14.1144 32.1479 14.2141C31.9839 14.3138 31.8506 14.4567 31.7627 14.6273C31.6742 14.7976 31.6344 14.989 31.6477 15.1805C31.661 15.3719 31.727 15.556 31.8382 15.7124L32.4208 16.5361H24.8717C23.9655 16.5361 23.2283 17.2733 23.2283 18.1794V29.1607C19.9259 29.4166 17.317 32.1856 17.317 35.5526C17.317 37.8004 18.5177 39.9121 20.4507 41.0639C20.6739 41.1968 20.7919 41.4044 20.7919 41.6641V43.1055C20.7919 43.653 21.1291 44.1228 21.6065 44.3193C21.6488 45.2187 22.3935 45.9375 23.3032 45.9375H24.1534C25.063 45.9375 25.8079 45.2188 25.8501 44.3193C26.3275 44.1228 26.6648 43.653 26.6648 43.1055V42.7775H44.0835C44.9897 42.7775 45.7269 42.0403 45.7269 41.1341V18.1794C45.7269 17.2733 44.9897 16.5361 44.0835 16.5361ZM42.8638 37.1781H40.6275C40.4949 37.1781 40.3677 37.2308 40.2739 37.3246C40.1802 37.4183 40.1275 37.5455 40.1275 37.6781V39.9145H28.4227C28.8636 39.4375 29.2303 38.8968 29.5104 38.3107C29.6123 38.293 29.7062 38.244 29.7789 38.1705L31.6318 36.3003C31.678 36.2536 31.7146 36.1983 31.7394 36.1375C31.7643 36.0768 31.7769 36.0117 31.7766 35.946C31.7762 35.8804 31.763 35.8154 31.7376 35.7549C31.7122 35.6943 31.6751 35.6394 31.6284 35.5932C31.5818 35.547 31.5265 35.5104 31.4657 35.4856C31.4049 35.4607 31.3399 35.4481 31.2742 35.4484C31.2085 35.4487 31.1436 35.4619 31.083 35.4874C31.0225 35.5128 30.9676 35.5499 30.9214 35.5965L30.0747 36.4511C30.1176 36.1536 30.1393 35.8533 30.1395 35.5527C30.1395 34.8846 30.0367 34.2401 29.8462 33.6341L31.6318 31.8317C31.678 31.785 31.7146 31.7298 31.7394 31.669C31.7643 31.6082 31.7769 31.5431 31.7766 31.4775C31.7762 31.4118 31.763 31.3469 31.7376 31.2863C31.7122 31.2258 31.6751 31.1708 31.6284 31.1246C31.5818 31.0784 31.5265 31.0418 31.4657 31.017C31.4049 30.9922 31.3399 30.9795 31.2742 30.9798C31.2085 30.9801 31.1436 30.9934 31.083 31.0188C31.0225 31.0442 30.9676 31.0813 30.9214 31.1279L29.4335 32.6298C28.7266 31.2555 27.5376 30.1683 26.0914 29.5929V19.3991H30.2588C30.4345 19.8393 30.8575 20.1325 31.3469 20.1325H37.6084C38.0977 20.1325 38.5207 19.8393 38.6964 19.3991H42.8639L42.8638 37.1781ZM42.1567 38.1781L41.1275 39.2074V38.1781H42.1567ZM33.3869 17.5361C33.4785 17.5361 33.5684 17.5109 33.6468 17.4632C33.7251 17.4156 33.7888 17.3473 33.8309 17.2659C33.873 17.1845 33.892 17.093 33.8857 17.0016C33.8793 16.9101 33.848 16.8222 33.795 16.7473L32.6546 15.135C32.6488 15.1268 32.638 15.1115 32.6507 15.087C32.6634 15.0625 32.6821 15.0625 32.6921 15.0625H36.263C36.273 15.0625 36.2918 15.0625 36.3044 15.087C36.3171 15.1115 36.3063 15.1268 36.3005 15.135L35.1602 16.7474C35.1072 16.8222 35.0759 16.9102 35.0696 17.0016C35.0632 17.0931 35.0822 17.1845 35.1243 17.2659C35.1664 17.3474 35.2301 17.4156 35.3085 17.4633C35.3868 17.5109 35.4767 17.5361 35.5684 17.5361H38.0931L37.7777 18.9959C37.7597 19.0789 37.6932 19.1326 37.6084 19.1326H31.3468C31.2619 19.1326 31.1954 19.0789 31.1774 18.9959L30.862 17.5361L33.3869 17.5361ZM24.8717 17.5361H29.839L30.0255 18.3992H25.5914C25.4588 18.3992 25.3316 18.4519 25.2378 18.5456C25.144 18.6394 25.0914 18.7666 25.0914 18.8992V29.2877C24.8069 29.2257 24.5185 29.1833 24.2283 29.1608V18.1794C24.2283 17.8247 24.5169 17.5361 24.8717 17.5361ZM20.9625 40.2049C19.3307 39.2326 18.317 37.4499 18.317 35.5526C18.317 32.5689 20.7445 30.1414 23.7283 30.1414C26.712 30.1414 29.1395 32.5689 29.1395 35.5526C29.1395 37.45 28.1259 39.2326 26.494 40.2049C25.967 40.5189 25.6647 41.0508 25.6647 41.6642V42.0118H24.9102V37.8538C26.1884 37.555 27.0776 36.7801 27.0776 35.8483C27.0776 34.975 26.3672 34.2645 25.4939 34.2645C24.6206 34.2645 23.9102 34.975 23.9102 35.8483V36.9821C23.789 36.987 23.6676 36.987 23.5464 36.9821V35.8483C23.5464 34.975 22.836 34.2645 21.9627 34.2645C21.0894 34.2645 20.3789 34.975 20.3789 35.8483C20.3789 36.7801 21.2682 37.555 22.5464 37.8538V42.0118H21.7919V41.6642C21.7919 41.0508 21.4896 40.5189 20.9625 40.2049ZM25.3521 43.4181H22.1044C22.0215 43.418 21.9421 43.385 21.8835 43.3264C21.8249 43.2678 21.7919 43.1884 21.7918 43.1055V43.0118H25.6647V43.1055C25.6646 43.1884 25.6317 43.2678 25.5731 43.3264C25.5144 43.385 25.435 43.418 25.3521 43.4181ZM22.5464 36.8179C21.8361 36.6017 21.3789 36.2105 21.3789 35.8483C21.3789 35.5264 21.6407 35.2645 21.9627 35.2645C22.2846 35.2645 22.5464 35.5264 22.5464 35.8483V36.8179ZM23.9102 42.0118H23.5464V37.9829C23.6668 37.9868 23.7899 37.9868 23.9102 37.9829V42.0118ZM24.9102 36.8179V35.8483C24.9102 35.5264 25.172 35.2645 25.4939 35.2645C25.8157 35.2645 26.0776 35.5264 26.0776 35.8483C26.0776 36.2104 25.6204 36.6016 24.9102 36.8179ZM24.1534 44.9375H23.3032C22.98 44.9375 22.7081 44.7166 22.6287 44.4181H24.8279C24.7484 44.7166 24.4765 44.9375 24.1534 44.9375ZM44.7269 41.1341C44.7269 41.4889 44.4383 41.7775 44.0835 41.7775H26.6648V41.6641C26.6648 41.4044 26.7828 41.1969 27.0059 41.0639C27.0861 41.0158 27.1652 40.966 27.2431 40.9144H40.6275C40.7601 40.9144 40.8873 40.8618 40.981 40.768L43.7174 38.0316C43.7638 37.9852 43.8006 37.9301 43.8257 37.8694C43.8509 37.8087 43.8638 37.7437 43.8638 37.6781V18.8991C43.8638 18.7665 43.8111 18.6393 43.7174 18.5456C43.6236 18.4518 43.4964 18.3991 43.3638 18.3991H38.9297L39.1162 17.5361H44.0835C44.4383 17.5361 44.7269 17.8246 44.7269 18.1794V41.1341ZM41.065 35.9037C41.065 36.0363 41.0123 36.1635 40.9185 36.2572C40.8248 36.351 40.6976 36.4037 40.565 36.4037H33.5962C33.4636 36.4037 33.3364 36.351 33.2426 36.2572C33.1489 36.1635 33.0962 36.0363 33.0962 35.9037C33.0962 35.7711 33.1489 35.6439 33.2426 35.5501C33.3364 35.4564 33.4636 35.4037 33.5962 35.4037H40.565C40.6976 35.4037 40.8248 35.4564 40.9185 35.5501C41.0123 35.6439 41.065 35.7711 41.065 35.9037ZM37.5806 37.8632C37.5806 37.9958 37.5279 38.123 37.4342 38.2167C37.3404 38.3105 37.2132 38.3632 37.0806 38.3632H33.5962C33.4636 38.3632 33.3364 38.3105 33.2426 38.2167C33.1489 38.123 33.0962 37.9958 33.0962 37.8632C33.0962 37.7306 33.1489 37.6034 33.2426 37.5096C33.3364 37.4159 33.4636 37.3632 33.5962 37.3632H37.0806C37.2132 37.3632 37.3404 37.4159 37.4342 37.5096C37.5279 37.6034 37.5806 37.7306 37.5806 37.8632ZM33.0962 33.3946C33.0962 33.262 33.1489 33.1348 33.2426 33.0411C33.3364 32.9473 33.4636 32.8946 33.5962 32.8946H38.234C38.3667 32.8946 38.4938 32.9473 38.5876 33.0411C38.6814 33.1348 38.734 33.262 38.734 33.3946C38.734 33.5272 38.6814 33.6544 38.5876 33.7482C38.4938 33.842 38.3667 33.8946 38.234 33.8946H33.5962C33.4636 33.8946 33.3364 33.842 33.2426 33.7482C33.1489 33.6544 33.0962 33.5272 33.0962 33.3946ZM41.065 31.4351C41.065 31.5677 41.0123 31.6949 40.9185 31.7887C40.8248 31.8825 40.6976 31.9351 40.565 31.9351H33.5962C33.4636 31.9351 33.3364 31.8825 33.2426 31.7887C33.1489 31.6949 33.0962 31.5677 33.0962 31.4351C33.0962 31.3025 33.1489 31.1753 33.2426 31.0816C33.3364 30.9878 33.4636 30.9351 33.5962 30.9351H40.565C40.6976 30.9351 40.8248 30.9878 40.9185 31.0816C41.0123 31.1753 41.065 31.3025 41.065 31.4351ZM33.0962 28.9261C33.0962 28.7935 33.1489 28.6663 33.2426 28.5725C33.3364 28.4787 33.4636 28.4261 33.5962 28.4261H38.234C38.3667 28.4261 38.4938 28.4787 38.5876 28.5725C38.6814 28.6663 38.734 28.7935 38.734 28.9261C38.734 29.0587 38.6814 29.1859 38.5876 29.2796C38.4938 29.3734 38.3667 29.4261 38.234 29.4261H33.5962C33.4636 29.4261 33.3364 29.3734 33.2426 29.2796C33.1489 29.1859 33.0962 29.0587 33.0962 28.9261ZM41.065 26.9666C41.065 27.0992 41.0123 27.2264 40.9185 27.3201C40.8248 27.4139 40.6976 27.4666 40.565 27.4666H33.5962C33.4636 27.4666 33.3364 27.4139 33.2426 27.3201C33.1489 27.2264 33.0962 27.0992 33.0962 26.9666C33.0962 26.834 33.1489 26.7068 33.2426 26.613C33.3364 26.5192 33.4636 26.4666 33.5962 26.4666H40.565C40.6976 26.4666 40.8248 26.5192 40.9185 26.613C41.0123 26.7068 41.065 26.834 41.065 26.9666ZM40.565 21.998C40.6976 21.998 40.8248 22.0507 40.9185 22.1445C41.0123 22.2382 41.065 22.3654 41.065 22.498C41.065 22.6306 41.0123 22.7578 40.9185 22.8516C40.8248 22.9453 40.6976 22.998 40.565 22.998H33.5962C33.4636 22.998 33.3364 22.9453 33.2426 22.8516C33.1489 22.7578 33.0962 22.6306 33.0962 22.498C33.0962 22.3654 33.1489 22.2382 33.2426 22.1445C33.3364 22.0507 33.4636 21.998 33.5962 21.998H40.565ZM33.0962 24.4574C33.0962 24.3248 33.1489 24.1977 33.2426 24.1039C33.3364 24.0101 33.4636 23.9574 33.5962 23.9574H38.234C38.3667 23.9574 38.4938 24.0101 38.5876 24.1039C38.6814 24.1977 38.734 24.3248 38.734 24.4574C38.734 24.5901 38.6814 24.7172 38.5876 24.811C38.4938 24.9048 38.3667 24.9574 38.234 24.9574H33.5962C33.4636 24.9574 33.3364 24.9048 33.2426 24.811C33.1489 24.7172 33.0962 24.5901 33.0962 24.4574ZM31.6284 26.6559C31.7226 26.7493 31.7759 26.8762 31.7765 27.0088C31.7772 27.1414 31.7251 27.2688 31.6318 27.363L29.7789 29.2333C29.7325 29.2803 29.6772 29.3176 29.6162 29.343C29.5552 29.3684 29.4897 29.3815 29.4237 29.3814C29.2933 29.3815 29.168 29.3306 29.0747 29.2394L28.0411 28.2319C27.9941 28.1861 27.9566 28.1315 27.9307 28.0711C27.9047 28.0108 27.891 27.946 27.8901 27.8803C27.8893 27.8147 27.9014 27.7495 27.9257 27.6885C27.9501 27.6275 27.9862 27.572 28.032 27.5249C28.0779 27.4779 28.1325 27.4404 28.1928 27.4145C28.2532 27.3886 28.318 27.3748 28.3837 27.374C28.4493 27.3731 28.5145 27.3852 28.5755 27.4096C28.6364 27.4339 28.692 27.47 28.739 27.5159L29.4174 28.1772L30.9212 26.6593C30.9674 26.6126 31.0224 26.5755 31.083 26.5501C31.1435 26.5247 31.2085 26.5114 31.2741 26.5111C31.3398 26.5108 31.4049 26.5234 31.4657 26.5483C31.5265 26.5731 31.5818 26.6097 31.6284 26.6559ZM31.6284 22.1874C31.7226 22.2807 31.7759 22.4076 31.7765 22.5402C31.7772 22.6728 31.7251 22.8002 31.6318 22.8944L29.7789 24.7647C29.7325 24.8117 29.6772 24.849 29.6162 24.8744C29.5552 24.8998 29.4897 24.9129 29.4237 24.9128C29.2933 24.913 29.168 24.862 29.0747 24.7709L28.0411 23.7634C27.948 23.6704 27.8952 23.5445 27.8943 23.4129C27.8934 23.2813 27.9444 23.1547 28.0362 23.0605C28.1281 22.9662 28.2534 22.912 28.3849 22.9095C28.5165 22.9071 28.6437 22.9566 28.739 23.0473L29.4174 23.7086L30.9212 22.1907C30.9674 22.144 31.0224 22.1069 31.083 22.0815C31.1435 22.0561 31.2085 22.0429 31.2741 22.0425C31.3398 22.0422 31.4049 22.0549 31.4657 22.0797C31.5265 22.1046 31.5818 22.1412 31.6284 22.1874ZM18.8169 27.9989C18.7506 27.8841 18.7327 27.7476 18.767 27.6195C18.8013 27.4915 18.8851 27.3822 18.9999 27.3159C19.0568 27.2831 19.1196 27.2618 19.1847 27.2532C19.2498 27.2446 19.3159 27.249 19.3793 27.266C19.4428 27.283 19.5022 27.3123 19.5543 27.3523C19.6064 27.3922 19.6501 27.4421 19.6829 27.4989L20.4495 28.8266C20.4934 28.9025 20.5165 28.9887 20.5165 29.0765C20.5165 29.1642 20.4935 29.2504 20.4497 29.3264C20.4058 29.4024 20.3428 29.4655 20.2668 29.5095C20.1909 29.5534 20.1047 29.5765 20.017 29.5766C19.9291 29.5767 19.8428 29.5537 19.7667 29.5098C19.6906 29.4659 19.6274 29.4027 19.5835 29.3266L18.8169 27.9989ZM15.5384 30.7774C15.5713 30.7205 15.615 30.6707 15.6671 30.6307C15.7192 30.5907 15.7786 30.5614 15.842 30.5444C15.9055 30.5274 15.9716 30.5231 16.0367 30.5317C16.1018 30.5402 16.1646 30.5615 16.2215 30.5944L17.5491 31.3609C17.6064 31.3935 17.6567 31.4371 17.6971 31.4892C17.7375 31.5413 17.7672 31.6009 17.7845 31.6645C17.8018 31.7282 17.8063 31.7946 17.7978 31.86C17.7893 31.9254 17.768 31.9884 17.735 32.0455C17.702 32.1026 17.6581 32.1527 17.6057 32.1927C17.5533 32.2328 17.4935 32.2621 17.4298 32.2789C17.366 32.2958 17.2996 32.2999 17.2342 32.2909C17.1689 32.282 17.106 32.2602 17.0491 32.2269L15.7215 31.4604C15.6646 31.4276 15.6148 31.3838 15.5748 31.3318C15.5348 31.2797 15.5055 31.2202 15.4885 31.1568C15.4715 31.0934 15.4672 31.0272 15.4757 30.9621C15.4843 30.897 15.5056 30.8342 15.5384 30.7774ZM16.3045 36.0058H14.7715C14.6389 36.0058 14.5117 35.9531 14.4179 35.8594C14.3242 35.7656 14.2715 35.6384 14.2715 35.5058C14.2715 35.3732 14.3242 35.246 14.4179 35.1523C14.5117 35.0585 14.6389 35.0058 14.7715 35.0058H16.3045C16.3701 35.0058 16.4352 35.0187 16.4958 35.0439C16.5565 35.069 16.6116 35.1058 16.658 35.1522C16.7045 35.1987 16.7413 35.2538 16.7664 35.3144C16.7916 35.3751 16.8045 35.4401 16.8045 35.5058C16.8045 35.5714 16.7916 35.6365 16.7665 35.6971C16.7413 35.7578 16.7045 35.8129 16.6581 35.8594C16.6117 35.9058 16.5565 35.9426 16.4959 35.9677C16.4352 35.9929 16.3702 36.0058 16.3045 36.0058ZM17.7321 38.9677C17.7984 39.0825 17.8164 39.219 17.7821 39.3471C17.7477 39.4752 17.6639 39.5844 17.5491 39.6507L16.2215 40.4172C16.1646 40.45 16.1019 40.4714 16.0368 40.48C15.9716 40.4885 15.9055 40.4842 15.8421 40.4672C15.7786 40.4502 15.7192 40.4209 15.6671 40.3809C15.615 40.3409 15.5713 40.2911 15.5385 40.2342C15.4722 40.1194 15.4542 39.9829 15.4885 39.8548C15.5229 39.7267 15.6066 39.6175 15.7215 39.5512L17.0491 38.7847C17.106 38.7519 17.1687 38.7305 17.2338 38.722C17.2989 38.7134 17.3651 38.7177 17.4285 38.7347C17.4919 38.7517 17.5514 38.781 17.6035 38.821C17.6556 38.861 17.6993 38.9108 17.7321 38.9677Z" fill="#F86307"/>
</g>
<defs>
<clipPath id="clip0_2023_416">
<rect width="32" height="32" fill="white" transform="translate(14 14)"/>
</clipPath>
</defs>
</svg>
