<svg width="398" height="410" viewBox="0 0 398 410" fill="none" xmlns="http://www.w3.org/2000/svg">
<rect x="37" y="20.684" width="331" height="389" rx="20" transform="rotate(-2.8892 37 20.684)" fill="url(#paint0_linear_2030_445)"/>
<g clip-path="url(#clip0_2030_445)">
<path d="M102.494 261.53L99.735 266.561L104.157 267.885L102.849 272.248L97.4879 270.642L94.4569 276.2L89.8265 274.813L92.8575 269.255L86.5212 267.357L83.4902 272.915L78.8946 271.538L81.9256 265.98L76.6686 264.405L77.9757 260.042L84.1727 261.898L86.9319 256.868L81.7097 255.303L83.0168 250.94L89.179 252.786L92.1334 247.357L96.729 248.734L93.7746 254.163L100.111 256.061L103.065 250.632L107.696 252.02L104.741 257.449L109.198 258.784L107.891 263.147L102.494 261.53ZM97.8639 260.143L91.5275 258.244L88.7683 263.275L95.1046 265.174L97.8639 260.143Z" fill="black"/>
<g filter="url(#filter0_d_2030_445)">
<path d="M305.178 95.9002L200.733 64.6093C191.119 61.729 180.984 67.2075 178.097 76.8457L111.174 300.227C108.286 309.865 113.739 320.013 123.353 322.893L227.798 354.184C237.412 357.065 247.546 351.586 250.434 341.948L317.357 118.567C320.244 108.929 314.792 98.7804 305.178 95.9002Z" fill="white"/>
<path d="M305.047 96.3364L200.602 65.0456C191.229 62.2373 181.348 67.5788 178.532 76.9761L111.609 300.357C108.794 309.754 114.11 319.649 123.484 322.457L227.929 353.748C237.302 356.556 247.183 351.215 249.999 341.817L316.922 118.437C319.737 109.039 314.421 99.1447 305.047 96.3364Z" stroke="black"/>
</g>
<path d="M201.731 73.9418L224.971 80.9043C227.081 81.5364 228.035 83.9869 226.911 85.8871C225.485 88.2969 226.696 91.4054 229.371 92.207L263.565 102.451C266.265 103.26 269.059 101.483 269.479 98.6876C269.818 96.441 272.063 95.0127 274.233 95.6629L299.213 103.147C307.145 105.523 311.643 113.895 309.261 121.847L245.475 334.757C243.093 342.708 234.732 347.228 226.8 344.852L129.318 315.647C121.387 313.271 116.888 304.899 119.271 296.947L183.057 84.0369C185.402 76.2096 193.54 71.708 201.359 73.8359L201.731 73.9418Z" fill="white" stroke="black"/>
<path d="M234.761 87.1654L256.52 93.6843" stroke="black" stroke-width="4" stroke-linecap="round"/>
<path d="M262.961 97.5155C263.922 97.8036 264.936 97.2557 265.224 96.2919C265.513 95.3281 264.968 94.3132 264.006 94.0252C263.045 93.7372 262.032 94.285 261.743 95.2489C261.454 96.2127 261.999 97.2275 262.961 97.5155Z" fill="black"/>
<path d="M210.483 194.124L211.427 190.975C210.393 190.476 209.323 190.053 208.228 189.706C197.586 186.493 186.077 190.612 179.817 199.873C173.558 209.134 174 221.39 180.908 230.128C178.737 225.716 177.884 220.763 178.453 215.866C179.023 210.968 180.99 206.337 184.117 202.531C187.243 198.723 191.397 195.905 196.075 194.413C200.755 192.921 205.759 192.821 210.483 194.124Z" fill="#25F4EE"/>
<path d="M200.387 229.972C206.344 231.748 212.652 228.495 214.705 222.588L230.704 169.184L240.402 172.09C240.539 170.914 240.783 169.754 241.133 168.624L227.869 164.65L211.885 218.003C209.862 223.951 203.53 227.246 197.544 225.463C195.76 224.912 194.134 223.943 192.799 222.635C193.398 224.375 194.396 225.946 195.715 227.221C197.033 228.496 198.635 229.438 200.387 229.972ZM253.087 195.635L253.976 192.667C250.406 191.599 247.234 189.495 244.858 186.616C246.549 190.445 249.439 193.611 253.087 195.635Z" fill="#25F4EE"/>
<path d="M244.858 186.616C242.935 182.385 242.612 177.589 243.952 173.125L240.411 172.064C240.129 174.669 240.377 177.303 241.142 179.805C241.907 182.307 243.171 184.625 244.858 186.616ZM204.231 203.052C201.744 202.32 199.083 202.446 196.669 203.41C194.256 204.374 192.23 206.119 190.913 208.369C189.596 210.619 189.064 213.245 189.401 215.829C189.738 218.412 190.926 220.805 192.775 222.628C192.073 220.599 191.944 218.413 192.401 216.311C192.859 214.21 193.885 212.274 195.367 210.718C196.849 209.162 198.728 208.048 200.797 207.496C202.866 206.945 205.044 206.978 207.093 207.593C208.202 207.941 209.255 208.447 210.221 209.095L214.289 195.517C213.251 195.027 212.18 194.612 211.083 194.275L210.492 194.098L207.399 204.422C206.416 203.813 205.349 203.351 204.231 203.052Z" fill="#FE2C55"/>
<path d="M253.087 195.635L249.994 205.961C243.39 203.968 237.585 199.936 233.4 194.435L225.273 221.563C221.189 235.092 206.991 242.78 193.536 238.749C188.536 237.261 184.124 234.248 180.909 230.128C183.159 234.728 186.738 238.537 191.18 241.058C195.621 243.578 200.719 244.692 205.811 244.257C210.902 243.821 215.749 241.855 219.721 238.615C223.694 235.375 226.607 231.01 228.082 226.091L236.187 199.039C240.398 204.52 246.219 208.527 252.829 210.495L256.812 197.2C255.52 196.809 254.271 196.285 253.087 195.635Z" fill="#FE2C55"/>
<path d="M225.274 221.564L233.402 194.435C237.609 199.919 243.432 203.926 250.044 205.891L253.137 195.567C249.482 193.567 246.577 190.426 244.858 186.616C243.172 184.625 241.908 182.307 241.142 179.805C240.378 177.304 240.129 174.669 240.411 172.064L230.714 169.158L214.706 222.589C213.915 224.887 212.433 226.882 210.465 228.297C208.495 229.713 206.14 230.478 203.723 230.487C201.307 230.496 198.95 229.749 196.981 228.348C195.011 226.948 193.526 224.964 192.733 222.672C190.884 220.85 189.696 218.457 189.359 215.873C189.021 213.289 189.554 210.663 190.871 208.413C192.187 206.163 194.214 204.416 196.627 203.453C199.041 202.49 201.703 202.364 204.19 203.096C205.302 203.439 206.356 203.944 207.32 204.595L210.413 194.271C205.67 192.937 200.638 193.022 195.932 194.512C191.227 196.003 187.049 198.836 183.91 202.667C180.771 206.497 178.805 211.159 178.252 216.084C177.701 221.01 178.585 225.985 180.799 230.404C184.083 234.441 188.532 237.355 193.537 238.749C206.992 242.78 221.19 235.092 225.274 221.564Z" fill="black"/>
<path d="M136.689 268.884L190.653 285.051" stroke="black" stroke-width="2" stroke-linecap="round"/>
<path d="M134.074 277.609L215.019 301.86" stroke="black" stroke-width="2" stroke-linecap="round"/>
<path d="M131.46 286.335L212.405 310.586" stroke="black" stroke-width="2" stroke-linecap="round"/>
<path d="M128.846 295.061L209.791 319.312" stroke="black" stroke-width="2" stroke-linecap="round"/>
<path d="M126.232 303.787L207.177 328.037" stroke="black" stroke-width="2" stroke-linecap="round"/>
<path d="M193.851 79.6638C194.572 79.8799 195.333 79.469 195.549 78.7461C195.766 78.0232 195.357 77.2621 194.636 77.0461C193.915 76.8301 193.155 77.241 192.938 77.9638C192.721 78.6867 193.13 79.4478 193.851 79.6638Z" fill="#D9D9D9" fill-opacity="0.58"/>
<path d="M191.499 87.5171C192.22 87.7331 192.98 87.3222 193.197 86.5993C193.413 85.8765 193.004 85.1153 192.283 84.8993C191.562 84.6833 190.802 85.0942 190.585 85.8171C190.369 86.5399 190.778 87.3011 191.499 87.5171Z" fill="#D9D9D9" fill-opacity="0.58"/>
<path d="M189.146 95.3703C189.867 95.5863 190.627 95.1754 190.844 94.4526C191.061 93.7297 190.652 92.9686 189.931 92.7526C189.21 92.5365 188.449 92.9474 188.233 93.6703C188.016 94.3932 188.425 95.1543 189.146 95.3703Z" fill="#D9D9D9" fill-opacity="0.58"/>
<path d="M186.793 103.224C187.514 103.44 188.274 103.029 188.49 102.306C188.707 101.583 188.298 100.822 187.577 100.606C186.856 100.39 186.096 100.801 185.879 101.524C185.663 102.246 186.072 103.008 186.793 103.224Z" fill="#D9D9D9" fill-opacity="0.58"/>
<path d="M184.44 111.077C185.161 111.293 185.921 110.882 186.138 110.159C186.355 109.436 185.946 108.675 185.225 108.459C184.503 108.243 183.743 108.654 183.527 109.377C183.31 110.1 183.719 110.861 184.44 111.077Z" fill="#D9D9D9" fill-opacity="0.58"/>
<path d="M182.088 118.93C182.809 119.146 183.569 118.735 183.785 118.012C184.002 117.289 183.593 116.528 182.872 116.312C182.151 116.096 181.391 116.507 181.174 117.23C180.958 117.953 181.367 118.714 182.088 118.93Z" fill="#D9D9D9" fill-opacity="0.58"/>
<path d="M179.735 126.783C180.456 126.999 181.216 126.588 181.433 125.865C181.649 125.143 181.24 124.382 180.519 124.165C179.798 123.949 179.038 124.36 178.822 125.083C178.605 125.806 179.014 126.567 179.735 126.783Z" fill="#D9D9D9" fill-opacity="0.58"/>
<path d="M177.383 134.636C178.104 134.852 178.864 134.442 179.08 133.719C179.297 132.996 178.888 132.235 178.167 132.019C177.446 131.803 176.686 132.214 176.469 132.936C176.253 133.659 176.662 134.42 177.383 134.636Z" fill="#D9D9D9" fill-opacity="0.58"/>
<path d="M175.03 142.49C175.751 142.706 176.511 142.295 176.728 141.572C176.944 140.849 176.535 140.088 175.814 139.872C175.093 139.656 174.333 140.067 174.117 140.79C173.9 141.513 174.309 142.274 175.03 142.49Z" fill="#D9D9D9" fill-opacity="0.58"/>
<path d="M202.555 82.2714C203.276 82.4874 204.036 82.0765 204.252 81.3537C204.469 80.6308 204.06 79.8697 203.339 79.6537C202.618 79.4376 201.858 79.8485 201.641 80.5714C201.425 81.2943 201.833 82.0554 202.555 82.2714Z" fill="#D9D9D9" fill-opacity="0.58"/>
<path d="M200.203 90.1246C200.924 90.3407 201.684 89.9298 201.901 89.2069C202.117 88.484 201.708 87.7229 200.987 87.5069C200.266 87.2909 199.506 87.7018 199.29 88.4246C199.073 89.1475 199.482 89.9086 200.203 90.1246Z" fill="#D9D9D9" fill-opacity="0.58"/>
<path d="M197.849 97.9779C198.57 98.1939 199.331 97.783 199.547 97.0601C199.764 96.3373 199.355 95.5761 198.634 95.3601C197.913 95.1441 197.153 95.555 196.936 96.2779C196.719 97.0007 197.128 97.7619 197.849 97.9779Z" fill="#D9D9D9" fill-opacity="0.58"/>
<path d="M195.498 105.831C196.219 106.047 196.979 105.636 197.196 104.913C197.412 104.191 197.003 103.429 196.282 103.213C195.561 102.997 194.801 103.408 194.584 104.131C194.368 104.854 194.777 105.615 195.498 105.831Z" fill="#D9D9D9" fill-opacity="0.58"/>
<path d="M193.144 113.684C193.865 113.9 194.625 113.489 194.842 112.767C195.059 112.044 194.65 111.283 193.929 111.067C193.208 110.851 192.447 111.261 192.231 111.984C192.014 112.707 192.423 113.468 193.144 113.684Z" fill="#D9D9D9" fill-opacity="0.58"/>
<path d="M190.792 121.538C191.513 121.754 192.273 121.343 192.49 120.62C192.706 119.897 192.297 119.136 191.576 118.92C190.855 118.704 190.095 119.115 189.878 119.838C189.662 120.56 190.071 121.322 190.792 121.538Z" fill="#D9D9D9" fill-opacity="0.58"/>
<path d="M188.439 129.391C189.16 129.607 189.92 129.196 190.137 128.473C190.354 127.75 189.945 126.989 189.224 126.773C188.502 126.557 187.742 126.968 187.526 127.691C187.309 128.414 187.718 129.175 188.439 129.391Z" fill="#D9D9D9" fill-opacity="0.58"/>
<path d="M186.086 137.244C186.807 137.46 187.567 137.049 187.783 136.326C188 135.603 187.591 134.842 186.87 134.626C186.149 134.41 185.389 134.821 185.172 135.544C184.956 136.267 185.365 137.028 186.086 137.244Z" fill="#D9D9D9" fill-opacity="0.58"/>
<path d="M183.733 145.097C184.454 145.313 185.214 144.902 185.431 144.18C185.647 143.457 185.239 142.696 184.517 142.48C183.796 142.263 183.036 142.674 182.82 143.397C182.603 144.12 183.012 144.881 183.733 145.097Z" fill="#D9D9D9" fill-opacity="0.58"/>
<path d="M211.26 84.879C211.981 85.095 212.741 84.6841 212.957 83.9612C213.174 83.2384 212.765 82.4773 212.044 82.2612C211.323 82.0452 210.563 82.4561 210.346 83.179C210.13 83.9018 210.539 84.663 211.26 84.879Z" fill="#D9D9D9" fill-opacity="0.58"/>
<path d="M208.906 92.7322C209.627 92.9482 210.387 92.5373 210.604 91.8145C210.82 91.0916 210.411 90.3305 209.69 90.1145C208.969 89.8984 208.209 90.3093 207.993 91.0322C207.776 91.7551 208.185 92.5162 208.906 92.7322Z" fill="#D9D9D9" fill-opacity="0.58"/>
<path d="M206.555 100.585C207.276 100.801 208.036 100.391 208.252 99.6677C208.469 98.9448 208.06 98.1837 207.339 97.9677C206.618 97.7517 205.858 98.1626 205.641 98.8854C205.425 99.6083 205.833 100.369 206.555 100.585Z" fill="#D9D9D9" fill-opacity="0.58"/>
<path d="M204.201 108.439C204.922 108.655 205.682 108.244 205.899 107.521C206.115 106.798 205.706 106.037 204.985 105.821C204.264 105.605 203.504 106.016 203.288 106.739C203.071 107.462 203.48 108.223 204.201 108.439Z" fill="#D9D9D9" fill-opacity="0.58"/>
<path d="M201.847 116.292C202.569 116.508 203.329 116.097 203.545 115.374C203.762 114.651 203.353 113.89 202.632 113.674C201.911 113.458 201.151 113.869 200.934 114.592C200.717 115.315 201.126 116.076 201.847 116.292Z" fill="#D9D9D9" fill-opacity="0.58"/>
<path d="M199.496 124.145C200.217 124.361 200.977 123.95 201.194 123.227C201.41 122.505 201.001 121.743 200.28 121.527C199.559 121.311 198.799 121.722 198.582 122.445C198.366 123.168 198.775 123.929 199.496 124.145Z" fill="#D9D9D9" fill-opacity="0.58"/>
<path d="M197.142 131.998C197.863 132.214 198.624 131.804 198.84 131.081C199.057 130.358 198.648 129.597 197.927 129.381C197.206 129.165 196.446 129.576 196.229 130.298C196.012 131.021 196.421 131.782 197.142 131.998Z" fill="#D9D9D9" fill-opacity="0.58"/>
<path d="M194.79 139.852C195.511 140.068 196.271 139.657 196.488 138.934C196.704 138.211 196.295 137.45 195.574 137.234C194.853 137.018 194.093 137.429 193.876 138.152C193.66 138.874 194.069 139.636 194.79 139.852Z" fill="#D9D9D9" fill-opacity="0.58"/>
<path d="M192.437 147.705C193.158 147.921 193.918 147.51 194.135 146.787C194.352 146.064 193.943 145.303 193.222 145.087C192.501 144.871 191.74 145.282 191.524 146.005C191.307 146.728 191.716 147.489 192.437 147.705Z" fill="#D9D9D9" fill-opacity="0.58"/>
<path d="M219.963 87.4866C220.684 87.7026 221.444 87.2917 221.66 86.5688C221.877 85.846 221.468 85.0848 220.747 84.8688C220.026 84.6528 219.266 85.0637 219.049 85.7865C218.833 86.5094 219.242 87.2705 219.963 87.4866Z" fill="#D9D9D9" fill-opacity="0.58"/>
<path d="M217.61 95.3398C218.331 95.5558 219.091 95.1449 219.308 94.422C219.524 93.6992 219.115 92.938 218.394 92.722C217.673 92.506 216.913 92.9169 216.697 93.6398C216.48 94.3626 216.889 95.1237 217.61 95.3398Z" fill="#D9D9D9" fill-opacity="0.58"/>
<path d="M215.258 103.193C215.979 103.409 216.739 102.998 216.955 102.275C217.172 101.552 216.763 100.791 216.042 100.575C215.321 100.359 214.561 100.77 214.344 101.493C214.128 102.216 214.537 102.977 215.258 103.193Z" fill="#D9D9D9" fill-opacity="0.58"/>
<path d="M212.905 111.046C213.626 111.262 214.386 110.851 214.603 110.129C214.819 109.406 214.41 108.645 213.689 108.429C212.968 108.213 212.208 108.623 211.992 109.346C211.775 110.069 212.184 110.83 212.905 111.046Z" fill="#D9D9D9" fill-opacity="0.58"/>
<path d="M210.553 118.9C211.274 119.116 212.034 118.705 212.25 117.982C212.467 117.259 212.058 116.498 211.337 116.282C210.616 116.066 209.856 116.477 209.639 117.199C209.423 117.922 209.832 118.683 210.553 118.9Z" fill="#D9D9D9" fill-opacity="0.58"/>
<path d="M208.199 126.753C208.92 126.969 209.68 126.558 209.897 125.835C210.113 125.112 209.704 124.351 208.983 124.135C208.262 123.919 207.502 124.33 207.286 125.053C207.069 125.776 207.478 126.537 208.199 126.753Z" fill="#D9D9D9" fill-opacity="0.58"/>
<path d="M205.846 134.606C206.567 134.822 207.327 134.411 207.543 133.688C207.76 132.965 207.351 132.204 206.63 131.988C205.909 131.772 205.149 132.183 204.932 132.906C204.716 133.629 205.124 134.39 205.846 134.606Z" fill="#D9D9D9" fill-opacity="0.58"/>
<path d="M203.494 142.459C204.215 142.675 204.975 142.264 205.192 141.541C205.408 140.819 204.999 140.057 204.278 139.841C203.557 139.625 202.797 140.036 202.581 140.759C202.364 141.482 202.773 142.243 203.494 142.459Z" fill="#D9D9D9" fill-opacity="0.58"/>
<path d="M201.14 150.312C201.861 150.528 202.622 150.118 202.838 149.395C203.055 148.672 202.646 147.911 201.925 147.695C201.204 147.479 200.444 147.89 200.227 148.612C200.01 149.335 200.419 150.096 201.14 150.312Z" fill="#D9D9D9" fill-opacity="0.58"/>
<path d="M226.314 97.9473C227.035 98.1634 227.795 97.7525 228.012 97.0296C228.229 96.3067 227.82 95.5456 227.099 95.3296C226.377 95.1136 225.617 95.5245 225.401 96.2473C225.184 96.9702 225.593 97.7313 226.314 97.9473Z" fill="#D9D9D9" fill-opacity="0.58"/>
<path d="M223.961 105.801C224.682 106.017 225.442 105.606 225.658 104.883C225.875 104.16 225.466 103.399 224.745 103.183C224.024 102.967 223.264 103.378 223.047 104.101C222.831 104.823 223.24 105.585 223.961 105.801Z" fill="#D9D9D9" fill-opacity="0.58"/>
<path d="M221.608 113.654C222.329 113.87 223.089 113.459 223.306 112.736C223.522 112.013 223.114 111.252 222.392 111.036C221.671 110.82 220.911 111.231 220.695 111.954C220.478 112.677 220.887 113.438 221.608 113.654Z" fill="#D9D9D9" fill-opacity="0.58"/>
<path d="M219.256 121.507C219.977 121.723 220.737 121.312 220.953 120.589C221.17 119.866 220.761 119.105 220.04 118.889C219.319 118.673 218.559 119.084 218.342 119.807C218.126 120.53 218.535 121.291 219.256 121.507Z" fill="#D9D9D9" fill-opacity="0.58"/>
<path d="M216.903 129.36C217.624 129.576 218.384 129.165 218.601 128.443C218.817 127.72 218.408 126.959 217.687 126.743C216.966 126.527 216.206 126.937 215.99 127.66C215.773 128.383 216.182 129.144 216.903 129.36Z" fill="#D9D9D9" fill-opacity="0.58"/>
<path d="M214.551 137.214C215.272 137.43 216.032 137.019 216.248 136.296C216.465 135.573 216.056 134.812 215.335 134.596C214.614 134.38 213.854 134.791 213.637 135.514C213.421 136.236 213.83 136.998 214.551 137.214Z" fill="#D9D9D9" fill-opacity="0.58"/>
<path d="M212.197 145.067C212.918 145.283 213.678 144.872 213.895 144.149C214.111 143.426 213.702 142.665 212.981 142.449C212.26 142.233 211.5 142.644 211.284 143.367C211.067 144.09 211.476 144.851 212.197 145.067Z" fill="#D9D9D9" fill-opacity="0.58"/>
<path d="M209.845 152.92C210.566 153.136 211.326 152.725 211.542 152.002C211.759 151.279 211.35 150.518 210.629 150.302C209.908 150.086 209.148 150.497 208.931 151.22C208.715 151.943 209.124 152.704 209.845 152.92Z" fill="#D9D9D9" fill-opacity="0.58"/>
<path d="M235.017 100.555C235.738 100.771 236.499 100.36 236.715 99.6372C236.932 98.9143 236.523 98.1532 235.802 97.9372C235.081 97.7212 234.321 98.1321 234.104 98.8549C233.887 99.5778 234.296 100.339 235.017 100.555Z" fill="#D9D9D9" fill-opacity="0.58"/>
<path d="M232.665 108.408C233.386 108.624 234.146 108.213 234.363 107.49C234.579 106.768 234.17 106.006 233.449 105.79C232.728 105.574 231.968 105.985 231.751 106.708C231.535 107.431 231.944 108.192 232.665 108.408Z" fill="#D9D9D9" fill-opacity="0.58"/>
<path d="M230.312 116.261C231.033 116.477 231.793 116.067 232.01 115.344C232.227 114.621 231.818 113.86 231.097 113.644C230.376 113.428 229.615 113.839 229.399 114.561C229.182 115.284 229.591 116.045 230.312 116.261Z" fill="#D9D9D9" fill-opacity="0.58"/>
<path d="M227.96 124.115C228.681 124.331 229.441 123.92 229.657 123.197C229.874 122.474 229.465 121.713 228.744 121.497C228.023 121.281 227.263 121.692 227.046 122.415C226.83 123.137 227.239 123.899 227.96 124.115Z" fill="#D9D9D9" fill-opacity="0.58"/>
<path d="M225.606 131.968C226.327 132.184 227.087 131.773 227.304 131.05C227.521 130.327 227.112 129.566 226.391 129.35C225.669 129.134 224.909 129.545 224.693 130.268C224.476 130.991 224.885 131.752 225.606 131.968Z" fill="#D9D9D9" fill-opacity="0.58"/>
<path d="M223.254 139.821C223.975 140.037 224.735 139.626 224.951 138.903C225.168 138.18 224.759 137.419 224.038 137.203C223.317 136.987 222.557 137.398 222.34 138.121C222.124 138.844 222.533 139.605 223.254 139.821Z" fill="#D9D9D9" fill-opacity="0.58"/>
<path d="M220.901 147.674C221.622 147.89 222.382 147.479 222.599 146.757C222.815 146.034 222.406 145.273 221.685 145.057C220.964 144.841 220.204 145.251 219.988 145.974C219.771 146.697 220.18 147.458 220.901 147.674Z" fill="#D9D9D9" fill-opacity="0.58"/>
<path d="M218.549 155.528C219.27 155.744 220.03 155.333 220.246 154.61C220.463 153.887 220.054 153.126 219.333 152.91C218.612 152.694 217.852 153.105 217.635 153.828C217.419 154.55 217.828 155.312 218.549 155.528Z" fill="#D9D9D9" fill-opacity="0.58"/>
<path d="M243.722 103.163C244.443 103.379 245.203 102.968 245.419 102.245C245.636 101.522 245.227 100.761 244.506 100.545C243.785 100.329 243.025 100.74 242.808 101.462C242.592 102.185 243 102.946 243.722 103.163Z" fill="#D9D9D9" fill-opacity="0.58"/>
<path d="M241.368 111.016C242.089 111.232 242.849 110.821 243.066 110.098C243.282 109.375 242.873 108.614 242.152 108.398C241.431 108.182 240.671 108.593 240.455 109.316C240.238 110.039 240.647 110.8 241.368 111.016Z" fill="#D9D9D9" fill-opacity="0.58"/>
<path d="M239.015 118.869C239.736 119.085 240.497 118.674 240.713 117.951C240.93 117.228 240.521 116.467 239.8 116.251C239.079 116.035 238.319 116.446 238.102 117.169C237.885 117.892 238.294 118.653 239.015 118.869Z" fill="#D9D9D9" fill-opacity="0.58"/>
<path d="M236.663 126.722C237.384 126.938 238.144 126.527 238.361 125.804C238.577 125.082 238.168 124.32 237.447 124.104C236.726 123.888 235.966 124.299 235.749 125.022C235.533 125.745 235.942 126.506 236.663 126.722Z" fill="#D9D9D9" fill-opacity="0.58"/>
<path d="M234.31 134.575C235.031 134.791 235.791 134.381 236.008 133.658C236.225 132.935 235.816 132.174 235.095 131.958C234.374 131.742 233.614 132.153 233.397 132.875C233.18 133.598 233.589 134.359 234.31 134.575Z" fill="#D9D9D9" fill-opacity="0.58"/>
<path d="M231.958 142.429C232.679 142.645 233.439 142.234 233.656 141.511C233.872 140.788 233.463 140.027 232.742 139.811C232.021 139.595 231.261 140.006 231.044 140.729C230.828 141.452 231.237 142.213 231.958 142.429Z" fill="#D9D9D9" fill-opacity="0.58"/>
<path d="M229.604 150.282C230.325 150.498 231.085 150.087 231.302 149.364C231.519 148.641 231.11 147.88 230.389 147.664C229.668 147.448 228.907 147.859 228.691 148.582C228.474 149.305 228.883 150.066 229.604 150.282Z" fill="#D9D9D9" fill-opacity="0.58"/>
<path d="M227.252 158.135C227.973 158.351 228.733 157.94 228.949 157.217C229.166 156.495 228.757 155.733 228.036 155.517C227.315 155.301 226.555 155.712 226.338 156.435C226.122 157.158 226.531 157.919 227.252 158.135Z" fill="#D9D9D9" fill-opacity="0.58"/>
<path d="M284.176 131.98C284.425 131.319 284.472 130.7 284.316 130.12C284.161 129.541 283.801 129.053 283.237 128.656L280.112 134.909C281.439 135.712 282.492 136.42 283.27 137.034C284.047 137.647 284.637 138.42 285.041 139.352C285.468 140.291 285.5 141.366 285.137 142.576C284.998 143.041 284.816 143.481 284.59 143.895C284.019 145.043 283.167 146.03 282.034 146.857C280.931 147.668 279.625 148.227 278.116 148.536C276.615 148.822 275.022 148.775 273.339 148.398L272.005 151.079L269.742 150.401L271.087 147.685C269.093 146.91 267.643 145.842 266.735 144.48C265.828 143.118 265.629 141.587 266.138 139.889C266.25 139.516 266.403 139.131 266.598 138.733L271.82 140.298C271.507 141.091 271.444 141.808 271.631 142.447C271.819 143.087 272.26 143.599 272.954 143.985L276.145 137.638C274.818 136.835 273.765 136.126 272.988 135.513C272.218 134.876 271.616 134.1 271.182 133.184C270.778 132.252 270.761 131.169 271.131 129.936C271.277 129.447 271.463 128.995 271.688 128.581C272.643 126.661 274.147 125.312 276.202 124.532C278.28 123.76 280.53 123.636 282.953 124.159L284.288 121.478L286.516 122.145L285.181 124.826C287.121 125.61 288.496 126.681 289.303 128.039C290.117 129.373 290.26 130.925 289.73 132.693C289.618 133.065 289.52 133.353 289.433 133.555L284.176 131.98ZM276.879 129.87C276.821 129.979 276.757 130.151 276.688 130.383C276.506 130.988 276.55 131.559 276.819 132.096C277.095 132.61 277.551 133.114 278.187 133.609L281.086 127.859C280.169 127.712 279.344 127.807 278.61 128.145C277.876 128.483 277.3 129.058 276.879 129.87ZM279.445 142.582C279.503 142.473 279.567 142.302 279.636 142.069C279.811 141.487 279.759 140.939 279.484 140.426C279.208 139.912 278.752 139.408 278.116 138.913L275.217 144.663C276.171 144.771 277.018 144.644 277.759 144.283C278.507 143.899 279.068 143.332 279.445 142.582Z" fill="black"/>
<path d="M234.291 313.13C234.416 312.799 234.438 312.489 234.361 312.2C234.283 311.91 234.103 311.666 233.821 311.467L232.259 314.594C232.923 314.995 233.448 315.349 233.837 315.656C234.226 315.963 234.521 316.349 234.723 316.815C234.936 317.285 234.953 317.823 234.771 318.427C234.702 318.66 234.61 318.88 234.498 319.087C234.212 319.661 233.786 320.155 233.22 320.568C232.668 320.973 232.015 321.253 231.261 321.407C230.509 321.55 229.714 321.527 228.872 321.338L228.205 322.679L227.074 322.34L227.746 320.982C226.749 320.595 226.024 320.06 225.57 319.379C225.117 318.699 225.017 317.933 225.272 317.084C225.327 316.898 225.404 316.705 225.502 316.506L228.113 317.288C227.956 317.685 227.925 318.043 228.018 318.363C228.112 318.683 228.332 318.939 228.68 319.132L230.275 315.958C229.611 315.557 229.086 315.203 228.697 314.896C228.311 314.578 228.01 314.189 227.794 313.731C227.592 313.265 227.583 312.724 227.768 312.107C227.841 311.863 227.934 311.637 228.047 311.43C228.524 310.47 229.276 309.795 230.304 309.406C231.342 309.02 232.468 308.958 233.679 309.219L234.346 307.878L235.461 308.212L234.793 309.553C235.764 309.945 236.451 310.48 236.854 311.159C237.261 311.826 237.332 312.602 237.067 313.486C237.012 313.672 236.962 313.816 236.919 313.917L234.291 313.13ZM230.642 312.074C230.613 312.13 230.581 312.215 230.546 312.331C230.456 312.634 230.477 312.919 230.612 313.188C230.75 313.445 230.979 313.697 231.296 313.944L232.746 311.069C232.287 310.995 231.874 311.043 231.508 311.212C231.141 311.381 230.852 311.669 230.642 312.074ZM231.925 318.43C231.954 318.375 231.986 318.29 232.021 318.174C232.108 317.883 232.083 317.61 231.944 317.352C231.806 317.095 231.578 316.843 231.261 316.596L229.811 319.471C230.288 319.525 230.712 319.462 231.082 319.281C231.456 319.089 231.737 318.805 231.925 318.43Z" fill="black"/>
<mask id="mask0_2030_445" style="mask-type:luminance" maskUnits="userSpaceOnUse" x="149" y="19" width="43" height="43">
<path d="M191.344 29.4656L159.141 19.8176L149.468 52.1031L181.672 61.7511L191.344 29.4656Z" fill="white"/>
</mask>
<g mask="url(#mask0_2030_445)">
<path d="M166.922 28.0126L160.474 49.5362L181.142 44.0005L166.922 28.0126Z" stroke="black" stroke-width="2" stroke-linecap="round" stroke-linejoin="round"/>
</g>
<path d="M93.585 317.779L89.2279 332.322L103.193 328.581L93.585 317.779Z" stroke="black" stroke-width="2" stroke-linecap="round" stroke-linejoin="round"/>
<path d="M359.455 218.662C362.632 208.06 356.634 196.897 346.058 193.729C335.483 190.56 324.335 196.587 321.159 207.189C317.983 217.791 323.981 228.954 334.556 232.122C345.131 235.29 356.279 229.264 359.455 218.662Z" fill="#5A40FF"/>
<path d="M335.255 200.635L329.33 220.413L348.322 215.327L335.255 200.635Z" fill="#D9D9D9" stroke="black" stroke-width="2" stroke-linecap="round" stroke-linejoin="round"/>
<g filter="url(#filter1_d_2030_445)">
<mask id="mask1_2030_445" style="mask-type:luminance" maskUnits="userSpaceOnUse" x="44" y="74" width="115" height="115">
<path d="M158.678 100.506L70.7705 74.1694L44.3672 162.3L132.275 188.637L158.678 100.506Z" fill="white"/>
</mask>
<g mask="url(#mask1_2030_445)">
<path d="M63.057 139.888C62.1818 142.809 62.5001 145.958 63.9418 148.641C65.3835 151.325 67.8307 153.323 70.7451 154.196C73.6594 155.069 76.8021 154.746 79.4818 153.297C82.1616 151.848 84.1587 149.393 85.034 146.472C85.9095 143.55 85.5912 140.401 84.1494 137.717C82.7075 135.034 80.2603 133.037 77.3459 132.163C74.4315 131.29 71.2889 131.613 68.6094 133.062C65.9296 134.51 63.9325 136.965 63.057 139.888Z" stroke="black" stroke-width="2" stroke-linecap="round" stroke-linejoin="round"/>
<path d="M99.6849 150.861C98.8097 153.783 99.128 156.931 100.57 159.615C102.011 162.299 104.459 164.296 107.373 165.17C110.287 166.043 113.43 165.72 116.11 164.271C118.79 162.822 120.787 160.367 121.662 157.445C122.537 154.523 122.219 151.374 120.777 148.691C119.335 146.008 116.888 144.01 113.974 143.137C111.059 142.264 107.917 142.587 105.237 144.035C102.558 145.484 100.56 147.939 99.6849 150.861Z" stroke="black" stroke-width="2" stroke-linecap="round" stroke-linejoin="round"/>
<path d="M85.034 146.472L99.3359 98.7338L135.964 109.707L121.662 157.445" stroke="black" stroke-width="2" stroke-linecap="round" stroke-linejoin="round"/>
<path d="M94.9355 113.423L131.564 124.396" stroke="black" stroke-width="2" stroke-linecap="round" stroke-linejoin="round"/>
</g>
</g>
</g>
<defs>
<filter id="filter0_d_2030_445" x="110.355" y="63.7972" width="213.92" height="297.299" filterUnits="userSpaceOnUse" color-interpolation-filters="sRGB">
<feFlood flood-opacity="0" result="BackgroundImageFix"/>
<feColorMatrix in="SourceAlpha" type="matrix" values="0 0 0 0 0 0 0 0 0 0 0 0 0 0 0 0 0 0 127 0" result="hardAlpha"/>
<feOffset dx="6" dy="6"/>
<feGaussianBlur stdDeviation="0.05"/>
<feComposite in2="hardAlpha" operator="out"/>
<feColorMatrix type="matrix" values="0 0 0 0 0.353571 0 0 0 0 0.25 0 0 0 0 1 0 0 0 1 0"/>
<feBlend mode="normal" in2="BackgroundImageFix" result="effect1_dropShadow_2030_445"/>
<feBlend mode="normal" in="SourceGraphic" in2="effect1_dropShadow_2030_445" result="shape"/>
</filter>
<filter id="filter1_d_2030_445" x="48.5723" y="97.7335" width="88.3926" height="76.9175" filterUnits="userSpaceOnUse" color-interpolation-filters="sRGB">
<feFlood flood-opacity="0" result="BackgroundImageFix"/>
<feColorMatrix in="SourceAlpha" type="matrix" values="0 0 0 0 0 0 0 0 0 0 0 0 0 0 0 0 0 0 127 0" result="hardAlpha"/>
<feOffset dx="-9" dy="4"/>
<feGaussianBlur stdDeviation="2"/>
<feComposite in2="hardAlpha" operator="out"/>
<feColorMatrix type="matrix" values="0 0 0 0 0.894118 0 0 0 0 0.215686 0 0 0 0 0.152941 0 0 0 1 0"/>
<feBlend mode="normal" in2="BackgroundImageFix" result="effect1_dropShadow_2030_445"/>
<feBlend mode="normal" in="SourceGraphic" in2="effect1_dropShadow_2030_445" result="shape"/>
</filter>
<linearGradient id="paint0_linear_2030_445" x1="202.5" y1="20.684" x2="202.5" y2="409.684" gradientUnits="userSpaceOnUse">
<stop stop-color="#5A40FF"/>
<stop offset="1" stop-color="#E6398A"/>
</linearGradient>
<clipPath id="clip0_2030_445">
<rect width="318.008" height="320.637" fill="white" transform="translate(92.9912) rotate(16.6778)"/>
</clipPath>
</defs>
</svg>
