<svg width="60" height="60" viewBox="0 0 60 60" fill="none" xmlns="http://www.w3.org/2000/svg">
<rect width="60" height="60" rx="30" fill="#FFF6DD"/>
<path d="M45 32.5276V28.4724C45 28.3535 44.9576 28.2385 44.8805 28.148C44.8033 28.0576 44.6965 27.9975 44.5791 27.9788L42.0985 27.5817C41.7774 26.1887 41.2311 24.8711 40.4711 23.6564L41.9453 21.6203C42.015 21.524 42.0482 21.406 42.0388 21.2875C42.0293 21.1689 41.978 21.0577 41.8939 20.9736L39.0265 18.1062C38.9424 18.0221 38.8311 17.9708 38.7126 17.9613C38.594 17.9519 38.476 17.985 38.3797 18.0547L36.3436 19.5289C35.1285 18.7688 33.8111 18.2226 32.4183 17.9015L32.0212 15.421C32.0025 15.3036 31.9424 15.1967 31.8519 15.1195C31.7615 15.0424 31.6464 15 31.5275 15H27.4724C27.3535 15 27.2385 15.0424 27.148 15.1195C27.0575 15.1967 26.9975 15.3035 26.9787 15.4209L26.5816 17.9014C25.1887 18.2226 23.8711 18.7687 22.6563 19.5288L20.6203 18.0547C20.5239 17.985 20.4059 17.9519 20.2874 17.9613C20.1688 17.9707 20.0575 18.0221 19.9734 18.1061L17.106 20.9735C17.0219 21.0576 16.9706 21.1689 16.9611 21.2874C16.9517 21.406 16.9849 21.524 17.0546 21.6203L18.5288 23.6564C17.7684 24.8719 17.2223 26.1892 16.9014 27.5816L14.4209 27.9787C14.3035 27.9975 14.1966 28.0575 14.1195 28.148C14.0423 28.2385 14 28.3535 14 28.4724V32.5276C14 32.6465 14.0424 32.7615 14.1195 32.852C14.1967 32.9424 14.3035 33.0025 14.4209 33.0212L16.9014 33.4183C17.2226 34.8112 17.7688 36.1288 18.5289 37.3436L17.0547 39.3797C16.985 39.476 16.9518 39.594 16.9612 39.7125C16.9707 39.8311 17.022 39.9423 17.1061 40.0264L19.9735 42.8938C20.0576 42.9779 20.1689 43.0292 20.2874 43.0387C20.406 43.0481 20.524 43.015 20.6203 42.9452L22.6564 41.4711C23.8719 42.2314 25.1894 42.7777 26.5817 43.0985L26.9788 45.579C26.9976 45.6964 27.0576 45.8033 27.1481 45.8804C27.2385 45.9576 27.3535 45.9999 27.4724 45.9999H31.5276C31.6465 45.9999 31.7615 45.9576 31.8519 45.8804C31.9424 45.8033 32.0024 45.6964 32.0212 45.579L32.3775 43.3537C33.6798 44.9664 35.6721 45.9999 37.9016 45.9999C41.8157 46 45 42.8157 45 38.9016C45 36.6721 43.9664 34.6798 42.3537 33.3774L44.579 33.0212C44.6964 33.0025 44.8033 32.9425 44.8805 32.852C44.9577 32.7615 45 32.6465 45 32.5276ZM38.4314 31.8231C38.2551 31.8099 38.0784 31.8033 37.9016 31.8033C36.8282 31.8033 35.8101 32.0433 34.8971 32.4716V31.6809C34.8971 30.4995 34.0024 29.6001 32.4424 29.2131C31.9067 29.0802 31.3628 28.9825 30.8143 28.9207C31.6423 28.3395 32.2038 27.2279 32.2038 25.9541C32.2038 24.2312 31.1678 23.1609 29.5001 23.1609C27.8323 23.1609 26.7963 24.2312 26.7963 25.9541C26.7963 27.2251 27.3554 28.3346 28.1805 28.9168C27.6319 28.9776 27.0882 29.0769 26.5535 29.2141C24.9733 29.6203 24.1029 30.4964 24.1029 31.6809V36.1295C24.1029 36.2621 24.1556 36.3893 24.2494 36.4831C24.3432 36.5768 24.4703 36.6295 24.6029 36.6295H31.1763C30.9345 37.3432 30.8033 38.1074 30.8033 38.9016C30.8033 39.0798 30.8101 39.2565 30.8231 39.4314C30.385 39.4958 29.9428 39.5282 29.5 39.5282C24.5218 39.5282 20.4717 35.4782 20.4717 30.4999C20.4717 25.5217 24.5218 21.4717 29.5 21.4717C34.4782 21.4717 38.5282 25.5218 38.5282 30.5C38.5282 30.9424 38.4957 31.3857 38.4314 31.8231ZM32.1717 32.2036C32.0391 32.2036 31.912 32.2562 31.8182 32.35C31.7244 32.4438 31.6717 32.571 31.6717 32.7036V35.5022C31.6487 35.5443 31.6262 35.5868 31.6039 35.6294H27.3281V32.7036C27.3281 32.571 27.2754 32.4438 27.1817 32.35C27.0879 32.2562 26.9607 32.2036 26.8281 32.2036C26.6955 32.2036 26.5683 32.2562 26.4746 32.35C26.3808 32.4438 26.3281 32.571 26.3281 32.7036V35.6294H25.1029V31.6809C25.1029 30.8036 26.0271 30.3819 26.8024 30.1826C28.5602 29.7305 30.3767 29.7309 32.2016 30.1836C32.8348 30.3407 33.897 30.744 33.897 31.6809V33.0439C33.4496 33.3508 33.0385 33.7076 32.6717 34.1074V32.7035C32.6717 32.5709 32.619 32.4437 32.5253 32.35C32.4315 32.2562 32.3043 32.2036 32.1717 32.2036ZM29.5 28.3503C28.5606 28.3503 27.7963 27.2753 27.7963 25.954C27.7963 24.3938 28.8637 24.1608 29.5 24.1608C30.1363 24.1608 31.2037 24.3938 31.2037 25.954C31.2037 27.2754 30.4394 28.3503 29.5 28.3503ZM44 38.9016C44 42.2643 41.2643 45 37.9016 45C34.539 45 31.8033 42.2643 31.8033 38.9016C31.8033 35.5389 34.539 32.8033 37.9016 32.8033C41.2643 32.8033 44 35.539 44 38.9016ZM44 32.1012L41.6031 32.4849C41.4804 32.5047 41.3695 32.5695 41.292 32.6667C40.7047 32.346 40.0746 32.1106 39.4209 31.9676C39.4923 31.4816 39.5281 30.9911 39.5282 30.5C39.5282 24.9704 35.0296 20.4717 29.4999 20.4717C23.9703 20.4717 19.4717 24.9704 19.4717 30.5C19.4717 36.0296 23.9704 40.5283 29.4999 40.5283C29.9907 40.5283 30.4823 40.4922 30.9675 40.4209C31.1106 41.0747 31.346 41.7047 31.6667 42.2921C31.5695 42.3696 31.5047 42.4805 31.4849 42.6032L31.1012 45H27.8988L27.5151 42.6031C27.499 42.5026 27.4526 42.4094 27.3821 42.3359C27.3116 42.2625 27.2203 42.2123 27.1206 42.1921C25.6158 41.8876 24.2012 41.3012 22.9162 40.4491C22.8313 40.3928 22.7314 40.3638 22.6296 40.3659C22.5278 40.368 22.4291 40.4011 22.3467 40.4608L20.3792 41.8854L18.1147 39.6209L19.5392 37.6533C19.599 37.5709 19.6321 37.4721 19.6342 37.3704C19.6363 37.2686 19.6073 37.1686 19.551 37.0837C18.6993 35.7996 18.1128 34.3851 17.8079 32.8794C17.7877 32.7797 17.7376 32.6884 17.6641 32.6179C17.5907 32.5474 17.4975 32.501 17.3969 32.4849L15 32.1012V28.8988L17.3969 28.5151C17.4974 28.499 17.5906 28.4526 17.6641 28.3821C17.7375 28.3116 17.7877 28.2203 17.8079 28.1206C18.1124 26.6158 18.6989 25.2013 19.5509 23.9163C19.6072 23.8314 19.6363 23.7314 19.6342 23.6296C19.6321 23.5278 19.5989 23.4291 19.5392 23.3467L18.1147 21.3793L20.3791 19.1147L22.3466 20.5392C22.4291 20.5989 22.5278 20.6321 22.6296 20.6341C22.7314 20.6362 22.8313 20.6072 22.9162 20.5509C24.2003 19.6993 25.6149 19.1128 27.1206 18.8079C27.2203 18.7877 27.3116 18.7375 27.3821 18.664C27.4525 18.5906 27.4989 18.4974 27.5151 18.3969L27.8988 16H31.1012L31.4849 18.3969C31.501 18.4974 31.5474 18.5906 31.6179 18.6641C31.6884 18.7375 31.7796 18.7877 31.8794 18.8079C33.3847 19.1127 34.7992 19.6992 36.0837 20.5509C36.1686 20.6072 36.2686 20.6362 36.3703 20.6341C36.4721 20.632 36.5708 20.5989 36.6532 20.5392L38.6208 19.1147L40.8853 21.3792L39.4608 23.3467C39.401 23.4291 39.3679 23.5279 39.3658 23.6296C39.3637 23.7314 39.3927 23.8314 39.449 23.9163C40.3007 25.2003 40.8871 26.6148 41.1921 28.1206C41.2123 28.2203 41.2625 28.3116 41.3359 28.3821C41.4093 28.4525 41.5025 28.4989 41.6031 28.5151L44 28.8988V32.1012ZM39.9146 36.1492L36.9269 39.1803L35.8888 38.1422C35.611 37.8644 35.2416 37.7113 34.8487 37.7113C34.4558 37.7113 34.0864 37.8643 33.8086 38.1421C33.6715 38.2784 33.5629 38.4405 33.4889 38.619C33.4149 38.7976 33.3771 38.989 33.3776 39.1822C33.3771 39.3755 33.4149 39.5669 33.4889 39.7455C33.5628 39.924 33.6715 40.0861 33.8085 40.2224L35.8909 42.3048C36.1777 42.5915 36.5543 42.7349 36.931 42.7348C37.3077 42.7348 37.6844 42.5914 37.9712 42.3047C39.0332 41.2426 41.2013 39.0233 41.9984 38.2183C42.1348 38.0819 42.2427 37.9198 42.3161 37.7413C42.3894 37.5629 42.4266 37.3718 42.4256 37.1789C42.4255 36.986 42.3873 36.795 42.313 36.617C42.2386 36.439 42.1298 36.2775 41.9926 36.1419C41.4186 35.571 40.4871 35.5736 39.9146 36.1492ZM41.2885 37.514C40.4882 38.3222 38.3219 40.5398 37.264 41.5977C37.0804 41.7813 36.7816 41.7813 36.598 41.5977L34.5157 39.5153H34.5156C34.4718 39.4717 34.437 39.4198 34.4133 39.3626C34.3896 39.3055 34.3775 39.2442 34.3777 39.1823C34.3777 39.0566 34.4267 38.9382 34.5157 38.8493C34.5593 38.8054 34.6112 38.7707 34.6684 38.747C34.7255 38.7233 34.7868 38.7112 34.8487 38.7114C34.9745 38.7114 35.0927 38.7604 35.1817 38.8493L36.576 40.2436C36.6698 40.3373 36.7969 40.39 36.9295 40.39H36.9313C36.9973 40.3898 37.0625 40.3765 37.1233 40.3509C37.1841 40.3253 37.2393 40.288 37.2856 40.241L40.6251 36.8529C40.8072 36.6697 41.1043 36.669 41.2875 36.8511C41.3312 36.8943 41.3659 36.9458 41.3896 37.0026C41.4133 37.0593 41.4256 37.1202 41.4256 37.1817C41.4258 37.3067 41.3775 37.4245 41.2885 37.514Z" fill="#FFB800"/>
</svg>
