<svg width="60" height="60" viewBox="0 0 60 60" fill="none" xmlns="http://www.w3.org/2000/svg">
<rect width="60" height="60" rx="30" fill="#EAEFFF"/>
<path d="M22.9015 20.3663C21.9254 20.735 21.226 21.6712 21.226 22.7745C21.226 23.1994 21.3392 23.5948 21.522 23.9489C20.7478 24.2465 20.1938 24.993 20.1938 25.8712C20.1938 26.7497 20.7478 27.4959 21.522 27.7938C21.3392 28.1479 21.2261 28.5433 21.2261 28.9679C21.2261 30.0715 21.9254 31.0077 22.9015 31.3761C22.8241 31.5923 22.7744 31.8222 22.7744 32.0646C22.7744 33.2032 23.7003 34.1291 24.8389 34.1291C25.096 34.1291 25.3397 34.076 25.5667 33.9902C25.9012 34.6805 26.6025 35.1614 27.4195 35.1614C28.5581 35.1614 29.484 34.2354 29.484 33.0969V18.6455C29.484 17.5072 28.5581 16.5811 27.4195 16.5811C26.6025 16.5811 25.9012 17.0621 25.5667 17.7521C25.3396 17.6665 25.096 17.6133 24.8389 17.6133C23.7003 17.6133 22.7744 18.5394 22.7744 19.6778C22.7744 19.9205 22.8241 20.15 22.9015 20.3663ZM24.8389 18.6455C25.4082 18.6455 25.8711 19.1085 25.8711 19.6778H26.9033C26.9033 19.1818 26.7202 18.7317 26.4276 18.3756C26.5473 17.9381 26.9442 17.6133 27.4195 17.6133C27.9888 17.6133 28.4518 18.0763 28.4518 18.6455V33.0969C28.4518 33.6662 27.9888 34.1291 27.4195 34.1291C26.9442 34.1291 26.5473 33.8045 26.4276 33.3668C26.7202 33.0106 26.9034 32.5608 26.9034 32.0646H25.8712C25.8712 32.6339 25.4082 33.0969 24.8389 33.0969C24.2696 33.0969 23.8067 32.6339 23.8067 32.0646C23.8067 31.4954 24.2696 31.0324 24.8389 31.0324V30.0002C24.3362 30.0002 23.881 30.1882 23.5229 30.4876C22.8044 30.3537 22.2583 29.7247 22.2583 28.9679C22.2583 28.1144 22.9532 27.4196 23.8067 27.4196C24.6605 27.4196 25.355 28.1144 25.355 28.9679H26.3873C26.3873 27.545 25.2298 26.3873 23.8067 26.3873C23.2235 26.3873 22.6908 26.5892 22.2583 26.917V26.9034C21.689 26.9034 21.2261 26.4405 21.2261 25.8712C21.2261 25.3019 21.689 24.839 22.2583 24.839V24.8256C22.6908 25.1535 23.2235 25.3551 23.8067 25.3551C25.2298 25.3551 26.3873 24.1976 26.3873 22.7745H25.355C25.355 23.6283 24.6605 24.3228 23.8067 24.3228C22.9532 24.3228 22.2583 23.6283 22.2583 22.7745C22.2583 22.0179 22.8044 21.3889 23.5229 21.2551C23.881 21.5544 24.3362 21.7422 24.8389 21.7422V20.7099C24.2696 20.7099 23.8067 20.2471 23.8067 19.6777C23.8067 19.1085 24.2696 18.6455 24.8389 18.6455L24.8389 18.6455ZM35.1613 17.6133C34.9043 17.6133 34.6608 17.6665 34.4338 17.7521C34.0991 17.0621 33.3977 16.5811 32.5807 16.5811C31.4421 16.5811 30.5162 17.5072 30.5162 18.6455V33.0969C30.5162 34.2354 31.4421 35.1614 32.5807 35.1614C33.3977 35.1614 34.0991 34.6805 34.4338 33.9902C34.6609 34.076 34.9043 34.1291 35.1613 34.1291C36.2999 34.1291 37.2258 33.2032 37.2258 32.0646C37.2258 31.8222 37.1764 31.5924 37.0988 31.3761C38.0749 31.0077 38.7742 30.0715 38.7742 28.9679C38.7742 28.5433 38.6613 28.1479 38.4785 27.7938C39.2527 27.4959 39.8064 26.7497 39.8064 25.8712C39.8064 24.993 39.2527 24.2465 38.4785 23.9489C38.6613 23.5948 38.7742 23.1994 38.7742 22.7745C38.7742 21.6712 38.0748 20.735 37.0988 20.3663C37.1764 20.15 37.2258 19.9205 37.2258 19.6778C37.2258 18.5394 36.2999 17.6133 35.1613 17.6133ZM37.7419 22.7745C37.7419 23.6283 37.0473 24.3228 36.1936 24.3228C35.34 24.3228 34.6452 23.6283 34.6452 22.7745H33.613C33.613 24.1976 34.7707 25.3551 36.1936 25.3551C36.7767 25.3551 37.3095 25.1535 37.7419 24.8256V24.839C38.3112 24.839 38.7742 25.3019 38.7742 25.8712C38.7742 26.4405 38.3112 26.9034 37.7419 26.9034V26.917C37.3095 26.5892 36.7767 26.3873 36.1936 26.3873C34.7707 26.3873 33.613 27.545 33.613 28.9679H34.6452C34.6452 28.1144 35.34 27.4196 36.1936 27.4196C37.0473 27.4196 37.7419 28.1144 37.7419 28.9679C37.7419 29.7247 37.1958 30.3537 36.4776 30.4875C36.1192 30.1882 35.664 30.0002 35.1613 30.0002V31.0324C35.7306 31.0324 36.1936 31.4954 36.1936 32.0646C36.1936 32.6339 35.7306 33.0969 35.1613 33.0969C34.592 33.0969 34.1291 32.6339 34.1291 32.0646H33.0968C33.0968 32.5608 33.2801 33.0107 33.5726 33.3668C33.4529 33.8045 33.056 34.1291 32.5807 34.1291C32.0114 34.1291 31.5485 33.6662 31.5485 33.0969V18.6455C31.5485 18.0763 32.0114 17.6133 32.5807 17.6133C33.056 17.6133 33.453 17.9381 33.5726 18.3756C33.2801 18.7317 33.0968 19.1818 33.0968 19.6778H34.1291C34.1291 19.1085 34.592 18.6455 35.1613 18.6455C35.7306 18.6455 36.1936 19.1085 36.1936 19.6778C36.1936 20.2471 35.7306 20.71 35.1613 20.71V21.7423C35.6641 21.7423 36.1192 21.5545 36.4776 21.2551C37.1958 21.3889 37.7419 22.018 37.7419 22.7745Z" fill="#2A3FCC"/>
<path d="M38.1275 17.2191C35.7158 14.9523 32.5571 13.8158 29.2421 14.0244L29.3061 15.0544C32.3351 14.8661 35.2181 15.9019 37.4209 17.9711C39.6247 20.0422 40.8387 22.8483 40.8387 25.8712C40.8387 29.5141 39.0229 32.892 35.9814 34.9076C34.9324 35.6031 34.1384 36.5953 33.6493 37.742H26.3297C25.8338 36.587 25.0369 35.5878 23.986 34.8859C20.8515 32.791 19.0503 29.2923 19.1676 25.5254L18.1358 25.4934C18.0073 29.6184 19.9803 33.4505 23.4127 35.7438C24.1708 36.2506 24.776 36.9405 25.1979 37.742H23.8068V38.7742H25.6097C25.7098 39.1086 25.7899 39.4514 25.8305 39.8065H24.8391V40.8387H25.8713V42.3871C25.8713 42.6726 26.1027 42.9032 26.3874 42.9032H26.9035C26.9035 44.611 28.2924 45.9999 30.0003 45.9999C31.7082 45.9999 33.097 44.611 33.097 42.9032H33.6131C33.8981 42.9032 34.1292 42.6726 34.1292 42.3871V40.8387H35.1615V39.8065H34.1655C34.2021 39.4519 34.2749 39.1082 34.3729 38.7742H36.1937V37.742H34.7802C35.196 36.9494 35.7978 36.268 36.5521 35.7685C39.8823 33.5599 41.871 29.8603 41.871 25.8712C41.871 22.6085 40.5063 19.4545 38.1275 17.2191ZM30.0002 44.9677C28.8616 44.9677 27.9357 44.0417 27.9357 42.9032H32.0647C32.0647 44.0417 31.1388 44.9677 30.0002 44.9677ZM33.0969 41.8709H26.9035V40.8387H33.0969V41.8709ZM33.1337 39.8065H26.8622C26.8276 39.4552 26.7719 39.1099 26.6872 38.7742H33.2942C33.2121 39.1094 33.1645 39.4562 33.1337 39.8065ZM17.6133 17.6133C18.7519 17.6133 19.6778 18.5394 19.6778 19.6778C19.6778 19.9633 19.9092 20.1939 20.1939 20.1939C20.479 20.1939 20.71 19.9633 20.71 19.6778C20.71 18.5394 21.6359 17.6133 22.7745 17.6133C23.0595 17.6133 23.2906 17.3827 23.2906 17.0972C23.2906 16.8119 23.0595 16.5811 22.7745 16.5811C21.6359 16.5811 20.71 15.6552 20.71 14.5166C20.71 14.3797 20.6557 14.2484 20.5589 14.1517C20.4621 14.0549 20.3308 14.0005 20.1939 14.0005C20.057 14.0005 19.9258 14.0549 19.829 14.1517C19.7322 14.2484 19.6778 14.3797 19.6778 14.5166C19.6778 15.6552 18.7519 16.5811 17.6133 16.5811C17.4764 16.5811 17.3452 16.6355 17.2484 16.7323C17.1516 16.829 17.0972 16.9603 17.0972 17.0972C17.0972 17.3827 17.3286 17.6133 17.6133 17.6133ZM20.1939 16.2265C20.4235 16.5716 20.7195 16.8676 21.0646 17.0972C20.7195 17.3269 20.4236 17.6228 20.1939 17.9679C19.9643 17.6228 19.6684 17.3268 19.3232 17.0972C19.6684 16.8677 19.9644 16.5717 20.1939 16.2265ZM19.6778 22.7745C19.9628 22.7745 20.1939 22.5439 20.1939 22.2584C20.1939 21.9731 19.9628 21.7423 19.6778 21.7423C18.5392 21.7423 17.6133 20.8164 17.6133 19.6778C17.6133 19.5409 17.5589 19.4096 17.4622 19.3129C17.3654 19.2161 17.2341 19.1617 17.0972 19.1617C16.9603 19.1617 16.829 19.2161 16.7323 19.3129C16.6355 19.4096 16.5811 19.5409 16.5811 19.6778C16.5811 20.8164 15.6552 21.7423 14.5166 21.7423C14.3797 21.7423 14.2484 21.7967 14.1517 21.8934C14.0549 21.9902 14.0005 22.1215 14.0005 22.2584C14.0005 22.5439 14.2318 22.7745 14.5166 22.7745C15.6552 22.7745 16.5811 23.7006 16.5811 24.839C16.5811 25.1245 16.8124 25.3551 17.0972 25.3551C17.3822 25.3551 17.6133 25.1245 17.6133 24.839C17.6133 23.7006 18.5392 22.7745 19.6778 22.7745ZM17.0972 23.1291C16.8676 22.784 16.5716 22.488 16.2265 22.2584C16.5716 22.0287 16.8676 21.7328 17.0972 21.3877C17.3269 21.7327 17.6229 22.0287 17.9679 22.2584C17.6228 22.4881 17.3269 22.784 17.0972 23.1291Z" fill="#2A3FCC"/>
</svg>
