<svg width="60" height="60" viewBox="0 0 60 60" fill="none" xmlns="http://www.w3.org/2000/svg">
<rect width="60" height="60" rx="30" fill="#DEFDE4"/>
<g clip-path="url(#clip0_2012_390)">
<path d="M45.0938 34.8974C44.5275 33.9162 43.2675 33.5737 42.2262 34.118L35.6875 37.533C35.6406 37.3818 35.5769 37.2349 35.4956 37.0943C35.2131 36.6049 34.7588 36.2555 34.2169 36.1105L24.6394 33.5443C24.5294 33.5143 24.5288 33.5143 23.7894 33.7543C22.8956 34.0449 21.1981 34.5962 20.3581 34.8505V33.5737C20.3581 33.3668 20.19 33.1987 19.9831 33.1987H15C14.7931 33.1987 14.625 33.3668 14.625 33.5737V44.9999C14.625 45.2068 14.7931 45.3749 15 45.3749H19.9831C20.19 45.3749 20.3581 45.2068 20.3581 44.9999V43.6843L24.1494 44.4343C24.4181 44.4874 24.6625 44.5118 24.9306 44.5118C24.9594 44.5118 24.9887 44.5118 25.0181 44.5112L32.3206 44.373C32.6938 44.3749 33.0631 44.2787 33.3869 44.0918L44.3213 37.7787C45.3288 37.1974 45.675 35.9049 45.0938 34.8974ZM19.6081 44.6249H15.375V33.9487H19.6081V44.6249ZM43.9469 37.1293L33.0119 43.4424C32.8025 43.563 32.5656 43.628 32.3225 43.623H32.3113L25.0037 43.7612C24.7531 43.7662 24.5413 43.7474 24.295 43.6987L20.3581 42.9199V35.633C21.1031 35.4155 22.9706 34.8087 24.0206 34.4674C24.2388 34.3968 24.4369 34.3324 24.5487 34.2962L34.0225 36.8349C34.3712 36.9287 34.6638 37.1537 34.8463 37.4693C35.0288 37.7849 35.0775 38.1512 34.9837 38.4999C34.89 38.8487 34.665 39.1412 34.3494 39.3237C34.0337 39.5062 33.6675 39.5549 33.3188 39.4612L26.8575 37.7299C26.6575 37.6768 26.4519 37.7949 26.3981 37.9949C26.3444 38.1949 26.4631 38.4005 26.6631 38.4543L33.1244 40.1855C33.6669 40.3305 34.235 40.2555 34.7237 39.973C35.2131 39.6905 35.5625 39.2362 35.7075 38.6943C35.7394 38.5755 35.7606 38.4555 35.7712 38.3355L42.5725 34.7837C43.2569 34.4262 44.0781 34.6418 44.4431 35.2737C44.8187 35.9218 44.5956 36.7549 43.9469 37.1293ZM21.8975 32.6943C22.3274 32.8098 22.7705 32.8684 23.2156 32.8687C24.0925 32.8687 24.9581 32.6387 25.7381 32.1887C28.155 30.793 28.9862 27.6912 27.5906 25.2743C26.195 22.8574 23.0931 22.0262 20.6762 23.4218C19.5056 24.098 18.6675 25.1893 18.3181 26.4955C17.9681 27.8018 18.1475 29.1655 18.8238 30.3362C19.5 31.5068 20.5919 32.3443 21.8975 32.6943ZM19.0431 26.6893C19.3413 25.5768 20.0544 24.6468 21.0519 24.0712C21.7048 23.693 22.4461 23.494 23.2006 23.4943C24.6919 23.4943 26.1444 24.268 26.9419 25.6493C28.1306 27.708 27.4225 30.3505 25.3638 31.5393C24.7108 31.9175 23.9696 32.1165 23.215 32.1162C21.7238 32.1162 20.2713 31.3424 19.4738 29.9612C18.8975 28.9637 18.745 27.8018 19.0431 26.6893ZM24.0737 29.008C24.0737 28.6305 23.9238 28.1799 23.2081 28.1799C22.2269 28.1799 21.5925 27.5605 21.5925 26.6018C21.5925 25.858 22.1225 25.233 22.8331 25.0674V24.5568C22.8331 24.3499 23.0013 24.1818 23.2081 24.1818C23.415 24.1818 23.5831 24.3499 23.5831 24.5568V25.0674C24.2938 25.233 24.8237 25.858 24.8237 26.6018C24.8237 26.8087 24.6556 26.9768 24.4487 26.9768C24.2419 26.9768 24.0737 26.8087 24.0737 26.6018C24.0737 26.1455 23.6856 25.7737 23.2081 25.7737C22.7306 25.7737 22.3425 26.1449 22.3425 26.6018C22.3425 26.9793 22.4925 27.4299 23.2081 27.4299C24.1894 27.4299 24.8237 28.0493 24.8237 29.008C24.8237 29.7518 24.2938 30.3768 23.5831 30.5424V31.053C23.5831 31.2599 23.415 31.428 23.2081 31.428C23.0013 31.428 22.8331 31.2599 22.8331 31.053V30.5424C22.1225 30.3768 21.5925 29.7518 21.5925 29.008C21.5925 28.8012 21.7606 28.633 21.9675 28.633C22.1744 28.633 22.3425 28.8012 22.3425 29.008C22.3425 29.4643 22.7306 29.8362 23.2081 29.8362C23.6856 29.8362 24.0737 29.4643 24.0737 29.008ZM35.8606 24.0437C35.6556 23.7693 35.2775 23.6918 34.9806 23.863L33.8375 24.523C33.694 24.6057 33.5859 24.7383 33.5337 24.8954C33.4815 25.0526 33.4889 25.2234 33.5544 25.3755C33.6306 25.5524 33.6006 25.7362 33.4725 25.8793C33.3031 26.0693 33.1469 26.273 33.0075 26.4849C32.9019 26.6455 32.7325 26.7218 32.5425 26.6943C32.2031 26.6449 31.8812 26.858 31.7925 27.1887L31.4506 28.4643C31.3619 28.7949 31.535 29.1405 31.8525 29.2674C32.0306 29.3387 32.1394 29.4893 32.1506 29.6812C32.1656 29.9343 32.1988 30.1893 32.2506 30.438C32.2894 30.6262 32.2237 30.8005 32.0694 30.9155C31.795 31.1205 31.7175 31.4987 31.8888 31.7955L32.5487 32.9387C32.72 33.2355 33.0863 33.3574 33.4013 33.2218C33.5781 33.1455 33.7619 33.1755 33.905 33.3037C34.0944 33.473 34.2981 33.6293 34.5106 33.7687C34.6713 33.8743 34.7475 34.0437 34.72 34.2337C34.6965 34.3975 34.7338 34.5642 34.8249 34.7024C34.916 34.8406 35.0546 34.9406 35.2144 34.9837L36.4894 35.3255C36.5475 35.3412 36.6069 35.3487 36.6644 35.3487C36.935 35.3487 37.1875 35.1849 37.2919 34.923C37.3631 34.7449 37.5138 34.6362 37.7056 34.6249C37.9588 34.6099 38.2131 34.5768 38.4625 34.5249C38.6506 34.4862 38.825 34.5518 38.94 34.7062C39.145 34.9805 39.5231 35.0587 39.82 34.8874L40.9631 34.2274C41.2594 34.0568 41.3825 33.693 41.2506 33.3824C41.1756 33.2068 41.2056 33.0237 41.3325 32.8812C41.5031 32.6887 41.6606 32.4824 41.8006 32.2674C41.9044 32.1087 42.0712 32.0318 42.2594 32.0555C42.605 32.1012 42.9206 31.8924 43.0088 31.5618L43.3506 30.2862C43.4406 29.9499 43.2675 29.6043 42.9481 29.4818C42.7669 29.4124 42.6556 29.2618 42.6431 29.0674C42.6272 28.8159 42.5933 28.5659 42.5419 28.3193C42.5019 28.1299 42.5687 27.9549 42.7237 27.8399C43.0031 27.633 43.0837 27.2524 42.9119 26.9549L42.2519 25.8118C42.0787 25.5124 41.7006 25.3893 41.3906 25.5318C41.2119 25.6137 41.0244 25.5862 40.8775 25.4555C40.6915 25.291 40.4941 25.1398 40.2869 25.003C40.1231 24.8949 40.0475 24.7224 40.0794 24.5287C40.1362 24.1843 39.9244 23.8568 39.5869 23.7662L38.3113 23.4243C37.9806 23.3355 37.635 23.5087 37.5081 23.8262C37.4369 24.0043 37.2863 24.113 37.0944 24.1243C36.8406 24.1393 36.5862 24.173 36.3375 24.2243C36.1494 24.2643 35.9756 24.198 35.8606 24.0437ZM36.49 24.9593C36.7031 24.9149 36.9212 24.8862 37.1381 24.8737C37.5956 24.8468 37.9887 24.5774 38.1787 24.1655L39.33 24.4737C39.2787 24.9337 39.4837 25.3718 39.8744 25.6293C40.0512 25.7455 40.2212 25.8762 40.38 26.0168C40.73 26.3268 41.2044 26.4099 41.6344 26.2424L42.23 27.2737C41.8737 27.5643 41.7125 28.0187 41.8075 28.473C41.8519 28.6843 41.8812 28.8999 41.8944 29.1137C41.9231 29.573 42.195 29.9649 42.6094 30.1524L42.3006 31.3049C41.8431 31.2649 41.425 31.4687 41.1719 31.8568C41.0511 32.0414 40.9172 32.217 40.7712 32.3824C40.47 32.7218 40.3825 33.1855 40.5344 33.608L39.5006 34.2049C39.21 33.8555 38.7606 33.6968 38.3106 33.7899C38.0969 33.8343 37.8794 33.863 37.6625 33.8755C37.205 33.9024 36.8119 34.1718 36.6219 34.5837L35.47 34.2749C35.5119 33.823 35.3056 33.393 34.9231 33.1412C34.7408 33.0212 34.5674 32.8881 34.4044 32.743C34.0619 32.4374 33.5931 32.3499 33.1669 32.5074L32.5706 31.4743C32.92 31.1837 33.0787 30.7343 32.9856 30.2849C32.9412 30.0718 32.9125 29.8537 32.9 29.6368C32.8731 29.1793 32.6038 28.7862 32.1919 28.5962L32.5006 27.4443C32.9525 27.4862 33.3825 27.2805 33.6344 26.8974C33.7537 26.7162 33.8875 26.5418 34.0325 26.3787C34.3381 26.0362 34.4256 25.5674 34.2681 25.1412L35.3013 24.5449C35.5906 24.8943 36.0406 25.0524 36.49 24.9593ZM33.7781 29.3749C33.7781 31.3724 35.4031 32.9974 37.4006 32.9974C39.3981 32.9974 41.0231 31.3724 41.0231 29.3749C41.0231 27.3774 39.3981 25.7524 37.4006 25.7524C35.4031 25.7524 33.7781 27.3774 33.7781 29.3749ZM35.6531 27.0974L35.7144 27.203C35.7837 27.323 35.91 27.3905 36.0394 27.3905C36.1031 27.3905 36.1675 27.3743 36.2262 27.3405C36.3123 27.2907 36.3752 27.2088 36.4009 27.1127C36.4267 27.0166 36.4133 26.9143 36.3638 26.828L36.3019 26.7212C36.53 26.6262 36.7725 26.5605 37.0256 26.5274V26.6505C37.0256 26.8574 37.1938 27.0255 37.4006 27.0255C37.6075 27.0255 37.7756 26.8574 37.7756 26.6505V26.5274C38.0288 26.5605 38.2712 26.6262 38.4994 26.7212L38.4375 26.828C38.3338 27.0074 38.3956 27.2368 38.575 27.3405C38.6338 27.3749 38.6988 27.3905 38.7619 27.3905C38.8913 27.3905 39.0175 27.323 39.0869 27.203L39.1481 27.0974C39.3469 27.2499 39.525 27.428 39.6775 27.6268L39.5719 27.688C39.4858 27.7379 39.423 27.8198 39.3972 27.9159C39.3714 28.0119 39.3848 28.1143 39.4344 28.2005C39.5038 28.3205 39.63 28.388 39.7594 28.388C39.8231 28.388 39.8875 28.3718 39.9463 28.338L40.0531 28.2762C40.1481 28.5043 40.2138 28.7468 40.2469 28.9999H40.1238C39.9169 28.9999 39.7488 29.168 39.7488 29.3749C39.7488 29.5818 39.9169 29.7499 40.1238 29.7499H40.2469C40.2138 30.003 40.1481 30.2455 40.0531 30.4737L39.9463 30.4118C39.7669 30.308 39.5375 30.3699 39.4338 30.5493C39.33 30.7287 39.3919 30.958 39.5713 31.0618L39.6769 31.123C39.5243 31.3219 39.3463 31.4998 39.1475 31.6524L39.0863 31.5468C39.0364 31.4607 38.9545 31.3979 38.8584 31.3721C38.7623 31.3463 38.66 31.3597 38.5737 31.4093C38.4877 31.4591 38.4248 31.541 38.3991 31.6371C38.3733 31.7332 38.3867 31.8355 38.4363 31.9218L38.4981 32.0287C38.2665 32.1249 38.0231 32.1901 37.7744 32.2224V32.0993C37.7744 31.8924 37.6063 31.7243 37.3994 31.7243C37.1925 31.7243 37.0244 31.8924 37.0244 32.0993V32.2224C36.7713 32.1893 36.5287 32.1237 36.3006 32.0287L36.3625 31.9218C36.4662 31.7424 36.4044 31.513 36.225 31.4093C36.0456 31.3055 35.8162 31.3674 35.7125 31.5468L35.6513 31.6524C35.4524 31.4998 35.2745 31.3219 35.1219 31.123L35.2275 31.0618C35.4069 30.958 35.4681 30.7287 35.365 30.5493C35.2619 30.3699 35.0319 30.3087 34.8525 30.4118L34.7456 30.4737C34.6493 30.242 34.5842 29.9987 34.5519 29.7499H34.675C34.8819 29.7499 35.05 29.5818 35.05 29.3749C35.05 29.168 34.8819 28.9999 34.675 28.9999H34.5519C34.585 28.7468 34.6506 28.5043 34.7456 28.2762L34.8525 28.338C34.9119 28.3724 34.9763 28.388 35.0394 28.388C35.1688 28.388 35.295 28.3205 35.3644 28.2005C35.4681 28.0212 35.4063 27.7918 35.2269 27.688L35.1213 27.6268C35.2763 27.4287 35.4544 27.2505 35.6531 27.0974ZM37.0256 29.3749V27.6768C37.0256 27.4699 37.1938 27.3018 37.4006 27.3018C37.6075 27.3018 37.7756 27.4699 37.7756 27.6768V28.9999H38.545C38.7519 28.9999 38.92 29.168 38.92 29.3749C38.92 29.5818 38.7519 29.7499 38.545 29.7499H37.4006C37.1931 29.7499 37.0256 29.5818 37.0256 29.3749ZM30.8675 24.7474C32.1638 24.7474 33.46 24.2537 34.4475 23.2668C35.4038 22.3105 35.93 21.0393 35.93 19.6868C35.93 18.3343 35.4031 17.063 34.4475 16.1068C32.4738 14.133 29.2619 14.133 27.2881 16.1068C26.3319 17.063 25.8056 18.3343 25.8056 19.6868C25.8056 21.0393 26.3325 22.3105 27.2881 23.2668C28.275 24.2543 29.5713 24.7474 30.8675 24.7474ZM28.27 23.1293C28.4994 22.1143 29.41 21.3718 30.4688 21.3718H31.2663C32.325 21.3718 33.2356 22.1143 33.465 23.1293C31.9338 24.2862 29.8013 24.2862 28.27 23.1293ZM30.8675 20.458C30.1438 20.458 29.555 19.8693 29.555 19.1455C29.555 18.4218 30.1438 17.833 30.8675 17.833C31.5913 17.833 32.18 18.4218 32.18 19.1455C32.18 19.8693 31.5913 20.458 30.8675 20.458ZM27.8181 16.638C28.6587 15.7974 29.7631 15.3768 30.8675 15.3768C31.9719 15.3768 33.0763 15.7974 33.9169 16.638C34.7313 17.4524 35.18 18.5355 35.18 19.6874C35.18 20.7612 34.79 21.7749 34.0775 22.5668C33.7494 21.6993 33.0325 21.0299 32.1531 20.7562C32.6263 20.378 32.93 19.7968 32.93 19.1455C32.93 18.0087 32.005 17.083 30.8675 17.083C29.73 17.083 28.805 18.008 28.805 19.1455C28.805 19.7968 29.1087 20.378 29.5819 20.7562C28.7019 21.0299 27.985 21.6987 27.6575 22.5668C26.945 21.7743 26.555 20.7605 26.555 19.6874C26.555 18.5355 27.0037 17.4524 27.8181 16.638Z" fill="#14B22B"/>
</g>
<defs>
<clipPath id="clip0_2012_390">
<rect width="32" height="32" fill="white" transform="translate(14 14)"/>
</clipPath>
</defs>
</svg>
