<svg width="60" height="60" viewBox="0 0 60 60" fill="none" xmlns="http://www.w3.org/2000/svg">
<rect width="60" height="60" rx="30" fill="#FFF0E9"/>
<g clip-path="url(#clip0_2012_391)">
<path d="M44.9187 35.2125C44.9125 35.2125 43.2687 35.0437 43.2625 35.0437C43.1625 34.75 43.0437 34.4625 42.9062 34.1875L43.9625 32.9062C44.2187 32.6 44.1937 32.1375 43.9062 31.8625L42.2 30.1562C41.9125 29.875 41.4625 29.8562 41.15 30.1062L39.8562 31.15C39.575 31.0125 39.2875 30.8937 38.9937 30.8L38.825 29.1437C38.775 28.6687 38.3375 28.4 37.8812 28.45C38.0312 25.85 37.2625 23.275 35.8812 21.25L37.2312 20.2812C38.0625 20.575 38.8937 20.8625 39.7187 21.15C39.8125 21.1812 39.9187 21.1687 40.0062 21.1187L43.8937 18.65C44.1187 18.5187 44.0812 18.15 43.8375 18.0687L41.2062 17.0562L41.2937 14.4062C41.3 14.2812 41.2312 14.1687 41.125 14.1062C41.0187 14.0437 40.8875 14.05 40.7812 14.1187C39.5125 14.9687 38.2562 15.8187 36.9875 16.6687C36.8937 16.7312 36.8437 16.8312 36.8437 16.9437V19.75L35.5 20.7125C33.35 17.8937 29.9562 16.0687 26.1437 16.0687C16.0812 16.0312 10.6375 28.1312 17.3312 35.6125L15.2062 41.525C14.925 42.2812 15.2562 43.175 15.9562 43.5812C16.6625 43.9875 17.575 43.8312 18.1062 43.2062L21.8437 38.775C24.1062 39.675 26.7312 39.8312 29.0875 39.2L30.4 39.3312C30.4812 39.5812 30.6125 39.9187 30.7562 40.1937L29.7 41.4812C29.45 41.7875 29.475 42.2375 29.7562 42.525L31.4625 44.2187C31.7437 44.5062 32.2062 44.525 32.5187 44.275L33.8062 43.2312C34.0937 43.3687 34.3812 43.4937 34.6687 43.5875L34.8375 45.2312C34.8812 45.6312 35.2125 45.9312 35.6125 45.9312H38.0187C38.4187 45.9312 38.7562 45.6312 38.8 45.2312L38.9687 43.5875C39.2562 43.4875 39.5437 43.3687 39.8312 43.2312L41.125 44.275C41.4375 44.5312 41.8937 44.5125 42.175 44.225L43.875 42.525C44.1562 42.2437 44.1812 41.7812 43.9312 41.4812L42.875 40.1937C43.0125 39.9125 43.1375 39.6125 43.2312 39.3312L44.8812 39.1625C45.2812 39.1312 45.5937 38.7875 45.5937 38.3875V35.9875C45.6187 35.5937 45.3187 35.2562 44.9187 35.2125ZM40.9 17.6437L42.975 18.4437L39.775 20.4812C39.1437 20.2625 38.5062 20.0375 37.8687 19.8125L40.9 17.6437ZM37.4875 17.1125C38.525 16.4187 39.5625 15.7187 40.6 15.0187L40.5312 17.0937L37.4812 19.2812V17.1125H37.4875ZM37.2375 27.8312C37.2375 28.0375 37.2312 28.2437 37.2187 28.4437C37.1562 28.45 35.4875 28.4312 35.4812 28.4562C35.1375 28.5187 34.8812 28.8 34.85 29.1375C34.8125 29.5 34.7125 30.4375 34.675 30.7875C34.3812 30.8812 34.0937 31.0062 33.8125 31.1375C33.4062 30.8375 32.7562 30.225 32.325 29.9812C32.9937 28.1125 32.7125 25.875 31.6375 24.275L35.3312 21.625C36.5375 23.4 37.2375 25.5375 37.2375 27.8312ZM29.5687 32.625C25.7625 35.4312 20.1625 32.5625 20.225 27.8312C20.25 22.25 27.2687 19.8312 30.7312 24.125L27.3437 26.55C26.2687 25.4812 24.35 26.2937 24.375 27.825C24.375 28.7937 25.1625 29.5875 26.1375 29.5875C27.3937 29.6187 28.2875 28.2062 27.7312 27.0875L31.1125 24.6625C32.125 26.1875 32.3375 28.3312 31.6 30.0562C31.5562 30.0875 31.5187 30.1187 31.4812 30.1562L29.7687 31.8562C29.5625 32.05 29.5062 32.35 29.5687 32.625ZM25.8687 28.0187C25.975 28.1687 26.1812 28.2 26.325 28.0937L27.175 27.4812C27.625 29.1187 25.125 29.5187 25.0312 27.825C25.0062 26.9375 26.1125 26.3937 26.7937 26.95L25.9437 27.5625C25.7937 27.6625 25.7625 27.8687 25.8687 28.0187ZM17.6125 42.7812C17.0062 43.525 15.75 43.0625 15.7687 42.1062C15.7687 41.9812 15.7875 41.8687 15.8312 41.7562L17.8437 36.1625C18.825 37.1312 19.975 37.9312 21.225 38.5187L17.6125 42.7812ZM28.0562 38.4687C28.0625 38.5687 28.1 38.6562 28.1312 38.7437C21.4375 40.05 14.95 34.6562 15.0375 27.8312C15.0937 17.1812 28.575 12.75 34.9562 21.1L31.2625 23.75C27.4375 18.9375 19.6 21.6062 19.5687 27.8312C19.5312 33.1062 25.6687 36.2625 29.9375 33.175L30.7625 34.1875C30.6312 34.4687 30.5125 34.7562 30.4062 35.0437L28.7437 35.2125C28.3437 35.2562 28.0437 35.5937 28.0437 35.9937V38.3937C28.05 38.4187 28.0562 38.4437 28.0562 38.4687ZM44.9625 38.3937C44.9625 38.4562 44.9125 38.5062 44.85 38.5125L42.9812 38.7C42.85 38.7125 42.7375 38.8062 42.7 38.9312C42.5812 39.3125 42.4187 39.7125 42.225 40.0812C42.1625 40.2 42.175 40.3437 42.2562 40.45L43.45 41.9062C43.4875 41.95 43.4812 42.0187 43.4312 42.0625L41.7312 43.7625C41.6812 43.8125 41.6125 43.8125 41.5562 43.7687L40.0937 42.5875C39.9937 42.5062 39.85 42.4937 39.7312 42.55C39.3562 42.75 38.9687 42.9062 38.5812 43.025C38.4562 43.0625 38.3625 43.175 38.35 43.3062L38.1625 45.1625C38.1562 45.2187 38.1062 45.2812 38.0312 45.2812H35.625C35.55 45.2812 35.5062 45.225 35.5 45.1687L35.3125 43.3125C35.3 43.1812 35.2062 43.0687 35.0812 43.0312C34.7 42.9187 34.3187 42.7562 33.9312 42.5562C33.8125 42.4937 33.675 42.5062 33.5687 42.5937L32.1125 43.775C32.0625 43.8187 31.9875 43.8125 31.9437 43.7687L30.2312 42.0625C30.1875 42.0187 30.1875 41.9437 30.2187 41.9L31.4062 40.45C31.6062 40.2125 31.3437 39.95 31.2562 39.7187C31.1312 39.4312 31.0375 39.175 30.9687 38.9375C30.9312 38.8062 30.8187 38.7125 30.6875 38.7L28.8062 38.5062C28.7437 38.5 28.6937 38.4437 28.6937 38.3875V35.9875C28.6937 35.925 28.7437 35.8687 28.8062 35.8625L30.6812 35.6687C30.8125 35.6562 30.925 35.5625 30.9625 35.4312C31.075 35.0375 31.2375 34.65 31.4312 34.2937C31.4937 34.175 31.4812 34.0312 31.3937 33.9312L30.2875 32.575L30.2312 32.5062C30.1812 32.4562 30.1562 32.3687 30.2125 32.3125L31.9312 30.6062C31.9812 30.5687 32.0437 30.5687 32.1 30.6L32.925 31.2687C33.0625 31.3562 33.575 31.8562 33.7312 31.85C34.1812 31.75 34.5937 31.4375 35.0562 31.3437C35.1875 31.3062 35.2812 31.1937 35.2937 31.0625L35.4 30.0125L35.4875 29.1875C35.5062 29.15 35.5187 29.1 35.5687 29.1C35.5812 29.0937 35.5937 29.0875 35.6125 29.0875H38.0187C38.0875 29.0875 38.1437 29.1312 38.15 29.1937L38.3437 31.0625C38.3562 31.1937 38.45 31.3062 38.5812 31.3437C38.975 31.4562 39.3562 31.6125 39.725 31.8125C39.8437 31.875 39.9812 31.8625 40.0875 31.7812L41.55 30.6062C41.6 30.5625 41.675 30.5687 41.725 30.6125L43.4312 32.3187C43.4687 32.3562 43.475 32.4312 43.4437 32.475L42.2562 33.9375C42.1687 34.0437 42.1562 34.1875 42.225 34.3062C42.4187 34.6625 42.5812 35.0437 42.7 35.4437C42.7375 35.5687 42.85 35.6625 42.9812 35.675L44.8437 35.8625C44.9125 35.8687 44.9625 35.925 44.9625 35.9875V38.3937ZM36.8375 31.5375C33.7062 31.5375 31.1625 34.075 31.1625 37.1937C31.475 44.6937 42.2062 44.6937 42.5125 37.1937C42.5125 34.075 39.9625 31.5375 36.8375 31.5375ZM36.8375 42.1875C34.0687 42.1875 31.8187 39.9437 31.8187 37.1937C32.0937 30.5687 41.5812 30.5687 41.8562 37.1937C41.8562 39.9437 39.6 42.1875 36.8375 42.1875ZM38.5687 34.6687L35.9562 37.2812L34.9187 36.2437C33.8187 35.2 32.25 36.775 33.2937 37.8687L35.1437 39.7187C35.5687 40.1625 36.3437 40.1625 36.7687 39.7187L40.1937 36.2937C40.4125 36.075 40.5312 35.7875 40.5312 35.4812C40.5625 34.4875 39.25 33.9625 38.5687 34.6687ZM39.725 35.8312L36.3 39.2562C36.1125 39.4437 35.7875 39.4437 35.6062 39.2562L33.7562 37.4062C33.6625 37.3125 33.6125 37.1875 33.6125 37.0562C33.6 36.6312 34.1625 36.3937 34.4562 36.7062L35.725 37.975C35.8562 38.1062 36.0625 38.1062 36.1875 37.975L39.0312 35.1312C39.5 34.6937 40.1812 35.3562 39.725 35.8312Z" fill="#FD6900"/>
</g>
<defs>
<clipPath id="clip0_2012_391">
<rect width="32" height="32" fill="white" transform="translate(14 14)"/>
</clipPath>
</defs>
</svg>
