<svg width="383" height="331" viewBox="0 0 383 331" fill="none" xmlns="http://www.w3.org/2000/svg">
<path d="M225.379 175.21C225.379 193.995 210.283 209.092 191.497 209.092C187.031 209.122 182.603 208.267 178.469 206.577C174.335 204.887 170.577 202.395 167.411 199.245C164.245 196.095 161.734 192.35 160.023 188.224C158.312 184.099 157.434 179.676 157.442 175.21C157.431 170.734 158.304 166.301 160.012 162.164C161.719 158.027 164.227 154.269 167.392 151.104C170.556 147.94 174.315 145.432 178.452 143.724C182.588 142.017 187.022 141.143 191.497 141.154C210.283 141.154 225.379 156.424 225.379 175.21Z" fill="#2C3033"/>
<path d="M318.578 48.4294L273.092 95.0666C250.287 75.7266 221.345 65.1309 191.443 65.1748C159.517 65.1113 128.766 77.2168 105.45 99.027C106.851 97.4986 108.259 96.3465 109.667 95.0666L64.1738 48.4294C99.1924 17.1754 144.506 -0.0676191 191.443 0.000199293C238.34 -0.0668525 283.611 17.1783 318.578 48.4294Z" fill="#FFCC01"/>
<path d="M382.722 178.891C383.234 185.532 377.617 191.029 370.969 191.029H329.316C323.307 191.029 318.067 186.684 317.555 180.812C316.064 164.014 311.244 147.682 303.377 132.766C299.594 125.561 295.099 118.754 289.96 112.444C287.441 109.278 284.751 106.252 281.903 103.379C281.399 102.739 280.759 102.227 280.247 101.715C277.957 99.4015 275.571 97.1858 273.094 95.0741L318.571 48.4294C326.592 55.5784 334.03 63.3558 340.813 71.6877C365.44 102.282 380.07 139.706 382.722 178.891Z" fill="#5F9807"/>
<path d="M109.667 95.0741C108.259 96.3466 106.851 97.4986 105.451 99.0346C102.507 101.587 99.6984 104.531 97.1459 107.468C94.8419 109.772 92.9294 112.196 91.0094 114.748C76.301 133.868 67.3475 156.785 65.1986 180.812C64.6866 186.684 59.4537 191.036 53.4452 191.036H11.785C5.14402 191.036 -0.472924 185.54 0.0315465 178.892C2.92038 136.25 20.0164 95.8072 48.5887 64.0228C49.3567 62.9988 50.2452 62.1104 51.1487 61.2144C53.1817 58.9104 55.2372 56.7419 57.5337 54.6939C59.7021 52.5254 61.8781 50.4774 64.1746 48.437L109.667 95.0741Z" fill="#FF1F1F"/>
<path d="M177.899 188.642C175.991 186.735 174.5 184.452 173.522 181.938C172.543 179.424 172.097 176.734 172.213 174.038C172.329 171.343 173.005 168.701 174.196 166.281C175.387 163.86 177.069 161.714 179.134 159.978L312.826 47.6614C316.787 44.3259 322.118 49.6642 318.797 53.6247L206.564 187.385C204.83 189.453 202.685 191.139 200.264 192.334C197.844 193.529 195.201 194.207 192.505 194.325C189.808 194.443 187.116 193.999 184.6 193.021C182.085 192.042 179.808 190.551 177.899 188.642Z" fill="#2C3033"/>
<path d="M201.292 175.142C201.292 180.608 196.903 185.005 191.429 185.005C190.13 185.013 188.842 184.764 187.64 184.271C186.438 183.779 185.346 183.053 184.426 182.136C183.506 181.219 182.777 180.129 182.281 178.928C181.785 177.728 181.531 176.441 181.535 175.142C181.535 172.522 182.576 170.009 184.429 168.157C186.281 166.304 188.794 165.263 191.414 165.263C194.034 165.263 196.546 166.304 198.399 168.157C200.252 170.009 201.292 172.522 201.292 175.142Z" fill="white"/>
<g clip-path="url(#clip0_621_4850)">
<path d="M41.584 229.671C42.32 229.671 42.688 230.038 43.424 230.406C39.008 232.241 34.592 237.014 32.384 247.294L24.288 249.497C26.864 242.154 32.016 229.671 41.584 229.671ZM45.632 233.343C46.368 235.545 47.104 238.115 47.104 242.154C47.104 242.521 47.104 242.521 47.104 242.888L36.432 245.825C38.64 238.115 42.32 234.811 45.632 233.343ZM55.2 239.951L50.416 241.42C50.416 241.052 50.416 240.685 50.416 240.318C50.416 237.014 50.048 234.444 49.312 232.241C51.888 232.976 54.096 236.28 55.2 239.951ZM79.12 245.825C79.12 245.458 78.752 245.091 78.384 245.091C77.648 245.091 69.92 244.357 69.92 244.357C69.92 244.357 64.4 238.85 63.664 238.483C62.928 237.748 61.824 238.115 61.456 238.115C61.456 238.115 60.352 238.483 58.512 239.217C56.672 234.077 53.36 229.304 47.84 229.304H47.472C46 227.101 43.792 226.367 41.952 226.367C28.704 226 22.448 242.521 20.24 250.965C17.296 251.699 14.352 252.801 11.04 253.902C8.096 254.636 8.096 255.003 7.728 257.573C7.36 259.409 0 317.416 0 317.416L58.512 328.43L90.16 321.455C90.16 321.455 79.12 246.559 79.12 245.825Z" fill="#8DB849"/>
<path d="M78.0157 245.091C77.6477 245.091 69.9197 244.357 69.9197 244.357C69.9197 244.357 64.3997 238.85 63.6637 238.483C63.2957 238.115 63.2957 238.115 62.9277 238.115L58.5117 328.43L90.1597 321.455C90.1597 321.455 79.1197 246.559 79.1197 245.825C79.1197 245.458 78.3837 245.091 78.0157 245.091Z" fill="#5A863E"/>
<path d="M47.8392 262.713L43.7912 274.462C43.7912 274.462 40.4792 272.626 36.0632 272.626C29.8072 272.626 29.4392 276.297 29.4392 277.399C29.4392 282.538 43.4232 284.741 43.4232 297.224C43.4232 307.136 37.1672 313.378 28.7032 313.378C18.7672 313.378 13.6152 307.136 13.6152 307.136L16.1912 298.325C16.1912 298.325 21.3432 302.731 25.7592 302.731C28.7032 302.731 29.8072 300.528 29.8072 298.692C29.8072 291.717 18.3992 291.35 18.3992 279.969C18.3992 270.423 25.3912 261.245 39.0072 261.245C45.2632 260.878 47.8392 262.713 47.8392 262.713Z" fill="#FFFFFE"/>
<path d="M127.329 284.374C124.017 282.538 122.545 281.07 122.545 279.234C122.545 276.664 124.753 275.196 128.433 275.196C132.481 275.196 136.161 277.031 136.161 277.031L139.105 268.22C139.105 268.22 136.529 266.017 128.801 266.017C117.761 266.017 110.401 272.259 110.401 281.07C110.401 286.21 114.081 289.881 118.497 292.451C122.177 294.654 123.649 296.122 123.649 298.325C123.649 300.528 121.809 302.731 118.129 302.731C112.977 302.731 107.825 300.161 107.825 300.161L104.881 308.972C104.881 308.972 109.297 311.909 117.025 311.909C128.065 311.909 136.161 306.402 136.161 296.49C136.161 290.983 132.113 286.944 127.329 284.374ZM171.857 265.65C166.337 265.65 161.921 268.22 158.609 272.259L163.393 247.294H150.881L138.737 310.808H151.249L155.297 289.147C156.769 281.07 161.185 275.93 165.233 275.93C168.177 275.93 169.281 277.766 169.281 280.703C169.281 282.538 169.281 284.374 168.913 286.21L164.129 311.175H176.641L181.425 285.476C181.793 282.906 182.161 279.601 182.161 277.399C182.161 270.056 178.481 265.65 171.857 265.65ZM203.873 301.997C199.457 301.997 197.985 298.325 197.985 293.92C197.985 286.944 201.665 275.196 208.289 275.196C212.705 275.196 214.177 278.867 214.177 282.538C214.177 290.615 210.497 301.997 203.873 301.997ZM210.129 265.65C195.041 265.65 185.105 279.234 185.105 294.287C185.105 303.832 190.993 311.542 202.401 311.542C217.121 311.542 227.057 298.325 227.057 282.906C227.057 274.094 221.905 265.65 210.129 265.65ZM246.929 302.364C243.617 302.364 241.777 300.528 241.777 300.528L243.985 288.78C245.457 281.07 249.505 275.93 253.921 275.93C257.601 275.93 259.073 279.601 259.073 282.906C258.705 290.983 253.921 302.364 246.929 302.364ZM259.073 265.65C250.609 265.65 245.825 272.993 245.825 272.993L246.561 266.385H235.521C235.153 270.79 234.049 277.766 232.945 282.906L224.113 328.43H236.625L239.937 310.073H240.305C240.305 310.073 242.881 311.542 247.665 311.542C262.385 311.542 271.953 296.49 271.953 281.437C271.953 273.36 268.273 265.65 259.073 265.65ZM289.617 248.028C285.569 248.028 282.625 251.332 282.625 255.371C282.625 259.042 284.833 261.612 288.513 261.612C292.561 261.612 295.873 259.042 295.873 254.269C295.873 250.598 293.297 248.028 289.617 248.028ZM272.321 310.808H284.833L293.297 266.752H280.785L272.321 310.808ZM324.945 266.752H316.113L316.481 264.549C317.217 260.143 319.793 256.472 323.841 256.472C326.049 256.472 327.889 257.206 327.889 257.206L330.465 247.294C330.465 247.294 328.257 246.192 323.841 246.192C319.425 246.192 315.009 247.294 311.697 250.231C307.281 253.902 305.441 259.042 304.337 264.182L303.969 266.385H298.081L296.241 275.93H302.129L295.505 310.808H308.017L314.641 275.93H323.105L324.945 266.752ZM354.753 266.752C354.753 266.752 347.025 286.21 343.345 296.857C342.977 293.552 340.401 266.752 340.401 266.752H327.153L334.513 307.136C334.513 307.871 334.513 308.605 334.145 309.339C332.673 312.276 330.097 314.846 327.521 316.682C325.313 318.517 322.369 319.619 320.529 320.353L323.841 331C326.417 330.633 331.569 328.43 335.985 324.392C341.505 319.252 347.025 310.808 352.177 299.794L367.265 267.119L354.753 266.752Z" fill="black"/>
</g>
<defs>
<clipPath id="clip0_621_4850">
<rect width="368" height="105" fill="white" transform="translate(0 226)"/>
</clipPath>
</defs>
</svg>
