<svg width="79" height="75" viewBox="0 0 79 75" fill="none" xmlns="http://www.w3.org/2000/svg">
<g clip-path="url(#clip0_2001_389)">
<path d="M55.5942 30.3148C55.5722 32.6119 55.6329 34.8961 55.5009 37.1922C55.3659 39.8046 56.1423 42.0543 57.774 44.0509C57.9643 44.2865 58.1409 44.5221 58.3036 44.7712C58.8865 45.671 58.7706 46.2889 57.9524 46.9689C56.2053 48.4104 54.4719 49.8658 52.7248 51.3073C51.6849 52.164 51.0385 52.1441 50.0013 51.2812C48.6091 50.1261 47.5221 48.7126 46.5598 47.2039C46.3294 46.8441 46.2055 46.8566 45.914 47.129C44.1647 48.8043 42.3202 50.3549 39.9881 51.1168C36.3863 52.3067 32.7393 52.4644 29.1477 51.1507C25.6932 49.8796 23.6406 47.3013 22.9044 43.7313C22.0896 39.7479 22.5659 35.9694 25.0465 32.6228C26.9278 30.0959 29.5144 28.6211 32.4805 27.7278C35.5431 26.8216 38.6965 26.4941 41.8632 26.208C42.7582 26.1202 43.6394 26.0461 44.5342 25.9721C44.7544 25.9605 44.9473 25.9348 44.9363 25.6458C44.9227 24.1875 45.0882 22.7034 44.758 21.2695C44.3353 19.4359 43.1489 18.3516 41.3232 17.9352C40.0193 17.6338 38.7255 17.704 37.4559 18.1183C35.5239 18.7602 34.3144 20.083 33.8141 22.0591C33.5423 23.1433 33.0297 23.5236 31.9716 23.4034C29.718 23.148 27.4644 22.8926 25.2245 22.6373C24.3038 22.5322 23.8291 21.8261 24.0302 20.9339C25.254 15.2366 29.026 12.0674 34.4321 10.6472C38.5832 9.55881 42.7792 9.53013 46.9221 10.739C50.2557 11.7063 53.046 13.3838 54.5828 16.6725C55.4591 18.538 55.6463 20.5482 55.6546 22.5568C55.6575 25.1292 55.6051 27.7287 55.5942 30.3148ZM44.8516 34.5042C44.8582 33.8164 44.8373 33.1284 44.8851 32.441C44.9167 32.0149 44.7668 31.8621 44.34 31.8993C43.2937 31.9856 42.2344 31.9892 41.1877 32.1168C39.356 32.3331 37.5635 32.77 36.0669 33.9112C33.8912 35.5825 33.4152 37.889 33.7479 40.4921C34.1452 43.5499 36.8525 45.2678 39.7784 44.2778C41.7657 43.609 42.9901 42.1625 43.8466 40.3411C44.7447 38.4925 44.8326 36.4987 44.8516 34.5042Z" fill="black"/>
<path d="M39.4648 65.5012C28.9702 65.3322 19.5737 62.5461 11.1135 56.7838C9.3914 55.6118 7.75287 54.3305 6.19805 52.9263C6.06169 52.8012 5.92532 52.6761 5.81672 52.5237C5.66739 52.3159 5.55971 52.0673 5.7409 51.8214C5.92234 51.548 6.22522 51.5234 6.48539 51.6497C7.08785 51.9443 7.66255 52.2662 8.25113 52.5745C13.6433 55.4874 19.332 57.6052 25.303 58.9691C30.7113 60.2039 36.1806 60.8064 41.7392 60.7082C49.678 60.564 57.3412 59.0415 64.7285 56.1545C65.0875 56.0066 65.4604 55.8588 65.8326 55.7798C66.3562 55.6885 66.8782 55.7623 67.1067 56.3285C67.3218 56.8533 67.0289 57.2632 66.6406 57.5897C66.3633 57.8209 66.0451 58.0104 65.7268 58.2137C60.9518 61.2495 55.7334 63.1806 50.2196 64.3522C46.5803 65.1428 42.8901 65.5065 39.4648 65.5012Z" fill="#FD9A00"/>
<path d="M66.0607 53.4982C64.479 53.4694 62.909 53.6607 61.3393 53.8108C61.0364 53.8354 60.6917 53.9146 60.5573 53.5832C60.3958 53.2102 60.7143 52.9932 60.9774 52.8168C62.943 51.5425 65.1349 51.0545 67.4332 50.9526C69.016 50.8715 70.5834 50.9552 72.1195 51.4376C72.8191 51.6507 73.159 52.0666 73.1384 52.7818C73.0193 56.6049 71.7083 59.9215 68.9176 62.6048C68.8204 62.7002 68.7095 62.7816 68.5987 62.8631C68.3494 63.0396 68.0452 63.2017 67.786 62.9792C67.5404 62.7705 67.6808 62.4692 67.7932 62.2226C68.6241 60.2084 69.4686 58.208 69.8881 56.0522C69.9458 55.7777 69.9622 55.5027 69.9784 55.2415C70.0007 54.3475 69.688 53.9593 68.8098 53.7309C67.8906 53.4744 66.9686 53.5069 66.0607 53.4982Z" fill="#FD9A00"/>
</g>
<defs>
<clipPath id="clip0_2001_389">
<rect width="77.135" height="56" fill="white" transform="translate(1.2019 9.13281) rotate(0.547612)"/>
</clipPath>
</defs>
</svg>
