<svg width="75" height="75" viewBox="0 0 75 75" fill="none" xmlns="http://www.w3.org/2000/svg">
<path d="M37.5823 28.3528C38.8969 28.3653 39.9849 27.6948 40.1385 26.8143L41.5788 12.1759C41.5926 10.7279 39.9043 9.52192 37.7672 9.5015C35.6315 9.48108 33.9238 10.6546 33.91 12.1026L35.067 26.7658C35.2007 27.649 36.2773 28.3403 37.587 28.3528L37.5823 28.3528ZM29.6066 32.8541C30.2771 31.725 30.2382 30.4488 29.5487 29.876L17.5679 21.3151C16.3226 20.5776 14.4326 21.4318 13.3462 23.2699C12.2584 25.1048 12.4288 27.1686 13.6741 27.903L26.9701 34.2404C27.8026 34.5578 28.9456 33.9739 29.6113 32.8463L29.6066 32.8541ZM45.4759 32.9977C46.1231 34.138 47.2499 34.7435 48.0884 34.4421L61.5047 28.36C62.7688 27.6496 62.969 25.5893 61.9243 23.734C60.8702 21.8755 58.9937 20.9851 57.736 21.6989L45.5938 30.0293C44.8982 30.5889 44.835 31.8642 45.4807 33.0058L45.4759 32.9977ZM37.4074 46.6523C38.722 46.6649 39.797 47.3531 39.9338 48.2363L41.094 62.8979C41.0801 64.3492 39.3691 65.5194 37.232 65.4989C35.0963 65.4785 33.4113 64.2758 33.4252 62.8246L34.8622 48.1879C35.0128 47.3073 36.1024 46.6399 37.4121 46.6524L37.4074 46.6523ZM45.3884 42.1529C46.0573 41.0222 47.1955 40.4429 48.0279 40.765L61.3257 47.0947C62.5759 47.8323 62.7366 49.8975 61.6567 51.7341C60.5673 53.5657 58.6741 54.4233 57.4303 53.6888L45.4494 45.1343C44.7648 44.5537 44.7259 43.2774 45.3933 42.1498L45.3884 42.1529ZM29.5192 41.9988C30.168 43.1391 30.1047 44.4144 29.4044 44.9802L17.2622 53.3042C16.003 54.0146 14.1297 53.1211 13.0786 51.2689C12.026 49.4121 12.2359 47.3518 13.4951 46.6367L26.9097 40.5625C27.7482 40.2562 28.8798 40.8587 29.5254 42.0021L29.5192 41.9988Z" fill="#F6A61F"/>
</svg>
