<svg width="75" height="75" viewBox="0 0 75 75" fill="none" xmlns="http://www.w3.org/2000/svg">
<path d="M52.5148 19.0574C50.6264 17.18 49.3794 14.6797 48.9308 11.9424C48.8714 11.5784 48.8261 11.2075 48.7946 10.8437L48.8065 9.60661L39.171 9.51452L38.8051 47.7943C38.7486 52.2533 35.0903 55.8321 30.6286 55.7894C29.316 55.7769 28.0831 55.4506 26.9922 54.8879C25.6584 54.2004 24.5419 53.1551 23.7674 51.8689C22.993 50.5827 22.5911 49.1063 22.6068 47.6046C22.6495 43.1315 26.308 39.5317 30.7836 39.5745C31.6424 39.5827 32.4651 39.7234 33.2377 39.9754L33.3314 30.1766C32.5295 30.0571 31.7131 29.9933 30.9032 29.9856C21.1139 29.913 13.1133 37.77 13.0199 47.5479C12.9612 53.6844 16.0236 59.1168 20.7272 62.3421C23.6226 64.331 27.0459 65.408 30.5574 65.4347C40.3395 65.5282 48.3401 57.6712 48.4336 47.8864L48.6206 28.3236C52.4876 31.1489 57.1423 32.6895 61.9297 32.7286L62.0213 23.1464C60.548 23.1323 59.091 22.8807 57.713 22.3993C56.7456 22.0615 54.9149 21.4568 52.5078 19.0573L52.5148 19.0574Z" fill="black"/>
</svg>
