<svg width="75" height="75" viewBox="0 0 75 75" fill="none" xmlns="http://www.w3.org/2000/svg">
<path d="M55.1071 65.6328C58.6215 65.6591 61.4918 62.8315 61.5181 59.317C61.5444 55.8026 58.7167 52.9323 55.2023 52.906C51.6879 52.8797 48.8175 55.7074 48.7913 59.2218C48.765 62.7362 51.5926 65.6065 55.1071 65.6328Z" fill="#2A3FCC"/>
<path d="M29.6525 65.4419C33.1669 65.4682 36.0372 62.6405 36.0635 59.1261C36.0898 55.6117 33.2621 52.7414 29.7477 52.7151C26.2333 52.6888 23.363 55.5165 23.3367 59.0309C23.3104 62.5453 26.138 65.4156 29.6525 65.4419Z" fill="#2A3FCC"/>
<path d="M66.6027 17.7838C66.4842 17.6476 66.3381 17.5382 66.1741 17.4628C66.0101 17.3874 65.8319 17.3477 65.6514 17.3465L19.8345 17.0037C19.1316 16.9983 18.5574 17.5636 18.552 18.2665C18.5514 18.3521 18.5593 18.4376 18.5759 18.5216L23.4762 44.0134C23.5328 44.3013 23.687 44.5609 23.9129 44.7481C24.1388 44.9353 24.4224 45.0387 24.7158 45.0409C24.7717 45.045 24.8278 45.0454 24.8838 45.0421L63.1026 40.237C63.3818 40.2019 63.6415 40.0752 63.841 39.8768C64.0405 39.6784 64.1686 39.4195 64.2054 39.1405L66.9031 18.7964C66.9285 18.616 66.9148 18.4322 66.863 18.2574C66.8111 18.0827 66.7224 17.9212 66.6027 17.7838Z" fill="#212121"/>
<path d="M29.8438 39.9884C29.5426 39.986 29.252 39.8768 29.0237 39.6803C28.7953 39.4837 28.6441 39.2126 28.597 38.915L26.1659 23.6237C26.0767 22.9264 26.5696 22.289 27.2669 22.1998C27.5886 22.1587 27.9138 22.2419 28.1762 22.4325C28.4386 22.623 28.6184 22.9065 28.6788 23.2251L31.1099 38.5165C31.2196 39.2103 30.7465 39.8618 30.0528 39.9723C29.9837 39.9836 29.9139 39.989 29.8438 39.9884ZM36.2169 38.7633C35.8983 38.7622 35.5917 38.6416 35.3576 38.4254C35.1236 38.2092 34.9791 37.9131 34.9528 37.5955L33.7849 23.5865C33.7242 22.8862 34.2428 22.2693 34.9432 22.2087L34.9534 22.2078C35.6539 22.1497 36.2688 22.6706 36.3269 23.3711L37.4949 37.3803C37.5529 38.0808 37.0321 38.6957 36.3316 38.7538L36.3315 38.7538L36.2169 38.7633ZM42.5898 37.5381C41.887 37.5329 41.3214 36.9588 41.3266 36.2559L41.4219 23.529C41.4271 22.8262 42.0012 22.2606 42.7041 22.2658C43.407 22.2711 43.9726 22.8452 43.9673 23.5481L43.8721 36.2751C43.8668 36.9779 43.2927 37.5434 42.5898 37.5381ZM48.9628 36.3131L48.8202 36.3121C48.1218 36.2329 47.6199 35.6024 47.6991 34.9039L47.7006 34.8909L49.0591 23.4462C49.1469 22.7468 49.7796 22.2473 50.4802 22.3241C51.1782 22.4067 51.6773 23.0394 51.5949 23.7375L50.2364 35.1823C50.2014 35.4949 50.0518 35.7833 49.8166 35.9922C49.5814 36.201 49.2773 36.3153 48.9628 36.3131ZM55.3359 35.088C55.1425 35.0865 54.9521 35.041 54.779 34.9549C54.6059 34.8688 54.4547 34.7444 54.3368 34.5912C54.219 34.438 54.1376 34.2599 54.0988 34.0705C54.0601 33.8811 54.0649 33.6853 54.1131 33.4981L56.7347 23.3357C56.8941 22.6511 57.5783 22.2254 58.2629 22.3848C58.9474 22.5442 59.3732 23.2284 59.2138 23.913C59.2093 23.9322 59.2044 23.9512 59.199 23.9702L56.5775 34.1326C56.5068 34.4075 56.3461 34.6509 56.1211 34.824C55.8962 34.9972 55.6197 35.0901 55.3359 35.088Z" fill="white"/>
<path d="M60.3126 50.3984L30.9363 50.1786C26.6938 50.137 23.0655 47.1176 22.2541 42.953L16.2832 11.8861L9.6907 11.8367C8.98781 11.8315 8.42223 11.2574 8.42749 10.5545C8.43275 9.85159 9.00686 9.286 9.70974 9.29126L17.3459 9.3484C17.6393 9.35053 17.9229 9.45396 18.1488 9.64119C18.3747 9.82842 18.529 10.0879 18.5855 10.3758L24.7549 42.4702C25.3334 45.4452 27.9248 47.6029 30.9554 47.6331L60.3316 47.8529C61.0345 47.8582 61.6001 48.4323 61.5948 49.1352C61.5896 49.8381 61.0155 50.4036 60.3126 50.3984Z" fill="#2A3FCC"/>
</svg>
