<svg width="32" height="32" viewBox="0 0 32 32" fill="none" xmlns="http://www.w3.org/2000/svg">
<path d="M21.3601 21.8637L17.0279 24.387C16.9057 24.4587 16.7772 24.5193 16.6441 24.5681C16.6773 24.4881 16.7051 24.406 16.7274 24.3224C16.9648 23.4364 16.4402 22.512 15.533 22.2179C15.5116 22.2109 15.4897 22.2054 15.4676 22.2014C14.2321 21.9786 13.0083 21.5362 12.0249 21.1807C11.681 21.0563 11.3561 20.9389 11.0787 20.8489C9.92645 20.4751 8.89538 20.9318 8.03882 21.4276L4.91676 23.2353L4.67038 22.7999C4.36132 22.2539 3.6657 22.0611 3.11963 22.3701L1.90413 23.058C1.35813 23.367 1.16526 24.0626 1.47426 24.6087L5.04788 30.923C5.25701 31.2924 5.64307 31.5002 6.04007 31.5002C6.22982 31.5002 6.42201 31.4527 6.59863 31.3528L7.81413 30.6649C8.36013 30.3558 8.55295 29.6602 8.24395 29.1141L7.93195 28.5628L8.52594 28.2199L14.0283 29.6942C14.3447 29.779 14.6595 29.8212 14.9692 29.8211C15.5957 29.8211 16.2011 29.6486 16.7545 29.3078L24.6165 24.4667C25.3841 23.9942 25.6298 22.8069 25.1321 21.9758C24.8914 21.5743 23.9085 20.3795 21.3601 21.8637ZM7.32151 29.7946L6.10601 30.4826C6.04095 30.5193 5.95495 30.4956 5.91813 30.4305L2.34451 24.1162C2.3077 24.0512 2.33157 23.9652 2.39657 23.9284L3.61207 23.2404C3.63239 23.229 3.65532 23.2231 3.67863 23.2231C3.72713 23.2231 3.77495 23.2483 3.79995 23.2925L7.37357 29.6068C7.41038 29.6718 7.38657 29.7578 7.32151 29.7946ZM24.0921 23.6154L16.2302 28.4565C15.6348 28.823 14.9811 28.9146 14.2871 28.7285L8.58463 27.2006C8.52122 27.1836 8.45507 27.1792 8.38998 27.1878C8.32488 27.1964 8.26211 27.2177 8.20526 27.2505L7.43932 27.6927L5.40926 24.1056L8.53982 22.2931C9.23919 21.8881 9.99351 21.5482 10.7701 21.8002C11.0317 21.885 11.3344 21.9944 11.6849 22.1212C12.6941 22.486 13.9476 22.9392 15.2528 23.1789C15.6424 23.3192 15.8603 23.6946 15.7614 24.0637C15.6563 24.456 15.3623 24.6272 14.8884 24.5734C14.2573 24.4433 13.6553 24.2716 13.0184 24.0897C12.7136 24.0026 12.3983 23.9126 12.0739 23.8256C11.9465 23.7936 11.8117 23.8129 11.6985 23.8794C11.5853 23.9459 11.5028 24.0543 11.4688 24.1811C11.4348 24.308 11.4521 24.4431 11.5169 24.5573C11.5817 24.6715 11.6888 24.7557 11.8151 24.7916C12.1316 24.8764 12.4428 24.9653 12.7438 25.0512C13.4071 25.2406 14.0336 25.4196 14.7104 25.5579C14.7138 25.5586 14.7172 25.5588 14.7206 25.5594C14.7238 25.5601 14.727 25.561 14.7303 25.5615L15.2693 25.6491C16.1025 25.7824 16.8423 25.6522 17.5311 25.2511L21.8634 22.7278C23.031 22.0477 23.9547 21.9566 24.274 22.4897C24.4896 22.8497 24.3961 23.4282 24.0921 23.6154ZM3.90788 24.3594C3.91684 24.4161 3.91446 24.474 3.90087 24.5298C3.88728 24.5856 3.86276 24.6381 3.82873 24.6843C3.7947 24.7306 3.75183 24.7696 3.70261 24.7992C3.65339 24.8287 3.59879 24.8482 3.54198 24.8565C3.48517 24.8648 3.42728 24.8618 3.37166 24.8475C3.31604 24.8333 3.26379 24.8082 3.21794 24.7736C3.1721 24.7391 3.13357 24.6958 3.10458 24.6462C3.07559 24.5967 3.05672 24.5418 3.04907 24.4849C3.03384 24.3717 3.06387 24.2571 3.13264 24.1658C3.20141 24.0746 3.30337 24.0142 3.41641 23.9976C3.52945 23.9811 3.64445 24.0098 3.73646 24.0775C3.82846 24.1453 3.89006 24.2465 3.90788 24.3594ZM8.90345 8.40875C8.98051 8.56125 9.04995 8.69663 9.11226 8.81819C9.36182 9.30481 9.48707 9.549 9.52357 9.75606C9.56007 9.96306 9.52595 10.2354 9.45788 10.7781C9.44088 10.9137 9.42195 11.0646 9.4017 11.2343C9.29195 12.1518 9.78901 13.0127 10.6386 13.3766C10.7956 13.4438 10.9358 13.5029 11.0617 13.5559L11.1626 13.5985L9.15538 17.9098C9.11682 17.9927 9.10169 18.0845 9.11165 18.1753C9.1216 18.2661 9.15626 18.3525 9.21185 18.425C9.26743 18.4975 9.34183 18.5534 9.42696 18.5866C9.51209 18.6198 9.60468 18.6291 9.6947 18.6134L11.9084 18.2266L13.0374 20.1696C13.0834 20.2486 13.15 20.3135 13.2303 20.3573C13.3105 20.4011 13.4011 20.422 13.4924 20.4179C13.5837 20.4137 13.6721 20.3846 13.7481 20.3338C13.824 20.2829 13.8845 20.2122 13.9231 20.1294L15.9001 15.8829L15.8448 15.8572C16.2101 15.746 16.421 15.6901 16.5955 15.6901C16.8058 15.6901 17.0681 15.771 17.5906 15.9323L17.7784 15.9901L19.2116 19.3179C19.2478 19.4018 19.3062 19.4742 19.3807 19.5272C19.4551 19.5803 19.5426 19.6119 19.6337 19.6187C19.7248 19.6255 19.8161 19.6071 19.8975 19.5657C19.979 19.5243 20.0475 19.4613 20.0957 19.3837L21.2806 17.4743L23.4821 17.9251C23.5716 17.9435 23.6644 17.9369 23.7505 17.9062C23.8366 17.8755 23.9126 17.8218 23.9702 17.7509C24.0279 17.68 24.0651 17.5947 24.0777 17.5042C24.0902 17.4137 24.0778 17.3214 24.0416 17.2375L22.4056 13.4391C22.4531 13.4189 22.5016 13.3983 22.5524 13.3765C23.4019 13.0127 23.899 12.1517 23.7894 11.2342C23.7691 11.0645 23.7502 10.9135 23.7332 10.7779C23.6651 10.2353 23.6309 9.963 23.6675 9.75594C23.704 9.54894 23.8293 9.30462 24.0788 8.818C24.1411 8.69644 24.2106 8.56112 24.2876 8.40862C24.7045 7.58394 24.5319 6.60487 23.8581 5.97244C23.7463 5.86763 23.6342 5.76317 23.5218 5.65906C23.1208 5.28719 22.9196 5.1005 22.8145 4.91844C22.7094 4.73637 22.6483 4.46875 22.5267 3.93556C22.4963 3.80238 22.4625 3.65406 22.4235 3.48769C22.2128 2.58794 21.4512 1.94888 20.5285 1.89756C20.3579 1.88806 20.2059 1.8805 20.0695 1.87375C19.5233 1.84656 19.2492 1.83288 19.0516 1.761C18.8541 1.68913 18.6353 1.52338 18.1994 1.19319C18.0905 1.11069 17.9693 1.01875 17.8324 0.916375C17.0926 0.362688 16.0984 0.362688 15.3587 0.916375C15.2361 1.00825 15.1138 1.10048 14.9918 1.19306C14.5559 1.52331 14.3371 1.68913 14.1395 1.761C13.9419 1.83288 13.6678 1.84656 13.1216 1.87375C12.9852 1.8805 12.8333 1.88806 12.6626 1.89756C11.7399 1.94888 10.9784 2.58788 10.7676 3.48769C10.7286 3.65406 10.6948 3.80231 10.6644 3.9355C10.5428 4.46869 10.4818 4.73631 10.3766 4.91838C10.2715 5.10044 10.0703 5.28706 9.66945 5.65894C9.55701 5.76309 9.44489 5.86757 9.33307 5.97237C8.65919 6.60494 8.48657 7.584 8.90345 8.40875ZM13.4208 18.8389L12.5979 17.4229C12.5465 17.3345 12.4693 17.264 12.3766 17.2208C12.2839 17.1777 12.1802 17.164 12.0795 17.1816L10.4662 17.4634L12.0454 14.0714C12.1841 14.2128 12.3301 14.4386 12.5861 14.8351C12.6603 14.9499 12.7428 15.0777 12.8363 15.2207C13.2491 15.8519 13.9473 16.1943 14.6709 16.1536L13.4208 18.8389ZM21.1398 16.4247C21.0397 16.4042 20.9356 16.4148 20.8417 16.4553C20.7478 16.4957 20.6686 16.564 20.6147 16.6509L19.7511 18.0424L18.9296 16.1349C19.4996 16.0523 20.0206 15.7314 20.3546 15.2207C20.4481 15.0778 20.5306 14.9499 20.6048 14.8352C20.9014 14.3758 21.0503 14.1451 21.2114 14.01C21.2818 13.9509 21.3698 13.8973 21.4886 13.8379L22.7443 16.7533L21.1398 16.4247ZM10.0173 6.70169C10.1404 6.58619 10.2505 6.484 10.3494 6.39225C11.302 5.50856 11.3502 5.425 11.6393 4.15813C11.6693 4.02663 11.7026 3.88019 11.7411 3.71594C11.8515 3.24481 12.2349 2.92306 12.7181 2.89619C12.8865 2.88681 13.0365 2.87931 13.1713 2.87263C14.4691 2.808 14.5598 2.775 15.5956 1.99025C15.7031 1.90881 15.8228 1.81813 15.9578 1.717C16.3451 1.42706 16.8458 1.42706 17.2331 1.717C17.3681 1.81813 17.4879 1.90881 17.5954 1.99031C18.6311 2.775 18.7218 2.808 20.0196 2.87263C20.1543 2.87931 20.3044 2.88681 20.4728 2.89619C20.9559 2.92306 21.3394 3.24481 21.4498 3.71594C21.4883 3.88019 21.5216 4.02663 21.5516 4.15813C21.8407 5.42506 21.8889 5.50856 22.8415 6.39231C22.9404 6.48406 23.0506 6.58625 23.1736 6.70169C23.5264 7.03281 23.6133 7.52581 23.395 7.95762C23.3189 8.10812 23.2504 8.24175 23.1888 8.36181C22.5958 9.51813 22.5791 9.61312 22.7408 10.9024C22.7576 11.0363 22.7763 11.1854 22.7963 11.3529C22.8537 11.8334 22.6034 12.2669 22.1586 12.4573C22.0195 12.5168 21.8802 12.5758 21.7408 12.6344C20.5433 13.1391 20.4694 13.2011 19.7644 14.2928C19.6913 14.406 19.6098 14.5323 19.5175 14.6734C19.2527 15.0783 18.7821 15.2495 18.3191 15.1096C18.1576 15.0608 18.0141 15.0164 17.8853 14.9767C17.2644 14.7851 16.9299 14.6893 16.5953 14.6893C16.2608 14.6893 15.9263 14.7851 15.3054 14.9767C15.1765 15.0164 15.0329 15.0608 14.8714 15.1096C14.4084 15.2496 13.9379 15.0783 13.6731 14.6734C13.5807 14.5322 13.4992 14.4059 13.426 14.2926C12.7211 13.2011 12.6473 13.1391 11.4498 12.6344C11.3254 12.5821 11.187 12.5238 11.0319 12.4573C10.5871 12.2668 10.3369 11.8334 10.3943 11.3529C10.4143 11.1854 10.4331 11.0364 10.4498 10.9026C10.6115 9.61319 10.5948 9.51819 10.0018 8.36194C9.94026 8.24194 9.87169 8.10825 9.79563 7.95769C9.57763 7.52581 9.66457 7.03281 10.0173 6.70169ZM16.5955 13.2063C19.2849 13.2063 21.473 11.0182 21.473 8.32881C21.473 5.63938 19.285 3.45131 16.5955 3.45131C13.906 3.45131 11.718 5.63931 11.718 8.32881C11.718 11.0182 13.9061 13.2063 16.5955 13.2063ZM16.5955 4.45131C18.7336 4.45131 20.473 6.19075 20.473 8.32881C20.473 10.4668 18.7336 12.2063 16.5955 12.2063C14.4574 12.2063 12.718 10.4668 12.718 8.32881C12.718 6.19075 14.4574 4.45131 16.5955 4.45131ZM14.1839 8.80488C14.1367 8.75864 14.099 8.70348 14.0732 8.6426C14.0474 8.58172 14.0339 8.51632 14.0335 8.45018C14.0332 8.38405 14.0459 8.31851 14.071 8.25734C14.0962 8.19617 14.1332 8.1406 14.18 8.09383C14.2267 8.04707 14.2823 8.01005 14.3435 7.98491C14.4046 7.95978 14.4702 7.94702 14.5363 7.94739C14.6024 7.94776 14.6678 7.96125 14.7287 7.98707C14.7896 8.01289 14.8448 8.05053 14.891 8.09781L15.7546 8.96138L18.3174 6.63556C18.4156 6.54644 18.5452 6.49998 18.6776 6.50641C18.8101 6.51283 18.9346 6.57161 19.0237 6.66981C19.1128 6.76802 19.1593 6.8976 19.1529 7.03006C19.1464 7.16252 19.0876 7.287 18.9894 7.37612L16.0739 10.0221C15.982 10.1057 15.8622 10.1519 15.7379 10.1518C15.6723 10.1519 15.6072 10.139 15.5465 10.1139C15.4858 10.0887 15.4307 10.0519 15.3843 10.0054L14.1839 8.80488ZM30.5107 3.66181L28.0298 0.739875C27.966 0.66463 27.8866 0.60419 27.7971 0.562763C27.7076 0.521336 27.6101 0.499918 27.5115 0.5C27.3115 0.5 27.1224 0.587375 26.9931 0.73975L26.993 0.739813L24.5122 3.66169C24.3386 3.86613 24.3006 4.14431 24.4132 4.38763C24.5258 4.631 24.7624 4.78212 25.0306 4.78212H25.6861V10.5091C25.6861 10.9836 26.072 11.3695 26.5464 11.3695H28.4764C28.9509 11.3695 29.3368 10.9836 29.3368 10.5091V4.78225H29.9923C30.2606 4.78225 30.4972 4.63106 30.6098 4.38775C30.7223 4.14444 30.6843 3.86625 30.5107 3.66181ZM28.8368 3.78225C28.7041 3.78225 28.577 3.83493 28.4832 3.9287C28.3894 4.02247 28.3368 4.14964 28.3368 4.28225V10.3696H26.686V4.28225C26.686 4.14964 26.6333 4.02247 26.5396 3.9287C26.4458 3.83493 26.3186 3.78225 26.186 3.78225H25.7216L27.5114 1.67425L29.3011 3.78225H28.8368ZM3.19876 4.78225H3.8542V10.5092C3.8542 10.9837 4.24013 11.3696 4.71457 11.3696H6.64457C7.11901 11.3696 7.50495 10.9837 7.50495 10.5092V4.78225H8.16045C8.4287 4.78225 8.66532 4.63106 8.77788 4.38775C8.89045 4.14444 8.85251 3.86625 8.67895 3.66188L6.19807 0.739875C6.13428 0.664635 6.05486 0.604199 5.96534 0.562773C5.87581 0.521347 5.77834 0.499926 5.6797 0.5C5.4797 0.5 5.29063 0.587375 5.16126 0.73975L5.1612 0.739813L2.68038 3.66169C2.50676 3.86613 2.46882 4.14431 2.58138 4.38763C2.69395 4.63106 2.93051 4.78225 3.19876 4.78225ZM5.67963 1.67425L7.46938 3.78225H7.00501C6.8724 3.78225 6.74522 3.83493 6.65145 3.9287C6.55769 4.02247 6.50501 4.14964 6.50501 4.28225V10.3696H4.8542V4.28225C4.8542 4.14964 4.80152 4.02247 4.70775 3.9287C4.61398 3.83493 4.4868 3.78225 4.3542 3.78225H3.88976L5.67963 1.67425Z" fill="#5A40FF"/>
</svg>
