<svg width="32" height="32" viewBox="0 0 32 32" fill="none" xmlns="http://www.w3.org/2000/svg">
<path d="M9.99992 22.6667C9.82311 22.6667 9.65354 22.5964 9.52851 22.4714C9.40349 22.3464 9.33325 22.1768 9.33325 22V6.66667C9.33325 5.196 10.5293 4 11.9999 4C13.4706 4 14.6666 5.196 14.6666 6.66667V20.6667C14.6666 20.8435 14.5963 21.013 14.4713 21.1381C14.3463 21.2631 14.1767 21.3333 13.9999 21.3333C13.8231 21.3333 13.6535 21.2631 13.5285 21.1381C13.4035 21.013 13.3333 20.8435 13.3333 20.6667V6.66667C13.3333 6.31304 13.1928 5.97391 12.9427 5.72386C12.6927 5.47381 12.3535 5.33333 11.9999 5.33333C11.6463 5.33333 11.3072 5.47381 11.0571 5.72386C10.8071 5.97391 10.6666 6.31304 10.6666 6.66667V22C10.6666 22.1768 10.5963 22.3464 10.4713 22.4714C10.3463 22.5964 10.1767 22.6667 9.99992 22.6667Z" fill="#5A40FF"/>
<path d="M17.9999 21.3333C17.8231 21.3333 17.6535 21.2631 17.5285 21.1381C17.4035 21.013 17.3333 20.8435 17.3333 20.6667V14.6667C17.3333 14.313 17.1928 13.9739 16.9427 13.7239C16.6927 13.4738 16.3535 13.3333 15.9999 13.3333C15.6463 13.3333 15.3072 13.4738 15.0571 13.7239C14.8071 13.9739 14.6666 14.313 14.6666 14.6667C14.6666 14.8435 14.5963 15.013 14.4713 15.1381C14.3463 15.2631 14.1767 15.3333 13.9999 15.3333C13.8231 15.3333 13.6535 15.2631 13.5285 15.1381C13.4035 15.013 13.3333 14.8435 13.3333 14.6667C13.3333 13.196 14.5293 12 15.9999 12C17.4706 12 18.6666 13.196 18.6666 14.6667V20.6667C18.6666 20.8435 18.5963 21.013 18.4713 21.1381C18.3463 21.2631 18.1767 21.3333 17.9999 21.3333Z" fill="#5A40FF"/>
<path d="M21.9999 21.3335C21.8231 21.3335 21.6535 21.2633 21.5285 21.1382C21.4035 21.0132 21.3333 20.8436 21.3333 20.6668V16.0002C21.3333 15.6465 21.1928 15.3074 20.9427 15.0574C20.6927 14.8073 20.3535 14.6668 19.9999 14.6668C19.6463 14.6668 19.3072 14.8073 19.0571 15.0574C18.8071 15.3074 18.6666 15.6465 18.6666 16.0002C18.6666 16.177 18.5963 16.3465 18.4713 16.4716C18.3463 16.5966 18.1767 16.6668 17.9999 16.6668C17.8231 16.6668 17.6535 16.5966 17.5285 16.4716C17.4035 16.3465 17.3333 16.177 17.3333 16.0002C17.3333 14.5295 18.5293 13.3335 19.9999 13.3335C21.4706 13.3335 22.6666 14.5295 22.6666 16.0002V20.6668C22.6666 20.8436 22.5963 21.0132 22.4713 21.1382C22.3463 21.2633 22.1767 21.3335 21.9999 21.3335Z" fill="#5A40FF"/>
<path d="M20.6666 32H12.9506C10.7066 32 8.3919 31.0227 6.7559 29.3853C4.95057 27.5787 3.99723 25.0013 4.00123 21.9347C4.00257 19.3987 6.1239 17.3333 8.7279 17.3333H9.9999C10.1767 17.3333 10.3463 17.4036 10.4713 17.5286C10.5963 17.6536 10.6666 17.8232 10.6666 18C10.6666 18.1768 10.5963 18.3464 10.4713 18.4714C10.3463 18.5964 10.1767 18.6667 9.9999 18.6667H8.7279C6.85857 18.6667 5.3359 20.1347 5.33457 21.936C5.3319 24.68 6.1279 26.868 7.69857 28.4427C9.33723 30.0827 11.4852 30.6667 12.9506 30.6667H20.6666C23.2399 30.6667 25.3332 28.5733 25.3332 26V17.3333C25.3332 16.9797 25.1928 16.6406 24.9427 16.3905C24.6927 16.1405 24.3535 16 23.9999 16C23.6463 16 23.3071 16.1405 23.0571 16.3905C22.807 16.6406 22.6666 16.9797 22.6666 17.3333C22.6666 17.5101 22.5963 17.6797 22.4713 17.8047C22.3463 17.9298 22.1767 18 21.9999 18C21.8231 18 21.6535 17.9298 21.5285 17.8047C21.4035 17.6797 21.3332 17.5101 21.3332 17.3333C21.3332 15.8627 22.5292 14.6667 23.9999 14.6667C25.4706 14.6667 26.6666 15.8627 26.6666 17.3333V26C26.6666 29.308 23.9746 32 20.6666 32ZM16.6666 11.0933C16.5404 11.0935 16.4168 11.0578 16.3101 10.9903C16.2035 10.9229 16.1182 10.8266 16.0643 10.7125C16.0103 10.5985 15.9899 10.4714 16.0054 10.3462C16.021 10.221 16.0717 10.1028 16.1519 10.0053C16.9239 9.05867 17.3332 7.904 17.3332 6.66667C17.3332 3.72533 14.9412 1.33333 11.9999 1.33333C9.05857 1.33333 6.66657 3.72533 6.66657 6.66667C6.66657 7.904 7.0759 9.05867 7.84923 10.0053C7.96115 10.142 8.0142 10.3175 7.9967 10.4933C7.97919 10.6691 7.89257 10.8307 7.7559 10.9427C7.61922 11.0546 7.44369 11.1076 7.2679 11.0901C7.09212 11.0726 6.93049 10.986 6.81857 10.8493C5.85032 9.67128 5.32484 8.19154 5.33323 6.66667C5.33323 2.99067 8.3239 0 11.9999 0C15.6759 0 18.6666 2.99067 18.6666 6.66667C18.6749 8.1913 18.1499 9.67087 17.1826 10.8493C17.1202 10.9259 17.0415 10.9875 16.9522 11.0297C16.8629 11.072 16.7653 11.0937 16.6666 11.0933Z" fill="#5A40FF"/>
</svg>
