<svg width="32" height="32" viewBox="0 0 32 32" fill="none" xmlns="http://www.w3.org/2000/svg">
<path fill-rule="evenodd" clip-rule="evenodd" d="M8.84252 4.09287C8.72202 3.97094 8.72202 3.77312 8.84252 3.65087C12.6071 -0.111376 18.62 -0.285939 22.5903 3.12719L22.5021 1.03856C22.4963 0.866374 22.6285 0.720562 22.8019 0.713249C22.9723 0.706499 23.1193 0.839874 23.1251 1.01244L23.2427 3.926C23.2319 4.00512 23.1635 4.08325 23.1633 4.0835C23.1633 4.08525 23.1604 4.08644 23.1604 4.08794C23.1296 4.10631 23.0731 4.1795 22.9458 4.18431L20.101 4.30394C19.9296 4.31194 19.7822 4.17562 19.7748 4.00475C19.769 3.83256 19.9012 3.68675 20.0746 3.67944L22.17 3.59125C18.4466 0.399374 12.8129 0.566624 9.28627 4.09287C9.22735 4.15159 9.14757 4.18456 9.06439 4.18456C8.98122 4.18456 8.90143 4.15159 8.84252 4.09287ZM23.1546 27.9059C23.1839 27.9348 23.2072 27.9692 23.2231 28.0072C23.239 28.0451 23.2472 28.0859 23.2472 28.127C23.2472 28.1682 23.239 28.2089 23.2231 28.2469C23.2072 28.2849 23.1839 28.3193 23.1546 28.3482C19.3839 32.1015 13.3879 32.2949 9.4097 28.8719L9.49789 30.9602C9.49956 31.0025 9.49266 31.0446 9.47759 31.0841C9.46252 31.1237 9.43961 31.1597 9.41023 31.1902C9.38084 31.2206 9.3456 31.2448 9.30663 31.2612C9.26765 31.2776 9.22575 31.286 9.18345 31.2858C9.01889 31.2858 8.87783 31.1544 8.87196 30.9864L8.75145 28.1401C8.74977 28.0615 8.79739 27.9361 8.83964 27.9109C8.83964 27.9094 8.84258 27.9077 8.84258 27.9059C8.89953 27.8523 8.97325 27.8201 9.05127 27.8146L11.899 27.6952C12.0694 27.6891 12.2163 27.8222 12.2222 27.9941C12.231 28.1666 12.0958 28.3121 11.9254 28.3197L9.82708 28.4076C13.5535 31.5997 19.1872 31.4329 22.7138 27.906C22.8343 27.7839 23.0341 27.7839 23.1546 27.9059ZM25.488 24.5677V21.5278L29.617 19.7921V22.832L25.488 24.5677ZM20.73 22.832V19.7921L24.862 21.5278V24.5677L20.73 22.832ZM25.1735 17.6623L21.2267 19.3213L25.1735 20.9814L29.1233 19.3213L25.1735 17.6623ZM30.052 19.0339L25.294 17.0352C25.2559 17.0192 25.2149 17.011 25.1735 17.011C25.1321 17.011 25.0912 17.0192 25.053 17.0352L20.298 19.0339C20.2416 19.0579 20.1934 19.0979 20.1594 19.149C20.1255 19.2001 20.1073 19.26 20.107 19.3213V23.0395C20.1072 23.101 20.1253 23.1611 20.1593 23.2123C20.1932 23.2636 20.2415 23.3037 20.298 23.3278L25.053 25.3265C25.0911 25.3427 25.1322 25.351 25.1736 25.3509C25.215 25.3508 25.256 25.3423 25.294 25.3259V25.3265L30.052 23.3278C30.1085 23.3037 30.1568 23.2636 30.1907 23.2123C30.2247 23.1611 30.2428 23.101 30.243 23.0395V19.3213C30.2427 19.26 30.2245 19.2 30.1906 19.149C30.1566 19.0979 30.1084 19.0579 30.052 19.0339ZM25.488 13.7575V10.7176L29.617 8.98162V12.0218L25.488 13.7575ZM20.73 12.0218V8.98162L24.862 10.7176V13.7575L20.73 12.0218ZM25.1735 6.85187L21.2267 8.51144L25.1735 10.171L29.1233 8.51144L25.1735 6.85187ZM30.052 8.22344L25.294 6.22475C25.2559 6.20875 25.2149 6.20051 25.1735 6.20051C25.1321 6.20051 25.0912 6.20875 25.053 6.22475L20.298 8.22344C20.2415 8.24749 20.1933 8.2876 20.1593 8.33879C20.1254 8.38998 20.1072 8.45001 20.107 8.51144V12.2293C20.1072 12.2907 20.1254 12.3508 20.1593 12.402C20.1933 12.4531 20.2415 12.4933 20.298 12.5173L25.053 14.516C25.0911 14.5322 25.1322 14.5405 25.1736 14.5404C25.215 14.5403 25.256 14.5318 25.294 14.5154V14.516L30.052 12.5173C30.1085 12.4933 30.1567 12.4532 30.1907 12.402C30.2246 12.3508 30.2428 12.2907 30.243 12.2293V8.51144C30.2428 8.45 30.2246 8.38996 30.1907 8.33876C30.1567 8.28757 30.1085 8.24746 30.052 8.22344ZM8.53689 19.0465H11.2406V19.4964H8.53689V19.0465ZM8.50752 20.1215H11.273C11.6021 20.1215 11.8666 19.8552 11.8666 19.5276V19.0151C11.8666 18.6877 11.6021 18.4211 11.273 18.4211H8.50752C8.18133 18.4211 7.91389 18.6877 7.91389 19.0151V19.5276C7.91383 19.8552 8.18127 20.1215 8.50752 20.1215ZM7.44658 18.3376C7.57002 18.459 7.57002 18.6567 7.44952 18.7796L6.04183 20.2026C6.01287 20.232 5.97838 20.2554 5.94034 20.2714C5.9023 20.2874 5.86147 20.2957 5.8202 20.2958C5.77894 20.2959 5.73806 20.2878 5.69994 20.272C5.66181 20.2562 5.62719 20.2331 5.59808 20.2038L4.91039 19.5158C4.61739 19.2245 5.06214 18.7836 5.35121 19.0738L5.81846 19.5402L7.00571 18.3399C7.12627 18.2172 7.32314 18.216 7.44658 18.3376ZM8.53689 15.5949H11.2406V16.0451H8.53689V15.5949ZM8.50752 16.6702H11.273C11.6021 16.6702 11.8666 16.4036 11.8666 16.0759V15.5637C11.8666 15.2364 11.6021 14.9698 11.273 14.9698H8.50752C8.18133 14.9698 7.91389 15.2364 7.91389 15.5637V16.0759C7.91383 16.4036 8.18127 16.6702 8.50752 16.6702ZM7.44658 14.886C7.57002 15.0074 7.57002 15.2054 7.44952 15.328L6.04183 16.7512C6.01283 16.7806 5.97832 16.8039 5.94029 16.8198C5.90225 16.8357 5.86144 16.844 5.8202 16.8441C5.77896 16.8442 5.73811 16.8362 5.69999 16.8205C5.66187 16.8047 5.62723 16.7816 5.59808 16.7524L4.91039 16.0644C4.61758 15.7729 5.06214 15.3319 5.35121 15.6224L5.81846 16.0886L7.00571 14.8883C7.12627 14.7658 7.32314 14.7646 7.44658 14.886ZM8.53689 12.1432H11.2406V12.5934H8.53689V12.1432ZM8.50752 13.2185H11.273C11.6021 13.2185 11.8666 12.9519 11.8666 12.6242V12.1124C11.8666 11.7847 11.6021 11.5181 11.273 11.5181H8.50752C8.18133 11.5181 7.91389 11.7847 7.91389 12.1124V12.6243C7.91383 12.952 8.18127 13.2185 8.50752 13.2185ZM5.81846 12.6369L7.00571 11.437C7.29396 11.1444 7.73802 11.5837 7.44946 11.8764L6.04177 13.2999C6.01272 13.3292 5.97819 13.3524 5.94017 13.3683C5.90214 13.3842 5.86135 13.3924 5.82014 13.3925C5.77893 13.3926 5.7381 13.3846 5.69998 13.3689C5.66187 13.3532 5.62722 13.3302 5.59802 13.3011L4.91033 12.6128C4.61752 12.3216 5.06195 11.8802 5.35114 12.1708L5.81846 12.6369ZM2.38302 24.014C2.38302 24.4063 2.70039 24.7258 3.09421 24.7258H13.5916C13.9855 24.7258 14.3028 24.4064 14.3028 24.014V7.62594C14.3028 7.23331 13.9855 6.91419 13.5916 6.91419H10.115V7.8255H13.0803C13.1213 7.82545 13.1619 7.8335 13.1997 7.84919C13.2376 7.86488 13.272 7.88791 13.301 7.91693C13.3299 7.94596 13.3528 7.98042 13.3684 8.01834C13.384 8.05626 13.3919 8.09688 13.3918 8.13787V23.5021C13.3918 23.6746 13.2536 23.8144 13.0803 23.8144H3.60552C3.56452 23.8145 3.52392 23.8064 3.48605 23.7907C3.44818 23.7751 3.41378 23.752 3.38483 23.723C3.35589 23.694 3.33296 23.6595 3.31738 23.6216C3.30179 23.5837 3.29385 23.5431 3.29402 23.5021V8.13787C3.29402 7.96537 3.43214 7.8255 3.60552 7.8255H6.57077V6.91419H3.09421C2.70039 6.91419 2.38302 7.23331 2.38302 7.62594V24.014ZM9.59777 9.34662H7.08802C6.80295 9.34662 6.57077 9.11475 6.57077 8.82944V8.45062H3.91702V23.1894H12.7688V8.45062H10.115V8.82944C10.115 9.11475 9.88289 9.34662 9.59777 9.34662ZM7.19677 5.91556H9.48908V8.72181H7.19677V5.91556ZM14.9288 24.014V7.62594C14.9288 6.88887 14.3293 6.28906 13.5916 6.28906H10.115V5.808C10.115 5.52262 9.88283 5.2905 9.59777 5.2905H7.08802C6.80295 5.2905 6.57077 5.52269 6.57077 5.808V6.28912H3.09421C2.35658 6.28912 1.75708 6.88894 1.75708 7.626V24.014C1.75708 24.7507 2.35658 25.3509 3.09421 25.3509H13.5916C14.3293 25.3509 14.9288 24.7507 14.9288 24.014Z" fill="#5A40FF"/>
</svg>
